<?xml version="1.0" encoding="UTF-8" standalone="no"?>
<!DOCTYPE svg PUBLIC "-//W3C//DTD SVG 1.1//EN" "http://www.w3.org/Graphics/SVG/1.1/DTD/svg11.dtd">
<!-- Generated by graphviz version 2.43.0 (0)
 -->
<!-- Title: %3 Pages: 1 -->
<svg width="310pt" height="122pt" viewBox="0.00 0.00 310.09 121.75" xmlns="http://www.w3.org/2000/svg"
    xmlns:xlink="http://www.w3.org/1999/xlink">
    <g id="graph0" class="graph" transform="scale(1 1) rotate(0) translate(4 117.75)">
        <title>%3</title>
        <polygon fill="none" stroke="transparent" points="-4,4 -4,-117.75 306.09,-117.75 306.09,4 -4,4" />
        <!-- Initial -->
        <g id="node1" class="node">
            <title>Initial</title>
            <ellipse fill="black" stroke="black" cx="1.8" cy="-26.75" rx="1.8" ry="1.8" />
        </g>
        <!-- q0 -->
        <g id="node2" class="node">
            <title>q0</title>
            <ellipse fill="white" stroke="black" cx="67.35" cy="-26.75" rx="27" ry="27" />
            <ellipse fill="none" stroke="black" cx="67.35" cy="-26.75" rx="22.96" ry="22.96" />
            <text text-anchor="middle" x="67.35" y="-23.05" font-family="Times,serif" font-size="14.00">q0</text>
        </g>
        <!-- Initial&#45;&gt;q0 -->
        <g id="edge1" class="edge">
            <title>Initial&#45;&gt;q0</title>
            <path fill="none" stroke="black" d="M3.9,-26.75C7.49,-26.75 19.32,-26.75 31.74,-26.75" />
            <polygon fill="black" stroke="black" points="31.83,-29.72 40.33,-26.75 31.83,-23.77 31.83,-29.72" />
        </g>
        <!-- q0&#45;&gt;q0 -->
        <g id="edge3" class="edge">
            <title>q0&#45;&gt;q0</title>
            <path fill="none" stroke="black"
                d="M59.15,-52.5C58.69,-62.83 61.42,-71.5 67.35,-71.5 71.52,-71.5 74.11,-67.21 75.12,-61.08" />
            <polygon fill="black" stroke="black" points="78.09,-61.14 75.55,-52.5 72.15,-60.84 78.09,-61.14" />
            <text text-anchor="middle" x="67.35" y="-75.3" font-family="Times,serif" font-size="14.00"> b </text>
        </g>
        <!-- q1 -->
        <g id="node3" class="node">
            <title>q1</title>
            <ellipse fill="white" stroke="black" cx="170.84" cy="-73.75" rx="23" ry="23" />
            <text text-anchor="middle" x="170.84" y="-70.05" font-family="Times,serif" font-size="14.00">q1</text>
        </g>
        <!-- q0&#45;&gt;q1 -->
        <g id="edge2" class="edge">
            <title>q0&#45;&gt;q1</title>
            <path fill="none" stroke="black" d="M91.89,-37.65C106.85,-44.58 126.29,-53.58 142.01,-60.86" />
            <polygon fill="black" stroke="black" points="140.89,-63.62 149.85,-64.49 143.39,-58.22 140.89,-63.62" />
            <text text-anchor="middle" x="121.1" y="-58.55" font-family="Times,serif" font-size="14.00"> a </text>
        </g>
        <!-- q2 -->
        <g id="node4" class="node">
            <title>q2</title>
            <ellipse fill="white" stroke="black" cx="275.34" cy="-62.75" rx="27" ry="27" />
            <ellipse fill="none" stroke="black" cx="275.34" cy="-62.75" rx="22.96" ry="22.96" />
            <text text-anchor="middle" x="275.34" y="-59.05" font-family="Times,serif" font-size="14.00">q2</text>
        </g>
        <!-- q1&#45;&gt;q2 -->
        <g id="edge4" class="edge">
            <title>q1&#45;&gt;q2</title>
            <path fill="none" stroke="black"
                d="M188.89,-87.72C200.53,-95.52 216.35,-102.74 230.59,-97.75 237.17,-95.44 243.5,-91.68 249.2,-87.46" />
            <polygon fill="black" stroke="black" points="251.3,-89.59 256.06,-81.94 247.57,-84.95 251.3,-89.59" />
            <text text-anchor="middle" x="221.09" y="-102.55" font-family="Times,serif" font-size="14.00"> a </text>
        </g>
        <!-- q1&#45;&gt;q2 -->
        <g id="edge5" class="edge">
            <title>q1&#45;&gt;q2</title>
            <path fill="none" stroke="black" d="M193.58,-71.42C207.04,-69.97 224.62,-68.08 239.94,-66.44" />
            <polygon fill="black" stroke="black" points="240.52,-69.37 248.65,-65.51 239.88,-63.45 240.52,-69.37" />
            <text text-anchor="middle" x="221.09" y="-73.55" font-family="Times,serif" font-size="14.00"> b </text>
        </g>
        <!-- q2&#45;&gt;q0 -->
        <g id="edge6" class="edge">
            <title>q2&#45;&gt;q0</title>
            <path fill="none" stroke="black"
                d="M251.89,-49.66C236.16,-41.27 214.31,-31.16 193.59,-26.75 163.34,-20.31 128.05,-21.03 102.65,-22.93" />
            <polygon fill="black" stroke="black" points="102.32,-19.98 94.1,-23.65 102.82,-25.9 102.32,-19.98" />
            <text text-anchor="middle" x="170.84" y="-30.55" font-family="Times,serif" font-size="14.00"> a </text>
        </g>
        <!-- q2&#45;&gt;q1 -->
        <g id="edge7" class="edge">
            <title>q2&#45;&gt;q1</title>
            <path fill="none" stroke="black"
                d="M250.63,-51.85C238.81,-47.83 224.35,-45.07 211.59,-48.75 206.35,-50.26 201.13,-52.69 196.28,-55.46" />
            <polygon fill="black" stroke="black" points="194.65,-52.97 189.02,-59.99 197.8,-58.01 194.65,-52.97" />
            <text text-anchor="middle" x="221.09" y="-52.55" font-family="Times,serif" font-size="14.00"> b </text>
        </g>
    </g>
</svg>