<?xml version="1.0" encoding="UTF-8" standalone="no"?>
<!DOCTYPE svg PUBLIC "-//W3C//DTD SVG 1.1//EN" "http://www.w3.org/Graphics/SVG/1.1/DTD/svg11.dtd">
<!-- Generated by graphviz version 2.43.0 (0)
 -->
<!-- Title: %3 Pages: 1 -->
<svg width="311pt" height="94pt" viewBox="0.00 0.00 311.09 94.50" xmlns="http://www.w3.org/2000/svg"
    xmlns:xlink="http://www.w3.org/1999/xlink">
    <g id="graph0" class="graph" transform="scale(1 1) rotate(0) translate(4 90.5)">
        <title>%3</title>
        <polygon fill="none" stroke="transparent" points="-4,4 -4,-90.5 307.09,-90.5 307.09,4 -4,4" />
        <!-- Initial -->
        <g id="node1" class="node">
            <title>Initial</title>
            <ellipse fill="black" stroke="black" cx="1.8" cy="-26.75" rx="1.8" ry="1.8" />
        </g>
        <!-- q0 -->
        <g id="node2" class="node">
            <title>q0</title>
            <ellipse fill="white" stroke="black" cx="63.35" cy="-26.75" rx="23" ry="23" />
            <text text-anchor="middle" x="63.35" y="-23.05" font-family="Times,serif" font-size="14.00">q0</text>
        </g>
        <!-- Initial&#45;&gt;q0 -->
        <g id="edge1" class="edge">
            <title>Initial&#45;&gt;q0</title>
            <path fill="none" stroke="black" d="M3.83,-26.75C7.36,-26.75 19.4,-26.75 31.65,-26.75" />
            <polygon fill="black" stroke="black" points="31.98,-29.72 40.48,-26.75 31.98,-23.77 31.98,-29.72" />
        </g>
        <!-- q0&#45;&gt;q0 -->
        <g id="edge3" class="edge">
            <title>q0&#45;&gt;q0</title>
            <path fill="none" stroke="black"
                d="M56,-48.55C55.19,-58.66 57.64,-67.5 63.35,-67.5 67.27,-67.5 69.65,-63.32 70.5,-57.42" />
            <polygon fill="black" stroke="black" points="73.48,-57.11 70.7,-48.55 67.53,-56.98 73.48,-57.11" />
            <text text-anchor="middle" x="63.35" y="-71.3" font-family="Times,serif" font-size="14.00"> 1 </text>
        </g>
        <!-- q1 -->
        <g id="node3" class="node">
            <title>q1</title>
            <ellipse fill="white" stroke="black" cx="167.84" cy="-26.75" rx="27" ry="27" />
            <ellipse fill="none" stroke="black" cx="167.84" cy="-26.75" rx="22.96" ry="22.96" />
            <text text-anchor="middle" x="167.84" y="-23.05" font-family="Times,serif" font-size="14.00">q1</text>
        </g>
        <!-- q0&#45;&gt;q1 -->
        <g id="edge2" class="edge">
            <title>q0&#45;&gt;q1</title>
            <path fill="none" stroke="black" d="M86.34,-26.75C99.71,-26.75 117.08,-26.75 132.27,-26.75" />
            <polygon fill="black" stroke="black" points="132.41,-29.72 140.91,-26.75 132.41,-23.77 132.41,-29.72" />
            <text text-anchor="middle" x="113.6" y="-30.55" font-family="Times,serif" font-size="14.00"> 0 </text>
        </g>
        <!-- q1&#45;&gt;q1 -->
        <g id="edge4" class="edge">
            <title>q1&#45;&gt;q1</title>
            <path fill="none" stroke="black"
                d="M157.84,-51.6C157.02,-62.32 160.36,-71.5 167.84,-71.5 173.23,-71.5 176.46,-66.75 177.55,-60.11" />
            <polygon fill="black" stroke="black" points="180.53,-60.19 177.85,-51.6 174.58,-59.99 180.53,-60.19" />
            <text text-anchor="middle" x="167.84" y="-75.3" font-family="Times,serif" font-size="14.00"> 0 </text>
        </g>
        <!-- q2 -->
        <g id="node4" class="node">
            <title>q2</title>
            <ellipse fill="white" stroke="black" cx="276.34" cy="-26.75" rx="27" ry="27" />
            <ellipse fill="none" stroke="black" cx="276.34" cy="-26.75" rx="22.96" ry="22.96" />
            <text text-anchor="middle" x="276.34" y="-23.05" font-family="Times,serif" font-size="14.00">q2</text>
        </g>
        <!-- q1&#45;&gt;q2 -->
        <g id="edge5" class="edge">
            <title>q1&#45;&gt;q2</title>
            <path fill="none" stroke="black" d="M194.62,-26.75C208.52,-26.75 225.85,-26.75 240.88,-26.75" />
            <polygon fill="black" stroke="black" points="240.93,-29.72 249.43,-26.75 240.93,-23.77 240.93,-29.72" />
            <text text-anchor="middle" x="222.09" y="-30.55" font-family="Times,serif" font-size="14.00"> 1 </text>
        </g>
        <!-- q2&#45;&gt;q1 -->
        <g id="edge7" class="edge">
            <title>q2&#45;&gt;q1</title>
            <path fill="none" stroke="black"
                d="M252.31,-14.66C245.79,-11.82 238.56,-9.2 231.59,-7.75 221.06,-5.56 209.75,-7.58 199.67,-10.99" />
            <polygon fill="black" stroke="black" points="198.4,-8.3 191.54,-14.13 200.54,-13.85 198.4,-8.3" />
            <text text-anchor="middle" x="222.09" y="-11.55" font-family="Times,serif" font-size="14.00"> 1 </text>
        </g>
        <!-- q2&#45;&gt;q2 -->
        <g id="edge6" class="edge">
            <title>q2&#45;&gt;q2</title>
            <path fill="none" stroke="black"
                d="M266.34,-51.6C265.52,-62.32 268.85,-71.5 276.34,-71.5 281.72,-71.5 284.96,-66.75 286.05,-60.11" />
            <polygon fill="black" stroke="black" points="289.02,-60.19 286.34,-51.6 283.08,-59.99 289.02,-60.19" />
            <text text-anchor="middle" x="276.34" y="-75.3" font-family="Times,serif" font-size="14.00"> 0 </text>
        </g>
    </g>
</svg>