<?xml version="1.0" encoding="UTF-8" standalone="no"?>
<!DOCTYPE svg PUBLIC "-//W3C//DTD SVG 1.1//EN" "http://www.w3.org/Graphics/SVG/1.1/DTD/svg11.dtd">
<!-- Generated by graphviz version 2.43.0 (0)
 -->
<!-- Title: %3 Pages: 1 -->
<svg width="184pt" height="114pt" viewBox="0.00 0.00 183.60 114.00" xmlns="http://www.w3.org/2000/svg"
    xmlns:xlink="http://www.w3.org/1999/xlink">
    <g id="graph0" class="graph" transform="scale(1 1) rotate(0) translate(4 110)">
        <title>%3</title>
        <polygon fill="none" stroke="transparent" points="-4,4 -4,-110 179.6,-110 179.6,4 -4,4" />
        <!-- Initial -->
        <g id="node1" class="node">
            <title>Initial</title>
            <ellipse fill="black" stroke="black" cx="1.8" cy="-22" rx="1.8" ry="1.8" />
        </g>
        <!-- B -->
        <g id="node3" class="node">
            <title>B</title>
            <ellipse fill="white" stroke="black" cx="58.6" cy="-22" rx="18" ry="18" />
            <text text-anchor="middle" x="58.6" y="-18.3" font-family="Times,serif" font-size="14.00">B</text>
        </g>
        <!-- Initial&#45;&gt;B -->
        <g id="edge1" class="edge">
            <title>Initial&#45;&gt;B</title>
            <path fill="none" stroke="black" d="M3.75,-22C7.25,-22 19.84,-22 31.96,-22" />
            <polygon fill="black" stroke="black" points="32.08,-24.98 40.58,-22 32.08,-19.03 32.08,-24.98" />
        </g>
        <!-- A -->
        <g id="node2" class="node">
            <title>A</title>
            <ellipse fill="white" stroke="black" cx="153.6" cy="-22" rx="22" ry="22" />
            <ellipse fill="none" stroke="black" cx="153.6" cy="-22" rx="18" ry="18" />
            <text text-anchor="middle" x="153.6" y="-18.3" font-family="Times,serif" font-size="14.00">A</text>
        </g>
        <!-- A&#45;&gt;A -->
        <g id="edge2" class="edge">
            <title>A&#45;&gt;A</title>
            <path fill="none" stroke="black"
                d="M144.87,-42.58C143.66,-52.84 146.57,-62 153.6,-62 158.54,-62 161.45,-57.47 162.32,-51.22" />
            <polygon fill="black" stroke="black" points="165.3,-51.09 162.33,-42.58 159.35,-51.08 165.3,-51.09" />
            <text text-anchor="middle" x="153.6" y="-65.8" font-family="Times,serif" font-size="14.00"> 1 </text>
        </g>
        <!-- B&#45;&gt;A -->
        <g id="edge3" class="edge">
            <title>B&#45;&gt;A</title>
            <path fill="none" stroke="black" d="M76.66,-22C89.55,-22 107.56,-22 122.81,-22" />
            <polygon fill="black" stroke="black" points="122.91,-24.98 131.41,-22 122.91,-19.03 122.91,-24.98" />
            <text text-anchor="middle" x="104.1" y="-25.8" font-family="Times,serif" font-size="14.00"> 0 </text>
        </g>
        <!-- B&#45;&gt;B -->
        <g id="edge4" class="edge">
            <title>B&#45;&gt;B</title>
            <path fill="none" stroke="black"
                d="M55.36,-39.78C54.81,-49.31 55.89,-58 58.6,-58 60.42,-58 61.5,-54.08 61.85,-48.62" />
            <polygon fill="black" stroke="black" points="64.83,-48.28 61.84,-39.78 58.88,-48.29 64.83,-48.28" />
            <text text-anchor="middle" x="58.6" y="-61.8" font-family="Times,serif" font-size="14.00"> 0 </text>
        </g>
        <!-- B&#45;&gt;B -->
        <g id="edge5" class="edge">
            <title>B&#45;&gt;B</title>
            <path fill="none" stroke="black"
                d="M53.28,-39.42C50.25,-56.79 52.03,-76 58.6,-76 64.1,-76 66.24,-62.58 65.02,-48.03" />
            <polygon fill="black" stroke="black" points="67.95,-47.47 63.92,-39.42 62.05,-48.23 67.95,-47.47" />
            <text text-anchor="middle" x="58.6" y="-79.8" font-family="Times,serif" font-size="14.00"> 1 </text>
        </g>
    </g>
</svg>