<?xml version="1.0" encoding="UTF-8" standalone="no"?>
<!DOCTYPE svg PUBLIC "-//W3C//DTD SVG 1.1//EN" "http://www.w3.org/Graphics/SVG/1.1/DTD/svg11.dtd">
<!-- Generated by graphviz version 2.43.0 (0)
 -->
<!-- Title: %3 Pages: 1 -->
<svg width="247pt" height="159pt" viewBox="0.00 0.00 246.79 158.69" xmlns="http://www.w3.org/2000/svg"
    xmlns:xlink="http://www.w3.org/1999/xlink">
    <g id="graph0" class="graph" transform="scale(1 1) rotate(0) translate(4 154.69)">
        <title>%3</title>
        <polygon fill="none" stroke="transparent" points="-4,4 -4,-154.69 242.79,-154.69 242.79,4 -4,4" />
        <!-- Initial -->
        <g id="node1" class="node">
            <title>Initial</title>
            <ellipse fill="black" stroke="black" cx="1.8" cy="-42.35" rx="1.8" ry="1.8" />
        </g>
        <!-- {B} -->
        <g id="node3" class="node">
            <title>{B}</title>
            <ellipse fill="white" stroke="black" cx="69.85" cy="-42.35" rx="29.5" ry="29.5" />
            <text text-anchor="middle" x="69.85" y="-38.65" font-family="Times,serif" font-size="14.00">{B}</text>
        </g>
        <!-- Initial&#45;&gt;{B} -->
        <g id="edge1" class="edge">
            <title>Initial&#45;&gt;{B}</title>
            <path fill="none" stroke="black" d="M3.95,-42.35C7.57,-42.35 19.25,-42.35 31.72,-42.35" />
            <polygon fill="black" stroke="black" points="31.89,-45.32 40.39,-42.35 31.89,-39.37 31.89,-45.32" />
        </g>
        <!-- {A,B} -->
        <g id="node2" class="node">
            <title>{A,B}</title>
            <ellipse fill="white" stroke="black" cx="196.44" cy="-42.35" rx="42.19" ry="42.19" />
            <ellipse fill="none" stroke="black" cx="196.44" cy="-42.35" rx="38.21" ry="38.21" />
            <text text-anchor="middle" x="196.44" y="-38.65" font-family="Times,serif" font-size="14.00">{A,B}</text>
        </g>
        <!-- {A,B}&#45;&gt;{A,B} -->
        <g id="edge2" class="edge">
            <title>{A,B}&#45;&gt;{A,B}</title>
            <path fill="none" stroke="black"
                d="M190.15,-84.37C190.59,-94.85 192.69,-102.69 196.44,-102.69 199.08,-102.69 200.9,-98.82 201.9,-92.87" />
            <polygon fill="black" stroke="black" points="204.86,-93.12 202.73,-84.37 198.94,-92.54 204.86,-93.12" />
            <text text-anchor="middle" x="196.44" y="-106.49" font-family="Times,serif" font-size="14.00"> 0 </text>
        </g>
        <!-- {A,B}&#45;&gt;{A,B} -->
        <g id="edge3" class="edge">
            <title>{A,B}&#45;&gt;{A,B}</title>
            <path fill="none" stroke="black"
                d="M184.03,-83.06C182.41,-103 186.55,-120.69 196.44,-120.69 204.87,-120.69 209.12,-107.86 209.19,-91.74" />
            <polygon fill="black" stroke="black" points="212.16,-91.44 208.85,-83.06 206.21,-91.67 212.16,-91.44" />
            <text text-anchor="middle" x="196.44" y="-124.49" font-family="Times,serif" font-size="14.00"> 1 </text>
        </g>
        <!-- {B}&#45;&gt;{A,B} -->
        <g id="edge4" class="edge">
            <title>{B}&#45;&gt;{A,B}</title>
            <path fill="none" stroke="black" d="M99.12,-42.35C112.81,-42.35 129.66,-42.35 145.43,-42.35" />
            <polygon fill="black" stroke="black" points="145.54,-45.32 154.04,-42.35 145.54,-39.37 145.54,-45.32" />
            <text text-anchor="middle" x="126.59" y="-46.15" font-family="Times,serif" font-size="14.00"> 0 </text>
        </g>
        <!-- {B}&#45;&gt;{B} -->
        <g id="edge5" class="edge">
            <title>{B}&#45;&gt;{B}</title>
            <path fill="none" stroke="black"
                d="M61.24,-70.48C60.96,-80.96 63.83,-89.59 69.85,-89.59 74.08,-89.59 76.75,-85.33 77.87,-79.15" />
            <polygon fill="black" stroke="black" points="80.85,-79.16 78.45,-70.48 74.92,-78.76 80.85,-79.16" />
            <text text-anchor="middle" x="69.85" y="-93.39" font-family="Times,serif" font-size="14.00"> 1 </text>
        </g>
    </g>
</svg>