<?xml version="1.0" encoding="UTF-8" standalone="no"?>
<!DOCTYPE svg PUBLIC "-//W3C//DTD SVG 1.1//EN" "http://www.w3.org/Graphics/SVG/1.1/DTD/svg11.dtd">
<!-- Generated by graphviz version 12.2.1 (0)
 -->
<!-- Pages: 1 -->
<svg width="300pt" height="57pt" viewBox="0.00 0.00 299.88 57.39" xmlns="http://www.w3.org/2000/svg"
    xmlns:xlink="http://www.w3.org/1999/xlink">
    <g id="graph0" class="graph" transform="scale(1 1) rotate(0) translate(4 53.39)">
        <polygon fill="none" stroke="none" points="-4,4 -4,-53.39 295.88,-53.39 295.88,4 -4,4" />
        <!-- Initial -->
        <g id="node1" class="node">
            <title>Initial</title>
            <ellipse fill="black" stroke="black" cx="1.8" cy="-24.69" rx="1.8" ry="1.8" />
        </g>
        <!-- q0 -->
        <g id="node2" class="node">
            <title>q0</title>
            <ellipse fill="white" stroke="black" cx="64.45" cy="-24.69" rx="23.85" ry="23.85" />
            <text text-anchor="middle" x="64.45" y="-20.02" font-family="Times,serif" font-size="14.00">q0</text>
        </g>
        <!-- Initial&#45;&gt;q0 -->
        <g id="edge1" class="edge">
            <title>Initial&#45;&gt;q0</title>
            <path fill="none" stroke="black" d="M3.85,-24.69C7.27,-24.69 18.51,-24.69 30.32,-24.69" />
            <polygon fill="black" stroke="black" points="30.21,-27.67 38.71,-24.69 30.21,-21.72 30.21,-27.67" />
        </g>
        <!-- qi -->
        <g id="node4" class="node">
            <title>qi</title>
            <ellipse fill="white" stroke="black" cx="171.49" cy="-24.69" rx="24.69" ry="24.69" />
            <ellipse fill="none" stroke="black" cx="171.49" cy="-24.69" rx="20.69" ry="20.69" />
            <text text-anchor="middle" x="171.49" y="-20.02" font-family="Times,serif" font-size="14.00">qi</text>
        </g>
        <!-- q0&#45;&gt;qi -->
        <g id="edge2" class="edge">
            <title>q0&#45;&gt;qi</title>
            <path fill="none" stroke="black" d="M88.76,-24.69C102.84,-24.69 121.03,-24.69 136.68,-24.69" />
            <polygon fill="black" stroke="black" points="136.51,-27.67 145,-24.69 136.5,-21.72 136.51,-27.67" />
            <text text-anchor="middle" x="117.55" y="-28.64" font-family="Times,serif" font-size="14.00"> ... </text>
        </g>
        <!-- qf -->
        <g id="node3" class="node">
            <title>qf</title>
            <ellipse fill="white" stroke="black" cx="270.66" cy="-24.69" rx="21.22" ry="21.22" />
            <text text-anchor="middle" x="270.66" y="-20.02" font-family="Times,serif" font-size="14.00">qf</text>
        </g>
        <!-- qi&#45;&gt;qf -->
        <g id="edge3" class="edge">
            <title>qi&#45;&gt;qf</title>
            <path fill="none" stroke="black" d="M196.51,-24.69C209.41,-24.69 225.44,-24.69 239.21,-24.69" />
            <polygon fill="black" stroke="black" points="239.19,-27.67 247.69,-24.69 239.19,-21.72 239.19,-27.67" />
            <text text-anchor="middle" x="222.81" y="-28.64" font-family="Times,serif" font-size="14.00"> y </text>
        </g>
    </g>
</svg>