<?xml version="1.0" encoding="UTF-8" standalone="no"?>
<!DOCTYPE svg PUBLIC "-//W3C//DTD SVG 1.1//EN" "http://www.w3.org/Graphics/SVG/1.1/DTD/svg11.dtd">
<!-- Generated by graphviz version 12.2.1 (0)
 -->
<!-- Pages: 1 -->
<svg width="305pt" height="58pt" viewBox="0.00 0.00 305.13 58.44" xmlns="http://www.w3.org/2000/svg"
    xmlns:xlink="http://www.w3.org/1999/xlink">
    <g id="graph0" class="graph" transform="scale(1 1) rotate(0) translate(4 54.44)">
        <polygon fill="none" stroke="none" points="-4,4 -4,-54.44 301.13,-54.44 301.13,4 -4,4" />
        <!-- Initial -->
        <g id="node1" class="node">
            <title>Initial</title>
            <ellipse fill="black" stroke="black" cx="1.8" cy="-25.22" rx="1.8" ry="1.8" />
        </g>
        <!-- q0 -->
        <g id="node2" class="node">
            <title>q0</title>
            <ellipse fill="white" stroke="black" cx="64.45" cy="-25.22" rx="23.85" ry="23.85" />
            <text text-anchor="middle" x="64.45" y="-20.54" font-family="Times,serif" font-size="14.00">q0</text>
        </g>
        <!-- Initial&#45;&gt;q0 -->
        <g id="edge1" class="edge">
            <title>Initial&#45;&gt;q0</title>
            <path fill="none" stroke="black" d="M3.85,-25.22C7.27,-25.22 18.51,-25.22 30.32,-25.22" />
            <polygon fill="black" stroke="black" points="30.21,-28.19 38.71,-25.22 30.21,-22.24 30.21,-28.19" />
        </g>
        <!-- qi -->
        <g id="node4" class="node">
            <title>qi</title>
            <ellipse fill="white" stroke="black" cx="167.49" cy="-25.22" rx="20.69" ry="20.69" />
            <text text-anchor="middle" x="167.49" y="-20.54" font-family="Times,serif" font-size="14.00">qi</text>
        </g>
        <!-- q0&#45;&gt;qi -->
        <g id="edge2" class="edge">
            <title>q0&#45;&gt;qi</title>
            <path fill="none" stroke="black" d="M88.63,-25.22C102.97,-25.22 121.51,-25.22 136.91,-25.22" />
            <polygon fill="black" stroke="black" points="136.48,-28.19 144.98,-25.22 136.48,-22.24 136.48,-28.19" />
            <text text-anchor="middle" x="117.55" y="-29.17" font-family="Times,serif" font-size="14.00"> ... </text>
        </g>
        <!-- qf -->
        <g id="node3" class="node">
            <title>qf</title>
            <ellipse fill="white" stroke="black" cx="271.91" cy="-25.22" rx="25.22" ry="25.22" />
            <ellipse fill="none" stroke="black" cx="271.91" cy="-25.22" rx="21.22" ry="21.22" />
            <text text-anchor="middle" x="271.91" y="-20.54" font-family="Times,serif" font-size="14.00">qf</text>
        </g>
        <!-- qi&#45;&gt;qf -->
        <g id="edge3" class="edge">
            <title>qi&#45;&gt;qf</title>
            <path fill="none" stroke="black" d="M188.24,-25.22C202.01,-25.22 220.73,-25.22 236.87,-25.22" />
            <polygon fill="black" stroke="black" points="236.51,-28.19 245.01,-25.22 236.51,-22.24 236.51,-28.19" />
            <text text-anchor="middle" x="217.44" y="-29.17" font-family="Times,serif" font-size="14.00"> ... </text>
        </g>
    </g>
</svg>