<?xml version="1.0" encoding="UTF-8" standalone="no"?>
<!DOCTYPE svg PUBLIC "-//W3C//DTD SVG 1.1//EN" "http://www.w3.org/Graphics/SVG/1.1/DTD/svg11.dtd">
<!-- Generated by graphviz version 2.43.0 (0)
 -->
<!-- Title: %3 Pages: 1 -->
<svg width="391pt" height="122pt" viewBox="0.00 0.00 390.88 122.30" xmlns="http://www.w3.org/2000/svg"
    xmlns:xlink="http://www.w3.org/1999/xlink">
    <g id="graph0" class="graph" transform="scale(1 1) rotate(0) translate(4 118.3)">
        <title>%3</title>
        <polygon fill="none" stroke="transparent" points="-4,4 -4,-118.3 386.88,-118.3 386.88,4 -4,4" />
        <!-- Initial -->
        <g id="node1" class="node">
            <title>Initial</title>
            <ellipse fill="black" stroke="black" cx="1.8" cy="-24.15" rx="1.8" ry="1.8" />
        </g>
        <!-- q1 -->
        <g id="node3" class="node">
            <title>q1</title>
            <ellipse fill="white" stroke="black" cx="63.35" cy="-24.15" rx="23" ry="23" />
            <text text-anchor="middle" x="63.35" y="-20.45" font-family="Times,serif" font-size="14.00">q1</text>
        </g>
        <!-- Initial&#45;&gt;q1 -->
        <g id="edge1" class="edge">
            <title>Initial&#45;&gt;q1</title>
            <path fill="none" stroke="black" d="M3.83,-24.15C7.36,-24.15 19.4,-24.15 31.65,-24.15" />
            <polygon fill="black" stroke="black" points="31.98,-27.12 40.48,-24.15 31.98,-21.17 31.98,-27.12" />
        </g>
        <!-- ... -->
        <g id="node2" class="node">
            <title>...</title>
            <ellipse fill="white" stroke="black" cx="160.59" cy="-24.15" rx="19.5" ry="19.5" />
            <text text-anchor="middle" x="160.59" y="-20.45" font-family="Times,serif" font-size="14.00">...</text>
        </g>
        <!-- qn -->
        <g id="node5" class="node">
            <title>qn</title>
            <ellipse fill="white" stroke="black" cx="257.84" cy="-24.15" rx="23" ry="23" />
            <text text-anchor="middle" x="257.84" y="-20.45" font-family="Times,serif" font-size="14.00">qn</text>
        </g>
        <!-- ...&#45;&gt;qn -->
        <g id="edge4" class="edge">
            <title>...&#45;&gt;qn</title>
            <path fill="none" stroke="black" d="M180.41,-24.15C193.55,-24.15 211.39,-24.15 226.52,-24.15" />
            <polygon fill="black" stroke="black" points="226.56,-27.12 235.06,-24.15 226.56,-21.17 226.56,-27.12" />
            <text text-anchor="middle" x="207.59" y="-27.95" font-family="Times,serif" font-size="14.00"> a </text>
        </g>
        <!-- ...&#45;&gt;qn -->
        <g id="edge5" class="edge">
            <title>...&#45;&gt;qn</title>
            <path fill="none" stroke="black"
                d="M177.28,-13.88C183.5,-10.38 190.88,-6.91 198.09,-5.15 208.67,-2.56 220.1,-5.02 230.04,-8.92" />
            <polygon fill="black" stroke="black" points="229.02,-11.72 237.99,-12.46 231.44,-6.29 229.02,-11.72" />
            <text text-anchor="middle" x="207.59" y="-8.95" font-family="Times,serif" font-size="14.00"> b </text>
        </g>
        <!-- q1&#45;&gt;... -->
        <g id="edge2" class="edge">
            <title>q1&#45;&gt;...</title>
            <path fill="none" stroke="black" d="M86.44,-24.15C100.09,-24.15 117.72,-24.15 132.25,-24.15" />
            <polygon fill="black" stroke="black" points="132.33,-27.12 140.83,-24.15 132.33,-21.17 132.33,-27.12" />
            <text text-anchor="middle" x="113.6" y="-27.95" font-family="Times,serif" font-size="14.00"> a </text>
        </g>
        <!-- q1&#45;&gt;... -->
        <g id="edge3" class="edge">
            <title>q1&#45;&gt;...</title>
            <path fill="none" stroke="black"
                d="M83.2,-12.46C94.62,-6.79 109.56,-1.84 123.1,-5.15 127.49,-6.22 131.95,-7.93 136.17,-9.89" />
            <polygon fill="black" stroke="black" points="134.99,-12.63 143.9,-13.88 137.71,-7.34 134.99,-12.63" />
            <text text-anchor="middle" x="113.6" y="-8.95" font-family="Times,serif" font-size="14.00"> b </text>
        </g>
        <!-- qf -->
        <g id="node4" class="node">
            <title>qf</title>
            <ellipse fill="white" stroke="black" cx="358.74" cy="-24.15" rx="24.3" ry="24.3" />
            <ellipse fill="none" stroke="black" cx="358.74" cy="-24.15" rx="20.27" ry="20.27" />
            <text text-anchor="middle" x="358.74" y="-20.45" font-family="Times,serif" font-size="14.00">qf</text>
        </g>
        <!-- qf&#45;&gt;qf -->
        <g id="edge7" class="edge">
            <title>qf&#45;&gt;qf</title>
            <path fill="none" stroke="black"
                d="M354.09,-47.98C353.77,-57.89 355.32,-66.3 358.74,-66.3 361.09,-66.3 362.55,-62.32 363.14,-56.62" />
            <polygon fill="black" stroke="black" points="366.11,-56.56 363.38,-47.98 360.17,-56.39 366.11,-56.56" />
            <text text-anchor="middle" x="358.74" y="-70.1" font-family="Times,serif" font-size="14.00"> a </text>
        </g>
        <!-- qf&#45;&gt;qf -->
        <g id="edge8" class="edge">
            <title>qf&#45;&gt;qf</title>
            <path fill="none" stroke="black"
                d="M350.68,-46.98C347.46,-65.34 350.14,-84.3 358.74,-84.3 365.99,-84.3 369.03,-70.8 367.87,-55.56" />
            <polygon fill="black" stroke="black" points="370.81,-55.05 366.79,-46.98 364.9,-55.79 370.81,-55.05" />
            <text text-anchor="middle" x="358.74" y="-88.1" font-family="Times,serif" font-size="14.00"> b </text>
        </g>
        <!-- qn&#45;&gt;qf -->
        <g id="edge6" class="edge">
            <title>qn&#45;&gt;qf</title>
            <path fill="none" stroke="black" d="M280.79,-24.15C293.98,-24.15 311.01,-24.15 325.69,-24.15" />
            <polygon fill="black" stroke="black" points="325.97,-27.12 334.47,-24.15 325.97,-21.17 325.97,-27.12" />
            <text text-anchor="middle" x="307.59" y="-27.95" font-family="Times,serif" font-size="14.00"> a </text>
        </g>
    </g>
</svg>