<?xml version="1.0" encoding="UTF-8" standalone="no"?>
<!DOCTYPE svg PUBLIC "-//W3C//DTD SVG 1.1//EN" "http://www.w3.org/Graphics/SVG/1.1/DTD/svg11.dtd">
<!-- Generated by graphviz version 2.43.0 (0)
 -->
<!-- Title: %3 Pages: 1 -->
<svg width="410pt" height="120pt" viewBox="0.00 0.00 409.78 120.25" xmlns="http://www.w3.org/2000/svg"
    xmlns:xlink="http://www.w3.org/1999/xlink">
    <g id="graph0" class="graph" transform="scale(1 1) rotate(0) translate(4 116.25)">
        <title>%3</title>
        <polygon fill="none" stroke="transparent" points="-4,4 -4,-116.25 405.78,-116.25 405.78,4 -4,4" />
        <!-- Initial -->
        <g id="node1" class="node">
            <title>Initial</title>
            <ellipse fill="black" stroke="black" cx="1.8" cy="-43.1" rx="1.8" ry="1.8" />
        </g>
        <!-- q0 -->
        <g id="node4" class="node">
            <title>q0</title>
            <ellipse fill="white" stroke="black" cx="67.35" cy="-43.1" rx="27" ry="27" />
            <ellipse fill="none" stroke="black" cx="67.35" cy="-43.1" rx="22.96" ry="22.96" />
            <text text-anchor="middle" x="67.35" y="-39.4" font-family="Times,serif" font-size="14.00">q0</text>
        </g>
        <!-- Initial&#45;&gt;q0 -->
        <g id="edge1" class="edge">
            <title>Initial&#45;&gt;q0</title>
            <path fill="none" stroke="black" d="M3.9,-43.1C7.49,-43.1 19.32,-43.1 31.74,-43.1" />
            <polygon fill="black" stroke="black" points="31.83,-46.07 40.33,-43.1 31.83,-40.12 31.83,-46.07" />
        </g>
        <!-- a1 -->
        <g id="node2" class="node">
            <title>a1</title>
            <ellipse fill="white" stroke="black" cx="175.19" cy="-69.1" rx="26.2" ry="26.2" />
            <ellipse fill="none" stroke="black" cx="175.19" cy="-69.1" rx="22.18" ry="22.18" />
            <text text-anchor="middle" x="175.19" y="-65.4" font-family="Times,serif" font-size="14.00">a1</text>
        </g>
        <!-- a2 -->
        <g id="node3" class="node">
            <title>a2</title>
            <ellipse fill="white" stroke="black" cx="281.39" cy="-26.1" rx="26.2" ry="26.2" />
            <ellipse fill="none" stroke="black" cx="281.39" cy="-26.1" rx="22.18" ry="22.18" />
            <text text-anchor="middle" x="281.39" y="-22.4" font-family="Times,serif" font-size="14.00">a2</text>
        </g>
        <!-- a1&#45;&gt;a2 -->
        <g id="edge4" class="edge">
            <title>a1&#45;&gt;a2</title>
            <path fill="none" stroke="black" d="M199.58,-59.45C214.19,-53.42 233.19,-45.58 249.09,-39.02" />
            <polygon fill="black" stroke="black" points="250.36,-41.71 257.08,-35.72 248.09,-36.21 250.36,-41.71" />
            <text text-anchor="middle" x="228.29" y="-53.9" font-family="Times,serif" font-size="14.00"> a </text>
        </g>
        <!-- a1&#45;&gt;q0 -->
        <g id="edge5" class="edge">
            <title>a1&#45;&gt;q0</title>
            <path fill="none" stroke="black"
                d="M154.87,-52.54C147.85,-47.53 139.55,-42.68 131.1,-40.1 122.08,-37.35 112.01,-36.8 102.61,-37.27" />
            <polygon fill="black" stroke="black" points="102.09,-34.33 93.87,-38 102.59,-40.26 102.09,-34.33" />
            <text text-anchor="middle" x="121.6" y="-43.9" font-family="Times,serif" font-size="14.00"> b </text>
        </g>
        <!-- a2&#45;&gt;q0 -->
        <g id="edge7" class="edge">
            <title>a2&#45;&gt;q0</title>
            <path fill="none" stroke="black"
                d="M255.58,-21.88C229.08,-18.04 185.92,-13.74 149.1,-19.1 132.88,-21.46 115.4,-26.35 100.86,-31.1" />
            <polygon fill="black" stroke="black" points="99.77,-28.33 92.67,-33.86 101.68,-33.96 99.77,-28.33" />
            <text text-anchor="middle" x="175.19" y="-22.9" font-family="Times,serif" font-size="14.00"> b </text>
        </g>
        <!-- qf -->
        <g id="node5" class="node">
            <title>qf</title>
            <ellipse fill="white" stroke="black" cx="381.64" cy="-26.1" rx="20.3" ry="20.3" />
            <text text-anchor="middle" x="381.64" y="-22.4" font-family="Times,serif" font-size="14.00">qf</text>
        </g>
        <!-- a2&#45;&gt;qf -->
        <g id="edge6" class="edge">
            <title>a2&#45;&gt;qf</title>
            <path fill="none" stroke="black" d="M307.69,-26.1C321.4,-26.1 338.38,-26.1 352.51,-26.1" />
            <polygon fill="black" stroke="black" points="352.82,-29.07 361.32,-26.1 352.82,-23.12 352.82,-29.07" />
            <text text-anchor="middle" x="334.49" y="-29.9" font-family="Times,serif" font-size="14.00"> a </text>
        </g>
        <!-- q0&#45;&gt;a1 -->
        <g id="edge2" class="edge">
            <title>q0&#45;&gt;a1</title>
            <path fill="none" stroke="black"
                d="M92.61,-52.91C98.88,-55.18 105.68,-57.42 112.1,-59.1 121.22,-61.48 131.26,-63.39 140.56,-64.88" />
            <polygon fill="black" stroke="black" points="140.34,-67.86 149.19,-66.18 141.23,-61.97 140.34,-67.86" />
            <text text-anchor="middle" x="121.6" y="-66.9" font-family="Times,serif" font-size="14.00"> a </text>
        </g>
        <!-- q0&#45;&gt;q0 -->
        <g id="edge3" class="edge">
            <title>q0&#45;&gt;q0</title>
            <path fill="none" stroke="black"
                d="M59.15,-68.85C58.69,-79.18 61.42,-87.85 67.35,-87.85 71.52,-87.85 74.11,-83.56 75.12,-77.43" />
            <polygon fill="black" stroke="black" points="78.09,-77.49 75.55,-68.85 72.15,-77.19 78.09,-77.49" />
            <text text-anchor="middle" x="67.35" y="-91.65" font-family="Times,serif" font-size="14.00"> b </text>
        </g>
        <!-- qf&#45;&gt;qf -->
        <g id="edge8" class="edge">
            <title>qf&#45;&gt;qf</title>
            <path fill="none" stroke="black"
                d="M377.43,-46.12C376.91,-55.75 378.31,-64.25 381.64,-64.25 383.87,-64.25 385.24,-60.41 385.73,-54.97" />
            <polygon fill="black" stroke="black" points="388.71,-54.65 385.84,-46.12 382.76,-54.58 388.71,-54.65" />
            <text text-anchor="middle" x="381.64" y="-68.05" font-family="Times,serif" font-size="14.00"> a </text>
        </g>
        <!-- qf&#45;&gt;qf -->
        <g id="edge9" class="edge">
            <title>qf&#45;&gt;qf</title>
            <path fill="none" stroke="black"
                d="M374.66,-45.08C371.05,-62.91 373.37,-82.25 381.64,-82.25 388.55,-82.25 391.3,-68.73 389.91,-53.89" />
            <polygon fill="black" stroke="black" points="392.8,-53.06 388.61,-45.08 386.91,-53.93 392.8,-53.06" />
            <text text-anchor="middle" x="381.64" y="-86.05" font-family="Times,serif" font-size="14.00"> b </text>
        </g>
    </g>
</svg>