<?xml version="1.0" encoding="UTF-8" standalone="no"?>
<!DOCTYPE svg PUBLIC "-//W3C//DTD SVG 1.1//EN" "http://www.w3.org/Graphics/SVG/1.1/DTD/svg11.dtd">
<!-- Generated by graphviz version 2.43.0 (0)
 -->
<!-- Title: %3 Pages: 1 -->
<svg width="394pt" height="122pt" viewBox="0.00 0.00 393.78 122.30" xmlns="http://www.w3.org/2000/svg"
    xmlns:xlink="http://www.w3.org/1999/xlink">
    <g id="graph0" class="graph" transform="scale(1 1) rotate(0) translate(4 118.3)">
        <title>%3</title>
        <polygon fill="none" stroke="transparent" points="-4,4 -4,-118.3 389.78,-118.3 389.78,4 -4,4" />
        <!-- Initial -->
        <g id="node1" class="node">
            <title>Initial</title>
            <ellipse fill="black" stroke="black" cx="1.8" cy="-41.15" rx="1.8" ry="1.8" />
        </g>
        <!-- q0 -->
        <g id="node4" class="node">
            <title>q0</title>
            <ellipse fill="white" stroke="black" cx="63.35" cy="-41.15" rx="23" ry="23" />
            <text text-anchor="middle" x="63.35" y="-37.45" font-family="Times,serif" font-size="14.00">q0</text>
        </g>
        <!-- Initial&#45;&gt;q0 -->
        <g id="edge1" class="edge">
            <title>Initial&#45;&gt;q0</title>
            <path fill="none" stroke="black" d="M3.83,-41.15C7.36,-41.15 19.4,-41.15 31.65,-41.15" />
            <polygon fill="black" stroke="black" points="31.98,-44.12 40.48,-41.15 31.98,-38.17 31.98,-44.12" />
        </g>
        <!-- a1 -->
        <g id="node2" class="node">
            <title>a1</title>
            <ellipse fill="white" stroke="black" cx="163.19" cy="-63.15" rx="22.2" ry="22.2" />
            <text text-anchor="middle" x="163.19" y="-59.45" font-family="Times,serif" font-size="14.00">a1</text>
        </g>
        <!-- a2 -->
        <g id="node3" class="node">
            <title>a2</title>
            <ellipse fill="white" stroke="black" cx="261.39" cy="-24.15" rx="22.2" ry="22.2" />
            <text text-anchor="middle" x="261.39" y="-20.45" font-family="Times,serif" font-size="14.00">a2</text>
        </g>
        <!-- a1&#45;&gt;a2 -->
        <g id="edge4" class="edge">
            <title>a1&#45;&gt;a2</title>
            <path fill="none" stroke="black" d="M184.13,-55.07C198.06,-49.42 216.85,-41.8 232.3,-35.54" />
            <polygon fill="black" stroke="black" points="233.72,-38.17 240.48,-32.22 231.49,-32.66 233.72,-38.17" />
            <text text-anchor="middle" x="212.29" y="-49.95" font-family="Times,serif" font-size="14.00"> a </text>
        </g>
        <!-- a1&#45;&gt;q0 -->
        <g id="edge5" class="edge">
            <title>a1&#45;&gt;q0</title>
            <path fill="none" stroke="black"
                d="M145.33,-49.4C138.79,-44.89 130.98,-40.45 123.1,-38.15 113.96,-35.48 103.69,-35.15 94.32,-35.81" />
            <polygon fill="black" stroke="black" points="93.83,-32.87 85.68,-36.71 94.44,-38.79 93.83,-32.87" />
            <text text-anchor="middle" x="113.6" y="-41.95" font-family="Times,serif" font-size="14.00"> b </text>
        </g>
        <!-- a2&#45;&gt;q0 -->
        <g id="edge7" class="edge">
            <title>a2&#45;&gt;q0</title>
            <path fill="none" stroke="black"
                d="M239.58,-20.3C215.68,-16.49 175.35,-11.92 141.1,-17.15 124.87,-19.63 107.35,-24.89 93.16,-29.86" />
            <polygon fill="black" stroke="black" points="91.77,-27.2 84.79,-32.89 93.8,-32.79 91.77,-27.2" />
            <text text-anchor="middle" x="163.19" y="-20.95" font-family="Times,serif" font-size="14.00"> b </text>
        </g>
        <!-- qf -->
        <g id="node5" class="node">
            <title>qf</title>
            <ellipse fill="white" stroke="black" cx="361.64" cy="-24.15" rx="24.3" ry="24.3" />
            <ellipse fill="none" stroke="black" cx="361.64" cy="-24.15" rx="20.27" ry="20.27" />
            <text text-anchor="middle" x="361.64" y="-20.45" font-family="Times,serif" font-size="14.00">qf</text>
        </g>
        <!-- a2&#45;&gt;qf -->
        <g id="edge6" class="edge">
            <title>a2&#45;&gt;qf</title>
            <path fill="none" stroke="black" d="M283.71,-24.15C296.79,-24.15 313.81,-24.15 328.5,-24.15" />
            <polygon fill="black" stroke="black" points="328.8,-27.12 337.3,-24.15 328.8,-21.17 328.8,-27.12" />
            <text text-anchor="middle" x="310.49" y="-27.95" font-family="Times,serif" font-size="14.00"> a </text>
        </g>
        <!-- q0&#45;&gt;a1 -->
        <g id="edge2" class="edge">
            <title>q0&#45;&gt;a1</title>
            <path fill="none" stroke="black"
                d="M84.21,-50.41C90.45,-52.97 97.45,-55.5 104.1,-57.15 113.2,-59.4 123.3,-60.81 132.5,-61.69" />
            <polygon fill="black" stroke="black" points="132.26,-64.66 140.97,-62.38 132.74,-58.73 132.26,-64.66" />
            <text text-anchor="middle" x="113.6" y="-63.95" font-family="Times,serif" font-size="14.00"> a </text>
        </g>
        <!-- q0&#45;&gt;q0 -->
        <g id="edge3" class="edge">
            <title>q0&#45;&gt;q0</title>
            <path fill="none" stroke="black"
                d="M56,-62.95C55.19,-73.06 57.64,-81.9 63.35,-81.9 67.27,-81.9 69.65,-77.72 70.5,-71.82" />
            <polygon fill="black" stroke="black" points="73.48,-71.51 70.7,-62.95 67.53,-71.38 73.48,-71.51" />
            <text text-anchor="middle" x="63.35" y="-85.7" font-family="Times,serif" font-size="14.00"> b </text>
        </g>
        <!-- qf&#45;&gt;qf -->
        <g id="edge8" class="edge">
            <title>qf&#45;&gt;qf</title>
            <path fill="none" stroke="black"
                d="M356.99,-47.98C356.67,-57.89 358.22,-66.3 361.64,-66.3 363.99,-66.3 365.45,-62.32 366.04,-56.62" />
            <polygon fill="black" stroke="black" points="369.01,-56.56 366.28,-47.98 363.07,-56.39 369.01,-56.56" />
            <text text-anchor="middle" x="361.64" y="-70.1" font-family="Times,serif" font-size="14.00"> a </text>
        </g>
        <!-- qf&#45;&gt;qf -->
        <g id="edge9" class="edge">
            <title>qf&#45;&gt;qf</title>
            <path fill="none" stroke="black"
                d="M353.58,-46.98C350.36,-65.34 353.04,-84.3 361.64,-84.3 368.89,-84.3 371.93,-70.8 370.77,-55.56" />
            <polygon fill="black" stroke="black" points="373.7,-55.05 369.69,-46.98 367.8,-55.79 373.7,-55.05" />
            <text text-anchor="middle" x="361.64" y="-88.1" font-family="Times,serif" font-size="14.00"> b </text>
        </g>
    </g>
</svg>