<?xml version="1.0" encoding="UTF-8" standalone="no"?>
<!DOCTYPE svg PUBLIC "-//W3C//DTD SVG 1.1//EN" "http://www.w3.org/Graphics/SVG/1.1/DTD/svg11.dtd">
<!-- Generated by graphviz version 2.43.0 (0)
 -->
<!-- Title: %3 Pages: 1 -->
<svg width="302pt" height="93pt" viewBox="0.00 0.00 302.29 93.25" xmlns="http://www.w3.org/2000/svg"
    xmlns:xlink="http://www.w3.org/1999/xlink">
    <g id="graph0" class="graph" transform="scale(1 1) rotate(0) translate(4 89.25)">
        <title>%3</title>
        <polygon fill="none" stroke="transparent" points="-4,4 -4,-89.25 298.29,-89.25 298.29,4 -4,4" />
        <!-- Initial -->
        <g id="node1" class="node">
            <title>Initial</title>
            <ellipse fill="black" stroke="black" cx="1.8" cy="-41.15" rx="1.8" ry="1.8" />
        </g>
        <!-- ap -->
        <g id="node3" class="node">
            <title>ap</title>
            <ellipse fill="white" stroke="black" cx="66.7" cy="-41.15" rx="26.2" ry="26.2" />
            <ellipse fill="none" stroke="black" cx="66.7" cy="-41.15" rx="22.18" ry="22.18" />
            <text text-anchor="middle" x="66.7" y="-37.45" font-family="Times,serif" font-size="14.00">ap</text>
        </g>
        <!-- Initial&#45;&gt;ap -->
        <g id="edge1" class="edge">
            <title>Initial&#45;&gt;ap</title>
            <path fill="none" stroke="black" d="M3.89,-41.15C7.47,-41.15 19.33,-41.15 31.72,-41.15" />
            <polygon fill="black" stroke="black" points="31.78,-44.12 40.28,-41.15 31.78,-38.17 31.78,-44.12" />
        </g>
        <!-- ad -->
        <g id="node2" class="node">
            <title>ad</title>
            <ellipse fill="white" stroke="black" cx="168.89" cy="-63.15" rx="22.2" ry="22.2" />
            <text text-anchor="middle" x="168.89" y="-59.45" font-family="Times,serif" font-size="14.00">ad</text>
        </g>
        <!-- ad&#45;&gt;ap -->
        <g id="edge3" class="edge">
            <title>ad&#45;&gt;ap</title>
            <path fill="none" stroke="black"
                d="M151.03,-49.4C144.49,-44.89 136.68,-40.45 128.8,-38.15 119.99,-35.57 110.17,-35.08 101.02,-35.55" />
            <polygon fill="black" stroke="black" points="100.73,-32.59 92.51,-36.27 101.23,-38.52 100.73,-32.59" />
            <text text-anchor="middle" x="119.8" y="-41.95" font-family="Times,serif" font-size="14.00"> a </text>
        </g>
        <!-- qf -->
        <g id="node4" class="node">
            <title>qf</title>
            <ellipse fill="white" stroke="black" cx="270.14" cy="-24.15" rx="24.3" ry="24.3" />
            <ellipse fill="none" stroke="black" cx="270.14" cy="-24.15" rx="20.27" ry="20.27" />
            <text text-anchor="middle" x="270.14" y="-20.45" font-family="Times,serif" font-size="14.00">qf</text>
        </g>
        <!-- ad&#45;&gt;qf -->
        <g id="edge4" class="edge">
            <title>ad&#45;&gt;qf</title>
            <path fill="none" stroke="black" d="M189.98,-55.26C204.16,-49.68 223.4,-42.12 239.36,-35.85" />
            <polygon fill="black" stroke="black" points="240.54,-38.58 247.36,-32.71 238.36,-33.05 240.54,-38.58" />
            <text text-anchor="middle" x="218.49" y="-49.95" font-family="Times,serif" font-size="14.00"> b </text>
        </g>
        <!-- ap&#45;&gt;ad -->
        <g id="edge2" class="edge">
            <title>ap&#45;&gt;ad</title>
            <path fill="none" stroke="black"
                d="M91.08,-51.04C97.38,-53.37 104.27,-55.62 110.8,-57.15 119.6,-59.21 129.34,-60.57 138.24,-61.45" />
            <polygon fill="black" stroke="black" points="138.08,-64.43 146.8,-62.2 138.59,-58.5 138.08,-64.43" />
            <text text-anchor="middle" x="119.8" y="-63.95" font-family="Times,serif" font-size="14.00"> a </text>
        </g>
        <!-- qf&#45;&gt;ap -->
        <g id="edge5" class="edge">
            <title>qf&#45;&gt;ap</title>
            <path fill="none" stroke="black"
                d="M246.01,-20.03C221.32,-16.29 181.1,-12.06 146.8,-17.15 130.78,-19.53 113.51,-24.47 99.21,-29.26" />
            <polygon fill="black" stroke="black" points="98.23,-26.45 91.16,-32.04 100.17,-32.07 98.23,-26.45" />
            <text text-anchor="middle" x="168.89" y="-20.95" font-family="Times,serif" font-size="14.00"> ε </text>
        </g>
    </g>
</svg>