<?xml version="1.0" encoding="UTF-8" standalone="no"?>
<!DOCTYPE svg PUBLIC "-//W3C//DTD SVG 1.1//EN" "http://www.w3.org/Graphics/SVG/1.1/DTD/svg11.dtd">
<!-- Generated by graphviz version 2.43.0 (0)
 -->
<!-- Title: %3 Pages: 1 -->
<svg width="294pt" height="89pt" viewBox="0.00 0.00 294.29 89.30" xmlns="http://www.w3.org/2000/svg"
    xmlns:xlink="http://www.w3.org/1999/xlink">
    <g id="graph0" class="graph" transform="scale(1 1) rotate(0) translate(4 85.3)">
        <title>%3</title>
        <polygon fill="none" stroke="transparent" points="-4,4 -4,-85.3 290.29,-85.3 290.29,4 -4,4" />
        <!-- Initial -->
        <g id="node1" class="node">
            <title>Initial</title>
            <ellipse fill="black" stroke="black" cx="1.8" cy="-24.15" rx="1.8" ry="1.8" />
        </g>
        <!-- ap -->
        <g id="node3" class="node">
            <title>ap</title>
            <ellipse fill="white" stroke="black" cx="62.7" cy="-24.15" rx="22.2" ry="22.2" />
            <text text-anchor="middle" x="62.7" y="-20.45" font-family="Times,serif" font-size="14.00">ap</text>
        </g>
        <!-- Initial&#45;&gt;ap -->
        <g id="edge1" class="edge">
            <title>Initial&#45;&gt;ap</title>
            <path fill="none" stroke="black" d="M3.82,-24.15C7.34,-24.15 19.39,-24.15 31.59,-24.15" />
            <polygon fill="black" stroke="black" points="31.88,-27.12 40.38,-24.15 31.88,-21.17 31.88,-27.12" />
        </g>
        <!-- ad -->
        <g id="node2" class="node">
            <title>ad</title>
            <ellipse fill="white" stroke="black" cx="160.89" cy="-24.15" rx="22.2" ry="22.2" />
            <text text-anchor="middle" x="160.89" y="-20.45" font-family="Times,serif" font-size="14.00">ad</text>
        </g>
        <!-- ad&#45;&gt;ap -->
        <g id="edge3" class="edge">
            <title>ad&#45;&gt;ap</title>
            <path fill="none" stroke="black"
                d="M141.44,-13.06C135.12,-9.85 127.86,-6.77 120.8,-5.15 113,-3.35 110.59,-3.35 102.8,-5.15 98.49,-6.14 94.12,-7.67 89.92,-9.44" />
            <polygon fill="black" stroke="black" points="88.6,-6.77 82.15,-13.06 91.11,-12.17 88.6,-6.77" />
            <text text-anchor="middle" x="111.8" y="-8.95" font-family="Times,serif" font-size="14.00"> a </text>
        </g>
        <!-- qf -->
        <g id="node4" class="node">
            <title>qf</title>
            <ellipse fill="white" stroke="black" cx="262.14" cy="-24.15" rx="24.3" ry="24.3" />
            <ellipse fill="none" stroke="black" cx="262.14" cy="-24.15" rx="20.27" ry="20.27" />
            <text text-anchor="middle" x="262.14" y="-20.45" font-family="Times,serif" font-size="14.00">qf</text>
        </g>
        <!-- ad&#45;&gt;qf -->
        <g id="edge4" class="edge">
            <title>ad&#45;&gt;qf</title>
            <path fill="none" stroke="black" d="M183.43,-24.15C196.74,-24.15 214.08,-24.15 229,-24.15" />
            <polygon fill="black" stroke="black" points="229.42,-27.12 237.92,-24.15 229.42,-21.17 229.42,-27.12" />
            <text text-anchor="middle" x="210.49" y="-27.95" font-family="Times,serif" font-size="14.00"> b </text>
        </g>
        <!-- ap&#45;&gt;ad -->
        <g id="edge2" class="edge">
            <title>ap&#45;&gt;ad</title>
            <path fill="none" stroke="black" d="M85.05,-24.15C98.25,-24.15 115.39,-24.15 129.94,-24.15" />
            <polygon fill="black" stroke="black" points="130.1,-27.12 138.6,-24.15 130.1,-21.17 130.1,-27.12" />
            <text text-anchor="middle" x="111.8" y="-27.95" font-family="Times,serif" font-size="14.00"> a </text>
        </g>
        <!-- qf&#45;&gt;ad -->
        <g id="edge5" class="edge">
            <title>qf&#45;&gt;ad</title>
            <path fill="none" stroke="black"
                d="M241.04,-12.16C229.45,-6.68 214.55,-2.03 200.99,-5.15 196.69,-6.14 192.31,-7.67 188.12,-9.44" />
            <polygon fill="black" stroke="black" points="186.79,-6.77 180.35,-13.06 189.31,-12.17 186.79,-6.77" />
            <text text-anchor="middle" x="210.49" y="-8.95" font-family="Times,serif" font-size="14.00"> a </text>
        </g>
        <!-- qf&#45;&gt;qf -->
        <g id="edge6" class="edge">
            <title>qf&#45;&gt;qf</title>
            <path fill="none" stroke="black"
                d="M252.95,-46.7C251.95,-57.16 255.01,-66.3 262.14,-66.3 267.15,-66.3 270.16,-61.78 271.15,-55.46" />
            <polygon fill="black" stroke="black" points="274.13,-55.26 271.33,-46.7 268.18,-55.13 274.13,-55.26" />
            <text text-anchor="middle" x="262.14" y="-70.1" font-family="Times,serif" font-size="14.00"> b </text>
        </g>
    </g>
</svg>