<?xml version="1.0" encoding="UTF-8" standalone="no"?>
<!DOCTYPE svg PUBLIC "-//W3C//DTD SVG 1.1//EN" "http://www.w3.org/Graphics/SVG/1.1/DTD/svg11.dtd">
<!-- Generated by graphviz version 2.43.0 (0)
 -->
<!-- Title: %3 Pages: 1 -->
<svg width="411pt" height="108pt" viewBox="0.00 0.00 410.58 108.50" xmlns="http://www.w3.org/2000/svg"
    xmlns:xlink="http://www.w3.org/1999/xlink">
    <g id="graph0" class="graph" transform="scale(1 1) rotate(0) translate(4 104.5)">
        <title>%3</title>
        <polygon fill="none" stroke="transparent" points="-4,4 -4,-104.5 406.58,-104.5 406.58,4 -4,4" />
        <!-- Initial -->
        <g id="node1" class="node">
            <title>Initial</title>
            <ellipse fill="black" stroke="black" cx="1.8" cy="-26.75" rx="1.8" ry="1.8" />
        </g>
        <!-- 00 -->
        <g id="node2" class="node">
            <title>00</title>
            <ellipse fill="white" stroke="black" cx="67.35" cy="-26.75" rx="27" ry="27" />
            <ellipse fill="none" stroke="black" cx="67.35" cy="-26.75" rx="22.96" ry="22.96" />
            <text text-anchor="middle" x="67.35" y="-23.05" font-family="Times,serif" font-size="14.00">00</text>
        </g>
        <!-- Initial&#45;&gt;00 -->
        <g id="edge1" class="edge">
            <title>Initial&#45;&gt;00</title>
            <path fill="none" stroke="black" d="M3.9,-26.75C7.49,-26.75 19.32,-26.75 31.74,-26.75" />
            <polygon fill="black" stroke="black" points="31.83,-29.72 40.33,-26.75 31.83,-23.77 31.83,-29.72" />
        </g>
        <!-- 01 -->
        <g id="node3" class="node">
            <title>01</title>
            <ellipse fill="white" stroke="black" cx="171.84" cy="-71.75" rx="23" ry="23" />
            <text text-anchor="middle" x="171.84" y="-68.05" font-family="Times,serif" font-size="14.00">01</text>
        </g>
        <!-- 00&#45;&gt;01 -->
        <g id="edge3" class="edge">
            <title>00&#45;&gt;01</title>
            <path fill="none" stroke="black"
                d="M87.62,-44.22C94.85,-49.94 103.42,-55.84 112.1,-59.75 120.87,-63.71 130.97,-66.37 140.29,-68.16" />
            <polygon fill="black" stroke="black" points="140.04,-71.14 148.92,-69.62 141.04,-65.27 140.04,-71.14" />
            <text text-anchor="middle" x="121.6" y="-69.55" font-family="Times,serif" font-size="14.00"> b </text>
        </g>
        <!-- 10 -->
        <g id="node4" class="node">
            <title>10</title>
            <ellipse fill="white" stroke="black" cx="379.84" cy="-26.75" rx="23" ry="23" />
            <text text-anchor="middle" x="379.84" y="-23.05" font-family="Times,serif" font-size="14.00">10</text>
        </g>
        <!-- 00&#45;&gt;10 -->
        <g id="edge2" class="edge">
            <title>00&#45;&gt;10</title>
            <path fill="none" stroke="black" d="M94.29,-26.75C151.26,-26.75 287.12,-26.75 348.19,-26.75" />
            <polygon fill="black" stroke="black" points="348.48,-29.72 356.98,-26.75 348.48,-23.77 348.48,-29.72" />
            <text text-anchor="middle" x="221.59" y="-30.55" font-family="Times,serif" font-size="14.00"> a </text>
        </g>
        <!-- 01&#45;&gt;00 -->
        <g id="edge5" class="edge">
            <title>01&#45;&gt;00</title>
            <path fill="none" stroke="black"
                d="M154.54,-56.37C147.74,-50.7 139.49,-44.71 131.1,-40.75 122.21,-36.55 112.01,-33.59 102.46,-31.5" />
            <polygon fill="black" stroke="black" points="102.84,-28.55 93.92,-29.83 101.69,-34.38 102.84,-28.55" />
            <text text-anchor="middle" x="121.6" y="-44.55" font-family="Times,serif" font-size="14.00"> b </text>
        </g>
        <!-- 11 -->
        <g id="node5" class="node">
            <title>11</title>
            <ellipse fill="white" stroke="black" cx="275.34" cy="-73.75" rx="27" ry="27" />
            <ellipse fill="none" stroke="black" cx="275.34" cy="-73.75" rx="22.96" ry="22.96" />
            <text text-anchor="middle" x="275.34" y="-70.05" font-family="Times,serif" font-size="14.00">11</text>
        </g>
        <!-- 01&#45;&gt;11 -->
        <g id="edge4" class="edge">
            <title>01&#45;&gt;11</title>
            <path fill="none" stroke="black"
                d="M194.71,-72.33C200.52,-72.48 206.79,-72.63 212.59,-72.75 221.44,-72.93 230.99,-73.1 239.88,-73.24" />
            <polygon fill="black" stroke="black" points="239.96,-76.22 248.5,-73.38 240.05,-70.27 239.96,-76.22" />
            <text text-anchor="middle" x="221.59" y="-76.55" font-family="Times,serif" font-size="14.00"> a </text>
        </g>
        <!-- 10&#45;&gt;00 -->
        <g id="edge6" class="edge">
            <title>10&#45;&gt;00</title>
            <path fill="none" stroke="black"
                d="M357.38,-21.81C325.76,-15.11 264.77,-4.33 212.59,-7.75 174.67,-10.23 131.51,-16.36 102.36,-20.99" />
            <polygon fill="black" stroke="black" points="101.7,-18.08 93.78,-22.37 102.65,-23.96 101.7,-18.08" />
            <text text-anchor="middle" x="221.59" y="-11.55" font-family="Times,serif" font-size="14.00"> a </text>
        </g>
        <!-- 10&#45;&gt;11 -->
        <g id="edge7" class="edge">
            <title>10&#45;&gt;11</title>
            <path fill="none" stroke="black"
                d="M357.62,-31.66C346.21,-34.7 332.05,-39.1 320.09,-44.75 314.88,-47.21 309.59,-50.22 304.56,-53.36" />
            <polygon fill="black" stroke="black" points="302.92,-50.87 297.42,-58 306.17,-55.86 302.92,-50.87" />
            <text text-anchor="middle" x="329.59" y="-48.55" font-family="Times,serif" font-size="14.00"> b </text>
        </g>
        <!-- 11&#45;&gt;01 -->
        <g id="edge8" class="edge">
            <title>11&#45;&gt;01</title>
            <path fill="none" stroke="black"
                d="M251.37,-61.02C244.85,-58.03 237.61,-55.28 230.59,-53.75 220.43,-51.54 209.5,-53.73 199.9,-57.25" />
            <polygon fill="black" stroke="black" points="198.56,-54.58 191.87,-60.6 200.86,-60.07 198.56,-54.58" />
            <text text-anchor="middle" x="221.59" y="-57.55" font-family="Times,serif" font-size="14.00"> a </text>
        </g>
        <!-- 11&#45;&gt;10 -->
        <g id="edge9" class="edge">
            <title>11&#45;&gt;10</title>
            <path fill="none" stroke="black"
                d="M301.99,-70.83C313.73,-68.8 327.56,-65.4 339.09,-59.75 345.2,-56.75 351.19,-52.62 356.58,-48.31" />
            <polygon fill="black" stroke="black" points="358.51,-50.57 363.06,-42.8 354.66,-46.04 358.51,-50.57" />
            <text text-anchor="middle" x="329.59" y="-69.55" font-family="Times,serif" font-size="14.00"> b </text>
        </g>
    </g>
</svg>