<?xml version="1.0" encoding="UTF-8" standalone="no"?>
<!DOCTYPE svg PUBLIC "-//W3C//DTD SVG 1.1//EN" "http://www.w3.org/Graphics/SVG/1.1/DTD/svg11.dtd">
<!-- Generated by graphviz version 2.43.0 (0)
 -->
<!-- Title: %3 Pages: 1 -->
<svg width="203pt" height="123pt" viewBox="0.00 0.00 202.59 123.50" xmlns="http://www.w3.org/2000/svg"
    xmlns:xlink="http://www.w3.org/1999/xlink">
    <g id="graph0" class="graph" transform="scale(1 1) rotate(0) translate(4 119.5)">
        <title>%3</title>
        <polygon fill="none" stroke="transparent" points="-4,4 -4,-119.5 198.59,-119.5 198.59,4 -4,4" />
        <!-- Initial -->
        <g id="node1" class="node">
            <title>Initial</title>
            <ellipse fill="black" stroke="black" cx="1.8" cy="-26.75" rx="1.8" ry="1.8" />
        </g>
        <!-- q0 -->
        <g id="node2" class="node">
            <title>q0</title>
            <ellipse fill="white" stroke="black" cx="63.35" cy="-26.75" rx="23" ry="23" />
            <text text-anchor="middle" x="63.35" y="-23.05" font-family="Times,serif" font-size="14.00">q0</text>
        </g>
        <!-- Initial&#45;&gt;q0 -->
        <g id="edge1" class="edge">
            <title>Initial&#45;&gt;q0</title>
            <path fill="none" stroke="black" d="M3.83,-26.75C7.36,-26.75 19.4,-26.75 31.65,-26.75" />
            <polygon fill="black" stroke="black" points="31.98,-29.72 40.48,-26.75 31.98,-23.77 31.98,-29.72" />
        </g>
        <!-- q0&#45;&gt;q0 -->
        <g id="edge2" class="edge">
            <title>q0&#45;&gt;q0</title>
            <path fill="none" stroke="black"
                d="M59.64,-49.38C59.34,-59.14 60.57,-67.5 63.35,-67.5 65.25,-67.5 66.43,-63.55 66.89,-57.9" />
            <polygon fill="black" stroke="black" points="69.86,-57.93 67.05,-49.38 63.91,-57.82 69.86,-57.93" />
            <text text-anchor="middle" x="63.35" y="-71.3" font-family="Times,serif" font-size="14.00"> a </text>
        </g>
        <!-- q0&#45;&gt;q0 -->
        <g id="edge4" class="edge">
            <title>q0&#45;&gt;q0</title>
            <path fill="none" stroke="black"
                d="M56.95,-48.75C54.3,-66.77 56.43,-85.5 63.35,-85.5 69.13,-85.5 71.57,-72.41 70.67,-57.59" />
            <polygon fill="black" stroke="black" points="73.58,-56.89 69.75,-48.75 67.67,-57.51 73.58,-56.89" />
            <text text-anchor="middle" x="63.35" y="-89.3" font-family="Times,serif" font-size="14.00"> b </text>
        </g>
        <!-- q1 -->
        <g id="node3" class="node">
            <title>q1</title>
            <ellipse fill="white" stroke="black" cx="167.84" cy="-26.75" rx="27" ry="27" />
            <ellipse fill="none" stroke="black" cx="167.84" cy="-26.75" rx="22.96" ry="22.96" />
            <text text-anchor="middle" x="167.84" y="-23.05" font-family="Times,serif" font-size="14.00">q1</text>
        </g>
        <!-- q0&#45;&gt;q1 -->
        <g id="edge3" class="edge">
            <title>q0&#45;&gt;q1</title>
            <path fill="none" stroke="black" d="M86.34,-26.75C99.71,-26.75 117.08,-26.75 132.27,-26.75" />
            <polygon fill="black" stroke="black" points="132.41,-29.72 140.91,-26.75 132.41,-23.77 132.41,-29.72" />
            <text text-anchor="middle" x="113.6" y="-30.55" font-family="Times,serif" font-size="14.00"> b </text>
        </g>
        <!-- q1&#45;&gt;q0 -->
        <g id="edge5" class="edge">
            <title>q1&#45;&gt;q0</title>
            <path fill="none" stroke="black"
                d="M144.1,-13.93C132.28,-8.78 117.53,-4.7 104.1,-7.75 99.82,-8.72 95.47,-10.2 91.29,-11.93" />
            <polygon fill="black" stroke="black" points="90.03,-9.23 83.53,-15.46 92.5,-14.65 90.03,-9.23" />
            <text text-anchor="middle" x="113.6" y="-11.55" font-family="Times,serif" font-size="14.00"> b </text>
        </g>
    </g>
</svg>