<?xml version="1.0" encoding="UTF-8" standalone="no"?>
<!DOCTYPE svg PUBLIC "-//W3C//DTD SVG 1.1//EN"
 "http://www.w3.org/Graphics/SVG/1.1/DTD/svg11.dtd">
<!-- Generated by graphviz version 10.0.1 (0)
 -->
<!-- Pages: 1 -->
<svg width="576pt" height="118pt"
 viewBox="0.00 0.00 576.00 117.84" xmlns="http://www.w3.org/2000/svg" xmlns:xlink="http://www.w3.org/1999/xlink">
<g id="graph0" class="graph" transform="scale(0.492361 0.492361) rotate(0) translate(4 235.33)">
<polygon fill="white" stroke="none" points="-4,4 -4,-235.33 1165.87,-235.33 1165.87,4 -4,4"/>
<!-- Initial -->
<g id="node1" class="node">
<title>Initial</title>
<ellipse fill="black" stroke="black" cx="1.8" cy="-154.16" rx="1.8" ry="1.8"/>
</g>
<!-- 000 -->
<g id="node2" class="node">
<title>000</title>
<ellipse fill="none" stroke="black" cx="74.76" cy="-154.16" rx="30.16" ry="30.16"/>
<ellipse fill="none" stroke="black" cx="74.76" cy="-154.16" rx="34.16" ry="34.16"/>
<text text-anchor="middle" x="74.76" y="-149.49" font-family="Times,serif" font-size="14.00">000</text>
</g>
<!-- Initial&#45;&gt;000 -->
<g id="edge1" class="edge">
<title>Initial&#45;&gt;000</title>
<path fill="none" stroke="black" d="M4.03,-154.16C7.58,-154.16 18.31,-154.16 30.34,-154.16"/>
<polygon fill="black" stroke="black" points="30.13,-157.14 38.63,-154.16 30.13,-151.19 30.13,-157.14"/>
</g>
<!-- 100 -->
<g id="node3" class="node">
<title>100</title>
<ellipse fill="none" stroke="black" cx="193.09" cy="-154.16" rx="30.16" ry="30.16"/>
<text text-anchor="middle" x="193.09" y="-149.49" font-family="Times,serif" font-size="14.00">100</text>
</g>
<!-- 000&#45;&gt;100 -->
<g id="edge2" class="edge">
<title>000&#45;&gt;100</title>
<path fill="none" stroke="black" d="M109.41,-154.16C122.91,-154.16 138.56,-154.16 152.6,-154.16"/>
<polygon fill="black" stroke="black" points="152.46,-157.14 160.96,-154.16 152.46,-151.19 152.46,-157.14"/>
<text text-anchor="middle" x="135.93" y="-158.11" font-family="Times,serif" font-size="14.00"> 0 </text>
</g>
<!-- 110 -->
<g id="node4" class="node">
<title>110</title>
<ellipse fill="none" stroke="black" cx="307.42" cy="-195.16" rx="30.16" ry="30.16"/>
<text text-anchor="middle" x="307.42" y="-190.49" font-family="Times,serif" font-size="14.00">110</text>
</g>
<!-- 100&#45;&gt;110 -->
<g id="edge4" class="edge">
<title>100&#45;&gt;110</title>
<path fill="none" stroke="black" d="M221.86,-164.3C236.17,-169.52 253.82,-175.96 269.28,-181.61"/>
<polygon fill="black" stroke="black" points="268.16,-184.36 277.16,-184.48 270.2,-178.78 268.16,-184.36"/>
<text text-anchor="middle" x="250.25" y="-180.11" font-family="Times,serif" font-size="14.00"> 1 </text>
</g>
<!-- 200 -->
<g id="node6" class="node">
<title>200</title>
<ellipse fill="none" stroke="black" cx="307.42" cy="-115.16" rx="30.16" ry="30.16"/>
<text text-anchor="middle" x="307.42" y="-110.49" font-family="Times,serif" font-size="14.00">200</text>
</g>
<!-- 100&#45;&gt;200 -->
<g id="edge3" class="edge">
<title>100&#45;&gt;200</title>
<path fill="none" stroke="black" d="M222.15,-144.42C236.46,-139.45 254.06,-133.34 269.46,-128"/>
<polygon fill="black" stroke="black" points="270.24,-130.88 277.29,-125.28 268.29,-125.25 270.24,-130.88"/>
<text text-anchor="middle" x="250.25" y="-140.11" font-family="Times,serif" font-size="14.00"> 0 </text>
</g>
<!-- 111 -->
<g id="node5" class="node">
<title>111</title>
<ellipse fill="none" stroke="black" cx="425.75" cy="-197.16" rx="30.16" ry="30.16"/>
<ellipse fill="none" stroke="black" cx="425.75" cy="-197.16" rx="34.16" ry="34.16"/>
<text text-anchor="middle" x="425.75" y="-192.49" font-family="Times,serif" font-size="14.00">111</text>
</g>
<!-- 110&#45;&gt;111 -->
<g id="edge7" class="edge">
<title>110&#45;&gt;111</title>
<path fill="none" stroke="black" d="M338.07,-195.67C351.31,-195.9 367.16,-196.17 381.67,-196.42"/>
<polygon fill="black" stroke="black" points="381.39,-199.39 389.94,-196.57 381.49,-193.44 381.39,-199.39"/>
<text text-anchor="middle" x="364.58" y="-200.11" font-family="Times,serif" font-size="14.00"> 2 </text>
</g>
<!-- 210 -->
<g id="node7" class="node">
<title>210</title>
<ellipse fill="none" stroke="black" cx="425.75" cy="-115.16" rx="30.16" ry="30.16"/>
<text text-anchor="middle" x="425.75" y="-110.49" font-family="Times,serif" font-size="14.00">210</text>
</g>
<!-- 200&#45;&gt;210 -->
<g id="edge6" class="edge">
<title>200&#45;&gt;210</title>
<path fill="none" stroke="black" d="M338.07,-115.16C352.43,-115.16 369.87,-115.16 385.32,-115.16"/>
<polygon fill="black" stroke="black" points="385.13,-118.14 393.63,-115.16 385.13,-112.19 385.13,-118.14"/>
<text text-anchor="middle" x="364.58" y="-119.11" font-family="Times,serif" font-size="14.00"> 1 </text>
</g>
<!-- 300 -->
<g id="node11" class="node">
<title>300</title>
<ellipse fill="none" stroke="black" cx="425.75" cy="-37.16" rx="30.16" ry="30.16"/>
<text text-anchor="middle" x="425.75" y="-32.49" font-family="Times,serif" font-size="14.00">300</text>
</g>
<!-- 200&#45;&gt;300 -->
<g id="edge5" class="edge">
<title>200&#45;&gt;300</title>
<path fill="none" stroke="black" d="M333.09,-98.62C350.21,-87.14 373.2,-71.73 391.87,-59.21"/>
<polygon fill="black" stroke="black" points="393.45,-61.73 398.85,-54.52 390.14,-56.79 393.45,-61.73"/>
<text text-anchor="middle" x="364.58" y="-86.11" font-family="Times,serif" font-size="14.00"> 0 </text>
</g>
<!-- 220 -->
<g id="node8" class="node">
<title>220</title>
<ellipse fill="none" stroke="black" cx="544.07" cy="-115.16" rx="30.16" ry="30.16"/>
<text text-anchor="middle" x="544.07" y="-110.49" font-family="Times,serif" font-size="14.00">220</text>
</g>
<!-- 210&#45;&gt;220 -->
<g id="edge8" class="edge">
<title>210&#45;&gt;220</title>
<path fill="none" stroke="black" d="M456.4,-115.16C470.76,-115.16 488.19,-115.16 503.65,-115.16"/>
<polygon fill="black" stroke="black" points="503.46,-118.14 511.96,-115.16 503.46,-112.19 503.46,-118.14"/>
<text text-anchor="middle" x="486.91" y="-119.11" font-family="Times,serif" font-size="14.00"> 1 </text>
</g>
<!-- 221 -->
<g id="node9" class="node">
<title>221</title>
<ellipse fill="none" stroke="black" cx="658.4" cy="-116.16" rx="30.16" ry="30.16"/>
<text text-anchor="middle" x="658.4" y="-111.49" font-family="Times,serif" font-size="14.00">221</text>
</g>
<!-- 220&#45;&gt;221 -->
<g id="edge9" class="edge">
<title>220&#45;&gt;221</title>
<path fill="none" stroke="black" d="M574.59,-115.43C588,-115.55 604.06,-115.69 618.44,-115.82"/>
<polygon fill="black" stroke="black" points="618.04,-118.79 626.57,-115.89 618.1,-112.84 618.04,-118.79"/>
<text text-anchor="middle" x="601.24" y="-119.11" font-family="Times,serif" font-size="14.00"> 2 </text>
</g>
<!-- 222 -->
<g id="node10" class="node">
<title>222</title>
<ellipse fill="none" stroke="black" cx="776.73" cy="-116.16" rx="30.16" ry="30.16"/>
<ellipse fill="none" stroke="black" cx="776.73" cy="-116.16" rx="34.16" ry="34.16"/>
<text text-anchor="middle" x="776.73" y="-111.49" font-family="Times,serif" font-size="14.00">222</text>
</g>
<!-- 221&#45;&gt;222 -->
<g id="edge10" class="edge">
<title>221&#45;&gt;222</title>
<path fill="none" stroke="black" d="M689.06,-116.16C702.29,-116.16 718.14,-116.16 732.65,-116.16"/>
<polygon fill="black" stroke="black" points="732.42,-119.14 740.92,-116.16 732.42,-113.19 732.42,-119.14"/>
<text text-anchor="middle" x="715.56" y="-120.11" font-family="Times,serif" font-size="14.00"> 2 </text>
</g>
<!-- 310 -->
<g id="node12" class="node">
<title>310</title>
<ellipse fill="none" stroke="black" cx="544.07" cy="-37.16" rx="30.16" ry="30.16"/>
<text text-anchor="middle" x="544.07" y="-32.49" font-family="Times,serif" font-size="14.00">310</text>
</g>
<!-- 300&#45;&gt;310 -->
<g id="edge11" class="edge">
<title>300&#45;&gt;310</title>
<path fill="none" stroke="black" d="M456.4,-37.16C470.76,-37.16 488.19,-37.16 503.65,-37.16"/>
<polygon fill="black" stroke="black" points="503.46,-40.14 511.96,-37.16 503.46,-34.19 503.46,-40.14"/>
<text text-anchor="middle" x="486.91" y="-41.11" font-family="Times,serif" font-size="14.00"> 1 </text>
</g>
<!-- 320 -->
<g id="node13" class="node">
<title>320</title>
<ellipse fill="none" stroke="black" cx="658.4" cy="-37.16" rx="30.16" ry="30.16"/>
<text text-anchor="middle" x="658.4" y="-32.49" font-family="Times,serif" font-size="14.00">320</text>
</g>
<!-- 310&#45;&gt;320 -->
<g id="edge12" class="edge">
<title>310&#45;&gt;320</title>
<path fill="none" stroke="black" d="M574.59,-37.16C588,-37.16 604.06,-37.16 618.44,-37.16"/>
<polygon fill="black" stroke="black" points="618.07,-40.14 626.57,-37.16 618.07,-34.19 618.07,-40.14"/>
<text text-anchor="middle" x="601.24" y="-41.11" font-family="Times,serif" font-size="14.00"> 1 </text>
</g>
<!-- 330 -->
<g id="node14" class="node">
<title>330</title>
<ellipse fill="none" stroke="black" cx="776.73" cy="-34.16" rx="30.16" ry="30.16"/>
<text text-anchor="middle" x="776.73" y="-29.49" font-family="Times,serif" font-size="14.00">330</text>
</g>
<!-- 320&#45;&gt;330 -->
<g id="edge13" class="edge">
<title>320&#45;&gt;330</title>
<path fill="none" stroke="black" d="M688.75,-36.41C703.22,-36.03 720.87,-35.58 736.47,-35.18"/>
<polygon fill="black" stroke="black" points="736.45,-38.15 744.87,-34.96 736.3,-32.2 736.45,-38.15"/>
<text text-anchor="middle" x="715.56" y="-39.11" font-family="Times,serif" font-size="14.00"> 1 </text>
</g>
<!-- 331 -->
<g id="node15" class="node">
<title>331</title>
<ellipse fill="none" stroke="black" cx="895.05" cy="-34.16" rx="30.16" ry="30.16"/>
<text text-anchor="middle" x="895.05" y="-29.49" font-family="Times,serif" font-size="14.00">331</text>
</g>
<!-- 330&#45;&gt;331 -->
<g id="edge14" class="edge">
<title>330&#45;&gt;331</title>
<path fill="none" stroke="black" d="M807.38,-34.16C821.74,-34.16 839.17,-34.16 854.63,-34.16"/>
<polygon fill="black" stroke="black" points="854.44,-37.14 862.94,-34.16 854.44,-31.19 854.44,-37.14"/>
<text text-anchor="middle" x="837.89" y="-38.11" font-family="Times,serif" font-size="14.00"> 2 </text>
</g>
<!-- 332 -->
<g id="node16" class="node">
<title>332</title>
<ellipse fill="none" stroke="black" cx="1009.38" cy="-34.16" rx="30.16" ry="30.16"/>
<text text-anchor="middle" x="1009.38" y="-29.49" font-family="Times,serif" font-size="14.00">332</text>
</g>
<!-- 331&#45;&gt;332 -->
<g id="edge15" class="edge">
<title>331&#45;&gt;332</title>
<path fill="none" stroke="black" d="M925.57,-34.16C938.98,-34.16 955.04,-34.16 969.42,-34.16"/>
<polygon fill="black" stroke="black" points="969.05,-37.14 977.55,-34.16 969.05,-31.19 969.05,-37.14"/>
<text text-anchor="middle" x="952.22" y="-38.11" font-family="Times,serif" font-size="14.00"> 2 </text>
</g>
<!-- 333 -->
<g id="node17" class="node">
<title>333</title>
<ellipse fill="none" stroke="black" cx="1127.71" cy="-34.16" rx="30.16" ry="30.16"/>
<ellipse fill="none" stroke="black" cx="1127.71" cy="-34.16" rx="34.16" ry="34.16"/>
<text text-anchor="middle" x="1127.71" y="-29.49" font-family="Times,serif" font-size="14.00">333</text>
</g>
<!-- 332&#45;&gt;333 -->
<g id="edge16" class="edge">
<title>332&#45;&gt;333</title>
<path fill="none" stroke="black" d="M1040.04,-34.16C1053.27,-34.16 1069.13,-34.16 1083.63,-34.16"/>
<polygon fill="black" stroke="black" points="1083.4,-37.14 1091.9,-34.16 1083.4,-31.19 1083.4,-37.14"/>
<text text-anchor="middle" x="1066.55" y="-38.11" font-family="Times,serif" font-size="14.00"> 2 </text>
</g>
</g>
</svg>
