<?xml version="1.0" encoding="UTF-8" standalone="no"?>
<!DOCTYPE svg PUBLIC "-//W3C//DTD SVG 1.1//EN"
 "http://www.w3.org/Graphics/SVG/1.1/DTD/svg11.dtd">
<!-- Generated by graphviz version 10.0.1 (0)
 -->
<!-- Pages: 1 -->
<svg width="553pt" height="528pt"
 viewBox="0.00 0.00 552.86 528.06" xmlns="http://www.w3.org/2000/svg" xmlns:xlink="http://www.w3.org/1999/xlink">
<g id="graph0" class="graph" transform="scale(1 1) rotate(0) translate(4 524.06)">
<polygon fill="white" stroke="none" points="-4,4 -4,-524.06 548.86,-524.06 548.86,4 -4,4"/>
<!-- Initial -->
<g id="node1" class="node">
<title>Initial</title>
<ellipse fill="black" stroke="black" cx="1.8" cy="-242.94" rx="1.8" ry="1.8"/>
</g>
<!-- q0 -->
<g id="node12" class="node">
<title>q0</title>
<ellipse fill="none" stroke="black" cx="68.45" cy="-242.94" rx="23.85" ry="23.85"/>
<ellipse fill="none" stroke="black" cx="68.45" cy="-242.94" rx="27.85" ry="27.85"/>
<text text-anchor="middle" x="68.45" y="-238.27" font-family="Times,serif" font-size="14.00">q0</text>
</g>
<!-- Initial&#45;&gt;q0 -->
<g id="edge1" class="edge">
<title>Initial&#45;&gt;q0</title>
<path fill="none" stroke="black" d="M3.92,-242.94C7.41,-242.94 18.58,-242.94 30.6,-242.94"/>
<polygon fill="black" stroke="black" points="30.28,-245.92 38.78,-242.94 30.28,-239.97 30.28,-245.92"/>
</g>
<!-- a -->
<g id="node2" class="node">
<title>a</title>
<ellipse fill="none" stroke="black" cx="172.3" cy="-312.94" rx="18" ry="18"/>
<ellipse fill="none" stroke="black" cx="172.3" cy="-312.94" rx="22" ry="22"/>
<text text-anchor="middle" x="172.3" y="-308.27" font-family="Times,serif" font-size="14.00">a</text>
</g>
<!-- aa -->
<g id="node3" class="node">
<title>aa</title>
<ellipse fill="none" stroke="black" cx="276.15" cy="-434.94" rx="22.8" ry="22.8"/>
<ellipse fill="none" stroke="black" cx="276.15" cy="-434.94" rx="26.8" ry="26.8"/>
<text text-anchor="middle" x="276.15" y="-430.27" font-family="Times,serif" font-size="14.00">aa</text>
</g>
<!-- a&#45;&gt;aa -->
<g id="edge4" class="edge">
<title>a&#45;&gt;aa</title>
<path fill="none" stroke="black" d="M187.25,-329.65C203.96,-349.67 232.21,-383.51 252.16,-407.41"/>
<polygon fill="black" stroke="black" points="249.63,-409.01 257.36,-413.63 254.19,-405.2 249.63,-409.01"/>
<text text-anchor="middle" x="221.3" y="-380.89" font-family="Times,serif" font-size="14.00"> a </text>
</g>
<!-- ab -->
<g id="node5" class="node">
<title>ab</title>
<ellipse fill="none" stroke="black" cx="276.15" cy="-312.94" rx="23.32" ry="23.32"/>
<ellipse fill="none" stroke="black" cx="276.15" cy="-312.94" rx="27.32" ry="27.32"/>
<text text-anchor="middle" x="276.15" y="-308.27" font-family="Times,serif" font-size="14.00">ab</text>
</g>
<!-- a&#45;&gt;ab -->
<g id="edge5" class="edge">
<title>a&#45;&gt;ab</title>
<path fill="none" stroke="black" d="M194.4,-312.94C207.19,-312.94 223.84,-312.94 238.7,-312.94"/>
<polygon fill="black" stroke="black" points="238.62,-315.92 247.12,-312.94 238.62,-309.97 238.62,-315.92"/>
<text text-anchor="middle" x="221.3" y="-316.89" font-family="Times,serif" font-size="14.00"> b </text>
</g>
<!-- aa1 -->
<g id="node4" class="node">
<title>aa1</title>
<ellipse fill="none" stroke="black" cx="392.16" cy="-486.94" rx="29.11" ry="29.11"/>
<ellipse fill="none" stroke="black" cx="392.16" cy="-486.94" rx="33.11" ry="33.11"/>
<text text-anchor="middle" x="392.16" y="-482.27" font-family="Times,serif" font-size="14.00">aa1</text>
</g>
<!-- aa&#45;&gt;aa1 -->
<g id="edge8" class="edge">
<title>aa&#45;&gt;aa1</title>
<path fill="none" stroke="black" d="M296.48,-452.93C303.98,-459.1 312.94,-465.55 322,-469.94 330.59,-474.11 340.28,-477.31 349.64,-479.75"/>
<polygon fill="black" stroke="black" points="348.78,-482.6 357.73,-481.67 350.15,-476.81 348.78,-482.6"/>
<text text-anchor="middle" x="331" y="-479.89" font-family="Times,serif" font-size="14.00"> a </text>
</g>
<!-- trap -->
<g id="node13" class="node">
<title>trap</title>
<ellipse fill="none" stroke="black" cx="512.6" cy="-261.94" rx="32.27" ry="32.27"/>
<text text-anchor="middle" x="512.6" y="-257.27" font-family="Times,serif" font-size="14.00">trap</text>
</g>
<!-- aa&#45;&gt;trap -->
<g id="edge9" class="edge">
<title>aa&#45;&gt;trap</title>
<path fill="none" stroke="black" d="M303.3,-432.92C335.14,-429.3 389.24,-419.3 426.33,-391.94 458.02,-368.57 481.29,-329.61 495.44,-300.42"/>
<polygon fill="black" stroke="black" points="497.97,-302.04 498.89,-293.08 492.58,-299.5 497.97,-302.04"/>
<text text-anchor="middle" x="392.16" y="-425.89" font-family="Times,serif" font-size="14.00"> b </text>
</g>
<!-- aa1&#45;&gt;aa -->
<g id="edge16" class="edge">
<title>aa1&#45;&gt;aa</title>
<path fill="none" stroke="black" d="M366.76,-465.38C358.7,-459.2 349.38,-452.98 340,-448.69 331.5,-444.81 321.83,-441.99 312.68,-439.96"/>
<polygon fill="black" stroke="black" points="313.42,-437.08 304.51,-438.35 312.27,-442.92 313.42,-437.08"/>
<text text-anchor="middle" x="331" y="-451.89" font-family="Times,serif" font-size="14.00"> a </text>
</g>
<!-- aa1&#45;&gt;trap -->
<g id="edge17" class="edge">
<title>aa1&#45;&gt;trap</title>
<path fill="none" stroke="black" d="M421.28,-470.93C435.46,-461.54 451.84,-448.47 462.33,-432.94 488.65,-393.98 501.09,-340.91 506.85,-304.28"/>
<polygon fill="black" stroke="black" points="509.79,-304.74 508.08,-295.9 503.9,-303.88 509.79,-304.74"/>
<text text-anchor="middle" x="453.33" y="-455.89" font-family="Times,serif" font-size="14.00"> b </text>
</g>
<!-- ab1 -->
<g id="node6" class="node">
<title>ab1</title>
<ellipse fill="none" stroke="black" cx="392.16" cy="-348.94" rx="29.64" ry="29.64"/>
<ellipse fill="none" stroke="black" cx="392.16" cy="-348.94" rx="33.64" ry="33.64"/>
<text text-anchor="middle" x="392.16" y="-344.27" font-family="Times,serif" font-size="14.00">ab1</text>
</g>
<!-- ab&#45;&gt;ab1 -->
<g id="edge10" class="edge">
<title>ab&#45;&gt;ab1</title>
<path fill="none" stroke="black" d="M301.62,-323.42C308.18,-326.04 315.31,-328.74 322,-330.94 330.74,-333.82 340.22,-336.54 349.28,-338.96"/>
<polygon fill="black" stroke="black" points="348.45,-341.82 357.43,-341.07 349.95,-336.06 348.45,-341.82"/>
<text text-anchor="middle" x="331" y="-339.89" font-family="Times,serif" font-size="14.00"> a </text>
</g>
<!-- ab&#45;&gt;trap -->
<g id="edge11" class="edge">
<title>ab&#45;&gt;trap</title>
<path fill="none" stroke="black" d="M302.43,-304.52C318.27,-299.45 339.18,-293.14 358,-288.69 395.8,-279.77 439.47,-272.45 470.56,-267.73"/>
<polygon fill="black" stroke="black" points="470.73,-270.72 478.7,-266.52 469.85,-264.83 470.73,-270.72"/>
<text text-anchor="middle" x="392.16" y="-291.89" font-family="Times,serif" font-size="14.00"> b </text>
</g>
<!-- ab1&#45;&gt;ab -->
<g id="edge19" class="edge">
<title>ab1&#45;&gt;ab</title>
<path fill="none" stroke="black" d="M367.34,-325.54C359.31,-319.14 349.86,-313.04 340,-309.69 331.51,-306.81 322,-306.11 313,-306.49"/>
<polygon fill="black" stroke="black" points="312.86,-303.52 304.64,-307.19 313.36,-309.45 312.86,-303.52"/>
<text text-anchor="middle" x="331" y="-312.89" font-family="Times,serif" font-size="14.00"> b </text>
</g>
<!-- ab1&#45;&gt;trap -->
<g id="edge18" class="edge">
<title>ab1&#45;&gt;trap</title>
<path fill="none" stroke="black" d="M419.74,-329.42C437.05,-316.71 459.76,-300.02 478.27,-286.42"/>
<polygon fill="black" stroke="black" points="479.61,-289.13 484.7,-281.7 476.09,-284.34 479.61,-289.13"/>
<text text-anchor="middle" x="453.33" y="-313.89" font-family="Times,serif" font-size="14.00"> a </text>
</g>
<!-- b -->
<g id="node7" class="node">
<title>b</title>
<ellipse fill="none" stroke="black" cx="172.3" cy="-173.94" rx="18" ry="18"/>
<ellipse fill="none" stroke="black" cx="172.3" cy="-173.94" rx="22" ry="22"/>
<text text-anchor="middle" x="172.3" y="-169.27" font-family="Times,serif" font-size="14.00">b</text>
</g>
<!-- ba -->
<g id="node8" class="node">
<title>ba</title>
<ellipse fill="none" stroke="black" cx="276.15" cy="-173.94" rx="23.32" ry="23.32"/>
<ellipse fill="none" stroke="black" cx="276.15" cy="-173.94" rx="27.32" ry="27.32"/>
<text text-anchor="middle" x="276.15" y="-169.27" font-family="Times,serif" font-size="14.00">ba</text>
</g>
<!-- b&#45;&gt;ba -->
<g id="edge6" class="edge">
<title>b&#45;&gt;ba</title>
<path fill="none" stroke="black" d="M194.4,-173.94C207.19,-173.94 223.84,-173.94 238.7,-173.94"/>
<polygon fill="black" stroke="black" points="238.62,-176.92 247.12,-173.94 238.62,-170.97 238.62,-176.92"/>
<text text-anchor="middle" x="221.3" y="-177.89" font-family="Times,serif" font-size="14.00"> a </text>
</g>
<!-- bb -->
<g id="node10" class="node">
<title>bb</title>
<ellipse fill="none" stroke="black" cx="276.15" cy="-85.94" rx="23.85" ry="23.85"/>
<ellipse fill="none" stroke="black" cx="276.15" cy="-85.94" rx="27.85" ry="27.85"/>
<text text-anchor="middle" x="276.15" y="-81.27" font-family="Times,serif" font-size="14.00">bb</text>
</g>
<!-- b&#45;&gt;bb -->
<g id="edge7" class="edge">
<title>b&#45;&gt;bb</title>
<path fill="none" stroke="black" d="M189.66,-159.81C205.11,-146.46 228.6,-126.17 247.05,-110.23"/>
<polygon fill="black" stroke="black" points="248.97,-112.49 253.46,-104.68 245.08,-107.99 248.97,-112.49"/>
<text text-anchor="middle" x="221.3" y="-140.89" font-family="Times,serif" font-size="14.00"> b </text>
</g>
<!-- ba1 -->
<g id="node9" class="node">
<title>ba1</title>
<ellipse fill="none" stroke="black" cx="392.16" cy="-209.94" rx="29.64" ry="29.64"/>
<ellipse fill="none" stroke="black" cx="392.16" cy="-209.94" rx="33.64" ry="33.64"/>
<text text-anchor="middle" x="392.16" y="-205.27" font-family="Times,serif" font-size="14.00">ba1</text>
</g>
<!-- ba&#45;&gt;ba1 -->
<g id="edge13" class="edge">
<title>ba&#45;&gt;ba1</title>
<path fill="none" stroke="black" d="M301.62,-184.42C308.18,-187.04 315.31,-189.74 322,-191.94 330.74,-194.82 340.22,-197.54 349.28,-199.96"/>
<polygon fill="black" stroke="black" points="348.45,-202.82 357.43,-202.07 349.95,-197.06 348.45,-202.82"/>
<text text-anchor="middle" x="331" y="-200.89" font-family="Times,serif" font-size="14.00"> b </text>
</g>
<!-- ba&#45;&gt;trap -->
<g id="edge12" class="edge">
<title>ba&#45;&gt;trap</title>
<path fill="none" stroke="black" d="M300.94,-161.71C331.52,-147.79 385.55,-129.46 426.33,-149.69 457.35,-165.09 480.13,-197.76 494.3,-223.9"/>
<polygon fill="black" stroke="black" points="491.51,-224.98 498.08,-231.15 496.78,-222.23 491.51,-224.98"/>
<text text-anchor="middle" x="392.16" y="-152.89" font-family="Times,serif" font-size="14.00"> a </text>
</g>
<!-- ba1&#45;&gt;ba -->
<g id="edge20" class="edge">
<title>ba1&#45;&gt;ba</title>
<path fill="none" stroke="black" d="M367.34,-186.54C359.31,-180.14 349.86,-174.04 340,-170.69 331.51,-167.81 322,-167.11 313,-167.49"/>
<polygon fill="black" stroke="black" points="312.86,-164.52 304.64,-168.19 313.36,-170.45 312.86,-164.52"/>
<text text-anchor="middle" x="331" y="-173.89" font-family="Times,serif" font-size="14.00"> a </text>
</g>
<!-- ba1&#45;&gt;trap -->
<g id="edge21" class="edge">
<title>ba1&#45;&gt;trap</title>
<path fill="none" stroke="black" d="M423.36,-223.2C438.74,-229.95 457.59,-238.23 473.91,-245.4"/>
<polygon fill="black" stroke="black" points="472.32,-247.95 481.3,-248.64 474.71,-242.5 472.32,-247.95"/>
<text text-anchor="middle" x="453.33" y="-242.89" font-family="Times,serif" font-size="14.00"> b </text>
</g>
<!-- bb1 -->
<g id="node11" class="node">
<title>bb1</title>
<ellipse fill="none" stroke="black" cx="392.16" cy="-70.94" rx="30.16" ry="30.16"/>
<ellipse fill="none" stroke="black" cx="392.16" cy="-70.94" rx="34.16" ry="34.16"/>
<text text-anchor="middle" x="392.16" y="-66.27" font-family="Times,serif" font-size="14.00">bb1</text>
</g>
<!-- bb&#45;&gt;bb1 -->
<g id="edge15" class="edge">
<title>bb&#45;&gt;bb1</title>
<path fill="none" stroke="black" d="M304.17,-82.39C317.23,-80.67 333.21,-78.57 347.91,-76.64"/>
<polygon fill="black" stroke="black" points="348.28,-79.59 356.32,-75.53 347.5,-73.69 348.28,-79.59"/>
<text text-anchor="middle" x="331" y="-83.89" font-family="Times,serif" font-size="14.00"> b </text>
</g>
<!-- bb&#45;&gt;trap -->
<g id="edge14" class="edge">
<title>bb&#45;&gt;trap</title>
<path fill="none" stroke="black" d="M293.2,-63.7C307.77,-45.57 331.06,-21.29 358,-10.69 386.26,0.42 400.84,5.81 426.33,-10.69 495.6,-55.54 509.67,-160.65 511.89,-219.72"/>
<polygon fill="black" stroke="black" points="508.9,-219.57 512.12,-227.98 514.85,-219.4 508.9,-219.57"/>
<text text-anchor="middle" x="392.16" y="-14.89" font-family="Times,serif" font-size="14.00"> a </text>
</g>
<!-- bb1&#45;&gt;bb -->
<g id="edge23" class="edge">
<title>bb1&#45;&gt;bb</title>
<path fill="none" stroke="black" d="M359.89,-58.75C347.92,-55.69 334.22,-54.17 322,-57.69 316.92,-59.16 311.85,-61.4 307.06,-63.98"/>
<polygon fill="black" stroke="black" points="305.86,-61.23 300.07,-68.13 308.9,-66.34 305.86,-61.23"/>
<text text-anchor="middle" x="331" y="-61.89" font-family="Times,serif" font-size="14.00"> b </text>
</g>
<!-- bb1&#45;&gt;trap -->
<g id="edge22" class="edge">
<title>bb1&#45;&gt;trap</title>
<path fill="none" stroke="black" d="M424.57,-82.45C437.84,-88.71 452.47,-97.66 462.33,-109.69 488.18,-141.24 500.59,-186.68 506.46,-219.7"/>
<polygon fill="black" stroke="black" points="503.52,-220.12 507.84,-228.02 509.39,-219.15 503.52,-220.12"/>
<text text-anchor="middle" x="453.33" y="-112.89" font-family="Times,serif" font-size="14.00"> a </text>
</g>
<!-- q0&#45;&gt;a -->
<g id="edge2" class="edge">
<title>q0&#45;&gt;a</title>
<path fill="none" stroke="black" d="M92.05,-258.48C107.82,-269.32 128.91,-283.81 145.36,-295.12"/>
<polygon fill="black" stroke="black" points="143.56,-297.49 152.25,-299.85 146.93,-292.58 143.56,-297.49"/>
<text text-anchor="middle" x="123.3" y="-287.89" font-family="Times,serif" font-size="14.00"> a </text>
</g>
<!-- q0&#45;&gt;b -->
<g id="edge3" class="edge">
<title>q0&#45;&gt;b</title>
<path fill="none" stroke="black" d="M92.05,-227.63C107.82,-216.95 128.91,-202.66 145.36,-191.52"/>
<polygon fill="black" stroke="black" points="146.87,-194.09 152.24,-186.86 143.54,-189.16 146.87,-194.09"/>
<text text-anchor="middle" x="123.3" y="-213.89" font-family="Times,serif" font-size="14.00"> b </text>
</g>
<!-- trap&#45;&gt;trap -->
<g id="edge24" class="edge">
<title>trap&#45;&gt;trap</title>
<path fill="none" stroke="black" d="M507.04,-293.85C507.1,-304.09 508.95,-312.21 512.6,-312.21 514.93,-312.21 516.53,-308.88 517.39,-303.79"/>
<polygon fill="black" stroke="black" points="520.36,-304.06 518.04,-295.36 514.43,-303.61 520.36,-304.06"/>
<text text-anchor="middle" x="512.6" y="-316.16" font-family="Times,serif" font-size="14.00"> a </text>
</g>
<!-- trap&#45;&gt;trap -->
<g id="edge25" class="edge">
<title>trap&#45;&gt;trap</title>
<path fill="none" stroke="black" d="M502.27,-292.84C499.78,-311.99 503.22,-330.21 512.6,-330.21 520.36,-330.21 524.06,-317.71 523.68,-302.54"/>
<polygon fill="black" stroke="black" points="526.67,-302.59 523.04,-294.34 520.74,-303.05 526.67,-302.59"/>
<text text-anchor="middle" x="512.6" y="-334.16" font-family="Times,serif" font-size="14.00"> b </text>
</g>
</g>
</svg>
