<?xml version="1.0" encoding="UTF-8" standalone="no"?>
<!DOCTYPE svg PUBLIC "-//W3C//DTD SVG 1.1//EN"
 "http://www.w3.org/Graphics/SVG/1.1/DTD/svg11.dtd">
<!-- Generated by graphviz version 10.0.1 (0)
 -->
<!-- Pages: 1 -->
<svg width="537pt" height="286pt"
 viewBox="0.00 0.00 536.77 285.57" xmlns="http://www.w3.org/2000/svg" xmlns:xlink="http://www.w3.org/1999/xlink">
<g id="graph0" class="graph" transform="scale(1 1) rotate(0) translate(4 281.57)">
<polygon fill="white" stroke="none" points="-4,4 -4,-281.57 532.77,-281.57 532.77,4 -4,4"/>
<!-- Initial -->
<g id="node1" class="node">
<title>Initial</title>
<ellipse fill="black" stroke="black" cx="1.8" cy="-83.27" rx="1.8" ry="1.8"/>
</g>
<!-- q0 -->
<g id="node5" class="node">
<title>q0</title>
<ellipse fill="none" stroke="black" cx="64.45" cy="-83.27" rx="23.85" ry="23.85"/>
<text text-anchor="middle" x="64.45" y="-78.59" font-family="Times,serif" font-size="14.00">q0</text>
</g>
<!-- Initial&#45;&gt;q0 -->
<g id="edge1" class="edge">
<title>Initial&#45;&gt;q0</title>
<path fill="none" stroke="black" d="M3.85,-83.27C7.27,-83.27 18.51,-83.27 30.32,-83.27"/>
<polygon fill="black" stroke="black" points="30.21,-86.24 38.71,-83.27 30.21,-80.29 30.21,-86.24"/>
</g>
<!-- a1 -->
<g id="node2" class="node">
<title>a1</title>
<ellipse fill="none" stroke="black" cx="166.15" cy="-116.27" rx="23.32" ry="23.32"/>
<text text-anchor="middle" x="166.15" y="-111.59" font-family="Times,serif" font-size="14.00">a1</text>
</g>
<!-- ta1 -->
<g id="node6" class="node">
<title>ta1</title>
<ellipse fill="none" stroke="black" cx="272.06" cy="-123.27" rx="27.53" ry="27.53"/>
<text text-anchor="middle" x="272.06" y="-118.59" font-family="Times,serif" font-size="14.00">ta1</text>
</g>
<!-- a1&#45;&gt;ta1 -->
<g id="edge6" class="edge">
<title>a1&#45;&gt;ta1</title>
<path fill="none" stroke="black" d="M188.52,-123.79C194.72,-125.63 201.56,-127.34 208,-128.27 216.6,-129.5 225.9,-129.5 234.65,-128.9"/>
<polygon fill="black" stroke="black" points="234.9,-131.87 243.08,-128.11 234.34,-125.94 234.9,-131.87"/>
<text text-anchor="middle" x="217" y="-133.22" font-family="Times,serif" font-size="14.00"> a </text>
</g>
<!-- a1&#45;&gt;ta1 -->
<g id="edge7" class="edge">
<title>a1&#45;&gt;ta1</title>
<path fill="none" stroke="black" d="M188.7,-109.47C199.85,-106.81 213.67,-104.86 226,-107.02 229.57,-107.64 233.23,-108.52 236.84,-109.56"/>
<polygon fill="black" stroke="black" points="235.77,-112.34 244.78,-112.11 237.6,-106.68 235.77,-112.34"/>
<text text-anchor="middle" x="217" y="-111.22" font-family="Times,serif" font-size="14.00"> b </text>
</g>
<!-- b1 -->
<g id="node3" class="node">
<title>b1</title>
<ellipse fill="none" stroke="black" cx="166.15" cy="-51.27" rx="23.85" ry="23.85"/>
<text text-anchor="middle" x="166.15" y="-46.59" font-family="Times,serif" font-size="14.00">b1</text>
</g>
<!-- tb1 -->
<g id="node8" class="node">
<title>tb1</title>
<ellipse fill="none" stroke="black" cx="272.06" cy="-32.27" rx="28.06" ry="28.06"/>
<text text-anchor="middle" x="272.06" y="-27.59" font-family="Times,serif" font-size="14.00">tb1</text>
</g>
<!-- b1&#45;&gt;tb1 -->
<g id="edge8" class="edge">
<title>b1&#45;&gt;tb1</title>
<path fill="none" stroke="black" d="M189.95,-47.1C203.09,-44.7 219.9,-41.62 234.8,-38.9"/>
<polygon fill="black" stroke="black" points="234.95,-41.9 242.78,-37.44 233.88,-36.04 234.95,-41.9"/>
<text text-anchor="middle" x="217" y="-48.22" font-family="Times,serif" font-size="14.00"> a </text>
</g>
<!-- b1&#45;&gt;tb1 -->
<g id="edge9" class="edge">
<title>b1&#45;&gt;tb1</title>
<path fill="none" stroke="black" d="M183.56,-34.78C190.49,-28.93 199.04,-23.05 208,-20.02 216.92,-17 226.82,-17.3 236.08,-19.07"/>
<polygon fill="black" stroke="black" points="235.36,-21.96 244.33,-21.11 236.79,-16.18 235.36,-21.96"/>
<text text-anchor="middle" x="217" y="-24.22" font-family="Times,serif" font-size="14.00"> b </text>
</g>
<!-- ok -->
<g id="node4" class="node">
<title>ok</title>
<ellipse fill="none" stroke="black" cx="496.51" cy="-180.27" rx="22.8" ry="22.8"/>
<ellipse fill="none" stroke="black" cx="496.51" cy="-180.27" rx="26.8" ry="26.8"/>
<text text-anchor="middle" x="496.51" y="-175.59" font-family="Times,serif" font-size="14.00">ok</text>
</g>
<!-- ok&#45;&gt;ok -->
<g id="edge18" class="edge">
<title>ok&#45;&gt;ok</title>
<path fill="none" stroke="black" d="M490.96,-206.94C490.78,-216.88 492.63,-225.07 496.51,-225.07 498.99,-225.07 500.64,-221.71 501.46,-216.68"/>
<polygon fill="black" stroke="black" points="504.41,-217.12 501.96,-208.45 498.47,-216.76 504.41,-217.12"/>
<text text-anchor="middle" x="496.51" y="-229.02" font-family="Times,serif" font-size="14.00"> a </text>
</g>
<!-- ok&#45;&gt;ok -->
<g id="edge19" class="edge">
<title>ok&#45;&gt;ok</title>
<path fill="none" stroke="black" d="M486.71,-205.42C483.28,-224.17 486.55,-243.07 496.51,-243.07 504.75,-243.07 508.41,-230.11 507.48,-215"/>
<polygon fill="black" stroke="black" points="510.47,-214.99 506.49,-206.92 504.57,-215.72 510.47,-214.99"/>
<text text-anchor="middle" x="496.51" y="-247.02" font-family="Times,serif" font-size="14.00"> b </text>
</g>
<!-- q0&#45;&gt;a1 -->
<g id="edge3" class="edge">
<title>q0&#45;&gt;a1</title>
<path fill="none" stroke="black" d="M87.58,-90.59C101.32,-95.14 119.18,-101.05 134.3,-106.06"/>
<polygon fill="black" stroke="black" points="133.33,-108.87 142.33,-108.72 135.2,-103.22 133.33,-108.87"/>
<text text-anchor="middle" x="115.3" y="-107.22" font-family="Times,serif" font-size="14.00"> a </text>
</g>
<!-- q0&#45;&gt;b1 -->
<g id="edge4" class="edge">
<title>q0&#45;&gt;b1</title>
<path fill="none" stroke="black" d="M87.49,-76.1C93.58,-74.12 100.2,-71.98 106.3,-70.02 115.22,-67.15 124.91,-64.06 133.8,-61.22"/>
<polygon fill="black" stroke="black" points="134.43,-64.15 141.62,-58.73 132.62,-58.48 134.43,-64.15"/>
<text text-anchor="middle" x="115.3" y="-74.22" font-family="Times,serif" font-size="14.00"> b </text>
</g>
<!-- q0&#45;&gt;q0 -->
<g id="edge2" class="edge">
<title>q0&#45;&gt;q0</title>
<path fill="none" stroke="black" d="M60.51,-106.93C60.24,-116.77 61.56,-125.12 64.45,-125.12 66.3,-125.12 67.51,-121.69 68.06,-116.64"/>
<polygon fill="black" stroke="black" points="71.03,-117.04 68.34,-108.44 65.08,-116.84 71.03,-117.04"/>
<text text-anchor="middle" x="64.45" y="-129.07" font-family="Times,serif" font-size="14.00"> a </text>
</g>
<!-- q0&#45;&gt;q0 -->
<g id="edge5" class="edge">
<title>q0&#45;&gt;q0</title>
<path fill="none" stroke="black" d="M57.54,-106.61C54.95,-124.69 57.25,-143.12 64.45,-143.12 70.35,-143.12 72.97,-130.71 72.29,-116.28"/>
<polygon fill="black" stroke="black" points="75.28,-116.3 71.51,-108.12 69.35,-116.86 75.28,-116.3"/>
<text text-anchor="middle" x="64.45" y="-147.07" font-family="Times,serif" font-size="14.00"> b </text>
</g>
<!-- ta2 -->
<g id="node7" class="node">
<title>ta2</title>
<ellipse fill="none" stroke="black" cx="382.18" cy="-129.27" rx="27.53" ry="27.53"/>
<text text-anchor="middle" x="382.18" y="-124.59" font-family="Times,serif" font-size="14.00">ta2</text>
</g>
<!-- ta1&#45;&gt;ta2 -->
<g id="edge10" class="edge">
<title>ta1&#45;&gt;ta2</title>
<path fill="none" stroke="black" d="M299.71,-126.65C305.75,-127.3 312.15,-127.89 318.12,-128.27 326.6,-128.8 335.74,-129.11 344.35,-129.27"/>
<polygon fill="black" stroke="black" points="344.1,-132.24 352.64,-129.38 344.18,-126.29 344.1,-132.24"/>
<text text-anchor="middle" x="327.12" y="-132.22" font-family="Times,serif" font-size="14.00"> a </text>
</g>
<!-- ta1&#45;&gt;ta2 -->
<g id="edge11" class="edge">
<title>ta1&#45;&gt;ta2</title>
<path fill="none" stroke="black" d="M297.25,-111.44C308.96,-107.15 323.24,-104.01 336.12,-107.02 340.44,-108.03 344.83,-109.51 349.08,-111.25"/>
<polygon fill="black" stroke="black" points="347.75,-113.91 356.71,-114.73 350.21,-108.5 347.75,-113.91"/>
<text text-anchor="middle" x="327.12" y="-111.22" font-family="Times,serif" font-size="14.00"> b </text>
</g>
<!-- ta2&#45;&gt;ok -->
<g id="edge14" class="edge">
<title>ta2&#45;&gt;ok</title>
<path fill="none" stroke="black" d="M407.83,-140.46C424,-147.8 445.32,-157.48 462.89,-165.46"/>
<polygon fill="black" stroke="black" points="461.34,-168.02 470.31,-168.83 463.8,-162.6 461.34,-168.02"/>
<text text-anchor="middle" x="437.24" y="-161.22" font-family="Times,serif" font-size="14.00"> a </text>
</g>
<!-- trap -->
<g id="node10" class="node">
<title>trap</title>
<ellipse fill="none" stroke="black" cx="496.51" cy="-32.27" rx="32.27" ry="32.27"/>
<text text-anchor="middle" x="496.51" y="-27.59" font-family="Times,serif" font-size="14.00">trap</text>
</g>
<!-- ta2&#45;&gt;trap -->
<g id="edge15" class="edge">
<title>ta2&#45;&gt;trap</title>
<path fill="none" stroke="black" d="M409.6,-123.65C421.67,-120.13 435.61,-114.63 446.24,-106.27 458.68,-96.48 469.05,-82.66 477.03,-69.61"/>
<polygon fill="black" stroke="black" points="479.46,-71.35 481.16,-62.51 474.31,-68.36 479.46,-71.35"/>
<text text-anchor="middle" x="437.24" y="-120.22" font-family="Times,serif" font-size="14.00"> b </text>
</g>
<!-- tb2 -->
<g id="node9" class="node">
<title>tb2</title>
<ellipse fill="none" stroke="black" cx="382.18" cy="-49.27" rx="28.06" ry="28.06"/>
<text text-anchor="middle" x="382.18" y="-44.59" font-family="Times,serif" font-size="14.00">tb2</text>
</g>
<!-- tb1&#45;&gt;tb2 -->
<g id="edge12" class="edge">
<title>tb1&#45;&gt;tb2</title>
<path fill="none" stroke="black" d="M298.46,-42.15C304.79,-44.21 311.63,-46.11 318.12,-47.27 326.41,-48.75 335.41,-49.52 343.95,-49.87"/>
<polygon fill="black" stroke="black" points="343.6,-52.84 352.17,-50.08 343.75,-46.89 343.6,-52.84"/>
<text text-anchor="middle" x="327.12" y="-54.22" font-family="Times,serif" font-size="14.00"> a </text>
</g>
<!-- tb1&#45;&gt;tb2 -->
<g id="edge13" class="edge">
<title>tb1&#45;&gt;tb2</title>
<path fill="none" stroke="black" d="M299.72,-25.7C311.06,-23.92 324.36,-23.16 336.12,-26.02 340.47,-27.07 344.87,-28.63 349.13,-30.44"/>
<polygon fill="black" stroke="black" points="347.84,-33.12 356.79,-34.08 350.39,-27.75 347.84,-33.12"/>
<text text-anchor="middle" x="327.12" y="-30.22" font-family="Times,serif" font-size="14.00"> b </text>
</g>
<!-- tb2&#45;&gt;ok -->
<g id="edge17" class="edge">
<title>tb2&#45;&gt;ok</title>
<path fill="none" stroke="black" d="M409.04,-58.55C421.87,-64.35 436.64,-73.03 446.24,-85.02 463.44,-106.5 450.92,-120.18 464.24,-144.27 466.08,-147.6 468.26,-150.89 470.61,-154.05"/>
<polygon fill="black" stroke="black" points="468.09,-155.66 475.74,-160.41 472.72,-151.93 468.09,-155.66"/>
<text text-anchor="middle" x="437.24" y="-89.22" font-family="Times,serif" font-size="14.00"> b </text>
</g>
<!-- tb2&#45;&gt;trap -->
<g id="edge16" class="edge">
<title>tb2&#45;&gt;trap</title>
<path fill="none" stroke="black" d="M410.37,-45.15C423.56,-43.16 439.68,-40.72 454.34,-38.5"/>
<polygon fill="black" stroke="black" points="454.74,-41.45 462.7,-37.23 453.85,-35.56 454.74,-41.45"/>
<text text-anchor="middle" x="437.24" y="-47.22" font-family="Times,serif" font-size="14.00"> a </text>
</g>
<!-- trap&#45;&gt;trap -->
<g id="edge20" class="edge">
<title>trap&#45;&gt;trap</title>
<path fill="none" stroke="black" d="M490.95,-64.17C491.01,-74.42 492.86,-82.54 496.51,-82.54 498.84,-82.54 500.44,-79.2 501.3,-74.12"/>
<polygon fill="black" stroke="black" points="504.27,-74.39 501.95,-65.68 498.33,-73.93 504.27,-74.39"/>
<text text-anchor="middle" x="496.51" y="-86.49" font-family="Times,serif" font-size="14.00"> a </text>
</g>
<!-- trap&#45;&gt;trap -->
<g id="edge21" class="edge">
<title>trap&#45;&gt;trap</title>
<path fill="none" stroke="black" d="M486.18,-63.16C483.69,-82.31 487.13,-100.54 496.51,-100.54 504.27,-100.54 507.97,-88.04 507.59,-72.86"/>
<polygon fill="black" stroke="black" points="510.58,-72.91 506.95,-64.67 504.65,-73.37 510.58,-72.91"/>
<text text-anchor="middle" x="496.51" y="-104.49" font-family="Times,serif" font-size="14.00"> b </text>
</g>
</g>
</svg>
