<?xml version="1.0" encoding="UTF-8" standalone="no"?>
<svg
   xmlns:dc="http://purl.org/dc/elements/1.1/"
   xmlns:cc="http://creativecommons.org/ns#"
   xmlns:rdf="http://www.w3.org/1999/02/22-rdf-syntax-ns#"
   xmlns:svg="http://www.w3.org/2000/svg"
   xmlns="http://www.w3.org/2000/svg"
   viewBox="0 0 272.24799 251.99467"
   height="251.99467"
   width="272.24799"
   xml:space="preserve"
   id="svg2"
   version="1.1"><metadata
     id="metadata8"><rdf:RDF><cc:Work
         rdf:about=""><dc:format>image/svg+xml</dc:format><dc:type
           rdf:resource="http://purl.org/dc/dcmitype/StillImage" /></cc:Work></rdf:RDF></metadata><defs
     id="defs6" /><g
     transform="matrix(1.3333333,0,0,-1.3333333,0,251.99467)"
     id="g10"><g
       transform="translate(45.4,94.498)"
       id="g12"><g
         id="g14"><g
           id="g16"><g
             id="g18"><g
               id="g20"><path
                 id="path22"
                 style="fill:none;stroke:#000000;stroke-width:0.59776002;stroke-linecap:butt;stroke-linejoin:miter;stroke-miterlimit:10;stroke-dasharray:none;stroke-opacity:1"
                 d="M 17.55916,0 C 17.55916,9.69777 9.69777,17.55916 0,17.55916 -9.69777,17.55916 -17.55916,9.69777 -17.55916,0 c 0,-9.69777 7.86139,-17.55916 17.55916,-17.55916 9.69777,0 17.55916,7.86139 17.55916,17.55916 z" /></g><g
               transform="translate(-9.861,-2.153)"
               id="g24"><g
                 id="g26"><g
                   transform="translate(-35.539,-92.345)"
                   id="g28"><text
                     id="text32"
                     style="font-variant:normal;font-weight:normal;font-size:7.97009993px;font-family:CMMI8;-inkscape-font-specification:CMMI8;writing-mode:lr-tb;fill:#000000;fill-opacity:1;fill-rule:nonzero;stroke:none"
                     transform="matrix(1,0,0,-1,35.539,92.345)"><tspan
                       id="tspan30"
                       y="0"
                       x="0">n</tspan></text>
<text
                     id="text36"
                     style="font-variant:normal;font-weight:normal;font-size:7.97009993px;font-family:CMSY8;-inkscape-font-specification:CMSY8;writing-mode:lr-tb;fill:#000000;fill-opacity:1;fill-rule:nonzero;stroke:none"
                     transform="matrix(1,0,0,-1,42.559,92.345)"><tspan
                       id="tspan34"
                       y="0"
                       x="0">−</tspan></text>
<text
                     id="text40"
                     style="font-variant:normal;font-weight:normal;font-size:7.97009993px;font-family:CMR8;-inkscape-font-specification:CMR8;writing-mode:lr-tb;fill:#000000;fill-opacity:1;fill-rule:nonzero;stroke:none"
                     transform="matrix(1,0,0,-1,51.027,92.345)"><tspan
                       id="tspan38"
                       y="0"
                       x="0">1</tspan></text>
<g
                     transform="translate(35.539,92.345)"
                     id="g42" /></g></g><g
                 transform="translate(9.861,2.153)"
                 id="g44" /></g></g><g
             id="g46"><g
               id="g48"><g
                 id="g50"><path
                   id="path52"
                   style="fill:none;stroke:#000000;stroke-width:1.79330003;stroke-linecap:butt;stroke-linejoin:miter;stroke-miterlimit:10;stroke-dasharray:none;stroke-opacity:1"
                   d="m 45.90598,49.09825 c 0,9.69779 -7.86139,17.55916 -17.55918,17.55916 -9.69778,0 -17.55917,-7.86137 -17.55917,-17.55916 0,-9.69778 7.86139,-17.55917 17.55917,-17.55917 9.69779,0 17.55918,7.86139 17.55918,17.55917 z" /><g
                   id="g54"><path
                     id="path56"
                     style="fill:none;stroke:#ffffff;stroke-width:0.59776002;stroke-linecap:butt;stroke-linejoin:miter;stroke-miterlimit:10;stroke-dasharray:none;stroke-opacity:1"
                     d="m 45.90598,49.09825 c 0,9.69779 -7.86139,17.55916 -17.55918,17.55916 -9.69778,0 -17.55917,-7.86137 -17.55917,-17.55916 0,-9.69778 7.86139,-17.55917 17.55917,-17.55917 9.69779,0 17.55918,7.86139 17.55918,17.55917 z" /></g></g></g><g
               transform="translate(26.23,46.529)"
               id="g58"><g
                 id="g60"><g
                   transform="translate(-71.63,-141.027)"
                   id="g62"><text
                     id="text66"
                     style="font-variant:normal;font-weight:normal;font-size:7.97009993px;font-family:CMR8;-inkscape-font-specification:CMR8;writing-mode:lr-tb;fill:#000000;fill-opacity:1;fill-rule:nonzero;stroke:none"
                     transform="matrix(1,0,0,-1,71.63,141.027)"><tspan
                       id="tspan64"
                       y="0"
                       x="0">0</tspan></text>
<g
                     transform="translate(71.63,141.027)"
                     id="g68" /></g></g><g
                 transform="translate(-26.23,-46.529)"
                 id="g70" /></g></g><g
             id="g72"><g
               id="g74"><path
                 id="path76"
                 style="fill:none;stroke:#000000;stroke-width:0.59776002;stroke-linecap:butt;stroke-linejoin:miter;stroke-miterlimit:10;stroke-dasharray:none;stroke-opacity:1"
                 d="M -8.34087,49.09825 H 7.97815" /><g
                 transform="translate(7.97815,49.09825)"
                 id="g78"><g
                   id="g80"><path
                     id="path82"
                     style="fill:#000000;fill-opacity:1;fill-rule:nonzero;stroke:#000000;stroke-width:0.59776002;stroke-linecap:butt;stroke-linejoin:round;stroke-miterlimit:10;stroke-dasharray:none;stroke-opacity:1"
                     d="m 0.91655,0 c -1.14568,0.22913 -2.29138,0.68741 -3.66621,1.4894 1.37483,-1.03113 1.37483,-1.94767 0,-2.9788 1.37483,0.80199 2.52053,1.26027 3.66621,1.4894 z" /></g></g><g
                 id="g84"><g
                   transform="translate(-9.137,49.098)"
                   id="g86"><g
                     id="g88" /><g
                     transform="translate(9.137,-49.098)"
                     id="g90" /></g></g></g></g><g
             id="g92"><g
               id="g94"><path
                 id="path96"
                 style="fill:none;stroke:#000000;stroke-width:0.59776002;stroke-linecap:butt;stroke-linejoin:miter;stroke-miterlimit:10;stroke-dasharray:none;stroke-opacity:1"
                 d="m 102.59961,49.09825 c 0,9.69779 -7.86139,17.55916 -17.55917,17.55916 -9.69779,0 -17.55916,-7.86137 -17.55916,-17.55916 0,-9.69778 7.86137,-17.55917 17.55916,-17.55917 9.69778,0 17.55917,7.86139 17.55917,17.55917 z" /></g><g
               transform="translate(82.923,46.529)"
               id="g98"><g
                 id="g100"><g
                   transform="translate(-128.323,-141.027)"
                   id="g102"><text
                     id="text106"
                     style="font-variant:normal;font-weight:normal;font-size:7.97009993px;font-family:CMR8;-inkscape-font-specification:CMR8;writing-mode:lr-tb;fill:#000000;fill-opacity:1;fill-rule:nonzero;stroke:none"
                     transform="matrix(1,0,0,-1,128.323,141.027)"><tspan
                       id="tspan104"
                       y="0"
                       x="0">1</tspan></text>
<g
                     transform="translate(128.323,141.027)"
                     id="g108" /></g></g><g
                 transform="translate(-82.923,-46.529)"
                 id="g110" /></g></g><g
             id="g112"><g
               id="g114"><path
                 id="path116"
                 style="fill:none;stroke:#000000;stroke-width:0.59776002;stroke-linecap:butt;stroke-linejoin:miter;stroke-miterlimit:10;stroke-dasharray:none;stroke-opacity:1"
                 d="m 130.94641,0 c 0,9.69777 -7.86137,17.55916 -17.55916,17.55916 -9.69778,0 -17.55917,-7.86139 -17.55917,-17.55916 0,-9.69777 7.86139,-17.55916 17.55917,-17.55916 9.69779,0 17.55916,7.86139 17.55916,17.55916 z" /></g><g
               transform="translate(111.269,-2.568)"
               id="g118"><g
                 id="g120"><g
                   transform="translate(-156.669,-91.93)"
                   id="g122"><text
                     id="text126"
                     style="font-variant:normal;font-weight:normal;font-size:7.97009993px;font-family:CMR8;-inkscape-font-specification:CMR8;writing-mode:lr-tb;fill:#000000;fill-opacity:1;fill-rule:nonzero;stroke:none"
                     transform="matrix(1,0,0,-1,156.669,91.93)"><tspan
                       id="tspan124"
                       y="0"
                       x="0">2</tspan></text>
<g
                     transform="translate(156.669,91.93)"
                     id="g128" /></g></g><g
                 transform="translate(-111.269,2.568)"
                 id="g130" /></g></g><g
             id="g132"><g
               id="g134"><path
                 id="path136"
                 style="fill:none;stroke:#000000;stroke-width:0.59776002;stroke-linecap:butt;stroke-linejoin:miter;stroke-miterlimit:10;stroke-dasharray:none;stroke-opacity:1"
                 d="m 45.90598,-49.09825 c 0,9.69778 -7.86139,17.55917 -17.55918,17.55917 -9.69778,0 -17.55917,-7.86139 -17.55917,-17.55917 0,-9.69779 7.86139,-17.55916 17.55917,-17.55916 9.69779,0 17.55918,7.86137 17.55918,17.55916 z" /></g><g
               transform="translate(18.485,-51.251)"
               id="g138"><g
                 id="g140"><g
                   transform="translate(-63.885,-43.247)"
                   id="g142"><text
                     id="text146"
                     style="font-variant:normal;font-weight:normal;font-size:7.97009993px;font-family:CMMI8;-inkscape-font-specification:CMMI8;writing-mode:lr-tb;fill:#000000;fill-opacity:1;fill-rule:nonzero;stroke:none"
                     transform="matrix(1,0,0,-1,63.885,43.247)"><tspan
                       id="tspan144"
                       y="0"
                       x="0">n</tspan></text>
<text
                     id="text150"
                     style="font-variant:normal;font-weight:normal;font-size:7.97009993px;font-family:CMSY8;-inkscape-font-specification:CMSY8;writing-mode:lr-tb;fill:#000000;fill-opacity:1;fill-rule:nonzero;stroke:none"
                     transform="matrix(1,0,0,-1,70.906,43.247)"><tspan
                       id="tspan148"
                       y="0"
                       x="0">−</tspan></text>
<text
                     id="text154"
                     style="font-variant:normal;font-weight:normal;font-size:7.97009993px;font-family:CMR8;-inkscape-font-specification:CMR8;writing-mode:lr-tb;fill:#000000;fill-opacity:1;fill-rule:nonzero;stroke:none"
                     transform="matrix(1,0,0,-1,79.374,43.247)"><tspan
                       id="tspan152"
                       y="0"
                       x="0">2</tspan></text>
<g
                     transform="translate(63.885,43.247)"
                     id="g156" /></g></g><g
                 transform="translate(-18.485,51.251)"
                 id="g158" /></g></g><g
             id="g160"><g
               id="g162"><path
                 id="path164"
                 style="fill:none;stroke:#000000;stroke-width:0.59776002;stroke-linecap:butt;stroke-linejoin:miter;stroke-miterlimit:10;stroke-dasharray:none;stroke-opacity:1"
                 d="m 102.59961,-49.09825 c 0,9.69778 -7.86139,17.55917 -17.55917,17.55917 -9.69779,0 -17.55916,-7.86139 -17.55916,-17.55917 0,-9.69779 7.86137,-17.55916 17.55916,-17.55916 9.69778,0 17.55917,7.86137 17.55917,17.55916 z" /></g><g
               transform="translate(82.923,-51.666)"
               id="g166"><g
                 id="g168"><g
                   transform="translate(-128.323,-42.832)"
                   id="g170"><text
                     id="text174"
                     style="font-variant:normal;font-weight:normal;font-size:7.97009993px;font-family:CMR8;-inkscape-font-specification:CMR8;writing-mode:lr-tb;fill:#000000;fill-opacity:1;fill-rule:nonzero;stroke:none"
                     transform="matrix(1,0,0,-1,128.323,42.832)"><tspan
                       id="tspan172"
                       y="0"
                       x="0">3</tspan></text>
<g
                     transform="translate(128.323,42.832)"
                     id="g176" /></g></g><g
                 transform="translate(-82.923,51.666)"
                 id="g178" /></g></g><g
             id="g180"><g
               id="g182"><path
                 id="path184"
                 style="fill:none;stroke:#000000;stroke-width:0.59776002;stroke-linecap:butt;stroke-linejoin:miter;stroke-miterlimit:10;stroke-dasharray:none;stroke-opacity:1"
                 d="m 80.41898,66.34781 c -7.46312,27.85248 16.70604,27.85248 9.81535,2.13632" /><g
                 transform="matrix(-0.25882,-0.96591,0.96591,-0.25882,90.23434,68.48413)"
                 id="g186"><g
                   id="g188"><path
                     id="path190"
                     style="fill:#000000;fill-opacity:1;fill-rule:nonzero;stroke:#000000;stroke-width:0.59776002;stroke-linecap:butt;stroke-linejoin:round;stroke-miterlimit:10;stroke-dasharray:none;stroke-opacity:1"
                     d="m 0.91655,0 c -1.14568,0.22913 -2.29138,0.68741 -3.66621,1.4894 1.37483,-1.03113 1.37483,-1.94767 0,-2.9788 1.37483,0.80199 2.52053,1.26027 3.66621,1.4894 z" /></g></g><g
                 id="g192"><g
                   transform="translate(95.297,79.246)"
                   id="g194"><g
                     id="g196"><g
                       transform="translate(-140.697,-173.744)"
                       id="g198"><text
                         id="text202"
                         style="font-variant:normal;font-weight:normal;font-size:7.97009993px;font-family:CMMI8;-inkscape-font-specification:CMMI8;writing-mode:lr-tb;fill:#000000;fill-opacity:1;fill-rule:nonzero;stroke:none"
                         transform="matrix(1,0,0,-1,140.697,173.744)"><tspan
                           id="tspan200"
                           y="0"
                           x="0">b</tspan></text>
<g
                         transform="translate(140.697,173.744)"
                         id="g204" /></g></g><g
                     transform="translate(-95.297,-79.246)"
                     id="g206" /></g></g></g><g
               id="g208"><path
                 id="path210"
                 style="fill:none;stroke:#000000;stroke-width:0.59776002;stroke-linecap:butt;stroke-linejoin:miter;stroke-miterlimit:10;stroke-dasharray:none;stroke-opacity:1"
                 d="m 130.63681,4.62146 c 27.85248,7.46312 27.85248,-16.70604 2.13632,-9.81534" /><g
                 transform="matrix(-0.96591,0.25882,-0.25882,-0.96591,132.77313,-5.1939)"
                 id="g212"><g
                   id="g214"><path
                     id="path216"
                     style="fill:#000000;fill-opacity:1;fill-rule:nonzero;stroke:#000000;stroke-width:0.59776002;stroke-linecap:butt;stroke-linejoin:round;stroke-miterlimit:10;stroke-dasharray:none;stroke-opacity:1"
                     d="m 0.91655,0 c -1.14568,0.22913 -2.29138,0.68741 -3.66621,1.4894 1.37483,-1.03113 1.37483,-1.94767 0,-2.9788 1.37483,0.80199 2.52053,1.26027 3.66621,1.4894 z" /></g></g><g
                 id="g218"><g
                   transform="translate(144.491,-15.792)"
                   id="g220"><g
                     id="g222"><g
                       transform="translate(-189.891,-78.706)"
                       id="g224"><text
                         id="text228"
                         style="font-variant:normal;font-weight:normal;font-size:7.97009993px;font-family:CMMI8;-inkscape-font-specification:CMMI8;writing-mode:lr-tb;fill:#000000;fill-opacity:1;fill-rule:nonzero;stroke:none"
                         transform="matrix(1,0,0,-1,189.891,78.706)"><tspan
                           id="tspan226"
                           y="0"
                           x="0">b</tspan></text>
<g
                         transform="translate(189.891,78.706)"
                         id="g230" /></g></g><g
                     transform="translate(-144.491,15.792)"
                     id="g232" /></g></g></g><g
               id="g234"><path
                 id="path236"
                 style="fill:none;stroke:#000000;stroke-width:0.59776002;stroke-linecap:butt;stroke-linejoin:miter;stroke-miterlimit:10;stroke-dasharray:none;stroke-opacity:1"
                 d="m 89.6619,-66.34781 c 7.46312,-27.85248 -16.70604,-27.85248 -9.81536,-2.13632" /><g
                 transform="matrix(0.25882,0.96591,-0.96591,0.25882,79.84653,-68.48413)"
                 id="g238"><g
                   id="g240"><path
                     id="path242"
                     style="fill:#000000;fill-opacity:1;fill-rule:nonzero;stroke:#000000;stroke-width:0.59776002;stroke-linecap:butt;stroke-linejoin:round;stroke-miterlimit:10;stroke-dasharray:none;stroke-opacity:1"
                     d="m 0.91655,0 c -1.14568,0.22913 -2.29138,0.68741 -3.66621,1.4894 1.37483,-1.03113 1.37483,-1.94767 0,-2.9788 1.37483,0.80199 2.52053,1.26027 3.66621,1.4894 z" /></g></g><g
                 id="g244"><g
                   transform="translate(71.16,-84.781)"
                   id="g246"><g
                     id="g248"><g
                       transform="translate(-116.56,-9.717)"
                       id="g250"><text
                         id="text254"
                         style="font-variant:normal;font-weight:normal;font-size:7.97009993px;font-family:CMMI8;-inkscape-font-specification:CMMI8;writing-mode:lr-tb;fill:#000000;fill-opacity:1;fill-rule:nonzero;stroke:none"
                         transform="matrix(1,0,0,-1,116.56,9.717)"><tspan
                           id="tspan252"
                           y="0"
                           x="0">b</tspan></text>
<g
                         transform="translate(116.56,9.717)"
                         id="g256" /></g></g><g
                     transform="translate(-71.16,84.781)"
                     id="g258" /></g></g></g><g
               id="g260"><path
                 id="path262"
                 style="fill:none;stroke:#000000;stroke-width:0.59776002;stroke-linecap:butt;stroke-linejoin:miter;stroke-miterlimit:10;stroke-dasharray:none;stroke-opacity:1"
                 d="m 32.96826,-66.34781 c 7.46312,-27.85248 -16.70604,-27.85248 -9.81535,-2.13632" /><g
                 transform="matrix(0.25882,0.96591,-0.96591,0.25882,23.1529,-68.48413)"
                 id="g264"><g
                   id="g266"><path
                     id="path268"
                     style="fill:#000000;fill-opacity:1;fill-rule:nonzero;stroke:#000000;stroke-width:0.59776002;stroke-linecap:butt;stroke-linejoin:round;stroke-miterlimit:10;stroke-dasharray:none;stroke-opacity:1"
                     d="m 0.91655,0 c -1.14568,0.22913 -2.29138,0.68741 -3.66621,1.4894 1.37483,-1.03113 1.37483,-1.94767 0,-2.9788 1.37483,0.80199 2.52053,1.26027 3.66621,1.4894 z" /></g></g><g
                 id="g270"><g
                   transform="translate(14.467,-84.781)"
                   id="g272"><g
                     id="g274"><g
                       transform="translate(-59.867,-9.717)"
                       id="g276"><text
                         id="text280"
                         style="font-variant:normal;font-weight:normal;font-size:7.97009993px;font-family:CMMI8;-inkscape-font-specification:CMMI8;writing-mode:lr-tb;fill:#000000;fill-opacity:1;fill-rule:nonzero;stroke:none"
                         transform="matrix(1,0,0,-1,59.867,9.717)"><tspan
                           id="tspan278"
                           y="0"
                           x="0">b</tspan></text>
<g
                         transform="translate(59.867,9.717)"
                         id="g282" /></g></g><g
                     transform="translate(-14.467,84.781)"
                     id="g284" /></g></g></g><g
               id="g286"><path
                 id="path288"
                 style="fill:none;stroke:#000000;stroke-width:0.59776002;stroke-linecap:butt;stroke-linejoin:miter;stroke-miterlimit:10;stroke-dasharray:none;stroke-opacity:1"
                 d="m -17.24956,-4.62146 c -27.85246,-7.46312 -27.85246,16.70604 -2.13632,9.81534" /><g
                 transform="matrix(0.96591,-0.25882,0.25882,0.96591,-19.38588,5.1939)"
                 id="g290"><g
                   id="g292"><path
                     id="path294"
                     style="fill:#000000;fill-opacity:1;fill-rule:nonzero;stroke:#000000;stroke-width:0.59776002;stroke-linecap:butt;stroke-linejoin:round;stroke-miterlimit:10;stroke-dasharray:none;stroke-opacity:1"
                     d="m 0.91655,0 c -1.14568,0.22913 -2.29138,0.68741 -3.66621,1.4894 1.37483,-1.03113 1.37483,-1.94767 0,-2.9788 1.37483,0.80199 2.52053,1.26027 3.66621,1.4894 z" /></g></g><g
                 id="g296"><g
                   transform="translate(-34.727,10.257)"
                   id="g298"><g
                     id="g300"><g
                       transform="translate(-10.673,-104.755)"
                       id="g302"><text
                         id="text306"
                         style="font-variant:normal;font-weight:normal;font-size:7.97009993px;font-family:CMMI8;-inkscape-font-specification:CMMI8;writing-mode:lr-tb;fill:#000000;fill-opacity:1;fill-rule:nonzero;stroke:none"
                         transform="matrix(1,0,0,-1,10.673,104.755)"><tspan
                           id="tspan304"
                           y="0"
                           x="0">b</tspan></text>
<g
                         transform="translate(10.673,104.755)"
                         id="g308" /></g></g><g
                     transform="translate(34.727,-10.257)"
                     id="g310" /></g></g></g><g
               id="g312"><path
                 id="path314"
                 style="fill:none;stroke:#000000;stroke-width:0.59776002;stroke-linecap:butt;stroke-linejoin:miter;stroke-miterlimit:10;stroke-dasharray:none;stroke-opacity:1"
                 d="m 44.07094,58.17642 c 8.67572,4.94138 16.88698,4.89325 23.59538,0.96752" /><g
                 transform="matrix(0.86305,-0.50502,0.50502,0.86305,67.6663,59.14395)"
                 id="g316"><g
                   id="g318"><path
                     id="path320"
                     style="fill:#000000;fill-opacity:1;fill-rule:nonzero;stroke:#000000;stroke-width:0.59776002;stroke-linecap:butt;stroke-linejoin:round;stroke-miterlimit:10;stroke-dasharray:none;stroke-opacity:1"
                     d="m 0.91655,0 c -1.14568,0.22913 -2.29138,0.68741 -3.66621,1.4894 1.37483,-1.03113 1.37483,-1.94767 0,-2.9788 1.37483,0.80199 2.52053,1.26027 3.66621,1.4894 z" /></g></g><g
                 id="g322"><g
                   transform="translate(54.596,66.826)"
                   id="g324"><g
                     id="g326"><g
                       transform="translate(-99.996,-161.324)"
                       id="g328"><text
                         id="text332"
                         style="font-variant:normal;font-weight:normal;font-size:7.97009993px;font-family:CMMI8;-inkscape-font-specification:CMMI8;writing-mode:lr-tb;fill:#000000;fill-opacity:1;fill-rule:nonzero;stroke:none"
                         transform="matrix(1,0,0,-1,99.996,161.324)"><tspan
                           id="tspan330"
                           y="0"
                           x="0">a</tspan></text>
<g
                         transform="translate(99.996,161.324)"
                         id="g334" /></g></g><g
                     transform="translate(-54.596,-66.826)"
                     id="g336" /></g></g></g><g
               id="g338"><path
                 id="path340"
                 style="fill:none;stroke:#000000;stroke-width:0.59776002;stroke-linecap:butt;stroke-linejoin:miter;stroke-miterlimit:10;stroke-dasharray:none;stroke-opacity:1"
                 d="m 100.50572,40.16951 c 8.72284,-5.03622 12.88159,-12.23917 12.88153,-20.09975" /><g
                 transform="rotate(-90,66.728505,-46.658745)"
                 id="g342"><g
                   id="g344"><path
                     id="path346"
                     style="fill:#000000;fill-opacity:1;fill-rule:nonzero;stroke:#000000;stroke-width:0.59776002;stroke-linecap:butt;stroke-linejoin:round;stroke-miterlimit:10;stroke-dasharray:none;stroke-opacity:1"
                     d="m 0.91655,0 c -1.14568,0.22913 -2.29138,0.68741 -3.66621,1.4894 1.37483,-1.03113 1.37483,-1.94767 0,-2.9788 1.37483,0.80199 2.52053,1.26027 3.66621,1.4894 z" /></g></g><g
                 id="g348"><g
                   transform="translate(115.197,29.186)"
                   id="g350"><g
                     id="g352"><g
                       transform="translate(-160.597,-123.684)"
                       id="g354"><text
                         id="text358"
                         style="font-variant:normal;font-weight:normal;font-size:7.97009993px;font-family:CMMI8;-inkscape-font-specification:CMMI8;writing-mode:lr-tb;fill:#000000;fill-opacity:1;fill-rule:nonzero;stroke:none"
                         transform="matrix(1,0,0,-1,160.597,123.684)"><tspan
                           id="tspan356"
                           y="0"
                           x="0">a</tspan></text>
<g
                         transform="translate(160.597,123.684)"
                         id="g360" /></g></g><g
                     transform="translate(-115.197,-29.186)"
                     id="g362" /></g></g></g><g
               id="g364"><path
                 id="path366"
                 style="fill:none;stroke:#000000;stroke-width:0.59776002;stroke-linecap:butt;stroke-linejoin:miter;stroke-miterlimit:10;stroke-dasharray:none;stroke-opacity:1"
                 d="m 113.38725,-17.85805 c 6e-5,-10.07229 -4.15869,-17.27524 -10.96615,-21.20562" /><g
                 transform="matrix(-0.86601,-0.49998,0.49998,-0.86601,102.4211,-39.06367)"
                 id="g368"><g
                   id="g370"><path
                     id="path372"
                     style="fill:#000000;fill-opacity:1;fill-rule:nonzero;stroke:#000000;stroke-width:0.59776002;stroke-linecap:butt;stroke-linejoin:round;stroke-miterlimit:10;stroke-dasharray:none;stroke-opacity:1"
                     d="m 0.91655,0 c -1.14568,0.22913 -2.29138,0.68741 -3.66621,1.4894 1.37483,-1.03113 1.37483,-1.94767 0,-2.9788 1.37483,0.80199 2.52053,1.26027 3.66621,1.4894 z" /></g></g><g
                 id="g374"><g
                   transform="translate(115.197,-32.618)"
                   id="g376"><g
                     id="g378"><g
                       transform="translate(-160.597,-61.88)"
                       id="g380"><text
                         id="text384"
                         style="font-variant:normal;font-weight:normal;font-size:7.97009993px;font-family:CMMI8;-inkscape-font-specification:CMMI8;writing-mode:lr-tb;fill:#000000;fill-opacity:1;fill-rule:nonzero;stroke:none"
                         transform="matrix(1,0,0,-1,160.597,61.88)"><tspan
                           id="tspan382"
                           y="0"
                           x="0">a</tspan></text>
<g
                         transform="translate(160.597,61.88)"
                         id="g386" /></g></g><g
                     transform="translate(-115.197,32.618)"
                     id="g388" /></g></g></g><g
               id="g390"><g
                 id="g392"><path
                   id="path394"
                   style="fill:none;stroke:#000000;stroke-width:0.59776002;stroke-linecap:butt;stroke-linejoin:miter;stroke-miterlimit:10;stroke-dasharray:2.98883, 2.98883;stroke-dashoffset:0;stroke-opacity:1"
                   d="m 69.57515,-58.027 c -8.70078,-5.02338 -17.06229,-5.02338 -23.84769,-1.10584" /><g
                   transform="matrix(-0.86601,0.5,-0.5,-0.86601,45.72746,-59.13286)"
                   id="g396"><g
                     id="g398"><path
                       id="path400"
                       style="fill:#000000;fill-opacity:1;fill-rule:nonzero;stroke:#000000;stroke-width:0.59776002;stroke-linecap:butt;stroke-linejoin:round;stroke-miterlimit:10;stroke-dasharray:none;stroke-opacity:1"
                       d="m 0.91655,0 c -1.14568,0.22913 -2.29138,0.68741 -3.66621,1.4894 1.37483,-1.03113 1.37483,-1.94767 0,-2.9788 1.37483,0.80199 2.52053,1.26027 3.66621,1.4894 z" /></g></g></g></g><g
               id="g402"><path
                 id="path404"
                 style="fill:none;stroke:#000000;stroke-width:0.59776002;stroke-linecap:butt;stroke-linejoin:miter;stroke-miterlimit:10;stroke-dasharray:none;stroke-opacity:1"
                 d="M 12.88152,-40.16951 C 4.15868,-35.13329 -5e-5,-27.93034 0,-20.06976" /><g
                 transform="rotate(90,10.03488,-10.03488)"
                 id="g406"><g
                   id="g408"><path
                     id="path410"
                     style="fill:#000000;fill-opacity:1;fill-rule:nonzero;stroke:#000000;stroke-width:0.59776002;stroke-linecap:butt;stroke-linejoin:round;stroke-miterlimit:10;stroke-dasharray:none;stroke-opacity:1"
                     d="m 0.91655,0 c -1.14568,0.22913 -2.29138,0.68741 -3.66621,1.4894 1.37483,-1.03113 1.37483,-1.94767 0,-2.9788 1.37483,0.80199 2.52053,1.26027 3.66621,1.4894 z" /></g></g><g
                 id="g412"><g
                   transform="translate(-6.309,-32.618)"
                   id="g414"><g
                     id="g416"><g
                       transform="translate(-39.091,-61.88)"
                       id="g418"><text
                         id="text422"
                         style="font-variant:normal;font-weight:normal;font-size:7.97009993px;font-family:CMMI8;-inkscape-font-specification:CMMI8;writing-mode:lr-tb;fill:#000000;fill-opacity:1;fill-rule:nonzero;stroke:none"
                         transform="matrix(1,0,0,-1,39.091,61.88)"><tspan
                           id="tspan420"
                           y="0"
                           x="0">a</tspan></text>
<g
                         transform="translate(39.091,61.88)"
                         id="g424" /></g></g><g
                     transform="translate(6.309,32.618)"
                     id="g426" /></g></g></g><g
               id="g428"><path
                 id="path430"
                 style="fill:none;stroke:#000000;stroke-width:0.59776002;stroke-linecap:butt;stroke-linejoin:miter;stroke-miterlimit:10;stroke-dasharray:none;stroke-opacity:1"
                 d="m 0,17.85805 c -0.05836,9.95953 4.02664,17.13167 10.71385,21.04507" /><g
                 transform="matrix(0.86305,0.50502,-0.50502,0.86305,10.71384,38.9031)"
                 id="g432"><g
                   id="g434"><path
                     id="path436"
                     style="fill:#000000;fill-opacity:1;fill-rule:nonzero;stroke:#000000;stroke-width:0.59776002;stroke-linecap:butt;stroke-linejoin:round;stroke-miterlimit:10;stroke-dasharray:none;stroke-opacity:1"
                     d="m 0.91655,0 c -1.14568,0.22913 -2.29138,0.68741 -3.66621,1.4894 1.37483,-1.03113 1.37483,-1.94767 0,-2.9788 1.37483,0.80199 2.52053,1.26027 3.66621,1.4894 z" /></g></g><g
                 id="g438"><g
                   transform="translate(-6.413,29.071)"
                   id="g440"><g
                     id="g442"><g
                       transform="translate(-38.987,-123.569)"
                       id="g444"><text
                         id="text448"
                         style="font-variant:normal;font-weight:normal;font-size:7.97009993px;font-family:CMMI8;-inkscape-font-specification:CMMI8;writing-mode:lr-tb;fill:#000000;fill-opacity:1;fill-rule:nonzero;stroke:none"
                         transform="matrix(1,0,0,-1,38.987,123.569)"><tspan
                           id="tspan446"
                           y="0"
                           x="0">a</tspan></text>
<g
                         transform="translate(38.987,123.569)"
                         id="g450" /></g></g><g
                     transform="translate(6.413,-29.071)"
                     id="g452" /></g></g></g><g
               id="g454"><path
                 id="path456"
                 style="fill:none;stroke:#000000;stroke-width:0.59776002;stroke-linecap:butt;stroke-linejoin:miter;stroke-miterlimit:10;stroke-dasharray:none;stroke-opacity:1"
                 d="M 69.57515,40.16951 C 60.95792,35.12683 52.74666,35.07869 45.99272,38.92552" /><g
                 transform="matrix(-0.86891,0.49489,-0.49489,-0.86891,45.99274,38.9255)"
                 id="g458"><g
                   id="g460"><path
                     id="path462"
                     style="fill:#000000;fill-opacity:1;fill-rule:nonzero;stroke:#000000;stroke-width:0.59776002;stroke-linecap:butt;stroke-linejoin:round;stroke-miterlimit:10;stroke-dasharray:none;stroke-opacity:1"
                     d="m 0.91655,0 c -1.14568,0.22913 -2.29138,0.68741 -3.66621,1.4894 1.37483,-1.03113 1.37483,-1.94767 0,-2.9788 1.37483,0.80199 2.52053,1.26027 3.66621,1.4894 z" /></g></g><g
                 id="g464"><g
                   transform="translate(55.033,41.331)"
                   id="g466"><g
                     id="g468"><g
                       transform="translate(-100.433,-135.829)"
                       id="g470"><text
                         id="text474"
                         style="font-variant:normal;font-weight:normal;font-size:7.97009993px;font-family:CMMI8;-inkscape-font-specification:CMMI8;writing-mode:lr-tb;fill:#000000;fill-opacity:1;fill-rule:nonzero;stroke:none"
                         transform="matrix(1,0,0,-1,100.433,135.829)"><tspan
                           id="tspan472"
                           y="0"
                           x="0">b</tspan></text>
<g
                         transform="translate(100.433,135.829)"
                         id="g476" /></g></g><g
                     transform="translate(-55.033,-41.331)"
                     id="g478" /></g></g></g><g
               id="g480"><path
                 id="path482"
                 style="fill:none;stroke:#000000;stroke-width:0.59776002;stroke-linecap:butt;stroke-linejoin:miter;stroke-miterlimit:10;stroke-dasharray:none;stroke-opacity:1"
                 d="M 95.80061,3.10068 C 71.18628,7.44072 58.85901,18.58604 42.74963,34.69542" /><g
                 transform="matrix(-0.7071,0.7071,-0.7071,-0.7071,42.74963,34.69542)"
                 id="g484"><g
                   id="g486"><path
                     id="path488"
                     style="fill:#000000;fill-opacity:1;fill-rule:nonzero;stroke:#000000;stroke-width:0.59776002;stroke-linecap:butt;stroke-linejoin:round;stroke-miterlimit:10;stroke-dasharray:none;stroke-opacity:1"
                     d="m 0.91655,0 c -1.14568,0.22913 -2.29138,0.68741 -3.66621,1.4894 1.37483,-1.03113 1.37483,-1.94767 0,-2.9788 1.37483,0.80199 2.52053,1.26027 3.66621,1.4894 z" /></g></g><g
                 id="g490"><g
                   transform="translate(64.078,19.661)"
                   id="g492"><g
                     id="g494"><g
                       transform="translate(-109.478,-114.159)"
                       id="g496"><text
                         id="text500"
                         style="font-variant:normal;font-weight:normal;font-size:7.97009993px;font-family:CMMI8;-inkscape-font-specification:CMMI8;writing-mode:lr-tb;fill:#000000;fill-opacity:1;fill-rule:nonzero;stroke:none"
                         transform="matrix(1,0,0,-1,109.478,114.159)"><tspan
                           id="tspan498"
                           y="0"
                           x="0">b</tspan></text>
<g
                         transform="translate(109.478,114.159)"
                         id="g502" /></g></g><g
                     transform="translate(-64.078,-19.661)"
                     id="g504" /></g></g></g><g
               id="g506"><path
                 id="path508"
                 style="fill:none;stroke:#000000;stroke-width:0.59776002;stroke-linecap:butt;stroke-linejoin:miter;stroke-miterlimit:10;stroke-dasharray:none;stroke-opacity:1"
                 d="M 76.1117,-33.63295 38.5308,31.45874" /><g
                 transform="matrix(-0.49998,0.86601,-0.86601,-0.49998,38.5308,31.45874)"
                 id="g510"><g
                   id="g512"><path
                     id="path514"
                     style="fill:#000000;fill-opacity:1;fill-rule:nonzero;stroke:#000000;stroke-width:0.59776002;stroke-linecap:butt;stroke-linejoin:round;stroke-miterlimit:10;stroke-dasharray:none;stroke-opacity:1"
                     d="m 0.91655,0 c -1.14568,0.22913 -2.29138,0.68741 -3.66621,1.4894 1.37483,-1.03113 1.37483,-1.94767 0,-2.9788 1.37483,0.80199 2.52053,1.26027 3.66621,1.4894 z" /></g></g><g
                 id="g516"><g
                   transform="translate(64.628,-11.9)"
                   id="g518"><g
                     id="g520"><g
                       transform="translate(-110.028,-82.598)"
                       id="g522"><text
                         id="text526"
                         style="font-variant:normal;font-weight:normal;font-size:7.97009993px;font-family:CMMI8;-inkscape-font-specification:CMMI8;writing-mode:lr-tb;fill:#000000;fill-opacity:1;fill-rule:nonzero;stroke:none"
                         transform="matrix(1,0,0,-1,110.028,82.598)"><tspan
                           id="tspan524"
                           y="0"
                           x="0">b</tspan></text>
<g
                         transform="translate(110.028,82.598)"
                         id="g528" /></g></g><g
                     transform="translate(-64.628,11.9)"
                     id="g530" /></g></g></g><g
               id="g532"><path
                 id="path534"
                 style="fill:none;stroke:#000000;stroke-width:0.59776002;stroke-linecap:butt;stroke-linejoin:miter;stroke-miterlimit:10;stroke-dasharray:none;stroke-opacity:1"
                 d="m 34.45389,-32.3171 c 8.55325,23.49958 5.06418,39.72184 -0.83592,61.741" /><g
                 transform="matrix(-0.25879,0.96593,-0.96593,-0.25879,33.61798,29.4239)"
                 id="g536"><g
                   id="g538"><path
                     id="path540"
                     style="fill:#000000;fill-opacity:1;fill-rule:nonzero;stroke:#000000;stroke-width:0.59776002;stroke-linecap:butt;stroke-linejoin:round;stroke-miterlimit:10;stroke-dasharray:none;stroke-opacity:1"
                     d="m 0.91655,0 c -1.14568,0.22913 -2.29138,0.68741 -3.66621,1.4894 1.37483,-1.03113 1.37483,-1.94767 0,-2.9788 1.37483,0.80199 2.52053,1.26027 3.66621,1.4894 z" /></g></g><g
                 id="g542"><g
                   transform="translate(30.781,-3.392)"
                   id="g544"><g
                     id="g546"><g
                       transform="translate(-76.181,-91.106)"
                       id="g548"><text
                         id="text552"
                         style="font-variant:normal;font-weight:normal;font-size:7.97009993px;font-family:CMMI8;-inkscape-font-specification:CMMI8;writing-mode:lr-tb;fill:#000000;fill-opacity:1;fill-rule:nonzero;stroke:none"
                         transform="matrix(1,0,0,-1,76.181,91.106)"><tspan
                           id="tspan550"
                           y="0"
                           x="0">b</tspan></text>
<g
                         transform="translate(76.181,91.106)"
                         id="g554" /></g></g><g
                     transform="translate(-30.781,3.392)"
                     id="g556" /></g></g></g><g
               id="g558"><path
                 id="path560"
                 style="fill:none;stroke:#000000;stroke-width:0.59776002;stroke-linecap:butt;stroke-linejoin:miter;stroke-miterlimit:10;stroke-dasharray:none;stroke-opacity:1"
                 d="M 15.46529,8.92874 C 24.13908,13.8691 28.28833,20.9594 28.33391,28.72972" /><g
                 transform="matrix(0.00583,0.99994,-0.99994,0.00583,28.33391,28.72972)"
                 id="g562"><g
                   id="g564"><path
                     id="path566"
                     style="fill:#000000;fill-opacity:1;fill-rule:nonzero;stroke:#000000;stroke-width:0.59776002;stroke-linecap:butt;stroke-linejoin:round;stroke-miterlimit:10;stroke-dasharray:none;stroke-opacity:1"
                     d="m 0.91655,0 c -1.14568,0.22913 -2.29138,0.68741 -3.66621,1.4894 1.37483,-1.03113 1.37483,-1.94767 0,-2.9788 1.37483,0.80199 2.52053,1.26027 3.66621,1.4894 z" /></g></g><g
                 id="g568"><g
                   transform="translate(16.533,15.277)"
                   id="g570"><g
                     id="g572"><g
                       transform="translate(-61.933,-109.775)"
                       id="g574"><text
                         id="text578"
                         style="font-variant:normal;font-weight:normal;font-size:7.97009993px;font-family:CMMI8;-inkscape-font-specification:CMMI8;writing-mode:lr-tb;fill:#000000;fill-opacity:1;fill-rule:nonzero;stroke:none"
                         transform="matrix(1,0,0,-1,61.933,109.775)"><tspan
                           id="tspan576"
                           y="0"
                           x="0">b</tspan></text>
<g
                         transform="translate(61.933,109.775)"
                         id="g580" /></g></g><g
                     transform="translate(-16.533,-15.277)"
                     id="g582" /></g></g></g></g></g></g></g></g></svg>