<?xml version="1.0" encoding="UTF-8" standalone="no"?>
<!DOCTYPE svg PUBLIC "-//W3C//DTD SVG 1.1//EN"
 "http://www.w3.org/Graphics/SVG/1.1/DTD/svg11.dtd">
<!-- Generated by graphviz version 10.0.1 (0)
 -->
<!-- Pages: 1 -->
<svg width="308pt" height="99pt"
 viewBox="0.00 0.00 307.70 98.95" xmlns="http://www.w3.org/2000/svg" xmlns:xlink="http://www.w3.org/1999/xlink">
<g id="graph0" class="graph" transform="scale(1 1) rotate(0) translate(4 94.95)">
<polygon fill="white" stroke="none" points="-4,4 -4,-94.95 303.7,-94.95 303.7,4 -4,4"/>
<!-- Initial -->
<g id="node1" class="node">
<title>Initial</title>
<ellipse fill="black" stroke="black" cx="1.8" cy="-27.85" rx="1.8" ry="1.8"/>
</g>
<!-- q0 -->
<g id="node2" class="node">
<title>q0</title>
<ellipse fill="none" stroke="black" cx="64.45" cy="-27.85" rx="23.85" ry="23.85"/>
<text text-anchor="middle" x="64.45" y="-23.18" font-family="Times,serif" font-size="14.00">q0</text>
</g>
<!-- Initial&#45;&gt;q0 -->
<g id="edge1" class="edge">
<title>Initial&#45;&gt;q0</title>
<path fill="none" stroke="black" d="M3.85,-27.85C7.27,-27.85 18.51,-27.85 30.32,-27.85"/>
<polygon fill="black" stroke="black" points="30.21,-30.83 38.71,-27.85 30.21,-24.88 30.21,-30.83"/>
</g>
<!-- q0&#45;&gt;q0 -->
<g id="edge3" class="edge">
<title>q0&#45;&gt;q0</title>
<path fill="none" stroke="black" d="M56.63,-50.67C55.89,-60.87 58.49,-69.7 64.45,-69.7 68.36,-69.7 70.82,-65.9 71.85,-60.4"/>
<polygon fill="black" stroke="black" points="74.81,-60.8 72.2,-52.18 68.86,-60.54 74.81,-60.8"/>
<text text-anchor="middle" x="64.45" y="-73.65" font-family="Times,serif" font-size="14.00"> b </text>
</g>
<!-- q1 -->
<g id="node3" class="node">
<title>q1</title>
<ellipse fill="none" stroke="black" cx="166.15" cy="-27.85" rx="23.85" ry="23.85"/>
<text text-anchor="middle" x="166.15" y="-23.18" font-family="Times,serif" font-size="14.00">q1</text>
</g>
<!-- q0&#45;&gt;q1 -->
<g id="edge2" class="edge">
<title>q0&#45;&gt;q1</title>
<path fill="none" stroke="black" d="M88.57,-27.85C101.44,-27.85 117.68,-27.85 131.9,-27.85"/>
<polygon fill="black" stroke="black" points="131.79,-30.83 140.29,-27.85 131.79,-24.88 131.79,-30.83"/>
<text text-anchor="middle" x="115.3" y="-31.8" font-family="Times,serif" font-size="14.00"> a </text>
</g>
<!-- q1&#45;&gt;q0 -->
<g id="edge5" class="edge">
<title>q1&#45;&gt;q0</title>
<path fill="none" stroke="black" d="M145.55,-15.24C139.05,-11.72 131.6,-8.39 124.3,-6.6 114.07,-4.1 103.14,-6.54 93.51,-10.54"/>
<polygon fill="black" stroke="black" points="92.49,-7.74 86.11,-14.09 95.06,-13.1 92.49,-7.74"/>
<text text-anchor="middle" x="115.3" y="-10.8" font-family="Times,serif" font-size="14.00"> b </text>
</g>
<!-- q2 -->
<g id="node4" class="node">
<title>q2</title>
<ellipse fill="none" stroke="black" cx="271.85" cy="-27.85" rx="23.85" ry="23.85"/>
<ellipse fill="none" stroke="black" cx="271.85" cy="-27.85" rx="27.85" ry="27.85"/>
<text text-anchor="middle" x="271.85" y="-23.18" font-family="Times,serif" font-size="14.00">q2</text>
</g>
<!-- q1&#45;&gt;q2 -->
<g id="edge4" class="edge">
<title>q1&#45;&gt;q2</title>
<path fill="none" stroke="black" d="M190.42,-27.85C203.23,-27.85 219.43,-27.85 233.92,-27.85"/>
<polygon fill="black" stroke="black" points="233.6,-30.83 242.1,-27.85 233.6,-24.88 233.6,-30.83"/>
<text text-anchor="middle" x="217" y="-31.8" font-family="Times,serif" font-size="14.00"> a </text>
</g>
<!-- q2&#45;&gt;q1 -->
<g id="edge7" class="edge">
<title>q2&#45;&gt;q1</title>
<path fill="none" stroke="black" d="M247.56,-13.31C235.83,-7.71 221.32,-3.34 208,-6.6 203.9,-7.6 199.74,-9.1 195.74,-10.84"/>
<polygon fill="black" stroke="black" points="194.44,-8.16 188.11,-14.57 197.06,-13.51 194.44,-8.16"/>
<text text-anchor="middle" x="217" y="-10.8" font-family="Times,serif" font-size="14.00"> b </text>
</g>
<!-- q2&#45;&gt;q2 -->
<g id="edge6" class="edge">
<title>q2&#45;&gt;q2</title>
<path fill="none" stroke="black" d="M261.63,-54.24C261.05,-64.82 264.46,-73.7 271.85,-73.7 276.82,-73.7 279.99,-69.69 281.35,-63.85"/>
<polygon fill="black" stroke="black" points="284.29,-64.44 281.96,-55.75 278.36,-64 284.29,-64.44"/>
<text text-anchor="middle" x="271.85" y="-77.65" font-family="Times,serif" font-size="14.00"> a </text>
</g>
</g>
</svg>
