<?xml version="1.0" encoding="UTF-8" standalone="no"?>
<!DOCTYPE svg PUBLIC "-//W3C//DTD SVG 1.1//EN" "http://www.w3.org/Graphics/SVG/1.1/DTD/svg11.dtd">
<!-- Generated by graphviz version 2.43.0 (0)
 -->
<!-- Title: %3 Pages: 1 -->
<svg width="384pt" height="163pt" viewBox="0.00 0.00 384.09 162.85" xmlns="http://www.w3.org/2000/svg"
    xmlns:xlink="http://www.w3.org/1999/xlink">
    <g id="graph0" class="graph" transform="scale(1 1) rotate(0) translate(4 158.85)">
        <title>%3</title>
        <polygon fill="none" stroke="transparent" points="-4,4 -4,-158.85 380.09,-158.85 380.09,4 -4,4" />
        <!-- Initial -->
        <g id="node1" class="node">
            <title>Initial</title>
            <ellipse fill="black" stroke="black" cx="1.8" cy="-85.85" rx="1.8" ry="1.8" />
        </g>
        <!-- r0 -->
        <g id="node2" class="node">
            <title>r0</title>
            <ellipse fill="white" stroke="black" cx="61.4" cy="-85.85" rx="20.6" ry="20.6" />
            <text text-anchor="middle" x="61.4" y="-82.15" font-family="Times,serif" font-size="14.00">r0</text>
        </g>
        <!-- Initial&#45;&gt;r0 -->
        <g id="edge1" class="edge">
            <title>Initial&#45;&gt;r0</title>
            <path fill="none" stroke="black" d="M3.8,-85.85C7.31,-85.85 19.52,-85.85 31.7,-85.85" />
            <polygon fill="black" stroke="black" points="31.95,-88.82 40.45,-85.85 31.95,-82.87 31.95,-88.82" />
        </g>
        <!-- r1 -->
        <g id="node3" class="node">
            <title>r1</title>
            <ellipse fill="white" stroke="black" cx="157.99" cy="-106.85" rx="20.6" ry="20.6" />
            <text text-anchor="middle" x="157.99" y="-103.15" font-family="Times,serif" font-size="14.00">r1</text>
        </g>
        <!-- r0&#45;&gt;r1 -->
        <g id="edge2" class="edge">
            <title>r0&#45;&gt;r1</title>
            <path fill="none" stroke="black"
                d="M80.46,-94.85C86.58,-97.53 93.56,-100.19 100.2,-101.85 109.2,-104.09 119.23,-105.36 128.32,-106.07" />
            <polygon fill="black" stroke="black" points="128.36,-109.06 137.03,-106.61 128.73,-103.12 128.36,-109.06" />
            <text text-anchor="middle" x="109.7" y="-108.65" font-family="Times,serif" font-size="14.00"> 4 </text>
        </g>
        <!-- r2 -->
        <g id="node4" class="node">
            <title>r2</title>
            <ellipse fill="white" stroke="black" cx="254.59" cy="-85.85" rx="20.6" ry="20.6" />
            <text text-anchor="middle" x="254.59" y="-82.15" font-family="Times,serif" font-size="14.00">r2</text>
        </g>
        <!-- r0&#45;&gt;r2 -->
        <g id="edge4" class="edge">
            <title>r0&#45;&gt;r2</title>
            <path fill="none" stroke="black"
                d="M80.76,-78.19C95.67,-72.4 117.39,-64.95 137.2,-61.85 155.46,-58.99 160.53,-58.99 178.79,-61.85 195.19,-64.42 212.91,-69.97 226.98,-75.09" />
            <polygon fill="black" stroke="black" points="226.23,-77.98 235.23,-78.19 228.32,-72.41 226.23,-77.98" />
            <text text-anchor="middle" x="157.99" y="-65.65" font-family="Times,serif" font-size="14.00"> 5 </text>
        </g>
        <!-- rf -->
        <g id="node5" class="node">
            <title>rf</title>
            <ellipse fill="white" stroke="black" cx="353.24" cy="-22.85" rx="22.7" ry="22.7" />
            <ellipse fill="none" stroke="black" cx="353.24" cy="-22.85" rx="18.72" ry="18.72" />
            <text text-anchor="middle" x="353.24" y="-19.15" font-family="Times,serif" font-size="14.00">rf</text>
        </g>
        <!-- r0&#45;&gt;rf -->
        <g id="edge3" class="edge">
            <title>r0&#45;&gt;rf</title>
            <path fill="none" stroke="black"
                d="M78.56,-73.55C84.98,-69.22 92.64,-64.72 100.2,-61.85 176.21,-32.95 272.88,-25.45 321.45,-23.51" />
            <polygon fill="black" stroke="black" points="321.83,-26.47 330.22,-23.2 321.62,-20.53 321.83,-26.47" />
            <text text-anchor="middle" x="206.29" y="-40.65" font-family="Times,serif" font-size="14.00"> 4 </text>
        </g>
        <!-- r1&#45;&gt;r0 -->
        <g id="edge6" class="edge">
            <title>r1&#45;&gt;r0</title>
            <path fill="none" stroke="black"
                d="M141.42,-94.15C134.95,-89.66 127.11,-85.15 119.2,-82.85 110.07,-80.2 99.78,-79.96 90.49,-80.7" />
            <polygon fill="black" stroke="black" points="90.07,-77.76 81.96,-81.66 90.74,-83.67 90.07,-77.76" />
            <text text-anchor="middle" x="109.7" y="-86.65" font-family="Times,serif" font-size="14.00"> 5 </text>
        </g>
        <!-- r1&#45;&gt;r2 -->
        <g id="edge5" class="edge">
            <title>r1&#45;&gt;r2</title>
            <path fill="none" stroke="black"
                d="M175.99,-95.68C182.26,-92.16 189.6,-88.7 196.79,-86.85 205.82,-84.52 215.92,-83.78 225.07,-83.76" />
            <polygon fill="black" stroke="black" points="225.27,-86.74 233.84,-83.96 225.4,-80.8 225.27,-86.74" />
            <text text-anchor="middle" x="206.29" y="-90.65" font-family="Times,serif" font-size="14.00"> 4 </text>
        </g>
        <!-- r2&#45;&gt;r0 -->
        <g id="edge7" class="edge">
            <title>r2&#45;&gt;r0</title>
            <path fill="none" stroke="black"
                d="M240.92,-101.58C234.13,-109.17 225.24,-117.89 215.79,-123.85 185.85,-142.74 172.1,-142.8 137.2,-136.85 120.01,-133.92 114.94,-133.15 100.2,-123.85 93.26,-119.47 86.62,-113.61 80.9,-107.79" />
            <polygon fill="black" stroke="black" points="83.06,-105.75 75.07,-101.58 78.72,-109.82 83.06,-105.75" />
            <text text-anchor="middle" x="157.99" y="-143.65" font-family="Times,serif" font-size="14.00"> 4 </text>
        </g>
        <!-- r2&#45;&gt;r1 -->
        <g id="edge8" class="edge">
            <title>r2&#45;&gt;r1</title>
            <path fill="none" stroke="black"
                d="M235.53,-94.85C229.41,-97.53 222.43,-100.19 215.79,-101.85 206.79,-104.09 196.76,-105.36 187.67,-106.07" />
            <polygon fill="black" stroke="black" points="187.26,-103.12 178.96,-106.61 187.63,-109.06 187.26,-103.12" />
            <text text-anchor="middle" x="206.29" y="-108.65" font-family="Times,serif" font-size="14.00"> 5 </text>
        </g>
        <!-- r2&#45;&gt;rf -->
        <g id="edge9" class="edge">
            <title>r2&#45;&gt;rf</title>
            <path fill="none" stroke="black" d="M272.43,-74.87C287.25,-65.21 309.06,-50.99 326.14,-39.86" />
            <polygon fill="black" stroke="black" points="328.12,-42.12 333.62,-34.99 324.87,-37.14 328.12,-42.12" />
            <text text-anchor="middle" x="302.89" y="-64.65" font-family="Times,serif" font-size="14.00"> 5 </text>
        </g>
    </g>
</svg>