<?xml version="1.0" encoding="UTF-8" standalone="no"?>
<!DOCTYPE svg PUBLIC "-//W3C//DTD SVG 1.1//EN" "http://www.w3.org/Graphics/SVG/1.1/DTD/svg11.dtd">
<!-- Generated by graphviz version 2.43.0 (0)
 -->
<!-- Title: %3 Pages: 1 -->
<svg width="402pt" height="102pt" viewBox="0.00 0.00 401.58 102.50" xmlns="http://www.w3.org/2000/svg"
    xmlns:xlink="http://www.w3.org/1999/xlink">
    <g id="graph0" class="graph" transform="scale(1 1) rotate(0) translate(4 98.5)">
        <title>%3</title>
        <polygon fill="none" stroke="transparent" points="-4,4 -4,-98.5 397.58,-98.5 397.58,4 -4,4" />
        <!-- Initial -->
        <g id="node1" class="node">
            <title>Initial</title>
            <ellipse fill="black" stroke="black" cx="1.8" cy="-26.75" rx="1.8" ry="1.8" />
        </g>
        <!-- pp -->
        <g id="node5" class="node">
            <title>pp</title>
            <ellipse fill="white" stroke="black" cx="63.35" cy="-26.75" rx="23" ry="23" />
            <text text-anchor="middle" x="63.35" y="-23.05" font-family="Times,serif" font-size="14.00">pp</text>
        </g>
        <!-- Initial&#45;&gt;pp -->
        <g id="edge1" class="edge">
            <title>Initial&#45;&gt;pp</title>
            <path fill="none" stroke="black" d="M3.83,-26.75C7.36,-26.75 19.4,-26.75 31.65,-26.75" />
            <polygon fill="black" stroke="black" points="31.98,-29.72 40.48,-26.75 31.98,-23.77 31.98,-29.72" />
        </g>
        <!-- dd -->
        <g id="node2" class="node">
            <title>dd</title>
            <ellipse fill="white" stroke="black" cx="263.34" cy="-71.75" rx="23" ry="23" />
            <text text-anchor="middle" x="263.34" y="-68.05" font-family="Times,serif" font-size="14.00">dd</text>
        </g>
        <!-- dp -->
        <g id="node3" class="node">
            <title>dp</title>
            <ellipse fill="white" stroke="black" cx="162.84" cy="-71.75" rx="23" ry="23" />
            <text text-anchor="middle" x="162.84" y="-68.05" font-family="Times,serif" font-size="14.00">dp</text>
        </g>
        <!-- dd&#45;&gt;dp -->
        <g id="edge9" class="edge">
            <title>dd&#45;&gt;dp</title>
            <path fill="none" stroke="black"
                d="M243.16,-60.46C236.83,-57.32 229.6,-54.34 222.59,-52.75 214.36,-50.88 211.83,-50.88 203.59,-52.75 199.32,-53.72 194.97,-55.2 190.79,-56.93" />
            <polygon fill="black" stroke="black" points="189.53,-54.23 183.03,-60.46 192,-59.65 189.53,-54.23" />
            <text text-anchor="middle" x="213.09" y="-56.55" font-family="Times,serif" font-size="14.00"> b </text>
        </g>
        <!-- pd -->
        <g id="node4" class="node">
            <title>pd</title>
            <ellipse fill="white" stroke="black" cx="366.84" cy="-26.75" rx="27" ry="27" />
            <ellipse fill="none" stroke="black" cx="366.84" cy="-26.75" rx="22.96" ry="22.96" />
            <text text-anchor="middle" x="366.84" y="-23.05" font-family="Times,serif" font-size="14.00">pd</text>
        </g>
        <!-- dd&#45;&gt;pd -->
        <g id="edge8" class="edge">
            <title>dd&#45;&gt;pd</title>
            <path fill="none" stroke="black"
                d="M286.17,-69.52C297.28,-67.82 310.8,-64.86 322.09,-59.75 328.05,-57.05 333.96,-53.42 339.42,-49.55" />
            <polygon fill="black" stroke="black" points="341.54,-51.68 346.55,-44.2 337.97,-46.92 341.54,-51.68" />
            <text text-anchor="middle" x="313.09" y="-68.55" font-family="Times,serif" font-size="14.00"> a </text>
        </g>
        <!-- dp&#45;&gt;dd -->
        <g id="edge7" class="edge">
            <title>dp&#45;&gt;dd</title>
            <path fill="none" stroke="black" d="M185.7,-71.75C199.22,-71.75 216.77,-71.75 231.67,-71.75" />
            <polygon fill="black" stroke="black" points="232.04,-74.72 240.54,-71.75 232.04,-68.77 232.04,-74.72" />
            <text text-anchor="middle" x="213.09" y="-75.55" font-family="Times,serif" font-size="14.00"> b </text>
        </g>
        <!-- dp&#45;&gt;pp -->
        <g id="edge6" class="edge">
            <title>dp&#45;&gt;pp</title>
            <path fill="none" stroke="black"
                d="M145.5,-56.45C138.7,-50.79 130.45,-44.78 122.1,-40.75 113.51,-36.6 103.59,-33.62 94.43,-31.51" />
            <polygon fill="black" stroke="black" points="94.86,-28.56 85.94,-29.74 93.65,-34.39 94.86,-28.56" />
            <text text-anchor="middle" x="113.1" y="-44.55" font-family="Times,serif" font-size="14.00"> a </text>
        </g>
        <!-- pd&#45;&gt;dd -->
        <g id="edge4" class="edge">
            <title>pd&#45;&gt;dd</title>
            <path fill="none" stroke="black"
                d="M340.55,-32.21C329.11,-35.16 315.6,-39.32 304.09,-44.75 299.04,-47.13 293.91,-50.11 289.09,-53.21" />
            <polygon fill="black" stroke="black" points="287.2,-50.9 281.83,-58.13 290.54,-55.83 287.2,-50.9" />
            <text text-anchor="middle" x="313.09" y="-48.55" font-family="Times,serif" font-size="14.00"> a </text>
        </g>
        <!-- pd&#45;&gt;pp -->
        <g id="edge5" class="edge">
            <title>pd&#45;&gt;pp</title>
            <path fill="none" stroke="black"
                d="M340.61,-20.89C308.77,-14.16 252.26,-4.44 203.59,-7.75 165.81,-10.31 122.66,-16.75 94.54,-21.42" />
            <polygon fill="black" stroke="black" points="93.85,-18.52 85.96,-22.87 94.84,-24.39 93.85,-18.52" />
            <text text-anchor="middle" x="213.09" y="-11.55" font-family="Times,serif" font-size="14.00"> b </text>
        </g>
        <!-- pp&#45;&gt;dp -->
        <g id="edge2" class="edge">
            <title>pp&#45;&gt;dp</title>
            <path fill="none" stroke="black"
                d="M80.09,-42.87C86.93,-49.01 95.37,-55.54 104.1,-59.75 112.56,-63.82 122.36,-66.52 131.47,-68.3" />
            <polygon fill="black" stroke="black" points="131.04,-71.24 139.92,-69.74 132.04,-65.38 131.04,-71.24" />
            <text text-anchor="middle" x="113.1" y="-69.55" font-family="Times,serif" font-size="14.00"> a </text>
        </g>
        <!-- pp&#45;&gt;pd -->
        <g id="edge3" class="edge">
            <title>pp&#45;&gt;pd</title>
            <path fill="none" stroke="black" d="M86.52,-26.75C138.49,-26.75 268.52,-26.75 331.11,-26.75" />
            <polygon fill="black" stroke="black" points="331.33,-29.72 339.83,-26.75 331.33,-23.77 331.33,-29.72" />
            <text text-anchor="middle" x="213.09" y="-30.55" font-family="Times,serif" font-size="14.00"> b </text>
        </g>
    </g>
</svg>