<?xml version="1.0" encoding="UTF-8" standalone="no"?>
<!DOCTYPE svg PUBLIC "-//W3C//DTD SVG 1.1//EN" "http://www.w3.org/Graphics/SVG/1.1/DTD/svg11.dtd">
<!-- Generated by graphviz version 12.2.1 (0)
 -->
<!-- Pages: 1 -->
<svg width="402pt" height="130pt" viewBox="0.00 0.00 402.34 130.20" xmlns="http://www.w3.org/2000/svg"
    xmlns:xlink="http://www.w3.org/1999/xlink">
    <g id="graph0" class="graph" transform="scale(1 1) rotate(0) translate(4 126.2)">
        <polygon fill="none" stroke="none" points="-4,4 -4,-126.2 398.34,-126.2 398.34,4 -4,4" />
        <!-- Initial -->
        <g id="node1" class="node">
            <title>Initial</title>
            <ellipse fill="black" stroke="black" cx="1.8" cy="-27.85" rx="1.8" ry="1.8" />
        </g>
        <!-- q0 -->
        <g id="node3" class="node">
            <title>q0</title>
            <ellipse fill="white" stroke="black" cx="64.45" cy="-27.85" rx="23.85" ry="23.85" />
            <text text-anchor="middle" x="64.45" y="-23.18" font-family="Times,serif" font-size="14.00">q0</text>
        </g>
        <!-- Initial&#45;&gt;q0 -->
        <g id="edge1" class="edge">
            <title>Initial&#45;&gt;q0</title>
            <path fill="none" stroke="black" d="M3.85,-27.85C7.27,-27.85 18.51,-27.85 30.32,-27.85" />
            <polygon fill="black" stroke="black" points="30.21,-30.83 38.71,-27.85 30.21,-24.88 30.21,-30.83" />
        </g>
        <!-- ... -->
        <g id="node2" class="node">
            <title>...</title>
            <ellipse fill="white" stroke="black" cx="263.94" cy="-27.85" rx="20.69" ry="20.69" />
            <text text-anchor="middle" x="263.94" y="-23.18" font-family="Times,serif" font-size="14.00">...</text>
        </g>
        <!-- qn -->
        <g id="node5" class="node">
            <title>qn</title>
            <ellipse fill="white" stroke="black" cx="366.49" cy="-27.85" rx="27.85" ry="27.85" />
            <ellipse fill="none" stroke="black" cx="366.49" cy="-27.85" rx="23.85" ry="23.85" />
            <text text-anchor="middle" x="366.49" y="-23.18" font-family="Times,serif" font-size="14.00">qn</text>
        </g>
        <!-- ...&#45;&gt;qn -->
        <g id="edge7" class="edge">
            <title>...&#45;&gt;qn</title>
            <path fill="none" stroke="black" d="M284.81,-27.85C297.27,-27.85 313.73,-27.85 328.52,-27.85" />
            <polygon fill="black" stroke="black" points="328.42,-30.83 336.92,-27.85 328.42,-24.88 328.42,-30.83" />
            <text text-anchor="middle" x="311.64" y="-31.8" font-family="Times,serif" font-size="14.00"> a </text>
        </g>
        <!-- ...&#45;&gt;qn -->
        <g id="edge8" class="edge">
            <title>...&#45;&gt;qn</title>
            <path fill="none" stroke="black"
                d="M281.41,-16.14C287.74,-12.31 295.23,-8.55 302.64,-6.6 312.77,-3.94 323.63,-5.85 333.43,-9.42" />
            <polygon fill="black" stroke="black" points="332.06,-12.07 341.05,-12.67 334.39,-6.6 332.06,-12.07" />
            <text text-anchor="middle" x="311.64" y="-10.55" font-family="Times,serif" font-size="14.00"> b </text>
        </g>
        <!-- q0&#45;&gt;q0 -->
        <g id="edge3" class="edge">
            <title>q0&#45;&gt;q0</title>
            <path fill="none" stroke="black"
                d="M60.51,-51.51C60.24,-61.36 61.56,-69.7 64.45,-69.7 66.3,-69.7 67.51,-66.28 68.06,-61.23" />
            <polygon fill="black" stroke="black" points="71.03,-61.62 68.34,-53.03 65.08,-61.42 71.03,-61.62" />
            <text text-anchor="middle" x="64.45" y="-73.65" font-family="Times,serif" font-size="14.00"> a </text>
        </g>
        <!-- q0&#45;&gt;q0 -->
        <g id="edge4" class="edge">
            <title>q0&#45;&gt;q0</title>
            <path fill="none" stroke="black"
                d="M57.54,-51.19C54.95,-69.27 57.25,-87.7 64.45,-87.7 70.35,-87.7 72.97,-75.3 72.29,-60.86" />
            <polygon fill="black" stroke="black" points="75.28,-60.88 71.51,-52.7 69.35,-61.45 75.28,-60.88" />
            <text text-anchor="middle" x="64.45" y="-91.65" font-family="Times,serif" font-size="14.00"> b </text>
        </g>
        <!-- q1 -->
        <g id="node4" class="node">
            <title>q1</title>
            <ellipse fill="white" stroke="black" cx="165.4" cy="-27.85" rx="23.85" ry="23.85" />
            <text text-anchor="middle" x="165.4" y="-23.18" font-family="Times,serif" font-size="14.00">q1</text>
        </g>
        <!-- q0&#45;&gt;q1 -->
        <g id="edge2" class="edge">
            <title>q0&#45;&gt;q1</title>
            <path fill="none" stroke="black" d="M88.65,-27.85C101.43,-27.85 117.5,-27.85 131.55,-27.85" />
            <polygon fill="black" stroke="black" points="131.33,-30.83 139.83,-27.85 131.33,-24.88 131.33,-30.83" />
            <text text-anchor="middle" x="114.93" y="-31.8" font-family="Times,serif" font-size="14.00"> a </text>
        </g>
        <!-- q1&#45;&gt;... -->
        <g id="edge5" class="edge">
            <title>q1&#45;&gt;...</title>
            <path fill="none" stroke="black" d="M189.28,-27.85C202.38,-27.85 218.97,-27.85 233.09,-27.85" />
            <polygon fill="black" stroke="black" points="232.84,-30.83 241.34,-27.85 232.84,-24.88 232.84,-30.83" />
            <text text-anchor="middle" x="216.25" y="-31.8" font-family="Times,serif" font-size="14.00"> a </text>
        </g>
        <!-- q1&#45;&gt;... -->
        <g id="edge6" class="edge">
            <title>q1&#45;&gt;...</title>
            <path fill="none" stroke="black"
                d="M185.74,-14.58C197.09,-8.38 211.8,-3.07 225.25,-6.6 229.54,-7.72 233.85,-9.46 237.94,-11.46" />
            <polygon fill="black" stroke="black" points="236.27,-13.94 245.15,-15.42 239.13,-8.72 236.27,-13.94" />
            <text text-anchor="middle" x="216.25" y="-10.55" font-family="Times,serif" font-size="14.00"> b </text>
        </g>
    </g>
</svg>