<?xml version="1.0" encoding="UTF-8" standalone="no"?>
<!DOCTYPE svg PUBLIC "-//W3C//DTD SVG 1.1//EN" "http://www.w3.org/Graphics/SVG/1.1/DTD/svg11.dtd">
<!-- Generated by graphviz version 2.43.0 (0)
 -->
<!-- Title: %3 Pages: 1 -->
<svg width="576pt" height="129pt" viewBox="0.00 0.00 576.00 128.78" xmlns="http://www.w3.org/2000/svg"
    xmlns:xlink="http://www.w3.org/1999/xlink">
    <g id="graph0" class="graph" transform="scale(0.42 0.42) rotate(0) translate(4 304.29)">
        <title>%3</title>
        <polygon fill="none" stroke="transparent" points="-4,4 -4,-304.29 1374.93,-304.29 1374.93,4 -4,4" />
        <!-- Initial -->
        <g id="node1" class="node">
            <title>Initial</title>
            <ellipse fill="black" stroke="black" cx="1.8" cy="-184.15" rx="1.8" ry="1.8" />
        </g>
        <!-- start -->
        <g id="node17" class="node">
            <title>start</title>
            <ellipse fill="white" stroke="black" cx="77.75" cy="-184.15" rx="37.29" ry="37.29" />
            <ellipse fill="none" stroke="black" cx="77.75" cy="-184.15" rx="33.28" ry="33.28" />
            <text text-anchor="middle" x="77.75" y="-180.45" font-family="Times,serif" font-size="14.00">start</text>
        </g>
        <!-- Initial&#45;&gt;start -->
        <g id="edge1" class="edge">
            <title>Initial&#45;&gt;start</title>
            <path fill="none" stroke="black" d="M3.63,-184.15C6.78,-184.15 18.48,-184.15 31.62,-184.15" />
            <polygon fill="black" stroke="black" points="31.9,-187.12 40.4,-184.15 31.9,-181.17 31.9,-187.12" />
        </g>
        <!-- 01 -->
        <g id="node2" class="node">
            <title>01</title>
            <ellipse fill="white" stroke="black" cx="192.64" cy="-184.15" rx="23" ry="23" />
            <text text-anchor="middle" x="192.64" y="-180.45" font-family="Times,serif" font-size="14.00">01</text>
        </g>
        <!-- 0111 -->
        <g id="node3" class="node">
            <title>0111</title>
            <ellipse fill="white" stroke="black" cx="304.84" cy="-236.15" rx="34.39" ry="34.39" />
            <text text-anchor="middle" x="304.84" y="-232.45" font-family="Times,serif" font-size="14.00">0111</text>
        </g>
        <!-- 01&#45;&gt;0111 -->
        <g id="edge4" class="edge">
            <title>01&#45;&gt;0111</title>
            <path fill="none" stroke="black" d="M213.6,-193.56C228.01,-200.36 247.93,-209.77 265.39,-218" />
            <polygon fill="black" stroke="black" points="264.26,-220.76 273.21,-221.69 266.8,-215.38 264.26,-220.76" />
            <text text-anchor="middle" x="242.89" y="-214.95" font-family="Times,serif" font-size="14.00"> 1 </text>
        </g>
        <!-- 02 -->
        <g id="node5" class="node">
            <title>02</title>
            <ellipse fill="white" stroke="black" cx="304.84" cy="-147.15" rx="23" ry="23" />
            <text text-anchor="middle" x="304.84" y="-143.45" font-family="Times,serif" font-size="14.00">02</text>
        </g>
        <!-- 01&#45;&gt;02 -->
        <g id="edge3" class="edge">
            <title>01&#45;&gt;02</title>
            <path fill="none" stroke="black" d="M214.37,-177.19C231.35,-171.49 255.57,-163.35 274.53,-156.99" />
            <polygon fill="black" stroke="black" points="275.72,-159.73 282.83,-154.2 273.82,-154.09 275.72,-159.73" />
            <text text-anchor="middle" x="242.89" y="-172.95" font-family="Times,serif" font-size="14.00"> 0 </text>
        </g>
        <!-- 011121 -->
        <g id="node4" class="node">
            <title>011121</title>
            <ellipse fill="white" stroke="black" cx="444.43" cy="-250.15" rx="50.29" ry="50.29" />
            <ellipse fill="none" stroke="black" cx="444.43" cy="-250.15" rx="46.28" ry="46.28" />
            <text text-anchor="middle" x="444.43" y="-246.45" font-family="Times,serif" font-size="14.00">011121</text>
        </g>
        <!-- 0111&#45;&gt;011121 -->
        <g id="edge5" class="edge">
            <title>0111&#45;&gt;011121</title>
            <path fill="none" stroke="black" d="M339.14,-239.53C353.1,-240.96 369.74,-242.65 385.59,-244.26" />
            <polygon fill="black" stroke="black" points="385.53,-247.25 394.29,-245.15 386.13,-241.33 385.53,-247.25" />
            <text text-anchor="middle" x="366.78" y="-246.95" font-family="Times,serif" font-size="14.00"> 2 </text>
        </g>
        <!-- 0211 -->
        <g id="node6" class="node">
            <title>0211</title>
            <ellipse fill="white" stroke="black" cx="444.43" cy="-147.15" rx="34.39" ry="34.39" />
            <text text-anchor="middle" x="444.43" y="-143.45" font-family="Times,serif" font-size="14.00">0211</text>
        </g>
        <!-- 02&#45;&gt;0211 -->
        <g id="edge7" class="edge">
            <title>02&#45;&gt;0211</title>
            <path fill="none" stroke="black" d="M327.64,-147.15C347.35,-147.15 376.91,-147.15 401.23,-147.15" />
            <polygon fill="black" stroke="black" points="401.42,-150.12 409.92,-147.15 401.42,-144.17 401.42,-150.12" />
            <text text-anchor="middle" x="366.78" y="-150.95" font-family="Times,serif" font-size="14.00"> 1 </text>
        </g>
        <!-- 03 -->
        <g id="node10" class="node">
            <title>03</title>
            <ellipse fill="white" stroke="black" cx="444.43" cy="-71.15" rx="23" ry="23" />
            <text text-anchor="middle" x="444.43" y="-67.45" font-family="Times,serif" font-size="14.00">03</text>
        </g>
        <!-- 02&#45;&gt;03 -->
        <g id="edge6" class="edge">
            <title>02&#45;&gt;03</title>
            <path fill="none" stroke="black" d="M325.26,-136.42C349.13,-123.23 389.75,-100.8 416.59,-85.97" />
            <polygon fill="black" stroke="black" points="418.1,-88.53 424.11,-81.82 415.23,-83.32 418.1,-88.53" />
            <text text-anchor="middle" x="366.78" y="-121.95" font-family="Times,serif" font-size="14.00"> 0 </text>
        </g>
        <!-- 0212 -->
        <g id="node7" class="node">
            <title>0212</title>
            <ellipse fill="white" stroke="black" cx="584.02" cy="-150.15" rx="34.39" ry="34.39" />
            <text text-anchor="middle" x="584.02" y="-146.45" font-family="Times,serif" font-size="14.00">0212</text>
        </g>
        <!-- 0211&#45;&gt;0212 -->
        <g id="edge8" class="edge">
            <title>0211&#45;&gt;0212</title>
            <path fill="none" stroke="black" d="M479.09,-147.88C497.66,-148.28 520.91,-148.79 540.7,-149.22" />
            <polygon fill="black" stroke="black" points="540.67,-152.2 549.23,-149.41 540.8,-146.25 540.67,-152.2" />
            <text text-anchor="middle" x="522.08" y="-151.95" font-family="Times,serif" font-size="14.00"> 1 </text>
        </g>
        <!-- 021221 -->
        <g id="node8" class="node">
            <title>021221</title>
            <ellipse fill="white" stroke="black" cx="719.62" cy="-153.15" rx="46.29" ry="46.29" />
            <text text-anchor="middle" x="719.62" y="-149.45" font-family="Times,serif" font-size="14.00">021221</text>
        </g>
        <!-- 0212&#45;&gt;021221 -->
        <g id="edge9" class="edge">
            <title>0212&#45;&gt;021221</title>
            <path fill="none" stroke="black" d="M618.73,-150.9C632.69,-151.22 649.23,-151.59 664.78,-151.94" />
            <polygon fill="black" stroke="black" points="664.74,-154.91 673.31,-152.13 664.87,-148.96 664.74,-154.91" />
            <text text-anchor="middle" x="645.97" y="-154.95" font-family="Times,serif" font-size="14.00"> 2 </text>
        </g>
        <!-- 021222 -->
        <g id="node9" class="node">
            <title>021222</title>
            <ellipse fill="white" stroke="black" cx="870.91" cy="-153.15" rx="50.29" ry="50.29" />
            <ellipse fill="none" stroke="black" cx="870.91" cy="-153.15" rx="46.28" ry="46.28" />
            <text text-anchor="middle" x="870.91" y="-149.45" font-family="Times,serif" font-size="14.00">021222</text>
        </g>
        <!-- 021221&#45;&gt;021222 -->
        <g id="edge10" class="edge">
            <title>021221&#45;&gt;021222</title>
            <path fill="none" stroke="black" d="M765.81,-153.15C780.3,-153.15 796.56,-153.15 811.84,-153.15" />
            <polygon fill="black" stroke="black" points="812.2,-156.12 820.7,-153.15 812.2,-150.17 812.2,-156.12" />
            <text text-anchor="middle" x="793.26" y="-156.95" font-family="Times,serif" font-size="14.00"> 2 </text>
        </g>
        <!-- 0311 -->
        <g id="node11" class="node">
            <title>0311</title>
            <ellipse fill="white" stroke="black" cx="584.02" cy="-62.15" rx="34.39" ry="34.39" />
            <text text-anchor="middle" x="584.02" y="-58.45" font-family="Times,serif" font-size="14.00">0311</text>
        </g>
        <!-- 03&#45;&gt;0311 -->
        <g id="edge11" class="edge">
            <title>03&#45;&gt;0311</title>
            <path fill="none" stroke="black" d="M467.23,-69.72C486.94,-68.43 516.5,-66.5 540.82,-64.91" />
            <polygon fill="black" stroke="black" points="541.23,-67.86 549.51,-64.34 540.84,-61.92 541.23,-67.86" />
            <text text-anchor="middle" x="522.08" y="-70.95" font-family="Times,serif" font-size="14.00"> 1 </text>
        </g>
        <!-- 0312 -->
        <g id="node12" class="node">
            <title>0312</title>
            <ellipse fill="white" stroke="black" cx="719.62" cy="-53.15" rx="34.39" ry="34.39" />
            <text text-anchor="middle" x="719.62" y="-49.45" font-family="Times,serif" font-size="14.00">0312</text>
        </g>
        <!-- 0311&#45;&gt;0312 -->
        <g id="edge12" class="edge">
            <title>0311&#45;&gt;0312</title>
            <path fill="none" stroke="black" d="M618.73,-59.87C636.22,-58.7 657.75,-57.25 676.33,-55.99" />
            <polygon fill="black" stroke="black" points="676.63,-58.96 684.92,-55.42 676.23,-53.02 676.63,-58.96" />
            <text text-anchor="middle" x="645.97" y="-62.95" font-family="Times,serif" font-size="14.00"> 1 </text>
        </g>
        <!-- 0313 -->
        <g id="node13" class="node">
            <title>0313</title>
            <ellipse fill="white" stroke="black" cx="870.91" cy="-50.15" rx="34.39" ry="34.39" />
            <text text-anchor="middle" x="870.91" y="-46.45" font-family="Times,serif" font-size="14.00">0313</text>
        </g>
        <!-- 0312&#45;&gt;0313 -->
        <g id="edge13" class="edge">
            <title>0312&#45;&gt;0313</title>
            <path fill="none" stroke="black" d="M754.12,-52.47C775.85,-52.04 804.33,-51.46 827.61,-51" />
            <polygon fill="black" stroke="black" points="827.82,-53.97 836.26,-50.82 827.7,-48.02 827.82,-53.97" />
            <text text-anchor="middle" x="793.26" y="-55.95" font-family="Times,serif" font-size="14.00"> 1 </text>
        </g>
        <!-- 031321 -->
        <g id="node14" class="node">
            <title>031321</title>
            <ellipse fill="white" stroke="black" cx="1022.2" cy="-50.15" rx="46.29" ry="46.29" />
            <text text-anchor="middle" x="1022.2" y="-46.45" font-family="Times,serif" font-size="14.00">031321</text>
        </g>
        <!-- 0313&#45;&gt;031321 -->
        <g id="edge14" class="edge">
            <title>0313&#45;&gt;031321</title>
            <path fill="none" stroke="black" d="M905.41,-50.15C923.62,-50.15 946.57,-50.15 967.22,-50.15" />
            <polygon fill="black" stroke="black" points="967.42,-53.12 975.92,-50.15 967.42,-47.17 967.42,-53.12" />
            <text text-anchor="middle" x="948.55" y="-53.95" font-family="Times,serif" font-size="14.00"> 2 </text>
        </g>
        <!-- 031322 -->
        <g id="node15" class="node">
            <title>031322</title>
            <ellipse fill="white" stroke="black" cx="1169.49" cy="-50.15" rx="46.29" ry="46.29" />
            <text text-anchor="middle" x="1169.49" y="-46.45" font-family="Times,serif" font-size="14.00">031322</text>
        </g>
        <!-- 031321&#45;&gt;031322 -->
        <g id="edge15" class="edge">
            <title>031321&#45;&gt;031322</title>
            <path fill="none" stroke="black" d="M1068.37,-50.15C1083,-50.15 1099.36,-50.15 1114.56,-50.15" />
            <polygon fill="black" stroke="black" points="1114.84,-53.12 1123.34,-50.15 1114.84,-47.17 1114.84,-53.12" />
            <text text-anchor="middle" x="1095.85" y="-53.95" font-family="Times,serif" font-size="14.00"> 2 </text>
        </g>
        <!-- 031323 -->
        <g id="node16" class="node">
            <title>031323</title>
            <ellipse fill="white" stroke="black" cx="1320.78" cy="-50.15" rx="50.29" ry="50.29" />
            <ellipse fill="none" stroke="black" cx="1320.78" cy="-50.15" rx="46.28" ry="46.28" />
            <text text-anchor="middle" x="1320.78" y="-46.45" font-family="Times,serif" font-size="14.00">031323</text>
        </g>
        <!-- 031322&#45;&gt;031323 -->
        <g id="edge16" class="edge">
            <title>031322&#45;&gt;031323</title>
            <path fill="none" stroke="black" d="M1215.69,-50.15C1230.18,-50.15 1246.44,-50.15 1261.71,-50.15" />
            <polygon fill="black" stroke="black" points="1262.08,-53.12 1270.58,-50.15 1262.08,-47.17 1262.08,-53.12" />
            <text text-anchor="middle" x="1243.14" y="-53.95" font-family="Times,serif" font-size="14.00"> 2 </text>
        </g>
        <!-- start&#45;&gt;01 -->
        <g id="edge2" class="edge">
            <title>start&#45;&gt;01</title>
            <path fill="none" stroke="black" d="M115.09,-184.15C129.89,-184.15 146.82,-184.15 160.99,-184.15" />
            <polygon fill="black" stroke="black" points="161.35,-187.12 169.85,-184.15 161.35,-181.17 161.35,-187.12" />
            <text text-anchor="middle" x="142.39" y="-187.95" font-family="Times,serif" font-size="14.00"> 0 </text>
        </g>
    </g>
</svg>