<?xml version="1.0" encoding="UTF-8" standalone="no"?>
<!DOCTYPE svg PUBLIC "-//W3C//DTD SVG 1.1//EN" "http://www.w3.org/Graphics/SVG/1.1/DTD/svg11.dtd">
<!-- Generated by graphviz version 2.43.0 (0)
 -->
<!-- Title: %3 Pages: 1 -->
<svg width="576pt" height="216pt" viewBox="0.00 0.00 576.00 216.36" xmlns="http://www.w3.org/2000/svg"
    xmlns:xlink="http://www.w3.org/1999/xlink">
    <g id="graph0" class="graph" transform="scale(0.64 0.64) rotate(0) translate(4 336.15)">
        <title>%3</title>
        <polygon fill="none" stroke="transparent" points="-4,4 -4,-336.15 901.56,-336.15 901.56,4 -4,4" />
        <!-- Initial -->
        <g id="node1" class="node">
            <title>Initial</title>
            <ellipse fill="black" stroke="black" cx="1.8" cy="-246.15" rx="1.8" ry="1.8" />
        </g>
        <!-- aba -->
        <g id="node4" class="node">
            <title>aba</title>
            <ellipse fill="white" stroke="black" cx="67.9" cy="-246.15" rx="27.1" ry="27.1" />
            <text text-anchor="middle" x="67.9" y="-242.45" font-family="Times,serif" font-size="14.00">aba</text>
        </g>
        <!-- Initial&#45;&gt;aba -->
        <g id="edge1" class="edge">
            <title>Initial&#45;&gt;aba</title>
            <path fill="none" stroke="black" d="M3.91,-246.15C7.51,-246.15 19.29,-246.15 31.71,-246.15" />
            <polygon fill="black" stroke="black" points="31.81,-249.13 40.31,-246.15 31.81,-243.18 31.81,-249.13" />
        </g>
        <!-- aaa -->
        <g id="node2" class="node">
            <title>aaa</title>
            <ellipse fill="white" stroke="black" cx="288.44" cy="-155.15" rx="30.8" ry="30.8" />
            <ellipse fill="none" stroke="black" cx="288.44" cy="-155.15" rx="26.78" ry="26.78" />
            <text text-anchor="middle" x="288.44" y="-151.45" font-family="Times,serif" font-size="14.00">aaa</text>
        </g>
        <!-- aaa&#45;&gt;aaa -->
        <g id="edge2" class="edge">
            <title>aaa&#45;&gt;aaa</title>
            <path fill="none" stroke="black"
                d="M277.96,-184.12C277.62,-194.91 281.11,-203.8 288.44,-203.8 293.71,-203.8 296.99,-199.21 298.29,-192.62" />
            <polygon fill="black" stroke="black" points="301.26,-192.81 298.91,-184.12 295.33,-192.38 301.26,-192.81" />
            <text text-anchor="middle" x="288.44" y="-207.6" font-family="Times,serif" font-size="14.00"> a </text>
        </g>
        <!-- aab -->
        <g id="node3" class="node">
            <title>aab</title>
            <ellipse fill="white" stroke="black" cx="405.38" cy="-117.15" rx="31.1" ry="31.1" />
            <ellipse fill="none" stroke="black" cx="405.38" cy="-117.15" rx="27.12" ry="27.12" />
            <text text-anchor="middle" x="405.38" y="-113.45" font-family="Times,serif" font-size="14.00">aab</text>
        </g>
        <!-- aaa&#45;&gt;aab -->
        <g id="edge3" class="edge">
            <title>aaa&#45;&gt;aab</title>
            <path fill="none" stroke="black" d="M317.85,-145.76C332.8,-140.82 351.3,-134.7 367.36,-129.39" />
            <polygon fill="black" stroke="black" points="368.36,-132.19 375.5,-126.7 366.49,-126.55 368.36,-132.19" />
            <text text-anchor="middle" x="346.59" y="-141.95" font-family="Times,serif" font-size="14.00"> b </text>
        </g>
        <!-- aab&#45;&gt;aba -->
        <g id="edge4" class="edge">
            <title>aab&#45;&gt;aba</title>
            <path fill="none" stroke="black"
                d="M386.21,-92.15C354.48,-51.79 286.19,20.63 221.79,-6.15 136.31,-41.7 94.05,-153.79 77.54,-211.33" />
            <polygon fill="black" stroke="black" points="74.61,-210.75 75.2,-219.74 80.34,-212.35 74.61,-210.75" />
            <text text-anchor="middle" x="230.79" y="-9.95" font-family="Times,serif" font-size="14.00"> a </text>
        </g>
        <!-- abb -->
        <g id="node5" class="node">
            <title>abb</title>
            <ellipse fill="white" stroke="black" cx="519.63" cy="-177.15" rx="27.9" ry="27.9" />
            <text text-anchor="middle" x="519.63" y="-173.45" font-family="Times,serif" font-size="14.00">abb</text>
        </g>
        <!-- aab&#45;&gt;abb -->
        <g id="edge5" class="edge">
            <title>aab&#45;&gt;abb</title>
            <path fill="none" stroke="black" d="M433.27,-131.52C449.47,-140.18 470.17,-151.25 487.13,-160.32" />
            <polygon fill="black" stroke="black" points="485.74,-162.94 494.63,-164.33 488.54,-157.7 485.74,-162.94" />
            <text text-anchor="middle" x="464.18" y="-155.95" font-family="Times,serif" font-size="14.00"> b </text>
        </g>
        <!-- baa -->
        <g id="node6" class="node">
            <title>baa</title>
            <ellipse fill="white" stroke="black" cx="176.49" cy="-115.15" rx="27.1" ry="27.1" />
            <text text-anchor="middle" x="176.49" y="-111.45" font-family="Times,serif" font-size="14.00">baa</text>
        </g>
        <!-- aba&#45;&gt;baa -->
        <g id="edge6" class="edge">
            <title>aba&#45;&gt;baa</title>
            <path fill="none" stroke="black" d="M85.79,-225.4C103.92,-203.11 132.84,-167.57 152.92,-142.9" />
            <polygon fill="black" stroke="black" points="155.27,-144.72 158.33,-136.25 150.66,-140.96 155.27,-144.72" />
            <text text-anchor="middle" x="122.2" y="-191.95" font-family="Times,serif" font-size="14.00"> a </text>
        </g>
        <!-- bab -->
        <g id="node7" class="node">
            <title>bab</title>
            <ellipse fill="white" stroke="black" cx="869.61" cy="-260.15" rx="27.9" ry="27.9" />
            <text text-anchor="middle" x="869.61" y="-256.45" font-family="Times,serif" font-size="14.00">bab</text>
        </g>
        <!-- aba&#45;&gt;bab -->
        <g id="edge7" class="edge">
            <title>aba&#45;&gt;bab</title>
            <path fill="none" stroke="black"
                d="M85.28,-267.39C92.99,-276.28 102.77,-286.15 113.2,-293.15 137.83,-309.69 145.82,-317.15 175.49,-317.15 175.49,-317.15 175.49,-317.15 755.72,-317.15 787.28,-317.15 818.99,-299.18 840.74,-283.42" />
            <polygon fill="black" stroke="black" points="842.7,-285.67 847.71,-278.19 839.13,-280.91 842.7,-285.67" />
            <text text-anchor="middle" x="464.18" y="-320.95" font-family="Times,serif" font-size="14.00"> b </text>
        </g>
        <!-- bba -->
        <g id="node8" class="node">
            <title>bba</title>
            <ellipse fill="white" stroke="black" cx="754.72" cy="-157.15" rx="31.9" ry="31.9" />
            <ellipse fill="none" stroke="black" cx="754.72" cy="-157.15" rx="27.9" ry="27.9" />
            <text text-anchor="middle" x="754.72" y="-153.45" font-family="Times,serif" font-size="14.00">bba</text>
        </g>
        <!-- abb&#45;&gt;bba -->
        <g id="edge8" class="edge">
            <title>abb&#45;&gt;bba</title>
            <path fill="none" stroke="black"
                d="M547.82,-177.02C577.4,-176.66 626.06,-175.39 667.77,-171.15 683.09,-169.6 699.83,-167.06 714.43,-164.58" />
            <polygon fill="black" stroke="black" points="715.35,-167.44 723.21,-163.04 714.32,-161.57 715.35,-167.44" />
            <text text-anchor="middle" x="635.17" y="-178.95" font-family="Times,serif" font-size="14.00"> a </text>
        </g>
        <!-- bbb -->
        <g id="node9" class="node">
            <title>bbb</title>
            <ellipse fill="none" stroke="black" cx="635.17" cy="-96.15" rx="28.68" ry="28.68" />
            <ellipse fill="white" stroke="black" cx="635.17" cy="-96.15" rx="32.7" ry="32.7" />
            <text text-anchor="middle" x="635.17" y="-92.45" font-family="Times,serif" font-size="14.00">bbb</text>
        </g>
        <!-- abb&#45;&gt;bbb -->
        <g id="edge9" class="edge">
            <title>abb&#45;&gt;bbb</title>
            <path fill="none" stroke="black" d="M542.79,-161.34C559.31,-149.56 582.16,-133.26 600.88,-119.91" />
            <polygon fill="black" stroke="black" points="602.89,-122.12 608.09,-114.76 599.44,-117.28 602.89,-122.12" />
            <text text-anchor="middle" x="575.08" y="-146.95" font-family="Times,serif" font-size="14.00"> b </text>
        </g>
        <!-- baa&#45;&gt;aaa -->
        <g id="edge10" class="edge">
            <title>baa&#45;&gt;aaa</title>
            <path fill="none" stroke="black" d="M202.44,-124.23C216.9,-129.49 235.36,-136.2 251.37,-142.03" />
            <polygon fill="black" stroke="black" points="250.49,-144.88 259.49,-144.99 252.52,-139.28 250.49,-144.88" />
            <text text-anchor="middle" x="230.79" y="-140.95" font-family="Times,serif" font-size="14.00"> a </text>
        </g>
        <!-- baa&#45;&gt;aab -->
        <g id="edge11" class="edge">
            <title>baa&#45;&gt;aab</title>
            <path fill="none" stroke="black"
                d="M203.36,-109.06C219.01,-105.69 239.43,-101.85 257.79,-100.15 284.92,-97.64 291.97,-97.48 319.09,-100.15 334.66,-101.69 351.61,-104.77 366.26,-107.89" />
            <polygon fill="black" stroke="black" points="365.66,-110.8 374.6,-109.72 366.93,-104.99 365.66,-110.8" />
            <text text-anchor="middle" x="288.44" y="-103.95" font-family="Times,serif" font-size="14.00"> b </text>
        </g>
        <!-- bab&#45;&gt;aba -->
        <g id="edge12" class="edge">
            <title>bab&#45;&gt;aba</title>
            <path fill="none" stroke="black"
                d="M842.36,-267.12C819.62,-272.54 785.73,-279.15 755.72,-279.15 175.49,-279.15 175.49,-279.15 175.49,-279.15 149.5,-279.15 121.47,-270.09 100.68,-261.46" />
            <polygon fill="black" stroke="black" points="101.79,-258.7 92.8,-258.07 99.43,-264.16 101.79,-258.7" />
            <text text-anchor="middle" x="464.18" y="-282.95" font-family="Times,serif" font-size="14.00"> a </text>
        </g>
        <!-- bab&#45;&gt;abb -->
        <g id="edge13" class="edge">
            <title>bab&#45;&gt;abb</title>
            <path fill="none" stroke="black"
                d="M842.15,-254.55C789.34,-243.25 667.22,-216.57 565.58,-190.15 562.13,-189.26 558.54,-188.29 554.96,-187.29" />
            <polygon fill="black" stroke="black" points="555.7,-184.41 546.71,-184.96 554.08,-190.13 555.7,-184.41" />
            <text text-anchor="middle" x="695.27" y="-226.95" font-family="Times,serif" font-size="14.00"> b </text>
        </g>
        <!-- bba&#45;&gt;baa -->
        <g id="edge14" class="edge">
            <title>bba&#45;&gt;baa</title>
            <path fill="none" stroke="black"
                d="M741.17,-127.93C723.47,-91.84 687.5,-35.15 636.17,-35.15 287.44,-35.15 287.44,-35.15 287.44,-35.15 251.34,-35.15 219.14,-63.69 199.06,-86.68" />
            <polygon fill="black" stroke="black" points="196.69,-84.88 193.48,-93.29 201.23,-88.72 196.69,-84.88" />
            <text text-anchor="middle" x="464.18" y="-38.95" font-family="Times,serif" font-size="14.00"> a </text>
        </g>
        <!-- bba&#45;&gt;bab -->
        <g id="edge15" class="edge">
            <title>bba&#45;&gt;bab</title>
            <path fill="none" stroke="black"
                d="M780.61,-175.97C793.78,-186.24 810,-199.44 823.67,-212.15 830.71,-218.7 837.98,-226.14 844.57,-233.17" />
            <polygon fill="black" stroke="black" points="842.44,-235.25 850.4,-239.47 846.81,-231.21 842.44,-235.25" />
            <text text-anchor="middle" x="814.17" y="-215.95" font-family="Times,serif" font-size="14.00"> b </text>
        </g>
        <!-- bbb&#45;&gt;bba -->
        <g id="edge16" class="edge">
            <title>bbb&#45;&gt;bba</title>
            <path fill="none" stroke="black" d="M664.33,-110.76C680.47,-119.14 700.88,-129.73 718.12,-138.68" />
            <polygon fill="black" stroke="black" points="716.88,-141.39 725.79,-142.66 719.62,-136.11 716.88,-141.39" />
            <text text-anchor="middle" x="695.27" y="-133.95" font-family="Times,serif" font-size="14.00"> a </text>
        </g>
        <!-- bbb&#45;&gt;bbb -->
        <g id="edge17" class="edge">
            <title>bbb&#45;&gt;bbb</title>
            <path fill="none" stroke="black"
                d="M623.93,-126.78C623.69,-137.78 627.44,-146.75 635.17,-146.75 640.73,-146.75 644.23,-142.12 645.67,-135.43" />
            <polygon fill="black" stroke="black" points="648.65,-135.51 646.41,-126.78 642.72,-135 648.65,-135.51" />
            <text text-anchor="middle" x="635.17" y="-150.55" font-family="Times,serif" font-size="14.00"> b </text>
        </g>
    </g>
</svg>