<?xml version="1.0" encoding="UTF-8" standalone="no"?>
<!DOCTYPE svg PUBLIC "-//W3C//DTD SVG 1.1//EN" "http://www.w3.org/Graphics/SVG/1.1/DTD/svg11.dtd">
<!-- Generated by graphviz version 2.43.0 (0)
 -->
<!-- Title: %3 Pages: 1 -->
<svg width="404pt" height="255pt" viewBox="0.00 0.00 403.58 255.50" xmlns="http://www.w3.org/2000/svg"
    xmlns:xlink="http://www.w3.org/1999/xlink">
    <g id="graph0" class="graph" transform="scale(1 1) rotate(0) translate(4 251.5)">
        <title>%3</title>
        <polygon fill="none" stroke="transparent" points="-4,4 -4,-251.5 399.58,-251.5 399.58,4 -4,4" />
        <!-- Initial -->
        <g id="node1" class="node">
            <title>Initial</title>
            <ellipse fill="black" stroke="black" cx="1.8" cy="-191.75" rx="1.8" ry="1.8" />
        </g>
        <!-- 11 -->
        <g id="node5" class="node">
            <title>11</title>
            <ellipse fill="white" stroke="black" cx="63.35" cy="-191.75" rx="23" ry="23" />
            <text text-anchor="middle" x="63.35" y="-188.05" font-family="Times,serif" font-size="14.00">11</text>
        </g>
        <!-- Initial&#45;&gt;11 -->
        <g id="edge1" class="edge">
            <title>Initial&#45;&gt;11</title>
            <path fill="none" stroke="black" d="M3.83,-191.75C7.36,-191.75 19.4,-191.75 31.65,-191.75" />
            <polygon fill="black" stroke="black" points="31.98,-194.72 40.48,-191.75 31.98,-188.77 31.98,-194.72" />
        </g>
        <!-- 00 -->
        <g id="node2" class="node">
            <title>00</title>
            <ellipse fill="white" stroke="black" cx="268.34" cy="-26.75" rx="27" ry="27" />
            <ellipse fill="none" stroke="black" cx="268.34" cy="-26.75" rx="22.96" ry="22.96" />
            <text text-anchor="middle" x="268.34" y="-23.05" font-family="Times,serif" font-size="14.00">00</text>
        </g>
        <!-- 00&#45;&gt;00 -->
        <g id="edge2" class="edge">
            <title>00&#45;&gt;00</title>
            <path fill="none" stroke="black"
                d="M258.34,-51.6C257.52,-62.32 260.85,-71.5 268.34,-71.5 273.72,-71.5 276.96,-66.75 278.05,-60.11" />
            <polygon fill="black" stroke="black" points="281.02,-60.19 278.34,-51.6 275.08,-59.99 281.02,-60.19" />
            <text text-anchor="middle" x="268.34" y="-75.3" font-family="Times,serif" font-size="14.00"> 0 </text>
        </g>
        <!-- 01 -->
        <g id="node3" class="node">
            <title>01</title>
            <ellipse fill="white" stroke="black" cx="372.84" cy="-147.75" rx="23" ry="23" />
            <text text-anchor="middle" x="372.84" y="-144.05" font-family="Times,serif" font-size="14.00">01</text>
        </g>
        <!-- 00&#45;&gt;01 -->
        <g id="edge3" class="edge">
            <title>00&#45;&gt;01</title>
            <path fill="none" stroke="black"
                d="M287.81,-45.27C300.64,-58.43 317.93,-76.71 332.09,-93.75 339.6,-102.79 347.38,-113.1 354.03,-122.27" />
            <polygon fill="black" stroke="black" points="351.73,-124.17 359.11,-129.34 356.57,-120.7 351.73,-124.17" />
            <text text-anchor="middle" x="322.59" y="-97.55" font-family="Times,serif" font-size="14.00"> 1 </text>
        </g>
        <!-- 10 -->
        <g id="node4" class="node">
            <title>10</title>
            <ellipse fill="white" stroke="black" cx="163.84" cy="-144.75" rx="23" ry="23" />
            <text text-anchor="middle" x="163.84" y="-141.05" font-family="Times,serif" font-size="14.00">10</text>
        </g>
        <!-- 01&#45;&gt;10 -->
        <g id="edge4" class="edge">
            <title>01&#45;&gt;10</title>
            <path fill="none" stroke="black"
                d="M350.42,-143.84C335.08,-141.25 313.88,-138.09 295.09,-136.75 260.93,-134.31 221.69,-137.54 195.29,-140.6" />
            <polygon fill="black" stroke="black" points="194.6,-137.68 186.52,-141.66 195.31,-143.59 194.6,-137.68" />
            <text text-anchor="middle" x="268.34" y="-140.55" font-family="Times,serif" font-size="14.00"> 0 </text>
        </g>
        <!-- 01&#45;&gt;11 -->
        <g id="edge5" class="edge">
            <title>01&#45;&gt;11</title>
            <path fill="none" stroke="black"
                d="M352.91,-159.1C346.48,-162.59 339.13,-166.18 332.09,-168.75 316.28,-174.51 311.72,-174.23 295.09,-176.75 219.22,-188.21 199.75,-188.41 123.1,-191.75 113.93,-192.15 103.94,-192.27 94.85,-192.25" />
            <polygon fill="black" stroke="black" points="94.64,-189.28 86.12,-192.2 94.6,-195.23 94.64,-189.28" />
            <text text-anchor="middle" x="214.09" y="-190.55" font-family="Times,serif" font-size="14.00"> 1 </text>
        </g>
        <!-- 10&#45;&gt;00 -->
        <g id="edge6" class="edge">
            <title>10&#45;&gt;00</title>
            <path fill="none" stroke="black"
                d="M178.07,-126.97C185.63,-117.02 195.4,-104.5 204.59,-93.75 216.85,-79.41 231.19,-64.01 243.06,-51.59" />
            <polygon fill="black" stroke="black" points="245.27,-53.58 249.02,-45.39 240.98,-49.46 245.27,-53.58" />
            <text text-anchor="middle" x="214.09" y="-97.55" font-family="Times,serif" font-size="14.00"> 0 </text>
        </g>
        <!-- 10&#45;&gt;01 -->
        <g id="edge7" class="edge">
            <title>10&#45;&gt;01</title>
            <path fill="none" stroke="black"
                d="M186.18,-149.82C192.11,-151.01 198.57,-152.12 204.59,-152.75 260.95,-158.63 275.58,-157.99 332.09,-153.75 335.1,-153.52 338.23,-153.2 341.36,-152.82" />
            <polygon fill="black" stroke="black" points="342.01,-155.74 350.03,-151.64 341.21,-149.84 342.01,-155.74" />
            <text text-anchor="middle" x="268.34" y="-161.55" font-family="Times,serif" font-size="14.00"> 1 </text>
        </g>
        <!-- 11&#45;&gt;10 -->
        <g id="edge8" class="edge">
            <title>11&#45;&gt;10</title>
            <path fill="none" stroke="black" d="M84.28,-182.24C98.83,-175.29 118.75,-165.79 134.89,-158.09" />
            <polygon fill="black" stroke="black" points="136.55,-160.59 142.94,-154.24 133.99,-155.22 136.55,-160.59" />
            <text text-anchor="middle" x="113.6" y="-176.55" font-family="Times,serif" font-size="14.00"> 0 </text>
        </g>
        <!-- 11&#45;&gt;11 -->
        <g id="edge9" class="edge">
            <title>11&#45;&gt;11</title>
            <path fill="none" stroke="black"
                d="M56,-213.55C55.19,-223.66 57.64,-232.5 63.35,-232.5 67.27,-232.5 69.65,-228.32 70.5,-222.42" />
            <polygon fill="black" stroke="black" points="73.48,-222.11 70.7,-213.55 67.53,-221.98 73.48,-222.11" />
            <text text-anchor="middle" x="63.35" y="-236.3" font-family="Times,serif" font-size="14.00"> 1 </text>
        </g>
    </g>
</svg>