<?xml version="1.0" encoding="UTF-8" standalone="no"?>
<!DOCTYPE svg PUBLIC "-//W3C//DTD SVG 1.1//EN" "http://www.w3.org/Graphics/SVG/1.1/DTD/svg11.dtd">
<!-- Generated by graphviz version 2.43.0 (0)
 -->
<!-- Title: %3 Pages: 1 -->
<svg width="302pt" height="123pt" viewBox="0.00 0.00 302.09 123.50" xmlns="http://www.w3.org/2000/svg"
    xmlns:xlink="http://www.w3.org/1999/xlink">
    <g id="graph0" class="graph" transform="scale(1 1) rotate(0) translate(4 119.5)">
        <title>%3</title>
        <polygon fill="none" stroke="transparent" points="-4,4 -4,-119.5 298.09,-119.5 298.09,4 -4,4" />
        <!-- Initial -->
        <g id="node1" class="node">
            <title>Initial</title>
            <ellipse fill="black" stroke="black" cx="1.8" cy="-26.75" rx="1.8" ry="1.8" />
        </g>
        <!-- q0 -->
        <g id="node2" class="node">
            <title>q0</title>
            <ellipse fill="white" stroke="black" cx="67.35" cy="-26.75" rx="27" ry="27" />
            <ellipse fill="none" stroke="black" cx="67.35" cy="-26.75" rx="22.96" ry="22.96" />
            <text text-anchor="middle" x="67.35" y="-23.05" font-family="Times,serif" font-size="14.00">q0</text>
        </g>
        <!-- Initial&#45;&gt;q0 -->
        <g id="edge1" class="edge">
            <title>Initial&#45;&gt;q0</title>
            <path fill="none" stroke="black" d="M3.9,-26.75C7.49,-26.75 19.32,-26.75 31.74,-26.75" />
            <polygon fill="black" stroke="black" points="31.83,-29.72 40.33,-26.75 31.83,-23.77 31.83,-29.72" />
        </g>
        <!-- q0&#45;&gt;q0 -->
        <g id="edge3" class="edge">
            <title>q0&#45;&gt;q0</title>
            <path fill="none" stroke="black"
                d="M59.15,-52.5C58.69,-62.83 61.42,-71.5 67.35,-71.5 71.52,-71.5 74.11,-67.21 75.12,-61.08" />
            <polygon fill="black" stroke="black" points="78.09,-61.14 75.55,-52.5 72.15,-60.84 78.09,-61.14" />
            <text text-anchor="middle" x="67.35" y="-75.3" font-family="Times,serif" font-size="14.00"> b </text>
        </g>
        <!-- q1 -->
        <g id="node3" class="node">
            <title>q1</title>
            <ellipse fill="white" stroke="black" cx="171.84" cy="-26.75" rx="23" ry="23" />
            <text text-anchor="middle" x="171.84" y="-23.05" font-family="Times,serif" font-size="14.00">q1</text>
        </g>
        <!-- q0&#45;&gt;q1 -->
        <g id="edge2" class="edge">
            <title>q0&#45;&gt;q1</title>
            <path fill="none" stroke="black" d="M94.21,-26.75C108.16,-26.75 125.46,-26.75 140.1,-26.75" />
            <polygon fill="black" stroke="black" points="140.31,-29.72 148.81,-26.75 140.31,-23.77 140.31,-29.72" />
            <text text-anchor="middle" x="121.6" y="-30.55" font-family="Times,serif" font-size="14.00"> a </text>
        </g>
        <!-- q1&#45;&gt;q0 -->
        <g id="edge5" class="edge">
            <title>q1&#45;&gt;q0</title>
            <path fill="none" stroke="black"
                d="M151.66,-15.46C145.33,-12.32 138.11,-9.34 131.1,-7.75 120.6,-5.37 109.3,-7.34 99.22,-10.77" />
            <polygon fill="black" stroke="black" points="97.93,-8.08 91.09,-13.93 100.09,-13.62 97.93,-8.08" />
            <text text-anchor="middle" x="121.6" y="-11.55" font-family="Times,serif" font-size="14.00"> b </text>
        </g>
        <!-- qT -->
        <g id="node4" class="node">
            <title>qT</title>
            <ellipse fill="white" stroke="black" cx="271.34" cy="-26.75" rx="23" ry="23" />
            <text text-anchor="middle" x="271.34" y="-23.05" font-family="Times,serif" font-size="14.00">qT</text>
        </g>
        <!-- q1&#45;&gt;qT -->
        <g id="edge4" class="edge">
            <title>q1&#45;&gt;qT</title>
            <path fill="none" stroke="black" d="M194.97,-26.75C208.18,-26.75 225.16,-26.75 239.65,-26.75" />
            <polygon fill="black" stroke="black" points="239.8,-29.72 248.3,-26.75 239.8,-23.77 239.8,-29.72" />
            <text text-anchor="middle" x="221.59" y="-30.55" font-family="Times,serif" font-size="14.00"> a </text>
        </g>
        <!-- qT&#45;&gt;qT -->
        <g id="edge6" class="edge">
            <title>qT&#45;&gt;qT</title>
            <path fill="none" stroke="black"
                d="M266.89,-49.38C266.53,-59.14 268.01,-67.5 271.34,-67.5 273.63,-67.5 275.04,-63.55 275.59,-57.9" />
            <polygon fill="black" stroke="black" points="278.56,-57.94 275.79,-49.38 272.61,-57.8 278.56,-57.94" />
            <text text-anchor="middle" x="271.34" y="-71.3" font-family="Times,serif" font-size="14.00"> a </text>
        </g>
        <!-- qT&#45;&gt;qT -->
        <g id="edge7" class="edge">
            <title>qT&#45;&gt;qT</title>
            <path fill="none" stroke="black"
                d="M263.71,-48.44C260.45,-66.56 263,-85.5 271.34,-85.5 278.38,-85.5 281.29,-72.02 280.07,-56.92" />
            <polygon fill="black" stroke="black" points="283.01,-56.49 278.97,-48.44 277.11,-57.25 283.01,-56.49" />
            <text text-anchor="middle" x="271.34" y="-89.3" font-family="Times,serif" font-size="14.00"> b </text>
        </g>
    </g>
</svg>