<?xml version="1.0" encoding="UTF-8" standalone="no"?>
<!DOCTYPE svg PUBLIC "-//W3C//DTD SVG 1.1//EN" "http://www.w3.org/Graphics/SVG/1.1/DTD/svg11.dtd">
<!-- Generated by graphviz version 2.43.0 (0)
 -->
<!-- Title: %3 Pages: 1 -->
<svg width="275pt" height="93pt" viewBox="0.00 0.00 274.60 93.00" xmlns="http://www.w3.org/2000/svg"
    xmlns:xlink="http://www.w3.org/1999/xlink">
    <g id="graph0" class="graph" transform="scale(1 1) rotate(0) translate(4 89)">
        <title>%3</title>
        <polygon fill="none" stroke="transparent" points="-4,4 -4,-89 270.6,-89 270.6,4 -4,4" />
        <!-- Initial -->
        <g id="node1" class="node">
            <title>Initial</title>
            <ellipse fill="black" stroke="black" cx="1.8" cy="-22" rx="1.8" ry="1.8" />
        </g>
        <!-- 0 -->
        <g id="node2" class="node">
            <title>0</title>
            <ellipse fill="white" stroke="black" cx="62.6" cy="-22" rx="22" ry="22" />
            <ellipse fill="none" stroke="black" cx="62.6" cy="-22" rx="18" ry="18" />
            <text text-anchor="middle" x="62.6" y="-18.3" font-family="Times,serif" font-size="14.00">0</text>
        </g>
        <!-- Initial&#45;&gt;0 -->
        <g id="edge1" class="edge">
            <title>Initial&#45;&gt;0</title>
            <path fill="none" stroke="black" d="M3.82,-22C7.33,-22 19.36,-22 31.54,-22" />
            <polygon fill="black" stroke="black" points="31.81,-24.98 40.31,-22 31.81,-19.03 31.81,-24.98" />
        </g>
        <!-- 1 -->
        <g id="node3" class="node">
            <title>1</title>
            <ellipse fill="white" stroke="black" cx="157.6" cy="-67" rx="18" ry="18" />
            <text text-anchor="middle" x="157.6" y="-63.3" font-family="Times,serif" font-size="14.00">1</text>
        </g>
        <!-- 0&#45;&gt;1 -->
        <g id="edge2" class="edge">
            <title>0&#45;&gt;1</title>
            <path fill="none" stroke="black"
                d="M78.66,-37.73C85.43,-43.96 93.86,-50.66 102.6,-55 111.34,-59.33 121.64,-62.12 130.89,-63.9" />
            <polygon fill="black" stroke="black" points="130.48,-66.85 139.35,-65.32 131.46,-60.98 130.48,-66.85" />
            <text text-anchor="middle" x="112.1" y="-64.8" font-family="Times,serif" font-size="14.00"> a </text>
        </g>
        <!-- 0&#45;&gt;1 -->
        <g id="edge3" class="edge">
            <title>0&#45;&gt;1</title>
            <path fill="none" stroke="black"
                d="M84.6,-24.54C96.02,-26.53 110.12,-30.01 121.6,-36 127.54,-39.1 133.28,-43.42 138.34,-47.85" />
            <polygon fill="black" stroke="black" points="136.53,-50.23 144.77,-53.86 140.6,-45.89 136.53,-50.23" />
            <text text-anchor="middle" x="112.1" y="-39.8" font-family="Times,serif" font-size="14.00"> b </text>
        </g>
        <!-- 2 -->
        <g id="node4" class="node">
            <title>2</title>
            <ellipse fill="white" stroke="black" cx="248.6" cy="-22" rx="18" ry="18" />
            <text text-anchor="middle" x="248.6" y="-18.3" font-family="Times,serif" font-size="14.00">2</text>
        </g>
        <!-- 1&#45;&gt;2 -->
        <g id="edge4" class="edge">
            <title>1&#45;&gt;2</title>
            <path fill="none" stroke="black"
                d="M175.96,-65.53C186.97,-64.03 201.23,-61.03 212.6,-55 219.03,-51.59 225.14,-46.68 230.41,-41.68" />
            <polygon fill="black" stroke="black" points="232.74,-43.55 236.58,-35.41 228.5,-39.38 232.74,-43.55" />
            <text text-anchor="middle" x="203.1" y="-64.8" font-family="Times,serif" font-size="14.00"> a </text>
        </g>
        <!-- 1&#45;&gt;2 -->
        <g id="edge5" class="edge">
            <title>1&#45;&gt;2</title>
            <path fill="none" stroke="black"
                d="M170.46,-53.92C176.77,-47.68 185,-40.58 193.6,-36 202.28,-31.38 212.57,-28.22 221.83,-26.09" />
            <polygon fill="black" stroke="black" points="222.57,-28.98 230.3,-24.35 221.38,-23.15 222.57,-28.98" />
            <text text-anchor="middle" x="203.1" y="-39.8" font-family="Times,serif" font-size="14.00"> b </text>
        </g>
        <!-- 2&#45;&gt;0 -->
        <g id="edge6" class="edge">
            <title>2&#45;&gt;0</title>
            <path fill="none" stroke="black" d="M230.53,-22C199.27,-22 132.46,-22 93.51,-22" />
            <polygon fill="black" stroke="black" points="93.21,-19.03 84.71,-22 93.21,-24.98 93.21,-19.03" />
            <text text-anchor="middle" x="157.6" y="-25.8" font-family="Times,serif" font-size="14.00"> a </text>
        </g>
        <!-- 2&#45;&gt;0 -->
        <g id="edge7" class="edge">
            <title>2&#45;&gt;0</title>
            <path fill="none" stroke="black"
                d="M231.25,-16.39C216.82,-11.75 195.09,-5.53 175.6,-3 146.98,0.71 114.49,-6.02 91.91,-12.48" />
            <polygon fill="black" stroke="black" points="91.05,-9.63 83.76,-14.92 92.76,-15.33 91.05,-9.63" />
            <text text-anchor="middle" x="157.6" y="-6.8" font-family="Times,serif" font-size="14.00"> b </text>
        </g>
    </g>
</svg>