<?xml version="1.0" encoding="UTF-8" standalone="no"?>
<!DOCTYPE svg PUBLIC "-//W3C//DTD SVG 1.1//EN" "http://www.w3.org/Graphics/SVG/1.1/DTD/svg11.dtd">
<!-- Generated by graphviz version 2.43.0 (0)
 -->
<!-- Title: %3 Pages: 1 -->
<svg width="403pt" height="102pt" viewBox="0.00 0.00 402.58 102.50" xmlns="http://www.w3.org/2000/svg"
    xmlns:xlink="http://www.w3.org/1999/xlink">
    <g id="graph0" class="graph" transform="scale(1 1) rotate(0) translate(4 98.5)">
        <title>%3</title>
        <polygon fill="none" stroke="transparent" points="-4,4 -4,-98.5 398.58,-98.5 398.58,4 -4,4" />
        <!-- Initial -->
        <g id="node1" class="node">
            <title>Initial</title>
            <ellipse fill="black" stroke="black" cx="1.8" cy="-26.75" rx="1.8" ry="1.8" />
        </g>
        <!-- 00 -->
        <g id="node2" class="node">
            <title>00</title>
            <ellipse fill="white" stroke="black" cx="67.35" cy="-26.75" rx="27" ry="27" />
            <ellipse fill="none" stroke="black" cx="67.35" cy="-26.75" rx="22.96" ry="22.96" />
            <text text-anchor="middle" x="67.35" y="-23.05" font-family="Times,serif" font-size="14.00">00</text>
        </g>
        <!-- Initial&#45;&gt;00 -->
        <g id="edge1" class="edge">
            <title>Initial&#45;&gt;00</title>
            <path fill="none" stroke="black" d="M3.9,-26.75C7.49,-26.75 19.32,-26.75 31.74,-26.75" />
            <polygon fill="black" stroke="black" points="31.83,-29.72 40.33,-26.75 31.83,-23.77 31.83,-29.72" />
        </g>
        <!-- 01 -->
        <g id="node3" class="node">
            <title>01</title>
            <ellipse fill="white" stroke="black" cx="171.84" cy="-71.75" rx="23" ry="23" />
            <text text-anchor="middle" x="171.84" y="-68.05" font-family="Times,serif" font-size="14.00">01</text>
        </g>
        <!-- 00&#45;&gt;01 -->
        <g id="edge3" class="edge">
            <title>00&#45;&gt;01</title>
            <path fill="none" stroke="black"
                d="M87.62,-44.22C94.85,-49.94 103.42,-55.84 112.1,-59.75 120.87,-63.71 130.97,-66.37 140.29,-68.16" />
            <polygon fill="black" stroke="black" points="140.04,-71.14 148.92,-69.62 141.04,-65.27 140.04,-71.14" />
            <text text-anchor="middle" x="121.6" y="-69.55" font-family="Times,serif" font-size="14.00"> b </text>
        </g>
        <!-- 10 -->
        <g id="node4" class="node">
            <title>10</title>
            <ellipse fill="white" stroke="black" cx="371.84" cy="-26.75" rx="23" ry="23" />
            <text text-anchor="middle" x="371.84" y="-23.05" font-family="Times,serif" font-size="14.00">10</text>
        </g>
        <!-- 00&#45;&gt;10 -->
        <g id="edge2" class="edge">
            <title>00&#45;&gt;10</title>
            <path fill="none" stroke="black" d="M94.14,-26.75C149.72,-26.75 280.58,-26.75 340.24,-26.75" />
            <polygon fill="black" stroke="black" points="340.34,-29.72 348.84,-26.75 340.34,-23.77 340.34,-29.72" />
            <text text-anchor="middle" x="221.59" y="-30.55" font-family="Times,serif" font-size="14.00"> a </text>
        </g>
        <!-- 01&#45;&gt;00 -->
        <g id="edge5" class="edge">
            <title>01&#45;&gt;00</title>
            <path fill="none" stroke="black"
                d="M154.54,-56.37C147.74,-50.7 139.49,-44.71 131.1,-40.75 122.21,-36.55 112.01,-33.59 102.46,-31.5" />
            <polygon fill="black" stroke="black" points="102.84,-28.55 93.92,-29.83 101.69,-34.38 102.84,-28.55" />
            <text text-anchor="middle" x="121.6" y="-44.55" font-family="Times,serif" font-size="14.00"> b </text>
        </g>
        <!-- 11 -->
        <g id="node5" class="node">
            <title>11</title>
            <ellipse fill="white" stroke="black" cx="271.34" cy="-71.75" rx="23" ry="23" />
            <text text-anchor="middle" x="271.34" y="-68.05" font-family="Times,serif" font-size="14.00">11</text>
        </g>
        <!-- 01&#45;&gt;11 -->
        <g id="edge4" class="edge">
            <title>01&#45;&gt;11</title>
            <path fill="none" stroke="black" d="M194.97,-71.75C208.18,-71.75 225.16,-71.75 239.65,-71.75" />
            <polygon fill="black" stroke="black" points="239.8,-74.72 248.3,-71.75 239.8,-68.77 239.8,-74.72" />
            <text text-anchor="middle" x="221.59" y="-75.55" font-family="Times,serif" font-size="14.00"> a </text>
        </g>
        <!-- 10&#45;&gt;00 -->
        <g id="edge6" class="edge">
            <title>10&#45;&gt;00</title>
            <path fill="none" stroke="black"
                d="M349.07,-22.87C321.57,-18.19 272.76,-10.59 230.59,-7.75 186.11,-4.75 135.07,-12.6 102.3,-19.1" />
            <polygon fill="black" stroke="black" points="101.3,-16.27 93.57,-20.89 102.49,-22.1 101.3,-16.27" />
            <text text-anchor="middle" x="221.59" y="-11.55" font-family="Times,serif" font-size="14.00"> a </text>
        </g>
        <!-- 10&#45;&gt;11 -->
        <g id="edge7" class="edge">
            <title>10&#45;&gt;11</title>
            <path fill="none" stroke="black"
                d="M349.6,-31.61C338.17,-34.63 324.02,-39.03 312.09,-44.75 307.05,-47.16 301.93,-50.16 297.12,-53.27" />
            <polygon fill="black" stroke="black" points="295.23,-50.96 289.86,-58.18 298.56,-55.88 295.23,-50.96" />
            <text text-anchor="middle" x="321.59" y="-48.55" font-family="Times,serif" font-size="14.00"> b </text>
        </g>
        <!-- 11&#45;&gt;01 -->
        <g id="edge8" class="edge">
            <title>11&#45;&gt;01</title>
            <path fill="none" stroke="black"
                d="M251.16,-60.46C244.83,-57.32 237.6,-54.34 230.59,-52.75 220.22,-50.4 209.06,-52.84 199.35,-56.67" />
            <polygon fill="black" stroke="black" points="198.13,-53.96 191.58,-60.14 200.55,-59.39 198.13,-53.96" />
            <text text-anchor="middle" x="221.59" y="-56.55" font-family="Times,serif" font-size="14.00"> a </text>
        </g>
        <!-- 11&#45;&gt;10 -->
        <g id="edge9" class="edge">
            <title>11&#45;&gt;10</title>
            <path fill="none" stroke="black"
                d="M294.09,-69.88C305.53,-68.27 319.54,-65.29 331.09,-59.75 337.23,-56.8 343.22,-52.7 348.62,-48.39" />
            <polygon fill="black" stroke="black" points="350.55,-50.65 355.1,-42.88 346.7,-46.12 350.55,-50.65" />
            <text text-anchor="middle" x="321.59" y="-69.55" font-family="Times,serif" font-size="14.00"> b </text>
        </g>
    </g>
</svg>