<?xml version="1.0" encoding="UTF-8" standalone="no"?>
<!DOCTYPE svg PUBLIC "-//W3C//DTD SVG 1.1//EN" "http://www.w3.org/Graphics/SVG/1.1/DTD/svg11.dtd">
<!-- Generated by graphviz version 2.43.0 (0)
 -->
<!-- Title: %3 Pages: 1 -->
<svg width="310pt" height="97pt" viewBox="0.00 0.00 310.09 97.50" xmlns="http://www.w3.org/2000/svg"
    xmlns:xlink="http://www.w3.org/1999/xlink">
    <g id="graph0" class="graph" transform="scale(1 1) rotate(0) translate(4 93.5)">
        <title>%3</title>
        <polygon fill="none" stroke="transparent" points="-4,4 -4,-93.5 306.09,-93.5 306.09,4 -4,4" />
        <!-- Initial -->
        <g id="node1" class="node">
            <title>Initial</title>
            <ellipse fill="black" stroke="black" cx="1.8" cy="-43.75" rx="1.8" ry="1.8" />
        </g>
        <!-- q0 -->
        <g id="node2" class="node">
            <title>q0</title>
            <ellipse fill="white" stroke="black" cx="67.35" cy="-43.75" rx="27" ry="27" />
            <ellipse fill="none" stroke="black" cx="67.35" cy="-43.75" rx="22.96" ry="22.96" />
            <text text-anchor="middle" x="67.35" y="-40.05" font-family="Times,serif" font-size="14.00">q0</text>
        </g>
        <!-- Initial&#45;&gt;q0 -->
        <g id="edge1" class="edge">
            <title>Initial&#45;&gt;q0</title>
            <path fill="none" stroke="black" d="M3.9,-43.75C7.49,-43.75 19.32,-43.75 31.74,-43.75" />
            <polygon fill="black" stroke="black" points="31.83,-46.72 40.33,-43.75 31.83,-40.77 31.83,-46.72" />
        </g>
        <!-- q1 -->
        <g id="node3" class="node">
            <title>q1</title>
            <ellipse fill="white" stroke="black" cx="170.84" cy="-66.75" rx="23" ry="23" />
            <text text-anchor="middle" x="170.84" y="-63.05" font-family="Times,serif" font-size="14.00">q1</text>
        </g>
        <!-- q0&#45;&gt;q1 -->
        <g id="edge2" class="edge">
            <title>q0&#45;&gt;q1</title>
            <path fill="none" stroke="black"
                d="M92.57,-53.73C98.84,-56 105.65,-58.2 112.1,-59.75 120.86,-61.85 130.53,-63.34 139.41,-64.39" />
            <polygon fill="black" stroke="black" points="139.2,-67.35 147.97,-65.29 139.83,-61.44 139.2,-67.35" />
            <text text-anchor="middle" x="121.1" y="-66.55" font-family="Times,serif" font-size="14.00"> a </text>
        </g>
        <!-- q2 -->
        <g id="node4" class="node">
            <title>q2</title>
            <ellipse fill="white" stroke="black" cx="275.34" cy="-26.75" rx="27" ry="27" />
            <ellipse fill="none" stroke="black" cx="275.34" cy="-26.75" rx="22.96" ry="22.96" />
            <text text-anchor="middle" x="275.34" y="-23.05" font-family="Times,serif" font-size="14.00">q2</text>
        </g>
        <!-- q0&#45;&gt;q2 -->
        <g id="edge3" class="edge">
            <title>q0&#45;&gt;q2</title>
            <path fill="none" stroke="black"
                d="M92.71,-34.39C108.29,-28.92 129.07,-22.55 148.1,-19.75 178.98,-15.2 214.52,-17.87 240,-21.14" />
            <polygon fill="black" stroke="black" points="239.75,-24.1 248.57,-22.31 240.55,-18.21 239.75,-24.1" />
            <text text-anchor="middle" x="170.84" y="-23.55" font-family="Times,serif" font-size="14.00"> b </text>
        </g>
        <!-- q1&#45;&gt;q0 -->
        <g id="edge4" class="edge">
            <title>q1&#45;&gt;q0</title>
            <path fill="none" stroke="black"
                d="M152.75,-52.45C146.1,-47.77 138.16,-43.15 130.1,-40.75 121.29,-38.12 111.46,-37.59 102.29,-38.04" />
            <polygon fill="black" stroke="black" points="101.97,-35.08 93.74,-38.74 102.46,-41.01 101.97,-35.08" />
            <text text-anchor="middle" x="121.1" y="-44.55" font-family="Times,serif" font-size="14.00"> a </text>
        </g>
        <!-- q1&#45;&gt;q2 -->
        <g id="edge5" class="edge">
            <title>q1&#45;&gt;q2</title>
            <path fill="none" stroke="black" d="M192.59,-58.65C206.73,-53.13 225.76,-45.71 241.89,-39.41" />
            <polygon fill="black" stroke="black" points="243.19,-42.1 250.03,-36.24 241.03,-36.56 243.19,-42.1" />
            <text text-anchor="middle" x="221.09" y="-53.55" font-family="Times,serif" font-size="14.00"> b </text>
        </g>
        <!-- q2&#45;&gt;q2 -->
        <g id="edge6" class="edge">
            <title>q2&#45;&gt;q2</title>
            <path fill="none" stroke="black"
                d="M265.34,-51.6C264.52,-62.32 267.85,-71.5 275.34,-71.5 280.72,-71.5 283.96,-66.75 285.05,-60.11" />
            <polygon fill="black" stroke="black" points="288.02,-60.19 285.34,-51.6 282.08,-59.99 288.02,-60.19" />
            <text text-anchor="middle" x="275.34" y="-75.3" font-family="Times,serif" font-size="14.00"> a </text>
        </g>
    </g>
</svg>