<?xml version="1.0" encoding="UTF-8" standalone="no"?>
<!DOCTYPE svg PUBLIC "-//W3C//DTD SVG 1.1//EN" "http://www.w3.org/Graphics/SVG/1.1/DTD/svg11.dtd">
<!-- Generated by graphviz version 2.43.0 (0)
 -->
<!-- Title: %3 Pages: 1 -->
<svg width="202pt" height="127pt" viewBox="0.00 0.00 201.59 127.50" xmlns="http://www.w3.org/2000/svg"
    xmlns:xlink="http://www.w3.org/1999/xlink">
    <g id="graph0" class="graph" transform="scale(1 1) rotate(0) translate(4 123.5)">
        <title>%3</title>
        <polygon fill="none" stroke="transparent" points="-4,4 -4,-123.5 197.59,-123.5 197.59,4 -4,4" />
        <!-- Initial -->
        <g id="node1" class="node">
            <title>Initial</title>
            <ellipse fill="black" stroke="black" cx="1.8" cy="-26.75" rx="1.8" ry="1.8" />
        </g>
        <!-- q0 -->
        <g id="node2" class="node">
            <title>q0</title>
            <ellipse fill="white" stroke="black" cx="63.35" cy="-26.75" rx="23" ry="23" />
            <text text-anchor="middle" x="63.35" y="-23.05" font-family="Times,serif" font-size="14.00">q0</text>
        </g>
        <!-- Initial&#45;&gt;q0 -->
        <g id="edge1" class="edge">
            <title>Initial&#45;&gt;q0</title>
            <path fill="none" stroke="black" d="M3.83,-26.75C7.36,-26.75 19.4,-26.75 31.65,-26.75" />
            <polygon fill="black" stroke="black" points="31.98,-29.72 40.48,-26.75 31.98,-23.77 31.98,-29.72" />
        </g>
        <!-- q1 -->
        <g id="node3" class="node">
            <title>q1</title>
            <ellipse fill="white" stroke="black" cx="166.84" cy="-26.75" rx="27" ry="27" />
            <ellipse fill="none" stroke="black" cx="166.84" cy="-26.75" rx="22.96" ry="22.96" />
            <text text-anchor="middle" x="166.84" y="-23.05" font-family="Times,serif" font-size="14.00">q1</text>
        </g>
        <!-- q0&#45;&gt;q1 -->
        <g id="edge2" class="edge">
            <title>q0&#45;&gt;q1</title>
            <path fill="none" stroke="black" d="M86.12,-26.75C99.27,-26.75 116.32,-26.75 131.27,-26.75" />
            <polygon fill="black" stroke="black" points="131.29,-29.72 139.79,-26.75 131.29,-23.77 131.29,-29.72" />
            <text text-anchor="middle" x="113.1" y="-30.55" font-family="Times,serif" font-size="14.00"> a </text>
        </g>
        <!-- q1&#45;&gt;q1 -->
        <g id="edge3" class="edge">
            <title>q1&#45;&gt;q1</title>
            <path fill="none" stroke="black"
                d="M161.98,-53.39C161.82,-63.32 163.44,-71.5 166.84,-71.5 169.18,-71.5 170.68,-67.63 171.34,-61.99" />
            <polygon fill="black" stroke="black" points="174.31,-62.01 171.71,-53.39 168.37,-61.76 174.31,-62.01" />
            <text text-anchor="middle" x="166.84" y="-75.3" font-family="Times,serif" font-size="14.00"> a </text>
        </g>
        <!-- q1&#45;&gt;q1 -->
        <g id="edge4" class="edge">
            <title>q1&#45;&gt;q1</title>
            <path fill="none" stroke="black"
                d="M158.19,-52.2C155.28,-70.83 158.16,-89.5 166.84,-89.5 174.17,-89.5 177.37,-76.21 176.44,-60.87" />
            <polygon fill="black" stroke="black" points="179.37,-60.33 175.49,-52.2 173.46,-60.97 179.37,-60.33" />
            <text text-anchor="middle" x="166.84" y="-93.3" font-family="Times,serif" font-size="14.00"> b </text>
        </g>
    </g>
</svg>