<?xml version="1.0" encoding="UTF-8" standalone="no"?>
<!DOCTYPE svg PUBLIC "-//W3C//DTD SVG 1.1//EN" "http://www.w3.org/Graphics/SVG/1.1/DTD/svg11.dtd">
<!-- Generated by graphviz version 2.43.0 (0)
 -->
<!-- Title: %3 Pages: 1 -->
<svg width="507pt" height="291pt" viewBox="0.00 0.00 507.08 291.50" xmlns="http://www.w3.org/2000/svg"
    xmlns:xlink="http://www.w3.org/1999/xlink">
    <g id="graph0" class="graph" transform="scale(1 1) rotate(0) translate(4 287.5)">
        <title>%3</title>
        <polygon fill="none" stroke="transparent" points="-4,4 -4,-287.5 503.08,-287.5 503.08,4 -4,4" />
        <!-- Initial -->
        <g id="node1" class="node">
            <title>Initial</title>
            <ellipse fill="black" stroke="black" cx="1.8" cy="-144.75" rx="1.8" ry="1.8" />
        </g>
        <!-- q0 -->
        <g id="node2" class="node">
            <title>q0</title>
            <ellipse fill="white" stroke="black" cx="63.35" cy="-144.75" rx="23" ry="23" />
            <text text-anchor="middle" x="63.35" y="-141.05" font-family="Times,serif" font-size="14.00">q0</text>
        </g>
        <!-- Initial&#45;&gt;q0 -->
        <g id="edge1" class="edge">
            <title>Initial&#45;&gt;q0</title>
            <path fill="none" stroke="black" d="M3.83,-144.75C7.36,-144.75 19.4,-144.75 31.65,-144.75" />
            <polygon fill="black" stroke="black" points="31.98,-147.72 40.48,-144.75 31.98,-141.77 31.98,-147.72" />
        </g>
        <!-- q1 -->
        <g id="node3" class="node">
            <title>q1</title>
            <ellipse fill="white" stroke="black" cx="162.84" cy="-144.75" rx="23" ry="23" />
            <text text-anchor="middle" x="162.84" y="-141.05" font-family="Times,serif" font-size="14.00">q1</text>
        </g>
        <!-- q0&#45;&gt;q1 -->
        <g id="edge2" class="edge">
            <title>q0&#45;&gt;q1</title>
            <path fill="none" stroke="black" d="M86.47,-144.75C99.68,-144.75 116.66,-144.75 131.16,-144.75" />
            <polygon fill="black" stroke="black" points="131.31,-147.72 139.81,-144.75 131.31,-141.77 131.31,-147.72" />
            <text text-anchor="middle" x="113.1" y="-148.55" font-family="Times,serif" font-size="14.00"> a </text>
        </g>
        <!-- q2 -->
        <g id="node4" class="node">
            <title>q2</title>
            <ellipse fill="white" stroke="black" cx="261.34" cy="-144.75" rx="23" ry="23" />
            <text text-anchor="middle" x="261.34" y="-141.05" font-family="Times,serif" font-size="14.00">q2</text>
        </g>
        <!-- q1&#45;&gt;q2 -->
        <g id="edge3" class="edge">
            <title>q1&#45;&gt;q2</title>
            <path fill="none" stroke="black" d="M185.74,-144.75C198.82,-144.75 215.62,-144.75 229.97,-144.75" />
            <polygon fill="black" stroke="black" points="230.03,-147.72 238.53,-144.75 230.03,-141.77 230.03,-147.72" />
            <text text-anchor="middle" x="212.09" y="-148.55" font-family="Times,serif" font-size="14.00"> ε </text>
        </g>
        <!-- q3 -->
        <g id="node5" class="node">
            <title>q3</title>
            <ellipse fill="white" stroke="black" cx="363.84" cy="-260.75" rx="23" ry="23" />
            <text text-anchor="middle" x="363.84" y="-257.05" font-family="Times,serif" font-size="14.00">q3</text>
        </g>
        <!-- q2&#45;&gt;q3 -->
        <g id="edge4" class="edge">
            <title>q2&#45;&gt;q3</title>
            <path fill="none" stroke="black"
                d="M270.47,-165.86C277.27,-181.63 288.09,-203.09 302.09,-218.75 311.6,-229.39 324.32,-238.72 335.67,-245.86" />
            <polygon fill="black" stroke="black" points="334.44,-248.59 343.25,-250.45 337.52,-243.5 334.44,-248.59" />
            <text text-anchor="middle" x="310.59" y="-237.55" font-family="Times,serif" font-size="14.00"> ε </text>
        </g>
        <!-- q5 -->
        <g id="node7" class="node">
            <title>q5</title>
            <ellipse fill="white" stroke="black" cx="363.84" cy="-22.75" rx="23" ry="23" />
            <text text-anchor="middle" x="363.84" y="-19.05" font-family="Times,serif" font-size="14.00">q5</text>
        </g>
        <!-- q2&#45;&gt;q5 -->
        <g id="edge5" class="edge">
            <title>q2&#45;&gt;q5</title>
            <path fill="none" stroke="black"
                d="M267.24,-122.61C272.72,-102.28 283.39,-72.42 302.09,-52.75 310.68,-43.71 322.56,-37.02 333.55,-32.27" />
            <polygon fill="black" stroke="black" points="334.91,-34.93 341.7,-29.02 332.71,-29.4 334.91,-34.93" />
            <text text-anchor="middle" x="310.59" y="-56.55" font-family="Times,serif" font-size="14.00"> ε </text>
        </g>
        <!-- q7 -->
        <g id="node9" class="node">
            <title>q7</title>
            <ellipse fill="white" stroke="black" cx="363.84" cy="-141.75" rx="27" ry="27" />
            <ellipse fill="none" stroke="black" cx="363.84" cy="-141.75" rx="22.96" ry="22.96" />
            <text text-anchor="middle" x="363.84" y="-138.05" font-family="Times,serif" font-size="14.00">q7</text>
        </g>
        <!-- q2&#45;&gt;q7 -->
        <g id="edge6" class="edge">
            <title>q2&#45;&gt;q7</title>
            <path fill="none" stroke="black"
                d="M281.58,-134.05C287.92,-131.08 295.13,-128.25 302.09,-126.75 311.52,-124.71 321.72,-125.89 331.02,-128.31" />
            <polygon fill="black" stroke="black" points="330.26,-131.19 339.25,-130.81 331.99,-125.49 330.26,-131.19" />
            <text text-anchor="middle" x="310.59" y="-130.55" font-family="Times,serif" font-size="14.00"> ε </text>
        </g>
        <!-- q4 -->
        <g id="node6" class="node">
            <title>q4</title>
            <ellipse fill="white" stroke="black" cx="472.33" cy="-220.75" rx="27" ry="27" />
            <ellipse fill="none" stroke="black" cx="472.33" cy="-220.75" rx="22.96" ry="22.96" />
            <text text-anchor="middle" x="472.33" y="-217.05" font-family="Times,serif" font-size="14.00">q4</text>
        </g>
        <!-- q3&#45;&gt;q4 -->
        <g id="edge7" class="edge">
            <title>q3&#45;&gt;q4</title>
            <path fill="none" stroke="black" d="M385.37,-253.04C400.54,-247.34 421.49,-239.47 438.91,-232.93" />
            <polygon fill="black" stroke="black" points="440.22,-235.61 447.13,-229.84 438.13,-230.04 440.22,-235.61" />
            <text text-anchor="middle" x="418.08" y="-246.55" font-family="Times,serif" font-size="14.00"> a </text>
        </g>
        <!-- q4&#45;&gt;q2 -->
        <g id="edge8" class="edge">
            <title>q4&#45;&gt;q2</title>
            <path fill="none" stroke="black"
                d="M446.32,-213.6C419.15,-205.63 374.61,-191.99 337.09,-177.75 321.23,-171.73 303.89,-164.14 289.9,-157.75" />
            <polygon fill="black" stroke="black" points="291.05,-155.01 282.09,-154.15 288.56,-160.41 291.05,-155.01" />
            <text text-anchor="middle" x="363.84" y="-199.55" font-family="Times,serif" font-size="14.00"> ε </text>
        </g>
        <!-- q6 -->
        <g id="node8" class="node">
            <title>q6</title>
            <ellipse fill="white" stroke="black" cx="472.33" cy="-66.75" rx="27" ry="27" />
            <ellipse fill="none" stroke="black" cx="472.33" cy="-66.75" rx="22.96" ry="22.96" />
            <text text-anchor="middle" x="472.33" y="-63.05" font-family="Times,serif" font-size="14.00">q6</text>
        </g>
        <!-- q5&#45;&gt;q6 -->
        <g id="edge9" class="edge">
            <title>q5&#45;&gt;q6</title>
            <path fill="none" stroke="black" d="M385.37,-31.23C400.54,-37.5 421.49,-46.15 438.91,-53.35" />
            <polygon fill="black" stroke="black" points="438.14,-56.25 447.13,-56.75 440.41,-50.75 438.14,-56.25" />
            <text text-anchor="middle" x="418.08" y="-51.55" font-family="Times,serif" font-size="14.00"> b </text>
        </g>
        <!-- q6&#45;&gt;q2 -->
        <g id="edge10" class="edge">
            <title>q6&#45;&gt;q2</title>
            <path fill="none" stroke="black"
                d="M445.38,-67.96C417.6,-70.03 372.72,-75.63 337.09,-90.75 318.14,-98.79 299.37,-112.38 285.37,-123.91" />
            <polygon fill="black" stroke="black" points="283.08,-121.95 278.52,-129.71 286.93,-126.49 283.08,-121.95" />
            <text text-anchor="middle" x="363.84" y="-94.55" font-family="Times,serif" font-size="14.00"> ε </text>
        </g>
        <!-- q7&#45;&gt;q2 -->
        <g id="edge11" class="edge">
            <title>q7&#45;&gt;q2</title>
            <path fill="none" stroke="black" d="M336.8,-142.53C323.39,-142.93 306.96,-143.42 292.95,-143.83" />
            <polygon fill="black" stroke="black" points="292.55,-140.87 284.15,-144.1 292.73,-146.82 292.55,-140.87" />
            <text text-anchor="middle" x="310.59" y="-146.55" font-family="Times,serif" font-size="14.00"> ε </text>
        </g>
    </g>
</svg>