<?xml version="1.0" encoding="UTF-8" standalone="no"?>
<!DOCTYPE svg PUBLIC "-//W3C//DTD SVG 1.1//EN" "http://www.w3.org/Graphics/SVG/1.1/DTD/svg11.dtd">
<!-- Generated by graphviz version 2.43.0 (0)
 -->
<!-- Title: %3 Pages: 1 -->
<svg width="576pt" height="127pt" viewBox="0.00 0.00 576.00 127.35" xmlns="http://www.w3.org/2000/svg"
    xmlns:xlink="http://www.w3.org/1999/xlink">
    <g id="graph0" class="graph" transform="scale(0.82 0.82) rotate(0) translate(4 152.1)">
        <title>%3</title>
        <polygon fill="none" stroke="transparent" points="-4,4 -4,-152.1 702.07,-152.1 702.07,4 -4,4" />
        <!-- Initial -->
        <g id="node1" class="node">
            <title>Initial</title>
            <ellipse fill="black" stroke="black" cx="1.8" cy="-65.36" rx="1.8" ry="1.8" />
        </g>
        <!-- q0 -->
        <g id="node2" class="node">
            <title>q0</title>
            <ellipse fill="white" stroke="black" cx="63.35" cy="-65.36" rx="23" ry="23" />
            <text text-anchor="middle" x="63.35" y="-61.66" font-family="Times,serif" font-size="14.00">q0</text>
        </g>
        <!-- Initial&#45;&gt;q0 -->
        <g id="edge1" class="edge">
            <title>Initial&#45;&gt;q0</title>
            <path fill="none" stroke="black" d="M3.83,-65.36C7.36,-65.36 19.4,-65.36 31.65,-65.36" />
            <polygon fill="black" stroke="black" points="31.98,-68.33 40.48,-65.36 31.98,-62.38 31.98,-68.33" />
        </g>
        <!-- q1 -->
        <g id="node3" class="node">
            <title>q1</title>
            <ellipse fill="white" stroke="black" cx="161.84" cy="-97.36" rx="23" ry="23" />
            <text text-anchor="middle" x="161.84" y="-93.66" font-family="Times,serif" font-size="14.00">q1</text>
        </g>
        <!-- q0&#45;&gt;q1 -->
        <g id="edge3" class="edge">
            <title>q0&#45;&gt;q1</title>
            <path fill="none" stroke="black" d="M85.29,-72.3C98.82,-76.79 116.62,-82.69 131.54,-87.64" />
            <polygon fill="black" stroke="black" points="130.94,-90.57 139.95,-90.43 132.82,-84.93 130.94,-90.57" />
            <text text-anchor="middle" x="112.6" y="-86.16" font-family="Times,serif" font-size="14.00"> ε </text>
        </g>
        <!-- q7 -->
        <g id="node9" class="node">
            <title>q7</title>
            <ellipse fill="white" stroke="black" cx="161.84" cy="-34.36" rx="23" ry="23" />
            <text text-anchor="middle" x="161.84" y="-30.66" font-family="Times,serif" font-size="14.00">q7</text>
        </g>
        <!-- q0&#45;&gt;q7 -->
        <g id="edge2" class="edge">
            <title>q0&#45;&gt;q7</title>
            <path fill="none" stroke="black" d="M85.29,-58.63C98.82,-54.28 116.62,-48.56 131.54,-43.77" />
            <polygon fill="black" stroke="black" points="132.76,-46.5 139.95,-41.07 130.94,-40.84 132.76,-46.5" />
            <text text-anchor="middle" x="112.6" y="-55.16" font-family="Times,serif" font-size="14.00"> ε </text>
        </g>
        <!-- q2 -->
        <g id="node4" class="node">
            <title>q2</title>
            <ellipse fill="white" stroke="black" cx="261.34" cy="-121.36" rx="23" ry="23" />
            <text text-anchor="middle" x="261.34" y="-117.66" font-family="Times,serif" font-size="14.00">q2</text>
        </g>
        <!-- q1&#45;&gt;q2 -->
        <g id="edge4" class="edge">
            <title>q1&#45;&gt;q2</title>
            <path fill="none" stroke="black" d="M184,-102.56C197.58,-105.91 215.41,-110.3 230.43,-113.99" />
            <polygon fill="black" stroke="black" points="229.92,-116.93 238.89,-116.08 231.35,-111.15 229.92,-116.93" />
            <text text-anchor="middle" x="211.59" y="-115.16" font-family="Times,serif" font-size="14.00"> a </text>
        </g>
        <!-- q2&#45;&gt;q1 -->
        <g id="edge6" class="edge">
            <title>q2&#45;&gt;q1</title>
            <path fill="none" stroke="black"
                d="M245.82,-104.53C238.93,-97.83 230.13,-90.88 220.59,-87.36 211.38,-83.95 200.92,-84.54 191.44,-86.58" />
            <polygon fill="black" stroke="black" points="190.54,-83.74 183.09,-88.8 192.07,-89.5 190.54,-83.74" />
            <text text-anchor="middle" x="211.59" y="-91.16" font-family="Times,serif" font-size="14.00"> ε </text>
        </g>
        <!-- q3 -->
        <g id="node5" class="node">
            <title>q3</title>
            <ellipse fill="white" stroke="black" cx="364.84" cy="-121.36" rx="23" ry="23" />
            <text text-anchor="middle" x="364.84" y="-117.66" font-family="Times,serif" font-size="14.00">q3</text>
        </g>
        <!-- q2&#45;&gt;q3 -->
        <g id="edge5" class="edge">
            <title>q2&#45;&gt;q3</title>
            <path fill="none" stroke="black" d="M284.11,-121.36C298.33,-121.36 317.11,-121.36 332.87,-121.36" />
            <polygon fill="black" stroke="black" points="333.25,-124.33 341.75,-121.36 333.25,-118.38 333.25,-124.33" />
            <text text-anchor="middle" x="311.09" y="-125.16" font-family="Times,serif" font-size="14.00"> ε </text>
        </g>
        <!-- q4 -->
        <g id="node6" class="node">
            <title>q4</title>
            <ellipse fill="white" stroke="black" cx="469.33" cy="-121.36" rx="23" ry="23" />
            <text text-anchor="middle" x="469.33" y="-117.66" font-family="Times,serif" font-size="14.00">q4</text>
        </g>
        <!-- q3&#45;&gt;q4 -->
        <g id="edge7" class="edge">
            <title>q3&#45;&gt;q4</title>
            <path fill="none" stroke="black" d="M387.82,-121.36C402.42,-121.36 421.77,-121.36 437.84,-121.36" />
            <polygon fill="black" stroke="black" points="437.88,-124.33 446.38,-121.36 437.88,-118.38 437.88,-124.33" />
            <text text-anchor="middle" x="419.08" y="-125.16" font-family="Times,serif" font-size="14.00"> b </text>
        </g>
        <!-- q5 -->
        <g id="node7" class="node">
            <title>q5</title>
            <ellipse fill="white" stroke="black" cx="567.83" cy="-121.36" rx="23" ry="23" />
            <text text-anchor="middle" x="567.83" y="-117.66" font-family="Times,serif" font-size="14.00">q5</text>
        </g>
        <!-- q4&#45;&gt;q5 -->
        <g id="edge8" class="edge">
            <title>q4&#45;&gt;q5</title>
            <path fill="none" stroke="black" d="M492.23,-121.36C505.31,-121.36 522.11,-121.36 536.46,-121.36" />
            <polygon fill="black" stroke="black" points="536.52,-124.33 545.02,-121.36 536.52,-118.38 536.52,-124.33" />
            <text text-anchor="middle" x="518.58" y="-125.16" font-family="Times,serif" font-size="14.00"> ε </text>
        </g>
        <!-- q6 -->
        <g id="node8" class="node">
            <title>q6</title>
            <ellipse fill="white" stroke="black" cx="671.32" cy="-121.36" rx="27" ry="27" />
            <ellipse fill="none" stroke="black" cx="671.32" cy="-121.36" rx="22.96" ry="22.96" />
            <text text-anchor="middle" x="671.32" y="-117.66" font-family="Times,serif" font-size="14.00">q6</text>
        </g>
        <!-- q5&#45;&gt;q6 -->
        <g id="edge9" class="edge">
            <title>q5&#45;&gt;q6</title>
            <path fill="none" stroke="black" d="M590.6,-121.36C603.75,-121.36 620.8,-121.36 635.75,-121.36" />
            <polygon fill="black" stroke="black" points="635.77,-124.33 644.27,-121.36 635.77,-118.38 635.77,-124.33" />
            <text text-anchor="middle" x="617.58" y="-125.16" font-family="Times,serif" font-size="14.00"> a </text>
        </g>
        <!-- q6&#45;&gt;q5 -->
        <g id="edge10" class="edge">
            <title>q6&#45;&gt;q5</title>
            <path fill="none" stroke="black"
                d="M647.67,-108.45C636.09,-103.37 621.7,-99.38 608.58,-102.36 604.3,-103.32 599.95,-104.81 595.77,-106.53" />
            <polygon fill="black" stroke="black" points="594.51,-103.84 588.01,-110.07 596.98,-109.25 594.51,-103.84" />
            <text text-anchor="middle" x="617.58" y="-106.16" font-family="Times,serif" font-size="14.00"> ε </text>
        </g>
        <!-- q8 -->
        <g id="node10" class="node">
            <title>q8</title>
            <ellipse fill="white" stroke="black" cx="261.34" cy="-49.36" rx="23" ry="23" />
            <text text-anchor="middle" x="261.34" y="-45.66" font-family="Times,serif" font-size="14.00">q8</text>
        </g>
        <!-- q7&#45;&gt;q8 -->
        <g id="edge11" class="edge">
            <title>q7&#45;&gt;q8</title>
            <path fill="none" stroke="black" d="M184.48,-37.68C197.86,-39.74 215.24,-42.42 229.98,-44.68" />
            <polygon fill="black" stroke="black" points="229.91,-47.68 238.76,-46.04 230.81,-41.8 229.91,-47.68" />
            <text text-anchor="middle" x="211.59" y="-46.16" font-family="Times,serif" font-size="14.00"> a </text>
        </g>
        <!-- q9 -->
        <g id="node11" class="node">
            <title>q9</title>
            <ellipse fill="white" stroke="black" cx="364.84" cy="-28.36" rx="27" ry="27" />
            <ellipse fill="none" stroke="black" cx="364.84" cy="-28.36" rx="22.96" ry="22.96" />
            <text text-anchor="middle" x="364.84" y="-24.66" font-family="Times,serif" font-size="14.00">q9</text>
        </g>
        <!-- q8&#45;&gt;q9 -->
        <g id="edge12" class="edge">
            <title>q8&#45;&gt;q9</title>
            <path fill="none" stroke="black" d="M283.86,-44.9C297.19,-42.14 314.6,-38.54 329.77,-35.4" />
            <polygon fill="black" stroke="black" points="330.68,-38.25 338.4,-33.62 329.47,-32.43 330.68,-38.25" />
            <text text-anchor="middle" x="311.09" y="-44.16" font-family="Times,serif" font-size="14.00"> a </text>
        </g>
        <!-- q9&#45;&gt;q7 -->
        <g id="edge13" class="edge">
            <title>q9&#45;&gt;q7</title>
            <path fill="none" stroke="black"
                d="M339.84,-17.52C314.64,-7.52 273.85,4.79 238.59,-2.36 221.75,-5.77 204,-13.05 189.92,-19.8" />
            <polygon fill="black" stroke="black" points="188.38,-17.24 182.08,-23.68 191.02,-22.57 188.38,-17.24" />
            <text text-anchor="middle" x="261.34" y="-6.16" font-family="Times,serif" font-size="14.00"> ε </text>
        </g>
    </g>
</svg>