<?xml version="1.0" encoding="UTF-8" standalone="no"?>
<!DOCTYPE svg PUBLIC "-//W3C//DTD SVG 1.1//EN" "http://www.w3.org/Graphics/SVG/1.1/DTD/svg11.dtd">
<!-- Generated by graphviz version 2.43.0 (0)
 -->
<!-- Pages: 1 -->
<svg width="227pt" height="116pt" viewBox="0.00 0.00 226.60 116.00" xmlns="http://www.w3.org/2000/svg"
    xmlns:xlink="http://www.w3.org/1999/xlink">
    <g id="graph0" class="graph" transform="scale(1 1) rotate(0) translate(4 112)">
        <polygon fill="none" stroke="transparent" points="-4,4 -4,-112 222.6,-112 222.6,4 -4,4" />
        <!-- 1bebbe0e&#45;2b82&#45;4ef9&#45;94da&#45;73ed4a8d8719 -->
        <g id="node1" class="node">
            <title>1bebbe0e&#45;2b82&#45;4ef9&#45;94da&#45;73ed4a8d8719</title>
            <g id="a_node1"><a xlink:title=".">
                    <ellipse fill="black" stroke="black" cx="1.8" cy="-22.5" rx="1.8" ry="1.8" />
                </a>
            </g>
        </g>
        <!-- q0 -->
        <g id="node2" class="node">
            <title>q0</title>
            <ellipse fill="white" stroke="black" cx="63.1" cy="-22.5" rx="22.5" ry="22.5" />
            <text text-anchor="middle" x="63.1" y="-18.8" font-family="Times,serif" font-size="14.00">q0</text>
        </g>
        <!-- 1bebbe0e&#45;2b82&#45;4ef9&#45;94da&#45;73ed4a8d8719&#45;&gt;q0 -->
        <g id="edge1" class="edge">
            <title>1bebbe0e&#45;2b82&#45;4ef9&#45;94da&#45;73ed4a8d8719&#45;&gt;q0</title>
            <g id="a_edge1"><a xlink:title="&#45;&gt;q0">
                    <path fill="none" stroke="black" d="M3.83,-22.5C7.34,-22.5 19.33,-22.5 31.53,-22.5" />
                    <polygon fill="black" stroke="black" points="31.82,-25.48 40.32,-22.5 31.82,-19.53 31.82,-25.48" />
                </a>
            </g>
        </g>
        <!-- q0&#45;&gt;q0 -->
        <g id="edge2" class="edge">
            <title>q0&#45;&gt;q0</title>
            <path fill="none" stroke="black"
                d="M55.75,-44.17C54.95,-54.22 57.4,-63 63.1,-63 67.02,-63 69.4,-58.85 70.25,-52.99" />
            <polygon fill="black" stroke="black" points="73.23,-52.73 70.45,-44.17 67.28,-52.6 73.23,-52.73" />
            <text text-anchor="middle" x="63.1" y="-96.8" font-family="Times,serif" font-size="14.00">(, A | AA</text>
            <text text-anchor="middle" x="63.1" y="-81.8" font-family="Times,serif" font-size="14.00">(, Z0 | AZ0</text>
            <text text-anchor="middle" x="63.1" y="-66.8" font-family="Times,serif" font-size="14.00">), A | ε</text>
        </g>
        <!-- qf -->
        <g id="node3" class="node">
            <title>qf</title>
            <ellipse fill="white" stroke="black" cx="198.6" cy="-22.5" rx="20" ry="20" />
            <text text-anchor="middle" x="198.6" y="-18.8" font-family="Times,serif" font-size="14.00">qf</text>
        </g>
        <!-- q0&#45;&gt;qf -->
        <g id="edge3" class="edge">
            <title>q0&#45;&gt;qf</title>
            <path fill="none" stroke="black" d="M85.85,-22.5C108.75,-22.5 144.87,-22.5 169.82,-22.5" />
            <polygon fill="black" stroke="black" points="169.96,-25.48 178.46,-22.5 169.96,-19.53 169.96,-25.48" />
            <text text-anchor="middle" x="132.1" y="-26.3" font-family="Times,serif" font-size="14.00">ε, Z0 | ε</text>
        </g>
    </g>
</svg>