<?xml version="1.0" encoding="UTF-8" standalone="no"?>
<!DOCTYPE svg PUBLIC "-//W3C//DTD SVG 1.1//EN" "http://www.w3.org/Graphics/SVG/1.1/DTD/svg11.dtd">
<!-- Generated by graphviz version 2.43.0 (0)
 -->
<!-- Pages: 1 -->
<svg width="399pt" height="124pt" viewBox="0.00 0.00 398.60 123.50" xmlns="http://www.w3.org/2000/svg"
    xmlns:xlink="http://www.w3.org/1999/xlink">
    <g id="graph0" class="graph" transform="scale(1 1) rotate(0) translate(4 119.5)">
        <polygon fill="none" stroke="transparent" points="-4,4 -4,-119.5 394.6,-119.5 394.6,4 -4,4" />
        <!-- cdf1b74d&#45;1947&#45;4aaa&#45;b9fd&#45;2d0d26226d0b -->
        <g id="node1" class="node">
            <title>cdf1b74d&#45;1947&#45;4aaa&#45;b9fd&#45;2d0d26226d0b</title>
            <g id="a_node1"><a xlink:title=".">
                    <ellipse fill="black" stroke="black" cx="1.8" cy="-37" rx="1.8" ry="1.8" />
                </a>
            </g>
        </g>
        <!-- q0 -->
        <g id="node2" class="node">
            <title>q0</title>
            <ellipse fill="white" stroke="black" cx="63.1" cy="-37" rx="22.5" ry="22.5" />
            <text text-anchor="middle" x="63.1" y="-33.3" font-family="Times,serif" font-size="14.00">q0</text>
        </g>
        <!-- cdf1b74d&#45;1947&#45;4aaa&#45;b9fd&#45;2d0d26226d0b&#45;&gt;q0 -->
        <g id="edge1" class="edge">
            <title>cdf1b74d&#45;1947&#45;4aaa&#45;b9fd&#45;2d0d26226d0b&#45;&gt;q0</title>
            <g id="a_edge1"><a xlink:title="&#45;&gt;q0">
                    <path fill="none" stroke="black" d="M3.83,-37C7.34,-37 19.33,-37 31.53,-37" />
                    <polygon fill="black" stroke="black" points="31.82,-39.98 40.32,-37 31.82,-34.03 31.82,-39.98" />
                </a>
            </g>
        </g>
        <!-- q0&#45;&gt;q0 -->
        <g id="edge2" class="edge">
            <title>q0&#45;&gt;q0</title>
            <path fill="none" stroke="black"
                d="M55.75,-58.67C54.95,-68.72 57.4,-77.5 63.1,-77.5 67.02,-77.5 69.4,-73.35 70.25,-67.49" />
            <polygon fill="black" stroke="black" points="73.23,-67.23 70.45,-58.67 67.28,-67.1 73.23,-67.23" />
            <text text-anchor="middle" x="63.1" y="-96.3" font-family="Times,serif" font-size="14.00">a, A | AA</text>
            <text text-anchor="middle" x="63.1" y="-81.3" font-family="Times,serif" font-size="14.00">a, Z0 | AZ0</text>
        </g>
        <!-- q1 -->
        <g id="node3" class="node">
            <title>q1</title>
            <ellipse fill="white" stroke="black" cx="229.1" cy="-60" rx="22.5" ry="22.5" />
            <text text-anchor="middle" x="229.1" y="-56.3" font-family="Times,serif" font-size="14.00">q1</text>
        </g>
        <!-- q0&#45;&gt;q1 -->
        <g id="edge3" class="edge">
            <title>q0&#45;&gt;q1</title>
            <path fill="none" stroke="black"
                d="M83.78,-46.45C89.99,-49.03 96.96,-51.51 103.6,-53 135.02,-60.04 171.96,-61.26 197.39,-61.05" />
            <polygon fill="black" stroke="black" points="197.76,-64.02 206.21,-60.92 197.67,-58.07 197.76,-64.02" />
            <text text-anchor="middle" x="143.1" y="-63.8" font-family="Times,serif" font-size="14.00">b, A | ε</text>
        </g>
        <!-- qf -->
        <g id="node4" class="node">
            <title>qf</title>
            <ellipse fill="white" stroke="black" cx="370.6" cy="-20" rx="20" ry="20" />
            <text text-anchor="middle" x="370.6" y="-16.3" font-family="Times,serif" font-size="14.00">qf</text>
        </g>
        <!-- q0&#45;&gt;qf -->
        <g id="edge4" class="edge">
            <title>q0&#45;&gt;qf</title>
            <path fill="none" stroke="black"
                d="M84.37,-29.4C90.48,-27.37 97.25,-25.36 103.6,-24 188.89,-5.79 293.08,-12.27 341.89,-16.92" />
            <polygon fill="black" stroke="black" points="341.86,-19.91 350.61,-17.79 342.45,-13.99 341.86,-19.91" />
            <text text-anchor="middle" x="229.1" y="-15.8" font-family="Times,serif" font-size="14.00">ε, Z0 | ε</text>
        </g>
        <!-- q1&#45;&gt;q0 -->
        <g id="edge5" class="edge">
            <title>q1&#45;&gt;q0</title>
            <path fill="none" stroke="black"
                d="M210.45,-47.06C202.39,-41.92 192.45,-36.62 182.6,-34 153.19,-26.19 118.23,-28.4 93.94,-31.66" />
            <polygon fill="black" stroke="black" points="93.48,-28.72 85.5,-32.9 94.34,-34.61 93.48,-28.72" />
            <text text-anchor="middle" x="143.1" y="-37.8" font-family="Times,serif" font-size="14.00">a, Z0 |
                AZ0</text>
        </g>
        <!-- q1&#45;&gt;q1 -->
        <g id="edge6" class="edge">
            <title>q1&#45;&gt;q1</title>
            <path fill="none" stroke="black"
                d="M216.09,-78.75C213.2,-89.95 217.54,-100.5 229.1,-100.5 237.59,-100.5 242.19,-94.81 242.88,-87.35" />
            <polygon fill="black" stroke="black" points="245.83,-86.95 242.11,-78.75 239.91,-87.48 245.83,-86.95" />
            <text text-anchor="middle" x="229.1" y="-104.3" font-family="Times,serif" font-size="14.00">b, A | ε</text>
        </g>
        <!-- q1&#45;&gt;qf -->
        <g id="edge7" class="edge">
            <title>q1&#45;&gt;qf</title>
            <path fill="none" stroke="black" d="M250.98,-54.01C275.43,-47 315.97,-35.38 342.74,-27.7" />
            <polygon fill="black" stroke="black" points="343.9,-30.47 351.25,-25.26 342.26,-24.75 343.9,-30.47" />
            <text text-anchor="middle" x="304.1" y="-48.8" font-family="Times,serif" font-size="14.00">ε, Z0 | ε</text>
        </g>
    </g>
</svg>