<?xml version="1.0" encoding="UTF-8" standalone="no"?>
<!DOCTYPE svg PUBLIC "-//W3C//DTD SVG 1.1//EN" "http://www.w3.org/Graphics/SVG/1.1/DTD/svg11.dtd">
<!-- Generated by graphviz version 2.43.0 (0)
 -->
<!-- Pages: 1 -->
<svg width="302pt" height="191pt" viewBox="0.00 0.00 301.60 191.00" xmlns="http://www.w3.org/2000/svg"
    xmlns:xlink="http://www.w3.org/1999/xlink">
    <g id="graph0" class="graph" transform="scale(1 1) rotate(0) translate(4 187)">
        <polygon fill="none" stroke="transparent" points="-4,4 -4,-187 297.6,-187 297.6,4 -4,4" />
        <!-- 2664e487&#45;89a3&#45;42cc&#45;969c&#45;e44705d85636 -->
        <g id="node1" class="node">
            <title>2664e487&#45;89a3&#45;42cc&#45;969c&#45;e44705d85636</title>
            <g id="a_node1"><a xlink:title=".">
                    <ellipse fill="black" stroke="black" cx="1.8" cy="-22.5" rx="1.8" ry="1.8" />
                </a>
            </g>
        </g>
        <!-- q0 -->
        <g id="node2" class="node">
            <title>q0</title>
            <ellipse fill="white" stroke="black" cx="100.6" cy="-22.5" rx="22.5" ry="22.5" />
            <text text-anchor="middle" x="100.6" y="-18.8" font-family="Times,serif" font-size="14.00">q0</text>
        </g>
        <!-- 2664e487&#45;89a3&#45;42cc&#45;969c&#45;e44705d85636&#45;&gt;q0 -->
        <g id="edge1" class="edge">
            <title>2664e487&#45;89a3&#45;42cc&#45;969c&#45;e44705d85636&#45;&gt;q0</title>
            <g id="a_edge1"><a xlink:title="&#45;&gt;q0">
                    <path fill="none" stroke="black" d="M3.89,-22.5C10.28,-22.5 43.56,-22.5 69.1,-22.5" />
                    <polygon fill="black" stroke="black" points="69.26,-25.48 77.76,-22.5 69.26,-19.53 69.26,-25.48" />
                </a>
            </g>
        </g>
        <!-- q0&#45;&gt;q0 -->
        <g id="edge2" class="edge">
            <title>q0&#45;&gt;q0</title>
            <path fill="none" stroke="black"
                d="M87.01,-40.83C83.73,-52.19 88.26,-63 100.6,-63 109.66,-63 114.51,-57.17 115.15,-49.57" />
            <polygon fill="black" stroke="black" points="118.08,-48.95 114.19,-40.83 112.16,-49.6 118.08,-48.95" />
            <text text-anchor="middle" x="100.6" y="-171.8" font-family="Times,serif" font-size="14.00">(, A | AA</text>
            <text text-anchor="middle" x="100.6" y="-156.8" font-family="Times,serif" font-size="14.00">(, B | AB</text>
            <text text-anchor="middle" x="100.6" y="-141.8" font-family="Times,serif" font-size="14.00">(, Z0 |
                AZ0</text>
            <text text-anchor="middle" x="100.6" y="-126.8" font-family="Times,serif" font-size="14.00">), A | ε</text>
            <text text-anchor="middle" x="100.6" y="-111.8" font-family="Times,serif" font-size="14.00">[, A | BA</text>
            <text text-anchor="middle" x="100.6" y="-96.8" font-family="Times,serif" font-size="14.00">[, B | BB</text>
            <text text-anchor="middle" x="100.6" y="-81.8" font-family="Times,serif" font-size="14.00">[, Z0 |
                BZ0</text>
            <text text-anchor="middle" x="100.6" y="-66.8" font-family="Times,serif" font-size="14.00">], B | ε</text>
        </g>
        <!-- qf -->
        <g id="node3" class="node">
            <title>qf</title>
            <ellipse fill="white" stroke="black" cx="273.6" cy="-22.5" rx="20" ry="20" />
            <text text-anchor="middle" x="273.6" y="-18.8" font-family="Times,serif" font-size="14.00">qf</text>
        </g>
        <!-- q0&#45;&gt;qf -->
        <g id="edge3" class="edge">
            <title>q0&#45;&gt;qf</title>
            <path fill="none" stroke="black" d="M123.26,-22.5C154.19,-22.5 211.04,-22.5 244.97,-22.5" />
            <polygon fill="black" stroke="black" points="244.98,-25.48 253.48,-22.5 244.98,-19.53 244.98,-25.48" />
            <text text-anchor="middle" x="207.1" y="-26.3" font-family="Times,serif" font-size="14.00">ε, Z0 | ε</text>
        </g>
    </g>
</svg>