<?xml version="1.0" encoding="UTF-8" standalone="no"?>
<!DOCTYPE svg PUBLIC "-//W3C//DTD SVG 1.1//EN" "http://www.w3.org/Graphics/SVG/1.1/DTD/svg11.dtd">
<!-- Generated by graphviz version 2.43.0 (0)
 -->
<!-- Pages: 1 -->
<svg width="376pt" height="166pt" viewBox="0.00 0.00 375.60 165.50" xmlns="http://www.w3.org/2000/svg"
    xmlns:xlink="http://www.w3.org/1999/xlink">
    <g id="graph0" class="graph" transform="scale(1 1) rotate(0) translate(4 161.5)">
        <polygon fill="none" stroke="transparent" points="-4,4 -4,-161.5 371.6,-161.5 371.6,4 -4,4" />
        <!-- d2125d0c&#45;91ce&#45;48ba&#45;9ad2&#45;4ff351aa7a0b -->
        <g id="node1" class="node">
            <title>d2125d0c&#45;91ce&#45;48ba&#45;9ad2&#45;4ff351aa7a0b</title>
            <g id="a_node1"><a xlink:title=".">
                    <ellipse fill="black" stroke="black" cx="1.8" cy="-32" rx="1.8" ry="1.8" />
                </a>
            </g>
        </g>
        <!-- q0 -->
        <g id="node2" class="node">
            <title>q0</title>
            <ellipse fill="white" stroke="black" cx="63.1" cy="-32" rx="22.5" ry="22.5" />
            <text text-anchor="middle" x="63.1" y="-28.3" font-family="Times,serif" font-size="14.00">q0</text>
        </g>
        <!-- d2125d0c&#45;91ce&#45;48ba&#45;9ad2&#45;4ff351aa7a0b&#45;&gt;q0 -->
        <g id="edge1" class="edge">
            <title>d2125d0c&#45;91ce&#45;48ba&#45;9ad2&#45;4ff351aa7a0b&#45;&gt;q0</title>
            <g id="a_edge1"><a xlink:title="&#45;&gt;q0">
                    <path fill="none" stroke="black" d="M3.83,-32C7.34,-32 19.33,-32 31.53,-32" />
                    <polygon fill="black" stroke="black" points="31.82,-34.98 40.32,-32 31.82,-29.03 31.82,-34.98" />
                </a>
            </g>
        </g>
        <!-- q0&#45;&gt;q0 -->
        <g id="edge2" class="edge">
            <title>q0&#45;&gt;q0</title>
            <path fill="none" stroke="black"
                d="M55.75,-53.67C54.95,-63.72 57.4,-72.5 63.1,-72.5 67.02,-72.5 69.4,-68.35 70.25,-62.49" />
            <polygon fill="black" stroke="black" points="73.23,-62.23 70.45,-53.67 67.28,-62.1 73.23,-62.23" />
            <text text-anchor="middle" x="63.1" y="-91.3" font-family="Times,serif" font-size="14.00">a, A | AA</text>
            <text text-anchor="middle" x="63.1" y="-76.3" font-family="Times,serif" font-size="14.00">a, Z0 | AZ0</text>
        </g>
        <!-- q1 -->
        <g id="node3" class="node">
            <title>q1</title>
            <ellipse fill="white" stroke="black" cx="194.6" cy="-72" rx="22.5" ry="22.5" />
            <text text-anchor="middle" x="194.6" y="-68.3" font-family="Times,serif" font-size="14.00">q1</text>
        </g>
        <!-- q0&#45;&gt;q1 -->
        <g id="edge3" class="edge">
            <title>q0&#45;&gt;q1</title>
            <path fill="none" stroke="black" d="M84.91,-38.43C106.43,-45.07 140.22,-55.51 164.41,-62.98" />
            <polygon fill="black" stroke="black" points="163.85,-65.92 172.85,-65.59 165.6,-60.24 163.85,-65.92" />
            <text text-anchor="middle" x="128.1" y="-62.8" font-family="Times,serif" font-size="14.00">b, A | ε</text>
        </g>
        <!-- qf -->
        <g id="node4" class="node">
            <title>qf</title>
            <ellipse fill="white" stroke="black" cx="335.6" cy="-32" rx="32" ry="32" />
            <ellipse fill="none" stroke="black" cx="335.6" cy="-32" rx="28" ry="28" />
            <text text-anchor="middle" x="335.6" y="-28.3" font-family="Times,serif" font-size="14.00">qf</text>
        </g>
        <!-- q0&#45;&gt;qf -->
        <g id="edge4" class="edge">
            <title>q0&#45;&gt;qf</title>
            <path fill="none" stroke="black"
                d="M85.7,-30.16C107.2,-28.43 141.15,-25.97 170.6,-25 213.09,-23.61 261.74,-26.21 294.95,-28.63" />
            <polygon fill="black" stroke="black" points="294.77,-31.6 303.47,-29.27 295.22,-25.67 294.77,-31.6" />
            <text text-anchor="middle" x="194.6" y="-28.8" font-family="Times,serif" font-size="14.00">ε, A | ε</text>
        </g>
        <!-- q1&#45;&gt;q1 -->
        <g id="edge5" class="edge">
            <title>q1&#45;&gt;q1</title>
            <path fill="none" stroke="black"
                d="M182.82,-91.59C180.62,-102.47 184.55,-112.5 194.6,-112.5 201.83,-112.5 205.89,-107.32 206.78,-100.36" />
            <polygon fill="black" stroke="black" points="209.74,-99.94 206.38,-91.59 203.8,-100.21 209.74,-99.94" />
            <text text-anchor="middle" x="194.6" y="-146.3" font-family="Times,serif" font-size="14.00">b, A | ε</text>
            <text text-anchor="middle" x="194.6" y="-131.3" font-family="Times,serif" font-size="14.00">b, B | BB</text>
            <text text-anchor="middle" x="194.6" y="-116.3" font-family="Times,serif" font-size="14.00">b, Z0 | B</text>
        </g>
        <!-- q1&#45;&gt;qf -->
        <g id="edge6" class="edge">
            <title>q1&#45;&gt;qf</title>
            <path fill="none" stroke="black" d="M216.41,-66.01C237.44,-59.96 270.41,-50.47 296.19,-43.05" />
            <polygon fill="black" stroke="black" points="297.29,-45.83 304.63,-40.62 295.64,-40.12 297.29,-45.83" />
            <text text-anchor="middle" x="261.1" y="-78.8" font-family="Times,serif" font-size="14.00">ε, A | ε</text>
            <text text-anchor="middle" x="261.1" y="-63.8" font-family="Times,serif" font-size="14.00">ε, B | ε</text>
        </g>
    </g>
</svg>