<?xml version="1.0" encoding="UTF-8" standalone="no"?>
<!DOCTYPE svg PUBLIC "-//W3C//DTD SVG 1.1//EN" "http://www.w3.org/Graphics/SVG/1.1/DTD/svg11.dtd">
<!-- Generated by graphviz version 2.43.0 (0)
 -->
<!-- Pages: 1 -->
<svg width="286pt" height="176pt" viewBox="0.00 0.00 285.60 175.50" xmlns="http://www.w3.org/2000/svg"
    xmlns:xlink="http://www.w3.org/1999/xlink">
    <g id="graph0" class="graph" transform="scale(1 1) rotate(0) translate(4 171.5)">
        <polygon fill="none" stroke="transparent" points="-4,4 -4,-171.5 281.6,-171.5 281.6,4 -4,4" />
        <!-- c91d76a3&#45;10fb&#45;4d8c&#45;9406&#45;ba525de0d378 -->
        <g id="node1" class="node">
            <title>c91d76a3&#45;10fb&#45;4d8c&#45;9406&#45;ba525de0d378</title>
            <g id="a_node1"><a xlink:title=".">
                    <ellipse fill="black" stroke="black" cx="1.8" cy="-37" rx="1.8" ry="1.8" />
                </a>
            </g>
        </g>
        <!-- q0 -->
        <g id="node2" class="node">
            <title>q0</title>
            <ellipse fill="white" stroke="black" cx="85.6" cy="-37" rx="22.5" ry="22.5" />
            <text text-anchor="middle" x="85.6" y="-33.3" font-family="Times,serif" font-size="14.00">q0</text>
        </g>
        <!-- c91d76a3&#45;10fb&#45;4d8c&#45;9406&#45;ba525de0d378&#45;&gt;q0 -->
        <g id="edge1" class="edge">
            <title>c91d76a3&#45;10fb&#45;4d8c&#45;9406&#45;ba525de0d378&#45;&gt;q0</title>
            <g id="a_edge1"><a xlink:title="&#45;&gt;q0">
                    <path fill="none" stroke="black" d="M3.72,-37C8.76,-37 33.56,-37 54.39,-37" />
                    <polygon fill="black" stroke="black" points="54.5,-39.98 63,-37 54.5,-34.03 54.5,-39.98" />
                </a>
            </g>
        </g>
        <!-- q0&#45;&gt;q0 -->
        <g id="edge2" class="edge">
            <title>q0&#45;&gt;q0</title>
            <path fill="none" stroke="black"
                d="M74.45,-57C72.56,-67.73 76.28,-77.5 85.6,-77.5 92.3,-77.5 96.11,-72.45 97.01,-65.63" />
            <polygon fill="black" stroke="black" points="99.98,-65.41 96.75,-57 94.03,-65.59 99.98,-65.41" />
            <text text-anchor="middle" x="85.6" y="-156.3" font-family="Times,serif" font-size="14.00">a, A | AA</text>
            <text text-anchor="middle" x="85.6" y="-141.3" font-family="Times,serif" font-size="14.00">a, B | AB</text>
            <text text-anchor="middle" x="85.6" y="-126.3" font-family="Times,serif" font-size="14.00">a, Z0 | A</text>
            <text text-anchor="middle" x="85.6" y="-111.3" font-family="Times,serif" font-size="14.00">b, A | BA</text>
            <text text-anchor="middle" x="85.6" y="-96.3" font-family="Times,serif" font-size="14.00">b, B | BB</text>
            <text text-anchor="middle" x="85.6" y="-81.3" font-family="Times,serif" font-size="14.00">b, Z0 | B</text>
        </g>
        <!-- q1 -->
        <g id="node3" class="node">
            <title>q1</title>
            <ellipse fill="white" stroke="black" cx="250.6" cy="-77" rx="22.5" ry="22.5" />
            <text text-anchor="middle" x="250.6" y="-73.3" font-family="Times,serif" font-size="14.00">q1</text>
        </g>
        <!-- q0&#45;&gt;q1 -->
        <g id="edge3" class="edge">
            <title>q0&#45;&gt;q1</title>
            <path fill="none" stroke="black" d="M107.58,-42.15C136.11,-49.15 187.3,-61.71 219.81,-69.69" />
            <polygon fill="black" stroke="black" points="219.48,-72.67 228.45,-71.81 220.9,-66.89 219.48,-72.67" />
            <text text-anchor="middle" x="177.1" y="-83.8" font-family="Times,serif" font-size="14.00">ε, A | A</text>
            <text text-anchor="middle" x="177.1" y="-68.8" font-family="Times,serif" font-size="14.00">ε, B | B</text>
        </g>
        <!-- qf -->
        <g id="node4" class="node">
            <title>qf</title>
            <ellipse fill="white" stroke="black" cx="250.6" cy="-18" rx="27" ry="18" />
            <text text-anchor="middle" x="250.6" y="-14.3" font-family="Times,serif" font-size="14.00">qf</text>
        </g>
        <!-- q0&#45;&gt;qf -->
        <g id="edge4" class="edge">
            <title>q0&#45;&gt;qf</title>
            <path fill="none" stroke="black"
                d="M108.11,-34.12C120.03,-32.55 135.13,-30.6 148.6,-29 170.78,-26.36 195.72,-23.64 215.27,-21.57" />
            <polygon fill="black" stroke="black" points="215.71,-24.51 223.85,-20.66 215.08,-18.6 215.71,-24.51" />
            <text text-anchor="middle" x="177.1" y="-32.8" font-family="Times,serif" font-size="14.00">ε, Z0 | ε</text>
        </g>
        <!-- q1&#45;&gt;q1 -->
        <g id="edge5" class="edge">
            <title>q1&#45;&gt;q1</title>
            <path fill="none" stroke="black"
                d="M237.94,-95.75C235.13,-106.95 239.35,-117.5 250.6,-117.5 258.86,-117.5 263.33,-111.81 264.01,-104.35" />
            <polygon fill="black" stroke="black" points="266.96,-103.96 263.26,-95.75 261.03,-104.47 266.96,-103.96" />
            <text text-anchor="middle" x="250.6" y="-136.3" font-family="Times,serif" font-size="14.00">a, A | ε</text>
            <text text-anchor="middle" x="250.6" y="-121.3" font-family="Times,serif" font-size="14.00">b, B | ε</text>
        </g>
    </g>
</svg>