<?xml version="1.0" encoding="UTF-8" standalone="no"?>
<!DOCTYPE svg PUBLIC "-//W3C//DTD SVG 1.1//EN" "http://www.w3.org/Graphics/SVG/1.1/DTD/svg11.dtd">
<!-- Generated by graphviz version 2.43.0 (0)
 -->
<!-- Pages: 1 -->
<svg width="279pt" height="178pt" viewBox="0.00 0.00 279.10 177.50" xmlns="http://www.w3.org/2000/svg"
    xmlns:xlink="http://www.w3.org/1999/xlink">
    <g id="graph0" class="graph" transform="scale(1 1) rotate(0) translate(4 173.5)">
        <polygon fill="none" stroke="transparent" points="-4,4 -4,-173.5 275.1,-173.5 275.1,4 -4,4" />
        <!-- 4db7be2d&#45;50f7&#45;44b7&#45;9ba4&#45;7cdc74eb7fa8 -->
        <g id="node1" class="node">
            <title>4db7be2d&#45;50f7&#45;44b7&#45;9ba4&#45;7cdc74eb7fa8</title>
            <g id="a_node1"><a xlink:title=".">
                    <ellipse fill="black" stroke="black" cx="1.8" cy="-39" rx="1.8" ry="1.8" />
                </a>
            </g>
        </g>
        <!-- q0 -->
        <g id="node2" class="node">
            <title>q0</title>
            <ellipse fill="white" stroke="black" cx="85.6" cy="-39" rx="22.5" ry="22.5" />
            <text text-anchor="middle" x="85.6" y="-35.3" font-family="Times,serif" font-size="14.00">q0</text>
        </g>
        <!-- 4db7be2d&#45;50f7&#45;44b7&#45;9ba4&#45;7cdc74eb7fa8&#45;&gt;q0 -->
        <g id="edge1" class="edge">
            <title>4db7be2d&#45;50f7&#45;44b7&#45;9ba4&#45;7cdc74eb7fa8&#45;&gt;q0</title>
            <g id="a_edge1"><a xlink:title="&#45;&gt;q0">
                    <path fill="none" stroke="black" d="M3.72,-39C8.76,-39 33.56,-39 54.39,-39" />
                    <polygon fill="black" stroke="black" points="54.5,-41.98 63,-39 54.5,-36.03 54.5,-41.98" />
                </a>
            </g>
        </g>
        <!-- q0&#45;&gt;q0 -->
        <g id="edge2" class="edge">
            <title>q0&#45;&gt;q0</title>
            <path fill="none" stroke="black"
                d="M74.45,-59C72.56,-69.73 76.28,-79.5 85.6,-79.5 92.3,-79.5 96.11,-74.45 97.01,-67.63" />
            <polygon fill="black" stroke="black" points="99.98,-67.41 96.75,-59 94.03,-67.59 99.98,-67.41" />
            <text text-anchor="middle" x="85.6" y="-158.3" font-family="Times,serif" font-size="14.00">a, A | AA</text>
            <text text-anchor="middle" x="85.6" y="-143.3" font-family="Times,serif" font-size="14.00">a, B | AB</text>
            <text text-anchor="middle" x="85.6" y="-128.3" font-family="Times,serif" font-size="14.00">a, Z0 | A</text>
            <text text-anchor="middle" x="85.6" y="-113.3" font-family="Times,serif" font-size="14.00">b, A | BA</text>
            <text text-anchor="middle" x="85.6" y="-98.3" font-family="Times,serif" font-size="14.00">b, B | BB</text>
            <text text-anchor="middle" x="85.6" y="-83.3" font-family="Times,serif" font-size="14.00">b, Z0 | B</text>
        </g>
        <!-- q1 -->
        <g id="node3" class="node">
            <title>q1</title>
            <ellipse fill="white" stroke="black" cx="246.1" cy="-81" rx="22.5" ry="22.5" />
            <text text-anchor="middle" x="246.1" y="-77.3" font-family="Times,serif" font-size="14.00">q1</text>
        </g>
        <!-- q0&#45;&gt;q1 -->
        <g id="edge3" class="edge">
            <title>q0&#45;&gt;q1</title>
            <path fill="none" stroke="black" d="M107.65,-44.58C135.36,-51.92 184.23,-64.87 215.61,-73.19" />
            <polygon fill="black" stroke="black" points="214.99,-76.1 223.97,-75.4 216.51,-70.35 214.99,-76.1" />
            <text text-anchor="middle" x="177.1" y="-117.8" font-family="Times,serif" font-size="14.00">ε, A | A</text>
            <text text-anchor="middle" x="177.1" y="-102.8" font-family="Times,serif" font-size="14.00">ε, A | ε</text>
            <text text-anchor="middle" x="177.1" y="-87.8" font-family="Times,serif" font-size="14.00">ε, B | B</text>
            <text text-anchor="middle" x="177.1" y="-72.8" font-family="Times,serif" font-size="14.00">ε, B | ε</text>
        </g>
        <!-- qf -->
        <g id="node4" class="node">
            <title>qf</title>
            <ellipse fill="white" stroke="black" cx="246.1" cy="-20" rx="20" ry="20" />
            <text text-anchor="middle" x="246.1" y="-16.3" font-family="Times,serif" font-size="14.00">qf</text>
        </g>
        <!-- q0&#45;&gt;qf -->
        <g id="edge4" class="edge">
            <title>q0&#45;&gt;qf</title>
            <path fill="none" stroke="black" d="M107.98,-36.44C136.28,-33.04 186.23,-27.06 217.4,-23.32" />
            <polygon fill="black" stroke="black" points="217.95,-26.25 226.04,-22.28 217.25,-20.34 217.95,-26.25" />
            <text text-anchor="middle" x="177.1" y="-35.8" font-family="Times,serif" font-size="14.00">ε, Z0 | ε</text>
        </g>
        <!-- q1&#45;&gt;q1 -->
        <g id="edge5" class="edge">
            <title>q1&#45;&gt;q1</title>
            <path fill="none" stroke="black"
                d="M234.05,-100.17C231.59,-111.22 235.61,-121.5 246.1,-121.5 253.64,-121.5 257.84,-116.19 258.69,-109.1" />
            <polygon fill="black" stroke="black" points="261.63,-108.47 258.15,-100.17 255.69,-108.83 261.63,-108.47" />
            <text text-anchor="middle" x="246.1" y="-140.3" font-family="Times,serif" font-size="14.00">a, A | ε</text>
            <text text-anchor="middle" x="246.1" y="-125.3" font-family="Times,serif" font-size="14.00">b, B | ε</text>
        </g>
    </g>
</svg>