<?xml version="1.0" encoding="UTF-8" standalone="no"?>
<!DOCTYPE svg PUBLIC "-//W3C//DTD SVG 1.1//EN" "http://www.w3.org/Graphics/SVG/1.1/DTD/svg11.dtd">
<!-- Generated by graphviz version 2.43.0 (0)
 -->
<!-- Pages: 1 -->
<svg width="421pt" height="171pt" viewBox="0.00 0.00 420.60 170.50" xmlns="http://www.w3.org/2000/svg"
    xmlns:xlink="http://www.w3.org/1999/xlink">
    <g id="graph0" class="graph" transform="scale(1 1) rotate(0) translate(4 166.5)">
        <polygon fill="none" stroke="transparent" points="-4,4 -4,-166.5 416.6,-166.5 416.6,4 -4,4" />
        <!-- 359032c2&#45;6f1d&#45;42e0&#45;971f&#45;f47439b3e038 -->
        <g id="node1" class="node">
            <title>359032c2&#45;6f1d&#45;42e0&#45;971f&#45;f47439b3e038</title>
            <g id="a_node1"><a xlink:title=".">
                    <ellipse fill="black" stroke="black" cx="1.8" cy="-32" rx="1.8" ry="1.8" />
                </a>
            </g>
        </g>
        <!-- q0 -->
        <g id="node2" class="node">
            <title>q0</title>
            <ellipse fill="white" stroke="black" cx="85.6" cy="-32" rx="22.5" ry="22.5" />
            <text text-anchor="middle" x="85.6" y="-28.3" font-family="Times,serif" font-size="14.00">q0</text>
        </g>
        <!-- 359032c2&#45;6f1d&#45;42e0&#45;971f&#45;f47439b3e038&#45;&gt;q0 -->
        <g id="edge1" class="edge">
            <title>359032c2&#45;6f1d&#45;42e0&#45;971f&#45;f47439b3e038&#45;&gt;q0</title>
            <g id="a_edge1"><a xlink:title="&#45;&gt;q0">
                    <path fill="none" stroke="black" d="M3.72,-32C8.76,-32 33.56,-32 54.39,-32" />
                    <polygon fill="black" stroke="black" points="54.5,-34.98 63,-32 54.5,-29.03 54.5,-34.98" />
                </a>
            </g>
        </g>
        <!-- q0&#45;&gt;q0 -->
        <g id="edge2" class="edge">
            <title>q0&#45;&gt;q0</title>
            <path fill="none" stroke="black"
                d="M74.45,-52C72.56,-62.73 76.28,-72.5 85.6,-72.5 92.3,-72.5 96.11,-67.45 97.01,-60.63" />
            <polygon fill="black" stroke="black" points="99.98,-60.41 96.75,-52 94.03,-60.59 99.98,-60.41" />
            <text text-anchor="middle" x="85.6" y="-151.3" font-family="Times,serif" font-size="14.00">a, A | AA</text>
            <text text-anchor="middle" x="85.6" y="-136.3" font-family="Times,serif" font-size="14.00">a, B | AB</text>
            <text text-anchor="middle" x="85.6" y="-121.3" font-family="Times,serif" font-size="14.00">a, Z0 | A</text>
            <text text-anchor="middle" x="85.6" y="-106.3" font-family="Times,serif" font-size="14.00">b, A | BA</text>
            <text text-anchor="middle" x="85.6" y="-91.3" font-family="Times,serif" font-size="14.00">b, B | BB</text>
            <text text-anchor="middle" x="85.6" y="-76.3" font-family="Times,serif" font-size="14.00">b, Z0 | B</text>
        </g>
        <!-- q1 -->
        <g id="node3" class="node">
            <title>q1</title>
            <ellipse fill="white" stroke="black" cx="241.1" cy="-32" rx="22.5" ry="22.5" />
            <text text-anchor="middle" x="241.1" y="-28.3" font-family="Times,serif" font-size="14.00">q1</text>
        </g>
        <!-- q0&#45;&gt;q1 -->
        <g id="edge3" class="edge">
            <title>q0&#45;&gt;q1</title>
            <path fill="none" stroke="black" d="M108.27,-32C134.78,-32 179.83,-32 209.77,-32" />
            <polygon fill="black" stroke="black" points="210.04,-34.98 218.54,-32 210.04,-29.03 210.04,-34.98" />
            <text text-anchor="middle" x="174.6" y="-80.8" font-family="Times,serif" font-size="14.00">ε, A | A</text>
            <text text-anchor="middle" x="174.6" y="-65.8" font-family="Times,serif" font-size="14.00">ε, A | ε</text>
            <text text-anchor="middle" x="174.6" y="-50.8" font-family="Times,serif" font-size="14.00">ε, B | B</text>
            <text text-anchor="middle" x="174.6" y="-35.8" font-family="Times,serif" font-size="14.00">ε, B | ε</text>
        </g>
        <!-- q1&#45;&gt;q1 -->
        <g id="edge4" class="edge">
            <title>q1&#45;&gt;q1</title>
            <path fill="none" stroke="black"
                d="M229.67,-51.59C227.54,-62.47 231.35,-72.5 241.1,-72.5 248.11,-72.5 252.05,-67.32 252.92,-60.36" />
            <polygon fill="black" stroke="black" points="255.87,-59.95 252.53,-51.59 249.93,-60.21 255.87,-59.95" />
            <text text-anchor="middle" x="241.1" y="-91.3" font-family="Times,serif" font-size="14.00">a, A | ε</text>
            <text text-anchor="middle" x="241.1" y="-76.3" font-family="Times,serif" font-size="14.00">b, B | ε</text>
        </g>
        <!-- qf -->
        <g id="node4" class="node">
            <title>qf</title>
            <ellipse fill="white" stroke="black" cx="380.6" cy="-32" rx="32" ry="32" />
            <ellipse fill="none" stroke="black" cx="380.6" cy="-32" rx="28" ry="28" />
            <text text-anchor="middle" x="380.6" y="-28.3" font-family="Times,serif" font-size="14.00">qf</text>
        </g>
        <!-- q1&#45;&gt;qf -->
        <g id="edge5" class="edge">
            <title>q1&#45;&gt;qf</title>
            <path fill="none" stroke="black" d="M263.89,-32C284.19,-32 314.95,-32 339.66,-32" />
            <polygon fill="black" stroke="black" points="339.95,-34.98 348.45,-32 339.95,-29.03 339.95,-34.98" />
            <text text-anchor="middle" x="306.1" y="-50.8" font-family="Times,serif" font-size="14.00">a, B | ε</text>
            <text text-anchor="middle" x="306.1" y="-35.8" font-family="Times,serif" font-size="14.00">b, A | ε</text>
        </g>
        <!-- qf&#45;&gt;qf -->
        <g id="edge6" class="edge">
            <title>qf&#45;&gt;qf</title>
            <path fill="none" stroke="black"
                d="M366.79,-61.02C366.1,-72.45 370.7,-82 380.6,-82 387.87,-82 392.28,-76.85 393.84,-69.59" />
            <polygon fill="black" stroke="black" points="396.81,-69.7 394.41,-61.02 390.88,-69.31 396.81,-69.7" />
            <text text-anchor="middle" x="380.6" y="-130.8" font-family="Times,serif" font-size="14.00">a, A | ε</text>
            <text text-anchor="middle" x="380.6" y="-115.8" font-family="Times,serif" font-size="14.00">a, B | ε</text>
            <text text-anchor="middle" x="380.6" y="-100.8" font-family="Times,serif" font-size="14.00">b, A | ε</text>
            <text text-anchor="middle" x="380.6" y="-85.8" font-family="Times,serif" font-size="14.00">b, B | ε</text>
        </g>
    </g>
</svg>