<?xml version="1.0" encoding="UTF-8" standalone="no"?>
<!DOCTYPE svg PUBLIC "-//W3C//DTD SVG 1.1//EN" "http://www.w3.org/Graphics/SVG/1.1/DTD/svg11.dtd">
<!-- Generated by graphviz version 2.43.0 (0)
 -->
<!-- Pages: 1 -->
<svg width="399pt" height="169pt" viewBox="0.00 0.00 398.60 168.50" xmlns="http://www.w3.org/2000/svg"
    xmlns:xlink="http://www.w3.org/1999/xlink">
    <g id="graph0" class="graph" transform="scale(1 1) rotate(0) translate(4 164.5)">
        <polygon fill="none" stroke="transparent" points="-4,4 -4,-164.5 394.6,-164.5 394.6,4 -4,4" />
        <!-- 7b8ada34&#45;8c3b&#45;4f57&#45;b2c7&#45;7ed18be5e5b4 -->
        <g id="node1" class="node">
            <title>7b8ada34&#45;8c3b&#45;4f57&#45;b2c7&#45;7ed18be5e5b4</title>
            <g id="a_node1"><a xlink:title=".">
                    <ellipse fill="black" stroke="black" cx="1.8" cy="-37" rx="1.8" ry="1.8" />
                </a>
            </g>
        </g>
        <!-- q0 -->
        <g id="node2" class="node">
            <title>q0</title>
            <ellipse fill="white" stroke="black" cx="63.1" cy="-37" rx="22.5" ry="22.5" />
            <text text-anchor="middle" x="63.1" y="-33.3" font-family="Times,serif" font-size="14.00">q0</text>
        </g>
        <!-- 7b8ada34&#45;8c3b&#45;4f57&#45;b2c7&#45;7ed18be5e5b4&#45;&gt;q0 -->
        <g id="edge1" class="edge">
            <title>7b8ada34&#45;8c3b&#45;4f57&#45;b2c7&#45;7ed18be5e5b4&#45;&gt;q0</title>
            <g id="a_edge1"><a xlink:title="&#45;&gt;q0">
                    <path fill="none" stroke="black" d="M3.83,-37C7.34,-37 19.33,-37 31.53,-37" />
                    <polygon fill="black" stroke="black" points="31.82,-39.98 40.32,-37 31.82,-34.03 31.82,-39.98" />
                </a>
            </g>
        </g>
        <!-- q0&#45;&gt;q0 -->
        <g id="edge2" class="edge">
            <title>q0&#45;&gt;q0</title>
            <path fill="none" stroke="black"
                d="M55.75,-58.67C54.95,-68.72 57.4,-77.5 63.1,-77.5 67.02,-77.5 69.4,-73.35 70.25,-67.49" />
            <polygon fill="black" stroke="black" points="73.23,-67.23 70.45,-58.67 67.28,-67.1 73.23,-67.23" />
            <text text-anchor="middle" x="63.1" y="-111.3" font-family="Times,serif" font-size="14.00">[, B | BB</text>
            <text text-anchor="middle" x="63.1" y="-96.3" font-family="Times,serif" font-size="14.00">[, Z0 | BZ0</text>
            <text text-anchor="middle" x="63.1" y="-81.3" font-family="Times,serif" font-size="14.00">], B | ε</text>
        </g>
        <!-- q1 -->
        <g id="node3" class="node">
            <title>q1</title>
            <ellipse fill="white" stroke="black" cx="227.6" cy="-60" rx="22.5" ry="22.5" />
            <text text-anchor="middle" x="227.6" y="-56.3" font-family="Times,serif" font-size="14.00">q1</text>
        </g>
        <!-- q0&#45;&gt;q1 -->
        <g id="edge3" class="edge">
            <title>q0&#45;&gt;q1</title>
            <path fill="none" stroke="black"
                d="M83.79,-46.45C89.99,-49.02 96.96,-51.51 103.6,-53 134.64,-59.97 171.13,-61.2 196.26,-61.01" />
            <polygon fill="black" stroke="black" points="196.52,-63.99 204.97,-60.89 196.43,-58.04 196.52,-63.99" />
            <text text-anchor="middle" x="141.6" y="-78.8" font-family="Times,serif" font-size="14.00">(, B | AB</text>
            <text text-anchor="middle" x="141.6" y="-63.8" font-family="Times,serif" font-size="14.00">(, Z0 |
                AZ0</text>
        </g>
        <!-- qf -->
        <g id="node4" class="node">
            <title>qf</title>
            <ellipse fill="white" stroke="black" cx="370.6" cy="-20" rx="20" ry="20" />
            <text text-anchor="middle" x="370.6" y="-16.3" font-family="Times,serif" font-size="14.00">qf</text>
        </g>
        <!-- q0&#45;&gt;qf -->
        <g id="edge4" class="edge">
            <title>q0&#45;&gt;qf</title>
            <path fill="none" stroke="black"
                d="M84.37,-29.41C90.48,-27.38 97.25,-25.37 103.6,-24 188.86,-5.65 293.07,-12.2 341.88,-16.89" />
            <polygon fill="black" stroke="black" points="341.85,-19.88 350.61,-17.77 342.45,-13.96 341.85,-19.88" />
            <text text-anchor="middle" x="227.6" y="-15.8" font-family="Times,serif" font-size="14.00">ε, Z0 | ε</text>
        </g>
        <!-- q1&#45;&gt;q0 -->
        <g id="edge5" class="edge">
            <title>q1&#45;&gt;q0</title>
            <path fill="none" stroke="black"
                d="M208.76,-47.33C200.34,-42.1 189.89,-36.66 179.6,-34 151.18,-26.66 117.52,-28.69 93.89,-31.78" />
            <polygon fill="black" stroke="black" points="93.35,-28.85 85.36,-33 94.19,-34.74 93.35,-28.85" />
            <text text-anchor="middle" x="141.6" y="-37.8" font-family="Times,serif" font-size="14.00">], B | ε</text>
        </g>
        <!-- q1&#45;&gt;q1 -->
        <g id="edge6" class="edge">
            <title>q1&#45;&gt;q1</title>
            <path fill="none" stroke="black"
                d="M214.36,-78.33C211.16,-89.69 215.58,-100.5 227.6,-100.5 236.43,-100.5 241.16,-94.67 241.78,-87.07" />
            <polygon fill="black" stroke="black" points="244.71,-86.46 240.84,-78.33 238.79,-87.09 244.71,-86.46" />
            <text text-anchor="middle" x="227.6" y="-149.3" font-family="Times,serif" font-size="14.00">(, A | AA</text>
            <text text-anchor="middle" x="227.6" y="-134.3" font-family="Times,serif" font-size="14.00">(, B | AB</text>
            <text text-anchor="middle" x="227.6" y="-119.3" font-family="Times,serif" font-size="14.00">(, Z0 |
                AZ0</text>
            <text text-anchor="middle" x="227.6" y="-104.3" font-family="Times,serif" font-size="14.00">), A | ε</text>
        </g>
        <!-- q1&#45;&gt;qf -->
        <g id="edge7" class="edge">
            <title>q1&#45;&gt;qf</title>
            <path fill="none" stroke="black" d="M249.41,-54.1C274.15,-47.08 315.52,-35.34 342.68,-27.64" />
            <polygon fill="black" stroke="black" points="343.6,-30.47 350.96,-25.29 341.97,-24.74 343.6,-30.47" />
            <text text-anchor="middle" x="304.1" y="-48.8" font-family="Times,serif" font-size="14.00">ε, Z0 | ε</text>
        </g>
    </g>
</svg>