<?xml version="1.0" encoding="UTF-8" standalone="no"?>
<!DOCTYPE svg PUBLIC "-//W3C//DTD SVG 1.1//EN" "http://www.w3.org/Graphics/SVG/1.1/DTD/svg11.dtd">
<!-- Generated by graphviz version 2.43.0 (0)
 -->
<!-- Pages: 1 -->
<svg width="290pt" height="176pt" viewBox="0.00 0.00 289.60 175.50" xmlns="http://www.w3.org/2000/svg"
    xmlns:xlink="http://www.w3.org/1999/xlink">
    <g id="graph0" class="graph" transform="scale(1 1) rotate(0) translate(4 171.5)">
        <polygon fill="none" stroke="transparent" points="-4,4 -4,-171.5 285.6,-171.5 285.6,4 -4,4" />
        <!-- 9a9fb3bb&#45;55c0&#45;4815&#45;90a2&#45;946b5446d42e -->
        <g id="node1" class="node">
            <title>9a9fb3bb&#45;55c0&#45;4815&#45;90a2&#45;946b5446d42e</title>
            <g id="a_node1"><a xlink:title=".">
                    <ellipse fill="black" stroke="black" cx="1.8" cy="-37" rx="1.8" ry="1.8" />
                </a>
            </g>
        </g>
        <!-- q0 -->
        <g id="node2" class="node">
            <title>q0</title>
            <ellipse fill="white" stroke="black" cx="85.6" cy="-37" rx="22.5" ry="22.5" />
            <text text-anchor="middle" x="85.6" y="-33.3" font-family="Times,serif" font-size="14.00">q0</text>
        </g>
        <!-- 9a9fb3bb&#45;55c0&#45;4815&#45;90a2&#45;946b5446d42e&#45;&gt;q0 -->
        <g id="edge1" class="edge">
            <title>9a9fb3bb&#45;55c0&#45;4815&#45;90a2&#45;946b5446d42e&#45;&gt;q0</title>
            <g id="a_edge1"><a xlink:title="&#45;&gt;q0">
                    <path fill="none" stroke="black" d="M3.72,-37C8.76,-37 33.56,-37 54.39,-37" />
                    <polygon fill="black" stroke="black" points="54.5,-39.98 63,-37 54.5,-34.03 54.5,-39.98" />
                </a>
            </g>
        </g>
        <!-- q0&#45;&gt;q0 -->
        <g id="edge2" class="edge">
            <title>q0&#45;&gt;q0</title>
            <path fill="none" stroke="black"
                d="M74.45,-57C72.56,-67.73 76.28,-77.5 85.6,-77.5 92.3,-77.5 96.11,-72.45 97.01,-65.63" />
            <polygon fill="black" stroke="black" points="99.98,-65.41 96.75,-57 94.03,-65.59 99.98,-65.41" />
            <text text-anchor="middle" x="85.6" y="-156.3" font-family="Times,serif" font-size="14.00">a, A | AA</text>
            <text text-anchor="middle" x="85.6" y="-141.3" font-family="Times,serif" font-size="14.00">a, B | AB</text>
            <text text-anchor="middle" x="85.6" y="-126.3" font-family="Times,serif" font-size="14.00">a, Z0 | A</text>
            <text text-anchor="middle" x="85.6" y="-111.3" font-family="Times,serif" font-size="14.00">b, A | BA</text>
            <text text-anchor="middle" x="85.6" y="-96.3" font-family="Times,serif" font-size="14.00">b, B | BB</text>
            <text text-anchor="middle" x="85.6" y="-81.3" font-family="Times,serif" font-size="14.00">b, Z0 | B</text>
        </g>
        <!-- q1 -->
        <g id="node3" class="node">
            <title>q1</title>
            <ellipse fill="white" stroke="black" cx="254.6" cy="-77" rx="22.5" ry="22.5" />
            <text text-anchor="middle" x="254.6" y="-73.3" font-family="Times,serif" font-size="14.00">q1</text>
        </g>
        <!-- q0&#45;&gt;q1 -->
        <g id="edge3" class="edge">
            <title>q0&#45;&gt;q1</title>
            <path fill="none" stroke="black" d="M107.75,-42.07C137.24,-49.13 190.83,-61.97 224.19,-69.96" />
            <polygon fill="black" stroke="black" points="223.66,-72.89 232.62,-71.98 225.05,-67.1 223.66,-72.89" />
            <text text-anchor="middle" x="179.1" y="-84.8" font-family="Times,serif" font-size="14.00">#, A | A</text>
            <text text-anchor="middle" x="179.1" y="-69.8" font-family="Times,serif" font-size="14.00">#, B | B</text>
        </g>
        <!-- qf -->
        <g id="node4" class="node">
            <title>qf</title>
            <ellipse fill="white" stroke="black" cx="254.6" cy="-18" rx="27" ry="18" />
            <text text-anchor="middle" x="254.6" y="-14.3" font-family="Times,serif" font-size="14.00">qf</text>
        </g>
        <!-- q0&#45;&gt;qf -->
        <g id="edge4" class="edge">
            <title>q0&#45;&gt;qf</title>
            <path fill="none" stroke="black"
                d="M108.1,-34.1C120.03,-32.52 135.13,-30.57 148.6,-29 172.07,-26.26 198.53,-23.49 219.02,-21.41" />
            <polygon fill="black" stroke="black" points="219.53,-24.35 227.69,-20.54 218.94,-18.43 219.53,-24.35" />
            <text text-anchor="middle" x="179.1" y="-32.8" font-family="Times,serif" font-size="14.00">#, Z0 | ε</text>
        </g>
        <!-- q1&#45;&gt;q1 -->
        <g id="edge5" class="edge">
            <title>q1&#45;&gt;q1</title>
            <path fill="none" stroke="black"
                d="M241.59,-95.75C238.7,-106.95 243.04,-117.5 254.6,-117.5 263.09,-117.5 267.69,-111.81 268.38,-104.35" />
            <polygon fill="black" stroke="black" points="271.33,-103.95 267.61,-95.75 265.41,-104.48 271.33,-103.95" />
            <text text-anchor="middle" x="254.6" y="-136.3" font-family="Times,serif" font-size="14.00">a, A | ε</text>
            <text text-anchor="middle" x="254.6" y="-121.3" font-family="Times,serif" font-size="14.00">b, B | ε</text>
        </g>
    </g>
</svg>