<?xml version="1.0" encoding="UTF-8" standalone="no"?>
<!DOCTYPE svg PUBLIC "-//W3C//DTD SVG 1.1//EN" "http://www.w3.org/Graphics/SVG/1.1/DTD/svg11.dtd">
<!-- Generated by graphviz version 2.43.0 (0)
 -->
<!-- Pages: 1 -->
<svg width="272pt" height="161pt" viewBox="0.00 0.00 271.60 161.00" xmlns="http://www.w3.org/2000/svg"
    xmlns:xlink="http://www.w3.org/1999/xlink">
    <g id="graph0" class="graph" transform="scale(1 1) rotate(0) translate(4 157)">
        <polygon fill="none" stroke="transparent" points="-4,4 -4,-157 267.6,-157 267.6,4 -4,4" />
        <!-- f304e864&#45;96de&#45;4d75&#45;988a&#45;db282cca3d65 -->
        <g id="node1" class="node">
            <title>f304e864&#45;96de&#45;4d75&#45;988a&#45;db282cca3d65</title>
            <g id="a_node1"><a xlink:title=".">
                    <ellipse fill="black" stroke="black" cx="1.8" cy="-22.5" rx="1.8" ry="1.8" />
                </a>
            </g>
        </g>
        <!-- q0 -->
        <g id="node2" class="node">
            <title>q0</title>
            <ellipse fill="white" stroke="black" cx="85.6" cy="-22.5" rx="22.5" ry="22.5" />
            <text text-anchor="middle" x="85.6" y="-18.8" font-family="Times,serif" font-size="14.00">q0</text>
        </g>
        <!-- f304e864&#45;96de&#45;4d75&#45;988a&#45;db282cca3d65&#45;&gt;q0 -->
        <g id="edge1" class="edge">
            <title>f304e864&#45;96de&#45;4d75&#45;988a&#45;db282cca3d65&#45;&gt;q0</title>
            <g id="a_edge1"><a xlink:title="&#45;&gt;q0">
                    <path fill="none" stroke="black" d="M3.72,-22.5C8.76,-22.5 33.56,-22.5 54.39,-22.5" />
                    <polygon fill="black" stroke="black" points="54.5,-25.48 63,-22.5 54.5,-19.53 54.5,-25.48" />
                </a>
            </g>
        </g>
        <!-- q0&#45;&gt;q0 -->
        <g id="edge2" class="edge">
            <title>q0&#45;&gt;q0</title>
            <path fill="none" stroke="black"
                d="M74.45,-42.5C72.56,-53.23 76.28,-63 85.6,-63 92.3,-63 96.11,-57.95 97.01,-51.13" />
            <polygon fill="black" stroke="black" points="99.98,-50.91 96.75,-42.5 94.03,-51.09 99.98,-50.91" />
            <text text-anchor="middle" x="85.6" y="-141.8" font-family="Times,serif" font-size="14.00">a, A | AA</text>
            <text text-anchor="middle" x="85.6" y="-126.8" font-family="Times,serif" font-size="14.00">a, B | ε</text>
            <text text-anchor="middle" x="85.6" y="-111.8" font-family="Times,serif" font-size="14.00">a, Z0 |
                AZ0</text>
            <text text-anchor="middle" x="85.6" y="-96.8" font-family="Times,serif" font-size="14.00">b, A | ε</text>
            <text text-anchor="middle" x="85.6" y="-81.8" font-family="Times,serif" font-size="14.00">b, B | BB</text>
            <text text-anchor="middle" x="85.6" y="-66.8" font-family="Times,serif" font-size="14.00">b, Z0 | BZ0</text>
        </g>
        <!-- qf -->
        <g id="node3" class="node">
            <title>qf</title>
            <ellipse fill="white" stroke="black" cx="243.6" cy="-22.5" rx="20" ry="20" />
            <text text-anchor="middle" x="243.6" y="-18.8" font-family="Times,serif" font-size="14.00">qf</text>
        </g>
        <!-- q0&#45;&gt;qf -->
        <g id="edge3" class="edge">
            <title>q0&#45;&gt;qf</title>
            <path fill="none" stroke="black" d="M108.29,-22.5C136.06,-22.5 184.22,-22.5 214.69,-22.5" />
            <polygon fill="black" stroke="black" points="215.04,-25.48 223.54,-22.5 215.04,-19.53 215.04,-25.48" />
            <text text-anchor="middle" x="177.1" y="-26.3" font-family="Times,serif" font-size="14.00">ε, Z0 | ε</text>
        </g>
    </g>
</svg>