<?xml version="1.0" encoding="UTF-8" standalone="no"?>
<!DOCTYPE svg PUBLIC "-//W3C//DTD SVG 1.1//EN" "http://www.w3.org/Graphics/SVG/1.1/DTD/svg11.dtd">
<!-- Generated by graphviz version 2.43.0 (0)
 -->
<!-- Pages: 1 -->
<svg width="614pt" height="282pt" viewBox="0.00 0.00 613.60 282.00" xmlns="http://www.w3.org/2000/svg"
    xmlns:xlink="http://www.w3.org/1999/xlink">
    <g id="graph0" class="graph" transform="scale(1 1) rotate(0) translate(4 278)">
        <polygon fill="none" stroke="transparent" points="-4,4 -4,-278 609.6,-278 609.6,4 -4,4" />
        <!-- b980c257&#45;f014&#45;4e59&#45;a503&#45;702b02dad746 -->
        <g id="node1" class="node">
            <title>b980c257&#45;f014&#45;4e59&#45;a503&#45;702b02dad746</title>
            <g id="a_node1"><a xlink:title=".">
                    <ellipse fill="black" stroke="black" cx="1.8" cy="-121.5" rx="1.8" ry="1.8" />
                </a>
            </g>
        </g>
        <!-- qd -->
        <g id="node2" class="node">
            <title>qd</title>
            <ellipse fill="white" stroke="black" cx="63.1" cy="-121.5" rx="22.5" ry="22.5" />
            <text text-anchor="middle" x="63.1" y="-117.8" font-family="Times,serif" font-size="14.00">qd</text>
        </g>
        <!-- b980c257&#45;f014&#45;4e59&#45;a503&#45;702b02dad746&#45;&gt;qd -->
        <g id="edge1" class="edge">
            <title>b980c257&#45;f014&#45;4e59&#45;a503&#45;702b02dad746&#45;&gt;qd</title>
            <g id="a_edge1"><a xlink:title="&#45;&gt;qd">
                    <path fill="none" stroke="black" d="M3.83,-121.5C7.34,-121.5 19.33,-121.5 31.53,-121.5" />
                    <polygon fill="black" stroke="black"
                        points="31.82,-124.48 40.32,-121.5 31.82,-118.53 31.82,-124.48" />
                </a>
            </g>
        </g>
        <!-- qp1 -->
        <g id="node3" class="node">
            <title>qp1</title>
            <ellipse fill="white" stroke="black" cx="218.1" cy="-175.5" rx="28.5" ry="28.5" />
            <text text-anchor="middle" x="218.1" y="-171.8" font-family="Times,serif" font-size="14.00">qp1</text>
        </g>
        <!-- qd&#45;&gt;qp1 -->
        <g id="edge2" class="edge">
            <title>qd&#45;&gt;qp1</title>
            <path fill="none" stroke="black" d="M84.73,-128.78C109.86,-137.65 152.66,-152.76 182.78,-163.39" />
            <polygon fill="black" stroke="black" points="181.91,-166.23 190.91,-166.26 183.89,-160.62 181.91,-166.23" />
            <text text-anchor="middle" x="137.6" y="-161.3" font-family="Times,serif" font-size="14.00">ε, Z0 |
                Z0</text>
        </g>
        <!-- qs1 -->
        <g id="node4" class="node">
            <title>qs1</title>
            <ellipse fill="white" stroke="black" cx="218.1" cy="-68.5" rx="27.5" ry="27.5" />
            <text text-anchor="middle" x="218.1" y="-64.8" font-family="Times,serif" font-size="14.00">qs1</text>
        </g>
        <!-- qd&#45;&gt;qs1 -->
        <g id="edge3" class="edge">
            <title>qd&#45;&gt;qs1</title>
            <path fill="none" stroke="black" d="M84.73,-114.35C110.16,-105.55 153.68,-90.47 183.85,-80.02" />
            <polygon fill="black" stroke="black" points="184.92,-82.8 191.98,-77.2 182.97,-77.17 184.92,-82.8" />
            <text text-anchor="middle" x="137.6" y="-110.3" font-family="Times,serif" font-size="14.00">ε, Z0 |
                Z0</text>
        </g>
        <!-- qp1&#45;&gt;qp1 -->
        <g id="edge4" class="edge">
            <title>qp1&#45;&gt;qp1</title>
            <path fill="none" stroke="black"
                d="M203.4,-200.38C201.79,-211.92 206.69,-222 218.1,-222 226.48,-222 231.34,-216.56 232.7,-209.1" />
            <polygon fill="black" stroke="black" points="235.68,-208.91 232.8,-200.38 229.73,-208.84 235.68,-208.91" />
            <text text-anchor="middle" x="218.1" y="-240.8" font-family="Times,serif" font-size="14.00">a, A | AA</text>
            <text text-anchor="middle" x="218.1" y="-225.8" font-family="Times,serif" font-size="14.00">a, Z0 |
                AZ0</text>
        </g>
        <!-- qp2 -->
        <g id="node5" class="node">
            <title>qp2</title>
            <ellipse fill="white" stroke="black" cx="391.1" cy="-180.5" rx="28.5" ry="28.5" />
            <text text-anchor="middle" x="391.1" y="-176.8" font-family="Times,serif" font-size="14.00">qp2</text>
        </g>
        <!-- qp1&#45;&gt;qp2 -->
        <g id="edge5" class="edge">
            <title>qp1&#45;&gt;qp2</title>
            <path fill="none" stroke="black" d="M246.95,-176.31C276.11,-177.17 322,-178.51 353.93,-179.44" />
            <polygon fill="black" stroke="black" points="353.96,-182.42 362.54,-179.69 354.13,-176.47 353.96,-182.42" />
            <text text-anchor="middle" x="304.6" y="-182.3" font-family="Times,serif" font-size="14.00">b, A | ε</text>
        </g>
        <!-- qs1&#45;&gt;qs1 -->
        <g id="edge6" class="edge">
            <title>qs1&#45;&gt;qs1</title>
            <path fill="none" stroke="black"
                d="M203.54,-91.91C201.53,-103.59 206.38,-114 218.1,-114 226.71,-114 231.61,-108.38 232.81,-100.78" />
            <polygon fill="black" stroke="black" points="235.78,-100.36 232.66,-91.91 229.83,-100.46 235.78,-100.36" />
            <text text-anchor="middle" x="218.1" y="-117.8" font-family="Times,serif" font-size="14.00">a, Z0 |
                Z0</text>
        </g>
        <!-- qs2 -->
        <g id="node6" class="node">
            <title>qs2</title>
            <ellipse fill="white" stroke="black" cx="391.1" cy="-68.5" rx="27.5" ry="27.5" />
            <text text-anchor="middle" x="391.1" y="-64.8" font-family="Times,serif" font-size="14.00">qs2</text>
        </g>
        <!-- qs1&#45;&gt;qs2 -->
        <g id="edge7" class="edge">
            <title>qs1&#45;&gt;qs2</title>
            <path fill="none" stroke="black" d="M245.82,-68.5C275.18,-68.5 322.48,-68.5 354.86,-68.5" />
            <polygon fill="black" stroke="black" points="355.07,-71.48 363.57,-68.5 355.07,-65.53 355.07,-71.48" />
            <text text-anchor="middle" x="304.6" y="-72.3" font-family="Times,serif" font-size="14.00">b, Z0 |
                BZ0</text>
        </g>
        <!-- qp2&#45;&gt;qp2 -->
        <g id="edge8" class="edge">
            <title>qp2&#45;&gt;qp2</title>
            <path fill="none" stroke="black"
                d="M376.4,-205.38C374.79,-216.92 379.69,-227 391.1,-227 399.48,-227 404.34,-221.56 405.7,-214.1" />
            <polygon fill="black" stroke="black" points="408.68,-213.91 405.8,-205.38 402.73,-213.84 408.68,-213.91" />
            <text text-anchor="middle" x="391.1" y="-230.8" font-family="Times,serif" font-size="14.00">b, A | ε</text>
        </g>
        <!-- qp3 -->
        <g id="node7" class="node">
            <title>qp3</title>
            <ellipse fill="white" stroke="black" cx="565.1" cy="-185.5" rx="40.5" ry="40.5" />
            <ellipse fill="none" stroke="black" cx="565.1" cy="-185.5" rx="36.5" ry="36.5" />
            <text text-anchor="middle" x="565.1" y="-181.8" font-family="Times,serif" font-size="14.00">qp3</text>
        </g>
        <!-- qp2&#45;&gt;qp3 -->
        <g id="edge9" class="edge">
            <title>qp2&#45;&gt;qp3</title>
            <path fill="none" stroke="black" d="M419.73,-181.3C445.6,-182.06 484.81,-183.19 515.84,-184.1" />
            <polygon fill="black" stroke="black" points="515.77,-187.07 524.35,-184.34 515.94,-181.12 515.77,-187.07" />
            <text text-anchor="middle" x="472.1" y="-187.3" font-family="Times,serif" font-size="14.00">c, Z0 |
                Z0</text>
        </g>
        <!-- qs2&#45;&gt;qs2 -->
        <g id="edge10" class="edge">
            <title>qs2&#45;&gt;qs2</title>
            <path fill="none" stroke="black"
                d="M376.54,-91.91C374.53,-103.59 379.38,-114 391.1,-114 399.71,-114 404.61,-108.38 405.81,-100.78" />
            <polygon fill="black" stroke="black" points="408.78,-100.36 405.66,-91.91 402.83,-100.46 408.78,-100.36" />
            <text text-anchor="middle" x="391.1" y="-117.8" font-family="Times,serif" font-size="14.00">b, B | BB</text>
        </g>
        <!-- qs3 -->
        <g id="node8" class="node">
            <title>qs3</title>
            <ellipse fill="white" stroke="black" cx="565.1" cy="-39.5" rx="39.5" ry="39.5" />
            <ellipse fill="none" stroke="black" cx="565.1" cy="-39.5" rx="35.5" ry="35.5" />
            <text text-anchor="middle" x="565.1" y="-35.8" font-family="Times,serif" font-size="14.00">qs3</text>
        </g>
        <!-- qs2&#45;&gt;qs3 -->
        <g id="edge11" class="edge">
            <title>qs2&#45;&gt;qs3</title>
            <path fill="none" stroke="black" d="M418.6,-64.03C444.87,-59.6 485.67,-52.72 517.39,-47.38" />
            <polygon fill="black" stroke="black" points="518.19,-50.26 526.08,-45.91 517.2,-44.39 518.19,-50.26" />
            <text text-anchor="middle" x="472.1" y="-64.3" font-family="Times,serif" font-size="14.00">c, B | ε</text>
        </g>
        <!-- qp3&#45;&gt;qp3 -->
        <g id="edge12" class="edge">
            <title>qp3&#45;&gt;qp3</title>
            <path fill="none" stroke="black"
                d="M547.85,-222.35C547.94,-234.4 553.69,-244 565.1,-244 573.66,-244 579.03,-238.6 581.22,-230.82" />
            <polygon fill="black" stroke="black" points="584.18,-231.17 582.35,-222.35 578.28,-230.38 584.18,-231.17" />
            <text text-anchor="middle" x="565.1" y="-262.8" font-family="Times,serif" font-size="14.00">c, Z0 |
                Z0</text>
            <text text-anchor="middle" x="565.1" y="-247.8" font-family="Times,serif" font-size="14.00">c, Z0 | ε</text>
        </g>
        <!-- qs3&#45;&gt;qs3 -->
        <g id="edge13" class="edge">
            <title>qs3&#45;&gt;qs3</title>
            <path fill="none" stroke="black"
                d="M547.85,-75.16C547.76,-87.27 553.51,-97 565.1,-97 573.79,-97 579.2,-91.52 581.32,-83.68" />
            <polygon fill="black" stroke="black" points="584.29,-83.95 582.35,-75.16 578.38,-83.24 584.29,-83.95" />
            <text text-anchor="middle" x="565.1" y="-115.8" font-family="Times,serif" font-size="14.00">c, B | ε</text>
            <text text-anchor="middle" x="565.1" y="-100.8" font-family="Times,serif" font-size="14.00">ε, Z0 | ε</text>
        </g>
    </g>
</svg>