<?xml version="1.0" encoding="UTF-8" standalone="no"?>
<!DOCTYPE svg PUBLIC "-//W3C//DTD SVG 1.1//EN" "http://www.w3.org/Graphics/SVG/1.1/DTD/svg11.dtd">
<!-- Generated by graphviz version 2.43.0 (0)
 -->
<!-- Title: %3 Pages: 1 -->
<svg width="342pt" height="118pt" viewBox="0.00 0.00 341.59 118.20" xmlns="http://www.w3.org/2000/svg"
    xmlns:xlink="http://www.w3.org/1999/xlink">
    <g id="graph0" class="graph" transform="scale(1 1) rotate(0) translate(4 114.2)">
        <title>%3</title>
        <polygon fill="none" stroke="transparent" points="-4,4 -4,-114.2 337.59,-114.2 337.59,4 -4,4" />
        <!-- Initial -->
        <g id="node1" class="node">
            <title>Initial</title>
            <ellipse fill="black" stroke="black" cx="1.8" cy="-48.45" rx="1.8" ry="1.8" />
        </g>
        <!-- q0 -->
        <g id="node2" class="node">
            <title>q0</title>
            <ellipse fill="white" stroke="black" cx="63.35" cy="-48.45" rx="23" ry="23" />
            <text text-anchor="middle" x="63.35" y="-44.75" font-family="Times,serif" font-size="14.00">q0</text>
        </g>
        <!-- Initial&#45;&gt;q0 -->
        <g id="edge1" class="edge">
            <title>Initial&#45;&gt;q0</title>
            <path fill="none" stroke="black" d="M3.83,-48.45C7.36,-48.45 19.4,-48.45 31.65,-48.45" />
            <polygon fill="black" stroke="black" points="31.98,-51.42 40.48,-48.45 31.98,-45.47 31.98,-51.42" />
        </g>
        <!-- qn -->
        <g id="node3" class="node">
            <title>qn</title>
            <ellipse fill="white" stroke="black" cx="306.84" cy="-50.45" rx="27" ry="27" />
            <ellipse fill="none" stroke="black" cx="306.84" cy="-50.45" rx="22.96" ry="22.96" />
            <text text-anchor="middle" x="306.84" y="-46.75" font-family="Times,serif" font-size="14.00">qn</text>
        </g>
        <!-- q0&#45;&gt;qn -->
        <g id="edge4" class="edge">
            <title>q0&#45;&gt;qn</title>
            <path fill="none" stroke="black"
                d="M85.73,-52.77C91.65,-53.81 98.1,-54.81 104.1,-55.45 173.95,-62.86 192.21,-66.56 262.1,-59.45 265.29,-59.12 268.6,-58.67 271.9,-58.13" />
            <polygon fill="black" stroke="black" points="272.7,-61.01 280.53,-56.56 271.64,-55.16 272.7,-61.01" />
            <text text-anchor="middle" x="169.1" y="-66.25" font-family="Times,serif" font-size="14.00"> 0,...,9 </text>
        </g>
        <!-- qs -->
        <g id="node4" class="node">
            <title>qs</title>
            <ellipse fill="white" stroke="black" cx="169.1" cy="-21.45" rx="21.4" ry="21.4" />
            <text text-anchor="middle" x="169.1" y="-17.75" font-family="Times,serif" font-size="14.00">qs</text>
        </g>
        <!-- q0&#45;&gt;qs -->
        <g id="edge2" class="edge">
            <title>q0&#45;&gt;qs</title>
            <path fill="none" stroke="black" d="M85.59,-42.92C101.14,-38.87 122.41,-33.34 139.46,-28.9" />
            <polygon fill="black" stroke="black" points="140.46,-31.71 147.94,-26.69 138.96,-25.96 140.46,-31.71" />
            <text text-anchor="middle" x="115.1" y="-40.25" font-family="Times,serif" font-size="14.00"> + </text>
        </g>
        <!-- q0&#45;&gt;qs -->
        <g id="edge3" class="edge">
            <title>q0&#45;&gt;qs</title>
            <path fill="none" stroke="black"
                d="M78.78,-31.14C85.65,-24.24 94.46,-17.09 104.1,-13.45 115.53,-9.13 128.85,-9.95 140.37,-12.31" />
            <polygon fill="black" stroke="black" points="139.81,-15.23 148.77,-14.36 141.21,-9.45 139.81,-15.23" />
            <text text-anchor="middle" x="115.1" y="-17.25" font-family="Times,serif" font-size="14.00"> &#45; </text>
        </g>
        <!-- qn&#45;&gt;qn -->
        <g id="edge6" class="edge">
            <title>qn&#45;&gt;qn</title>
            <path fill="none" stroke="black"
                d="M294.35,-74.39C292.98,-85.49 297.15,-95.2 306.84,-95.2 313.81,-95.2 317.92,-90.18 319.18,-83.24" />
            <polygon fill="black" stroke="black" points="322.16,-82.94 319.34,-74.39 316.21,-82.83 322.16,-82.94" />
            <text text-anchor="middle" x="306.84" y="-99" font-family="Times,serif" font-size="14.00"> 0,...,9 </text>
        </g>
        <!-- qs&#45;&gt;qn -->
        <g id="edge5" class="edge">
            <title>qs&#45;&gt;qn</title>
            <path fill="none" stroke="black" d="M190.13,-25.73C211.59,-30.31 246.06,-37.68 271.8,-43.17" />
            <polygon fill="black" stroke="black" points="271.23,-46.09 280.16,-44.96 272.47,-40.28 271.23,-46.09" />
            <text text-anchor="middle" x="237.1" y="-44.25" font-family="Times,serif" font-size="14.00"> 0,...,9 </text>
        </g>
    </g>
</svg>