<?xml version="1.0" encoding="UTF-8" standalone="no"?>
<!DOCTYPE svg PUBLIC "-//W3C//DTD SVG 1.1//EN" "http://www.w3.org/Graphics/SVG/1.1/DTD/svg11.dtd">
<!-- Generated by graphviz version 2.43.0 (0)
 -->
<!-- Title: %3 Pages: 1 -->
<svg width="343pt" height="94pt" viewBox="0.00 0.00 343.49 94.50" xmlns="http://www.w3.org/2000/svg"
    xmlns:xlink="http://www.w3.org/1999/xlink">
    <g id="graph0" class="graph" transform="scale(1 1) rotate(0) translate(4 90.5)">
        <title>%3</title>
        <polygon fill="none" stroke="transparent" points="-4,4 -4,-90.5 339.49,-90.5 339.49,4 -4,4" />
        <!-- Initial1 -->
        <g id="node1" class="node">
            <title>Initial1</title>
            <ellipse fill="black" stroke="black" cx="1.8" cy="-53.75" rx="1.8" ry="1.8" />
        </g>
        <!-- q0 -->
        <g id="node3" class="node">
            <title>q0</title>
            <ellipse fill="white" stroke="black" cx="63.35" cy="-53.75" rx="23" ry="23" />
            <text text-anchor="middle" x="63.35" y="-50.05" font-family="Times,serif" font-size="14.00">q0</text>
        </g>
        <!-- Initial1&#45;&gt;q0 -->
        <g id="edge1" class="edge">
            <title>Initial1&#45;&gt;q0</title>
            <path fill="none" stroke="black" d="M3.83,-53.75C7.36,-53.75 19.4,-53.75 31.65,-53.75" />
            <polygon fill="black" stroke="black" points="31.98,-56.72 40.48,-53.75 31.98,-50.77 31.98,-56.72" />
        </g>
        <!-- Initial2 -->
        <g id="node2" class="node">
            <title>Initial2</title>
            <ellipse fill="black" stroke="black" cx="63.35" cy="-10.75" rx="1.8" ry="1.8" />
        </g>
        <!-- qs -->
        <g id="node5" class="node">
            <title>qs</title>
            <ellipse fill="white" stroke="black" cx="174.54" cy="-26.75" rx="21.4" ry="21.4" />
            <text text-anchor="middle" x="174.54" y="-23.05" font-family="Times,serif" font-size="14.00">qs</text>
        </g>
        <!-- Initial2&#45;&gt;qs -->
        <g id="edge2" class="edge">
            <title>Initial2&#45;&gt;qs</title>
            <path fill="none" stroke="black" d="M65.57,-10.93C73.22,-12.05 114.96,-18.16 144.24,-22.45" />
            <polygon fill="black" stroke="black" points="144.04,-25.43 152.88,-23.72 144.9,-19.54 144.04,-25.43" />
        </g>
        <!-- q0&#45;&gt;qs -->
        <g id="edge3" class="edge">
            <title>q0&#45;&gt;qs</title>
            <path fill="none" stroke="black" d="M85.66,-48.48C102.59,-44.29 126.43,-38.4 145.01,-33.8" />
            <polygon fill="black" stroke="black" points="145.85,-36.66 153.39,-31.73 144.42,-30.88 145.85,-36.66" />
            <text text-anchor="middle" x="119.6" y="-46.55" font-family="Times,serif" font-size="14.00"> +,&#45; </text>
        </g>
        <!-- qn -->
        <g id="node4" class="node">
            <title>qn</title>
            <ellipse fill="white" stroke="black" cx="308.74" cy="-26.75" rx="27" ry="27" />
            <ellipse fill="none" stroke="black" cx="308.74" cy="-26.75" rx="22.96" ry="22.96" />
            <text text-anchor="middle" x="308.74" y="-23.05" font-family="Times,serif" font-size="14.00">qn</text>
        </g>
        <!-- qn&#45;&gt;qn -->
        <g id="edge5" class="edge">
            <title>qn&#45;&gt;qn</title>
            <path fill="none" stroke="black"
                d="M296.24,-50.69C294.88,-61.79 299.04,-71.5 308.74,-71.5 315.71,-71.5 319.82,-66.48 321.08,-59.54" />
            <polygon fill="black" stroke="black" points="324.06,-59.24 321.24,-50.69 318.11,-59.13 324.06,-59.24" />
            <text text-anchor="middle" x="308.74" y="-75.3" font-family="Times,serif" font-size="14.00"> 0,...,9 </text>
        </g>
        <!-- qs&#45;&gt;qn -->
        <g id="edge4" class="edge">
            <title>qs&#45;&gt;qn</title>
            <path fill="none" stroke="black" d="M196.2,-26.75C216.77,-26.75 248.71,-26.75 273.15,-26.75" />
            <polygon fill="black" stroke="black" points="273.28,-29.72 281.78,-26.75 273.28,-23.77 273.28,-29.72" />
            <text text-anchor="middle" x="238.99" y="-30.55" font-family="Times,serif" font-size="14.00"> 0,...,9
            </text>
        </g>
    </g>
</svg>