<?xml version="1.0" encoding="UTF-8" standalone="no"?>
<!DOCTYPE svg PUBLIC "-//W3C//DTD SVG 1.1//EN" "http://www.w3.org/Graphics/SVG/1.1/DTD/svg11.dtd">
<!-- Generated by graphviz version 2.43.0 (0)
 -->
<!-- Title: %3 Pages: 1 -->
<svg width="99pt" height="92pt" viewBox="0.00 0.00 99.50 91.90" xmlns="http://www.w3.org/2000/svg"
    xmlns:xlink="http://www.w3.org/1999/xlink">
    <g id="graph0" class="graph" transform="scale(1 1) rotate(0) translate(4 87.9)">
        <title>%3</title>
        <polygon fill="none" stroke="transparent" points="-4,4 -4,-87.9 95.5,-87.9 95.5,4 -4,4" />
        <!-- Initial -->
        <g id="node1" class="node">
            <title>Initial</title>
            <ellipse fill="black" stroke="black" cx="1.8" cy="-25.45" rx="1.8" ry="1.8" />
        </g>
        <!-- qc -->
        <g id="node2" class="node">
            <title>qc</title>
            <ellipse fill="white" stroke="black" cx="66.05" cy="-25.45" rx="25.4" ry="25.4" />
            <ellipse fill="none" stroke="black" cx="66.05" cy="-25.45" rx="21.4" ry="21.4" />
            <text text-anchor="middle" x="66.05" y="-21.75" font-family="Times,serif" font-size="14.00">qc</text>
        </g>
        <!-- Initial&#45;&gt;qc -->
        <g id="edge1" class="edge">
            <title>Initial&#45;&gt;qc</title>
            <path fill="none" stroke="black" d="M3.88,-25.45C7.47,-25.45 19.51,-25.45 31.96,-25.45" />
            <polygon fill="black" stroke="black" points="32.05,-28.42 40.55,-25.45 32.05,-22.47 32.05,-28.42" />
        </g>
        <!-- qc&#45;&gt;qc -->
        <g id="edge2" class="edge">
            <title>qc&#45;&gt;qc</title>
            <path fill="none" stroke="black"
                d="M58.24,-50.01C57.7,-60.23 60.31,-68.9 66.05,-68.9 70.09,-68.9 72.57,-64.61 73.5,-58.52" />
            <polygon fill="black" stroke="black" points="76.48,-58.63 73.85,-50.01 70.53,-58.38 76.48,-58.63" />
            <text text-anchor="middle" x="66.05" y="-72.7" font-family="Times,serif" font-size="14.00"> c </text>
        </g>
    </g>
</svg>