<?xml version="1.0" encoding="UTF-8" standalone="no"?>
<!DOCTYPE svg PUBLIC "-//W3C//DTD SVG 1.1//EN" "http://www.w3.org/Graphics/SVG/1.1/DTD/svg11.dtd">
<!-- Generated by graphviz version 2.43.0 (0)
 -->
<!-- Title: %3 Pages: 1 -->
<svg width="101pt" height="93pt" viewBox="0.00 0.00 100.80 93.20" xmlns="http://www.w3.org/2000/svg"
    xmlns:xlink="http://www.w3.org/1999/xlink">
    <g id="graph0" class="graph" transform="scale(1 1) rotate(0) translate(4 89.2)">
        <title>%3</title>
        <polygon fill="none" stroke="transparent" points="-4,4 -4,-89.2 96.8,-89.2 96.8,4 -4,4" />
        <!-- Initial -->
        <g id="node1" class="node">
            <title>Initial</title>
            <ellipse fill="black" stroke="black" cx="1.8" cy="-26.1" rx="1.8" ry="1.8" />
        </g>
        <!-- qa -->
        <g id="node2" class="node">
            <title>qa</title>
            <ellipse fill="white" stroke="black" cx="66.7" cy="-26.1" rx="26.2" ry="26.2" />
            <ellipse fill="none" stroke="black" cx="66.7" cy="-26.1" rx="22.18" ry="22.18" />
            <text text-anchor="middle" x="66.7" y="-22.4" font-family="Times,serif" font-size="14.00">qa</text>
        </g>
        <!-- Initial&#45;&gt;qa -->
        <g id="edge1" class="edge">
            <title>Initial&#45;&gt;qa</title>
            <path fill="none" stroke="black" d="M3.89,-26.1C7.47,-26.1 19.33,-26.1 31.72,-26.1" />
            <polygon fill="black" stroke="black" points="31.78,-29.07 40.28,-26.1 31.78,-23.12 31.78,-29.07" />
        </g>
        <!-- qa&#45;&gt;qa -->
        <g id="edge2" class="edge">
            <title>qa&#45;&gt;qa</title>
            <path fill="none" stroke="black"
                d="M58.52,-51.03C57.96,-61.4 60.68,-70.2 66.7,-70.2 70.93,-70.2 73.53,-65.85 74.51,-59.66" />
            <polygon fill="black" stroke="black" points="77.49,-59.65 74.88,-51.03 71.54,-59.4 77.49,-59.65" />
            <text text-anchor="middle" x="66.7" y="-74" font-family="Times,serif" font-size="14.00"> a </text>
        </g>
    </g>
</svg>