<?xml version="1.0" encoding="UTF-8" standalone="no"?>
<!DOCTYPE svg PUBLIC "-//W3C//DTD SVG 1.1//EN" "http://www.w3.org/Graphics/SVG/1.1/DTD/svg11.dtd">
<!-- Generated by graphviz version 2.43.0 (0)
 -->
<!-- Title: %3 Pages: 1 -->
<svg width="487pt" height="256pt" viewBox="0.00 0.00 486.89 256.15" xmlns="http://www.w3.org/2000/svg"
    xmlns:xlink="http://www.w3.org/1999/xlink">
    <g id="graph0" class="graph" transform="scale(1 1) rotate(0) translate(4 252.15)">
        <title>%3</title>
        <polygon fill="none" stroke="transparent" points="-4,4 -4,-252.15 482.89,-252.15 482.89,4 -4,4" />
        <!-- Initial -->
        <g id="node1" class="node">
            <title>Initial</title>
            <ellipse fill="black" stroke="black" cx="1.8" cy="-33.15" rx="1.8" ry="1.8" />
        </g>
        <!-- start -->
        <g id="node7" class="node">
            <title>start</title>
            <ellipse fill="white" stroke="black" cx="73.75" cy="-33.15" rx="33.29" ry="33.29" />
            <text text-anchor="middle" x="73.75" y="-29.45" font-family="Times,serif" font-size="14.00">start</text>
        </g>
        <!-- Initial&#45;&gt;start -->
        <g id="edge1" class="edge">
            <title>Initial&#45;&gt;start</title>
            <path fill="none" stroke="black" d="M3.79,-33.15C7.19,-33.15 18.93,-33.15 31.79,-33.15" />
            <polygon fill="black" stroke="black" points="31.82,-36.12 40.32,-33.15 31.82,-30.17 31.82,-36.12" />
        </g>
        <!-- 0 -->
        <g id="node2" class="node">
            <title>0</title>
            <ellipse fill="white" stroke="black" cx="365.89" cy="-193.15" rx="22" ry="22" />
            <ellipse fill="none" stroke="black" cx="365.89" cy="-193.15" rx="18" ry="18" />
            <text text-anchor="middle" x="365.89" y="-189.45" font-family="Times,serif" font-size="14.00">0</text>
        </g>
        <!-- 0&#45;&gt;0 -->
        <g id="edge4" class="edge">
            <title>0&#45;&gt;0</title>
            <path fill="none" stroke="black"
                d="M357.16,-213.73C355.95,-223.99 358.86,-233.15 365.89,-233.15 370.84,-233.15 373.75,-228.62 374.62,-222.37" />
            <polygon fill="black" stroke="black" points="377.59,-222.23 374.63,-213.73 371.64,-222.22 377.59,-222.23" />
            <text text-anchor="middle" x="365.89" y="-236.95" font-family="Times,serif" font-size="14.00"> 0 </text>
        </g>
        <!-- 1 -->
        <g id="node3" class="node">
            <title>1</title>
            <ellipse fill="white" stroke="black" cx="179.89" cy="-33.15" rx="18" ry="18" />
            <text text-anchor="middle" x="179.89" y="-29.45" font-family="Times,serif" font-size="14.00">1</text>
        </g>
        <!-- 0&#45;&gt;1 -->
        <g id="edge5" class="edge">
            <title>0&#45;&gt;1</title>
            <path fill="none" stroke="black"
                d="M345.36,-184.62C333.76,-179.18 318.99,-171.57 306.89,-163.15 261.98,-131.86 252.63,-120.73 215.89,-80.15 208.78,-72.29 201.67,-63.05 195.73,-54.85" />
            <polygon fill="black" stroke="black" points="197.98,-52.89 190.63,-47.69 193.13,-56.34 197.98,-52.89" />
            <text text-anchor="middle" x="270.89" y="-152.95" font-family="Times,serif" font-size="14.00"> 1 </text>
        </g>
        <!-- 2 -->
        <g id="node4" class="node">
            <title>2</title>
            <ellipse fill="white" stroke="black" cx="270.89" cy="-82.15" rx="18" ry="18" />
            <text text-anchor="middle" x="270.89" y="-78.45" font-family="Times,serif" font-size="14.00">2</text>
        </g>
        <!-- 1&#45;&gt;2 -->
        <g id="edge6" class="edge">
            <title>1&#45;&gt;2</title>
            <path fill="none" stroke="black" d="M195.99,-41.46C209.93,-49.13 230.83,-60.64 246.85,-69.46" />
            <polygon fill="black" stroke="black" points="245.84,-72.3 254.72,-73.79 248.71,-67.09 245.84,-72.3" />
            <text text-anchor="middle" x="225.39" y="-64.95" font-family="Times,serif" font-size="14.00"> 0 </text>
        </g>
        <!-- 3 -->
        <g id="node5" class="node">
            <title>3</title>
            <ellipse fill="white" stroke="black" cx="460.89" cy="-28.15" rx="18" ry="18" />
            <text text-anchor="middle" x="460.89" y="-24.45" font-family="Times,serif" font-size="14.00">3</text>
        </g>
        <!-- 1&#45;&gt;3 -->
        <g id="edge7" class="edge">
            <title>1&#45;&gt;3</title>
            <path fill="none" stroke="black" d="M197.93,-32.84C245.11,-32 377.72,-29.62 434.06,-28.61" />
            <polygon fill="black" stroke="black" points="434.28,-31.58 442.73,-28.45 434.18,-25.63 434.28,-31.58" />
            <text text-anchor="middle" x="316.39" y="-33.95" font-family="Times,serif" font-size="14.00"> 1 </text>
        </g>
        <!-- 2&#45;&gt;0 -->
        <g id="edge9" class="edge">
            <title>2&#45;&gt;0</title>
            <path fill="none" stroke="black" d="M283.3,-95.76C298.77,-114.23 326.64,-147.49 345.45,-169.94" />
            <polygon fill="black" stroke="black" points="343.23,-171.92 350.97,-176.53 347.79,-168.1 343.23,-171.92" />
            <text text-anchor="middle" x="316.39" y="-147.95" font-family="Times,serif" font-size="14.00"> 1 </text>
        </g>
        <!-- 4 -->
        <g id="node6" class="node">
            <title>4</title>
            <ellipse fill="white" stroke="black" cx="365.89" cy="-102.15" rx="18" ry="18" />
            <text text-anchor="middle" x="365.89" y="-98.45" font-family="Times,serif" font-size="14.00">4</text>
        </g>
        <!-- 2&#45;&gt;4 -->
        <g id="edge8" class="edge">
            <title>2&#45;&gt;4</title>
            <path fill="none" stroke="black" d="M288.95,-85.82C303.11,-88.86 323.45,-93.24 339.52,-96.69" />
            <polygon fill="black" stroke="black" points="339.01,-99.62 347.94,-98.5 340.26,-93.81 339.01,-99.62" />
            <text text-anchor="middle" x="316.39" y="-96.95" font-family="Times,serif" font-size="14.00"> 0 </text>
        </g>
        <!-- 3&#45;&gt;1 -->
        <g id="edge10" class="edge">
            <title>3&#45;&gt;1</title>
            <path fill="none" stroke="black"
                d="M442.94,-24.07C414.75,-17.77 356.42,-6.86 306.89,-11.15 271.63,-14.2 231.42,-21.98 206.1,-27.42" />
            <polygon fill="black" stroke="black" points="205.15,-24.58 197.49,-29.3 206.43,-30.4 205.15,-24.58" />
            <text text-anchor="middle" x="316.39" y="-14.95" font-family="Times,serif" font-size="14.00"> 0 </text>
        </g>
        <!-- 3&#45;&gt;2 -->
        <g id="edge11" class="edge">
            <title>3&#45;&gt;2</title>
            <path fill="none" stroke="black"
                d="M443.33,-32.56C420.79,-38.61 379.2,-49.89 343.89,-60.15 328.14,-64.73 310.53,-70.1 296.67,-74.39" />
            <polygon fill="black" stroke="black" points="295.39,-71.68 288.16,-77.04 297.16,-77.36 295.39,-71.68" />
            <text text-anchor="middle" x="365.89" y="-63.95" font-family="Times,serif" font-size="14.00"> 1 </text>
        </g>
        <!-- 4&#45;&gt;3 -->
        <g id="edge12" class="edge">
            <title>4&#45;&gt;3</title>
            <path fill="none" stroke="black"
                d="M382.37,-93.68C394.48,-86.73 411.45,-76.25 424.89,-65.15 431.07,-60.05 437.25,-53.92 442.67,-48.14" />
            <polygon fill="black" stroke="black" points="445.11,-49.88 448.63,-41.59 440.71,-45.88 445.11,-49.88" />
            <text text-anchor="middle" x="415.39" y="-81.95" font-family="Times,serif" font-size="14.00"> 0 </text>
        </g>
        <!-- 4&#45;&gt;4 -->
        <g id="edge13" class="edge">
            <title>4&#45;&gt;4</title>
            <path fill="none" stroke="black"
                d="M357.53,-118.44C355.51,-128.54 358.3,-138.15 365.89,-138.15 371.23,-138.15 374.2,-133.4 374.79,-127.06" />
            <polygon fill="black" stroke="black" points="377.75,-126.74 374.26,-118.44 371.81,-127.1 377.75,-126.74" />
            <text text-anchor="middle" x="365.89" y="-141.95" font-family="Times,serif" font-size="14.00"> 1 </text>
        </g>
        <!-- start&#45;&gt;1 -->
        <g id="edge3" class="edge">
            <title>start&#45;&gt;1</title>
            <path fill="none" stroke="black" d="M107.13,-33.15C121.92,-33.15 139.2,-33.15 153.1,-33.15" />
            <polygon fill="black" stroke="black" points="153.18,-36.12 161.68,-33.15 153.18,-30.17 153.18,-36.12" />
            <text text-anchor="middle" x="134.39" y="-36.95" font-family="Times,serif" font-size="14.00"> 1 </text>
        </g>
        <!-- start&#45;&gt;start -->
        <g id="edge2" class="edge">
            <title>start&#45;&gt;start</title>
            <path fill="none" stroke="black"
                d="M64.37,-65.11C64.37,-75.77 67.5,-84.29 73.75,-84.29 78.14,-84.29 80.99,-80.08 82.3,-73.87" />
            <polygon fill="black" stroke="black" points="85.29,-73.86 83.12,-65.11 79.36,-73.3 85.29,-73.86" />
            <text text-anchor="middle" x="73.75" y="-88.09" font-family="Times,serif" font-size="14.00"> 0 </text>
        </g>
    </g>
</svg>