<?xml version="1.0" encoding="UTF-8" standalone="no"?>
<!DOCTYPE svg PUBLIC "-//W3C//DTD SVG 1.1//EN"
 "http://www.w3.org/Graphics/SVG/1.1/DTD/svg11.dtd">
<!-- Generated by graphviz version 2.43.0 (0)
 -->
<!-- Title: %3 Pages: 1 -->
<svg width="435pt" height="161pt"
 viewBox="0.00 0.00 434.78 160.90" xmlns="http://www.w3.org/2000/svg" xmlns:xlink="http://www.w3.org/1999/xlink">
<g id="graph0" class="graph" transform="scale(1 1) rotate(0) translate(4 156.9)">
<title>%3</title>
<polygon fill="white" stroke="transparent" points="-4,4 -4,-156.9 430.78,-156.9 430.78,4 -4,4"/>
<!-- Initial -->
<g id="node1" class="node">
<title>Initial</title>
<ellipse fill="black" stroke="black" cx="1.8" cy="-53.75" rx="1.8" ry="1.8"/>
</g>
<!-- start -->
<g id="node7" class="node">
<title>start</title>
<ellipse fill="none" stroke="black" cx="73.75" cy="-53.75" rx="33.29" ry="33.29"/>
<text text-anchor="middle" x="73.75" y="-50.05" font-family="Times,serif" font-size="14.00">start</text>
</g>
<!-- Initial&#45;&gt;start -->
<g id="edge1" class="edge">
<title>Initial&#45;&gt;start</title>
<path fill="none" stroke="black" d="M3.79,-53.75C7.19,-53.75 18.93,-53.75 31.79,-53.75"/>
<polygon fill="black" stroke="black" points="31.82,-56.72 40.32,-53.75 31.82,-50.77 31.82,-56.72"/>
</g>
<!-- 1a -->
<g id="node2" class="node">
<title>1a</title>
<ellipse fill="none" stroke="black" cx="184.64" cy="-85.75" rx="22.2" ry="22.2"/>
<text text-anchor="middle" x="184.64" y="-82.05" font-family="Times,serif" font-size="14.00">1a</text>
</g>
<!-- 2a -->
<g id="node4" class="node">
<title>2a</title>
<ellipse fill="none" stroke="black" cx="285.14" cy="-85.75" rx="22.2" ry="22.2"/>
<text text-anchor="middle" x="285.14" y="-82.05" font-family="Times,serif" font-size="14.00">2a</text>
</g>
<!-- 1a&#45;&gt;2a -->
<g id="edge6" class="edge">
<title>1a&#45;&gt;2a</title>
<path fill="none" stroke="black" d="M207.01,-85.75C220.82,-85.75 239,-85.75 254.23,-85.75"/>
<polygon fill="black" stroke="black" points="254.31,-88.72 262.81,-85.75 254.31,-82.77 254.31,-88.72"/>
<text text-anchor="middle" x="234.89" y="-89.55" font-family="Times,serif" font-size="14.00"> a </text>
</g>
<!-- 1b -->
<g id="node3" class="node">
<title>1b</title>
<ellipse fill="none" stroke="black" cx="184.64" cy="-22.75" rx="23" ry="23"/>
<text text-anchor="middle" x="184.64" y="-19.05" font-family="Times,serif" font-size="14.00">1b</text>
</g>
<!-- 2b -->
<g id="node5" class="node">
<title>2b</title>
<ellipse fill="none" stroke="black" cx="285.14" cy="-22.75" rx="23" ry="23"/>
<text text-anchor="middle" x="285.14" y="-19.05" font-family="Times,serif" font-size="14.00">2b</text>
</g>
<!-- 1b&#45;&gt;2b -->
<g id="edge9" class="edge">
<title>1b&#45;&gt;2b</title>
<path fill="none" stroke="black" d="M207.5,-22.75C221.02,-22.75 238.57,-22.75 253.47,-22.75"/>
<polygon fill="black" stroke="black" points="253.84,-25.72 262.34,-22.75 253.84,-19.77 253.84,-25.72"/>
<text text-anchor="middle" x="234.89" y="-26.55" font-family="Times,serif" font-size="14.00"> b </text>
</g>
<!-- end -->
<g id="node6" class="node">
<title>end</title>
<ellipse fill="none" stroke="black" cx="394.83" cy="-54.75" rx="27.9" ry="27.9"/>
<ellipse fill="none" stroke="black" cx="394.83" cy="-54.75" rx="31.9" ry="31.9"/>
<text text-anchor="middle" x="394.83" y="-51.05" font-family="Times,serif" font-size="14.00">end</text>
</g>
<!-- 2a&#45;&gt;end -->
<g id="edge7" class="edge">
<title>2a&#45;&gt;end</title>
<path fill="none" stroke="black" d="M306.71,-90.84C318.2,-92.77 332.62,-93.68 344.89,-89.75 351.32,-87.68 357.63,-84.43 363.46,-80.72"/>
<polygon fill="black" stroke="black" points="365.26,-83.09 370.57,-75.82 361.89,-78.19 365.26,-83.09"/>
<text text-anchor="middle" x="335.39" y="-95.55" font-family="Times,serif" font-size="14.00"> a </text>
</g>
<!-- 2a&#45;&gt;end -->
<g id="edge8" class="edge">
<title>2a&#45;&gt;end</title>
<path fill="none" stroke="black" d="M305.78,-77.76C312.13,-75.33 319.25,-72.77 325.89,-70.75 335.12,-67.93 345.18,-65.32 354.66,-63.06"/>
<polygon fill="black" stroke="black" points="355.56,-65.9 363.17,-61.08 354.21,-60.11 355.56,-65.9"/>
<text text-anchor="middle" x="335.39" y="-74.55" font-family="Times,serif" font-size="14.00"> b </text>
</g>
<!-- 2b&#45;&gt;end -->
<g id="edge10" class="edge">
<title>2b&#45;&gt;end</title>
<path fill="none" stroke="black" d="M307.16,-28.99C320.92,-33.08 339.31,-38.55 355.6,-43.39"/>
<polygon fill="black" stroke="black" points="354.91,-46.28 363.9,-45.85 356.6,-40.58 354.91,-46.28"/>
<text text-anchor="middle" x="335.39" y="-43.55" font-family="Times,serif" font-size="14.00"> a </text>
</g>
<!-- 2b&#45;&gt;end -->
<g id="edge11" class="edge">
<title>2b&#45;&gt;end</title>
<path fill="none" stroke="black" d="M307.02,-16.38C318.47,-13.93 332.76,-12.59 344.89,-16.75 351.76,-19.1 358.42,-22.86 364.49,-27.12"/>
<polygon fill="black" stroke="black" points="362.76,-29.54 371.33,-32.29 366.35,-24.79 362.76,-29.54"/>
<text text-anchor="middle" x="335.39" y="-20.55" font-family="Times,serif" font-size="14.00"> b </text>
</g>
<!-- start&#45;&gt;1a -->
<g id="edge3" class="edge">
<title>start&#45;&gt;1a</title>
<path fill="none" stroke="black" d="M105.66,-62.83C121.11,-67.37 139.7,-72.84 154.85,-77.29"/>
<polygon fill="black" stroke="black" points="154.33,-80.23 163.32,-79.78 156.01,-74.53 154.33,-80.23"/>
<text text-anchor="middle" x="134.39" y="-77.55" font-family="Times,serif" font-size="14.00"> a </text>
</g>
<!-- start&#45;&gt;1b -->
<g id="edge5" class="edge">
<title>start&#45;&gt;1b</title>
<path fill="none" stroke="black" d="M105.95,-44.86C121.08,-40.56 139.16,-35.41 154.07,-31.17"/>
<polygon fill="black" stroke="black" points="155.08,-33.97 162.44,-28.78 153.45,-28.25 155.08,-33.97"/>
<text text-anchor="middle" x="134.39" y="-43.55" font-family="Times,serif" font-size="14.00"> b </text>
</g>
<!-- start&#45;&gt;start -->
<g id="edge2" class="edge">
<title>start&#45;&gt;start</title>
<path fill="none" stroke="black" d="M69.06,-86.71C69.16,-96.89 70.72,-104.9 73.75,-104.9 75.83,-104.9 77.22,-101.11 77.91,-95.44"/>
<polygon fill="black" stroke="black" points="80.9,-95.37 78.43,-86.71 74.96,-95.02 80.9,-95.37"/>
<text text-anchor="middle" x="73.75" y="-108.7" font-family="Times,serif" font-size="14.00"> a </text>
</g>
<!-- start&#45;&gt;start -->
<g id="edge4" class="edge">
<title>start&#45;&gt;start</title>
<path fill="none" stroke="black" d="M64.96,-85.76C63,-104.89 65.93,-122.9 73.75,-122.9 80.34,-122.9 83.45,-110.08 83.09,-94.58"/>
<polygon fill="black" stroke="black" points="86.04,-94.05 82.54,-85.76 80.1,-94.43 86.04,-94.05"/>
<text text-anchor="middle" x="73.75" y="-126.7" font-family="Times,serif" font-size="14.00"> b </text>
</g>
</g>
</svg>
