<?xml version="1.0" encoding="UTF-8" standalone="no"?>
<!DOCTYPE svg PUBLIC "-//W3C//DTD SVG 1.1//EN"
 "http://www.w3.org/Graphics/SVG/1.1/DTD/svg11.dtd">
<!-- Generated by graphviz version 2.43.0 (0)
 -->
<!-- Title: %3 Pages: 1 -->
<svg width="311pt" height="111pt"
 viewBox="0.00 0.00 311.09 111.50" xmlns="http://www.w3.org/2000/svg" xmlns:xlink="http://www.w3.org/1999/xlink">
<g id="graph0" class="graph" transform="scale(1 1) rotate(0) translate(4 107.5)">
<title>%3</title>
<polygon fill="white" stroke="transparent" points="-4,4 -4,-107.5 307.09,-107.5 307.09,4 -4,4"/>
<!-- Initial -->
<g id="node1" class="node">
<title>Initial</title>
<ellipse fill="black" stroke="black" cx="1.8" cy="-26.75" rx="1.8" ry="1.8"/>
</g>
<!-- d3 -->
<g id="node4" class="node">
<title>d3</title>
<ellipse fill="none" stroke="black" cx="63.35" cy="-26.75" rx="23" ry="23"/>
<text text-anchor="middle" x="63.35" y="-23.05" font-family="Times,serif" font-size="14.00">d3</text>
</g>
<!-- Initial&#45;&gt;d3 -->
<g id="edge1" class="edge">
<title>Initial&#45;&gt;d3</title>
<path fill="none" stroke="black" d="M3.83,-26.75C7.36,-26.75 19.4,-26.75 31.65,-26.75"/>
<polygon fill="black" stroke="black" points="31.98,-29.72 40.48,-26.75 31.98,-23.77 31.98,-29.72"/>
</g>
<!-- 01 -->
<g id="node2" class="node">
<title>01</title>
<ellipse fill="none" stroke="black" cx="167.84" cy="-76.75" rx="22.96" ry="22.96"/>
<ellipse fill="none" stroke="black" cx="167.84" cy="-76.75" rx="27" ry="27"/>
<text text-anchor="middle" x="167.84" y="-73.05" font-family="Times,serif" font-size="14.00">01</text>
</g>
<!-- 10 -->
<g id="node3" class="node">
<title>10</title>
<ellipse fill="none" stroke="black" cx="276.34" cy="-26.75" rx="22.96" ry="22.96"/>
<ellipse fill="none" stroke="black" cx="276.34" cy="-26.75" rx="27" ry="27"/>
<text text-anchor="middle" x="276.34" y="-23.05" font-family="Times,serif" font-size="14.00">10</text>
</g>
<!-- 01&#45;&gt;10 -->
<g id="edge5" class="edge">
<title>01&#45;&gt;10</title>
<path fill="none" stroke="black" d="M194.37,-72.15C206.09,-69.47 219.94,-65.46 231.59,-59.75 237.35,-56.93 243.11,-53.31 248.46,-49.5"/>
<polygon fill="black" stroke="black" points="250.46,-51.73 255.49,-44.26 246.89,-46.96 250.46,-51.73"/>
<text text-anchor="middle" x="222.09" y="-70.55" font-family="Times,serif" font-size="14.00"> 5 </text>
</g>
<!-- 01&#45;&gt;d3 -->
<g id="edge4" class="edge">
<title>01&#45;&gt;d3</title>
<path fill="none" stroke="black" d="M148.15,-58.19C140.85,-51.84 132.08,-45.21 123.1,-40.75 114.25,-36.35 103.97,-33.3 94.5,-31.19"/>
<polygon fill="black" stroke="black" points="95.01,-28.26 86.09,-29.51 93.84,-34.09 95.01,-28.26"/>
<text text-anchor="middle" x="113.6" y="-44.55" font-family="Times,serif" font-size="14.00"> 4 </text>
</g>
<!-- 10&#45;&gt;01 -->
<g id="edge6" class="edge">
<title>10&#45;&gt;01</title>
<path fill="none" stroke="black" d="M249.7,-29.69C237.96,-31.72 224.13,-35.12 212.59,-40.75 206.25,-43.84 200.03,-48.03 194.36,-52.45"/>
<polygon fill="black" stroke="black" points="192.16,-50.41 187.5,-58.12 195.95,-55 192.16,-50.41"/>
<text text-anchor="middle" x="222.09" y="-44.55" font-family="Times,serif" font-size="14.00"> 4 </text>
</g>
<!-- 10&#45;&gt;d3 -->
<g id="edge7" class="edge">
<title>10&#45;&gt;d3</title>
<path fill="none" stroke="black" d="M250.56,-18.56C234.75,-13.76 213.7,-8.19 194.59,-5.75 171.01,-2.73 164.66,-2.58 141.1,-5.75 125.11,-7.9 107.74,-12.45 93.57,-16.78"/>
<polygon fill="black" stroke="black" points="92.42,-14.02 85.21,-19.41 94.21,-19.69 92.42,-14.02"/>
<text text-anchor="middle" x="167.84" y="-9.55" font-family="Times,serif" font-size="14.00"> 5 </text>
</g>
<!-- d3&#45;&gt;01 -->
<g id="edge3" class="edge">
<title>d3&#45;&gt;01</title>
<path fill="none" stroke="black" d="M80.22,-42.61C87.08,-48.72 95.5,-55.29 104.1,-59.75 112.92,-64.33 123.09,-67.77 132.65,-70.31"/>
<polygon fill="black" stroke="black" points="132.23,-73.27 141.19,-72.4 133.64,-67.49 132.23,-73.27"/>
<text text-anchor="middle" x="113.6" y="-70.55" font-family="Times,serif" font-size="14.00"> 5 </text>
</g>
<!-- d3&#45;&gt;10 -->
<g id="edge2" class="edge">
<title>d3&#45;&gt;10</title>
<path fill="none" stroke="black" d="M86.18,-26.39C101.54,-26.15 122.57,-25.87 141.1,-25.75 164.87,-25.59 170.82,-25.6 194.59,-25.75 209.8,-25.84 226.62,-26.04 240.95,-26.23"/>
<polygon fill="black" stroke="black" points="240.98,-29.2 249.52,-26.35 241.06,-23.25 240.98,-29.2"/>
<text text-anchor="middle" x="167.84" y="-29.55" font-family="Times,serif" font-size="14.00"> 4 </text>
</g>
</g>
</svg>
