<?xml version="1.0" encoding="UTF-8" standalone="no"?>
<!DOCTYPE svg PUBLIC "-//W3C//DTD SVG 1.1//EN"
 "http://www.w3.org/Graphics/SVG/1.1/DTD/svg11.dtd">
<!-- Generated by graphviz version 2.43.0 (0)
 -->
<!-- Title: %3 Pages: 1 -->
<svg width="576pt" height="263pt"
 viewBox="0.00 0.00 576.00 262.65" xmlns="http://www.w3.org/2000/svg" xmlns:xlink="http://www.w3.org/1999/xlink">
<g id="graph0" class="graph" transform="scale(0.77 0.77) rotate(0) translate(4 335.75)">
<title>%3</title>
<polygon fill="white" stroke="transparent" points="-4,4 -4,-335.75 741.07,-335.75 741.07,4 -4,4"/>
<!-- Initial -->
<g id="node1" class="node">
<title>Initial</title>
<ellipse fill="black" stroke="black" cx="1.8" cy="-163" rx="1.8" ry="1.8"/>
</g>
<!-- d3 -->
<g id="node8" class="node">
<title>d3</title>
<ellipse fill="none" stroke="black" cx="63.35" cy="-163" rx="23" ry="23"/>
<text text-anchor="middle" x="63.35" y="-159.3" font-family="Times,serif" font-size="14.00">d3</text>
</g>
<!-- Initial&#45;&gt;d3 -->
<g id="edge1" class="edge">
<title>Initial&#45;&gt;d3</title>
<path fill="none" stroke="black" d="M3.83,-163C7.36,-163 19.4,-163 31.65,-163"/>
<polygon fill="black" stroke="black" points="31.98,-165.98 40.48,-163 31.98,-160.03 31.98,-165.98"/>
</g>
<!-- 01 -->
<g id="node2" class="node">
<title>01</title>
<ellipse fill="none" stroke="black" cx="167.84" cy="-247" rx="22.96" ry="22.96"/>
<ellipse fill="none" stroke="black" cx="167.84" cy="-247" rx="27" ry="27"/>
<text text-anchor="middle" x="167.84" y="-243.3" font-family="Times,serif" font-size="14.00">01</text>
</g>
<!-- 02 -->
<g id="node3" class="node">
<title>02</title>
<ellipse fill="none" stroke="black" cx="276.34" cy="-195" rx="22.96" ry="22.96"/>
<ellipse fill="none" stroke="black" cx="276.34" cy="-195" rx="27" ry="27"/>
<text text-anchor="middle" x="276.34" y="-191.3" font-family="Times,serif" font-size="14.00">02</text>
</g>
<!-- 01&#45;&gt;02 -->
<g id="edge5" class="edge">
<title>01&#45;&gt;02</title>
<path fill="none" stroke="black" d="M190.76,-233.14C197.63,-229.02 205.32,-224.64 212.59,-221 222.31,-216.13 233.17,-211.4 243.08,-207.33"/>
<polygon fill="black" stroke="black" points="244.37,-210.02 251.14,-204.09 242.15,-204.5 244.37,-210.02"/>
<text text-anchor="middle" x="222.09" y="-224.8" font-family="Times,serif" font-size="14.00"> 5 </text>
</g>
<!-- 01&#45;&gt;d3 -->
<g id="edge4" class="edge">
<title>01&#45;&gt;d3</title>
<path fill="none" stroke="black" d="M141.04,-245.02C128.85,-243.01 114.69,-238.98 104.1,-231 91.13,-221.23 81.64,-205.9 75.2,-192.27"/>
<polygon fill="black" stroke="black" points="77.91,-191.06 71.75,-184.49 72.47,-193.47 77.91,-191.06"/>
<text text-anchor="middle" x="113.6" y="-243.8" font-family="Times,serif" font-size="14.00"> 4 </text>
</g>
<!-- 12 -->
<g id="node5" class="node">
<title>12</title>
<ellipse fill="none" stroke="black" cx="384.84" cy="-152" rx="22.96" ry="22.96"/>
<ellipse fill="none" stroke="black" cx="384.84" cy="-152" rx="27" ry="27"/>
<text text-anchor="middle" x="384.84" y="-148.3" font-family="Times,serif" font-size="14.00">12</text>
</g>
<!-- 02&#45;&gt;12 -->
<g id="edge6" class="edge">
<title>02&#45;&gt;12</title>
<path fill="none" stroke="black" d="M301.51,-185.24C316.35,-179.25 335.54,-171.5 351.66,-164.99"/>
<polygon fill="black" stroke="black" points="353,-167.66 359.77,-161.72 350.77,-162.14 353,-167.66"/>
<text text-anchor="middle" x="330.59" y="-179.8" font-family="Times,serif" font-size="14.00"> 4 </text>
</g>
<!-- 02&#45;&gt;d3 -->
<g id="edge7" class="edge">
<title>02&#45;&gt;d3</title>
<path fill="none" stroke="black" d="M249.76,-191.12C210.74,-185.2 136.49,-173.94 94.77,-167.61"/>
<polygon fill="black" stroke="black" points="94.98,-164.64 86.13,-166.3 94.09,-170.52 94.98,-164.64"/>
<text text-anchor="middle" x="167.84" y="-185.8" font-family="Times,serif" font-size="14.00"> 5 </text>
</g>
<!-- 10 -->
<g id="node4" class="node">
<title>10</title>
<ellipse fill="none" stroke="black" cx="493.33" cy="-119" rx="22.96" ry="22.96"/>
<ellipse fill="none" stroke="black" cx="493.33" cy="-119" rx="27" ry="27"/>
<text text-anchor="middle" x="493.33" y="-115.3" font-family="Times,serif" font-size="14.00">10</text>
</g>
<!-- 20 -->
<g id="node6" class="node">
<title>20</title>
<ellipse fill="none" stroke="black" cx="601.83" cy="-305" rx="22.96" ry="22.96"/>
<ellipse fill="none" stroke="black" cx="601.83" cy="-305" rx="27" ry="27"/>
<text text-anchor="middle" x="601.83" y="-301.3" font-family="Times,serif" font-size="14.00">20</text>
</g>
<!-- 10&#45;&gt;20 -->
<g id="edge8" class="edge">
<title>10&#45;&gt;20</title>
<path fill="none" stroke="black" d="M507.39,-141.81C526.47,-175.14 562.02,-237.22 583.34,-274.46"/>
<polygon fill="black" stroke="black" points="580.86,-276.11 587.66,-282.01 586.02,-273.15 580.86,-276.11"/>
<text text-anchor="middle" x="547.58" y="-226.8" font-family="Times,serif" font-size="14.00"> 4 </text>
</g>
<!-- 10&#45;&gt;d3 -->
<g id="edge9" class="edge">
<title>10&#45;&gt;d3</title>
<path fill="none" stroke="black" d="M475.9,-98.28C456.78,-76.69 423.05,-46 385.84,-46 166.84,-46 166.84,-46 166.84,-46 120.22,-46 89.86,-99.22 75.04,-133.87"/>
<polygon fill="black" stroke="black" points="72.26,-132.82 71.77,-141.81 77.76,-135.08 72.26,-132.82"/>
<text text-anchor="middle" x="276.34" y="-49.8" font-family="Times,serif" font-size="14.00"> 5 </text>
</g>
<!-- 12&#45;&gt;10 -->
<g id="edge11" class="edge">
<title>12&#45;&gt;10</title>
<path fill="none" stroke="black" d="M410.54,-144.35C424.95,-139.88 443.32,-134.19 459,-129.33"/>
<polygon fill="black" stroke="black" points="460.16,-132.08 467.4,-126.73 458.4,-126.4 460.16,-132.08"/>
<text text-anchor="middle" x="439.08" y="-141.8" font-family="Times,serif" font-size="14.00"> 5 </text>
</g>
<!-- 12&#45;&gt;d3 -->
<g id="edge10" class="edge">
<title>12&#45;&gt;d3</title>
<path fill="none" stroke="black" d="M357.76,-152.9C299.22,-154.91 157.54,-159.79 94.95,-161.95"/>
<polygon fill="black" stroke="black" points="94.7,-158.98 86.31,-162.24 94.91,-164.92 94.7,-158.98"/>
<text text-anchor="middle" x="222.09" y="-161.8" font-family="Times,serif" font-size="14.00"> 4 </text>
</g>
<!-- 21 -->
<g id="node7" class="node">
<title>21</title>
<ellipse fill="none" stroke="black" cx="710.32" cy="-250" rx="22.96" ry="22.96"/>
<ellipse fill="none" stroke="black" cx="710.32" cy="-250" rx="27" ry="27"/>
<text text-anchor="middle" x="710.32" y="-246.3" font-family="Times,serif" font-size="14.00">21</text>
</g>
<!-- 20&#45;&gt;21 -->
<g id="edge13" class="edge">
<title>20&#45;&gt;21</title>
<path fill="none" stroke="black" d="M625.94,-293.07C641.29,-285.14 661.62,-274.64 678.37,-265.99"/>
<polygon fill="black" stroke="black" points="680.07,-268.45 686.26,-261.91 677.34,-263.17 680.07,-268.45"/>
<text text-anchor="middle" x="656.08" y="-283.8" font-family="Times,serif" font-size="14.00"> 5 </text>
</g>
<!-- 20&#45;&gt;d3 -->
<g id="edge12" class="edge">
<title>20&#45;&gt;d3</title>
<path fill="none" stroke="black" d="M575.01,-304.24C553.44,-303.68 521.89,-303 494.33,-303 166.84,-303 166.84,-303 166.84,-303 112.99,-303 84.37,-234.72 72,-193.53"/>
<polygon fill="black" stroke="black" points="74.81,-192.53 69.6,-185.18 69.09,-194.17 74.81,-192.53"/>
<text text-anchor="middle" x="330.59" y="-306.8" font-family="Times,serif" font-size="14.00"> 4 </text>
</g>
<!-- 21&#45;&gt;01 -->
<g id="edge14" class="edge">
<title>21&#45;&gt;01</title>
<path fill="none" stroke="black" d="M683.5,-250C661.93,-250 630.38,-250 602.83,-250 275.34,-250 275.34,-250 275.34,-250 251.23,-250 224.05,-249.22 203.19,-248.46"/>
<polygon fill="black" stroke="black" points="203.27,-245.48 194.66,-248.13 203.04,-251.43 203.27,-245.48"/>
<text text-anchor="middle" x="439.08" y="-253.8" font-family="Times,serif" font-size="14.00"> 4 </text>
</g>
<!-- 21&#45;&gt;d3 -->
<g id="edge15" class="edge">
<title>21&#45;&gt;d3</title>
<path fill="none" stroke="black" d="M709.84,-223.25C709.55,-158.75 699.07,0 602.83,0 166.84,0 166.84,0 166.84,0 105.01,0 79.02,-85.11 69.36,-132.33"/>
<polygon fill="black" stroke="black" points="66.44,-131.77 67.74,-140.68 72.28,-132.9 66.44,-131.77"/>
<text text-anchor="middle" x="384.84" y="-3.8" font-family="Times,serif" font-size="14.00"> 5 </text>
</g>
<!-- d3&#45;&gt;01 -->
<g id="edge3" class="edge">
<title>d3&#45;&gt;01</title>
<path fill="none" stroke="black" d="M81.26,-177.69C88.28,-183.73 96.53,-190.76 104.1,-197 115.55,-206.46 128.35,-216.71 139.39,-225.46"/>
<polygon fill="black" stroke="black" points="137.84,-228.03 146.35,-230.96 141.53,-223.36 137.84,-228.03"/>
<text text-anchor="middle" x="113.6" y="-215.8" font-family="Times,serif" font-size="14.00"> 5 </text>
</g>
<!-- d3&#45;&gt;10 -->
<g id="edge2" class="edge">
<title>d3&#45;&gt;10</title>
<path fill="none" stroke="black" d="M78.77,-146C97.08,-126.45 130.65,-97 166.84,-97 166.84,-97 166.84,-97 385.84,-97 410.89,-97 438.59,-102.91 459.46,-108.61"/>
<polygon fill="black" stroke="black" points="458.68,-111.48 467.67,-110.93 460.3,-105.75 458.68,-111.48"/>
<text text-anchor="middle" x="276.34" y="-100.8" font-family="Times,serif" font-size="14.00"> 4 </text>
</g>
</g>
</svg>
