<?xml version="1.0" encoding="UTF-8" standalone="no"?>
<!DOCTYPE svg PUBLIC "-//W3C//DTD SVG 1.1//EN" "http://www.w3.org/Graphics/SVG/1.1/DTD/svg11.dtd">
<!-- Generated by graphviz version 2.43.0 (0)
 -->
<!-- Title: %3 Pages: 1 -->
<svg width="295pt" height="109pt" viewBox="0.00 0.00 295.29 108.90" xmlns="http://www.w3.org/2000/svg"
    xmlns:xlink="http://www.w3.org/1999/xlink">
    <g id="graph0" class="graph" transform="scale(1 1) rotate(0) translate(4 104.9)">
        <title>%3</title>
        <polygon fill="white" stroke="transparent" points="-4,4 -4,-104.9 291.29,-104.9 291.29,4 -4,4" />
        <!-- Initial -->
        <g id="node1" class="node">
            <title>Initial</title>
            <ellipse fill="black" stroke="black" cx="1.8" cy="-41.45" rx="1.8" ry="1.8" />
        </g>
        <!-- s0 -->
        <g id="node2" class="node">
            <title>s0</title>
            <ellipse fill="none" stroke="black" cx="62.05" cy="-41.45" rx="21.4" ry="21.4" />
            <text text-anchor="middle" x="62.05" y="-37.75" font-family="Times,serif" font-size="14.00">s0</text>
        </g>
        <!-- Initial&#45;&gt;s0 -->
        <g id="edge1" class="edge">
            <title>Initial&#45;&gt;s0</title>
            <path fill="none" stroke="black" d="M3.81,-41.45C7.34,-41.45 19.54,-41.45 31.78,-41.45" />
            <polygon fill="black" stroke="black" points="32.07,-44.42 40.57,-41.45 32.07,-38.47 32.07,-44.42" />
        </g>
        <!-- s0&#45;&gt;s0 -->
        <g id="edge2" class="edge">
            <title>s0&#45;&gt;s0</title>
            <path fill="none" stroke="black"
                d="M55.1,-62.15C54.24,-72.11 56.56,-80.9 62.05,-80.9 65.82,-80.9 68.1,-76.74 68.87,-70.91" />
            <polygon fill="black" stroke="black" points="71.85,-70.69 69,-62.15 65.9,-70.61 71.85,-70.69" />
            <text text-anchor="middle" x="62.05" y="-84.7" font-family="Times,serif" font-size="14.00"> a </text>
        </g>
        <!-- s1 -->
        <g id="node3" class="node">
            <title>s1</title>
            <ellipse fill="none" stroke="black" cx="159.94" cy="-79.45" rx="21.4" ry="21.4" />
            <text text-anchor="middle" x="159.94" y="-75.75" font-family="Times,serif" font-size="14.00">s1</text>
        </g>
        <!-- s0&#45;&gt;s1 -->
        <g id="edge3" class="edge">
            <title>s0&#45;&gt;s1</title>
            <path fill="none" stroke="black"
                d="M76.88,-57.06C83.62,-63.59 92.25,-70.56 101.5,-74.45 110.24,-78.12 120.38,-79.76 129.68,-80.37" />
            <polygon fill="black" stroke="black" points="129.67,-83.35 138.27,-80.67 129.88,-77.4 129.67,-83.35" />
            <text text-anchor="middle" x="111" y="-82.25" font-family="Times,serif" font-size="14.00"> b </text>
        </g>
        <!-- s1&#45;&gt;s0 -->
        <g id="edge4" class="edge">
            <title>s1&#45;&gt;s0</title>
            <path fill="none" stroke="black"
                d="M141.97,-67.22C135.5,-63.01 127.89,-58.56 120.5,-55.45 111.53,-51.67 101.34,-48.78 92.05,-46.62" />
            <polygon fill="black" stroke="black" points="92.43,-43.66 83.49,-44.78 91.18,-49.48 92.43,-43.66" />
            <text text-anchor="middle" x="111" y="-59.25" font-family="Times,serif" font-size="14.00"> a </text>
        </g>
        <!-- s2 -->
        <g id="node4" class="node">
            <title>s2</title>
            <ellipse fill="none" stroke="black" cx="261.84" cy="-25.45" rx="21.4" ry="21.4" />
            <ellipse fill="none" stroke="black" cx="261.84" cy="-25.45" rx="25.4" ry="25.4" />
            <text text-anchor="middle" x="261.84" y="-21.75" font-family="Times,serif" font-size="14.00">s2</text>
        </g>
        <!-- s1&#45;&gt;s2 -->
        <g id="edge5" class="edge">
            <title>s1&#45;&gt;s2</title>
            <path fill="none" stroke="black" d="M179.27,-69.54C193.79,-61.69 214.37,-50.57 231.22,-41.46" />
            <polygon fill="black" stroke="black" points="233.09,-43.83 239.16,-37.17 230.26,-38.59 233.09,-43.83" />
            <text text-anchor="middle" x="208.89" y="-60.25" font-family="Times,serif" font-size="14.00"> b </text>
        </g>
        <!-- s2&#45;&gt;s0 -->
        <g id="edge6" class="edge">
            <title>s2&#45;&gt;s0</title>
            <path fill="none" stroke="black"
                d="M235.99,-27.14C211.27,-28.85 172.24,-31.64 138.5,-34.45 123.23,-35.72 106.23,-37.28 92.24,-38.61" />
            <polygon fill="black" stroke="black" points="91.71,-35.67 83.53,-39.44 92.28,-41.59 91.71,-35.67" />
            <text text-anchor="middle" x="159.94" y="-38.25" font-family="Times,serif" font-size="14.00"> a </text>
        </g>
        <!-- s2&#45;&gt;s0 -->
        <g id="edge7" class="edge">
            <title>s2&#45;&gt;s0</title>
            <path fill="none" stroke="black"
                d="M237.23,-18.54C212.47,-12.27 172.51,-4.93 138.5,-11.45 121.48,-14.71 103.42,-21.75 89.23,-28.19" />
            <polygon fill="black" stroke="black" points="87.8,-25.58 81.37,-31.88 90.32,-30.97 87.8,-25.58" />
            <text text-anchor="middle" x="159.94" y="-15.25" font-family="Times,serif" font-size="14.00"> b </text>
        </g>
    </g>
</svg>