<?xml version="1.0" encoding="UTF-8" standalone="no"?>
<!DOCTYPE svg PUBLIC "-//W3C//DTD SVG 1.1//EN" "http://www.w3.org/Graphics/SVG/1.1/DTD/svg11.dtd">
<!-- Generated by graphviz version 2.43.0 (0)
 -->
<!-- Title: %3 Pages: 1 -->
<svg width="503pt" height="123pt" viewBox="0.00 0.00 503.08 123.50" xmlns="http://www.w3.org/2000/svg"
    xmlns:xlink="http://www.w3.org/1999/xlink">
    <g id="graph0" class="graph" transform="scale(1 1) rotate(0) translate(4 119.5)">
        <title>%3</title>
        <polygon fill="none" stroke="transparent" points="-4,4 -4,-119.5 499.08,-119.5 499.08,4 -4,4" />
        <!-- Initial -->
        <g id="node1" class="node">
            <title>Initial</title>
            <ellipse fill="black" stroke="black" cx="1.8" cy="-26.75" rx="1.8" ry="1.8" />
        </g>
        <!-- q0 -->
        <g id="node2" class="node">
            <title>q0</title>
            <ellipse fill="white" stroke="black" cx="63.35" cy="-26.75" rx="23" ry="23" />
            <text text-anchor="middle" x="63.35" y="-23.05" font-family="Times,serif" font-size="14.00">q0</text>
        </g>
        <!-- Initial&#45;&gt;q0 -->
        <g id="edge1" class="edge">
            <title>Initial&#45;&gt;q0</title>
            <path fill="none" stroke="black" d="M3.83,-26.75C7.36,-26.75 19.4,-26.75 31.65,-26.75" />
            <polygon fill="black" stroke="black" points="31.98,-29.72 40.48,-26.75 31.98,-23.77 31.98,-29.72" />
        </g>
        <!-- q0&#45;&gt;q0 -->
        <g id="edge2" class="edge">
            <title>q0&#45;&gt;q0</title>
            <path fill="none" stroke="black"
                d="M59.64,-49.38C59.34,-59.14 60.57,-67.5 63.35,-67.5 65.25,-67.5 66.43,-63.55 66.89,-57.9" />
            <polygon fill="black" stroke="black" points="69.86,-57.93 67.05,-49.38 63.91,-57.82 69.86,-57.93" />
            <text text-anchor="middle" x="63.35" y="-71.3" font-family="Times,serif" font-size="14.00"> a </text>
        </g>
        <!-- q0&#45;&gt;q0 -->
        <g id="edge4" class="edge">
            <title>q0&#45;&gt;q0</title>
            <path fill="none" stroke="black"
                d="M56.95,-48.75C54.3,-66.77 56.43,-85.5 63.35,-85.5 69.13,-85.5 71.57,-72.41 70.67,-57.59" />
            <polygon fill="black" stroke="black" points="73.58,-56.89 69.75,-48.75 67.67,-57.51 73.58,-56.89" />
            <text text-anchor="middle" x="63.35" y="-89.3" font-family="Times,serif" font-size="14.00"> b </text>
        </g>
        <!-- q1 -->
        <g id="node3" class="node">
            <title>q1</title>
            <ellipse fill="white" stroke="black" cx="162.84" cy="-26.75" rx="23" ry="23" />
            <text text-anchor="middle" x="162.84" y="-23.05" font-family="Times,serif" font-size="14.00">q1</text>
        </g>
        <!-- q0&#45;&gt;q1 -->
        <g id="edge3" class="edge">
            <title>q0&#45;&gt;q1</title>
            <path fill="none" stroke="black" d="M86.47,-26.75C99.68,-26.75 116.66,-26.75 131.16,-26.75" />
            <polygon fill="black" stroke="black" points="131.31,-29.72 139.81,-26.75 131.31,-23.77 131.31,-29.72" />
            <text text-anchor="middle" x="113.1" y="-30.55" font-family="Times,serif" font-size="14.00"> a </text>
        </g>
        <!-- q2 -->
        <g id="node4" class="node">
            <title>q2</title>
            <ellipse fill="white" stroke="black" cx="263.34" cy="-26.75" rx="23" ry="23" />
            <text text-anchor="middle" x="263.34" y="-23.05" font-family="Times,serif" font-size="14.00">q2</text>
        </g>
        <!-- q1&#45;&gt;q2 -->
        <g id="edge5" class="edge">
            <title>q1&#45;&gt;q2</title>
            <path fill="none" stroke="black" d="M185.7,-26.75C199.22,-26.75 216.77,-26.75 231.67,-26.75" />
            <polygon fill="black" stroke="black" points="232.04,-29.72 240.54,-26.75 232.04,-23.77 232.04,-29.72" />
            <text text-anchor="middle" x="213.09" y="-30.55" font-family="Times,serif" font-size="14.00"> a </text>
        </g>
        <!-- q1&#45;&gt;q2 -->
        <g id="edge6" class="edge">
            <title>q1&#45;&gt;q2</title>
            <path fill="none" stroke="black"
                d="M183.03,-15.46C189.36,-12.32 196.58,-9.34 203.59,-7.75 211.83,-5.88 214.36,-5.88 222.59,-7.75 226.86,-8.72 231.22,-10.2 235.4,-11.93" />
            <polygon fill="black" stroke="black" points="234.19,-14.65 243.16,-15.46 236.65,-9.23 234.19,-14.65" />
            <text text-anchor="middle" x="213.09" y="-11.55" font-family="Times,serif" font-size="14.00"> b </text>
        </g>
        <!-- q3 -->
        <g id="node5" class="node">
            <title>q3</title>
            <ellipse fill="white" stroke="black" cx="367.84" cy="-26.75" rx="27" ry="27" />
            <ellipse fill="none" stroke="black" cx="367.84" cy="-26.75" rx="22.96" ry="22.96" />
            <text text-anchor="middle" x="367.84" y="-23.05" font-family="Times,serif" font-size="14.00">q3</text>
        </g>
        <!-- q2&#45;&gt;q3 -->
        <g id="edge7" class="edge">
            <title>q2&#45;&gt;q3</title>
            <path fill="none" stroke="black" d="M286.33,-26.75C299.7,-26.75 317.08,-26.75 332.26,-26.75" />
            <polygon fill="black" stroke="black" points="332.4,-29.72 340.9,-26.75 332.4,-23.77 332.4,-29.72" />
            <text text-anchor="middle" x="313.59" y="-30.55" font-family="Times,serif" font-size="14.00"> a </text>
        </g>
        <!-- q2&#45;&gt;q3 -->
        <g id="edge8" class="edge">
            <title>q2&#45;&gt;q3</title>
            <path fill="none" stroke="black"
                d="M283.52,-15.46C289.85,-12.32 297.08,-9.34 304.09,-7.75 314.58,-5.37 325.88,-7.34 335.96,-10.77" />
            <polygon fill="black" stroke="black" points="335.1,-13.62 344.1,-13.93 337.25,-8.08 335.1,-13.62" />
            <text text-anchor="middle" x="313.59" y="-11.55" font-family="Times,serif" font-size="14.00"> b </text>
        </g>
        <!-- qT -->
        <g id="node6" class="node">
            <title>qT</title>
            <ellipse fill="white" stroke="black" cx="472.33" cy="-26.75" rx="23" ry="23" />
            <text text-anchor="middle" x="472.33" y="-23.05" font-family="Times,serif" font-size="14.00">qT</text>
        </g>
        <!-- q3&#45;&gt;qT -->
        <g id="edge9" class="edge">
            <title>q3&#45;&gt;qT</title>
            <path fill="none" stroke="black" d="M394.7,-26.75C408.65,-26.75 425.95,-26.75 440.58,-26.75" />
            <polygon fill="black" stroke="black" points="440.8,-29.72 449.3,-26.75 440.8,-23.77 440.8,-29.72" />
            <text text-anchor="middle" x="422.08" y="-30.55" font-family="Times,serif" font-size="14.00"> a </text>
        </g>
        <!-- q3&#45;&gt;qT -->
        <g id="edge10" class="edge">
            <title>q3&#45;&gt;qT</title>
            <path fill="none" stroke="black"
                d="M391.58,-13.93C403.4,-8.78 418.15,-4.7 431.58,-7.75 435.86,-8.72 440.21,-10.2 444.39,-11.93" />
            <polygon fill="black" stroke="black" points="443.18,-14.65 452.15,-15.46 445.65,-9.23 443.18,-14.65" />
            <text text-anchor="middle" x="422.08" y="-11.55" font-family="Times,serif" font-size="14.00"> b </text>
        </g>
        <!-- qT&#45;&gt;qT -->
        <g id="edge11" class="edge">
            <title>qT&#45;&gt;qT</title>
            <path fill="none" stroke="black"
                d="M467.7,-49.38C467.32,-59.14 468.87,-67.5 472.33,-67.5 474.72,-67.5 476.19,-63.55 476.76,-57.9" />
            <polygon fill="black" stroke="black" points="479.73,-57.95 476.96,-49.38 473.78,-57.8 479.73,-57.95" />
            <text text-anchor="middle" x="472.33" y="-71.3" font-family="Times,serif" font-size="14.00"> a </text>
        </g>
        <!-- qT&#45;&gt;qT -->
        <g id="edge12" class="edge">
            <title>qT&#45;&gt;qT</title>
            <path fill="none" stroke="black"
                d="M464.45,-48.13C460.96,-66.35 463.59,-85.5 472.33,-85.5 479.71,-85.5 482.73,-71.86 481.4,-56.66" />
            <polygon fill="black" stroke="black" points="484.33,-56.14 480.22,-48.13 478.44,-56.96 484.33,-56.14" />
            <text text-anchor="middle" x="472.33" y="-89.3" font-family="Times,serif" font-size="14.00"> b </text>
        </g>
    </g>
</svg>