<?xml version="1.0" encoding="UTF-8" standalone="no"?>
<!DOCTYPE svg PUBLIC "-//W3C//DTD SVG 1.1//EN"
 "http://www.w3.org/Graphics/SVG/1.1/DTD/svg11.dtd">
<!-- Generated by graphviz version 2.43.0 (0)
 -->
<!-- Title: %3 Pages: 1 -->
<svg width="203pt" height="94pt"
 viewBox="0.00 0.00 202.59 94.50" xmlns="http://www.w3.org/2000/svg" xmlns:xlink="http://www.w3.org/1999/xlink">
<g id="graph0" class="graph" transform="scale(1 1) rotate(0) translate(4 90.5)">
<title>%3</title>
<polygon fill="white" stroke="transparent" points="-4,4 -4,-90.5 198.59,-90.5 198.59,4 -4,4"/>
<!-- Initial -->
<g id="node1" class="node">
<title>Initial</title>
<ellipse fill="black" stroke="black" cx="1.8" cy="-26.75" rx="1.8" ry="1.8"/>
</g>
<!-- q0 -->
<g id="node2" class="node">
<title>q0</title>
<ellipse fill="none" stroke="black" cx="63.35" cy="-26.75" rx="23" ry="23"/>
<text text-anchor="middle" x="63.35" y="-23.05" font-family="Times,serif" font-size="14.00">q0</text>
</g>
<!-- Initial&#45;&gt;q0 -->
<g id="edge1" class="edge">
<title>Initial&#45;&gt;q0</title>
<path fill="none" stroke="black" d="M3.83,-26.75C7.36,-26.75 19.4,-26.75 31.65,-26.75"/>
<polygon fill="black" stroke="black" points="31.98,-29.72 40.48,-26.75 31.98,-23.77 31.98,-29.72"/>
</g>
<!-- q0&#45;&gt;q0 -->
<g id="edge3" class="edge">
<title>q0&#45;&gt;q0</title>
<path fill="none" stroke="black" d="M56,-48.55C55.19,-58.66 57.64,-67.5 63.35,-67.5 67.27,-67.5 69.65,-63.32 70.5,-57.42"/>
<polygon fill="black" stroke="black" points="73.48,-57.11 70.7,-48.55 67.53,-56.98 73.48,-57.11"/>
<text text-anchor="middle" x="63.35" y="-71.3" font-family="Times,serif" font-size="14.00"> a </text>
</g>
<!-- q1 -->
<g id="node3" class="node">
<title>q1</title>
<ellipse fill="none" stroke="black" cx="167.84" cy="-26.75" rx="22.96" ry="22.96"/>
<ellipse fill="none" stroke="black" cx="167.84" cy="-26.75" rx="27" ry="27"/>
<text text-anchor="middle" x="167.84" y="-23.05" font-family="Times,serif" font-size="14.00">q1</text>
</g>
<!-- q0&#45;&gt;q1 -->
<g id="edge2" class="edge">
<title>q0&#45;&gt;q1</title>
<path fill="none" stroke="black" d="M84.11,-36.43C90.35,-39.01 97.38,-41.45 104.1,-42.75 114.25,-44.72 125.22,-43.2 135.1,-40.45"/>
<polygon fill="black" stroke="black" points="136.26,-43.2 143.45,-37.78 134.45,-37.54 136.26,-43.2"/>
<text text-anchor="middle" x="113.6" y="-46.55" font-family="Times,serif" font-size="14.00"> a </text>
</g>
<!-- q0&#45;&gt;q1 -->
<g id="edge4" class="edge">
<title>q0&#45;&gt;q1</title>
<path fill="none" stroke="black" d="M86.2,-24.8C92.01,-24.37 98.29,-23.97 104.1,-23.75 113.26,-23.4 123.18,-23.61 132.37,-24.04"/>
<polygon fill="black" stroke="black" points="132.25,-27.01 140.9,-24.51 132.58,-21.07 132.25,-27.01"/>
<text text-anchor="middle" x="113.6" y="-27.55" font-family="Times,serif" font-size="14.00"> b </text>
</g>
<!-- q1&#45;&gt;q0 -->
<g id="edge6" class="edge">
<title>q1&#45;&gt;q0</title>
<path fill="none" stroke="black" d="M145.37,-11.89C133.39,-5.38 118.1,0.01 104.1,-3.75 99.38,-5.01 94.64,-6.99 90.17,-9.27"/>
<polygon fill="black" stroke="black" points="88.41,-6.84 82.46,-13.59 91.33,-12.03 88.41,-6.84"/>
<text text-anchor="middle" x="113.6" y="-7.55" font-family="Times,serif" font-size="14.00"> b </text>
</g>
<!-- q1&#45;&gt;q1 -->
<g id="edge5" class="edge">
<title>q1&#45;&gt;q1</title>
<path fill="none" stroke="black" d="M157.84,-51.6C157.02,-62.32 160.36,-71.5 167.84,-71.5 173.23,-71.5 176.46,-66.75 177.55,-60.11"/>
<polygon fill="black" stroke="black" points="180.53,-60.19 177.85,-51.6 174.58,-59.99 180.53,-60.19"/>
<text text-anchor="middle" x="167.84" y="-75.3" font-family="Times,serif" font-size="14.00"> b </text>
</g>
</g>
</svg>
