<?xml version="1.0" encoding="UTF-8" standalone="no"?>
<!DOCTYPE svg PUBLIC "-//W3C//DTD SVG 1.1//EN"
 "http://www.w3.org/Graphics/SVG/1.1/DTD/svg11.dtd">
<!-- Generated by graphviz version 2.43.0 (0)
 -->
<!-- Title: %3 Pages: 1 -->
<svg width="410pt" height="332pt"
 viewBox="0.00 0.00 409.88 332.19" xmlns="http://www.w3.org/2000/svg" xmlns:xlink="http://www.w3.org/1999/xlink">
<g id="graph0" class="graph" transform="scale(1 1) rotate(0) translate(4 328.19)">
<title>%3</title>
<polygon fill="white" stroke="transparent" points="-4,4 -4,-328.19 405.88,-328.19 405.88,4 -4,4"/>
<!-- Initial -->
<g id="node1" class="node">
<title>Initial</title>
<ellipse fill="black" stroke="black" cx="1.8" cy="-168.45" rx="1.8" ry="1.8"/>
</g>
<!-- {q0} -->
<g id="node3" class="node">
<title>{q0}</title>
<ellipse fill="none" stroke="black" cx="75.05" cy="-168.45" rx="34.39" ry="34.39"/>
<text text-anchor="middle" x="75.05" y="-164.75" font-family="Times,serif" font-size="14.00">{q0}</text>
</g>
<!-- Initial&#45;&gt;{q0} -->
<g id="edge1" class="edge">
<title>Initial&#45;&gt;{q0}</title>
<path fill="none" stroke="black" d="M3.6,-168.45C6.74,-168.45 18.66,-168.45 31.83,-168.45"/>
<polygon fill="black" stroke="black" points="32.09,-171.42 40.59,-168.45 32.09,-165.47 32.09,-171.42"/>
</g>
<!-- {q0,q1} -->
<g id="node2" class="node">
<title>{q0,q1}</title>
<ellipse fill="none" stroke="black" cx="349.13" cy="-205.45" rx="48.97" ry="48.97"/>
<ellipse fill="none" stroke="black" cx="349.13" cy="-205.45" rx="52.99" ry="52.99"/>
<text text-anchor="middle" x="349.13" y="-201.75" font-family="Times,serif" font-size="14.00">{q0,q1}</text>
</g>
<!-- {q0,q1}&#45;&gt;{q0,q1} -->
<g id="edge6" class="edge">
<title>{q0,q1}&#45;&gt;{q0,q1}</title>
<path fill="none" stroke="black" d="M341.92,-257.9C342.71,-268.56 345.11,-276.19 349.13,-276.19 351.96,-276.19 353.99,-272.42 355.22,-266.47"/>
<polygon fill="black" stroke="black" points="358.19,-266.71 356.35,-257.9 352.29,-265.94 358.19,-266.71"/>
<text text-anchor="middle" x="349.13" y="-279.99" font-family="Times,serif" font-size="14.00"> a </text>
</g>
<!-- {q0,q1}&#45;&gt;{q0,q1} -->
<g id="edge7" class="edge">
<title>{q0,q1}&#45;&gt;{q0,q1}</title>
<path fill="none" stroke="black" d="M334.24,-256.07C333.31,-276.75 338.27,-294.19 349.13,-294.19 358.38,-294.19 363.35,-281.54 364.05,-265.02"/>
<polygon fill="black" stroke="black" points="367.02,-264.56 364.02,-256.07 361.07,-264.58 367.02,-264.56"/>
<text text-anchor="middle" x="349.13" y="-297.99" font-family="Times,serif" font-size="14.00"> b </text>
</g>
<!-- {q0}&#45;&gt;{q0,q1} -->
<g id="edge2" class="edge">
<title>{q0}&#45;&gt;{q0,q1}</title>
<path fill="none" stroke="black" d="M109.41,-172.98C153.86,-179.03 233.28,-189.83 288.23,-197.3"/>
<polygon fill="black" stroke="black" points="288.01,-200.27 296.84,-198.47 288.81,-194.38 288.01,-200.27"/>
<text text-anchor="middle" x="202.94" y="-194.25" font-family="Times,serif" font-size="14.00"> a </text>
</g>
<!-- {q1} -->
<g id="node4" class="node">
<title>{q1}</title>
<ellipse fill="none" stroke="black" cx="202.94" cy="-131.45" rx="34.4" ry="34.4"/>
<ellipse fill="none" stroke="black" cx="202.94" cy="-131.45" rx="38.39" ry="38.39"/>
<text text-anchor="middle" x="202.94" y="-127.75" font-family="Times,serif" font-size="14.00">{q1}</text>
</g>
<!-- {q0}&#45;&gt;{q1} -->
<g id="edge3" class="edge">
<title>{q0}&#45;&gt;{q1}</title>
<path fill="none" stroke="black" d="M108.47,-158.92C123.36,-154.54 141.25,-149.28 157.38,-144.54"/>
<polygon fill="black" stroke="black" points="158.32,-147.37 165.63,-142.12 156.64,-141.66 158.32,-147.37"/>
<text text-anchor="middle" x="136.99" y="-156.25" font-family="Times,serif" font-size="14.00"> b </text>
</g>
<!-- {q1}&#45;&gt;{q0,q1} -->
<g id="edge5" class="edge">
<title>{q1}&#45;&gt;{q0,q1}</title>
<path fill="none" stroke="black" d="M237.38,-148.61C254.2,-157.24 275,-167.92 294.02,-177.68"/>
<polygon fill="black" stroke="black" points="292.85,-180.42 301.77,-181.65 295.56,-175.12 292.85,-180.42"/>
<text text-anchor="middle" x="268.89" y="-172.25" font-family="Times,serif" font-size="14.00"> b </text>
</g>
<!-- {qT} -->
<g id="node5" class="node">
<title>{qT}</title>
<ellipse fill="none" stroke="black" cx="349.13" cy="-34.45" rx="34.39" ry="34.39"/>
<text text-anchor="middle" x="349.13" y="-30.75" font-family="Times,serif" font-size="14.00">{qT}</text>
</g>
<!-- {q1}&#45;&gt;{qT} -->
<g id="edge4" class="edge">
<title>{q1}&#45;&gt;{qT}</title>
<path fill="none" stroke="black" d="M235.23,-110.4C258.05,-95.05 289,-74.23 312.73,-58.27"/>
<polygon fill="black" stroke="black" points="314.45,-60.69 319.84,-53.48 311.13,-55.76 314.45,-60.69"/>
<text text-anchor="middle" x="268.89" y="-96.25" font-family="Times,serif" font-size="14.00"> a </text>
</g>
<!-- {qT}&#45;&gt;{qT} -->
<g id="edge8" class="edge">
<title>{qT}&#45;&gt;{qT}</title>
<path fill="none" stroke="black" d="M341.64,-68.24C341.79,-78.69 344.29,-86.89 349.13,-86.89 352.54,-86.89 354.79,-82.84 355.87,-76.8"/>
<polygon fill="black" stroke="black" points="358.84,-76.97 356.63,-68.24 352.92,-76.45 358.84,-76.97"/>
<text text-anchor="middle" x="349.13" y="-90.69" font-family="Times,serif" font-size="14.00"> a </text>
</g>
<!-- {qT}&#45;&gt;{qT} -->
<g id="edge9" class="edge">
<title>{qT}&#45;&gt;{qT}</title>
<path fill="none" stroke="black" d="M335.19,-66.32C331.83,-86.09 336.48,-104.89 349.13,-104.89 359.91,-104.89 364.88,-91.26 364.04,-75"/>
<polygon fill="black" stroke="black" points="366.97,-74.44 363.08,-66.32 361.06,-75.1 366.97,-74.44"/>
<text text-anchor="middle" x="349.13" y="-108.69" font-family="Times,serif" font-size="14.00"> b </text>
</g>
</g>
</svg>
