<?xml version="1.0" encoding="UTF-8" standalone="no"?>
<!DOCTYPE svg PUBLIC "-//W3C//DTD SVG 1.1//EN"
 "http://www.w3.org/Graphics/SVG/1.1/DTD/svg11.dtd">
<!-- Generated by graphviz version 2.43.0 (0)
 -->
<!-- Title: %3 Pages: 1 -->
<svg width="576pt" height="450pt"
 viewBox="0.00 0.00 576.00 449.92" xmlns="http://www.w3.org/2000/svg" xmlns:xlink="http://www.w3.org/1999/xlink">
<g id="graph0" class="graph" transform="scale(0.84 0.84) rotate(0) translate(4 531.9)">
<title>%3</title>
<polygon fill="white" stroke="transparent" points="-4,4 -4,-531.9 682.08,-531.9 682.08,4 -4,4"/>
<!-- Initial -->
<g id="node1" class="node">
<title>Initial</title>
<ellipse fill="black" stroke="black" cx="1.8" cy="-223.6" rx="1.8" ry="1.8"/>
</g>
<!-- start -->
<g id="node16" class="node">
<title>start</title>
<ellipse fill="none" stroke="black" cx="77.75" cy="-223.6" rx="33.28" ry="33.28"/>
<ellipse fill="none" stroke="black" cx="77.75" cy="-223.6" rx="37.29" ry="37.29"/>
<text text-anchor="middle" x="77.75" y="-219.9" font-family="Times,serif" font-size="14.00">start</text>
</g>
<!-- Initial&#45;&gt;start -->
<g id="edge1" class="edge">
<title>Initial&#45;&gt;start</title>
<path fill="none" stroke="black" d="M3.63,-223.6C6.78,-223.6 18.48,-223.6 31.62,-223.6"/>
<polygon fill="black" stroke="black" points="31.9,-226.57 40.4,-223.6 31.9,-220.62 31.9,-226.57"/>
</g>
<!-- a -->
<g id="node2" class="node">
<title>a</title>
<ellipse fill="none" stroke="black" cx="190.89" cy="-282.6" rx="18" ry="18"/>
<ellipse fill="none" stroke="black" cx="190.89" cy="-282.6" rx="22" ry="22"/>
<text text-anchor="middle" x="190.89" y="-278.9" font-family="Times,serif" font-size="14.00">a</text>
</g>
<!-- aa -->
<g id="node3" class="node">
<title>aa</title>
<ellipse fill="none" stroke="black" cx="293.99" cy="-383.6" rx="21.4" ry="21.4"/>
<ellipse fill="none" stroke="black" cx="293.99" cy="-383.6" rx="25.4" ry="25.4"/>
<text text-anchor="middle" x="293.99" y="-379.9" font-family="Times,serif" font-size="14.00">aa</text>
</g>
<!-- a&#45;&gt;aa -->
<g id="edge4" class="edge">
<title>a&#45;&gt;aa</title>
<path fill="none" stroke="black" d="M207.25,-297.94C223.73,-314.4 250.11,-340.75 269.26,-359.89"/>
<polygon fill="black" stroke="black" points="267.33,-362.17 275.45,-366.07 271.54,-357.96 267.33,-362.17"/>
<text text-anchor="middle" x="240.39" y="-343.4" font-family="Times,serif" font-size="14.00"> a </text>
</g>
<!-- ab -->
<g id="node6" class="node">
<title>ab</title>
<ellipse fill="none" stroke="black" cx="293.99" cy="-282.6" rx="22.18" ry="22.18"/>
<ellipse fill="none" stroke="black" cx="293.99" cy="-282.6" rx="26.2" ry="26.2"/>
<text text-anchor="middle" x="293.99" y="-278.9" font-family="Times,serif" font-size="14.00">ab</text>
</g>
<!-- a&#45;&gt;ab -->
<g id="edge5" class="edge">
<title>a&#45;&gt;ab</title>
<path fill="none" stroke="black" d="M213.33,-282.6C226.61,-282.6 243.95,-282.6 259.06,-282.6"/>
<polygon fill="black" stroke="black" points="259.15,-285.57 267.65,-282.6 259.15,-279.62 259.15,-285.57"/>
<text text-anchor="middle" x="240.39" y="-286.4" font-family="Times,serif" font-size="14.00"> b </text>
</g>
<!-- aaa -->
<g id="node4" class="node">
<title>aaa</title>
<ellipse fill="none" stroke="black" cx="407.04" cy="-383.6" rx="26.78" ry="26.78"/>
<ellipse fill="none" stroke="black" cx="407.04" cy="-383.6" rx="30.8" ry="30.8"/>
<text text-anchor="middle" x="407.04" y="-379.9" font-family="Times,serif" font-size="14.00">aaa</text>
</g>
<!-- aa&#45;&gt;aaa -->
<g id="edge8" class="edge">
<title>aa&#45;&gt;aaa</title>
<path fill="none" stroke="black" d="M319.64,-383.6C333.76,-383.6 351.8,-383.6 367.73,-383.6"/>
<polygon fill="black" stroke="black" points="367.83,-386.57 376.33,-383.6 367.83,-380.62 367.83,-386.57"/>
<text text-anchor="middle" x="347.59" y="-387.4" font-family="Times,serif" font-size="14.00"> a </text>
</g>
<!-- aab -->
<g id="node5" class="node">
<title>aab</title>
<ellipse fill="none" stroke="black" cx="407.04" cy="-496.6" rx="27.12" ry="27.12"/>
<ellipse fill="none" stroke="black" cx="407.04" cy="-496.6" rx="31.1" ry="31.1"/>
<text text-anchor="middle" x="407.04" y="-492.9" font-family="Times,serif" font-size="14.00">aab</text>
</g>
<!-- aa&#45;&gt;aab -->
<g id="edge9" class="edge">
<title>aa&#45;&gt;aab</title>
<path fill="none" stroke="black" d="M312.34,-401.25C329.92,-419.14 357.4,-447.1 378.06,-468.12"/>
<polygon fill="black" stroke="black" points="376.15,-470.43 384.23,-474.41 380.4,-466.26 376.15,-470.43"/>
<text text-anchor="middle" x="347.59" y="-446.4" font-family="Times,serif" font-size="14.00"> b </text>
</g>
<!-- aaa&#45;&gt;aaa -->
<g id="edge16" class="edge">
<title>aaa&#45;&gt;aaa</title>
<path fill="none" stroke="black" d="M396.19,-412.56C395.83,-423.36 399.45,-432.25 407.04,-432.25 412.49,-432.25 415.9,-427.65 417.25,-421.06"/>
<polygon fill="black" stroke="black" points="420.21,-421.26 417.89,-412.56 414.28,-420.82 420.21,-421.26"/>
<text text-anchor="middle" x="407.04" y="-436.05" font-family="Times,serif" font-size="14.00"> a </text>
</g>
<!-- aba -->
<g id="node7" class="node">
<title>aba</title>
<ellipse fill="none" stroke="black" cx="526.58" cy="-415.6" rx="27.12" ry="27.12"/>
<ellipse fill="none" stroke="black" cx="526.58" cy="-415.6" rx="31.1" ry="31.1"/>
<text text-anchor="middle" x="526.58" y="-411.9" font-family="Times,serif" font-size="14.00">aba</text>
</g>
<!-- aab&#45;&gt;aba -->
<g id="edge17" class="edge">
<title>aab&#45;&gt;aba</title>
<path fill="none" stroke="black" d="M433.25,-479.22C450.84,-467.1 474.45,-450.83 493.4,-437.78"/>
<polygon fill="black" stroke="black" points="495.1,-440.22 500.41,-432.95 491.72,-435.32 495.1,-440.22"/>
<text text-anchor="middle" x="466.49" y="-464.4" font-family="Times,serif" font-size="14.00"> a </text>
</g>
<!-- ab&#45;&gt;aba -->
<g id="edge10" class="edge">
<title>ab&#45;&gt;aba</title>
<path fill="none" stroke="black" d="M319.94,-286.81C349.91,-292.68 400.92,-305.34 438.99,-328.6 462.96,-343.24 485.2,-365.87 501.14,-384.38"/>
<polygon fill="black" stroke="black" points="498.96,-386.41 506.72,-390.99 503.51,-382.58 498.96,-386.41"/>
<text text-anchor="middle" x="407.04" y="-332.4" font-family="Times,serif" font-size="14.00"> a </text>
</g>
<!-- abb -->
<g id="node8" class="node">
<title>abb</title>
<ellipse fill="none" stroke="black" cx="407.04" cy="-251.6" rx="27.9" ry="27.9"/>
<ellipse fill="none" stroke="black" cx="407.04" cy="-251.6" rx="31.9" ry="31.9"/>
<text text-anchor="middle" x="407.04" y="-247.9" font-family="Times,serif" font-size="14.00">abb</text>
</g>
<!-- ab&#45;&gt;abb -->
<g id="edge11" class="edge">
<title>ab&#45;&gt;abb</title>
<path fill="none" stroke="black" d="M319.36,-275.79C333.61,-271.82 351.89,-266.71 368,-262.22"/>
<polygon fill="black" stroke="black" points="368.8,-265.08 376.19,-259.93 367.2,-259.35 368.8,-265.08"/>
<text text-anchor="middle" x="347.59" y="-274.4" font-family="Times,serif" font-size="14.00"> b </text>
</g>
<!-- baa -->
<g id="node11" class="node">
<title>baa</title>
<ellipse fill="none" stroke="black" cx="646.13" cy="-351.6" rx="27.12" ry="27.12"/>
<ellipse fill="none" stroke="black" cx="646.13" cy="-351.6" rx="31.1" ry="31.1"/>
<text text-anchor="middle" x="646.13" y="-347.9" font-family="Times,serif" font-size="14.00">baa</text>
</g>
<!-- aba&#45;&gt;baa -->
<g id="edge18" class="edge">
<title>aba&#45;&gt;baa</title>
<path fill="none" stroke="black" d="M554.55,-400.91C571.13,-391.89 592.53,-380.24 610.37,-370.52"/>
<polygon fill="black" stroke="black" points="612.24,-372.89 618.29,-366.21 609.4,-367.66 612.24,-372.89"/>
<text text-anchor="middle" x="586.68" y="-391.4" font-family="Times,serif" font-size="14.00"> a </text>
</g>
<!-- bba -->
<g id="node14" class="node">
<title>bba</title>
<ellipse fill="none" stroke="black" cx="526.58" cy="-148.6" rx="27.9" ry="27.9"/>
<ellipse fill="none" stroke="black" cx="526.58" cy="-148.6" rx="31.9" ry="31.9"/>
<text text-anchor="middle" x="526.58" y="-144.9" font-family="Times,serif" font-size="14.00">bba</text>
</g>
<!-- abb&#45;&gt;bba -->
<g id="edge19" class="edge">
<title>abb&#45;&gt;bba</title>
<path fill="none" stroke="black" d="M431.54,-231C449.96,-214.86 475.71,-192.3 495.61,-174.86"/>
<polygon fill="black" stroke="black" points="497.69,-177 502.12,-169.16 493.77,-172.52 497.69,-177"/>
<text text-anchor="middle" x="466.49" y="-210.4" font-family="Times,serif" font-size="14.00"> a </text>
</g>
<!-- b -->
<g id="node9" class="node">
<title>b</title>
<ellipse fill="none" stroke="black" cx="293.99" cy="-186.6" rx="18" ry="18"/>
<ellipse fill="none" stroke="black" cx="293.99" cy="-186.6" rx="22" ry="22"/>
<text text-anchor="middle" x="293.99" y="-182.9" font-family="Times,serif" font-size="14.00">b</text>
</g>
<!-- ba -->
<g id="node10" class="node">
<title>ba</title>
<ellipse fill="none" stroke="black" cx="526.58" cy="-224.6" rx="22.18" ry="22.18"/>
<ellipse fill="none" stroke="black" cx="526.58" cy="-224.6" rx="26.2" ry="26.2"/>
<text text-anchor="middle" x="526.58" y="-220.9" font-family="Times,serif" font-size="14.00">ba</text>
</g>
<!-- b&#45;&gt;ba -->
<g id="edge6" class="edge">
<title>b&#45;&gt;ba</title>
<path fill="none" stroke="black" d="M316.15,-185.35C350.5,-183.96 420.16,-183.79 475.99,-200.6 482.55,-202.58 489.34,-205.33 495.69,-208.27"/>
<polygon fill="black" stroke="black" points="494.53,-211.01 503.47,-212.05 497.13,-205.66 494.53,-211.01"/>
<text text-anchor="middle" x="407.04" y="-196.4" font-family="Times,serif" font-size="14.00"> a </text>
</g>
<!-- bb -->
<g id="node13" class="node">
<title>bb</title>
<ellipse fill="none" stroke="black" cx="407.04" cy="-123.6" rx="22.96" ry="22.96"/>
<ellipse fill="none" stroke="black" cx="407.04" cy="-123.6" rx="27" ry="27"/>
<text text-anchor="middle" x="407.04" y="-119.9" font-family="Times,serif" font-size="14.00">bb</text>
</g>
<!-- b&#45;&gt;bb -->
<g id="edge7" class="edge">
<title>b&#45;&gt;bb</title>
<path fill="none" stroke="black" d="M312.28,-174.22C320.03,-168.87 329.37,-162.69 338.09,-157.6 349.75,-150.79 362.96,-143.99 374.6,-138.28"/>
<polygon fill="black" stroke="black" points="376.02,-140.9 382.37,-134.52 373.43,-135.54 376.02,-140.9"/>
<text text-anchor="middle" x="347.59" y="-161.4" font-family="Times,serif" font-size="14.00"> b </text>
</g>
<!-- ba&#45;&gt;baa -->
<g id="edge12" class="edge">
<title>ba&#45;&gt;baa</title>
<path fill="none" stroke="black" d="M544.93,-243.34C564.27,-264.24 595.8,-298.3 618.33,-322.64"/>
<polygon fill="black" stroke="black" points="616.18,-324.7 624.13,-328.92 620.54,-320.66 616.18,-324.7"/>
<text text-anchor="middle" x="586.68" y="-300.4" font-family="Times,serif" font-size="14.00"> a </text>
</g>
<!-- bab -->
<g id="node12" class="node">
<title>bab</title>
<ellipse fill="none" stroke="black" cx="646.13" cy="-218.6" rx="27.9" ry="27.9"/>
<ellipse fill="none" stroke="black" cx="646.13" cy="-218.6" rx="31.9" ry="31.9"/>
<text text-anchor="middle" x="646.13" y="-214.9" font-family="Times,serif" font-size="14.00">bab</text>
</g>
<!-- ba&#45;&gt;bab -->
<g id="edge13" class="edge">
<title>ba&#45;&gt;bab</title>
<path fill="none" stroke="black" d="M552.53,-221.66C560.4,-220.85 569.14,-220.06 577.18,-219.6 586.28,-219.07 596.09,-218.77 605.33,-218.61"/>
<polygon fill="black" stroke="black" points="605.53,-221.58 613.99,-218.5 605.45,-215.63 605.53,-221.58"/>
<text text-anchor="middle" x="586.68" y="-223.4" font-family="Times,serif" font-size="14.00"> b </text>
</g>
<!-- baa&#45;&gt;aab -->
<g id="edge20" class="edge">
<title>baa&#45;&gt;aab</title>
<path fill="none" stroke="black" d="M615.38,-345.54C582.98,-340.61 530.85,-337.74 493.99,-360.6 452.19,-386.51 466.32,-415.72 438.99,-456.6 437.01,-459.55 434.88,-462.58 432.7,-465.57"/>
<polygon fill="black" stroke="black" points="430.27,-463.86 427.57,-472.45 435.04,-467.42 430.27,-463.86"/>
<text text-anchor="middle" x="526.58" y="-364.4" font-family="Times,serif" font-size="14.00"> b </text>
</g>
<!-- bab&#45;&gt;abb -->
<g id="edge21" class="edge">
<title>bab&#45;&gt;abb</title>
<path fill="none" stroke="black" d="M628.39,-245.18C620.12,-255.8 609.14,-266.85 596.18,-272.6 547.29,-294.27 484.56,-279.91 445.32,-266.57"/>
<polygon fill="black" stroke="black" points="445.84,-263.6 436.83,-263.57 443.86,-269.21 445.84,-263.6"/>
<text text-anchor="middle" x="526.58" y="-288.4" font-family="Times,serif" font-size="14.00"> b </text>
</g>
<!-- bb&#45;&gt;bba -->
<g id="edge14" class="edge">
<title>bb&#45;&gt;bba</title>
<path fill="none" stroke="black" d="M433.25,-128.96C448.79,-132.26 469.03,-136.57 486.6,-140.31"/>
<polygon fill="black" stroke="black" points="486.05,-143.23 494.98,-142.09 487.28,-137.41 486.05,-143.23"/>
<text text-anchor="middle" x="466.49" y="-141.4" font-family="Times,serif" font-size="14.00"> a </text>
</g>
<!-- bbb -->
<g id="node15" class="node">
<title>bbb</title>
<ellipse fill="none" stroke="black" cx="526.58" cy="-32.6" rx="28.68" ry="28.68"/>
<ellipse fill="none" stroke="black" cx="526.58" cy="-32.6" rx="32.7" ry="32.7"/>
<text text-anchor="middle" x="526.58" y="-28.9" font-family="Times,serif" font-size="14.00">bbb</text>
</g>
<!-- bb&#45;&gt;bbb -->
<g id="edge15" class="edge">
<title>bb&#45;&gt;bbb</title>
<path fill="none" stroke="black" d="M428.78,-107.54C446.66,-93.69 472.78,-73.48 493.38,-57.53"/>
<polygon fill="black" stroke="black" points="495.23,-59.86 500.13,-52.3 491.59,-55.15 495.23,-59.86"/>
<text text-anchor="middle" x="466.49" y="-87.4" font-family="Times,serif" font-size="14.00"> b </text>
</g>
<!-- bba&#45;&gt;bab -->
<g id="edge22" class="edge">
<title>bba&#45;&gt;bab</title>
<path fill="none" stroke="black" d="M554.55,-164.66C571.27,-174.62 592.92,-187.5 610.85,-198.19"/>
<polygon fill="black" stroke="black" points="609.46,-200.82 618.29,-202.61 612.51,-195.71 609.46,-200.82"/>
<text text-anchor="middle" x="586.68" y="-192.4" font-family="Times,serif" font-size="14.00"> b </text>
</g>
<!-- bbb&#45;&gt;bbb -->
<g id="edge23" class="edge">
<title>bbb&#45;&gt;bbb</title>
<path fill="none" stroke="black" d="M515.34,-63.23C515.1,-74.23 518.85,-83.19 526.58,-83.19 532.14,-83.19 535.64,-78.56 537.08,-71.87"/>
<polygon fill="black" stroke="black" points="540.06,-71.95 537.82,-63.23 534.13,-71.44 540.06,-71.95"/>
<text text-anchor="middle" x="526.58" y="-86.99" font-family="Times,serif" font-size="14.00"> b </text>
</g>
<!-- start&#45;&gt;a -->
<g id="edge2" class="edge">
<title>start&#45;&gt;a</title>
<path fill="none" stroke="black" d="M110.9,-240.66C127.49,-249.47 147.5,-260.09 163.23,-268.44"/>
<polygon fill="black" stroke="black" points="162.12,-271.22 171.02,-272.58 164.91,-265.97 162.12,-271.22"/>
<text text-anchor="middle" x="141.89" y="-266.4" font-family="Times,serif" font-size="14.00"> a </text>
</g>
<!-- start&#45;&gt;b -->
<g id="edge3" class="edge">
<title>start&#45;&gt;b</title>
<path fill="none" stroke="black" d="M114.61,-217.4C156.4,-210.19 224.69,-198.39 263.53,-191.69"/>
<polygon fill="black" stroke="black" points="264.4,-194.55 272.27,-190.18 263.39,-188.69 264.4,-194.55"/>
<text text-anchor="middle" x="190.89" y="-211.4" font-family="Times,serif" font-size="14.00"> b </text>
</g>
</g>
</svg>
