<?xml version="1.0" encoding="UTF-8" standalone="no"?>
<!DOCTYPE svg PUBLIC "-//W3C//DTD SVG 1.1//EN"
 "http://www.w3.org/Graphics/SVG/1.1/DTD/svg11.dtd">
<!-- Generated by graphviz version 2.43.0 (0)
 -->
<!-- Title: %3 Pages: 1 -->
<svg width="373pt" height="576pt"
 viewBox="0.00 0.00 373.42 576.00" xmlns="http://www.w3.org/2000/svg" xmlns:xlink="http://www.w3.org/1999/xlink">
<g id="graph0" class="graph" transform="scale(0.51 0.51) rotate(0) translate(4 1115.97)">
<title>%3</title>
<polygon fill="white" stroke="transparent" points="-4,4 -4,-1115.97 722.07,-1115.97 722.07,4 -4,4"/>
<!-- Initial -->
<g id="node1" class="node">
<title>Initial</title>
<ellipse fill="black" stroke="black" cx="1.8" cy="-579.47" rx="1.8" ry="1.8"/>
</g>
<!-- start -->
<g id="node32" class="node">
<title>start</title>
<ellipse fill="none" stroke="black" cx="77.75" cy="-579.47" rx="33.28" ry="33.28"/>
<ellipse fill="none" stroke="black" cx="77.75" cy="-579.47" rx="37.29" ry="37.29"/>
<text text-anchor="middle" x="77.75" y="-575.77" font-family="Times,serif" font-size="14.00">start</text>
</g>
<!-- Initial&#45;&gt;start -->
<g id="edge1" class="edge">
<title>Initial&#45;&gt;start</title>
<path fill="none" stroke="black" d="M3.63,-579.47C6.78,-579.47 18.48,-579.47 31.62,-579.47"/>
<polygon fill="black" stroke="black" points="31.9,-582.45 40.4,-579.47 31.9,-576.5 31.9,-582.45"/>
</g>
<!-- a -->
<g id="node2" class="node">
<title>a</title>
<ellipse fill="none" stroke="black" cx="191.89" cy="-684.47" rx="18" ry="18"/>
<ellipse fill="none" stroke="black" cx="191.89" cy="-684.47" rx="22" ry="22"/>
<text text-anchor="middle" x="191.89" y="-680.77" font-family="Times,serif" font-size="14.00">a</text>
</g>
<!-- aa -->
<g id="node3" class="node">
<title>aa</title>
<ellipse fill="none" stroke="black" cx="295.64" cy="-888.47" rx="21.4" ry="21.4"/>
<ellipse fill="none" stroke="black" cx="295.64" cy="-888.47" rx="25.4" ry="25.4"/>
<text text-anchor="middle" x="295.64" y="-884.77" font-family="Times,serif" font-size="14.00">aa</text>
</g>
<!-- a&#45;&gt;aa -->
<g id="edge4" class="edge">
<title>a&#45;&gt;aa</title>
<path fill="none" stroke="black" d="M202.65,-704.03C220.45,-739.73 258.32,-815.65 279.5,-858.11"/>
<polygon fill="black" stroke="black" points="276.92,-859.61 283.38,-865.89 282.25,-856.95 276.92,-859.61"/>
<text text-anchor="middle" x="241.39" y="-802.27" font-family="Times,serif" font-size="14.00"> a </text>
</g>
<!-- ab -->
<g id="node10" class="node">
<title>ab</title>
<ellipse fill="none" stroke="black" cx="295.64" cy="-684.47" rx="22.18" ry="22.18"/>
<ellipse fill="none" stroke="black" cx="295.64" cy="-684.47" rx="26.2" ry="26.2"/>
<text text-anchor="middle" x="295.64" y="-680.77" font-family="Times,serif" font-size="14.00">ab</text>
</g>
<!-- a&#45;&gt;ab -->
<g id="edge5" class="edge">
<title>a&#45;&gt;ab</title>
<path fill="none" stroke="black" d="M213.98,-684.47C227.41,-684.47 245.11,-684.47 260.51,-684.47"/>
<polygon fill="black" stroke="black" points="260.77,-687.45 269.27,-684.47 260.77,-681.5 260.77,-687.45"/>
<text text-anchor="middle" x="241.39" y="-688.27" font-family="Times,serif" font-size="14.00"> b </text>
</g>
<!-- aaa1 -->
<g id="node4" class="node">
<title>aaa1</title>
<ellipse fill="none" stroke="black" cx="415.84" cy="-1006.47" rx="32.49" ry="32.49"/>
<ellipse fill="none" stroke="black" cx="415.84" cy="-1006.47" rx="36.49" ry="36.49"/>
<text text-anchor="middle" x="415.84" y="-1002.77" font-family="Times,serif" font-size="14.00">aaa1</text>
</g>
<!-- aa&#45;&gt;aaa1 -->
<g id="edge8" class="edge">
<title>aa&#45;&gt;aaa1</title>
<path fill="none" stroke="black" d="M314.34,-906.14C332.47,-924.24 361.05,-952.77 383.1,-974.79"/>
<polygon fill="black" stroke="black" points="381.02,-976.91 389.13,-980.81 385.22,-972.7 381.02,-976.91"/>
<text text-anchor="middle" x="349.89" y="-954.27" font-family="Times,serif" font-size="14.00"> a </text>
</g>
<!-- aab1 -->
<g id="node7" class="node">
<title>aab1</title>
<ellipse fill="none" stroke="black" cx="415.84" cy="-888.47" rx="33.28" ry="33.28"/>
<ellipse fill="none" stroke="black" cx="415.84" cy="-888.47" rx="37.29" ry="37.29"/>
<text text-anchor="middle" x="415.84" y="-884.77" font-family="Times,serif" font-size="14.00">aab1</text>
</g>
<!-- aa&#45;&gt;aab1 -->
<g id="edge9" class="edge">
<title>aa&#45;&gt;aab1</title>
<path fill="none" stroke="black" d="M321.13,-888.47C335.05,-888.47 352.93,-888.47 369.33,-888.47"/>
<polygon fill="black" stroke="black" points="369.75,-891.45 378.25,-888.47 369.75,-885.5 369.75,-891.45"/>
<text text-anchor="middle" x="349.89" y="-892.27" font-family="Times,serif" font-size="14.00"> b </text>
</g>
<!-- aaa2 -->
<g id="node5" class="node">
<title>aaa2</title>
<ellipse fill="none" stroke="black" cx="547.73" cy="-1075.47" rx="32.49" ry="32.49"/>
<ellipse fill="none" stroke="black" cx="547.73" cy="-1075.47" rx="36.49" ry="36.49"/>
<text text-anchor="middle" x="547.73" y="-1071.77" font-family="Times,serif" font-size="14.00">aaa2</text>
</g>
<!-- aaa1&#45;&gt;aaa2 -->
<g id="edge16" class="edge">
<title>aaa1&#45;&gt;aaa2</title>
<path fill="none" stroke="black" d="M448.61,-1023.35C466.23,-1032.71 488.29,-1044.42 507.03,-1054.38"/>
<polygon fill="black" stroke="black" points="505.93,-1057.17 514.83,-1058.53 508.72,-1051.91 505.93,-1057.17"/>
<text text-anchor="middle" x="481.78" y="-1048.27" font-family="Times,serif" font-size="14.00"> a </text>
</g>
<!-- aaa3 -->
<g id="node6" class="node">
<title>aaa3</title>
<ellipse fill="none" stroke="black" cx="679.62" cy="-1032.47" rx="32.49" ry="32.49"/>
<ellipse fill="none" stroke="black" cx="679.62" cy="-1032.47" rx="36.49" ry="36.49"/>
<text text-anchor="middle" x="679.62" y="-1028.77" font-family="Times,serif" font-size="14.00">aaa3</text>
</g>
<!-- aaa2&#45;&gt;aaa3 -->
<g id="edge24" class="edge">
<title>aaa2&#45;&gt;aaa3</title>
<path fill="none" stroke="black" d="M582.52,-1064.28C598.93,-1058.85 618.81,-1052.27 636.23,-1046.5"/>
<polygon fill="black" stroke="black" points="637.42,-1049.24 644.55,-1043.75 635.55,-1043.6 637.42,-1049.24"/>
<text text-anchor="middle" x="613.68" y="-1060.27" font-family="Times,serif" font-size="14.00"> a </text>
</g>
<!-- aaa3&#45;&gt;aaa1 -->
<g id="edge32" class="edge">
<title>aaa3&#45;&gt;aaa1</title>
<path fill="none" stroke="black" d="M643.67,-1024.94C626.44,-1021.52 605.3,-1017.73 586.18,-1015.47 544.04,-1010.5 495.68,-1008.27 461.45,-1007.27"/>
<polygon fill="black" stroke="black" points="461.21,-1004.29 452.63,-1007.04 461.05,-1010.24 461.21,-1004.29"/>
<text text-anchor="middle" x="547.73" y="-1019.27" font-family="Times,serif" font-size="14.00"> a </text>
</g>
<!-- aab2 -->
<g id="node8" class="node">
<title>aab2</title>
<ellipse fill="none" stroke="black" cx="547.73" cy="-933.47" rx="33.28" ry="33.28"/>
<ellipse fill="none" stroke="black" cx="547.73" cy="-933.47" rx="37.29" ry="37.29"/>
<text text-anchor="middle" x="547.73" y="-929.77" font-family="Times,serif" font-size="14.00">aab2</text>
</g>
<!-- aab1&#45;&gt;aab2 -->
<g id="edge17" class="edge">
<title>aab1&#45;&gt;aab2</title>
<path fill="none" stroke="black" d="M451.31,-900.41C467.45,-906.01 486.85,-912.73 503.93,-918.64"/>
<polygon fill="black" stroke="black" points="503.1,-921.5 512.1,-921.47 505.04,-915.88 503.1,-921.5"/>
<text text-anchor="middle" x="481.78" y="-917.27" font-family="Times,serif" font-size="14.00"> a </text>
</g>
<!-- aab3 -->
<g id="node9" class="node">
<title>aab3</title>
<ellipse fill="none" stroke="black" cx="679.62" cy="-889.47" rx="33.28" ry="33.28"/>
<ellipse fill="none" stroke="black" cx="679.62" cy="-889.47" rx="37.29" ry="37.29"/>
<text text-anchor="middle" x="679.62" y="-885.77" font-family="Times,serif" font-size="14.00">aab3</text>
</g>
<!-- aab2&#45;&gt;aab3 -->
<g id="edge25" class="edge">
<title>aab2&#45;&gt;aab3</title>
<path fill="none" stroke="black" d="M583.2,-921.79C599.35,-916.32 618.75,-909.75 635.82,-903.97"/>
<polygon fill="black" stroke="black" points="636.9,-906.75 644,-901.2 634.99,-901.11 636.9,-906.75"/>
<text text-anchor="middle" x="613.68" y="-917.27" font-family="Times,serif" font-size="14.00"> a </text>
</g>
<!-- aab3&#45;&gt;aab1 -->
<g id="edge33" class="edge">
<title>aab3&#45;&gt;aab1</title>
<path fill="none" stroke="black" d="M643.27,-881.41C626.14,-877.9 605.19,-874.2 586.18,-872.47 552.14,-869.37 543.33,-869.55 509.28,-872.47 493.41,-873.83 476.17,-876.49 460.93,-879.25"/>
<polygon fill="black" stroke="black" points="460.02,-876.4 452.21,-880.88 461.11,-882.25 460.02,-876.4"/>
<text text-anchor="middle" x="547.73" y="-876.27" font-family="Times,serif" font-size="14.00"> b </text>
</g>
<!-- aba1 -->
<g id="node11" class="node">
<title>aba1</title>
<ellipse fill="none" stroke="black" cx="415.84" cy="-725.47" rx="33.28" ry="33.28"/>
<ellipse fill="none" stroke="black" cx="415.84" cy="-725.47" rx="37.29" ry="37.29"/>
<text text-anchor="middle" x="415.84" y="-721.77" font-family="Times,serif" font-size="14.00">aba1</text>
</g>
<!-- ab&#45;&gt;aba1 -->
<g id="edge10" class="edge">
<title>ab&#45;&gt;aba1</title>
<path fill="none" stroke="black" d="M320.56,-692.77C335.28,-697.87 354.59,-704.57 371.89,-710.57"/>
<polygon fill="black" stroke="black" points="371.19,-713.48 380.2,-713.45 373.14,-707.86 371.19,-713.48"/>
<text text-anchor="middle" x="349.89" y="-709.27" font-family="Times,serif" font-size="14.00"> a </text>
</g>
<!-- abb1 -->
<g id="node14" class="node">
<title>abb1</title>
<ellipse fill="none" stroke="black" cx="415.84" cy="-632.47" rx="33.62" ry="33.62"/>
<ellipse fill="none" stroke="black" cx="415.84" cy="-632.47" rx="37.6" ry="37.6"/>
<text text-anchor="middle" x="415.84" y="-628.77" font-family="Times,serif" font-size="14.00">abb1</text>
</g>
<!-- ab&#45;&gt;abb1 -->
<g id="edge11" class="edge">
<title>ab&#45;&gt;abb1</title>
<path fill="none" stroke="black" d="M319.71,-674.32C334.74,-667.71 354.8,-658.88 372.62,-651.04"/>
<polygon fill="black" stroke="black" points="374.05,-653.67 380.63,-647.52 371.65,-648.22 374.05,-653.67"/>
<text text-anchor="middle" x="349.89" y="-668.27" font-family="Times,serif" font-size="14.00"> b </text>
</g>
<!-- aba2 -->
<g id="node12" class="node">
<title>aba2</title>
<ellipse fill="none" stroke="black" cx="547.73" cy="-790.47" rx="33.28" ry="33.28"/>
<ellipse fill="none" stroke="black" cx="547.73" cy="-790.47" rx="37.29" ry="37.29"/>
<text text-anchor="middle" x="547.73" y="-786.77" font-family="Times,serif" font-size="14.00">aba2</text>
</g>
<!-- aba1&#45;&gt;aba2 -->
<g id="edge18" class="edge">
<title>aba1&#45;&gt;aba2</title>
<path fill="none" stroke="black" d="M449.28,-741.7C466.64,-750.39 488.17,-761.17 506.58,-770.38"/>
<polygon fill="black" stroke="black" points="505.32,-773.07 514.25,-774.22 507.98,-767.75 505.32,-773.07"/>
<text text-anchor="middle" x="481.78" y="-765.27" font-family="Times,serif" font-size="14.00"> a </text>
</g>
<!-- aba3 -->
<g id="node13" class="node">
<title>aba3</title>
<ellipse fill="none" stroke="black" cx="679.62" cy="-746.47" rx="33.28" ry="33.28"/>
<ellipse fill="none" stroke="black" cx="679.62" cy="-746.47" rx="37.29" ry="37.29"/>
<text text-anchor="middle" x="679.62" y="-742.77" font-family="Times,serif" font-size="14.00">aba3</text>
</g>
<!-- aba2&#45;&gt;aba3 -->
<g id="edge26" class="edge">
<title>aba2&#45;&gt;aba3</title>
<path fill="none" stroke="black" d="M583.2,-778.79C599.35,-773.32 618.75,-766.75 635.82,-760.97"/>
<polygon fill="black" stroke="black" points="636.9,-763.75 644,-758.2 634.99,-758.11 636.9,-763.75"/>
<text text-anchor="middle" x="613.68" y="-774.27" font-family="Times,serif" font-size="14.00"> b </text>
</g>
<!-- aba3&#45;&gt;aba1 -->
<g id="edge34" class="edge">
<title>aba3&#45;&gt;aba1</title>
<path fill="none" stroke="black" d="M643.26,-738.61C626.11,-735.15 605.17,-731.43 586.18,-729.47 544.29,-725.15 496.27,-724.41 462.1,-724.6"/>
<polygon fill="black" stroke="black" points="461.75,-721.63 453.28,-724.67 461.8,-727.58 461.75,-721.63"/>
<text text-anchor="middle" x="547.73" y="-733.27" font-family="Times,serif" font-size="14.00"> a </text>
</g>
<!-- abb2 -->
<g id="node15" class="node">
<title>abb2</title>
<ellipse fill="none" stroke="black" cx="547.73" cy="-646.47" rx="33.62" ry="33.62"/>
<ellipse fill="none" stroke="black" cx="547.73" cy="-646.47" rx="37.6" ry="37.6"/>
<text text-anchor="middle" x="547.73" y="-642.77" font-family="Times,serif" font-size="14.00">abb2</text>
</g>
<!-- abb1&#45;&gt;abb2 -->
<g id="edge19" class="edge">
<title>abb1&#45;&gt;abb2</title>
<path fill="none" stroke="black" d="M453.71,-636.44C468.52,-638.04 485.74,-639.9 501.31,-641.57"/>
<polygon fill="black" stroke="black" points="500.99,-644.53 509.76,-642.49 501.63,-638.62 500.99,-644.53"/>
<text text-anchor="middle" x="481.78" y="-643.27" font-family="Times,serif" font-size="14.00"> a </text>
</g>
<!-- abb3 -->
<g id="node16" class="node">
<title>abb3</title>
<ellipse fill="none" stroke="black" cx="679.62" cy="-601.47" rx="33.62" ry="33.62"/>
<ellipse fill="none" stroke="black" cx="679.62" cy="-601.47" rx="37.6" ry="37.6"/>
<text text-anchor="middle" x="679.62" y="-597.77" font-family="Times,serif" font-size="14.00">abb3</text>
</g>
<!-- abb2&#45;&gt;abb3 -->
<g id="edge27" class="edge">
<title>abb2&#45;&gt;abb3</title>
<path fill="none" stroke="black" d="M583.88,-634.29C599.62,-628.84 618.34,-622.35 634.97,-616.59"/>
<polygon fill="black" stroke="black" points="636.39,-619.25 643.45,-613.66 634.44,-613.63 636.39,-619.25"/>
<text text-anchor="middle" x="613.68" y="-630.27" font-family="Times,serif" font-size="14.00"> b </text>
</g>
<!-- abb3&#45;&gt;abb1 -->
<g id="edge35" class="edge">
<title>abb3&#45;&gt;abb1</title>
<path fill="none" stroke="black" d="M643.11,-591.04C608.51,-582.47 554.64,-573.4 509.28,-584.47 490.56,-589.04 471.41,-598.12 455.43,-607.17"/>
<polygon fill="black" stroke="black" points="453.69,-604.74 447.85,-611.59 456.69,-609.88 453.69,-604.74"/>
<text text-anchor="middle" x="547.73" y="-588.27" font-family="Times,serif" font-size="14.00"> b </text>
</g>
<!-- b -->
<g id="node17" class="node">
<title>b</title>
<ellipse fill="none" stroke="black" cx="191.89" cy="-398.47" rx="18" ry="18"/>
<ellipse fill="none" stroke="black" cx="191.89" cy="-398.47" rx="22" ry="22"/>
<text text-anchor="middle" x="191.89" y="-394.77" font-family="Times,serif" font-size="14.00">b</text>
</g>
<!-- ba -->
<g id="node18" class="node">
<title>ba</title>
<ellipse fill="none" stroke="black" cx="295.64" cy="-398.47" rx="22.18" ry="22.18"/>
<ellipse fill="none" stroke="black" cx="295.64" cy="-398.47" rx="26.2" ry="26.2"/>
<text text-anchor="middle" x="295.64" y="-394.77" font-family="Times,serif" font-size="14.00">ba</text>
</g>
<!-- b&#45;&gt;ba -->
<g id="edge6" class="edge">
<title>b&#45;&gt;ba</title>
<path fill="none" stroke="black" d="M213.98,-398.47C227.41,-398.47 245.11,-398.47 260.51,-398.47"/>
<polygon fill="black" stroke="black" points="260.77,-401.45 269.27,-398.47 260.77,-395.5 260.77,-401.45"/>
<text text-anchor="middle" x="241.39" y="-402.27" font-family="Times,serif" font-size="14.00"> a </text>
</g>
<!-- bb -->
<g id="node25" class="node">
<title>bb</title>
<ellipse fill="none" stroke="black" cx="295.64" cy="-168.47" rx="22.96" ry="22.96"/>
<ellipse fill="none" stroke="black" cx="295.64" cy="-168.47" rx="27" ry="27"/>
<text text-anchor="middle" x="295.64" y="-164.77" font-family="Times,serif" font-size="14.00">bb</text>
</g>
<!-- b&#45;&gt;bb -->
<g id="edge7" class="edge">
<title>b&#45;&gt;bb</title>
<path fill="none" stroke="black" d="M201.75,-378.46C219.39,-338.58 259.07,-248.89 280.41,-200.64"/>
<polygon fill="black" stroke="black" points="283.21,-201.68 283.92,-192.7 277.76,-199.27 283.21,-201.68"/>
<text text-anchor="middle" x="241.39" y="-307.27" font-family="Times,serif" font-size="14.00"> b </text>
</g>
<!-- baa1 -->
<g id="node19" class="node">
<title>baa1</title>
<ellipse fill="none" stroke="black" cx="415.84" cy="-441.47" rx="33.28" ry="33.28"/>
<ellipse fill="none" stroke="black" cx="415.84" cy="-441.47" rx="37.29" ry="37.29"/>
<text text-anchor="middle" x="415.84" y="-437.77" font-family="Times,serif" font-size="14.00">baa1</text>
</g>
<!-- ba&#45;&gt;baa1 -->
<g id="edge12" class="edge">
<title>ba&#45;&gt;baa1</title>
<path fill="none" stroke="black" d="M320.56,-407.17C335.4,-412.57 354.89,-419.66 372.3,-426"/>
<polygon fill="black" stroke="black" points="371.65,-428.92 380.65,-429.03 373.68,-423.33 371.65,-428.92"/>
<text text-anchor="middle" x="349.89" y="-424.27" font-family="Times,serif" font-size="14.00"> a </text>
</g>
<!-- bab1 -->
<g id="node22" class="node">
<title>bab1</title>
<ellipse fill="none" stroke="black" cx="415.84" cy="-348.47" rx="33.62" ry="33.62"/>
<ellipse fill="none" stroke="black" cx="415.84" cy="-348.47" rx="37.6" ry="37.6"/>
<text text-anchor="middle" x="415.84" y="-344.77" font-family="Times,serif" font-size="14.00">bab1</text>
</g>
<!-- ba&#45;&gt;bab1 -->
<g id="edge13" class="edge">
<title>ba&#45;&gt;bab1</title>
<path fill="none" stroke="black" d="M319.99,-388.59C335.05,-382.22 355.05,-373.76 372.81,-366.25"/>
<polygon fill="black" stroke="black" points="374.12,-368.93 380.79,-362.87 371.8,-363.45 374.12,-368.93"/>
<text text-anchor="middle" x="349.89" y="-382.27" font-family="Times,serif" font-size="14.00"> b </text>
</g>
<!-- baa2 -->
<g id="node20" class="node">
<title>baa2</title>
<ellipse fill="none" stroke="black" cx="547.73" cy="-502.47" rx="33.28" ry="33.28"/>
<ellipse fill="none" stroke="black" cx="547.73" cy="-502.47" rx="37.29" ry="37.29"/>
<text text-anchor="middle" x="547.73" y="-498.77" font-family="Times,serif" font-size="14.00">baa2</text>
</g>
<!-- baa1&#45;&gt;baa2 -->
<g id="edge20" class="edge">
<title>baa1&#45;&gt;baa2</title>
<path fill="none" stroke="black" d="M449.95,-457.02C466.9,-464.98 487.69,-474.74 505.65,-483.18"/>
<polygon fill="black" stroke="black" points="504.72,-486.03 513.68,-486.95 507.25,-480.64 504.72,-486.03"/>
<text text-anchor="middle" x="481.78" y="-479.27" font-family="Times,serif" font-size="14.00"> b </text>
</g>
<!-- baa3 -->
<g id="node21" class="node">
<title>baa3</title>
<ellipse fill="none" stroke="black" cx="679.62" cy="-458.47" rx="33.28" ry="33.28"/>
<ellipse fill="none" stroke="black" cx="679.62" cy="-458.47" rx="37.29" ry="37.29"/>
<text text-anchor="middle" x="679.62" y="-454.77" font-family="Times,serif" font-size="14.00">baa3</text>
</g>
<!-- baa2&#45;&gt;baa3 -->
<g id="edge28" class="edge">
<title>baa2&#45;&gt;baa3</title>
<path fill="none" stroke="black" d="M583.2,-490.79C599.35,-485.32 618.75,-478.75 635.82,-472.97"/>
<polygon fill="black" stroke="black" points="636.9,-475.75 644,-470.2 634.99,-470.11 636.9,-475.75"/>
<text text-anchor="middle" x="613.68" y="-486.27" font-family="Times,serif" font-size="14.00"> a </text>
</g>
<!-- baa3&#45;&gt;baa1 -->
<g id="edge36" class="edge">
<title>baa3&#45;&gt;baa1</title>
<path fill="none" stroke="black" d="M643.27,-450.41C626.14,-446.9 605.19,-443.2 586.18,-441.47 544.25,-437.65 496.24,-438.1 462.07,-439.24"/>
<polygon fill="black" stroke="black" points="461.65,-436.28 453.26,-439.56 461.86,-442.23 461.65,-436.28"/>
<text text-anchor="middle" x="547.73" y="-445.27" font-family="Times,serif" font-size="14.00"> a </text>
</g>
<!-- bab2 -->
<g id="node23" class="node">
<title>bab2</title>
<ellipse fill="none" stroke="black" cx="547.73" cy="-358.47" rx="33.62" ry="33.62"/>
<ellipse fill="none" stroke="black" cx="547.73" cy="-358.47" rx="37.6" ry="37.6"/>
<text text-anchor="middle" x="547.73" y="-354.77" font-family="Times,serif" font-size="14.00">bab2</text>
</g>
<!-- bab1&#45;&gt;bab2 -->
<g id="edge21" class="edge">
<title>bab1&#45;&gt;bab2</title>
<path fill="none" stroke="black" d="M453.71,-351.31C468.38,-352.44 485.42,-353.75 500.88,-354.94"/>
<polygon fill="black" stroke="black" points="501.06,-357.94 509.76,-355.62 501.52,-352.01 501.06,-357.94"/>
<text text-anchor="middle" x="481.78" y="-357.27" font-family="Times,serif" font-size="14.00"> b </text>
</g>
<!-- bab3 -->
<g id="node24" class="node">
<title>bab3</title>
<ellipse fill="none" stroke="black" cx="679.62" cy="-313.47" rx="33.62" ry="33.62"/>
<ellipse fill="none" stroke="black" cx="679.62" cy="-313.47" rx="37.6" ry="37.6"/>
<text text-anchor="middle" x="679.62" y="-309.77" font-family="Times,serif" font-size="14.00">bab3</text>
</g>
<!-- bab2&#45;&gt;bab3 -->
<g id="edge29" class="edge">
<title>bab2&#45;&gt;bab3</title>
<path fill="none" stroke="black" d="M583.88,-346.29C599.62,-340.84 618.34,-334.35 634.97,-328.59"/>
<polygon fill="black" stroke="black" points="636.39,-331.25 643.45,-325.66 634.44,-325.63 636.39,-331.25"/>
<text text-anchor="middle" x="613.68" y="-342.27" font-family="Times,serif" font-size="14.00"> a </text>
</g>
<!-- bab3&#45;&gt;bab1 -->
<g id="edge37" class="edge">
<title>bab3&#45;&gt;bab1</title>
<path fill="none" stroke="black" d="M643.36,-302.79C608.71,-293.95 554.59,-284.6 509.28,-296.47 489.82,-301.57 470.13,-311.79 453.95,-321.83"/>
<polygon fill="black" stroke="black" points="452.34,-319.33 446.78,-326.41 455.54,-324.34 452.34,-319.33"/>
<text text-anchor="middle" x="547.73" y="-300.27" font-family="Times,serif" font-size="14.00"> b </text>
</g>
<!-- bba1 -->
<g id="node26" class="node">
<title>bba1</title>
<ellipse fill="none" stroke="black" cx="415.84" cy="-168.47" rx="33.62" ry="33.62"/>
<ellipse fill="none" stroke="black" cx="415.84" cy="-168.47" rx="37.6" ry="37.6"/>
<text text-anchor="middle" x="415.84" y="-164.77" font-family="Times,serif" font-size="14.00">bba1</text>
</g>
<!-- bb&#45;&gt;bba1 -->
<g id="edge14" class="edge">
<title>bb&#45;&gt;bba1</title>
<path fill="none" stroke="black" d="M322.58,-168.47C336.23,-168.47 353.36,-168.47 369.15,-168.47"/>
<polygon fill="black" stroke="black" points="369.25,-171.45 377.75,-168.47 369.25,-165.5 369.25,-171.45"/>
<text text-anchor="middle" x="349.89" y="-172.27" font-family="Times,serif" font-size="14.00"> a </text>
</g>
<!-- bbb1 -->
<g id="node29" class="node">
<title>bbb1</title>
<ellipse fill="none" stroke="black" cx="415.84" cy="-68.47" rx="34.4" ry="34.4"/>
<ellipse fill="none" stroke="black" cx="415.84" cy="-68.47" rx="38.39" ry="38.39"/>
<text text-anchor="middle" x="415.84" y="-64.77" font-family="Times,serif" font-size="14.00">bbb1</text>
</g>
<!-- bb&#45;&gt;bbb1 -->
<g id="edge15" class="edge">
<title>bb&#45;&gt;bbb1</title>
<path fill="none" stroke="black" d="M316.69,-151.51C333.73,-137.09 358.62,-116.04 379.06,-98.74"/>
<polygon fill="black" stroke="black" points="381.24,-100.79 385.81,-93.03 377.4,-96.25 381.24,-100.79"/>
<text text-anchor="middle" x="349.89" y="-133.27" font-family="Times,serif" font-size="14.00"> b </text>
</g>
<!-- bba2 -->
<g id="node27" class="node">
<title>bba2</title>
<ellipse fill="none" stroke="black" cx="547.73" cy="-213.47" rx="33.62" ry="33.62"/>
<ellipse fill="none" stroke="black" cx="547.73" cy="-213.47" rx="37.6" ry="37.6"/>
<text text-anchor="middle" x="547.73" y="-209.77" font-family="Times,serif" font-size="14.00">bba2</text>
</g>
<!-- bba1&#45;&gt;bba2 -->
<g id="edge22" class="edge">
<title>bba1&#45;&gt;bba2</title>
<path fill="none" stroke="black" d="M451.99,-180.65C467.73,-186.1 486.45,-192.59 503.07,-198.35"/>
<polygon fill="black" stroke="black" points="502.55,-201.31 511.55,-201.28 504.49,-195.69 502.55,-201.31"/>
<text text-anchor="middle" x="481.78" y="-197.27" font-family="Times,serif" font-size="14.00"> b </text>
</g>
<!-- bba3 -->
<g id="node28" class="node">
<title>bba3</title>
<ellipse fill="none" stroke="black" cx="679.62" cy="-164.47" rx="33.62" ry="33.62"/>
<ellipse fill="none" stroke="black" cx="679.62" cy="-164.47" rx="37.6" ry="37.6"/>
<text text-anchor="middle" x="679.62" y="-160.77" font-family="Times,serif" font-size="14.00">bba3</text>
</g>
<!-- bba2&#45;&gt;bba3 -->
<g id="edge30" class="edge">
<title>bba2&#45;&gt;bba3</title>
<path fill="none" stroke="black" d="M583.54,-200.34C599.56,-194.3 618.71,-187.07 635.62,-180.69"/>
<polygon fill="black" stroke="black" points="636.82,-183.42 643.72,-177.64 634.72,-177.85 636.82,-183.42"/>
<text text-anchor="middle" x="613.68" y="-195.27" font-family="Times,serif" font-size="14.00"> b </text>
</g>
<!-- bba3&#45;&gt;bba1 -->
<g id="edge38" class="edge">
<title>bba3&#45;&gt;bba1</title>
<path fill="none" stroke="black" d="M642.31,-158.17C625.32,-155.53 604.77,-152.77 586.18,-151.47 552.09,-149.08 543.32,-148.37 509.28,-151.47 493.66,-152.89 476.74,-155.65 461.69,-158.53"/>
<polygon fill="black" stroke="black" points="460.83,-155.66 453.07,-160.23 461.98,-161.5 460.83,-155.66"/>
<text text-anchor="middle" x="547.73" y="-155.27" font-family="Times,serif" font-size="14.00"> a </text>
</g>
<!-- bbb2 -->
<g id="node30" class="node">
<title>bbb2</title>
<ellipse fill="none" stroke="black" cx="547.73" cy="-68.47" rx="34.4" ry="34.4"/>
<ellipse fill="none" stroke="black" cx="547.73" cy="-68.47" rx="38.39" ry="38.39"/>
<text text-anchor="middle" x="547.73" y="-64.77" font-family="Times,serif" font-size="14.00">bbb2</text>
</g>
<!-- bbb1&#45;&gt;bbb2 -->
<g id="edge23" class="edge">
<title>bbb1&#45;&gt;bbb2</title>
<path fill="none" stroke="black" d="M454.41,-68.47C468.81,-68.47 485.42,-68.47 500.54,-68.47"/>
<polygon fill="black" stroke="black" points="500.74,-71.45 509.24,-68.47 500.74,-65.5 500.74,-71.45"/>
<text text-anchor="middle" x="481.78" y="-72.27" font-family="Times,serif" font-size="14.00"> b </text>
</g>
<!-- bbb3 -->
<g id="node31" class="node">
<title>bbb3</title>
<ellipse fill="none" stroke="black" cx="679.62" cy="-45.47" rx="34.4" ry="34.4"/>
<ellipse fill="none" stroke="black" cx="679.62" cy="-45.47" rx="38.39" ry="38.39"/>
<text text-anchor="middle" x="679.62" y="-41.77" font-family="Times,serif" font-size="14.00">bbb3</text>
</g>
<!-- bbb2&#45;&gt;bbb3 -->
<g id="edge31" class="edge">
<title>bbb2&#45;&gt;bbb3</title>
<path fill="none" stroke="black" d="M585.95,-61.88C600.49,-59.3 617.31,-56.33 632.6,-53.62"/>
<polygon fill="black" stroke="black" points="633.55,-56.47 641.4,-52.06 632.51,-50.61 633.55,-56.47"/>
<text text-anchor="middle" x="613.68" y="-61.27" font-family="Times,serif" font-size="14.00"> b </text>
</g>
<!-- bbb3&#45;&gt;bbb1 -->
<g id="edge39" class="edge">
<title>bbb3&#45;&gt;bbb1</title>
<path fill="none" stroke="black" d="M645.42,-27.65C628.26,-19.44 606.67,-10.61 586.18,-6.47 552.68,0.31 541.98,3.48 509.28,-6.47 488.42,-12.82 467.98,-25.62 451.65,-37.96"/>
<polygon fill="black" stroke="black" points="449.8,-35.63 444.91,-43.19 453.45,-40.32 449.8,-35.63"/>
<text text-anchor="middle" x="547.73" y="-10.27" font-family="Times,serif" font-size="14.00"> b </text>
</g>
<!-- start&#45;&gt;a -->
<g id="edge2" class="edge">
<title>start&#45;&gt;a</title>
<path fill="none" stroke="black" d="M105.61,-604.62C125,-622.78 150.86,-646.99 169,-663.97"/>
<polygon fill="black" stroke="black" points="167.07,-666.24 175.31,-669.88 171.14,-661.9 167.07,-666.24"/>
<text text-anchor="middle" x="142.39" y="-651.27" font-family="Times,serif" font-size="14.00"> a </text>
</g>
<!-- start&#45;&gt;b -->
<g id="edge3" class="edge">
<title>start&#45;&gt;b</title>
<path fill="none" stroke="black" d="M98.28,-547.94C120.01,-512.87 154.7,-456.88 174.89,-424.3"/>
<polygon fill="black" stroke="black" points="177.5,-425.73 179.45,-416.94 172.45,-422.6 177.5,-425.73"/>
<text text-anchor="middle" x="142.39" y="-492.27" font-family="Times,serif" font-size="14.00"> b </text>
</g>
</g>
</svg>
