<?xml version="1.0" encoding="UTF-8" standalone="no"?>
<!DOCTYPE svg PUBLIC "-//W3C//DTD SVG 1.1//EN" "http://www.w3.org/Graphics/SVG/1.1/DTD/svg11.dtd">
<!-- Generated by graphviz version 2.43.0 (0)
 -->
<!-- Title: %3 Pages: 1 -->
<svg width="570pt" height="191pt" viewBox="0.00 0.00 570.37 190.54" xmlns="http://www.w3.org/2000/svg"
    xmlns:xlink="http://www.w3.org/1999/xlink">
    <g id="graph0" class="graph" transform="scale(1 1) rotate(0) translate(4 186.54)">
        <title>%3</title>
        <polygon fill="none" stroke="transparent" points="-4,4 -4,-186.54 566.37,-186.54 566.37,4 -4,4" />
        <!-- Initial -->
        <g id="node1" class="node">
            <title>Initial</title>
            <ellipse fill="black" stroke="black" cx="1.8" cy="-79.6" rx="1.8" ry="1.8" />
        </g>
        <!-- start -->
        <g id="node9" class="node">
            <title>start</title>
            <ellipse fill="white" stroke="black" cx="73.75" cy="-79.6" rx="33.29" ry="33.29" />
            <text text-anchor="middle" x="73.75" y="-75.9" font-family="Times,serif" font-size="14.00">start</text>
        </g>
        <!-- Initial&#45;&gt;start -->
        <g id="edge1" class="edge">
            <title>Initial&#45;&gt;start</title>
            <path fill="none" stroke="black" d="M3.79,-79.6C7.19,-79.6 18.93,-79.6 31.79,-79.6" />
            <polygon fill="black" stroke="black" points="31.82,-82.57 40.32,-79.6 31.82,-76.62 31.82,-82.57" />
        </g>
        <!-- end -->
        <g id="node2" class="node">
            <title>end</title>
            <ellipse fill="white" stroke="black" cx="530.43" cy="-84.6" rx="31.9" ry="31.9" />
            <ellipse fill="none" stroke="black" cx="530.43" cy="-84.6" rx="27.9" ry="27.9" />
            <text text-anchor="middle" x="530.43" y="-80.9" font-family="Times,serif" font-size="14.00">end</text>
        </g>
        <!-- end&#45;&gt;end -->
        <g id="edge16" class="edge">
            <title>end&#45;&gt;end</title>
            <path fill="none" stroke="black"
                d="M524.99,-116.3C525.05,-126.48 526.86,-134.54 530.43,-134.54 532.88,-134.54 534.5,-130.73 535.3,-125.04" />
            <polygon fill="black" stroke="black" points="538.28,-124.98 535.86,-116.3 532.34,-124.59 538.28,-124.98" />
            <text text-anchor="middle" x="530.43" y="-138.34" font-family="Times,serif" font-size="14.00"> a </text>
        </g>
        <!-- end&#45;&gt;end -->
        <g id="edge17" class="edge">
            <title>end&#45;&gt;end</title>
            <path fill="none" stroke="black"
                d="M520.36,-114.99C517.84,-134.18 521.19,-152.54 530.43,-152.54 538.22,-152.54 541.82,-139.47 541.24,-123.86" />
            <polygon fill="black" stroke="black" points="544.17,-123.21 540.49,-114.99 538.24,-123.71 544.17,-123.21" />
            <text text-anchor="middle" x="530.43" y="-156.34" font-family="Times,serif" font-size="14.00"> b </text>
        </g>
        <!-- q1a -->
        <g id="node3" class="node">
            <title>q1a</title>
            <ellipse fill="white" stroke="black" cx="190.49" cy="-117.6" rx="27.9" ry="27.9" />
            <text text-anchor="middle" x="190.49" y="-113.9" font-family="Times,serif" font-size="14.00">q1a</text>
        </g>
        <!-- q2a -->
        <g id="node5" class="node">
            <title>q2a</title>
            <ellipse fill="white" stroke="black" cx="302.69" cy="-118.6" rx="27.9" ry="27.9" />
            <text text-anchor="middle" x="302.69" y="-114.9" font-family="Times,serif" font-size="14.00">q2a</text>
        </g>
        <!-- q1a&#45;&gt;q2a -->
        <g id="edge6" class="edge">
            <title>q1a&#45;&gt;q2a</title>
            <path fill="none" stroke="black"
                d="M218.42,-122.43C224.54,-123.33 231.02,-124.13 237.09,-124.6 246.63,-125.33 256.96,-124.91 266.5,-124.03" />
            <polygon fill="black" stroke="black" points="266.86,-126.98 274.99,-123.11 266.22,-121.07 266.86,-126.98" />
            <text text-anchor="middle" x="246.59" y="-128.4" font-family="Times,serif" font-size="14.00"> a </text>
        </g>
        <!-- q1a&#45;&gt;q2a -->
        <g id="edge7" class="edge">
            <title>q1a&#45;&gt;q2a</title>
            <path fill="none" stroke="black"
                d="M217.18,-108.96C228.99,-105.98 243.21,-103.8 256.09,-105.6 259.86,-106.12 263.76,-106.89 267.61,-107.78" />
            <polygon fill="black" stroke="black" points="266.94,-110.68 275.91,-109.91 268.42,-104.91 266.94,-110.68" />
            <text text-anchor="middle" x="246.59" y="-109.4" font-family="Times,serif" font-size="14.00"> b </text>
        </g>
        <!-- q1b -->
        <g id="node4" class="node">
            <title>q1b</title>
            <ellipse fill="white" stroke="black" cx="190.49" cy="-42.6" rx="28.7" ry="28.7" />
            <text text-anchor="middle" x="190.49" y="-38.9" font-family="Times,serif" font-size="14.00">q1b</text>
        </g>
        <!-- q2b -->
        <g id="node6" class="node">
            <title>q2b</title>
            <ellipse fill="white" stroke="black" cx="302.69" cy="-28.6" rx="28.7" ry="28.7" />
            <text text-anchor="middle" x="302.69" y="-24.9" font-family="Times,serif" font-size="14.00">q2b</text>
        </g>
        <!-- q1b&#45;&gt;q2b -->
        <g id="edge11" class="edge">
            <title>q1b&#45;&gt;q2b</title>
            <path fill="none" stroke="black" d="M219.01,-39.1C233.08,-37.31 250.38,-35.12 265.51,-33.19" />
            <polygon fill="black" stroke="black" points="266.08,-36.12 274.13,-32.1 265.33,-30.22 266.08,-36.12" />
            <text text-anchor="middle" x="246.59" y="-40.4" font-family="Times,serif" font-size="14.00"> a </text>
        </g>
        <!-- q1b&#45;&gt;q2b -->
        <g id="edge12" class="edge">
            <title>q1b&#45;&gt;q2b</title>
            <path fill="none" stroke="black"
                d="M214.61,-26.36C221.53,-22.37 229.34,-18.65 237.09,-16.6 246.81,-14.02 257.5,-14.64 267.33,-16.56" />
            <polygon fill="black" stroke="black" points="266.76,-19.49 275.71,-18.54 268.12,-13.69 266.76,-19.49" />
            <text text-anchor="middle" x="246.59" y="-20.4" font-family="Times,serif" font-size="14.00"> b </text>
        </g>
        <!-- q3a -->
        <g id="node7" class="node">
            <title>q3a</title>
            <ellipse fill="white" stroke="black" cx="414.88" cy="-122.6" rx="27.9" ry="27.9" />
            <text text-anchor="middle" x="414.88" y="-118.9" font-family="Times,serif" font-size="14.00">q3a</text>
        </g>
        <!-- q2a&#45;&gt;q3a -->
        <g id="edge8" class="edge">
            <title>q2a&#45;&gt;q3a</title>
            <path fill="none" stroke="black"
                d="M330.69,-119.84C336.8,-120.1 343.27,-120.37 349.28,-120.6 358.63,-120.95 368.74,-121.28 378.12,-121.57" />
            <polygon fill="black" stroke="black" points="378.26,-124.55 386.85,-121.84 378.44,-118.61 378.26,-124.55" />
            <text text-anchor="middle" x="358.78" y="-124.4" font-family="Times,serif" font-size="14.00"> a </text>
        </g>
        <!-- q2a&#45;&gt;q3a -->
        <g id="edge9" class="edge">
            <title>q2a&#45;&gt;q3a</title>
            <path fill="none" stroke="black"
                d="M328.11,-106.55C340.15,-102.05 354.92,-98.67 368.28,-101.6 372.86,-102.6 377.52,-104.11 382.04,-105.86" />
            <polygon fill="black" stroke="black" points="380.96,-108.64 389.95,-109.24 383.3,-103.17 380.96,-108.64" />
            <text text-anchor="middle" x="358.78" y="-105.4" font-family="Times,serif" font-size="14.00"> b </text>
        </g>
        <!-- q3b -->
        <g id="node8" class="node">
            <title>q3b</title>
            <ellipse fill="white" stroke="black" cx="414.88" cy="-47.6" rx="28.7" ry="28.7" />
            <text text-anchor="middle" x="414.88" y="-43.9" font-family="Times,serif" font-size="14.00">q3b</text>
        </g>
        <!-- q2b&#45;&gt;q3b -->
        <g id="edge13" class="edge">
            <title>q2b&#45;&gt;q3b</title>
            <path fill="none" stroke="black"
                d="M329.37,-39.07C335.77,-41.27 342.7,-43.32 349.28,-44.6 358.3,-46.35 368.16,-47.29 377.39,-47.75" />
            <polygon fill="black" stroke="black" points="377.41,-50.73 386.01,-48.07 377.62,-44.79 377.41,-50.73" />
            <text text-anchor="middle" x="358.78" y="-51.4" font-family="Times,serif" font-size="14.00"> a </text>
        </g>
        <!-- q2b&#45;&gt;q3b -->
        <g id="edge14" class="edge">
            <title>q2b&#45;&gt;q3b</title>
            <path fill="none" stroke="black"
                d="M331.01,-24.1C342.63,-23.01 356.24,-22.84 368.28,-25.6 372.67,-26.6 377.12,-28.08 381.45,-29.81" />
            <polygon fill="black" stroke="black" points="380.56,-32.67 389.54,-33.38 382.96,-27.23 380.56,-32.67" />
            <text text-anchor="middle" x="358.78" y="-29.4" font-family="Times,serif" font-size="14.00"> b </text>
        </g>
        <!-- q3a&#45;&gt;end -->
        <g id="edge10" class="edge">
            <title>q3a&#45;&gt;end</title>
            <path fill="none" stroke="black" d="M441.65,-113.97C456.36,-109.05 475.07,-102.79 491.44,-97.31" />
            <polygon fill="black" stroke="black" points="492.63,-100.05 499.75,-94.53 490.75,-94.41 492.63,-100.05" />
            <text text-anchor="middle" x="470.98" y="-111.4" font-family="Times,serif" font-size="14.00"> b </text>
        </g>
        <!-- q3b&#45;&gt;end -->
        <g id="edge15" class="edge">
            <title>q3b&#45;&gt;end</title>
            <path fill="none" stroke="black" d="M442.22,-56.18C456.83,-60.94 475.27,-66.95 491.42,-72.21" />
            <polygon fill="black" stroke="black" points="490.63,-75.08 499.63,-74.89 492.47,-69.43 490.63,-75.08" />
            <text text-anchor="middle" x="470.98" y="-72.4" font-family="Times,serif" font-size="14.00"> a </text>
        </g>
        <!-- start&#45;&gt;q1a -->
        <g id="edge3" class="edge">
            <title>start&#45;&gt;q1a</title>
            <path fill="none" stroke="black" d="M105.5,-89.78C120.84,-94.86 139.46,-101.03 155.26,-106.26" />
            <polygon fill="black" stroke="black" points="154.7,-109.21 163.71,-109.06 156.57,-103.56 154.7,-109.21" />
            <text text-anchor="middle" x="134.39" y="-106.4" font-family="Times,serif" font-size="14.00"> a </text>
        </g>
        <!-- start&#45;&gt;q1b -->
        <g id="edge5" class="edge">
            <title>start&#45;&gt;q1b</title>
            <path fill="none" stroke="black" d="M105.5,-69.68C120.62,-64.81 138.91,-58.91 154.56,-53.86" />
            <polygon fill="black" stroke="black" points="155.77,-56.6 162.95,-51.16 153.95,-50.93 155.77,-56.6" />
            <text text-anchor="middle" x="134.39" y="-67.4" font-family="Times,serif" font-size="14.00"> b </text>
        </g>
        <!-- start&#45;&gt;start -->
        <g id="edge2" class="edge">
            <title>start&#45;&gt;start</title>
            <path fill="none" stroke="black"
                d="M69.06,-112.56C69.16,-122.74 70.72,-130.74 73.75,-130.74 75.83,-130.74 77.22,-126.96 77.91,-121.29" />
            <polygon fill="black" stroke="black" points="80.9,-121.22 78.43,-112.56 74.96,-120.87 80.9,-121.22" />
            <text text-anchor="middle" x="73.75" y="-134.54" font-family="Times,serif" font-size="14.00"> a </text>
        </g>
        <!-- start&#45;&gt;start -->
        <g id="edge4" class="edge">
            <title>start&#45;&gt;start</title>
            <path fill="none" stroke="black"
                d="M64.96,-111.6C63,-130.74 65.93,-148.74 73.75,-148.74 80.34,-148.74 83.45,-135.93 83.09,-120.43" />
            <polygon fill="black" stroke="black" points="86.04,-119.9 82.54,-111.6 80.1,-120.28 86.04,-119.9" />
            <text text-anchor="middle" x="73.75" y="-152.54" font-family="Times,serif" font-size="14.00"> b </text>
        </g>
    </g>
</svg>