<?xml version="1.0" encoding="UTF-8" standalone="no"?>
<!DOCTYPE svg PUBLIC "-//W3C//DTD SVG 1.1//EN"
 "http://www.w3.org/Graphics/SVG/1.1/DTD/svg11.dtd">
<!-- Generated by graphviz version 2.43.0 (0)
 -->
<!-- Title: %3 Pages: 1 -->
<svg width="576pt" height="546pt"
 viewBox="0.00 0.00 576.00 545.77" xmlns="http://www.w3.org/2000/svg" xmlns:xlink="http://www.w3.org/1999/xlink">
<g id="graph0" class="graph" transform="scale(0.73 0.73) rotate(0) translate(4 741.29)">
<title>%3</title>
<polygon fill="white" stroke="transparent" points="-4,4 -4,-741.29 782.57,-741.29 782.57,4 -4,4"/>
<!-- Initial -->
<g id="node1" class="node">
<title>Initial</title>
<ellipse fill="black" stroke="black" cx="1.8" cy="-417.29" rx="1.8" ry="1.8"/>
</g>
<!-- start -->
<g id="node24" class="node">
<title>start</title>
<ellipse fill="none" stroke="black" cx="73.75" cy="-417.29" rx="33.29" ry="33.29"/>
<text text-anchor="middle" x="73.75" y="-413.59" font-family="Times,serif" font-size="14.00">start</text>
</g>
<!-- Initial&#45;&gt;start -->
<g id="edge1" class="edge">
<title>Initial&#45;&gt;start</title>
<path fill="none" stroke="black" d="M3.79,-417.29C7.19,-417.29 18.93,-417.29 31.79,-417.29"/>
<polygon fill="black" stroke="black" points="31.82,-420.27 40.32,-417.29 31.82,-414.32 31.82,-420.27"/>
</g>
<!-- a -->
<g id="node2" class="node">
<title>a</title>
<ellipse fill="none" stroke="black" cx="179.89" cy="-493.29" rx="18" ry="18"/>
<text text-anchor="middle" x="179.89" y="-489.59" font-family="Times,serif" font-size="14.00">a</text>
</g>
<!-- aa -->
<g id="node3" class="node">
<title>aa</title>
<ellipse fill="none" stroke="black" cx="275.64" cy="-644.29" rx="21.4" ry="21.4"/>
<text text-anchor="middle" x="275.64" y="-640.59" font-family="Times,serif" font-size="14.00">aa</text>
</g>
<!-- a&#45;&gt;aa -->
<g id="edge4" class="edge">
<title>a&#45;&gt;aa</title>
<path fill="none" stroke="black" d="M190.23,-508.32C206.19,-534.04 238.94,-586.78 258.62,-618.49"/>
<polygon fill="black" stroke="black" points="256.31,-620.41 263.33,-626.06 261.37,-617.27 256.31,-620.41"/>
<text text-anchor="middle" x="225.39" y="-581.09" font-family="Times,serif" font-size="14.00"> a </text>
</g>
<!-- ab -->
<g id="node8" class="node">
<title>ab</title>
<ellipse fill="none" stroke="black" cx="275.64" cy="-493.29" rx="22.2" ry="22.2"/>
<text text-anchor="middle" x="275.64" y="-489.59" font-family="Times,serif" font-size="14.00">ab</text>
</g>
<!-- a&#45;&gt;ab -->
<g id="edge6" class="edge">
<title>a&#45;&gt;ab</title>
<path fill="none" stroke="black" d="M198.09,-493.29C211.08,-493.29 229.24,-493.29 244.61,-493.29"/>
<polygon fill="black" stroke="black" points="244.78,-496.27 253.28,-493.29 244.78,-490.32 244.78,-496.27"/>
<text text-anchor="middle" x="225.39" y="-497.09" font-family="Times,serif" font-size="14.00"> b </text>
</g>
<!-- a&#45;&gt;start -->
<g id="edge5" class="edge">
<title>a&#45;&gt;start</title>
<path fill="none" stroke="black" d="M164.79,-483C150.27,-472.4 127.1,-455.49 107.9,-441.48"/>
<polygon fill="black" stroke="black" points="109.65,-439.08 101.03,-436.47 106.14,-443.88 109.65,-439.08"/>
<text text-anchor="middle" x="134.39" y="-470.09" font-family="Times,serif" font-size="14.00"> a </text>
</g>
<!-- a&#45;&gt;start -->
<g id="edge7" class="edge">
<title>a&#45;&gt;start</title>
<path fill="none" stroke="black" d="M172.69,-476.67C167.06,-463.82 157.54,-446.54 143.89,-436.29 135.57,-430.04 125.31,-425.85 115.27,-423.03"/>
<polygon fill="black" stroke="black" points="115.89,-420.12 106.93,-420.98 114.47,-425.9 115.89,-420.12"/>
<text text-anchor="middle" x="134.39" y="-440.09" font-family="Times,serif" font-size="14.00"> b </text>
</g>
<!-- aa1 -->
<g id="node4" class="node">
<title>aa1</title>
<ellipse fill="none" stroke="black" cx="381.99" cy="-644.29" rx="27.1" ry="27.1"/>
<text text-anchor="middle" x="381.99" y="-640.59" font-family="Times,serif" font-size="14.00">aa1</text>
</g>
<!-- aa&#45;&gt;aa1 -->
<g id="edge12" class="edge">
<title>aa&#45;&gt;aa1</title>
<path fill="none" stroke="black" d="M297.26,-644.29C311.09,-644.29 329.66,-644.29 345.8,-644.29"/>
<polygon fill="black" stroke="black" points="345.97,-647.27 354.47,-644.29 345.97,-641.32 345.97,-647.27"/>
<text text-anchor="middle" x="325.89" y="-648.09" font-family="Times,serif" font-size="14.00"> a </text>
</g>
<!-- aaT1 -->
<g id="node6" class="node">
<title>aaT1</title>
<ellipse fill="none" stroke="black" cx="620.23" cy="-699.29" rx="33.29" ry="33.29"/>
<text text-anchor="middle" x="620.23" y="-695.59" font-family="Times,serif" font-size="14.00">aaT1</text>
</g>
<!-- aa&#45;&gt;aaT1 -->
<g id="edge13" class="edge">
<title>aa&#45;&gt;aaT1</title>
<path fill="none" stroke="black" d="M294.28,-655.17C326.72,-674.45 398.67,-713.84 465.59,-727.29 493.99,-733 502.14,-731.72 530.78,-727.29 547.57,-724.7 565.54,-719.49 580.86,-714.26"/>
<polygon fill="black" stroke="black" points="582.05,-717 589.08,-711.37 580.07,-711.38 582.05,-717"/>
<text text-anchor="middle" x="438.09" y="-726.09" font-family="Times,serif" font-size="14.00"> b </text>
</g>
<!-- aa2 -->
<g id="node5" class="node">
<title>aa2</title>
<ellipse fill="none" stroke="black" cx="498.18" cy="-687.29" rx="27.12" ry="27.12"/>
<ellipse fill="none" stroke="black" cx="498.18" cy="-687.29" rx="31.1" ry="31.1"/>
<text text-anchor="middle" x="498.18" y="-683.59" font-family="Times,serif" font-size="14.00">aa2</text>
</g>
<!-- aa1&#45;&gt;aa2 -->
<g id="edge14" class="edge">
<title>aa1&#45;&gt;aa2</title>
<path fill="none" stroke="black" d="M403.06,-662.03C410.59,-667.78 419.53,-673.62 428.59,-677.29 437.81,-681.04 448.24,-683.41 458.14,-684.9"/>
<polygon fill="black" stroke="black" points="457.83,-687.86 466.65,-686 458.6,-681.96 457.83,-687.86"/>
<text text-anchor="middle" x="438.09" y="-686.09" font-family="Times,serif" font-size="14.00"> a </text>
</g>
<!-- aaT2 -->
<g id="node7" class="node">
<title>aaT2</title>
<ellipse fill="none" stroke="black" cx="744.12" cy="-661.29" rx="33.29" ry="33.29"/>
<text text-anchor="middle" x="744.12" y="-657.59" font-family="Times,serif" font-size="14.00">aaT2</text>
</g>
<!-- aa1&#45;&gt;aaT2 -->
<g id="edge15" class="edge">
<title>aa1&#45;&gt;aaT2</title>
<path fill="none" stroke="black" d="M404.28,-627.79C411.64,-622.79 420.16,-617.71 428.59,-614.29 486.69,-590.72 505.34,-585.55 567.78,-591.29 623.55,-596.43 641.54,-589.33 691.67,-614.29 700.13,-618.5 708.22,-624.52 715.37,-630.85"/>
<polygon fill="black" stroke="black" points="713.41,-633.09 721.66,-636.7 717.47,-628.73 713.41,-633.09"/>
<text text-anchor="middle" x="558.28" y="-595.09" font-family="Times,serif" font-size="14.00"> b </text>
</g>
<!-- aa2&#45;&gt;aa1 -->
<g id="edge16" class="edge">
<title>aa2&#45;&gt;aa1</title>
<path fill="none" stroke="black" d="M471.71,-670.33C464.18,-665.9 455.76,-661.48 447.59,-658.29 438.16,-654.62 427.56,-651.82 417.72,-649.72"/>
<polygon fill="black" stroke="black" points="418.23,-646.79 409.31,-648.06 417.07,-652.63 418.23,-646.79"/>
<text text-anchor="middle" x="438.09" y="-662.09" font-family="Times,serif" font-size="14.00"> a </text>
</g>
<!-- aa2&#45;&gt;aaT1 -->
<g id="edge17" class="edge">
<title>aa2&#45;&gt;aaT1</title>
<path fill="none" stroke="black" d="M529.47,-690.32C544.24,-691.8 562.22,-693.59 578.2,-695.19"/>
<polygon fill="black" stroke="black" points="578.09,-698.17 586.84,-696.06 578.68,-692.25 578.09,-698.17"/>
<text text-anchor="middle" x="558.28" y="-697.09" font-family="Times,serif" font-size="14.00"> b </text>
</g>
<!-- aaT1&#45;&gt;aaT2 -->
<g id="edge18" class="edge">
<title>aaT1&#45;&gt;aaT2</title>
<path fill="none" stroke="black" d="M645.42,-677.29C653.51,-671.26 662.96,-665.5 672.67,-662.29 682.02,-659.21 692.44,-657.96 702.35,-657.71"/>
<polygon fill="black" stroke="black" points="702.38,-660.68 710.88,-657.71 702.39,-654.73 702.38,-660.68"/>
<text text-anchor="middle" x="682.17" y="-666.09" font-family="Times,serif" font-size="14.00"> a </text>
</g>
<!-- aaT1&#45;&gt;aaT2 -->
<g id="edge19" class="edge">
<title>aaT1&#45;&gt;aaT2</title>
<path fill="none" stroke="black" d="M650.08,-713.8C663.12,-718.37 678.53,-720.92 691.67,-715.29 701.9,-710.91 711.06,-703.39 718.72,-695.32"/>
<polygon fill="black" stroke="black" points="721.37,-696.81 724.78,-688.48 716.92,-692.86 721.37,-696.81"/>
<text text-anchor="middle" x="682.17" y="-722.09" font-family="Times,serif" font-size="14.00"> b </text>
</g>
<!-- aaT2&#45;&gt;aa1 -->
<g id="edge20" class="edge">
<title>aaT2&#45;&gt;aa1</title>
<path fill="none" stroke="black" d="M711.06,-656.47C704.65,-655.63 697.96,-654.86 691.67,-654.29 592.82,-645.44 475.54,-644.16 418.16,-644.13"/>
<polygon fill="black" stroke="black" points="417.97,-641.16 409.48,-644.14 417.98,-647.11 417.97,-641.16"/>
<text text-anchor="middle" x="558.28" y="-650.09" font-family="Times,serif" font-size="14.00"> a </text>
</g>
<!-- aaT2&#45;&gt;aaT1 -->
<g id="edge21" class="edge">
<title>aaT2&#45;&gt;aaT1</title>
<path fill="none" stroke="black" d="M712.37,-670.88C696.64,-675.78 677.31,-681.81 660.51,-687.05"/>
<polygon fill="black" stroke="black" points="659.22,-684.33 651.99,-689.7 660.99,-690.01 659.22,-684.33"/>
<text text-anchor="middle" x="682.17" y="-686.09" font-family="Times,serif" font-size="14.00"> b </text>
</g>
<!-- ab1 -->
<g id="node9" class="node">
<title>ab1</title>
<ellipse fill="none" stroke="black" cx="381.99" cy="-465.29" rx="27.9" ry="27.9"/>
<text text-anchor="middle" x="381.99" y="-461.59" font-family="Times,serif" font-size="14.00">ab1</text>
</g>
<!-- ab&#45;&gt;ab1 -->
<g id="edge22" class="edge">
<title>ab&#45;&gt;ab1</title>
<path fill="none" stroke="black" d="M297.26,-487.76C311.32,-483.99 330.28,-478.9 346.6,-474.52"/>
<polygon fill="black" stroke="black" points="347.41,-477.38 354.85,-472.31 345.87,-471.64 347.41,-477.38"/>
<text text-anchor="middle" x="325.89" y="-486.09" font-family="Times,serif" font-size="14.00"> a </text>
</g>
<!-- abT1 -->
<g id="node11" class="node">
<title>abT1</title>
<ellipse fill="none" stroke="black" cx="620.23" cy="-503.29" rx="33.6" ry="33.6"/>
<text text-anchor="middle" x="620.23" y="-499.59" font-family="Times,serif" font-size="14.00">abT1</text>
</g>
<!-- ab&#45;&gt;abT1 -->
<g id="edge23" class="edge">
<title>ab&#45;&gt;abT1</title>
<path fill="none" stroke="black" d="M296.75,-500.85C339.74,-516.05 443.74,-547.65 530.78,-533.29 547.52,-530.53 565.35,-525.02 580.58,-519.46"/>
<polygon fill="black" stroke="black" points="581.85,-522.16 588.75,-516.39 579.75,-516.59 581.85,-522.16"/>
<text text-anchor="middle" x="438.09" y="-538.09" font-family="Times,serif" font-size="14.00"> b </text>
</g>
<!-- ab2 -->
<g id="node10" class="node">
<title>ab2</title>
<ellipse fill="none" stroke="black" cx="498.18" cy="-492.29" rx="27.9" ry="27.9"/>
<ellipse fill="none" stroke="black" cx="498.18" cy="-492.29" rx="31.9" ry="31.9"/>
<text text-anchor="middle" x="498.18" y="-488.59" font-family="Times,serif" font-size="14.00">ab2</text>
</g>
<!-- ab1&#45;&gt;ab2 -->
<g id="edge25" class="edge">
<title>ab1&#45;&gt;ab2</title>
<path fill="none" stroke="black" d="M408.31,-475.08C414.84,-477.35 421.92,-479.6 428.59,-481.29 437.89,-483.65 448.05,-485.61 457.62,-487.18"/>
<polygon fill="black" stroke="black" points="457.35,-490.15 466.21,-488.52 458.27,-484.27 457.35,-490.15"/>
<text text-anchor="middle" x="438.09" y="-489.09" font-family="Times,serif" font-size="14.00"> b </text>
</g>
<!-- abT2 -->
<g id="node12" class="node">
<title>abT2</title>
<ellipse fill="none" stroke="black" cx="744.12" cy="-465.29" rx="33.6" ry="33.6"/>
<text text-anchor="middle" x="744.12" y="-461.59" font-family="Times,serif" font-size="14.00">abT2</text>
</g>
<!-- ab1&#45;&gt;abT2 -->
<g id="edge24" class="edge">
<title>ab1&#45;&gt;abT2</title>
<path fill="none" stroke="black" d="M399.4,-443.15C407.25,-434.09 417.38,-424.34 428.59,-418.29 476.45,-392.47 494.63,-400.43 548.78,-395.29 603.32,-390.12 687.47,-416.2 691.67,-418.29 699.8,-422.34 707.58,-428.04 714.51,-434.1"/>
<polygon fill="black" stroke="black" points="712.89,-436.64 721.16,-440.21 716.92,-432.26 712.89,-436.64"/>
<text text-anchor="middle" x="558.28" y="-399.09" font-family="Times,serif" font-size="14.00"> a </text>
</g>
<!-- ab2&#45;&gt;ab1 -->
<g id="edge26" class="edge">
<title>ab2&#45;&gt;ab1</title>
<path fill="none" stroke="black" d="M472.16,-473.56C464.64,-468.96 456.12,-464.67 447.59,-462.29 438.23,-459.68 427.82,-459.18 418.14,-459.66"/>
<polygon fill="black" stroke="black" points="417.74,-456.71 409.5,-460.34 418.21,-462.64 417.74,-456.71"/>
<text text-anchor="middle" x="438.09" y="-466.09" font-family="Times,serif" font-size="14.00"> a </text>
</g>
<!-- ab2&#45;&gt;abT1 -->
<g id="edge27" class="edge">
<title>ab2&#45;&gt;abT1</title>
<path fill="none" stroke="black" d="M530.1,-495.13C544.63,-496.46 562.18,-498.07 577.84,-499.5"/>
<polygon fill="black" stroke="black" points="577.58,-502.46 586.32,-500.28 578.12,-496.54 577.58,-502.46"/>
<text text-anchor="middle" x="558.28" y="-502.09" font-family="Times,serif" font-size="14.00"> b </text>
</g>
<!-- abT1&#45;&gt;abT2 -->
<g id="edge28" class="edge">
<title>abT1&#45;&gt;abT2</title>
<path fill="none" stroke="black" d="M645.94,-480.91C653.92,-475.01 663.17,-469.43 672.67,-466.29 681.74,-463.3 691.84,-462.04 701.48,-461.73"/>
<polygon fill="black" stroke="black" points="701.69,-464.71 710.17,-461.7 701.66,-458.76 701.69,-464.71"/>
<text text-anchor="middle" x="682.17" y="-470.09" font-family="Times,serif" font-size="14.00"> a </text>
</g>
<!-- abT1&#45;&gt;abT2 -->
<g id="edge29" class="edge">
<title>abT1&#45;&gt;abT2</title>
<path fill="none" stroke="black" d="M650.76,-518.04C663.66,-522.45 678.76,-524.83 691.67,-519.29 701.72,-514.99 710.73,-507.66 718.3,-499.76"/>
<polygon fill="black" stroke="black" points="720.85,-501.36 724.31,-493.05 716.42,-497.4 720.85,-501.36"/>
<text text-anchor="middle" x="682.17" y="-526.09" font-family="Times,serif" font-size="14.00"> b </text>
</g>
<!-- abT2&#45;&gt;ab1 -->
<g id="edge30" class="edge">
<title>abT2&#45;&gt;ab1</title>
<path fill="none" stroke="black" d="M710.51,-460.4C704.27,-459.59 697.78,-458.84 691.67,-458.29 591.54,-449.32 565.97,-445.88 465.59,-451.29 449.07,-452.18 444.91,-452.63 428.59,-455.29 425.08,-455.87 421.43,-456.54 417.8,-457.25"/>
<polygon fill="black" stroke="black" points="417.14,-454.35 409.42,-458.99 418.34,-460.18 417.14,-454.35"/>
<text text-anchor="middle" x="558.28" y="-452.09" font-family="Times,serif" font-size="14.00"> a </text>
</g>
<!-- abT2&#45;&gt;abT1 -->
<g id="edge31" class="edge">
<title>abT2&#45;&gt;abT1</title>
<path fill="none" stroke="black" d="M711.41,-475.18C695.99,-479.99 677.29,-485.81 660.93,-490.92"/>
<polygon fill="black" stroke="black" points="659.85,-488.14 652.62,-493.51 661.62,-493.82 659.85,-488.14"/>
<text text-anchor="middle" x="682.17" y="-490.09" font-family="Times,serif" font-size="14.00"> b </text>
</g>
<!-- b -->
<g id="node13" class="node">
<title>b</title>
<ellipse fill="none" stroke="black" cx="179.89" cy="-341.29" rx="18" ry="18"/>
<text text-anchor="middle" x="179.89" y="-337.59" font-family="Times,serif" font-size="14.00">b</text>
</g>
<!-- ba -->
<g id="node14" class="node">
<title>ba</title>
<ellipse fill="none" stroke="black" cx="275.64" cy="-341.29" rx="22.2" ry="22.2"/>
<text text-anchor="middle" x="275.64" y="-337.59" font-family="Times,serif" font-size="14.00">ba</text>
</g>
<!-- b&#45;&gt;ba -->
<g id="edge9" class="edge">
<title>b&#45;&gt;ba</title>
<path fill="none" stroke="black" d="M198.09,-341.29C211.08,-341.29 229.24,-341.29 244.61,-341.29"/>
<polygon fill="black" stroke="black" points="244.78,-344.27 253.28,-341.29 244.78,-338.32 244.78,-344.27"/>
<text text-anchor="middle" x="225.39" y="-345.09" font-family="Times,serif" font-size="14.00"> a </text>
</g>
<!-- bb -->
<g id="node19" class="node">
<title>bb</title>
<ellipse fill="none" stroke="black" cx="275.64" cy="-160.29" rx="23" ry="23"/>
<text text-anchor="middle" x="275.64" y="-156.59" font-family="Times,serif" font-size="14.00">bb</text>
</g>
<!-- b&#45;&gt;bb -->
<g id="edge10" class="edge">
<title>b&#45;&gt;bb</title>
<path fill="none" stroke="black" d="M189.05,-325.55C204.98,-294.79 240.4,-226.4 260.33,-187.93"/>
<polygon fill="black" stroke="black" points="263.06,-189.12 264.33,-180.2 257.78,-186.38 263.06,-189.12"/>
<text text-anchor="middle" x="225.39" y="-277.09" font-family="Times,serif" font-size="14.00"> b </text>
</g>
<!-- b&#45;&gt;start -->
<g id="edge8" class="edge">
<title>b&#45;&gt;start</title>
<path fill="none" stroke="black" d="M161.75,-343.73C150.55,-345.93 136.01,-349.99 124.89,-357.29 114.67,-364.01 105.43,-373.44 97.75,-382.83"/>
<polygon fill="black" stroke="black" points="95.33,-381.09 92.44,-389.62 100.01,-384.76 95.33,-381.09"/>
<text text-anchor="middle" x="134.39" y="-361.09" font-family="Times,serif" font-size="14.00"> a </text>
</g>
<!-- b&#45;&gt;start -->
<g id="edge11" class="edge">
<title>b&#45;&gt;start</title>
<path fill="none" stroke="black" d="M163.78,-332.86C152.42,-327.74 136.82,-323.4 124.89,-330.29 107.09,-340.58 95.05,-359.85 87.24,-377.65"/>
<polygon fill="black" stroke="black" points="84.41,-376.69 83.94,-385.69 89.92,-378.95 84.41,-376.69"/>
<text text-anchor="middle" x="134.39" y="-334.09" font-family="Times,serif" font-size="14.00"> b </text>
</g>
<!-- ba1 -->
<g id="node15" class="node">
<title>ba1</title>
<ellipse fill="none" stroke="black" cx="381.99" cy="-269.29" rx="27.9" ry="27.9"/>
<text text-anchor="middle" x="381.99" y="-265.59" font-family="Times,serif" font-size="14.00">ba1</text>
</g>
<!-- ba&#45;&gt;ba1 -->
<g id="edge33" class="edge">
<title>ba&#45;&gt;ba1</title>
<path fill="none" stroke="black" d="M294.34,-329.08C309.95,-318.31 333,-302.41 351.4,-289.71"/>
<polygon fill="black" stroke="black" points="353.15,-292.11 358.46,-284.84 349.77,-287.22 353.15,-292.11"/>
<text text-anchor="middle" x="325.89" y="-318.09" font-family="Times,serif" font-size="14.00"> b </text>
</g>
<!-- baT1 -->
<g id="node17" class="node">
<title>baT1</title>
<ellipse fill="none" stroke="black" cx="620.23" cy="-307.29" rx="33.6" ry="33.6"/>
<text text-anchor="middle" x="620.23" y="-303.59" font-family="Times,serif" font-size="14.00">baT1</text>
</g>
<!-- ba&#45;&gt;baT1 -->
<g id="edge32" class="edge">
<title>ba&#45;&gt;baT1</title>
<path fill="none" stroke="black" d="M297.93,-343.17C341.86,-346.55 445.56,-352.04 530.78,-337.29 547.5,-334.4 565.32,-328.86 580.56,-323.32"/>
<polygon fill="black" stroke="black" points="581.82,-326.03 588.73,-320.26 579.73,-320.46 581.82,-326.03"/>
<text text-anchor="middle" x="438.09" y="-351.09" font-family="Times,serif" font-size="14.00"> a </text>
</g>
<!-- ba2 -->
<g id="node16" class="node">
<title>ba2</title>
<ellipse fill="none" stroke="black" cx="498.18" cy="-296.29" rx="27.9" ry="27.9"/>
<ellipse fill="none" stroke="black" cx="498.18" cy="-296.29" rx="31.9" ry="31.9"/>
<text text-anchor="middle" x="498.18" y="-292.59" font-family="Times,serif" font-size="14.00">ba2</text>
</g>
<!-- ba1&#45;&gt;ba2 -->
<g id="edge34" class="edge">
<title>ba1&#45;&gt;ba2</title>
<path fill="none" stroke="black" d="M408.31,-279.08C414.84,-281.35 421.92,-283.6 428.59,-285.29 437.89,-287.65 448.05,-289.61 457.62,-291.18"/>
<polygon fill="black" stroke="black" points="457.35,-294.15 466.21,-292.52 458.27,-288.27 457.35,-294.15"/>
<text text-anchor="middle" x="438.09" y="-294.09" font-family="Times,serif" font-size="14.00"> a </text>
</g>
<!-- baT2 -->
<g id="node18" class="node">
<title>baT2</title>
<ellipse fill="none" stroke="black" cx="744.12" cy="-269.29" rx="33.6" ry="33.6"/>
<text text-anchor="middle" x="744.12" y="-265.59" font-family="Times,serif" font-size="14.00">baT2</text>
</g>
<!-- ba1&#45;&gt;baT2 -->
<g id="edge35" class="edge">
<title>ba1&#45;&gt;baT2</title>
<path fill="none" stroke="black" d="M399.4,-247.15C407.25,-238.09 417.38,-228.34 428.59,-222.29 476.45,-196.47 494.63,-204.43 548.78,-199.29 603.32,-194.12 687.47,-220.2 691.67,-222.29 699.8,-226.34 707.58,-232.04 714.51,-238.1"/>
<polygon fill="black" stroke="black" points="712.89,-240.64 721.16,-244.21 716.92,-236.26 712.89,-240.64"/>
<text text-anchor="middle" x="558.28" y="-203.09" font-family="Times,serif" font-size="14.00"> b </text>
</g>
<!-- ba2&#45;&gt;ba1 -->
<g id="edge37" class="edge">
<title>ba2&#45;&gt;ba1</title>
<path fill="none" stroke="black" d="M472.16,-277.56C464.64,-272.96 456.12,-268.67 447.59,-266.29 438.23,-263.68 427.82,-263.18 418.14,-263.66"/>
<polygon fill="black" stroke="black" points="417.74,-260.71 409.5,-264.34 418.21,-266.64 417.74,-260.71"/>
<text text-anchor="middle" x="438.09" y="-270.09" font-family="Times,serif" font-size="14.00"> b </text>
</g>
<!-- ba2&#45;&gt;baT1 -->
<g id="edge36" class="edge">
<title>ba2&#45;&gt;baT1</title>
<path fill="none" stroke="black" d="M530.1,-299.13C544.63,-300.46 562.18,-302.07 577.84,-303.5"/>
<polygon fill="black" stroke="black" points="577.58,-306.46 586.32,-304.28 578.12,-300.54 577.58,-306.46"/>
<text text-anchor="middle" x="558.28" y="-307.09" font-family="Times,serif" font-size="14.00"> a </text>
</g>
<!-- baT1&#45;&gt;baT2 -->
<g id="edge38" class="edge">
<title>baT1&#45;&gt;baT2</title>
<path fill="none" stroke="black" d="M645.94,-284.91C653.92,-279.01 663.17,-273.43 672.67,-270.29 681.74,-267.3 691.84,-266.04 701.48,-265.73"/>
<polygon fill="black" stroke="black" points="701.69,-268.71 710.17,-265.7 701.66,-262.76 701.69,-268.71"/>
<text text-anchor="middle" x="682.17" y="-274.09" font-family="Times,serif" font-size="14.00"> a </text>
</g>
<!-- baT1&#45;&gt;baT2 -->
<g id="edge39" class="edge">
<title>baT1&#45;&gt;baT2</title>
<path fill="none" stroke="black" d="M650.76,-322.04C663.66,-326.45 678.76,-328.83 691.67,-323.29 701.72,-318.99 710.73,-311.66 718.3,-303.76"/>
<polygon fill="black" stroke="black" points="720.85,-305.36 724.31,-297.05 716.42,-301.4 720.85,-305.36"/>
<text text-anchor="middle" x="682.17" y="-331.09" font-family="Times,serif" font-size="14.00"> b </text>
</g>
<!-- baT2&#45;&gt;ba1 -->
<g id="edge41" class="edge">
<title>baT2&#45;&gt;ba1</title>
<path fill="none" stroke="black" d="M710.2,-265.13C658.21,-259.12 553.91,-249.35 465.59,-255.29 449.96,-256.34 432.87,-258.99 418.31,-261.7"/>
<polygon fill="black" stroke="black" points="417.39,-258.84 409.61,-263.38 418.52,-264.69 417.39,-258.84"/>
<text text-anchor="middle" x="558.28" y="-258.09" font-family="Times,serif" font-size="14.00"> b </text>
</g>
<!-- baT2&#45;&gt;baT1 -->
<g id="edge40" class="edge">
<title>baT2&#45;&gt;baT1</title>
<path fill="none" stroke="black" d="M711.41,-279.18C695.99,-283.99 677.29,-289.81 660.93,-294.92"/>
<polygon fill="black" stroke="black" points="659.85,-292.14 652.62,-297.51 661.62,-297.82 659.85,-292.14"/>
<text text-anchor="middle" x="682.17" y="-295.09" font-family="Times,serif" font-size="14.00"> a </text>
</g>
<!-- bb1 -->
<g id="node20" class="node">
<title>bb1</title>
<ellipse fill="none" stroke="black" cx="381.99" cy="-71.29" rx="28.7" ry="28.7"/>
<text text-anchor="middle" x="381.99" y="-67.59" font-family="Times,serif" font-size="14.00">bb1</text>
</g>
<!-- bb&#45;&gt;bb1 -->
<g id="edge43" class="edge">
<title>bb&#45;&gt;bb1</title>
<path fill="none" stroke="black" d="M293.41,-145.99C309.42,-132.34 333.84,-111.5 352.84,-95.3"/>
<polygon fill="black" stroke="black" points="355.03,-97.34 359.56,-89.57 351.17,-92.82 355.03,-97.34"/>
<text text-anchor="middle" x="325.89" y="-131.09" font-family="Times,serif" font-size="14.00"> b </text>
</g>
<!-- bbT1 -->
<g id="node22" class="node">
<title>bbT1</title>
<ellipse fill="none" stroke="black" cx="620.23" cy="-109.29" rx="34.39" ry="34.39"/>
<text text-anchor="middle" x="620.23" y="-105.59" font-family="Times,serif" font-size="14.00">bbT1</text>
</g>
<!-- bb&#45;&gt;bbT1 -->
<g id="edge42" class="edge">
<title>bb&#45;&gt;bbT1</title>
<path fill="none" stroke="black" d="M298.68,-160.65C343.12,-160.92 446.41,-159.35 530.78,-141.29 547.35,-137.75 565.02,-131.82 580.18,-126.02"/>
<polygon fill="black" stroke="black" points="581.49,-128.7 588.32,-122.83 579.32,-123.16 581.49,-128.7"/>
<text text-anchor="middle" x="438.09" y="-160.09" font-family="Times,serif" font-size="14.00"> a </text>
</g>
<!-- bb2 -->
<g id="node21" class="node">
<title>bb2</title>
<ellipse fill="none" stroke="black" cx="498.18" cy="-99.29" rx="28.68" ry="28.68"/>
<ellipse fill="none" stroke="black" cx="498.18" cy="-99.29" rx="32.7" ry="32.7"/>
<text text-anchor="middle" x="498.18" y="-95.59" font-family="Times,serif" font-size="14.00">bb2</text>
</g>
<!-- bb1&#45;&gt;bb2 -->
<g id="edge45" class="edge">
<title>bb1&#45;&gt;bb2</title>
<path fill="none" stroke="black" d="M409.28,-81.34C415.55,-83.51 422.25,-85.64 428.59,-87.29 437.81,-89.7 447.86,-91.76 457.35,-93.47"/>
<polygon fill="black" stroke="black" points="456.99,-96.42 465.87,-94.93 458,-90.56 456.99,-96.42"/>
<text text-anchor="middle" x="438.09" y="-96.09" font-family="Times,serif" font-size="14.00"> b </text>
</g>
<!-- bbT2 -->
<g id="node23" class="node">
<title>bbT2</title>
<ellipse fill="none" stroke="black" cx="744.12" cy="-71.29" rx="34.39" ry="34.39"/>
<text text-anchor="middle" x="744.12" y="-67.59" font-family="Times,serif" font-size="14.00">bbT2</text>
</g>
<!-- bb1&#45;&gt;bbT2 -->
<g id="edge44" class="edge">
<title>bb1&#45;&gt;bbT2</title>
<path fill="none" stroke="black" d="M399.82,-48.66C407.61,-39.74 417.58,-30.23 428.59,-24.29 476.45,1.53 494.63,-6.43 548.78,-1.29 603.32,3.88 687.47,-22.2 691.67,-24.29 699.63,-28.26 707.26,-33.82 714.1,-39.73"/>
<polygon fill="black" stroke="black" points="712.37,-42.18 720.65,-45.72 716.38,-37.79 712.37,-42.18"/>
<text text-anchor="middle" x="558.28" y="-5.09" font-family="Times,serif" font-size="14.00"> a </text>
</g>
<!-- bb2&#45;&gt;bb1 -->
<g id="edge47" class="edge">
<title>bb2&#45;&gt;bb1</title>
<path fill="none" stroke="black" d="M471.98,-79.78C464.53,-75.09 456.08,-70.73 447.59,-68.29 438.41,-65.66 428.21,-65.11 418.68,-65.54"/>
<polygon fill="black" stroke="black" points="418.4,-62.58 410.15,-66.19 418.85,-68.51 418.4,-62.58"/>
<text text-anchor="middle" x="438.09" y="-72.09" font-family="Times,serif" font-size="14.00"> b </text>
</g>
<!-- bb2&#45;&gt;bbT1 -->
<g id="edge46" class="edge">
<title>bb2&#45;&gt;bbT1</title>
<path fill="none" stroke="black" d="M530.72,-101.92C544.89,-103.1 561.82,-104.51 577.05,-105.78"/>
<polygon fill="black" stroke="black" points="577.08,-108.77 585.8,-106.51 577.57,-102.84 577.08,-108.77"/>
<text text-anchor="middle" x="558.28" y="-109.09" font-family="Times,serif" font-size="14.00"> a </text>
</g>
<!-- bbT1&#45;&gt;bbT2 -->
<g id="edge48" class="edge">
<title>bbT1&#45;&gt;bbT2</title>
<path fill="none" stroke="black" d="M646.47,-86.52C654.32,-80.77 663.38,-75.36 672.67,-72.29 681.66,-69.33 691.64,-68.06 701.2,-67.74"/>
<polygon fill="black" stroke="black" points="701.34,-70.72 709.82,-67.69 701.3,-64.77 701.34,-70.72"/>
<text text-anchor="middle" x="682.17" y="-76.09" font-family="Times,serif" font-size="14.00"> a </text>
</g>
<!-- bbT1&#45;&gt;bbT2 -->
<g id="edge49" class="edge">
<title>bbT1&#45;&gt;bbT2</title>
<path fill="none" stroke="black" d="M651.46,-124.27C664.2,-128.54 678.99,-130.73 691.67,-125.29 701.62,-121.03 710.56,-113.79 718.09,-105.98"/>
<polygon fill="black" stroke="black" points="720.59,-107.64 724.07,-99.33 716.17,-103.66 720.59,-107.64"/>
<text text-anchor="middle" x="682.17" y="-133.09" font-family="Times,serif" font-size="14.00"> b </text>
</g>
<!-- bbT2&#45;&gt;bb1 -->
<g id="edge51" class="edge">
<title>bbT2&#45;&gt;bb1</title>
<path fill="none" stroke="black" d="M709.78,-67.08C657.64,-61.07 553.67,-51.37 465.59,-57.29 450.08,-58.34 433.14,-60.95 418.65,-63.63"/>
<polygon fill="black" stroke="black" points="417.76,-60.77 409.98,-65.3 418.89,-66.62 417.76,-60.77"/>
<text text-anchor="middle" x="558.28" y="-60.09" font-family="Times,serif" font-size="14.00"> b </text>
</g>
<!-- bbT2&#45;&gt;bbT1 -->
<g id="edge50" class="edge">
<title>bbT2&#45;&gt;bbT1</title>
<path fill="none" stroke="black" d="M710.89,-81.34C695.72,-86.07 677.48,-91.76 661.42,-96.76"/>
<polygon fill="black" stroke="black" points="660.48,-93.94 653.25,-99.31 662.25,-99.62 660.48,-93.94"/>
<text text-anchor="middle" x="682.17" y="-97.09" font-family="Times,serif" font-size="14.00"> a </text>
</g>
<!-- start&#45;&gt;a -->
<g id="edge2" class="edge">
<title>start&#45;&gt;a</title>
<path fill="none" stroke="black" d="M87.54,-447.68C95.79,-463.25 108.14,-480.87 124.89,-490.29 133.33,-495.04 143.72,-496.45 153.14,-496.44"/>
<polygon fill="black" stroke="black" points="153.4,-499.4 161.76,-496.06 153.14,-493.46 153.4,-499.4"/>
<text text-anchor="middle" x="134.39" y="-499.09" font-family="Times,serif" font-size="14.00"> a </text>
</g>
<!-- start&#45;&gt;b -->
<g id="edge3" class="edge">
<title>start&#45;&gt;b</title>
<path fill="none" stroke="black" d="M103.71,-402.26C116.51,-395.09 131.44,-385.97 143.89,-376.29 149.94,-371.6 156.02,-365.93 161.38,-360.53"/>
<polygon fill="black" stroke="black" points="163.53,-362.59 167.29,-354.4 159.25,-358.46 163.53,-362.59"/>
<text text-anchor="middle" x="134.39" y="-392.09" font-family="Times,serif" font-size="14.00"> b </text>
</g>
</g>
</svg>
