<?xml version="1.0" encoding="UTF-8" standalone="no"?>
<!DOCTYPE svg PUBLIC "-//W3C//DTD SVG 1.1//EN" "http://www.w3.org/Graphics/SVG/1.1/DTD/svg11.dtd">
<!-- Generated by graphviz version 2.43.0 (0)
 -->
<!-- Title: %3 Pages: 1 -->
<svg width="388pt" height="576pt" viewBox="0.00 0.00 388.46 576.00" xmlns="http://www.w3.org/2000/svg"
    xmlns:xlink="http://www.w3.org/1999/xlink">
    <g id="graph0" class="graph" transform="scale(0.72 0.72) rotate(0) translate(4 794.9)">
        <title>%3</title>
        <polygon fill="white" stroke="transparent" points="-4,4 -4,-794.9 534.78,-794.9 534.78,4 -4,4" />
        <!-- Initial -->
        <g id="node1" class="node">
            <title>Initial</title>
            <ellipse fill="black" stroke="black" cx="1.8" cy="-351.6" rx="1.8" ry="1.8" />
        </g>
        <!-- start -->
        <g id="node20" class="node">
            <title>start</title>
            <ellipse fill="none" stroke="black" cx="73.75" cy="-351.6" rx="33.29" ry="33.29" />
            <text text-anchor="middle" x="73.75" y="-347.9" font-family="Times,serif" font-size="14.00">start</text>
        </g>
        <!-- Initial&#45;&gt;start -->
        <g id="edge1" class="edge">
            <title>Initial&#45;&gt;start</title>
            <path fill="none" stroke="black" d="M3.79,-351.6C7.19,-351.6 18.93,-351.6 31.79,-351.6" />
            <polygon fill="black" stroke="black" points="31.82,-354.57 40.32,-351.6 31.82,-348.62 31.82,-354.57" />
        </g>
        <!-- a -->
        <g id="node2" class="node">
            <title>a</title>
            <ellipse fill="none" stroke="black" cx="179.89" cy="-446.6" rx="18" ry="18" />
            <text text-anchor="middle" x="179.89" y="-442.9" font-family="Times,serif" font-size="14.00">a</text>
        </g>
        <!-- aa -->
        <g id="node3" class="node">
            <title>aa</title>
            <ellipse fill="none" stroke="black" cx="275.64" cy="-617.6" rx="21.4" ry="21.4" />
            <text text-anchor="middle" x="275.64" y="-613.9" font-family="Times,serif" font-size="14.00">aa</text>
        </g>
        <!-- a&#45;&gt;aa -->
        <g id="edge4" class="edge">
            <title>a&#45;&gt;aa</title>
            <path fill="none" stroke="black" d="M189.38,-462.07C205.47,-491.42 240.57,-555.46 260.35,-591.54" />
            <polygon fill="black" stroke="black" points="257.87,-593.19 264.56,-599.22 263.09,-590.33 257.87,-593.19" />
            <text text-anchor="middle" x="225.39" y="-545.4" font-family="Times,serif" font-size="14.00"> a </text>
        </g>
        <!-- ab -->
        <g id="node7" class="node">
            <title>ab</title>
            <ellipse fill="none" stroke="black" cx="275.64" cy="-446.6" rx="22.2" ry="22.2" />
            <text text-anchor="middle" x="275.64" y="-442.9" font-family="Times,serif" font-size="14.00">ab</text>
        </g>
        <!-- a&#45;&gt;ab -->
        <g id="edge5" class="edge">
            <title>a&#45;&gt;ab</title>
            <path fill="none" stroke="black" d="M198.09,-446.6C211.08,-446.6 229.24,-446.6 244.61,-446.6" />
            <polygon fill="black" stroke="black" points="244.78,-449.57 253.28,-446.6 244.78,-443.62 244.78,-449.57" />
            <text text-anchor="middle" x="225.39" y="-450.4" font-family="Times,serif" font-size="14.00"> b </text>
        </g>
        <!-- aa1 -->
        <g id="node4" class="node">
            <title>aa1</title>
            <ellipse fill="none" stroke="black" cx="381.99" cy="-693.6" rx="27.1" ry="27.1" />
            <text text-anchor="middle" x="381.99" y="-689.9" font-family="Times,serif" font-size="14.00">aa1</text>
        </g>
        <!-- aa&#45;&gt;aa1 -->
        <g id="edge8" class="edge">
            <title>aa&#45;&gt;aa1</title>
            <path fill="none" stroke="black"
                d="M281.79,-638.19C287.27,-655.41 297.8,-678.96 316.39,-690.6 325.15,-696.08 335.96,-698.01 346.21,-698.23" />
            <polygon fill="black" stroke="black" points="346.59,-701.2 355.02,-698.03 346.45,-695.25 346.59,-701.2" />
            <text text-anchor="middle" x="325.89" y="-700.4" font-family="Times,serif" font-size="14.00"> a </text>
        </g>
        <!-- aaT -->
        <g id="node6" class="node">
            <title>aaT</title>
            <ellipse fill="none" stroke="black" cx="381.99" cy="-598.6" rx="27.1" ry="27.1" />
            <text text-anchor="middle" x="381.99" y="-594.9" font-family="Times,serif" font-size="14.00">aaT</text>
        </g>
        <!-- aa&#45;&gt;aaT -->
        <g id="edge9" class="edge">
            <title>aa&#45;&gt;aaT</title>
            <path fill="none" stroke="black"
                d="M297.21,-617.98C308.56,-617.83 322.86,-617.06 335.39,-614.6 339.5,-613.79 343.73,-612.69 347.89,-611.44" />
            <polygon fill="black" stroke="black" points="349.1,-614.18 356.26,-608.72 347.26,-608.52 349.1,-614.18" />
            <text text-anchor="middle" x="325.89" y="-620.4" font-family="Times,serif" font-size="14.00"> b </text>
        </g>
        <!-- aa1&#45;&gt;aa -->
        <g id="edge17" class="edge">
            <title>aa1&#45;&gt;aa</title>
            <path fill="none" stroke="black" d="M359.56,-677.99C342.42,-665.51 318.39,-648 300.61,-635.05" />
            <polygon fill="black" stroke="black" points="302.03,-632.41 293.41,-629.81 298.53,-637.22 302.03,-632.41" />
            <text text-anchor="middle" x="325.89" y="-663.4" font-family="Times,serif" font-size="14.00"> b </text>
        </g>
        <!-- aa2 -->
        <g id="node5" class="node">
            <title>aa2</title>
            <ellipse fill="none" stroke="black" cx="498.18" cy="-693.6" rx="27.12" ry="27.12" />
            <ellipse fill="none" stroke="black" cx="498.18" cy="-693.6" rx="31.1" ry="31.1" />
            <text text-anchor="middle" x="498.18" y="-689.9" font-family="Times,serif" font-size="14.00">aa2</text>
        </g>
        <!-- aa1&#45;&gt;aa2 -->
        <g id="edge16" class="edge">
            <title>aa1&#45;&gt;aa2</title>
            <path fill="none" stroke="black" d="M409.47,-693.6C423.93,-693.6 442.1,-693.6 458.15,-693.6" />
            <polygon fill="black" stroke="black" points="458.31,-696.57 466.81,-693.6 458.31,-690.62 458.31,-696.57" />
            <text text-anchor="middle" x="438.09" y="-697.4" font-family="Times,serif" font-size="14.00"> a </text>
        </g>
        <!-- aa2&#45;&gt;aa2 -->
        <g id="edge18" class="edge">
            <title>aa2&#45;&gt;aa2</title>
            <path fill="none" stroke="black"
                d="M492.56,-724.41C492.56,-734.68 494.43,-742.9 498.18,-742.9 500.76,-742.9 502.45,-739.01 503.26,-733.25" />
            <polygon fill="black" stroke="black" points="506.25,-733.08 503.81,-724.41 500.31,-732.71 506.25,-733.08" />
            <text text-anchor="middle" x="498.18" y="-746.7" font-family="Times,serif" font-size="14.00"> a </text>
        </g>
        <!-- aa2&#45;&gt;aa2 -->
        <g id="edge19" class="edge">
            <title>aa2&#45;&gt;aa2</title>
            <path fill="none" stroke="black"
                d="M487.82,-723.35C485.12,-742.48 488.57,-760.9 498.18,-760.9 506.29,-760.9 510.02,-747.79 509.36,-732.2" />
            <polygon fill="black" stroke="black" points="512.29,-731.54 508.54,-723.35 506.36,-732.09 512.29,-731.54" />
            <text text-anchor="middle" x="498.18" y="-764.7" font-family="Times,serif" font-size="14.00"> b </text>
        </g>
        <!-- aaT&#45;&gt;aa -->
        <g id="edge32" class="edge">
            <title>aaT&#45;&gt;aa</title>
            <path fill="none" stroke="black"
                d="M354.85,-593.9C342.95,-592.64 328.78,-592.4 316.39,-595.6 311.3,-596.91 306.17,-599.03 301.36,-601.45" />
            <polygon fill="black" stroke="black" points="299.65,-599 293.64,-605.71 302.52,-604.21 299.65,-599" />
            <text text-anchor="middle" x="325.89" y="-599.4" font-family="Times,serif" font-size="14.00"> a </text>
        </g>
        <!-- aaT&#45;&gt;aa -->
        <g id="edge33" class="edge">
            <title>aaT&#45;&gt;aa</title>
            <path fill="none" stroke="black"
                d="M360.12,-581.96C347.36,-573.9 330.79,-567.2 316.39,-573.6 307.17,-577.69 299.18,-585.1 292.84,-592.69" />
            <polygon fill="black" stroke="black" points="290.33,-591.07 287.48,-599.61 295.04,-594.71 290.33,-591.07" />
            <text text-anchor="middle" x="325.89" y="-577.4" font-family="Times,serif" font-size="14.00"> b </text>
        </g>
        <!-- ab1 -->
        <g id="node8" class="node">
            <title>ab1</title>
            <ellipse fill="none" stroke="black" cx="381.99" cy="-503.6" rx="27.9" ry="27.9" />
            <text text-anchor="middle" x="381.99" y="-499.9" font-family="Times,serif" font-size="14.00">ab1</text>
        </g>
        <!-- ab&#45;&gt;ab1 -->
        <g id="edge10" class="edge">
            <title>ab&#45;&gt;ab1</title>
            <path fill="none" stroke="black"
                d="M285.6,-466.42C292.24,-478.57 302.53,-493.18 316.39,-500.6 325.19,-505.31 335.68,-507.11 345.61,-507.45" />
            <polygon fill="black" stroke="black" points="345.66,-510.43 354.15,-507.41 345.63,-504.48 345.66,-510.43" />
            <text text-anchor="middle" x="325.89" y="-509.4" font-family="Times,serif" font-size="14.00"> a </text>
        </g>
        <!-- abT -->
        <g id="node10" class="node">
            <title>abT</title>
            <ellipse fill="none" stroke="black" cx="381.99" cy="-408.6" rx="27.9" ry="27.9" />
            <text text-anchor="middle" x="381.99" y="-404.9" font-family="Times,serif" font-size="14.00">abT</text>
        </g>
        <!-- ab&#45;&gt;abT -->
        <g id="edge11" class="edge">
            <title>ab&#45;&gt;abT</title>
            <path fill="none" stroke="black" d="M296.76,-439.27C310.98,-434.09 330.39,-427.02 346.99,-420.98" />
            <polygon fill="black" stroke="black" points="348.41,-423.63 355.38,-417.92 346.37,-418.04 348.41,-423.63" />
            <text text-anchor="middle" x="325.89" y="-435.4" font-family="Times,serif" font-size="14.00"> b </text>
        </g>
        <!-- ab1&#45;&gt;ab -->
        <g id="edge20" class="edge">
            <title>ab1&#45;&gt;ab</title>
            <path fill="none" stroke="black" d="M356.99,-490.49C340.87,-481.68 319.62,-470.08 303.03,-461.01" />
            <polygon fill="black" stroke="black" points="304.18,-458.25 295.3,-456.79 301.33,-463.47 304.18,-458.25" />
            <text text-anchor="middle" x="325.89" y="-481.4" font-family="Times,serif" font-size="14.00"> a </text>
        </g>
        <!-- ab2 -->
        <g id="node9" class="node">
            <title>ab2</title>
            <ellipse fill="none" stroke="black" cx="498.18" cy="-503.6" rx="27.9" ry="27.9" />
            <ellipse fill="none" stroke="black" cx="498.18" cy="-503.6" rx="31.9" ry="31.9" />
            <text text-anchor="middle" x="498.18" y="-499.9" font-family="Times,serif" font-size="14.00">ab2</text>
        </g>
        <!-- ab1&#45;&gt;ab2 -->
        <g id="edge21" class="edge">
            <title>ab1&#45;&gt;ab2</title>
            <path fill="none" stroke="black" d="M410.05,-503.6C424.05,-503.6 441.43,-503.6 456.97,-503.6" />
            <polygon fill="black" stroke="black" points="457.37,-506.57 465.87,-503.6 457.37,-500.62 457.37,-506.57" />
            <text text-anchor="middle" x="438.09" y="-507.4" font-family="Times,serif" font-size="14.00"> b </text>
        </g>
        <!-- ab2&#45;&gt;ab2 -->
        <g id="edge22" class="edge">
            <title>ab2&#45;&gt;ab2</title>
            <path fill="none" stroke="black"
                d="M492.56,-535.3C492.62,-545.48 494.49,-553.54 498.18,-553.54 500.72,-553.54 502.4,-549.73 503.22,-544.04" />
            <polygon fill="black" stroke="black" points="506.21,-543.98 503.81,-535.3 500.27,-543.58 506.21,-543.98" />
            <text text-anchor="middle" x="498.18" y="-557.34" font-family="Times,serif" font-size="14.00"> a </text>
        </g>
        <!-- ab2&#45;&gt;ab2 -->
        <g id="edge23" class="edge">
            <title>ab2&#45;&gt;ab2</title>
            <path fill="none" stroke="black"
                d="M487.77,-533.99C485.16,-553.18 488.63,-571.54 498.18,-571.54 506.24,-571.54 509.97,-558.47 509.37,-542.86" />
            <polygon fill="black" stroke="black" points="512.3,-542.2 508.59,-533.99 506.37,-542.72 512.3,-542.2" />
            <text text-anchor="middle" x="498.18" y="-575.34" font-family="Times,serif" font-size="14.00"> b </text>
        </g>
        <!-- abT&#45;&gt;ab -->
        <g id="edge34" class="edge">
            <title>abT&#45;&gt;ab</title>
            <path fill="none" stroke="black"
                d="M354.61,-402.29C342.52,-400.66 328.28,-400.56 316.39,-405.6 308.04,-409.13 300.58,-415.38 294.44,-421.95" />
            <polygon fill="black" stroke="black" points="292.06,-420.15 288.76,-428.53 296.56,-424.04 292.06,-420.15" />
            <text text-anchor="middle" x="325.89" y="-409.4" font-family="Times,serif" font-size="14.00"> a </text>
        </g>
        <!-- abT&#45;&gt;ab -->
        <g id="edge35" class="edge">
            <title>abT&#45;&gt;ab</title>
            <path fill="none" stroke="black"
                d="M360.35,-390.41C347.38,-381.29 330.49,-373.69 316.39,-381.6 302.63,-389.31 293.07,-403.94 286.77,-417.37" />
            <polygon fill="black" stroke="black" points="283.9,-416.52 283.27,-425.51 289.36,-418.88 283.9,-416.52" />
            <text text-anchor="middle" x="325.89" y="-385.4" font-family="Times,serif" font-size="14.00"> b </text>
        </g>
        <!-- b -->
        <g id="node11" class="node">
            <title>b</title>
            <ellipse fill="none" stroke="black" cx="179.89" cy="-256.6" rx="18" ry="18" />
            <text text-anchor="middle" x="179.89" y="-252.9" font-family="Times,serif" font-size="14.00">b</text>
        </g>
        <!-- ba -->
        <g id="node12" class="node">
            <title>ba</title>
            <ellipse fill="none" stroke="black" cx="275.64" cy="-256.6" rx="22.2" ry="22.2" />
            <text text-anchor="middle" x="275.64" y="-252.9" font-family="Times,serif" font-size="14.00">ba</text>
        </g>
        <!-- b&#45;&gt;ba -->
        <g id="edge6" class="edge">
            <title>b&#45;&gt;ba</title>
            <path fill="none" stroke="black" d="M198.09,-256.6C211.08,-256.6 229.24,-256.6 244.61,-256.6" />
            <polygon fill="black" stroke="black" points="244.78,-259.57 253.28,-256.6 244.78,-253.62 244.78,-259.57" />
            <text text-anchor="middle" x="225.39" y="-260.4" font-family="Times,serif" font-size="14.00"> a </text>
        </g>
        <!-- bb -->
        <g id="node16" class="node">
            <title>bb</title>
            <ellipse fill="none" stroke="black" cx="275.64" cy="-85.6" rx="23" ry="23" />
            <text text-anchor="middle" x="275.64" y="-81.9" font-family="Times,serif" font-size="14.00">bb</text>
        </g>
        <!-- b&#45;&gt;bb -->
        <g id="edge7" class="edge">
            <title>b&#45;&gt;bb</title>
            <path fill="none" stroke="black" d="M189.38,-241.12C205.26,-212.15 239.66,-149.4 259.57,-113.08" />
            <polygon fill="black" stroke="black" points="262.35,-114.2 263.83,-105.32 257.13,-111.34 262.35,-114.2" />
            <text text-anchor="middle" x="225.39" y="-194.4" font-family="Times,serif" font-size="14.00"> b </text>
        </g>
        <!-- ba1 -->
        <g id="node13" class="node">
            <title>ba1</title>
            <ellipse fill="none" stroke="black" cx="381.99" cy="-313.6" rx="27.9" ry="27.9" />
            <text text-anchor="middle" x="381.99" y="-309.9" font-family="Times,serif" font-size="14.00">ba1</text>
        </g>
        <!-- ba&#45;&gt;ba1 -->
        <g id="edge13" class="edge">
            <title>ba&#45;&gt;ba1</title>
            <path fill="none" stroke="black"
                d="M285.6,-276.42C292.24,-288.57 302.53,-303.18 316.39,-310.6 325.19,-315.31 335.68,-317.11 345.61,-317.45" />
            <polygon fill="black" stroke="black" points="345.66,-320.43 354.15,-317.41 345.63,-314.48 345.66,-320.43" />
            <text text-anchor="middle" x="325.89" y="-319.4" font-family="Times,serif" font-size="14.00"> b </text>
        </g>
        <!-- baT -->
        <g id="node15" class="node">
            <title>baT</title>
            <ellipse fill="none" stroke="black" cx="381.99" cy="-218.6" rx="27.9" ry="27.9" />
            <text text-anchor="middle" x="381.99" y="-214.9" font-family="Times,serif" font-size="14.00">baT</text>
        </g>
        <!-- ba&#45;&gt;baT -->
        <g id="edge12" class="edge">
            <title>ba&#45;&gt;baT</title>
            <path fill="none" stroke="black" d="M296.76,-249.27C310.98,-244.09 330.39,-237.02 346.99,-230.98" />
            <polygon fill="black" stroke="black" points="348.41,-233.63 355.38,-227.92 346.37,-228.04 348.41,-233.63" />
            <text text-anchor="middle" x="325.89" y="-245.4" font-family="Times,serif" font-size="14.00"> a </text>
        </g>
        <!-- ba1&#45;&gt;ba -->
        <g id="edge25" class="edge">
            <title>ba1&#45;&gt;ba</title>
            <path fill="none" stroke="black" d="M356.99,-300.49C340.87,-291.68 319.62,-280.08 303.03,-271.01" />
            <polygon fill="black" stroke="black" points="304.18,-268.25 295.3,-266.79 301.33,-273.47 304.18,-268.25" />
            <text text-anchor="middle" x="325.89" y="-291.4" font-family="Times,serif" font-size="14.00"> b </text>
        </g>
        <!-- ba2 -->
        <g id="node14" class="node">
            <title>ba2</title>
            <ellipse fill="none" stroke="black" cx="498.18" cy="-313.6" rx="27.9" ry="27.9" />
            <ellipse fill="none" stroke="black" cx="498.18" cy="-313.6" rx="31.9" ry="31.9" />
            <text text-anchor="middle" x="498.18" y="-309.9" font-family="Times,serif" font-size="14.00">ba2</text>
        </g>
        <!-- ba1&#45;&gt;ba2 -->
        <g id="edge24" class="edge">
            <title>ba1&#45;&gt;ba2</title>
            <path fill="none" stroke="black" d="M410.05,-313.6C424.05,-313.6 441.43,-313.6 456.97,-313.6" />
            <polygon fill="black" stroke="black" points="457.37,-316.57 465.87,-313.6 457.37,-310.62 457.37,-316.57" />
            <text text-anchor="middle" x="438.09" y="-317.4" font-family="Times,serif" font-size="14.00"> a </text>
        </g>
        <!-- ba2&#45;&gt;ba2 -->
        <g id="edge26" class="edge">
            <title>ba2&#45;&gt;ba2</title>
            <path fill="none" stroke="black"
                d="M492.56,-345.3C492.62,-355.48 494.49,-363.54 498.18,-363.54 500.72,-363.54 502.4,-359.73 503.22,-354.04" />
            <polygon fill="black" stroke="black" points="506.21,-353.98 503.81,-345.3 500.27,-353.58 506.21,-353.98" />
            <text text-anchor="middle" x="498.18" y="-367.34" font-family="Times,serif" font-size="14.00"> a </text>
        </g>
        <!-- ba2&#45;&gt;ba2 -->
        <g id="edge27" class="edge">
            <title>ba2&#45;&gt;ba2</title>
            <path fill="none" stroke="black"
                d="M487.77,-343.99C485.16,-363.18 488.63,-381.54 498.18,-381.54 506.24,-381.54 509.97,-368.47 509.37,-352.86" />
            <polygon fill="black" stroke="black" points="512.3,-352.2 508.59,-343.99 506.37,-352.72 512.3,-352.2" />
            <text text-anchor="middle" x="498.18" y="-385.34" font-family="Times,serif" font-size="14.00"> b </text>
        </g>
        <!-- baT&#45;&gt;ba -->
        <g id="edge36" class="edge">
            <title>baT&#45;&gt;ba</title>
            <path fill="none" stroke="black"
                d="M354.61,-212.29C342.52,-210.66 328.28,-210.56 316.39,-215.6 308.04,-219.13 300.58,-225.38 294.44,-231.95" />
            <polygon fill="black" stroke="black" points="292.06,-230.15 288.76,-238.53 296.56,-234.04 292.06,-230.15" />
            <text text-anchor="middle" x="325.89" y="-219.4" font-family="Times,serif" font-size="14.00"> a </text>
        </g>
        <!-- baT&#45;&gt;ba -->
        <g id="edge37" class="edge">
            <title>baT&#45;&gt;ba</title>
            <path fill="none" stroke="black"
                d="M360.35,-200.41C347.38,-191.29 330.49,-183.69 316.39,-191.6 302.63,-199.31 293.07,-213.94 286.77,-227.37" />
            <polygon fill="black" stroke="black" points="283.9,-226.52 283.27,-235.51 289.36,-228.88 283.9,-226.52" />
            <text text-anchor="middle" x="325.89" y="-195.4" font-family="Times,serif" font-size="14.00"> b </text>
        </g>
        <!-- bb1 -->
        <g id="node17" class="node">
            <title>bb1</title>
            <ellipse fill="none" stroke="black" cx="381.99" cy="-123.6" rx="28.7" ry="28.7" />
            <text text-anchor="middle" x="381.99" y="-119.9" font-family="Times,serif" font-size="14.00">bb1</text>
        </g>
        <!-- bb&#45;&gt;bb1 -->
        <g id="edge15" class="edge">
            <title>bb&#45;&gt;bb1</title>
            <path fill="none" stroke="black"
                d="M291.16,-102.7C298.04,-109.56 306.84,-116.74 316.39,-120.6 325.24,-124.17 335.33,-125.71 344.86,-126.16" />
            <polygon fill="black" stroke="black" points="344.86,-129.13 353.41,-126.3 344.96,-123.18 344.86,-129.13" />
            <text text-anchor="middle" x="325.89" y="-128.4" font-family="Times,serif" font-size="14.00"> b </text>
        </g>
        <!-- bbT -->
        <g id="node19" class="node">
            <title>bbT</title>
            <ellipse fill="none" stroke="black" cx="381.99" cy="-28.6" rx="28.7" ry="28.7" />
            <text text-anchor="middle" x="381.99" y="-24.9" font-family="Times,serif" font-size="14.00">bbT</text>
        </g>
        <!-- bb&#45;&gt;bbT -->
        <g id="edge14" class="edge">
            <title>bb&#45;&gt;bbT</title>
            <path fill="none" stroke="black" d="M296.27,-74.88C311.01,-66.82 331.53,-55.61 348.68,-46.24" />
            <polygon fill="black" stroke="black" points="350.26,-48.77 356.29,-42.09 347.41,-43.55 350.26,-48.77" />
            <text text-anchor="middle" x="325.89" y="-68.4" font-family="Times,serif" font-size="14.00"> a </text>
        </g>
        <!-- bb1&#45;&gt;bb -->
        <g id="edge28" class="edge">
            <title>bb1&#45;&gt;bb</title>
            <path fill="none" stroke="black"
                d="M356.26,-110.65C349.59,-107.44 342.31,-104.18 335.39,-101.6 326.14,-98.14 315.82,-95.08 306.44,-92.58" />
            <polygon fill="black" stroke="black" points="307.12,-89.68 298.15,-90.45 305.64,-95.44 307.12,-89.68" />
            <text text-anchor="middle" x="325.89" y="-105.4" font-family="Times,serif" font-size="14.00"> a </text>
        </g>
        <!-- bb2 -->
        <g id="node18" class="node">
            <title>bb2</title>
            <ellipse fill="none" stroke="black" cx="498.18" cy="-123.6" rx="28.68" ry="28.68" />
            <ellipse fill="none" stroke="black" cx="498.18" cy="-123.6" rx="32.7" ry="32.7" />
            <text text-anchor="middle" x="498.18" y="-119.9" font-family="Times,serif" font-size="14.00">bb2</text>
        </g>
        <!-- bb1&#45;&gt;bb2 -->
        <g id="edge29" class="edge">
            <title>bb1&#45;&gt;bb2</title>
            <path fill="none" stroke="black" d="M410.63,-123.6C424.43,-123.6 441.38,-123.6 456.61,-123.6" />
            <polygon fill="black" stroke="black" points="456.85,-126.57 465.35,-123.6 456.85,-120.62 456.85,-126.57" />
            <text text-anchor="middle" x="438.09" y="-127.4" font-family="Times,serif" font-size="14.00"> b </text>
        </g>
        <!-- bb2&#45;&gt;bb2 -->
        <g id="edge30" class="edge">
            <title>bb2&#45;&gt;bb2</title>
            <path fill="none" stroke="black"
                d="M492.56,-155.71C492.62,-166.02 494.49,-174.19 498.18,-174.19 500.72,-174.19 502.4,-170.33 503.22,-164.57" />
            <polygon fill="black" stroke="black" points="506.21,-164.39 503.81,-155.71 500.28,-164 506.21,-164.39" />
            <text text-anchor="middle" x="498.18" y="-177.99" font-family="Times,serif" font-size="14.00"> a </text>
        </g>
        <!-- bb2&#45;&gt;bb2 -->
        <g id="edge31" class="edge">
            <title>bb2&#45;&gt;bb2</title>
            <path fill="none" stroke="black"
                d="M487.73,-154.64C485.2,-173.88 488.69,-192.19 498.18,-192.19 506.19,-192.19 509.92,-179.16 509.38,-163.52" />
            <polygon fill="black" stroke="black" points="512.31,-162.86 508.64,-154.64 506.38,-163.36 512.31,-162.86" />
            <text text-anchor="middle" x="498.18" y="-195.99" font-family="Times,serif" font-size="14.00"> b </text>
        </g>
        <!-- bbT&#45;&gt;bb -->
        <g id="edge38" class="edge">
            <title>bbT&#45;&gt;bb</title>
            <path fill="none" stroke="black"
                d="M353.17,-26.96C341.2,-27.4 327.46,-29.5 316.39,-35.6 306.68,-40.95 298.49,-49.75 292.11,-58.49" />
            <polygon fill="black" stroke="black" points="289.51,-57.03 287.19,-65.73 294.43,-60.37 289.51,-57.03" />
            <text text-anchor="middle" x="325.89" y="-39.4" font-family="Times,serif" font-size="14.00"> a </text>
        </g>
        <!-- bbT&#45;&gt;bb -->
        <g id="edge39" class="edge">
            <title>bbT&#45;&gt;bb</title>
            <path fill="none" stroke="black"
                d="M357.66,-13.54C344.8,-7.28 328.96,-3.03 316.39,-10.6 300.26,-20.3 290.33,-39 284.43,-55.29" />
            <polygon fill="black" stroke="black" points="281.55,-54.53 281.7,-63.53 287.2,-56.4 281.55,-54.53" />
            <text text-anchor="middle" x="325.89" y="-14.4" font-family="Times,serif" font-size="14.00"> b </text>
        </g>
        <!-- start&#45;&gt;a -->
        <g id="edge2" class="edge">
            <title>start&#45;&gt;a</title>
            <path fill="none" stroke="black" d="M98.9,-373.63C117.36,-390.47 142.47,-413.37 159.6,-429" />
            <polygon fill="black" stroke="black" points="157.68,-431.28 165.97,-434.81 161.69,-426.88 157.68,-431.28" />
            <text text-anchor="middle" x="134.39" y="-416.4" font-family="Times,serif" font-size="14.00"> a </text>
        </g>
        <!-- start&#45;&gt;b -->
        <g id="edge3" class="edge">
            <title>start&#45;&gt;b</title>
            <path fill="none" stroke="black" d="M98.9,-329.56C117.36,-312.72 142.47,-289.82 159.6,-274.2" />
            <polygon fill="black" stroke="black" points="161.69,-276.32 165.97,-268.39 157.68,-271.92 161.69,-276.32" />
            <text text-anchor="middle" x="134.39" y="-307.4" font-family="Times,serif" font-size="14.00"> b </text>
        </g>
    </g>
</svg>