<?xml version="1.0" encoding="UTF-8" standalone="no"?>
<!DOCTYPE svg PUBLIC "-//W3C//DTD SVG 1.1//EN" "http://www.w3.org/Graphics/SVG/1.1/DTD/svg11.dtd">
<!-- Generated by graphviz version 2.43.0 (0)
 -->
<!-- Title: %3 Pages: 1 -->
<svg width="410pt" height="102pt" viewBox="0.00 0.00 409.58 102.50" xmlns="http://www.w3.org/2000/svg"
    xmlns:xlink="http://www.w3.org/1999/xlink">
    <g id="graph0" class="graph" transform="scale(1 1) rotate(0) translate(4 98.5)">
        <title>%3</title>
        <polygon fill="none" stroke="transparent" points="-4,4 -4,-98.5 405.58,-98.5 405.58,4 -4,4" />
        <!-- Initial -->
        <g id="node1" class="node">
            <title>Initial</title>
            <ellipse fill="black" stroke="black" cx="1.8" cy="-26.75" rx="1.8" ry="1.8" />
        </g>
        <!-- pp -->
        <g id="node5" class="node">
            <title>pp</title>
            <ellipse fill="white" stroke="black" cx="67.35" cy="-26.75" rx="27" ry="27" />
            <ellipse fill="none" stroke="black" cx="67.35" cy="-26.75" rx="22.96" ry="22.96" />
            <text text-anchor="middle" x="67.35" y="-23.05" font-family="Times,serif" font-size="14.00">pp</text>
        </g>
        <!-- Initial&#45;&gt;pp -->
        <g id="edge1" class="edge">
            <title>Initial&#45;&gt;pp</title>
            <path fill="none" stroke="black" d="M3.9,-26.75C7.49,-26.75 19.32,-26.75 31.74,-26.75" />
            <polygon fill="black" stroke="black" points="31.83,-29.72 40.33,-26.75 31.83,-23.77 31.83,-29.72" />
        </g>
        <!-- dd -->
        <g id="node2" class="node">
            <title>dd</title>
            <ellipse fill="white" stroke="black" cx="271.34" cy="-71.75" rx="23" ry="23" />
            <text text-anchor="middle" x="271.34" y="-68.05" font-family="Times,serif" font-size="14.00">dd</text>
        </g>
        <!-- dp -->
        <g id="node3" class="node">
            <title>dp</title>
            <ellipse fill="white" stroke="black" cx="170.84" cy="-71.75" rx="23" ry="23" />
            <text text-anchor="middle" x="170.84" y="-68.05" font-family="Times,serif" font-size="14.00">dp</text>
        </g>
        <!-- dd&#45;&gt;dp -->
        <g id="edge9" class="edge">
            <title>dd&#45;&gt;dp</title>
            <path fill="none" stroke="black"
                d="M251.16,-60.46C244.83,-57.32 237.6,-54.34 230.59,-52.75 222.36,-50.88 219.83,-50.88 211.59,-52.75 207.32,-53.72 202.97,-55.2 198.79,-56.93" />
            <polygon fill="black" stroke="black" points="197.53,-54.23 191.03,-60.46 200,-59.65 197.53,-54.23" />
            <text text-anchor="middle" x="221.09" y="-56.55" font-family="Times,serif" font-size="14.00"> b </text>
        </g>
        <!-- pd -->
        <g id="node4" class="node">
            <title>pd</title>
            <ellipse fill="white" stroke="black" cx="374.84" cy="-26.75" rx="27" ry="27" />
            <ellipse fill="none" stroke="black" cx="374.84" cy="-26.75" rx="22.96" ry="22.96" />
            <text text-anchor="middle" x="374.84" y="-23.05" font-family="Times,serif" font-size="14.00">pd</text>
        </g>
        <!-- dd&#45;&gt;pd -->
        <g id="edge8" class="edge">
            <title>dd&#45;&gt;pd</title>
            <path fill="none" stroke="black"
                d="M294.17,-69.52C305.28,-67.82 318.8,-64.86 330.09,-59.75 336.05,-57.05 341.96,-53.42 347.42,-49.55" />
            <polygon fill="black" stroke="black" points="349.54,-51.68 354.55,-44.2 345.97,-46.92 349.54,-51.68" />
            <text text-anchor="middle" x="321.09" y="-68.55" font-family="Times,serif" font-size="14.00"> a </text>
        </g>
        <!-- dp&#45;&gt;dd -->
        <g id="edge7" class="edge">
            <title>dp&#45;&gt;dd</title>
            <path fill="none" stroke="black" d="M193.7,-71.75C207.22,-71.75 224.77,-71.75 239.67,-71.75" />
            <polygon fill="black" stroke="black" points="240.04,-74.72 248.54,-71.75 240.04,-68.77 240.04,-74.72" />
            <text text-anchor="middle" x="221.09" y="-75.55" font-family="Times,serif" font-size="14.00"> b </text>
        </g>
        <!-- dp&#45;&gt;pp -->
        <g id="edge6" class="edge">
            <title>dp&#45;&gt;pp</title>
            <path fill="none" stroke="black"
                d="M153.53,-56.38C146.73,-50.72 138.48,-44.72 130.1,-40.75 121.59,-36.72 111.87,-33.81 102.69,-31.74" />
            <polygon fill="black" stroke="black" points="103.04,-28.77 94.12,-29.99 101.85,-34.6 103.04,-28.77" />
            <text text-anchor="middle" x="121.1" y="-44.55" font-family="Times,serif" font-size="14.00"> a </text>
        </g>
        <!-- pd&#45;&gt;dd -->
        <g id="edge4" class="edge">
            <title>pd&#45;&gt;dd</title>
            <path fill="none" stroke="black"
                d="M348.55,-32.21C337.11,-35.16 323.6,-39.32 312.09,-44.75 307.04,-47.13 301.91,-50.11 297.09,-53.21" />
            <polygon fill="black" stroke="black" points="295.2,-50.9 289.83,-58.13 298.54,-55.83 295.2,-50.9" />
            <text text-anchor="middle" x="321.09" y="-48.55" font-family="Times,serif" font-size="14.00"> a </text>
        </g>
        <!-- pd&#45;&gt;pp -->
        <g id="edge5" class="edge">
            <title>pd&#45;&gt;pp</title>
            <path fill="none" stroke="black"
                d="M348.62,-20.92C316.77,-14.22 260.26,-4.53 211.59,-7.75 174.05,-10.23 131.33,-16.32 102.38,-20.95" />
            <polygon fill="black" stroke="black" points="101.78,-18.03 93.86,-22.33 102.73,-23.9 101.78,-18.03" />
            <text text-anchor="middle" x="221.09" y="-11.55" font-family="Times,serif" font-size="14.00"> b </text>
        </g>
        <!-- pp&#45;&gt;dp -->
        <g id="edge2" class="edge">
            <title>pp&#45;&gt;dp</title>
            <path fill="none" stroke="black"
                d="M87.63,-44.2C94.86,-49.93 103.43,-55.82 112.1,-59.75 120.65,-63.62 130.48,-66.26 139.58,-68.05" />
            <polygon fill="black" stroke="black" points="139.13,-71 148.02,-69.52 140.16,-65.13 139.13,-71" />
            <text text-anchor="middle" x="121.1" y="-68.55" font-family="Times,serif" font-size="14.00"> a </text>
        </g>
        <!-- pp&#45;&gt;pd -->
        <g id="edge3" class="edge">
            <title>pp&#45;&gt;pd</title>
            <path fill="none" stroke="black" d="M94.13,-26.75C148.97,-26.75 277.23,-26.75 339.16,-26.75" />
            <polygon fill="black" stroke="black" points="339.3,-29.72 347.8,-26.75 339.3,-23.77 339.3,-29.72" />
            <text text-anchor="middle" x="221.09" y="-30.55" font-family="Times,serif" font-size="14.00"> b </text>
        </g>
    </g>
</svg>