<?xml version="1.0" encoding="UTF-8" standalone="no"?>
<!DOCTYPE svg PUBLIC "-//W3C//DTD SVG 1.1//EN" "http://www.w3.org/Graphics/SVG/1.1/DTD/svg11.dtd">
<!-- Generated by graphviz version 2.43.0 (0)
 -->
<!-- Title: %3 Pages: 1 -->
<svg width="576pt" height="218pt" viewBox="0.00 0.00 576.00 218.18" xmlns="http://www.w3.org/2000/svg"
    xmlns:xlink="http://www.w3.org/1999/xlink">
    <g id="graph0" class="graph" transform="scale(0.92 0.92) rotate(0) translate(4 231.9)">
        <title>%3</title>
        <polygon fill="none" stroke="transparent" points="-4,4 -4,-231.9 618.77,-231.9 618.77,4 -4,4" />
        <!-- Initial -->
        <g id="node1" class="node">
            <title>Initial</title>
            <ellipse fill="black" stroke="black" cx="1.8" cy="-110.45" rx="1.8" ry="1.8" />
        </g>
        <!-- start -->
        <g id="node8" class="node">
            <title>start</title>
            <ellipse fill="white" stroke="black" cx="73.75" cy="-110.45" rx="33.29" ry="33.29" />
            <text text-anchor="middle" x="73.75" y="-106.75" font-family="Times,serif" font-size="14.00">start</text>
        </g>
        <!-- Initial&#45;&gt;start -->
        <g id="edge1" class="edge">
            <title>Initial&#45;&gt;start</title>
            <path fill="none" stroke="black" d="M3.79,-110.45C7.19,-110.45 18.93,-110.45 31.79,-110.45" />
            <polygon fill="black" stroke="black" points="31.82,-113.42 40.32,-110.45 31.82,-107.47 31.82,-113.42" />
        </g>
        <!-- dd -->
        <g id="node2" class="node">
            <title>dd</title>
            <ellipse fill="white" stroke="black" cx="282.54" cy="-114.45" rx="23" ry="23" />
            <text text-anchor="middle" x="282.54" y="-110.75" font-family="Times,serif" font-size="14.00">dd</text>
        </g>
        <!-- dp -->
        <g id="node3" class="node">
            <title>dp</title>
            <ellipse fill="white" stroke="black" cx="383.03" cy="-168.45" rx="23" ry="23" />
            <text text-anchor="middle" x="383.03" y="-164.75" font-family="Times,serif" font-size="14.00">dp</text>
        </g>
        <!-- dd&#45;&gt;dp -->
        <g id="edge9" class="edge">
            <title>dd&#45;&gt;dp</title>
            <path fill="none" stroke="black"
                d="M305.27,-116.22C316.84,-117.88 330.98,-121.13 342.29,-127.45 349.79,-131.64 356.76,-137.69 362.71,-143.86" />
            <polygon fill="black" stroke="black" points="360.83,-146.22 368.74,-150.52 365.24,-142.22 360.83,-146.22" />
            <text text-anchor="middle" x="332.79" y="-131.25" font-family="Times,serif" font-size="14.00"> b </text>
        </g>
        <!-- pd -->
        <g id="node5" class="node">
            <title>pd</title>
            <ellipse fill="white" stroke="black" cx="592.03" cy="-97.45" rx="23" ry="23" />
            <text text-anchor="middle" x="592.03" y="-93.75" font-family="Times,serif" font-size="14.00">pd</text>
        </g>
        <!-- dd&#45;&gt;pd -->
        <g id="edge8" class="edge">
            <title>dd&#45;&gt;pd</title>
            <path fill="none" stroke="black" d="M305.65,-113.23C359.73,-110.24 498.72,-102.55 560.57,-99.13" />
            <polygon fill="black" stroke="black" points="560.79,-102.1 569.11,-98.66 560.46,-96.16 560.79,-102.1" />
            <text text-anchor="middle" x="433.28" y="-111.25" font-family="Times,serif" font-size="14.00"> a </text>
        </g>
        <!-- dp&#45;&gt;dd -->
        <g id="edge7" class="edge">
            <title>dp&#45;&gt;dd</title>
            <path fill="none" stroke="black"
                d="M360.92,-162.36C349.4,-158.59 335.11,-153.19 323.29,-146.45 317.57,-143.19 311.83,-139.13 306.55,-135.01" />
            <polygon fill="black" stroke="black" points="308.17,-132.48 299.7,-129.42 304.4,-137.09 308.17,-132.48" />
            <text text-anchor="middle" x="332.79" y="-159.25" font-family="Times,serif" font-size="14.00"> b </text>
        </g>
        <!-- pp -->
        <g id="node6" class="node">
            <title>pp</title>
            <ellipse fill="white" stroke="black" cx="487.53" cy="-160.45" rx="27" ry="27" />
            <ellipse fill="none" stroke="black" cx="487.53" cy="-160.45" rx="22.96" ry="22.96" />
            <text text-anchor="middle" x="487.53" y="-156.75" font-family="Times,serif" font-size="14.00">pp</text>
        </g>
        <!-- dp&#45;&gt;pp -->
        <g id="edge6" class="edge">
            <title>dp&#45;&gt;pp</title>
            <path fill="none" stroke="black"
                d="M402.75,-156.78C409.17,-153.4 416.57,-150.16 423.78,-148.45 433.55,-146.13 444.25,-146.95 454.01,-148.98" />
            <polygon fill="black" stroke="black" points="453.32,-151.88 462.29,-151.03 454.75,-146.1 453.32,-151.88" />
            <text text-anchor="middle" x="433.28" y="-152.25" font-family="Times,serif" font-size="14.00"> a </text>
        </g>
        <!-- dz -->
        <g id="node4" class="node">
            <title>dz</title>
            <ellipse fill="white" stroke="black" cx="183.34" cy="-80.45" rx="21.4" ry="21.4" />
            <text text-anchor="middle" x="183.34" y="-76.75" font-family="Times,serif" font-size="14.00">dz</text>
        </g>
        <!-- dz&#45;&gt;dd -->
        <g id="edge13" class="edge">
            <title>dz&#45;&gt;dd</title>
            <path fill="none" stroke="black"
                d="M204.52,-85.26C215.64,-88.11 229.63,-92.03 241.79,-96.45 245.68,-97.86 249.72,-99.49 253.67,-101.18" />
            <polygon fill="black" stroke="black" points="252.59,-103.96 261.57,-104.68 255,-98.52 252.59,-103.96" />
            <text text-anchor="middle" x="232.29" y="-100.25" font-family="Times,serif" font-size="14.00"> b </text>
        </g>
        <!-- pz -->
        <g id="node7" class="node">
            <title>pz</title>
            <ellipse fill="white" stroke="black" cx="282.54" cy="-21.45" rx="21.4" ry="21.4" />
            <text text-anchor="middle" x="282.54" y="-17.75" font-family="Times,serif" font-size="14.00">pz</text>
        </g>
        <!-- dz&#45;&gt;pz -->
        <g id="edge12" class="edge">
            <title>dz&#45;&gt;pz</title>
            <path fill="none" stroke="black"
                d="M193.08,-61.25C199.53,-49.43 209.49,-35.11 222.79,-27.45 231.57,-22.39 242.31,-20.35 252.21,-19.74" />
            <polygon fill="black" stroke="black" points="252.54,-22.71 260.97,-19.54 252.4,-16.76 252.54,-22.71" />
            <text text-anchor="middle" x="232.29" y="-31.25" font-family="Times,serif" font-size="14.00"> a </text>
        </g>
        <!-- pd&#45;&gt;dd -->
        <g id="edge4" class="edge">
            <title>pd&#45;&gt;dd</title>
            <path fill="none" stroke="black"
                d="M570.92,-88.54C539.74,-75.75 477.71,-54.36 423.78,-60.45 378.25,-65.59 364.67,-63.78 323.29,-83.45 317.53,-86.19 311.82,-89.88 306.61,-93.76" />
            <polygon fill="black" stroke="black" points="304.68,-91.49 299.86,-99.09 308.37,-96.16 304.68,-91.49" />
            <text text-anchor="middle" x="433.28" y="-64.25" font-family="Times,serif" font-size="14.00"> a </text>
        </g>
        <!-- pd&#45;&gt;pp -->
        <g id="edge5" class="edge">
            <title>pd&#45;&gt;pp</title>
            <path fill="none" stroke="black"
                d="M579.76,-116.9C572.83,-127.2 563.01,-139.18 551.28,-146.45 542.85,-151.67 532.72,-154.95 523.08,-157.01" />
            <polygon fill="black" stroke="black" points="522.26,-154.14 514.43,-158.58 523.32,-159.99 522.26,-154.14" />
            <text text-anchor="middle" x="541.78" y="-158.25" font-family="Times,serif" font-size="14.00"> b </text>
        </g>
        <!-- pp&#45;&gt;dp -->
        <g id="edge2" class="edge">
            <title>pp&#45;&gt;dp</title>
            <path fill="none" stroke="black"
                d="M461.16,-165.13C455.15,-166.07 448.76,-166.92 442.78,-167.45 433.64,-168.25 423.66,-168.62 414.57,-168.75" />
            <polygon fill="black" stroke="black" points="414.31,-165.77 405.83,-168.81 414.36,-171.72 414.31,-165.77" />
            <text text-anchor="middle" x="433.28" y="-173.25" font-family="Times,serif" font-size="14.00"> a </text>
        </g>
        <!-- pp&#45;&gt;pd -->
        <g id="edge3" class="edge">
            <title>pp&#45;&gt;pd</title>
            <path fill="none" stroke="black"
                d="M510.17,-145.73C517.17,-141.07 525,-135.96 532.28,-131.45 542.65,-125.02 554.25,-118.22 564.38,-112.41" />
            <polygon fill="black" stroke="black" points="565.89,-114.98 571.8,-108.18 562.94,-109.81 565.89,-114.98" />
            <text text-anchor="middle" x="541.78" y="-135.25" font-family="Times,serif" font-size="14.00"> b </text>
        </g>
        <!-- pz&#45;&gt;dz -->
        <g id="edge10" class="edge">
            <title>pz&#45;&gt;dz</title>
            <path fill="none" stroke="black" d="M263.82,-32.2C248.65,-41.41 226.62,-54.79 209.59,-65.12" />
            <polygon fill="black" stroke="black" points="207.89,-62.67 202.17,-69.63 210.98,-67.76 207.89,-62.67" />
            <text text-anchor="middle" x="232.29" y="-60.25" font-family="Times,serif" font-size="14.00"> a </text>
        </g>
        <!-- pz&#45;&gt;pd -->
        <g id="edge11" class="edge">
            <title>pz&#45;&gt;pd</title>
            <path fill="none" stroke="black"
                d="M304.07,-22.47C344.94,-24.96 439.05,-32.96 514.28,-56.45 531.22,-61.74 535.56,-63.22 551.28,-71.45 556.07,-73.96 561.02,-76.89 565.73,-79.86" />
            <polygon fill="black" stroke="black" points="564.13,-82.37 572.87,-84.51 567.37,-77.38 564.13,-82.37" />
            <text text-anchor="middle" x="433.28" y="-43.25" font-family="Times,serif" font-size="14.00"> b </text>
        </g>
        <!-- start&#45;&gt;dz -->
        <g id="edge18" class="edge">
            <title>start&#45;&gt;dz</title>
            <path fill="none" stroke="black" d="M105.87,-101.77C121.12,-97.52 139.35,-92.43 154.19,-88.3" />
            <polygon fill="black" stroke="black" points="155.09,-91.13 162.48,-85.99 153.49,-85.4 155.09,-91.13" />
            <text text-anchor="middle" x="134.39" y="-100.25" font-family="Times,serif" font-size="14.00"> a </text>
        </g>
        <!-- zd -->
        <g id="node9" class="node">
            <title>zd</title>
            <ellipse fill="white" stroke="black" cx="183.34" cy="-148.45" rx="21.4" ry="21.4" />
            <text text-anchor="middle" x="183.34" y="-144.75" font-family="Times,serif" font-size="14.00">zd</text>
        </g>
        <!-- start&#45;&gt;zd -->
        <g id="edge19" class="edge">
            <title>start&#45;&gt;zd</title>
            <path fill="none" stroke="black" d="M105.29,-121.24C120.77,-126.7 139.42,-133.29 154.5,-138.62" />
            <polygon fill="black" stroke="black" points="153.91,-141.56 162.92,-141.59 155.89,-135.95 153.91,-141.56" />
            <text text-anchor="middle" x="134.39" y="-138.25" font-family="Times,serif" font-size="14.00"> b </text>
        </g>
        <!-- zd&#45;&gt;dd -->
        <g id="edge16" class="edge">
            <title>zd&#45;&gt;dd</title>
            <path fill="none" stroke="black"
                d="M203.87,-141.25C209.93,-139.04 216.63,-136.62 222.79,-134.45 232.54,-131.02 243.23,-127.35 252.78,-124.1" />
            <polygon fill="black" stroke="black" points="253.74,-126.92 260.84,-121.38 251.83,-121.28 253.74,-126.92" />
            <text text-anchor="middle" x="232.29" y="-138.25" font-family="Times,serif" font-size="14.00"> a </text>
        </g>
        <!-- zp -->
        <g id="node10" class="node">
            <title>zp</title>
            <ellipse fill="white" stroke="black" cx="282.54" cy="-206.45" rx="21.4" ry="21.4" />
            <text text-anchor="middle" x="282.54" y="-202.75" font-family="Times,serif" font-size="14.00">zp</text>
        </g>
        <!-- zd&#45;&gt;zp -->
        <g id="edge17" class="edge">
            <title>zd&#45;&gt;zp</title>
            <path fill="none" stroke="black"
                d="M197.49,-165.09C204.33,-172.81 213.24,-181.56 222.79,-187.45 231.89,-193.06 242.82,-197.19 252.78,-200.13" />
            <polygon fill="black" stroke="black" points="252.22,-203.06 261.2,-202.42 253.78,-197.32 252.22,-203.06" />
            <text text-anchor="middle" x="232.29" y="-200.25" font-family="Times,serif" font-size="14.00"> b </text>
        </g>
        <!-- zp&#45;&gt;dp -->
        <g id="edge14" class="edge">
            <title>zp&#45;&gt;dp</title>
            <path fill="none" stroke="black"
                d="M302.9,-199.33C314.38,-195.08 329.19,-189.54 342.29,-184.45 345.89,-183.05 349.68,-181.55 353.42,-180.06" />
            <polygon fill="black" stroke="black" points="354.66,-182.77 361.44,-176.85 352.45,-177.25 354.66,-182.77" />
            <text text-anchor="middle" x="332.79" y="-195.25" font-family="Times,serif" font-size="14.00"> a </text>
        </g>
        <!-- zp&#45;&gt;zd -->
        <g id="edge15" class="edge">
            <title>zp&#45;&gt;zd</title>
            <path fill="none" stroke="black"
                d="M266.55,-191.68C259.45,-185.21 250.61,-177.87 241.79,-172.45 232.61,-166.8 221.85,-161.9 212.15,-158.04" />
            <polygon fill="black" stroke="black" points="212.96,-155.16 203.96,-154.91 210.84,-160.72 212.96,-155.16" />
            <text text-anchor="middle" x="232.29" y="-176.25" font-family="Times,serif" font-size="14.00"> b </text>
        </g>
    </g>
</svg>