<?xml version="1.0" encoding="UTF-8" standalone="no"?>
<!DOCTYPE svg PUBLIC "-//W3C//DTD SVG 1.1//EN" "http://www.w3.org/Graphics/SVG/1.1/DTD/svg11.dtd">
<!-- Generated by graphviz version 2.43.0 (0)
 -->
<!-- Title: %3 Pages: 1 -->
<svg width="184pt" height="119pt" viewBox="0.00 0.00 183.60 118.83" xmlns="http://www.w3.org/2000/svg"
    xmlns:xlink="http://www.w3.org/1999/xlink">
    <g id="graph0" class="graph" transform="scale(1 1) rotate(0) translate(4 114.83)">
        <title>%3</title>
        <polygon fill="none" stroke="transparent" points="-4,4 -4,-114.83 179.6,-114.83 179.6,4 -4,4" />
        <!-- Initial -->
        <g id="node1" class="node">
            <title>Initial</title>
            <ellipse fill="black" stroke="black" cx="1.8" cy="-58.83" rx="1.8" ry="1.8" />
        </g>
        <!-- u -->
        <g id="node3" class="node">
            <title>u</title>
            <ellipse fill="white" stroke="black" cx="62.6" cy="-58.83" rx="22" ry="22" />
            <ellipse fill="none" stroke="black" cx="62.6" cy="-58.83" rx="18" ry="18" />
            <text text-anchor="middle" x="62.6" y="-55.13" font-family="Times,serif" font-size="14.00">u</text>
        </g>
        <!-- Initial&#45;&gt;u -->
        <g id="edge1" class="edge">
            <title>Initial&#45;&gt;u</title>
            <path fill="none" stroke="black" d="M3.82,-58.83C7.33,-58.83 19.36,-58.83 31.54,-58.83" />
            <polygon fill="black" stroke="black" points="31.81,-61.8 40.31,-58.83 31.81,-55.85 31.81,-61.8" />
        </g>
        <!-- d -->
        <g id="node2" class="node">
            <title>d</title>
            <ellipse fill="white" stroke="black" cx="157.6" cy="-58.83" rx="18" ry="18" />
            <text text-anchor="middle" x="157.6" y="-55.13" font-family="Times,serif" font-size="14.00">d</text>
        </g>
        <!-- d&#45;&gt;u -->
        <g id="edge4" class="edge">
            <title>d&#45;&gt;u</title>
            <path fill="none" stroke="black" d="M139.32,-58.83C126.41,-58.83 108.45,-58.83 93.27,-58.83" />
            <polygon fill="black" stroke="black" points="93.2,-55.85 84.7,-58.83 93.2,-61.8 93.2,-55.85" />
            <text text-anchor="middle" x="112.1" y="-62.63" font-family="Times,serif" font-size="14.00"> a </text>
        </g>
        <!-- d&#45;&gt;u -->
        <g id="edge5" class="edge">
            <title>d&#45;&gt;u</title>
            <path fill="none" stroke="black"
                d="M142.29,-48.96C136.2,-45.33 128.84,-41.66 121.6,-39.83 111.01,-37.14 99.54,-39.7 89.62,-43.71" />
            <polygon fill="black" stroke="black" points="88.18,-41.1 81.7,-47.35 90.67,-46.51 88.18,-41.1" />
            <text text-anchor="middle" x="112.1" y="-43.63" font-family="Times,serif" font-size="14.00"> b </text>
        </g>
        <!-- u&#45;&gt;d -->
        <g id="edge2" class="edge">
            <title>u&#45;&gt;d</title>
            <path fill="none" stroke="black"
                d="M72.53,-38.75C82.92,-18.45 101.28,8.44 121.6,-2.83 133.74,-9.55 142.22,-22.44 147.8,-34.16" />
            <polygon fill="black" stroke="black" points="145.08,-35.38 151.2,-41.99 150.54,-33.01 145.08,-35.38" />
            <text text-anchor="middle" x="112.1" y="-6.63" font-family="Times,serif" font-size="14.00"> a </text>
        </g>
        <!-- u&#45;&gt;d -->
        <g id="edge3" class="edge">
            <title>u&#45;&gt;d</title>
            <path fill="none" stroke="black"
                d="M77.35,-75.76C84.12,-82.77 92.91,-90.12 102.6,-93.83 110.49,-96.85 113.8,-97.06 121.6,-93.83 128.9,-90.8 135.48,-85.43 140.9,-79.79" />
            <polygon fill="black" stroke="black" points="143.35,-81.52 146.72,-73.17 138.88,-77.59 143.35,-81.52" />
            <text text-anchor="middle" x="112.1" y="-99.63" font-family="Times,serif" font-size="14.00"> b </text>
        </g>
    </g>
</svg>