<?xml version="1.0" encoding="UTF-8" standalone="no"?>
<!DOCTYPE svg PUBLIC "-//W3C//DTD SVG 1.1//EN" "http://www.w3.org/Graphics/SVG/1.1/DTD/svg11.dtd">
<!-- Generated by graphviz version 2.43.0 (0)
 -->
<!-- Title: %3 Pages: 1 -->
<svg width="576pt" height="183pt" viewBox="0.00 0.00 576.00 182.64" xmlns="http://www.w3.org/2000/svg"
    xmlns:xlink="http://www.w3.org/1999/xlink">
    <g id="graph0" class="graph" transform="scale(0.84 0.84) rotate(0) translate(4 214.49)">
        <title>%3</title>
        <polygon fill="none" stroke="transparent" points="-4,4 -4,-214.49 685.07,-214.49 685.07,4 -4,4" />
        <!-- Initial -->
        <g id="node1" class="node">
            <title>Initial</title>
            <ellipse fill="black" stroke="black" cx="1.8" cy="-78.95" rx="1.8" ry="1.8" />
        </g>
        <!-- ap -->
        <g id="node6" class="node">
            <title>ap</title>
            <ellipse fill="white" stroke="black" cx="62.7" cy="-78.95" rx="22.2" ry="22.2" />
            <text text-anchor="middle" x="62.7" y="-75.25" font-family="Times,serif" font-size="14.00">ap</text>
        </g>
        <!-- Initial&#45;&gt;ap -->
        <g id="edge1" class="edge">
            <title>Initial&#45;&gt;ap</title>
            <path fill="none" stroke="black" d="M3.82,-78.95C7.34,-78.95 19.39,-78.95 31.59,-78.95" />
            <polygon fill="black" stroke="black" points="31.88,-81.92 40.38,-78.95 31.88,-75.97 31.88,-81.92" />
        </g>
        <!-- aad -->
        <g id="node2" class="node">
            <title>aad</title>
            <ellipse fill="white" stroke="black" cx="537.67" cy="-79.95" rx="27.1" ry="27.1" />
            <text text-anchor="middle" x="537.67" y="-76.25" font-family="Times,serif" font-size="14.00">aad</text>
        </g>
        <!-- aap -->
        <g id="node3" class="node">
            <title>aap</title>
            <ellipse fill="white" stroke="black" cx="425.08" cy="-115.95" rx="31.1" ry="31.1" />
            <ellipse fill="none" stroke="black" cx="425.08" cy="-115.95" rx="27.12" ry="27.12" />
            <text text-anchor="middle" x="425.08" y="-112.25" font-family="Times,serif" font-size="14.00">aap</text>
        </g>
        <!-- aad&#45;&gt;aap -->
        <g id="edge12" class="edge">
            <title>aad&#45;&gt;aap</title>
            <path fill="none" stroke="black"
                d="M511.15,-73.1C499.61,-71.21 485.99,-70.68 474.38,-74.95 466.8,-77.73 459.59,-82.29 453.17,-87.38" />
            <polygon fill="black" stroke="black" points="451.06,-85.27 446.52,-93.05 454.92,-89.8 451.06,-85.27" />
            <text text-anchor="middle" x="483.38" y="-78.75" font-family="Times,serif" font-size="14.00"> a </text>
        </g>
        <!-- trap -->
        <g id="node8" class="node">
            <title>trap</title>
            <ellipse fill="white" stroke="black" cx="650.52" cy="-113.95" rx="30.59" ry="30.59" />
            <text text-anchor="middle" x="650.52" y="-110.25" font-family="Times,serif" font-size="14.00">trap</text>
        </g>
        <!-- aad&#45;&gt;trap -->
        <g id="edge13" class="edge">
            <title>aad&#45;&gt;trap</title>
            <path fill="none" stroke="black" d="M564.11,-87.75C578.45,-92.15 596.63,-97.72 612.53,-102.6" />
            <polygon fill="black" stroke="black" points="612.09,-105.58 621.09,-105.23 613.83,-99.89 612.09,-105.58" />
            <text text-anchor="middle" x="592.47" y="-102.75" font-family="Times,serif" font-size="14.00"> b </text>
        </g>
        <!-- aap&#45;&gt;aad -->
        <g id="edge10" class="edge">
            <title>aap&#45;&gt;aad</title>
            <path fill="none" stroke="black" d="M455.14,-106.49C469.93,-101.67 487.99,-95.79 503.35,-90.8" />
            <polygon fill="black" stroke="black" points="504.4,-93.58 511.57,-88.12 502.56,-87.92 504.4,-93.58" />
            <text text-anchor="middle" x="483.38" y="-103.75" font-family="Times,serif" font-size="14.00"> a </text>
        </g>
        <!-- aap&#45;&gt;trap -->
        <g id="edge11" class="edge">
            <title>aap&#45;&gt;trap</title>
            <path fill="none" stroke="black"
                d="M456.47,-118.12C462.4,-118.47 468.58,-118.77 474.38,-118.95 505.8,-119.92 504.69,-122.48 601.97,-117.95 604.96,-117.81 608.05,-117.63 611.15,-117.42" />
            <polygon fill="black" stroke="black" points="611.61,-120.37 619.87,-116.79 611.17,-114.44 611.61,-120.37" />
            <text text-anchor="middle" x="537.67" y="-123.75" font-family="Times,serif" font-size="14.00"> b </text>
        </g>
        <!-- ad -->
        <g id="node4" class="node">
            <title>ad</title>
            <ellipse fill="white" stroke="black" cx="161.89" cy="-116.95" rx="22.2" ry="22.2" />
            <text text-anchor="middle" x="161.89" y="-113.25" font-family="Times,serif" font-size="14.00">ad</text>
        </g>
        <!-- adb -->
        <g id="node5" class="node">
            <title>adb</title>
            <ellipse fill="white" stroke="black" cx="311.83" cy="-118.95" rx="27.9" ry="27.9" />
            <text text-anchor="middle" x="311.83" y="-115.25" font-family="Times,serif" font-size="14.00">adb</text>
        </g>
        <!-- ad&#45;&gt;adb -->
        <g id="edge5" class="edge">
            <title>ad&#45;&gt;adb</title>
            <path fill="none" stroke="black" d="M184.09,-117.23C207.74,-117.55 246.4,-118.08 274.81,-118.46" />
            <polygon fill="black" stroke="black" points="275.11,-121.44 283.65,-118.58 275.19,-115.49 275.11,-121.44" />
            <text text-anchor="middle" x="233.94" y="-121.75" font-family="Times,serif" font-size="14.00"> b </text>
        </g>
        <!-- ad&#45;&gt;ap -->
        <g id="edge4" class="edge">
            <title>ad&#45;&gt;ap</title>
            <path fill="none" stroke="black"
                d="M149.04,-98.89C142.22,-90.2 132.83,-80.67 121.8,-75.95 112.84,-72.11 102.38,-71.59 92.83,-72.44" />
            <polygon fill="black" stroke="black" points="92.42,-69.49 84.38,-73.54 93.19,-75.39 92.42,-69.49" />
            <text text-anchor="middle" x="112.3" y="-79.75" font-family="Times,serif" font-size="14.00"> a </text>
        </g>
        <!-- adb&#45;&gt;aap -->
        <g id="edge8" class="edge">
            <title>adb&#45;&gt;aap</title>
            <path fill="none" stroke="black" d="M340.05,-118.21C353.6,-117.85 370.22,-117.4 385.1,-117" />
            <polygon fill="black" stroke="black" points="385.2,-119.97 393.62,-116.77 385.04,-114.02 385.2,-119.97" />
            <text text-anchor="middle" x="366.78" y="-120.75" font-family="Times,serif" font-size="14.00"> a </text>
        </g>
        <!-- adb&#45;&gt;adb -->
        <g id="edge9" class="edge">
            <title>adb&#45;&gt;adb</title>
            <path fill="none" stroke="black"
                d="M301.77,-145.39C301.2,-155.99 304.56,-164.9 311.83,-164.9 316.95,-164.9 320.13,-160.49 321.37,-154.2" />
            <polygon fill="black" stroke="black" points="324.36,-154.05 321.9,-145.39 318.42,-153.69 324.36,-154.05" />
            <text text-anchor="middle" x="311.83" y="-168.7" font-family="Times,serif" font-size="14.00"> b </text>
        </g>
        <!-- ap&#45;&gt;ad -->
        <g id="edge2" class="edge">
            <title>ap&#45;&gt;ad</title>
            <path fill="none" stroke="black"
                d="M83.55,-87.19C89.7,-89.71 96.52,-92.47 102.8,-94.95 112.58,-98.8 123.33,-102.91 132.9,-106.52" />
            <polygon fill="black" stroke="black" points="131.94,-109.34 140.95,-109.54 134.04,-103.77 131.94,-109.34" />
            <text text-anchor="middle" x="112.3" y="-104.75" font-family="Times,serif" font-size="14.00"> a </text>
        </g>
        <!-- apb -->
        <g id="node7" class="node">
            <title>apb</title>
            <ellipse fill="white" stroke="black" cx="233.94" cy="-31.95" rx="31.9" ry="31.9" />
            <ellipse fill="none" stroke="black" cx="233.94" cy="-31.95" rx="27.9" ry="27.9" />
            <text text-anchor="middle" x="233.94" y="-28.25" font-family="Times,serif" font-size="14.00">apb</text>
        </g>
        <!-- ap&#45;&gt;apb -->
        <g id="edge3" class="edge">
            <title>ap&#45;&gt;apb</title>
            <path fill="none" stroke="black"
                d="M80.33,-65.6C86.97,-60.91 94.9,-56.04 102.8,-52.95 131.9,-41.55 166.98,-36.33 193.39,-33.95" />
            <polygon fill="black" stroke="black" points="193.76,-36.9 201.99,-33.25 193.28,-30.97 193.76,-36.9" />
            <text text-anchor="middle" x="112.3" y="-56.75" font-family="Times,serif" font-size="14.00"> b </text>
        </g>
        <!-- apb&#45;&gt;aad -->
        <g id="edge6" class="edge">
            <title>apb&#45;&gt;aad</title>
            <path fill="none" stroke="black"
                d="M266.11,-34.66C314.79,-39.24 411.65,-49.72 492.38,-66.95 495.9,-67.7 499.56,-68.59 503.19,-69.55" />
            <polygon fill="black" stroke="black" points="502.56,-72.46 511.54,-71.86 504.15,-66.72 502.56,-72.46" />
            <text text-anchor="middle" x="366.78" y="-50.75" font-family="Times,serif" font-size="14.00"> a </text>
        </g>
        <!-- apb&#45;&gt;apb -->
        <g id="edge7" class="edge">
            <title>apb&#45;&gt;apb</title>
            <path fill="none" stroke="black"
                d="M220.51,-60.94C219.83,-72.36 224.31,-81.9 233.94,-81.9 241.01,-81.9 245.31,-76.75 246.82,-69.5" />
            <polygon fill="black" stroke="black" points="249.8,-69.61 247.37,-60.94 243.86,-69.23 249.8,-69.61" />
            <text text-anchor="middle" x="233.94" y="-85.7" font-family="Times,serif" font-size="14.00"> b </text>
        </g>
        <!-- trap&#45;&gt;trap -->
        <g id="edge14" class="edge">
            <title>trap&#45;&gt;trap</title>
            <path fill="none" stroke="black"
                d="M645.08,-144.29C645.08,-154.4 646.89,-162.49 650.52,-162.49 653.01,-162.49 654.65,-158.67 655.43,-152.99" />
            <polygon fill="black" stroke="black" points="658.41,-152.95 655.96,-144.29 652.47,-152.59 658.41,-152.95" />
            <text text-anchor="middle" x="650.52" y="-166.29" font-family="Times,serif" font-size="14.00"> a </text>
        </g>
        <!-- trap&#45;&gt;trap -->
        <g id="edge15" class="edge">
            <title>trap&#45;&gt;trap</title>
            <path fill="none" stroke="black"
                d="M640.55,-143.02C637.85,-162.06 641.17,-180.49 650.52,-180.49 658.41,-180.49 662,-167.37 661.31,-151.84" />
            <polygon fill="black" stroke="black" points="664.24,-151.21 660.49,-143.02 658.32,-151.76 664.24,-151.21" />
            <text text-anchor="middle" x="650.52" y="-184.29" font-family="Times,serif" font-size="14.00"> b </text>
        </g>
    </g>
</svg>