<?xml version="1.0" encoding="UTF-8" standalone="no"?>
<!DOCTYPE svg PUBLIC "-//W3C//DTD SVG 1.1//EN" "http://www.w3.org/Graphics/SVG/1.1/DTD/svg11.dtd">
<!-- Generated by graphviz version 2.43.0 (0)
 -->
<!-- Title: %3 Pages: 1 -->
<svg width="183pt" height="85pt" viewBox="0.00 0.00 182.60 85.00" xmlns="http://www.w3.org/2000/svg"
    xmlns:xlink="http://www.w3.org/1999/xlink">
    <g id="graph0" class="graph" transform="scale(1 1) rotate(0) translate(4 81)">
        <title>%3</title>
        <polygon fill="none" stroke="transparent" points="-4,4 -4,-81 178.6,-81 178.6,4 -4,4" />
        <!-- Initial -->
        <g id="node1" class="node">
            <title>Initial</title>
            <ellipse fill="black" stroke="black" cx="1.8" cy="-22" rx="1.8" ry="1.8" />
        </g>
        <!-- p -->
        <g id="node3" class="node">
            <title>p</title>
            <ellipse fill="white" stroke="black" cx="62.6" cy="-22" rx="22" ry="22" />
            <ellipse fill="none" stroke="black" cx="62.6" cy="-22" rx="18" ry="18" />
            <text text-anchor="middle" x="62.6" y="-18.3" font-family="Times,serif" font-size="14.00">p</text>
        </g>
        <!-- Initial&#45;&gt;p -->
        <g id="edge1" class="edge">
            <title>Initial&#45;&gt;p</title>
            <path fill="none" stroke="black" d="M3.82,-22C7.33,-22 19.36,-22 31.54,-22" />
            <polygon fill="black" stroke="black" points="31.81,-24.98 40.31,-22 31.81,-19.03 31.81,-24.98" />
        </g>
        <!-- d -->
        <g id="node2" class="node">
            <title>d</title>
            <ellipse fill="white" stroke="black" cx="156.6" cy="-22" rx="18" ry="18" />
            <text text-anchor="middle" x="156.6" y="-18.3" font-family="Times,serif" font-size="14.00">d</text>
        </g>
        <!-- d&#45;&gt;d -->
        <g id="edge5" class="edge">
            <title>d&#45;&gt;d</title>
            <path fill="none" stroke="black"
                d="M148.93,-38.29C147.08,-48.39 149.64,-58 156.6,-58 161.49,-58 164.21,-53.25 164.75,-46.92" />
            <polygon fill="black" stroke="black" points="167.71,-46.61 164.27,-38.29 161.77,-46.94 167.71,-46.61" />
            <text text-anchor="middle" x="156.6" y="-61.8" font-family="Times,serif" font-size="14.00"> b </text>
        </g>
        <!-- d&#45;&gt;p -->
        <g id="edge4" class="edge">
            <title>d&#45;&gt;p</title>
            <path fill="none" stroke="black"
                d="M141.29,-12.13C135.2,-8.51 127.84,-4.84 120.6,-3 110.25,-0.37 99.07,-2.88 89.37,-6.84" />
            <polygon fill="black" stroke="black" points="88.09,-4.16 81.63,-10.43 90.59,-9.56 88.09,-4.16" />
            <text text-anchor="middle" x="111.6" y="-6.8" font-family="Times,serif" font-size="14.00"> a </text>
        </g>
        <!-- p&#45;&gt;d -->
        <g id="edge2" class="edge">
            <title>p&#45;&gt;d</title>
            <path fill="none" stroke="black" d="M84.94,-22C98.26,-22 115.51,-22 129.62,-22" />
            <polygon fill="black" stroke="black" points="129.88,-24.98 138.38,-22 129.88,-19.03 129.88,-24.98" />
            <text text-anchor="middle" x="111.6" y="-25.8" font-family="Times,serif" font-size="14.00"> a </text>
        </g>
        <!-- p&#45;&gt;p -->
        <g id="edge3" class="edge">
            <title>p&#45;&gt;p</title>
            <path fill="none" stroke="black"
                d="M55.28,-42.99C54.38,-53.09 56.82,-62 62.6,-62 66.57,-62 68.97,-57.79 69.78,-51.87" />
            <polygon fill="black" stroke="black" points="72.76,-51.53 69.92,-42.99 66.82,-51.45 72.76,-51.53" />
            <text text-anchor="middle" x="62.6" y="-65.8" font-family="Times,serif" font-size="14.00"> b </text>
        </g>
    </g>
</svg>