<?xml version="1.0" encoding="UTF-8" standalone="no"?>
<!DOCTYPE svg PUBLIC "-//W3C//DTD SVG 1.1//EN" "http://www.w3.org/Graphics/SVG/1.1/DTD/svg11.dtd">
<!-- Generated by graphviz version 2.43.0 (0)
 -->
<!-- Title: %3 Pages: 1 -->
<svg width="410pt" height="108pt" viewBox="0.00 0.00 409.58 108.50" xmlns="http://www.w3.org/2000/svg"
    xmlns:xlink="http://www.w3.org/1999/xlink">
    <g id="graph0" class="graph" transform="scale(1 1) rotate(0) translate(4 104.5)">
        <title>%3</title>
        <polygon fill="none" stroke="transparent" points="-4,4 -4,-104.5 405.58,-104.5 405.58,4 -4,4" />
        <!-- Initial -->
        <g id="node1" class="node">
            <title>Initial</title>
            <ellipse fill="black" stroke="black" cx="1.8" cy="-26.75" rx="1.8" ry="1.8" />
        </g>
        <!-- q0 -->
        <g id="node2" class="node">
            <title>q0</title>
            <ellipse fill="white" stroke="black" cx="63.35" cy="-26.75" rx="23" ry="23" />
            <text text-anchor="middle" x="63.35" y="-23.05" font-family="Times,serif" font-size="14.00">q0</text>
        </g>
        <!-- Initial&#45;&gt;q0 -->
        <g id="edge1" class="edge">
            <title>Initial&#45;&gt;q0</title>
            <path fill="none" stroke="black" d="M3.83,-26.75C7.36,-26.75 19.4,-26.75 31.65,-26.75" />
            <polygon fill="black" stroke="black" points="31.98,-29.72 40.48,-26.75 31.98,-23.77 31.98,-29.72" />
        </g>
        <!-- q1 -->
        <g id="node3" class="node">
            <title>q1</title>
            <ellipse fill="white" stroke="black" cx="162.84" cy="-71.75" rx="23" ry="23" />
            <text text-anchor="middle" x="162.84" y="-68.05" font-family="Times,serif" font-size="14.00">q1</text>
        </g>
        <!-- q0&#45;&gt;q1 -->
        <g id="edge2" class="edge">
            <title>q0&#45;&gt;q1</title>
            <path fill="none" stroke="black"
                d="M80.09,-42.87C86.93,-49.01 95.37,-55.54 104.1,-59.75 112.56,-63.82 122.36,-66.52 131.47,-68.3" />
            <polygon fill="black" stroke="black" points="131.04,-71.24 139.92,-69.74 132.04,-65.38 131.04,-71.24" />
            <text text-anchor="middle" x="113.1" y="-69.55" font-family="Times,serif" font-size="14.00"> a </text>
        </g>
        <!-- q2 -->
        <g id="node4" class="node">
            <title>q2</title>
            <ellipse fill="white" stroke="black" cx="374.84" cy="-26.75" rx="27" ry="27" />
            <ellipse fill="none" stroke="black" cx="374.84" cy="-26.75" rx="22.96" ry="22.96" />
            <text text-anchor="middle" x="374.84" y="-23.05" font-family="Times,serif" font-size="14.00">q2</text>
        </g>
        <!-- q0&#45;&gt;q2 -->
        <g id="edge3" class="edge">
            <title>q0&#45;&gt;q2</title>
            <path fill="none" stroke="black" d="M86.11,-26.75C139.07,-26.75 275.01,-26.75 339.24,-26.75" />
            <polygon fill="black" stroke="black" points="339.31,-29.72 347.81,-26.75 339.31,-23.77 339.31,-29.72" />
            <text text-anchor="middle" x="213.09" y="-30.55" font-family="Times,serif" font-size="14.00"> b </text>
        </g>
        <!-- q1&#45;&gt;q0 -->
        <g id="edge4" class="edge">
            <title>q1&#45;&gt;q0</title>
            <path fill="none" stroke="black"
                d="M145.5,-56.45C138.7,-50.79 130.45,-44.78 122.1,-40.75 113.51,-36.6 103.59,-33.62 94.43,-31.51" />
            <polygon fill="black" stroke="black" points="94.86,-28.56 85.94,-29.74 93.65,-34.39 94.86,-28.56" />
            <text text-anchor="middle" x="113.1" y="-44.55" font-family="Times,serif" font-size="14.00"> a </text>
        </g>
        <!-- q3 -->
        <g id="node5" class="node">
            <title>q3</title>
            <ellipse fill="white" stroke="black" cx="267.34" cy="-73.75" rx="27" ry="27" />
            <ellipse fill="none" stroke="black" cx="267.34" cy="-73.75" rx="22.96" ry="22.96" />
            <text text-anchor="middle" x="267.34" y="-70.05" font-family="Times,serif" font-size="14.00">q3</text>
        </g>
        <!-- q1&#45;&gt;q3 -->
        <g id="edge5" class="edge">
            <title>q1&#45;&gt;q3</title>
            <path fill="none" stroke="black"
                d="M185.71,-72.33C191.52,-72.48 197.79,-72.63 203.59,-72.75 212.75,-72.94 222.67,-73.11 231.86,-73.26" />
            <polygon fill="black" stroke="black" points="231.84,-76.23 240.39,-73.39 231.94,-70.28 231.84,-76.23" />
            <text text-anchor="middle" x="213.09" y="-76.55" font-family="Times,serif" font-size="14.00"> b </text>
        </g>
        <!-- q2&#45;&gt;q0 -->
        <g id="edge7" class="edge">
            <title>q2&#45;&gt;q0</title>
            <path fill="none" stroke="black"
                d="M348.52,-21.07C315.31,-14.28 255.22,-4.24 203.59,-7.75 165.81,-10.31 122.66,-16.75 94.54,-21.42" />
            <polygon fill="black" stroke="black" points="93.85,-18.52 85.96,-22.87 94.84,-24.39 93.85,-18.52" />
            <text text-anchor="middle" x="213.09" y="-11.55" font-family="Times,serif" font-size="14.00"> b </text>
        </g>
        <!-- q2&#45;&gt;q3 -->
        <g id="edge6" class="edge">
            <title>q2&#45;&gt;q3</title>
            <path fill="none" stroke="black"
                d="M348.57,-32.27C337.14,-35.23 323.63,-39.39 312.09,-44.75 306.87,-47.17 301.56,-50.16 296.53,-53.3" />
            <polygon fill="black" stroke="black" points="294.89,-50.81 289.39,-57.94 298.14,-55.8 294.89,-50.81" />
            <text text-anchor="middle" x="321.09" y="-48.55" font-family="Times,serif" font-size="14.00"> a </text>
        </g>
        <!-- q3&#45;&gt;q1 -->
        <g id="edge9" class="edge">
            <title>q3&#45;&gt;q1</title>
            <path fill="none" stroke="black"
                d="M243.37,-61.02C236.85,-58.03 229.61,-55.28 222.59,-53.75 214.34,-51.95 211.85,-51.97 203.59,-53.75 199.46,-54.64 195.24,-56 191.17,-57.58" />
            <polygon fill="black" stroke="black" points="189.72,-54.96 183.09,-61.05 192.07,-60.43 189.72,-54.96" />
            <text text-anchor="middle" x="213.09" y="-57.55" font-family="Times,serif" font-size="14.00"> b </text>
        </g>
        <!-- q3&#45;&gt;q2 -->
        <g id="edge8" class="edge">
            <title>q3&#45;&gt;q2</title>
            <path fill="none" stroke="black"
                d="M294.07,-70.42C305.47,-68.32 318.82,-64.98 330.09,-59.75 335.9,-57.05 341.69,-53.49 347.05,-49.7" />
            <polygon fill="black" stroke="black" points="349.04,-51.92 354.08,-44.46 345.49,-47.16 349.04,-51.92" />
            <text text-anchor="middle" x="321.09" y="-69.55" font-family="Times,serif" font-size="14.00"> a </text>
        </g>
    </g>
</svg>