<?xml version="1.0" encoding="UTF-8" standalone="no"?>
<!DOCTYPE svg PUBLIC "-//W3C//DTD SVG 1.1//EN" "http://www.w3.org/Graphics/SVG/1.1/DTD/svg11.dtd">
<!-- Generated by graphviz version 2.43.0 (0)
 -->
<!-- Title: %3 Pages: 1 -->
<svg width="397pt" height="244pt" viewBox="0.00 0.00 397.38 244.20" xmlns="http://www.w3.org/2000/svg"
    xmlns:xlink="http://www.w3.org/1999/xlink">
    <g id="graph0" class="graph" transform="scale(1 1) rotate(0) translate(4 240.2)">
        <title>%3</title>
        <polygon fill="none" stroke="transparent" points="-4,4 -4,-240.2 393.38,-240.2 393.38,4 -4,4" />
        <!-- Initial -->
        <g id="node1" class="node">
            <title>Initial</title>
            <ellipse fill="black" stroke="black" cx="1.8" cy="-180.45" rx="1.8" ry="1.8" />
        </g>
        <!-- bb -->
        <g id="node5" class="node">
            <title>bb</title>
            <ellipse fill="white" stroke="black" cx="63.35" cy="-180.45" rx="23" ry="23" />
            <text text-anchor="middle" x="63.35" y="-176.75" font-family="Times,serif" font-size="14.00">bb</text>
        </g>
        <!-- Initial&#45;&gt;bb -->
        <g id="edge1" class="edge">
            <title>Initial&#45;&gt;bb</title>
            <path fill="none" stroke="black" d="M3.83,-180.45C7.36,-180.45 19.4,-180.45 31.65,-180.45" />
            <polygon fill="black" stroke="black" points="31.98,-183.42 40.48,-180.45 31.98,-177.47 31.98,-183.42" />
        </g>
        <!-- aa -->
        <g id="node2" class="node">
            <title>aa</title>
            <ellipse fill="white" stroke="black" cx="260.74" cy="-21.45" rx="21.4" ry="21.4" />
            <text text-anchor="middle" x="260.74" y="-17.75" font-family="Times,serif" font-size="14.00">aa</text>
        </g>
        <!-- aa&#45;&gt;aa -->
        <g id="edge2" class="edge">
            <title>aa&#45;&gt;aa</title>
            <path fill="none" stroke="black"
                d="M252.06,-41.34C250.72,-51.62 253.62,-60.9 260.74,-60.9 265.75,-60.9 268.67,-56.31 269.49,-50.02" />
            <polygon fill="black" stroke="black" points="272.47,-49.81 269.42,-41.34 266.52,-49.86 272.47,-49.81" />
            <text text-anchor="middle" x="260.74" y="-64.7" font-family="Times,serif" font-size="14.00"> a </text>
        </g>
        <!-- ab -->
        <g id="node3" class="node">
            <title>ab</title>
            <ellipse fill="white" stroke="black" cx="363.29" cy="-136.45" rx="26.2" ry="26.2" />
            <ellipse fill="none" stroke="black" cx="363.29" cy="-136.45" rx="22.18" ry="22.18" />
            <text text-anchor="middle" x="363.29" y="-132.75" font-family="Times,serif" font-size="14.00">ab</text>
        </g>
        <!-- aa&#45;&gt;ab -->
        <g id="edge3" class="edge">
            <title>aa&#45;&gt;ab</title>
            <path fill="none" stroke="black"
                d="M276.74,-36.67C288.54,-48.82 305.27,-66.4 319.19,-82.45 326.63,-91.03 334.46,-100.65 341.38,-109.37" />
            <polygon fill="black" stroke="black" points="339.11,-111.29 346.71,-116.13 343.78,-107.61 339.11,-111.29" />
            <text text-anchor="middle" x="309.69" y="-86.25" font-family="Times,serif" font-size="14.00"> b </text>
        </g>
        <!-- ba -->
        <g id="node4" class="node">
            <title>ba</title>
            <ellipse fill="white" stroke="black" cx="162.19" cy="-133.45" rx="22.2" ry="22.2" />
            <text text-anchor="middle" x="162.19" y="-129.75" font-family="Times,serif" font-size="14.00">ba</text>
        </g>
        <!-- ab&#45;&gt;ba -->
        <g id="edge4" class="edge">
            <title>ab&#45;&gt;ba</title>
            <path fill="none" stroke="black"
                d="M337.48,-132.15C321.71,-129.64 300.81,-126.72 282.19,-125.45 263.17,-124.15 258.33,-124.45 239.29,-125.45 223.95,-126.25 206.93,-127.96 192.89,-129.6" />
            <polygon fill="black" stroke="black" points="192.23,-126.68 184.14,-130.65 192.94,-132.59 192.23,-126.68" />
            <text text-anchor="middle" x="260.74" y="-129.25" font-family="Times,serif" font-size="14.00"> a </text>
        </g>
        <!-- ab&#45;&gt;bb -->
        <g id="edge5" class="edge">
            <title>ab&#45;&gt;bb</title>
            <path fill="none" stroke="black"
                d="M339.86,-148C333.31,-151.05 326.07,-154.14 319.19,-156.45 303.24,-161.8 298.82,-161.88 282.19,-164.45 211.56,-175.35 193.45,-175.49 122.1,-179.45 113.33,-179.93 103.8,-180.2 95.06,-180.35" />
            <polygon fill="black" stroke="black" points="94.76,-177.38 86.3,-180.46 94.84,-183.33 94.76,-177.38" />
            <text text-anchor="middle" x="211.79" y="-178.25" font-family="Times,serif" font-size="14.00"> b </text>
        </g>
        <!-- ba&#45;&gt;aa -->
        <g id="edge6" class="edge">
            <title>ba&#45;&gt;aa</title>
            <path fill="none" stroke="black"
                d="M176.16,-115.63C183.57,-105.68 193.19,-93.16 202.29,-82.45 213.79,-68.92 227.39,-54.43 238.46,-42.96" />
            <polygon fill="black" stroke="black" points="240.86,-44.76 244.66,-36.6 236.6,-40.61 240.86,-44.76" />
            <text text-anchor="middle" x="211.79" y="-86.25" font-family="Times,serif" font-size="14.00"> a </text>
        </g>
        <!-- ba&#45;&gt;ab -->
        <g id="edge7" class="edge">
            <title>ba&#45;&gt;ab</title>
            <path fill="none" stroke="black"
                d="M183.74,-139.09C189.68,-140.48 196.2,-141.76 202.29,-142.45 253.91,-148.31 267.36,-146.04 319.19,-142.45 322.31,-142.23 325.55,-141.93 328.79,-141.57" />
            <polygon fill="black" stroke="black" points="329.21,-144.52 337.28,-140.53 328.48,-138.61 329.21,-144.52" />
            <text text-anchor="middle" x="260.74" y="-149.25" font-family="Times,serif" font-size="14.00"> b </text>
        </g>
        <!-- bb&#45;&gt;ba -->
        <g id="edge8" class="edge">
            <title>bb&#45;&gt;ba</title>
            <path fill="none" stroke="black" d="M84.41,-170.71C98.76,-163.75 118.22,-154.3 133.97,-146.66" />
            <polygon fill="black" stroke="black" points="135.47,-149.24 141.81,-142.85 132.87,-143.89 135.47,-149.24" />
            <text text-anchor="middle" x="113.1" y="-164.25" font-family="Times,serif" font-size="14.00"> a </text>
        </g>
        <!-- bb&#45;&gt;bb -->
        <g id="edge9" class="edge">
            <title>bb&#45;&gt;bb</title>
            <path fill="none" stroke="black"
                d="M56,-202.25C55.19,-212.36 57.64,-221.2 63.35,-221.2 67.27,-221.2 69.65,-217.02 70.5,-211.12" />
            <polygon fill="black" stroke="black" points="73.48,-210.81 70.7,-202.25 67.53,-210.68 73.48,-210.81" />
            <text text-anchor="middle" x="63.35" y="-225" font-family="Times,serif" font-size="14.00"> b </text>
        </g>
    </g>
</svg>