<?xml version="1.0" encoding="UTF-8" standalone="no"?>
<!DOCTYPE svg PUBLIC "-//W3C//DTD SVG 1.1//EN" "http://www.w3.org/Graphics/SVG/1.1/DTD/svg11.dtd">
<!-- Generated by graphviz version 2.43.0 (0)
 -->
<!-- Title: %3 Pages: 1 -->
<svg width="400pt" height="179pt" viewBox="0.00 0.00 399.59 179.50" xmlns="http://www.w3.org/2000/svg"
    xmlns:xlink="http://www.w3.org/1999/xlink">
    <g id="graph0" class="graph" transform="scale(1 1) rotate(0) translate(4 175.5)">
        <title>%3</title>
        <polygon fill="none" stroke="transparent" points="-4,4 -4,-175.5 395.59,-175.5 395.59,4 -4,4" />
        <!-- Initial -->
        <g id="node1" class="node">
            <title>Initial</title>
            <ellipse fill="black" stroke="black" cx="1.8" cy="-26.75" rx="1.8" ry="1.8" />
        </g>
        <!-- q0 -->
        <g id="node4" class="node">
            <title>q0</title>
            <ellipse fill="white" stroke="black" cx="67.35" cy="-26.75" rx="27" ry="27" />
            <ellipse fill="none" stroke="black" cx="67.35" cy="-26.75" rx="22.96" ry="22.96" />
            <text text-anchor="middle" x="67.35" y="-23.05" font-family="Times,serif" font-size="14.00">q0</text>
        </g>
        <!-- Initial&#45;&gt;q0 -->
        <g id="edge1" class="edge">
            <title>Initial&#45;&gt;q0</title>
            <path fill="none" stroke="black" d="M3.9,-26.75C7.49,-26.75 19.32,-26.75 31.74,-26.75" />
            <polygon fill="black" stroke="black" points="31.83,-29.72 40.33,-26.75 31.83,-23.77 31.83,-29.72" />
        </g>
        <!-- a -->
        <g id="node2" class="node">
            <title>a</title>
            <ellipse fill="white" stroke="black" cx="170.1" cy="-73.75" rx="22" ry="22" />
            <ellipse fill="none" stroke="black" cx="170.1" cy="-73.75" rx="18" ry="18" />
            <text text-anchor="middle" x="170.1" y="-70.05" font-family="Times,serif" font-size="14.00">a</text>
        </g>
        <!-- b -->
        <g id="node3" class="node">
            <title>b</title>
            <ellipse fill="white" stroke="black" cx="269.1" cy="-48.75" rx="22" ry="22" />
            <ellipse fill="none" stroke="black" cx="269.1" cy="-48.75" rx="18" ry="18" />
            <text text-anchor="middle" x="269.1" y="-45.05" font-family="Times,serif" font-size="14.00">b</text>
        </g>
        <!-- a&#45;&gt;b -->
        <g id="edge5" class="edge">
            <title>a&#45;&gt;b</title>
            <path fill="none" stroke="black"
                d="M191.81,-68.95C202.9,-66.33 216.77,-62.97 229.1,-59.75 232.37,-58.89 235.79,-57.97 239.19,-57.03" />
            <polygon fill="black" stroke="black" points="240.1,-59.87 247.49,-54.72 238.5,-54.14 240.1,-59.87" />
            <text text-anchor="middle" x="219.6" y="-67.55" font-family="Times,serif" font-size="14.00"> b </text>
        </g>
        <!-- qT -->
        <g id="node5" class="node">
            <title>qT</title>
            <ellipse fill="white" stroke="black" cx="368.84" cy="-82.75" rx="23" ry="23" />
            <text text-anchor="middle" x="368.84" y="-79.05" font-family="Times,serif" font-size="14.00">qT</text>
        </g>
        <!-- a&#45;&gt;qT -->
        <g id="edge4" class="edge">
            <title>a&#45;&gt;qT</title>
            <path fill="none" stroke="black"
                d="M191.61,-79.2C197.54,-80.58 204.04,-81.9 210.1,-82.75 262.08,-90 275.71,-91.03 328.1,-87.75 331.1,-87.56 334.23,-87.29 337.35,-86.98" />
            <polygon fill="black" stroke="black" points="337.91,-89.91 346.02,-85.99 337.24,-84 337.91,-89.91" />
            <text text-anchor="middle" x="269.1" y="-92.55" font-family="Times,serif" font-size="14.00"> a </text>
        </g>
        <!-- b&#45;&gt;a -->
        <g id="edge6" class="edge">
            <title>b&#45;&gt;a</title>
            <path fill="none" stroke="black"
                d="M248.26,-41.39C236.81,-38.27 222.31,-36.27 210.1,-40.75 203.54,-43.15 197.32,-47.2 191.86,-51.65" />
            <polygon fill="black" stroke="black" points="189.76,-49.54 185.38,-57.41 193.71,-53.99 189.76,-49.54" />
            <text text-anchor="middle" x="219.6" y="-44.55" font-family="Times,serif" font-size="14.00"> a </text>
        </g>
        <!-- b&#45;&gt;qT -->
        <g id="edge7" class="edge">
            <title>b&#45;&gt;qT</title>
            <path fill="none" stroke="black" d="M290.35,-55.79C304.32,-60.65 323.1,-67.18 338.67,-72.6" />
            <polygon fill="black" stroke="black" points="337.94,-75.49 346.94,-75.48 339.89,-69.88 337.94,-75.49" />
            <text text-anchor="middle" x="318.6" y="-72.55" font-family="Times,serif" font-size="14.00"> b </text>
        </g>
        <!-- q0&#45;&gt;a -->
        <g id="edge2" class="edge">
            <title>q0&#45;&gt;a</title>
            <path fill="none" stroke="black" d="M91.97,-37.77C106.93,-44.75 126.32,-53.79 141.91,-61.07" />
            <polygon fill="black" stroke="black" points="140.72,-63.79 149.68,-64.69 143.23,-58.4 140.72,-63.79" />
            <text text-anchor="middle" x="121.1" y="-57.55" font-family="Times,serif" font-size="14.00"> a </text>
        </g>
        <!-- q0&#45;&gt;b -->
        <g id="edge3" class="edge">
            <title>q0&#45;&gt;b</title>
            <path fill="none" stroke="black"
                d="M94.21,-24.45C126.42,-22.35 182.85,-21.25 229.1,-33.75 232.82,-34.75 236.68,-35.99 240.46,-37.32" />
            <polygon fill="black" stroke="black" points="239.51,-40.14 248.52,-40.31 241.59,-34.56 239.51,-40.14" />
            <text text-anchor="middle" x="170.1" y="-29.55" font-family="Times,serif" font-size="14.00"> b </text>
        </g>
        <!-- qT&#45;&gt;qT -->
        <g id="edge8" class="edge">
            <title>qT&#45;&gt;qT</title>
            <path fill="none" stroke="black"
                d="M364.21,-105.38C363.83,-115.14 365.38,-123.5 368.84,-123.5 371.23,-123.5 372.7,-119.55 373.27,-113.9" />
            <polygon fill="black" stroke="black" points="376.24,-113.95 373.48,-105.38 370.29,-113.8 376.24,-113.95" />
            <text text-anchor="middle" x="368.84" y="-127.3" font-family="Times,serif" font-size="14.00"> a </text>
        </g>
        <!-- qT&#45;&gt;qT -->
        <g id="edge9" class="edge">
            <title>qT&#45;&gt;qT</title>
            <path fill="none" stroke="black"
                d="M360.96,-104.13C357.47,-122.35 360.1,-141.5 368.84,-141.5 376.22,-141.5 379.24,-127.86 377.92,-112.66" />
            <polygon fill="black" stroke="black" points="380.85,-112.14 376.73,-104.13 374.95,-112.96 380.85,-112.14" />
            <text text-anchor="middle" x="368.84" y="-145.3" font-family="Times,serif" font-size="14.00"> b </text>
        </g>
    </g>
</svg>