<?xml version="1.0" encoding="UTF-8" standalone="no"?>
<!DOCTYPE svg PUBLIC "-//W3C//DTD SVG 1.1//EN" "http://www.w3.org/Graphics/SVG/1.1/DTD/svg11.dtd">
<!-- Generated by graphviz version 2.43.0 (0)
 -->
<!-- Title: %3 Pages: 1 -->
<svg width="291pt" height="103pt" viewBox="0.00 0.00 291.39 102.85" xmlns="http://www.w3.org/2000/svg"
    xmlns:xlink="http://www.w3.org/1999/xlink">
    <g id="graph0" class="graph" transform="scale(1 1) rotate(0) translate(4 98.85)">
        <title>%3</title>
        <polygon fill="none" stroke="transparent" points="-4,4 -4,-98.85 287.39,-98.85 287.39,4 -4,4" />
        <!-- Initial -->
        <g id="node1" class="node">
            <title>Initial</title>
            <ellipse fill="black" stroke="black" cx="1.8" cy="-21.05" rx="1.8" ry="1.8" />
        </g>
        <!-- r0 -->
        <g id="node2" class="node">
            <title>r0</title>
            <ellipse fill="white" stroke="black" cx="61.4" cy="-21.05" rx="20.6" ry="20.6" />
            <text text-anchor="middle" x="61.4" y="-17.35" font-family="Times,serif" font-size="14.00">r0</text>
        </g>
        <!-- Initial&#45;&gt;r0 -->
        <g id="edge1" class="edge">
            <title>Initial&#45;&gt;r0</title>
            <path fill="none" stroke="black" d="M3.8,-21.05C7.31,-21.05 19.52,-21.05 31.7,-21.05" />
            <polygon fill="black" stroke="black" points="31.95,-24.03 40.45,-21.05 31.95,-18.08 31.95,-24.03" />
        </g>
        <!-- r1 -->
        <g id="node3" class="node">
            <title>r1</title>
            <ellipse fill="white" stroke="black" cx="161.99" cy="-70.05" rx="24.6" ry="24.6" />
            <ellipse fill="none" stroke="black" cx="161.99" cy="-70.05" rx="20.63" ry="20.63" />
            <text text-anchor="middle" x="161.99" y="-66.35" font-family="Times,serif" font-size="14.00">r1</text>
        </g>
        <!-- r0&#45;&gt;r1 -->
        <g id="edge2" class="edge">
            <title>r0&#45;&gt;r1</title>
            <path fill="none" stroke="black"
                d="M76.29,-35.95C82.97,-42.35 91.42,-49.4 100.2,-54.05 108.98,-58.71 119.21,-62.08 128.75,-64.49" />
            <polygon fill="black" stroke="black" points="128.3,-67.44 137.25,-66.44 129.63,-61.64 128.3,-67.44" />
            <text text-anchor="middle" x="109.7" y="-64.85" font-family="Times,serif" font-size="14.00"> 4 </text>
        </g>
        <!-- r2 -->
        <g id="node4" class="node">
            <title>r2</title>
            <ellipse fill="white" stroke="black" cx="262.59" cy="-21.05" rx="20.6" ry="20.6" />
            <text text-anchor="middle" x="262.59" y="-17.35" font-family="Times,serif" font-size="14.00">r2</text>
        </g>
        <!-- r0&#45;&gt;r2 -->
        <g id="edge3" class="edge">
            <title>r0&#45;&gt;r2</title>
            <path fill="none" stroke="black" d="M82.23,-21.05C117.63,-21.05 191.85,-21.05 232.85,-21.05" />
            <polygon fill="black" stroke="black" points="233.05,-24.03 241.55,-21.05 233.05,-18.08 233.05,-24.03" />
            <text text-anchor="middle" x="161.99" y="-24.85" font-family="Times,serif" font-size="14.00"> 5 </text>
        </g>
        <!-- r1&#45;&gt;r0 -->
        <g id="edge5" class="edge">
            <title>r1&#45;&gt;r0</title>
            <path fill="none" stroke="black"
                d="M143.98,-52.76C136.85,-46.37 128.14,-39.59 119.2,-35.05 110.32,-30.55 99.92,-27.44 90.45,-25.32" />
            <polygon fill="black" stroke="black" points="91.02,-22.4 82.1,-23.64 89.85,-28.23 91.02,-22.4" />
            <text text-anchor="middle" x="109.7" y="-38.85" font-family="Times,serif" font-size="14.00"> 5 </text>
        </g>
        <!-- r1&#45;&gt;r2 -->
        <g id="edge4" class="edge">
            <title>r1&#45;&gt;r2</title>
            <path fill="none" stroke="black"
                d="M186.74,-66.44C198.37,-64.02 212.32,-60.14 223.79,-54.05 229.96,-50.78 235.97,-46.32 241.32,-41.74" />
            <polygon fill="black" stroke="black" points="243.4,-43.87 247.7,-35.95 239.41,-39.46 243.4,-43.87" />
            <text text-anchor="middle" x="214.29" y="-64.85" font-family="Times,serif" font-size="14.00"> 4 </text>
        </g>
        <!-- r2&#45;&gt;r0 -->
        <g id="edge6" class="edge">
            <title>r2&#45;&gt;r0</title>
            <path fill="none" stroke="black"
                d="M242.47,-14.79C227.51,-10.24 206.07,-4.46 186.79,-2.05 164.92,0.68 159.07,0.68 137.2,-2.05 121.23,-4.05 103.79,-8.35 89.76,-12.36" />
            <polygon fill="black" stroke="black" points="88.83,-9.53 81.52,-14.79 90.51,-15.24 88.83,-9.53" />
            <text text-anchor="middle" x="161.99" y="-5.85" font-family="Times,serif" font-size="14.00"> 4 </text>
        </g>
        <!-- r2&#45;&gt;r1 -->
        <g id="edge7" class="edge">
            <title>r2&#45;&gt;r1</title>
            <path fill="none" stroke="black"
                d="M241.89,-23.64C230.59,-25.67 216.39,-29.17 204.79,-35.05 198.5,-38.24 192.33,-42.54 186.74,-47.03" />
            <polygon fill="black" stroke="black" points="184.56,-44.98 180.01,-52.76 188.42,-49.52 184.56,-44.98" />
            <text text-anchor="middle" x="214.29" y="-38.85" font-family="Times,serif" font-size="14.00"> 5 </text>
        </g>
    </g>
</svg>