<?xml version="1.0" encoding="UTF-8" standalone="no"?>
<!DOCTYPE svg PUBLIC "-//W3C//DTD SVG 1.1//EN" "http://www.w3.org/Graphics/SVG/1.1/DTD/svg11.dtd">
<!-- Generated by graphviz version 2.43.0 (0)
 -->
<!-- Title: %3 Pages: 1 -->
<svg width="311pt" height="94pt" viewBox="0.00 0.00 311.19 94.50" xmlns="http://www.w3.org/2000/svg"
    xmlns:xlink="http://www.w3.org/1999/xlink">
    <g id="graph0" class="graph" transform="scale(1 1) rotate(0) translate(4 90.5)">
        <title>%3</title>
        <polygon fill="none" stroke="transparent" points="-4,4 -4,-90.5 307.19,-90.5 307.19,4 -4,4" />
        <!-- Initial -->
        <g id="node1" class="node">
            <title>Initial</title>
            <ellipse fill="black" stroke="black" cx="1.8" cy="-26.75" rx="1.8" ry="1.8" />
        </g>
        <!-- qa -->
        <g id="node2" class="node">
            <title>qa</title>
            <ellipse fill="white" stroke="black" cx="66.7" cy="-26.75" rx="26.2" ry="26.2" />
            <ellipse fill="none" stroke="black" cx="66.7" cy="-26.75" rx="22.18" ry="22.18" />
            <text text-anchor="middle" x="66.7" y="-23.05" font-family="Times,serif" font-size="14.00">qa</text>
        </g>
        <!-- Initial&#45;&gt;qa -->
        <g id="edge1" class="edge">
            <title>Initial&#45;&gt;qa</title>
            <path fill="none" stroke="black" d="M3.89,-26.75C7.47,-26.75 19.33,-26.75 31.72,-26.75" />
            <polygon fill="black" stroke="black" points="31.78,-29.72 40.28,-26.75 31.78,-23.77 31.78,-29.72" />
        </g>
        <!-- qa&#45;&gt;qa -->
        <g id="edge2" class="edge">
            <title>qa&#45;&gt;qa</title>
            <path fill="none" stroke="black"
                d="M58.52,-51.68C57.96,-62.05 60.68,-70.85 66.7,-70.85 70.93,-70.85 73.53,-66.5 74.51,-60.31" />
            <polygon fill="black" stroke="black" points="77.49,-60.3 74.88,-51.68 71.54,-60.05 77.49,-60.3" />
            <text text-anchor="middle" x="66.7" y="-74.65" font-family="Times,serif" font-size="14.00"> a </text>
        </g>
        <!-- qb -->
        <g id="node3" class="node">
            <title>qb</title>
            <ellipse fill="white" stroke="black" cx="172.54" cy="-26.75" rx="27" ry="27" />
            <ellipse fill="none" stroke="black" cx="172.54" cy="-26.75" rx="22.96" ry="22.96" />
            <text text-anchor="middle" x="172.54" y="-23.05" font-family="Times,serif" font-size="14.00">qb</text>
        </g>
        <!-- qa&#45;&gt;qb -->
        <g id="edge3" class="edge">
            <title>qa&#45;&gt;qb</title>
            <path fill="none" stroke="black" d="M92.84,-26.75C106.06,-26.75 122.47,-26.75 136.88,-26.75" />
            <polygon fill="black" stroke="black" points="137.05,-29.72 145.55,-26.75 137.05,-23.77 137.05,-29.72" />
            <text text-anchor="middle" x="119.3" y="-30.55" font-family="Times,serif" font-size="14.00"> ε </text>
        </g>
        <!-- qb&#45;&gt;qb -->
        <g id="edge4" class="edge">
            <title>qb&#45;&gt;qb</title>
            <path fill="none" stroke="black"
                d="M162.88,-52.05C162.21,-62.57 165.43,-71.5 172.54,-71.5 177.54,-71.5 180.62,-67.09 181.77,-60.81" />
            <polygon fill="black" stroke="black" points="184.76,-60.69 182.21,-52.05 178.82,-60.39 184.76,-60.69" />
            <text text-anchor="middle" x="172.54" y="-75.3" font-family="Times,serif" font-size="14.00"> b </text>
        </g>
        <!-- qc -->
        <g id="node4" class="node">
            <title>qc</title>
            <ellipse fill="white" stroke="black" cx="277.74" cy="-26.75" rx="25.4" ry="25.4" />
            <ellipse fill="none" stroke="black" cx="277.74" cy="-26.75" rx="21.4" ry="21.4" />
            <text text-anchor="middle" x="277.74" y="-23.05" font-family="Times,serif" font-size="14.00">qc</text>
        </g>
        <!-- qb&#45;&gt;qc -->
        <g id="edge5" class="edge">
            <title>qb&#45;&gt;qc</title>
            <path fill="none" stroke="black" d="M199.32,-26.75C212.67,-26.75 229.12,-26.75 243.42,-26.75" />
            <polygon fill="black" stroke="black" points="243.5,-29.72 252,-26.75 243.5,-23.77 243.5,-29.72" />
            <text text-anchor="middle" x="225.79" y="-30.55" font-family="Times,serif" font-size="14.00"> ε </text>
        </g>
        <!-- qc&#45;&gt;qc -->
        <g id="edge6" class="edge">
            <title>qc&#45;&gt;qc</title>
            <path fill="none" stroke="black"
                d="M268.48,-50.88C267.72,-61.28 270.81,-70.2 277.74,-70.2 282.62,-70.2 285.59,-65.79 286.66,-59.56" />
            <polygon fill="black" stroke="black" points="289.64,-59.49 287,-50.88 283.7,-59.25 289.64,-59.49" />
            <text text-anchor="middle" x="277.74" y="-74" font-family="Times,serif" font-size="14.00"> c </text>
        </g>
    </g>
</svg>