<?xml version="1.0" encoding="UTF-8" standalone="no"?>
<!DOCTYPE svg PUBLIC "-//W3C//DTD SVG 1.1//EN" "http://www.w3.org/Graphics/SVG/1.1/DTD/svg11.dtd">
<!-- Generated by graphviz version 2.43.0 (0)
 -->
<!-- Title: %3 Pages: 1 -->
<svg width="313pt" height="138pt" viewBox="0.00 0.00 313.19 137.85" xmlns="http://www.w3.org/2000/svg"
    xmlns:xlink="http://www.w3.org/1999/xlink">
    <g id="graph0" class="graph" transform="scale(1 1) rotate(0) translate(4 133.85)">
        <title>%3</title>
        <polygon fill="none" stroke="transparent" points="-4,4 -4,-133.85 309.19,-133.85 309.19,4 -4,4" />
        <!-- Initial -->
        <g id="node1" class="node">
            <title>Initial</title>
            <ellipse fill="black" stroke="black" cx="1.8" cy="-26.1" rx="1.8" ry="1.8" />
        </g>
        <!-- qa -->
        <g id="node2" class="node">
            <title>qa</title>
            <ellipse fill="white" stroke="black" cx="66.7" cy="-26.1" rx="26.2" ry="26.2" />
            <ellipse fill="none" stroke="black" cx="66.7" cy="-26.1" rx="22.18" ry="22.18" />
            <text text-anchor="middle" x="66.7" y="-22.4" font-family="Times,serif" font-size="14.00">qa</text>
        </g>
        <!-- Initial&#45;&gt;qa -->
        <g id="edge1" class="edge">
            <title>Initial&#45;&gt;qa</title>
            <path fill="none" stroke="black" d="M3.89,-26.1C7.47,-26.1 19.33,-26.1 31.72,-26.1" />
            <polygon fill="black" stroke="black" points="31.78,-29.07 40.28,-26.1 31.78,-23.12 31.78,-29.07" />
        </g>
        <!-- qa&#45;&gt;qa -->
        <g id="edge2" class="edge">
            <title>qa&#45;&gt;qa</title>
            <path fill="none" stroke="black"
                d="M58.52,-51.03C57.96,-61.4 60.68,-70.2 66.7,-70.2 70.93,-70.2 73.53,-65.85 74.51,-59.66" />
            <polygon fill="black" stroke="black" points="77.49,-59.65 74.88,-51.03 71.54,-59.4 77.49,-59.65" />
            <text text-anchor="middle" x="66.7" y="-74" font-family="Times,serif" font-size="14.00"> a </text>
        </g>
        <!-- qb -->
        <g id="node3" class="node">
            <title>qb</title>
            <ellipse fill="white" stroke="black" cx="174.54" cy="-70.1" rx="27" ry="27" />
            <ellipse fill="none" stroke="black" cx="174.54" cy="-70.1" rx="22.96" ry="22.96" />
            <text text-anchor="middle" x="174.54" y="-66.4" font-family="Times,serif" font-size="14.00">qb</text>
        </g>
        <!-- qa&#45;&gt;qb -->
        <g id="edge3" class="edge">
            <title>qa&#45;&gt;qb</title>
            <path fill="none" stroke="black" d="M91.19,-35.86C105.92,-41.99 125.11,-49.96 141.26,-56.68" />
            <polygon fill="black" stroke="black" points="140.39,-59.54 149.39,-60.06 142.68,-54.05 140.39,-59.54" />
            <text text-anchor="middle" x="120.3" y="-53.9" font-family="Times,serif" font-size="14.00"> b </text>
        </g>
        <!-- qc -->
        <g id="node4" class="node">
            <title>qc</title>
            <ellipse fill="white" stroke="black" cx="279.74" cy="-26.1" rx="25.4" ry="25.4" />
            <ellipse fill="none" stroke="black" cx="279.74" cy="-26.1" rx="21.4" ry="21.4" />
            <text text-anchor="middle" x="279.74" y="-22.4" font-family="Times,serif" font-size="14.00">qc</text>
        </g>
        <!-- qa&#45;&gt;qc -->
        <g id="edge4" class="edge">
            <title>qa&#45;&gt;qc</title>
            <path fill="none" stroke="black"
                d="M92.91,-23.33C108.67,-21.74 129.39,-19.9 147.8,-19.1 171.55,-18.06 177.54,-18.03 201.29,-19.1 215.9,-19.76 232,-21.11 245.73,-22.45" />
            <polygon fill="black" stroke="black" points="245.6,-25.43 254.36,-23.33 246.2,-19.51 245.6,-25.43" />
            <text text-anchor="middle" x="174.54" y="-22.9" font-family="Times,serif" font-size="14.00"> c </text>
        </g>
        <!-- qb&#45;&gt;qb -->
        <g id="edge5" class="edge">
            <title>qb&#45;&gt;qb</title>
            <path fill="none" stroke="black"
                d="M164.88,-95.4C164.21,-105.92 167.43,-114.85 174.54,-114.85 179.54,-114.85 182.62,-110.44 183.77,-104.16" />
            <polygon fill="black" stroke="black" points="186.76,-104.04 184.21,-95.4 180.82,-103.74 186.76,-104.04" />
            <text text-anchor="middle" x="174.54" y="-118.65" font-family="Times,serif" font-size="14.00"> b </text>
        </g>
        <!-- qb&#45;&gt;qc -->
        <g id="edge6" class="edge">
            <title>qb&#45;&gt;qc</title>
            <path fill="none" stroke="black" d="M199.48,-59.89C213.85,-53.77 232.28,-45.91 247.75,-39.31" />
            <polygon fill="black" stroke="black" points="249.35,-41.87 256,-35.79 247.01,-36.39 249.35,-41.87" />
            <text text-anchor="middle" x="227.79" y="-53.9" font-family="Times,serif" font-size="14.00"> c </text>
        </g>
        <!-- qc&#45;&gt;qc -->
        <g id="edge7" class="edge">
            <title>qc&#45;&gt;qc</title>
            <path fill="none" stroke="black"
                d="M270.48,-50.23C269.72,-60.63 272.81,-69.55 279.74,-69.55 284.62,-69.55 287.59,-65.14 288.66,-58.91" />
            <polygon fill="black" stroke="black" points="291.64,-58.84 289,-50.23 285.7,-58.6 291.64,-58.84" />
            <text text-anchor="middle" x="279.74" y="-73.35" font-family="Times,serif" font-size="14.00"> c </text>
        </g>
    </g>
</svg>