<?xml version="1.0" encoding="UTF-8" standalone="no"?>
<!DOCTYPE svg PUBLIC "-//W3C//DTD SVG 1.1//EN" "http://www.w3.org/Graphics/SVG/1.1/DTD/svg11.dtd">
<!-- Generated by graphviz version 2.43.0 (0)
 -->
<!-- Title: %3 Pages: 1 -->
<svg width="404pt" height="204pt" viewBox="0.00 0.00 403.58 203.55" xmlns="http://www.w3.org/2000/svg"
    xmlns:xlink="http://www.w3.org/1999/xlink">
    <g id="graph0" class="graph" transform="scale(1 1) rotate(0) translate(4 199.55)">
        <title>%3</title>
        <polygon fill="none" stroke="transparent" points="-4,4 -4,-199.55 399.58,-199.55 399.58,4 -4,4" />
        <!-- Initial1 -->
        <g id="node1" class="node">
            <title>Initial1</title>
            <ellipse fill="black" stroke="black" cx="1.8" cy="-106.8" rx="1.8" ry="1.8" />
        </g>
        <!-- q0 -->
        <g id="node5" class="node">
            <title>q0</title>
            <ellipse fill="white" stroke="black" cx="63.35" cy="-106.8" rx="23" ry="23" />
            <text text-anchor="middle" x="63.35" y="-103.1" font-family="Times,serif" font-size="14.00">q0</text>
        </g>
        <!-- Initial1&#45;&gt;q0 -->
        <g id="edge1" class="edge">
            <title>Initial1&#45;&gt;q0</title>
            <path fill="none" stroke="black" d="M3.83,-106.8C7.36,-106.8 19.4,-106.8 31.65,-106.8" />
            <polygon fill="black" stroke="black" points="31.98,-109.78 40.48,-106.8 31.98,-103.83 31.98,-109.78" />
        </g>
        <!-- Initial2 -->
        <g id="node2" class="node">
            <title>Initial2</title>
            <ellipse fill="black" stroke="black" cx="63.35" cy="-63.8" rx="1.8" ry="1.8" />
        </g>
        <!-- q1 -->
        <g id="node6" class="node">
            <title>q1</title>
            <ellipse fill="white" stroke="black" cx="163.84" cy="-82.8" rx="23" ry="23" />
            <text text-anchor="middle" x="163.84" y="-79.1" font-family="Times,serif" font-size="14.00">q1</text>
        </g>
        <!-- Initial2&#45;&gt;q1 -->
        <g id="edge2" class="edge">
            <title>Initial2&#45;&gt;q1</title>
            <path fill="none" stroke="black" d="M65.45,-64.01C72.02,-65.28 106.52,-71.93 132.6,-76.97" />
            <polygon fill="black" stroke="black" points="132.17,-79.91 141.08,-78.6 133.29,-74.07 132.17,-79.91" />
        </g>
        <!-- Initial3 -->
        <g id="node3" class="node">
            <title>Initial3</title>
            <ellipse fill="black" stroke="black" cx="163.84" cy="-25.8" rx="1.8" ry="1.8" />
        </g>
        <!-- q2 -->
        <g id="node7" class="node">
            <title>q2</title>
            <ellipse fill="white" stroke="black" cx="264.34" cy="-58.8" rx="23" ry="23" />
            <text text-anchor="middle" x="264.34" y="-55.1" font-family="Times,serif" font-size="14.00">q2</text>
        </g>
        <!-- Initial3&#45;&gt;q2 -->
        <g id="edge3" class="edge">
            <title>Initial3&#45;&gt;q2</title>
            <path fill="none" stroke="black" d="M165.95,-26.17C172.62,-28.41 208.12,-40.3 234.34,-49.08" />
            <polygon fill="black" stroke="black" points="233.48,-51.93 242.48,-51.81 235.37,-46.29 233.48,-51.93" />
        </g>
        <!-- Initial4 -->
        <g id="node4" class="node">
            <title>Initial4</title>
            <ellipse fill="black" stroke="black" cx="264.34" cy="-1.8" rx="1.8" ry="1.8" />
        </g>
        <!-- q3 -->
        <g id="node8" class="node">
            <title>q3</title>
            <ellipse fill="white" stroke="black" cx="368.84" cy="-34.8" rx="27" ry="27" />
            <ellipse fill="none" stroke="black" cx="368.84" cy="-34.8" rx="22.96" ry="22.96" />
            <text text-anchor="middle" x="368.84" y="-31.1" font-family="Times,serif" font-size="14.00">q3</text>
        </g>
        <!-- Initial4&#45;&gt;q3 -->
        <g id="edge4" class="edge">
            <title>Initial4&#45;&gt;q3</title>
            <path fill="none" stroke="black" d="M266.49,-2.17C273.2,-4.33 307.88,-15.5 334.82,-24.17" />
            <polygon fill="black" stroke="black" points="334.25,-27.11 343.25,-26.89 336.07,-21.45 334.25,-27.11" />
        </g>
        <!-- q0&#45;&gt;q0 -->
        <g id="edge5" class="edge">
            <title>q0&#45;&gt;q0</title>
            <path fill="none" stroke="black"
                d="M59.64,-129.43C59.34,-139.19 60.57,-147.55 63.35,-147.55 65.25,-147.55 66.43,-143.6 66.89,-137.96" />
            <polygon fill="black" stroke="black" points="69.86,-137.98 67.05,-129.43 63.91,-137.87 69.86,-137.98" />
            <text text-anchor="middle" x="63.35" y="-151.35" font-family="Times,serif" font-size="14.00"> a </text>
        </g>
        <!-- q0&#45;&gt;q0 -->
        <g id="edge7" class="edge">
            <title>q0&#45;&gt;q0</title>
            <path fill="none" stroke="black"
                d="M56.95,-128.8C54.3,-146.83 56.43,-165.55 63.35,-165.55 69.13,-165.55 71.57,-152.46 70.67,-137.64" />
            <polygon fill="black" stroke="black" points="73.58,-136.95 69.75,-128.8 67.67,-137.56 73.58,-136.95" />
            <text text-anchor="middle" x="63.35" y="-169.35" font-family="Times,serif" font-size="14.00"> b </text>
        </g>
        <!-- q0&#45;&gt;q1 -->
        <g id="edge6" class="edge">
            <title>q0&#45;&gt;q1</title>
            <path fill="none" stroke="black" d="M85.72,-101.59C99.53,-98.23 117.7,-93.8 132.94,-90.09" />
            <polygon fill="black" stroke="black" points="133.96,-92.9 141.51,-88 132.55,-87.12 133.96,-92.9" />
            <text text-anchor="middle" x="113.6" y="-100.6" font-family="Times,serif" font-size="14.00"> b </text>
        </g>
        <!-- q1&#45;&gt;q2 -->
        <g id="edge8" class="edge">
            <title>q1&#45;&gt;q2</title>
            <path fill="none" stroke="black"
                d="M186.58,-81.13C197.77,-79.95 211.55,-77.99 223.59,-74.8 227.42,-73.79 231.37,-72.5 235.23,-71.11" />
            <polygon fill="black" stroke="black" points="236.59,-73.77 243.45,-67.93 234.45,-68.22 236.59,-73.77" />
            <text text-anchor="middle" x="214.09" y="-82.6" font-family="Times,serif" font-size="14.00"> a </text>
        </g>
        <!-- q1&#45;&gt;q2 -->
        <g id="edge9" class="edge">
            <title>q1&#45;&gt;q2</title>
            <path fill="none" stroke="black"
                d="M181.47,-68.24C188.18,-63.28 196.3,-58.35 204.59,-55.8 213.69,-53 223.95,-52.64 233.32,-53.31" />
            <polygon fill="black" stroke="black" points="233.2,-56.29 241.97,-54.22 233.83,-50.37 233.2,-56.29" />
            <text text-anchor="middle" x="214.09" y="-59.6" font-family="Times,serif" font-size="14.00"> b </text>
        </g>
        <!-- q2&#45;&gt;q3 -->
        <g id="edge10" class="edge">
            <title>q2&#45;&gt;q3</title>
            <path fill="none" stroke="black"
                d="M287.04,-56.97C298.21,-55.75 312,-53.8 324.09,-50.8 327.81,-49.88 331.65,-48.75 335.44,-47.52" />
            <polygon fill="black" stroke="black" points="336.53,-50.29 343.6,-44.72 334.59,-44.67 336.53,-50.29" />
            <text text-anchor="middle" x="314.59" y="-58.6" font-family="Times,serif" font-size="14.00"> a </text>
        </g>
        <!-- q2&#45;&gt;q3 -->
        <g id="edge11" class="edge">
            <title>q2&#45;&gt;q3</title>
            <path fill="none" stroke="black"
                d="M281.97,-44.24C288.68,-39.28 296.8,-34.35 305.09,-31.8 314.09,-29.03 324.17,-28.47 333.56,-28.95" />
            <polygon fill="black" stroke="black" points="333.59,-31.93 342.3,-29.68 334.08,-26.01 333.59,-31.93" />
            <text text-anchor="middle" x="314.59" y="-35.6" font-family="Times,serif" font-size="14.00"> b </text>
        </g>
    </g>
</svg>