<?xml version="1.0" encoding="UTF-8" standalone="no"?>
<!DOCTYPE svg PUBLIC "-//W3C//DTD SVG 1.1//EN" "http://www.w3.org/Graphics/SVG/1.1/DTD/svg11.dtd">
<!-- Generated by graphviz version 12.2.1 (0)
 -->
<!-- Pages: 1 -->
<svg width="576pt" height="87pt" viewBox="0.00 0.00 576.00 86.98" xmlns="http://www.w3.org/2000/svg"
    xmlns:xlink="http://www.w3.org/1999/xlink">
    <g id="graph0" class="graph" transform="scale(0.96917 0.96917) rotate(0) translate(4 85.75)">
        <polygon fill="none" stroke="none" points="-4,4 -4,-85.75 590.32,-85.75 590.32,4 -4,4" />
        <!-- Initial -->
        <g id="node1" class="node">
            <title>Initial</title>
            <ellipse fill="black" stroke="black" cx="1.8" cy="-52.8" rx="1.8" ry="1.8" />
        </g>
        <!-- q0 -->
        <g id="node4" class="node">
            <title>q0</title>
            <ellipse fill="white" stroke="black" cx="64.45" cy="-52.8" rx="23.85" ry="23.85" />
            <text text-anchor="middle" x="64.45" y="-48.12" font-family="Times,serif" font-size="14.00">q0</text>
        </g>
        <!-- Initial&#45;&gt;q0 -->
        <g id="edge1" class="edge">
            <title>Initial&#45;&gt;q0</title>
            <path fill="none" stroke="black" d="M3.85,-52.8C7.27,-52.8 18.51,-52.8 30.32,-52.8" />
            <polygon fill="black" stroke="black" points="30.21,-55.77 38.71,-52.8 30.21,-49.82 30.21,-55.77" />
        </g>
        <!-- ... -->
        <g id="node2" class="node">
            <title>...</title>
            <ellipse fill="white" stroke="black" cx="263.19" cy="-52.8" rx="20.69" ry="20.69" />
            <text text-anchor="middle" x="263.19" y="-48.12" font-family="Times,serif" font-size="14.00">...</text>
        </g>
        <!-- qi -->
        <g id="node7" class="node">
            <title>qi</title>
            <ellipse fill="white" stroke="black" cx="361.83" cy="-52.8" rx="24.69" ry="24.69" />
            <ellipse fill="none" stroke="black" cx="361.83" cy="-52.8" rx="20.69" ry="20.69" />
            <text text-anchor="middle" x="361.83" y="-48.12" font-family="Times,serif" font-size="14.00">qi</text>
        </g>
        <!-- ...&#45;&gt;qi -->
        <g id="edge4" class="edge">
            <title>...&#45;&gt;qi</title>
            <path fill="none" stroke="black" d="M284.22,-52.8C296.5,-52.8 312.54,-52.8 326.77,-52.8" />
            <polygon fill="black" stroke="black" points="326.72,-55.77 335.22,-52.8 326.72,-49.82 326.72,-55.77" />
            <text text-anchor="middle" x="310.51" y="-56.75" font-family="Times,serif" font-size="14.00"> a </text>
        </g>
        <!-- .... -->
        <g id="node3" class="node">
            <title>....</title>
            <ellipse fill="white" stroke="black" cx="562.47" cy="-52.8" rx="23.85" ry="23.85" />
            <text text-anchor="middle" x="562.47" y="-48.12" font-family="Times,serif" font-size="14.00">...</text>
        </g>
        <!-- ....&#45;&gt;qi -->
        <g id="edge7" class="edge">
            <title>....&#45;&gt;qi</title>
            <path fill="none" stroke="black"
                d="M539.11,-57.99C533.14,-59.15 526.66,-60.21 520.62,-60.8 469.26,-65.78 455.89,-65.68 404.53,-60.8 401.71,-60.53 398.79,-60.16 395.88,-59.73" />
            <polygon fill="black" stroke="black" points="396.46,-56.81 387.59,-58.32 395.47,-62.68 396.46,-56.81" />
            <text text-anchor="middle" x="462.57" y="-68.45" font-family="Times,serif" font-size="14.00"> a </text>
        </g>
        <!-- q1 -->
        <g id="node5" class="node">
            <title>q1</title>
            <ellipse fill="white" stroke="black" cx="165.4" cy="-52.8" rx="23.85" ry="23.85" />
            <text text-anchor="middle" x="165.4" y="-48.12" font-family="Times,serif" font-size="14.00">q1</text>
        </g>
        <!-- q0&#45;&gt;q1 -->
        <g id="edge2" class="edge">
            <title>q0&#45;&gt;q1</title>
            <path fill="none" stroke="black" d="M88.65,-52.8C101.43,-52.8 117.5,-52.8 131.55,-52.8" />
            <polygon fill="black" stroke="black" points="131.33,-55.77 139.83,-52.8 131.33,-49.82 131.33,-55.77" />
            <text text-anchor="middle" x="114.93" y="-56.75" font-family="Times,serif" font-size="14.00"> a </text>
        </g>
        <!-- q1&#45;&gt;... -->
        <g id="edge3" class="edge">
            <title>q1&#45;&gt;...</title>
            <path fill="none" stroke="black" d="M189.59,-52.8C202.39,-52.8 218.42,-52.8 232.17,-52.8" />
            <polygon fill="black" stroke="black" points="232.13,-55.77 240.63,-52.8 232.13,-49.82 232.13,-55.77" />
            <text text-anchor="middle" x="215.88" y="-56.75" font-family="Times,serif" font-size="14.00"> a </text>
        </g>
        <!-- qc -->
        <g id="node6" class="node">
            <title>qc</title>
            <ellipse fill="white" stroke="black" cx="462.57" cy="-22.8" rx="22.8" ry="22.8" />
            <text text-anchor="middle" x="462.57" y="-18.12" font-family="Times,serif" font-size="14.00">qc</text>
        </g>
        <!-- qc&#45;&gt;.... -->
        <g id="edge6" class="edge">
            <title>qc&#45;&gt;....</title>
            <path fill="none" stroke="black" d="M484.82,-29.31C498.01,-33.35 515.21,-38.62 529.97,-43.14" />
            <polygon fill="black" stroke="black" points="528.81,-45.9 537.8,-45.55 530.55,-40.21 528.81,-45.9" />
            <text text-anchor="middle" x="512" y="-43.54" font-family="Times,serif" font-size="14.00"> a </text>
        </g>
        <!-- qi&#45;&gt;qc -->
        <g id="edge5" class="edge">
            <title>qi&#45;&gt;qc</title>
            <path fill="none" stroke="black" d="M385.98,-45.76C399.32,-41.71 416.26,-36.57 430.72,-32.17" />
            <polygon fill="black" stroke="black" points="431.54,-35.03 438.81,-29.72 429.81,-29.34 431.54,-35.03" />
            <text text-anchor="middle" x="413.15" y="-43.54" font-family="Times,serif" font-size="14.00"> a </text>
        </g>
    </g>
</svg>