<?xml version="1.0" encoding="UTF-8" standalone="no"?>
<!DOCTYPE svg PUBLIC "-//W3C//DTD SVG 1.1//EN" "http://www.w3.org/Graphics/SVG/1.1/DTD/svg11.dtd">
<!-- Generated by graphviz version 12.2.1 (0)
 -->
<!-- Pages: 1 -->
<svg width="415pt" height="103pt" viewBox="0.00 0.00 415.15 102.70" xmlns="http://www.w3.org/2000/svg"
    xmlns:xlink="http://www.w3.org/1999/xlink">
    <g id="graph0" class="graph" transform="scale(1 1) rotate(0) translate(4 98.7)">
        <polygon fill="none" stroke="none" points="-4,4 -4,-98.7 411.15,-98.7 411.15,4 -4,4" />
        <!-- Initial -->
        <g id="node1" class="node">
            <title>Initial</title>
            <ellipse fill="black" stroke="black" cx="1.8" cy="-27.85" rx="1.8" ry="1.8" />
        </g>
        <!-- q0 -->
        <g id="node2" class="node">
            <title>q0</title>
            <ellipse fill="white" stroke="black" cx="68.45" cy="-27.85" rx="27.85" ry="27.85" />
            <ellipse fill="none" stroke="black" cx="68.45" cy="-27.85" rx="23.85" ry="23.85" />
            <text text-anchor="middle" x="68.45" y="-23.18" font-family="Times,serif" font-size="14.00">q0</text>
        </g>
        <!-- Initial&#45;&gt;q0 -->
        <g id="edge1" class="edge">
            <title>Initial&#45;&gt;q0</title>
            <path fill="none" stroke="black" d="M3.92,-27.85C7.41,-27.85 18.58,-27.85 30.6,-27.85" />
            <polygon fill="black" stroke="black" points="30.28,-30.83 38.78,-27.85 30.28,-24.88 30.28,-30.83" />
        </g>
        <!-- q1 -->
        <g id="node3" class="node">
            <title>q1</title>
            <ellipse fill="white" stroke="black" cx="177.4" cy="-27.85" rx="27.85" ry="27.85" />
            <ellipse fill="none" stroke="black" cx="177.4" cy="-27.85" rx="23.85" ry="23.85" />
            <text text-anchor="middle" x="177.4" y="-23.18" font-family="Times,serif" font-size="14.00">q1</text>
        </g>
        <!-- q0&#45;&gt;q1 -->
        <g id="edge2" class="edge">
            <title>q0&#45;&gt;q1</title>
            <path fill="none" stroke="black" d="M96.72,-27.85C109.66,-27.85 125.34,-27.85 139.34,-27.85" />
            <polygon fill="black" stroke="black" points="139.17,-30.83 147.67,-27.85 139.17,-24.88 139.17,-30.83" />
            <text text-anchor="middle" x="122.93" y="-31.8" font-family="Times,serif" font-size="14.00"> a </text>
        </g>
        <!-- q2 -->
        <g id="node4" class="node">
            <title>q2</title>
            <ellipse fill="white" stroke="black" cx="282.35" cy="-70.85" rx="23.85" ry="23.85" />
            <text text-anchor="middle" x="282.35" y="-66.18" font-family="Times,serif" font-size="14.00">q2</text>
        </g>
        <!-- q1&#45;&gt;q2 -->
        <g id="edge3" class="edge">
            <title>q1&#45;&gt;q2</title>
            <path fill="none" stroke="black" d="M203.59,-38.37C217.88,-44.34 235.88,-51.86 250.95,-58.15" />
            <polygon fill="black" stroke="black" points="249.52,-60.78 258.51,-61.31 251.81,-55.29 249.52,-60.78" />
            <text text-anchor="middle" x="231.88" y="-57.15" font-family="Times,serif" font-size="14.00"> a </text>
        </g>
        <!-- q3 -->
        <g id="node5" class="node">
            <title>q3</title>
            <ellipse fill="white" stroke="black" cx="383.3" cy="-27.85" rx="23.85" ry="23.85" />
            <text text-anchor="middle" x="383.3" y="-23.18" font-family="Times,serif" font-size="14.00">q3</text>
        </g>
        <!-- q2&#45;&gt;q3 -->
        <g id="edge4" class="edge">
            <title>q2&#45;&gt;q3</title>
            <path fill="none" stroke="black" d="M304.82,-61.52C318.57,-55.55 336.61,-47.71 351.83,-41.09" />
            <polygon fill="black" stroke="black" points="352.88,-43.88 359.49,-37.77 350.5,-38.42 352.88,-43.88" />
            <text text-anchor="middle" x="332.83" y="-55.87" font-family="Times,serif" font-size="14.00"> a </text>
        </g>
        <!-- q3&#45;&gt;q1 -->
        <g id="edge5" class="edge">
            <title>q3&#45;&gt;q1</title>
            <path fill="none" stroke="black"
                d="M359.36,-25.09C344.28,-23.42 324.1,-21.45 306.2,-20.6 285.03,-19.59 279.68,-19.64 258.5,-20.6 244.38,-21.24 228.91,-22.5 215.36,-23.8" />
            <polygon fill="black" stroke="black" points="215.1,-20.84 206.93,-24.64 215.68,-26.76 215.1,-20.84" />
            <text text-anchor="middle" x="282.35" y="-24.55" font-family="Times,serif" font-size="14.00"> a </text>
        </g>
    </g>
</svg>