<?xml version="1.0" encoding="UTF-8" standalone="no"?>
<!DOCTYPE svg PUBLIC "-//W3C//DTD SVG 1.1//EN" "http://www.w3.org/Graphics/SVG/1.1/DTD/svg11.dtd">
<!-- Generated by graphviz version 2.43.0 (0)
 -->
<!-- Title: %3 Pages: 1 -->
<svg width="419pt" height="123pt" viewBox="0.00 0.00 418.58 123.50" xmlns="http://www.w3.org/2000/svg"
    xmlns:xlink="http://www.w3.org/1999/xlink">
    <g id="graph0" class="graph" transform="scale(1 1) rotate(0) translate(4 119.5)">
        <title>%3</title>
        <polygon fill="none" stroke="transparent" points="-4,4 -4,-119.5 414.58,-119.5 414.58,4 -4,4" />
        <!-- Initial -->
        <g id="node1" class="node">
            <title>Initial</title>
            <ellipse fill="black" stroke="black" cx="1.8" cy="-26.75" rx="1.8" ry="1.8" />
        </g>
        <!-- q0 -->
        <g id="node2" class="node">
            <title>q0</title>
            <ellipse fill="white" stroke="black" cx="67.35" cy="-26.75" rx="27" ry="27" />
            <ellipse fill="none" stroke="black" cx="67.35" cy="-26.75" rx="22.96" ry="22.96" />
            <text text-anchor="middle" x="67.35" y="-23.05" font-family="Times,serif" font-size="14.00">q0</text>
        </g>
        <!-- Initial&#45;&gt;q0 -->
        <g id="edge1" class="edge">
            <title>Initial&#45;&gt;q0</title>
            <path fill="none" stroke="black" d="M3.9,-26.75C7.49,-26.75 19.32,-26.75 31.74,-26.75" />
            <polygon fill="black" stroke="black" points="31.83,-29.72 40.33,-26.75 31.83,-23.77 31.83,-29.72" />
        </g>
        <!-- q0&#45;&gt;q0 -->
        <g id="edge2" class="edge">
            <title>q0&#45;&gt;q0</title>
            <path fill="none" stroke="black"
                d="M59.15,-52.5C58.69,-62.83 61.42,-71.5 67.35,-71.5 71.52,-71.5 74.11,-67.21 75.12,-61.08" />
            <polygon fill="black" stroke="black" points="78.09,-61.14 75.55,-52.5 72.15,-60.84 78.09,-61.14" />
            <text text-anchor="middle" x="67.35" y="-75.3" font-family="Times,serif" font-size="14.00"> a </text>
        </g>
        <!-- q1 -->
        <g id="node3" class="node">
            <title>q1</title>
            <ellipse fill="white" stroke="black" cx="175.84" cy="-26.75" rx="27" ry="27" />
            <ellipse fill="none" stroke="black" cx="175.84" cy="-26.75" rx="22.96" ry="22.96" />
            <text text-anchor="middle" x="175.84" y="-23.05" font-family="Times,serif" font-size="14.00">q1</text>
        </g>
        <!-- q0&#45;&gt;q1 -->
        <g id="edge3" class="edge">
            <title>q0&#45;&gt;q1</title>
            <path fill="none" stroke="black" d="M94.13,-26.75C108.02,-26.75 125.35,-26.75 140.39,-26.75" />
            <polygon fill="black" stroke="black" points="140.43,-29.72 148.93,-26.75 140.43,-23.77 140.43,-29.72" />
            <text text-anchor="middle" x="121.6" y="-30.55" font-family="Times,serif" font-size="14.00"> b </text>
        </g>
        <!-- q1&#45;&gt;q1 -->
        <g id="edge5" class="edge">
            <title>q1&#45;&gt;q1</title>
            <path fill="none" stroke="black"
                d="M166.18,-52.05C165.51,-62.57 168.73,-71.5 175.84,-71.5 180.84,-71.5 183.92,-67.09 185.07,-60.81" />
            <polygon fill="black" stroke="black" points="188.06,-60.69 185.51,-52.05 182.12,-60.39 188.06,-60.69" />
            <text text-anchor="middle" x="175.84" y="-75.3" font-family="Times,serif" font-size="14.00"> b </text>
        </g>
        <!-- q2 -->
        <g id="node4" class="node">
            <title>q2</title>
            <ellipse fill="white" stroke="black" cx="283.34" cy="-26.75" rx="27" ry="27" />
            <ellipse fill="none" stroke="black" cx="283.34" cy="-26.75" rx="22.96" ry="22.96" />
            <text text-anchor="middle" x="283.34" y="-23.05" font-family="Times,serif" font-size="14.00">q2</text>
        </g>
        <!-- q1&#45;&gt;q2 -->
        <g id="edge4" class="edge">
            <title>q1&#45;&gt;q2</title>
            <path fill="none" stroke="black" d="M202.65,-26.75C216.19,-26.75 232.96,-26.75 247.63,-26.75" />
            <polygon fill="black" stroke="black" points="247.93,-29.72 256.43,-26.75 247.93,-23.77 247.93,-29.72" />
            <text text-anchor="middle" x="229.59" y="-30.55" font-family="Times,serif" font-size="14.00"> a </text>
        </g>
        <!-- q2&#45;&gt;q1 -->
        <g id="edge6" class="edge">
            <title>q2&#45;&gt;q1</title>
            <path fill="none" stroke="black"
                d="M259.73,-14.04C248.16,-9.01 233.77,-5.01 220.59,-7.75 216.34,-8.63 212,-9.95 207.78,-11.49" />
            <polygon fill="black" stroke="black" points="206.66,-8.73 199.87,-14.66 208.87,-14.25 206.66,-8.73" />
            <text text-anchor="middle" x="229.59" y="-11.55" font-family="Times,serif" font-size="14.00"> a </text>
        </g>
        <!-- qT -->
        <g id="node5" class="node">
            <title>qT</title>
            <ellipse fill="white" stroke="black" cx="387.84" cy="-26.75" rx="23" ry="23" />
            <text text-anchor="middle" x="387.84" y="-23.05" font-family="Times,serif" font-size="14.00">qT</text>
        </g>
        <!-- q2&#45;&gt;qT -->
        <g id="edge7" class="edge">
            <title>q2&#45;&gt;qT</title>
            <path fill="none" stroke="black" d="M310.2,-26.75C324.15,-26.75 341.45,-26.75 356.09,-26.75" />
            <polygon fill="black" stroke="black" points="356.3,-29.72 364.8,-26.75 356.3,-23.77 356.3,-29.72" />
            <text text-anchor="middle" x="337.59" y="-30.55" font-family="Times,serif" font-size="14.00"> b </text>
        </g>
        <!-- qT&#45;&gt;qT -->
        <g id="edge8" class="edge">
            <title>qT&#45;&gt;qT</title>
            <path fill="none" stroke="black"
                d="M383.2,-49.38C382.83,-59.14 384.37,-67.5 387.84,-67.5 390.22,-67.5 391.69,-63.55 392.26,-57.9" />
            <polygon fill="black" stroke="black" points="395.23,-57.95 392.47,-49.38 389.29,-57.8 395.23,-57.95" />
            <text text-anchor="middle" x="387.84" y="-71.3" font-family="Times,serif" font-size="14.00"> a </text>
        </g>
        <!-- qT&#45;&gt;qT -->
        <g id="edge9" class="edge">
            <title>qT&#45;&gt;qT</title>
            <path fill="none" stroke="black"
                d="M379.95,-48.13C376.47,-66.35 379.1,-85.5 387.84,-85.5 395.21,-85.5 398.23,-71.86 396.91,-56.66" />
            <polygon fill="black" stroke="black" points="399.84,-56.14 395.72,-48.13 393.95,-56.96 399.84,-56.14" />
            <text text-anchor="middle" x="387.84" y="-89.3" font-family="Times,serif" font-size="14.00"> b </text>
        </g>
    </g>
</svg>