<?xml version="1.0" encoding="UTF-8" standalone="no"?>
<!DOCTYPE svg PUBLIC "-//W3C//DTD SVG 1.1//EN" "http://www.w3.org/Graphics/SVG/1.1/DTD/svg11.dtd">
<!-- Generated by graphviz version 2.43.0 (0)
 -->
<!-- Title: %3 Pages: 1 -->
<svg width="576pt" height="202pt" viewBox="0.00 0.00 576.00 201.82" xmlns="http://www.w3.org/2000/svg"
    xmlns:xlink="http://www.w3.org/1999/xlink">
    <g id="graph0" class="graph" transform="scale(0.64 0.64) rotate(0) translate(4 312.6)">
        <title>%3</title>
        <polygon fill="none" stroke="transparent" points="-4,4 -4,-312.6 899.56,-312.6 899.56,4 -4,4" />
        <!-- Initial -->
        <g id="node1" class="node">
            <title>Initial</title>
            <ellipse fill="black" stroke="black" cx="1.8" cy="-247" rx="1.8" ry="1.8" />
        </g>
        <!-- bbb -->
        <g id="node9" class="node">
            <title>bbb</title>
            <ellipse fill="white" stroke="black" cx="69.2" cy="-247" rx="28.7" ry="28.7" />
            <text text-anchor="middle" x="69.2" y="-243.3" font-family="Times,serif" font-size="14.00">bbb</text>
        </g>
        <!-- Initial&#45;&gt;bbb -->
        <g id="edge1" class="edge">
            <title>Initial&#45;&gt;bbb</title>
            <path fill="none" stroke="black" d="M3.94,-247C7.55,-247 19.26,-247 31.72,-247" />
            <polygon fill="black" stroke="black" points="31.87,-249.98 40.37,-247 31.87,-244.03 31.87,-249.98" />
        </g>
        <!-- aaa -->
        <g id="node2" class="node">
            <title>aaa</title>
            <ellipse fill="white" stroke="black" cx="400.93" cy="-148" rx="30.8" ry="30.8" />
            <ellipse fill="none" stroke="black" cx="400.93" cy="-148" rx="26.78" ry="26.78" />
            <text text-anchor="middle" x="400.93" y="-144.3" font-family="Times,serif" font-size="14.00">aaa</text>
        </g>
        <!-- aaa&#45;&gt;aaa -->
        <g id="edge2" class="edge">
            <title>aaa&#45;&gt;aaa</title>
            <path fill="none" stroke="black"
                d="M390.46,-176.97C390.11,-187.76 393.6,-196.65 400.93,-196.65 406.2,-196.65 409.49,-192.06 410.79,-185.47" />
            <polygon fill="black" stroke="black" points="413.76,-185.66 411.41,-176.97 407.82,-185.23 413.76,-185.66" />
            <text text-anchor="middle" x="400.93" y="-200.45" font-family="Times,serif" font-size="14.00"> a </text>
        </g>
        <!-- aab -->
        <g id="node3" class="node">
            <title>aab</title>
            <ellipse fill="white" stroke="black" cx="517.88" cy="-133" rx="31.1" ry="31.1" />
            <ellipse fill="none" stroke="black" cx="517.88" cy="-133" rx="27.12" ry="27.12" />
            <text text-anchor="middle" x="517.88" y="-129.3" font-family="Times,serif" font-size="14.00">aab</text>
        </g>
        <!-- aaa&#45;&gt;aab -->
        <g id="edge3" class="edge">
            <title>aaa&#45;&gt;aab</title>
            <path fill="none" stroke="black" d="M431.53,-144.14C445.66,-142.29 462.74,-140.06 477.91,-138.09" />
            <polygon fill="black" stroke="black" points="478.53,-141 486.58,-136.95 477.76,-135.1 478.53,-141" />
            <text text-anchor="middle" x="459.08" y="-145.8" font-family="Times,serif" font-size="14.00"> b </text>
        </g>
        <!-- aba -->
        <g id="node4" class="node">
            <title>aba</title>
            <ellipse fill="white" stroke="black" cx="634.47" cy="-71" rx="31.1" ry="31.1" />
            <ellipse fill="none" stroke="black" cx="634.47" cy="-71" rx="27.12" ry="27.12" />
            <text text-anchor="middle" x="634.47" y="-67.3" font-family="Times,serif" font-size="14.00">aba</text>
        </g>
        <!-- aab&#45;&gt;aba -->
        <g id="edge4" class="edge">
            <title>aab&#45;&gt;aba</title>
            <path fill="none" stroke="black" d="M545.75,-118.46C561.58,-109.9 581.78,-98.97 598.81,-89.76" />
            <polygon fill="black" stroke="black" points="600.32,-92.32 606.38,-85.66 597.49,-87.09 600.32,-92.32" />
            <text text-anchor="middle" x="576.18" y="-109.8" font-family="Times,serif" font-size="14.00"> a </text>
        </g>
        <!-- abb -->
        <g id="node5" class="node">
            <title>abb</title>
            <ellipse fill="white" stroke="black" cx="863.61" cy="-209" rx="31.9" ry="31.9" />
            <ellipse fill="none" stroke="black" cx="863.61" cy="-209" rx="27.9" ry="27.9" />
            <text text-anchor="middle" x="863.61" y="-205.3" font-family="Times,serif" font-size="14.00">abb</text>
        </g>
        <!-- aab&#45;&gt;abb -->
        <g id="edge5" class="edge">
            <title>aab&#45;&gt;abb</title>
            <path fill="none" stroke="black" d="M548.78,-139.61C610.97,-153.36 754.2,-185.03 823.56,-200.37" />
            <polygon fill="black" stroke="black" points="823.1,-203.31 832.04,-202.24 824.38,-197.5 823.1,-203.31" />
            <text text-anchor="middle" x="693.27" y="-177.8" font-family="Times,serif" font-size="14.00"> b </text>
        </g>
        <!-- baa -->
        <g id="node6" class="node">
            <title>baa</title>
            <ellipse fill="white" stroke="black" cx="288.99" cy="-116" rx="27.1" ry="27.1" />
            <text text-anchor="middle" x="288.99" y="-112.3" font-family="Times,serif" font-size="14.00">baa</text>
        </g>
        <!-- aba&#45;&gt;baa -->
        <g id="edge6" class="edge">
            <title>aba&#45;&gt;baa</title>
            <path fill="none" stroke="black"
                d="M602.97,-71.48C553.81,-72.55 454.11,-75.86 370.29,-86 354.18,-87.95 349.63,-86.73 334.29,-92 329.74,-93.56 325.1,-95.56 320.62,-97.74" />
            <polygon fill="black" stroke="black" points="318.96,-95.24 312.78,-101.79 321.69,-100.53 318.96,-95.24" />
            <text text-anchor="middle" x="459.08" y="-82.8" font-family="Times,serif" font-size="14.00"> a </text>
        </g>
        <!-- bab -->
        <g id="node7" class="node">
            <title>bab</title>
            <ellipse fill="white" stroke="black" cx="748.72" cy="-62" rx="27.9" ry="27.9" />
            <text text-anchor="middle" x="748.72" y="-58.3" font-family="Times,serif" font-size="14.00">bab</text>
        </g>
        <!-- aba&#45;&gt;bab -->
        <g id="edge7" class="edge">
            <title>aba&#45;&gt;bab</title>
            <path fill="none" stroke="black"
                d="M660.76,-53.71C667.89,-49.73 675.87,-46.06 683.77,-44 694.15,-41.3 705.42,-42.93 715.57,-46.11" />
            <polygon fill="black" stroke="black" points="714.78,-48.99 723.79,-49.08 716.81,-43.39 714.78,-48.99" />
            <text text-anchor="middle" x="693.27" y="-47.8" font-family="Times,serif" font-size="14.00"> b </text>
        </g>
        <!-- bba -->
        <g id="node8" class="node">
            <title>bba</title>
            <ellipse fill="white" stroke="black" cx="179.74" cy="-171" rx="27.9" ry="27.9" />
            <text text-anchor="middle" x="179.74" y="-167.3" font-family="Times,serif" font-size="14.00">bba</text>
        </g>
        <!-- abb&#45;&gt;bba -->
        <g id="edge8" class="edge">
            <title>abb&#45;&gt;bba</title>
            <path fill="none" stroke="black"
                d="M833.97,-221.43C811.49,-230.05 779.19,-240 749.72,-240 287.99,-240 287.99,-240 287.99,-240 255.42,-240 224.88,-217.22 204.78,-197.84" />
            <polygon fill="black" stroke="black" points="206.75,-195.6 198.63,-191.7 202.54,-199.81 206.75,-195.6" />
            <text text-anchor="middle" x="517.88" y="-243.8" font-family="Times,serif" font-size="14.00"> a </text>
        </g>
        <!-- abb&#45;&gt;bbb -->
        <g id="edge9" class="edge">
            <title>abb&#45;&gt;bbb</title>
            <path fill="none" stroke="black"
                d="M842.32,-232.82C821.51,-254.45 786.98,-283 749.72,-283 178.74,-283 178.74,-283 178.74,-283 152.28,-283 123.94,-273.24 102.86,-263.88" />
            <polygon fill="black" stroke="black" points="103.83,-261.06 94.87,-260.2 101.34,-266.46 103.83,-261.06" />
            <text text-anchor="middle" x="459.08" y="-286.8" font-family="Times,serif" font-size="14.00"> b </text>
        </g>
        <!-- baa&#45;&gt;aaa -->
        <g id="edge10" class="edge">
            <title>baa&#45;&gt;aaa</title>
            <path fill="none" stroke="black" d="M315.49,-123.42C329.51,-127.5 347.17,-132.64 362.7,-137.16" />
            <polygon fill="black" stroke="black" points="362.09,-140.08 371.08,-139.6 363.75,-134.37 362.09,-140.08" />
            <text text-anchor="middle" x="343.29" y="-137.8" font-family="Times,serif" font-size="14.00"> a </text>
        </g>
        <!-- baa&#45;&gt;aab -->
        <g id="edge11" class="edge">
            <title>baa&#45;&gt;aab</title>
            <path fill="none" stroke="black"
                d="M314.71,-106.31C343.1,-96.5 390.99,-83.95 431.58,-93 449.39,-96.97 467.87,-105.07 483.06,-112.96" />
            <polygon fill="black" stroke="black" points="481.79,-115.65 490.69,-117.04 484.6,-110.4 481.79,-115.65" />
            <text text-anchor="middle" x="400.93" y="-96.8" font-family="Times,serif" font-size="14.00"> b </text>
        </g>
        <!-- bab&#45;&gt;aba -->
        <g id="edge12" class="edge">
            <title>bab&#45;&gt;aba</title>
            <path fill="none" stroke="black" d="M720.77,-64.16C706.93,-65.27 689.83,-66.64 674.58,-67.86" />
            <polygon fill="black" stroke="black" points="674.08,-64.92 665.85,-68.56 674.56,-70.85 674.08,-64.92" />
            <text text-anchor="middle" x="693.27" y="-71.8" font-family="Times,serif" font-size="14.00"> a </text>
        </g>
        <!-- bab&#45;&gt;abb -->
        <g id="edge13" class="edge">
            <title>bab&#45;&gt;abb</title>
            <path fill="none" stroke="black"
                d="M768.74,-81.8C781.92,-95.89 799.56,-115.53 813.67,-134 823.45,-146.81 833.33,-161.54 841.63,-174.54" />
            <polygon fill="black" stroke="black" points="839.27,-176.37 846.33,-181.96 844.3,-173.19 839.27,-176.37" />
            <text text-anchor="middle" x="804.17" y="-137.8" font-family="Times,serif" font-size="14.00"> b </text>
        </g>
        <!-- bba&#45;&gt;baa -->
        <g id="edge14" class="edge">
            <title>bba&#45;&gt;baa</title>
            <path fill="none" stroke="black" d="M205.08,-158.52C220.37,-150.68 240.26,-140.48 256.72,-132.04" />
            <polygon fill="black" stroke="black" points="258.28,-134.58 264.49,-128.05 255.56,-129.28 258.28,-134.58" />
            <text text-anchor="middle" x="234.69" y="-150.8" font-family="Times,serif" font-size="14.00"> a </text>
        </g>
        <!-- bba&#45;&gt;bab -->
        <g id="edge15" class="edge">
            <title>bba&#45;&gt;bab</title>
            <path fill="none" stroke="black"
                d="M185.03,-143.53C194.3,-95.19 221.06,0 287.99,0 287.99,0 287.99,0 635.47,0 668.02,0 699.99,-20.22 721.44,-37.56" />
            <polygon fill="black" stroke="black" points="719.59,-39.89 728.02,-43.06 723.41,-35.33 719.59,-39.89" />
            <text text-anchor="middle" x="459.08" y="-3.8" font-family="Times,serif" font-size="14.00"> b </text>
        </g>
        <!-- bbb&#45;&gt;bba -->
        <g id="edge16" class="edge">
            <title>bbb&#45;&gt;bba</title>
            <path fill="none" stroke="black" d="M92.95,-231.07C109.27,-219.64 131.41,-204.14 149.11,-191.75" />
            <polygon fill="black" stroke="black" points="151.13,-193.96 156.39,-186.65 147.72,-189.09 151.13,-193.96" />
            <text text-anchor="middle" x="124.79" y="-217.8" font-family="Times,serif" font-size="14.00"> a </text>
        </g>
        <!-- bbb&#45;&gt;bbb -->
        <g id="edge17" class="edge">
            <title>bbb&#45;&gt;bbb</title>
            <path fill="none" stroke="black"
                d="M60.61,-274.28C60.22,-284.83 63.09,-293.6 69.2,-293.6 73.49,-293.6 76.18,-289.26 77.27,-283.02" />
            <polygon fill="black" stroke="black" points="80.26,-282.94 77.79,-274.28 74.32,-282.59 80.26,-282.94" />
            <text text-anchor="middle" x="69.2" y="-297.4" font-family="Times,serif" font-size="14.00"> b </text>
        </g>
    </g>
</svg>