<?xml version="1.0" encoding="UTF-8" standalone="no"?>
<!DOCTYPE svg PUBLIC "-//W3C//DTD SVG 1.1//EN" "http://www.w3.org/Graphics/SVG/1.1/DTD/svg11.dtd">
<!-- Generated by graphviz version 2.43.0 (0)
 -->
<!-- Title: %3 Pages: 1 -->
<svg width="501pt" height="123pt" viewBox="0.00 0.00 501.08 123.50" xmlns="http://www.w3.org/2000/svg"
    xmlns:xlink="http://www.w3.org/1999/xlink">
    <g id="graph0" class="graph" transform="scale(1 1) rotate(0) translate(4 119.5)">
        <title>%3</title>
        <polygon fill="none" stroke="transparent" points="-4,4 -4,-119.5 497.08,-119.5 497.08,4 -4,4" />
        <!-- Initial -->
        <g id="node1" class="node">
            <title>Initial</title>
            <ellipse fill="black" stroke="black" cx="1.8" cy="-26.75" rx="1.8" ry="1.8" />
        </g>
        <!-- q0 -->
        <g id="node2" class="node">
            <title>q0</title>
            <ellipse fill="white" stroke="black" cx="63.35" cy="-26.75" rx="23" ry="23" />
            <text text-anchor="middle" x="63.35" y="-23.05" font-family="Times,serif" font-size="14.00">q0</text>
        </g>
        <!-- Initial&#45;&gt;q0 -->
        <g id="edge1" class="edge">
            <title>Initial&#45;&gt;q0</title>
            <path fill="none" stroke="black" d="M3.83,-26.75C7.36,-26.75 19.4,-26.75 31.65,-26.75" />
            <polygon fill="black" stroke="black" points="31.98,-29.72 40.48,-26.75 31.98,-23.77 31.98,-29.72" />
        </g>
        <!-- q0&#45;&gt;q0 -->
        <g id="edge2" class="edge">
            <title>q0&#45;&gt;q0</title>
            <path fill="none" stroke="black"
                d="M59.64,-49.38C59.34,-59.14 60.57,-67.5 63.35,-67.5 65.25,-67.5 66.43,-63.55 66.89,-57.9" />
            <polygon fill="black" stroke="black" points="69.86,-57.93 67.05,-49.38 63.91,-57.82 69.86,-57.93" />
            <text text-anchor="middle" x="63.35" y="-71.3" font-family="Times,serif" font-size="14.00"> a </text>
        </g>
        <!-- q0&#45;&gt;q0 -->
        <g id="edge3" class="edge">
            <title>q0&#45;&gt;q0</title>
            <path fill="none" stroke="black"
                d="M56.95,-48.75C54.3,-66.77 56.43,-85.5 63.35,-85.5 69.13,-85.5 71.57,-72.41 70.67,-57.59" />
            <polygon fill="black" stroke="black" points="73.58,-56.89 69.75,-48.75 67.67,-57.51 73.58,-56.89" />
            <text text-anchor="middle" x="63.35" y="-89.3" font-family="Times,serif" font-size="14.00"> b </text>
        </g>
        <!-- q1 -->
        <g id="node3" class="node">
            <title>q1</title>
            <ellipse fill="white" stroke="black" cx="161.84" cy="-26.75" rx="23" ry="23" />
            <text text-anchor="middle" x="161.84" y="-23.05" font-family="Times,serif" font-size="14.00">q1</text>
        </g>
        <!-- q0&#45;&gt;q1 -->
        <g id="edge4" class="edge">
            <title>q0&#45;&gt;q1</title>
            <path fill="none" stroke="black" d="M86.24,-26.75C99.32,-26.75 116.13,-26.75 130.47,-26.75" />
            <polygon fill="black" stroke="black" points="130.53,-29.72 139.03,-26.75 130.53,-23.77 130.53,-29.72" />
            <text text-anchor="middle" x="112.6" y="-30.55" font-family="Times,serif" font-size="14.00"> ε </text>
        </g>
        <!-- q2 -->
        <g id="node4" class="node">
            <title>q2</title>
            <ellipse fill="white" stroke="black" cx="261.34" cy="-26.75" rx="23" ry="23" />
            <text text-anchor="middle" x="261.34" y="-23.05" font-family="Times,serif" font-size="14.00">q2</text>
        </g>
        <!-- q1&#45;&gt;q2 -->
        <g id="edge5" class="edge">
            <title>q1&#45;&gt;q2</title>
            <path fill="none" stroke="black" d="M184.97,-26.75C198.18,-26.75 215.16,-26.75 229.65,-26.75" />
            <polygon fill="black" stroke="black" points="229.8,-29.72 238.3,-26.75 229.8,-23.77 229.8,-29.72" />
            <text text-anchor="middle" x="211.59" y="-30.55" font-family="Times,serif" font-size="14.00"> a </text>
        </g>
        <!-- q3 -->
        <g id="node5" class="node">
            <title>q3</title>
            <ellipse fill="white" stroke="black" cx="361.84" cy="-26.75" rx="23" ry="23" />
            <text text-anchor="middle" x="361.84" y="-23.05" font-family="Times,serif" font-size="14.00">q3</text>
        </g>
        <!-- q2&#45;&gt;q3 -->
        <g id="edge6" class="edge">
            <title>q2&#45;&gt;q3</title>
            <path fill="none" stroke="black" d="M284.2,-26.75C297.72,-26.75 315.27,-26.75 330.17,-26.75" />
            <polygon fill="black" stroke="black" points="330.54,-29.72 339.04,-26.75 330.54,-23.77 330.54,-29.72" />
            <text text-anchor="middle" x="311.59" y="-30.55" font-family="Times,serif" font-size="14.00"> a </text>
        </g>
        <!-- q2&#45;&gt;q3 -->
        <g id="edge7" class="edge">
            <title>q2&#45;&gt;q3</title>
            <path fill="none" stroke="black"
                d="M281.52,-15.46C287.85,-12.32 295.08,-9.34 302.09,-7.75 310.32,-5.88 312.85,-5.88 321.09,-7.75 325.36,-8.72 329.71,-10.2 333.89,-11.93" />
            <polygon fill="black" stroke="black" points="332.68,-14.65 341.65,-15.46 335.15,-9.23 332.68,-14.65" />
            <text text-anchor="middle" x="311.59" y="-11.55" font-family="Times,serif" font-size="14.00"> b </text>
        </g>
        <!-- q4 -->
        <g id="node6" class="node">
            <title>q4</title>
            <ellipse fill="white" stroke="black" cx="466.33" cy="-26.75" rx="27" ry="27" />
            <ellipse fill="none" stroke="black" cx="466.33" cy="-26.75" rx="22.96" ry="22.96" />
            <text text-anchor="middle" x="466.33" y="-23.05" font-family="Times,serif" font-size="14.00">q4</text>
        </g>
        <!-- q3&#45;&gt;q4 -->
        <g id="edge8" class="edge">
            <title>q3&#45;&gt;q4</title>
            <path fill="none" stroke="black" d="M384.82,-26.75C398.2,-26.75 415.57,-26.75 430.75,-26.75" />
            <polygon fill="black" stroke="black" points="430.89,-29.72 439.39,-26.75 430.89,-23.77 430.89,-29.72" />
            <text text-anchor="middle" x="412.08" y="-30.55" font-family="Times,serif" font-size="14.00"> a </text>
        </g>
        <!-- q3&#45;&gt;q4 -->
        <g id="edge9" class="edge">
            <title>q3&#45;&gt;q4</title>
            <path fill="none" stroke="black"
                d="M382.02,-15.46C388.35,-12.32 395.57,-9.34 402.58,-7.75 413.08,-5.37 424.38,-7.34 434.46,-10.77" />
            <polygon fill="black" stroke="black" points="433.59,-13.62 442.59,-13.93 435.75,-8.08 433.59,-13.62" />
            <text text-anchor="middle" x="412.08" y="-11.55" font-family="Times,serif" font-size="14.00"> b </text>
        </g>
    </g>
</svg>