<?xml version="1.0" encoding="UTF-8" standalone="no"?>
<!DOCTYPE svg PUBLIC "-//W3C//DTD SVG 1.1//EN" "http://www.w3.org/Graphics/SVG/1.1/DTD/svg11.dtd">
<!-- Generated by graphviz version 2.43.0 (0)
 -->
<!-- Title: %3 Pages: 1 -->
<svg width="334pt" height="94pt" viewBox="0.00 0.00 334.49 94.50" xmlns="http://www.w3.org/2000/svg"
    xmlns:xlink="http://www.w3.org/1999/xlink">
    <g id="graph0" class="graph" transform="scale(1 1) rotate(0) translate(4 90.5)">
        <title>%3</title>
        <polygon fill="none" stroke="transparent" points="-4,4 -4,-90.5 330.49,-90.5 330.49,4 -4,4" />
        <!-- Initial -->
        <g id="node1" class="node">
            <title>Initial</title>
            <ellipse fill="black" stroke="black" cx="1.8" cy="-26.75" rx="1.8" ry="1.8" />
        </g>
        <!-- q0 -->
        <g id="node2" class="node">
            <title>q0</title>
            <ellipse fill="white" stroke="black" cx="63.35" cy="-26.75" rx="23" ry="23" />
            <text text-anchor="middle" x="63.35" y="-23.05" font-family="Times,serif" font-size="14.00">q0</text>
        </g>
        <!-- Initial&#45;&gt;q0 -->
        <g id="edge1" class="edge">
            <title>Initial&#45;&gt;q0</title>
            <path fill="none" stroke="black" d="M3.83,-26.75C7.36,-26.75 19.4,-26.75 31.65,-26.75" />
            <polygon fill="black" stroke="black" points="31.98,-29.72 40.48,-26.75 31.98,-23.77 31.98,-29.72" />
        </g>
        <!-- qs -->
        <g id="node4" class="node">
            <title>qs</title>
            <ellipse fill="white" stroke="black" cx="165.54" cy="-26.75" rx="21.4" ry="21.4" />
            <text text-anchor="middle" x="165.54" y="-23.05" font-family="Times,serif" font-size="14.00">qs</text>
        </g>
        <!-- q0&#45;&gt;qs -->
        <g id="edge2" class="edge">
            <title>q0&#45;&gt;qs</title>
            <path fill="none" stroke="black"
                d="M84.11,-36.43C90.35,-39.01 97.38,-41.45 104.1,-42.75 113.7,-44.61 116.51,-44.66 126.1,-42.75 130.14,-41.94 134.28,-40.7 138.29,-39.26" />
            <polygon fill="black" stroke="black" points="139.44,-42 146.24,-36.09 137.24,-36.47 139.44,-42" />
            <text text-anchor="middle" x="115.1" y="-47.55" font-family="Times,serif" font-size="14.00"> + </text>
        </g>
        <!-- q0&#45;&gt;qs -->
        <g id="edge3" class="edge">
            <title>q0&#45;&gt;qs</title>
            <path fill="none" stroke="black"
                d="M86.2,-24.8C92.01,-24.37 98.29,-23.97 104.1,-23.75 113.87,-23.38 116.33,-23.37 126.1,-23.75 129.06,-23.86 132.16,-24.03 135.24,-24.22" />
            <polygon fill="black" stroke="black" points="135.12,-27.2 143.81,-24.83 135.54,-21.26 135.12,-27.2" />
            <text text-anchor="middle" x="115.1" y="-27.55" font-family="Times,serif" font-size="14.00"> &#45; </text>
        </g>
        <!-- q0&#45;&gt;qs -->
        <g id="edge4" class="edge">
            <title>q0&#45;&gt;qs</title>
            <path fill="none" stroke="black"
                d="M82.46,-13.59C88.96,-9.62 96.55,-5.77 104.1,-3.75 113.54,-1.21 116.67,-1.14 126.1,-3.75 131,-5.1 135.9,-7.26 140.48,-9.73" />
            <polygon fill="black" stroke="black" points="139.01,-12.32 147.85,-14.09 142.04,-7.2 139.01,-12.32" />
            <text text-anchor="middle" x="115.1" y="-7.55" font-family="Times,serif" font-size="14.00"> ε </text>
        </g>
        <!-- qn -->
        <g id="node3" class="node">
            <title>qn</title>
            <ellipse fill="white" stroke="black" cx="299.74" cy="-26.75" rx="27" ry="27" />
            <ellipse fill="none" stroke="black" cx="299.74" cy="-26.75" rx="22.96" ry="22.96" />
            <text text-anchor="middle" x="299.74" y="-23.05" font-family="Times,serif" font-size="14.00">qn</text>
        </g>
        <!-- qn&#45;&gt;qn -->
        <g id="edge6" class="edge">
            <title>qn&#45;&gt;qn</title>
            <path fill="none" stroke="black"
                d="M287.24,-50.69C285.88,-61.79 290.04,-71.5 299.74,-71.5 306.71,-71.5 310.82,-66.48 312.08,-59.54" />
            <polygon fill="black" stroke="black" points="315.06,-59.24 312.24,-50.69 309.11,-59.13 315.06,-59.24" />
            <text text-anchor="middle" x="299.74" y="-75.3" font-family="Times,serif" font-size="14.00"> 0,...,9 </text>
        </g>
        <!-- qs&#45;&gt;qn -->
        <g id="edge5" class="edge">
            <title>qs&#45;&gt;qn</title>
            <path fill="none" stroke="black" d="M187.2,-26.75C207.77,-26.75 239.71,-26.75 264.15,-26.75" />
            <polygon fill="black" stroke="black" points="264.28,-29.72 272.78,-26.75 264.28,-23.77 264.28,-29.72" />
            <text text-anchor="middle" x="229.99" y="-30.55" font-family="Times,serif" font-size="14.00"> 0,...,9
            </text>
        </g>
    </g>
</svg>