<?xml version="1.0" encoding="UTF-8" standalone="no"?>
<!DOCTYPE svg PUBLIC "-//W3C//DTD SVG 1.1//EN" "http://www.w3.org/Graphics/SVG/1.1/DTD/svg11.dtd">
<!-- Generated by graphviz version 2.43.0 (0)
 -->
<!-- Title: %3 Pages: 1 -->
<svg width="102pt" height="94pt" viewBox="0.00 0.00 102.10 94.50" xmlns="http://www.w3.org/2000/svg"
    xmlns:xlink="http://www.w3.org/1999/xlink">
    <g id="graph0" class="graph" transform="scale(1 1) rotate(0) translate(4 90.5)">
        <title>%3</title>
        <polygon fill="none" stroke="transparent" points="-4,4 -4,-90.5 98.1,-90.5 98.1,4 -4,4" />
        <!-- Initial -->
        <g id="node1" class="node">
            <title>Initial</title>
            <ellipse fill="black" stroke="black" cx="1.8" cy="-26.75" rx="1.8" ry="1.8" />
        </g>
        <!-- qb -->
        <g id="node2" class="node">
            <title>qb</title>
            <ellipse fill="white" stroke="black" cx="67.35" cy="-26.75" rx="27" ry="27" />
            <ellipse fill="none" stroke="black" cx="67.35" cy="-26.75" rx="22.96" ry="22.96" />
            <text text-anchor="middle" x="67.35" y="-23.05" font-family="Times,serif" font-size="14.00">qb</text>
        </g>
        <!-- Initial&#45;&gt;qb -->
        <g id="edge1" class="edge">
            <title>Initial&#45;&gt;qb</title>
            <path fill="none" stroke="black" d="M3.9,-26.75C7.49,-26.75 19.32,-26.75 31.74,-26.75" />
            <polygon fill="black" stroke="black" points="31.83,-29.72 40.33,-26.75 31.83,-23.77 31.83,-29.72" />
        </g>
        <!-- qb&#45;&gt;qb -->
        <g id="edge2" class="edge">
            <title>qb&#45;&gt;qb</title>
            <path fill="none" stroke="black"
                d="M59.15,-52.5C58.69,-62.83 61.42,-71.5 67.35,-71.5 71.52,-71.5 74.11,-67.21 75.12,-61.08" />
            <polygon fill="black" stroke="black" points="78.09,-61.14 75.55,-52.5 72.15,-60.84 78.09,-61.14" />
            <text text-anchor="middle" x="67.35" y="-75.3" font-family="Times,serif" font-size="14.00"> b </text>
        </g>
    </g>
</svg>