<?xml version="1.0" encoding="UTF-8" standalone="no"?>
<!DOCTYPE svg PUBLIC "-//W3C//DTD SVG 1.1//EN" "http://www.w3.org/Graphics/SVG/1.1/DTD/svg11.dtd">
<!-- Generated by graphviz version 2.43.0 (0)
 -->
<!-- Title: %3 Pages: 1 -->
<svg width="423pt" height="137pt" viewBox="0.00 0.00 423.38 137.14" xmlns="http://www.w3.org/2000/svg"
    xmlns:xlink="http://www.w3.org/1999/xlink">
    <g id="graph0" class="graph" transform="scale(1 1) rotate(0) translate(4 133.14)">
        <title>%3</title>
        <polygon fill="none" stroke="transparent" points="-4,4 -4,-133.14 419.38,-133.14 419.38,4 -4,4" />
        <!-- Initial -->
        <g id="node1" class="node">
            <title>Initial</title>
            <ellipse fill="black" stroke="black" cx="1.8" cy="-40.4" rx="1.8" ry="1.8" />
        </g>
        <!-- q0 -->
        <g id="node3" class="node">
            <title>q0</title>
            <ellipse fill="white" stroke="black" cx="63.35" cy="-40.4" rx="23" ry="23" />
            <text text-anchor="middle" x="63.35" y="-36.7" font-family="Times,serif" font-size="14.00">q0</text>
        </g>
        <!-- Initial&#45;&gt;q0 -->
        <g id="edge1" class="edge">
            <title>Initial&#45;&gt;q0</title>
            <path fill="none" stroke="black" d="M3.83,-40.4C7.36,-40.4 19.4,-40.4 31.65,-40.4" />
            <polygon fill="black" stroke="black" points="31.98,-43.37 40.48,-40.4 31.98,-37.42 31.98,-43.37" />
        </g>
        <!-- ... -->
        <g id="node2" class="node">
            <title>...</title>
            <ellipse fill="white" stroke="black" cx="260.09" cy="-40.4" rx="19.5" ry="19.5" />
            <text text-anchor="middle" x="260.09" y="-36.7" font-family="Times,serif" font-size="14.00">...</text>
        </g>
        <!-- qn+1 -->
        <g id="node5" class="node">
            <title>qn+1</title>
            <ellipse fill="white" stroke="black" cx="374.99" cy="-40.4" rx="40.29" ry="40.29" />
            <ellipse fill="none" stroke="black" cx="374.99" cy="-40.4" rx="36.3" ry="36.3" />
            <text text-anchor="middle" x="374.99" y="-36.7" font-family="Times,serif" font-size="14.00">qn+1</text>
        </g>
        <!-- ...&#45;&gt;qn+1 -->
        <g id="edge7" class="edge">
            <title>...&#45;&gt;qn+1</title>
            <path fill="none" stroke="black" d="M279.73,-40.4C292.2,-40.4 309.23,-40.4 325.38,-40.4" />
            <polygon fill="black" stroke="black" points="325.73,-43.37 334.23,-40.4 325.73,-37.42 325.73,-43.37" />
            <text text-anchor="middle" x="307.09" y="-44.2" font-family="Times,serif" font-size="14.00"> a </text>
        </g>
        <!-- ...&#45;&gt;qn+1 -->
        <g id="edge8" class="edge">
            <title>...&#45;&gt;qn+1</title>
            <path fill="none" stroke="black"
                d="M276.78,-30.12C283,-26.63 290.37,-23.16 297.59,-21.4 307.96,-18.86 319.11,-19.64 329.61,-21.95" />
            <polygon fill="black" stroke="black" points="328.88,-24.83 337.86,-24.09 330.38,-19.08 328.88,-24.83" />
            <text text-anchor="middle" x="307.09" y="-25.2" font-family="Times,serif" font-size="14.00"> b </text>
        </g>
        <!-- q0&#45;&gt;q0 -->
        <g id="edge2" class="edge">
            <title>q0&#45;&gt;q0</title>
            <path fill="none" stroke="black"
                d="M59.64,-63.02C59.34,-72.79 60.57,-81.14 63.35,-81.14 65.25,-81.14 66.43,-77.19 66.89,-71.55" />
            <polygon fill="black" stroke="black" points="69.86,-71.58 67.05,-63.02 63.91,-71.46 69.86,-71.58" />
            <text text-anchor="middle" x="63.35" y="-84.94" font-family="Times,serif" font-size="14.00"> a </text>
        </g>
        <!-- q0&#45;&gt;q0 -->
        <g id="edge4" class="edge">
            <title>q0&#45;&gt;q0</title>
            <path fill="none" stroke="black"
                d="M56.95,-62.39C54.3,-80.42 56.43,-99.14 63.35,-99.14 69.13,-99.14 71.57,-86.06 70.67,-71.24" />
            <polygon fill="black" stroke="black" points="73.58,-70.54 69.75,-62.39 67.67,-71.16 73.58,-70.54" />
            <text text-anchor="middle" x="63.35" y="-102.94" font-family="Times,serif" font-size="14.00"> b </text>
        </g>
        <!-- q1 -->
        <g id="node4" class="node">
            <title>q1</title>
            <ellipse fill="white" stroke="black" cx="162.84" cy="-40.4" rx="23" ry="23" />
            <text text-anchor="middle" x="162.84" y="-36.7" font-family="Times,serif" font-size="14.00">q1</text>
        </g>
        <!-- q0&#45;&gt;q1 -->
        <g id="edge3" class="edge">
            <title>q0&#45;&gt;q1</title>
            <path fill="none" stroke="black" d="M86.47,-40.4C99.68,-40.4 116.66,-40.4 131.16,-40.4" />
            <polygon fill="black" stroke="black" points="131.31,-43.37 139.81,-40.4 131.31,-37.42 131.31,-43.37" />
            <text text-anchor="middle" x="113.1" y="-44.2" font-family="Times,serif" font-size="14.00"> a </text>
        </g>
        <!-- q1&#45;&gt;... -->
        <g id="edge5" class="edge">
            <title>q1&#45;&gt;...</title>
            <path fill="none" stroke="black" d="M185.93,-40.4C199.59,-40.4 217.22,-40.4 231.75,-40.4" />
            <polygon fill="black" stroke="black" points="231.83,-43.37 240.33,-40.4 231.83,-37.42 231.83,-43.37" />
            <text text-anchor="middle" x="213.09" y="-44.2" font-family="Times,serif" font-size="14.00"> a </text>
        </g>
        <!-- q1&#45;&gt;... -->
        <g id="edge6" class="edge">
            <title>q1&#45;&gt;...</title>
            <path fill="none" stroke="black"
                d="M182.69,-28.71C194.12,-23.04 209.06,-18.08 222.59,-21.4 226.99,-22.47 231.45,-24.18 235.66,-26.14" />
            <polygon fill="black" stroke="black" points="234.48,-28.88 243.4,-30.12 237.21,-23.59 234.48,-28.88" />
            <text text-anchor="middle" x="213.09" y="-25.2" font-family="Times,serif" font-size="14.00"> b </text>
        </g>
    </g>
</svg>