<?xml version="1.0" encoding="UTF-8" standalone="no"?>
<!DOCTYPE svg PUBLIC "-//W3C//DTD SVG 1.1//EN" "http://www.w3.org/Graphics/SVG/1.1/DTD/svg11.dtd">
<!-- Generated by graphviz version 2.43.0 (0)
 -->
<!-- Title: %3 Pages: 1 -->
<svg width="183pt" height="52pt" viewBox="0.00 0.00 182.60 52.00" xmlns="http://www.w3.org/2000/svg"
    xmlns:xlink="http://www.w3.org/1999/xlink">
    <g id="graph0" class="graph" transform="scale(1 1) rotate(0) translate(4 48)">
        <title>%3</title>
        <polygon fill="none" stroke="transparent" points="-4,4 -4,-48 178.6,-48 178.6,4 -4,4" />
        <!-- Initial -->
        <g id="node1" class="node">
            <title>Initial</title>
            <ellipse fill="black" stroke="black" cx="1.8" cy="-22" rx="1.8" ry="1.8" />
        </g>
        <!-- A -->
        <g id="node2" class="node">
            <title>A</title>
            <ellipse fill="white" stroke="black" cx="58.6" cy="-22" rx="18" ry="18" />
            <text text-anchor="middle" x="58.6" y="-18.3" font-family="Times,serif" font-size="14.00">A</text>
        </g>
        <!-- Initial&#45;&gt;A -->
        <g id="edge1" class="edge">
            <title>Initial&#45;&gt;A</title>
            <path fill="none" stroke="black" d="M3.75,-22C7.25,-22 19.84,-22 31.96,-22" />
            <polygon fill="black" stroke="black" points="32.08,-24.98 40.58,-22 32.08,-19.03 32.08,-24.98" />
        </g>
        <!-- B -->
        <g id="node3" class="node">
            <title>B</title>
            <ellipse fill="white" stroke="black" cx="152.6" cy="-22" rx="22" ry="22" />
            <ellipse fill="none" stroke="black" cx="152.6" cy="-22" rx="18" ry="18" />
            <text text-anchor="middle" x="152.6" y="-18.3" font-family="Times,serif" font-size="14.00">B</text>
        </g>
        <!-- A&#45;&gt;B -->
        <g id="edge2" class="edge">
            <title>A&#45;&gt;B</title>
            <path fill="none" stroke="black" d="M76.9,-22C89.49,-22 106.85,-22 121.67,-22" />
            <polygon fill="black" stroke="black" points="122,-24.98 130.5,-22 122,-19.03 122,-24.98" />
            <text text-anchor="middle" x="103.6" y="-25.8" font-family="Times,serif" font-size="14.00"> x </text>
        </g>
    </g>
</svg>