<?xml version="1.0" encoding="UTF-8" standalone="no"?>
<!DOCTYPE svg PUBLIC "-//W3C//DTD SVG 1.1//EN" "http://www.w3.org/Graphics/SVG/1.1/DTD/svg11.dtd">
<!-- Generated by graphviz version 2.43.0 (0)
 -->
<!-- Title: %3 Pages: 1 -->
<svg width="184pt" height="85pt" viewBox="0.00 0.00 183.60 85.00" xmlns="http://www.w3.org/2000/svg"
    xmlns:xlink="http://www.w3.org/1999/xlink">
    <g id="graph0" class="graph" transform="scale(1 1) rotate(0) translate(4 81)">
        <title>%3</title>
        <polygon fill="none" stroke="transparent" points="-4,4 -4,-81 179.6,-81 179.6,4 -4,4" />
        <!-- Initial -->
        <g id="node1" class="node">
            <title>Initial</title>
            <ellipse fill="black" stroke="black" cx="1.8" cy="-22" rx="1.8" ry="1.8" />
        </g>
        <!-- 0 -->
        <g id="node2" class="node">
            <title>0</title>
            <ellipse fill="white" stroke="black" cx="62.6" cy="-22" rx="22" ry="22" />
            <ellipse fill="none" stroke="black" cx="62.6" cy="-22" rx="18" ry="18" />
            <text text-anchor="middle" x="62.6" y="-18.3" font-family="Times,serif" font-size="14.00">0</text>
        </g>
        <!-- Initial&#45;&gt;0 -->
        <g id="edge1" class="edge">
            <title>Initial&#45;&gt;0</title>
            <path fill="none" stroke="black" d="M3.82,-22C7.33,-22 19.36,-22 31.54,-22" />
            <polygon fill="black" stroke="black" points="31.81,-24.98 40.31,-22 31.81,-19.03 31.81,-24.98" />
        </g>
        <!-- 0&#45;&gt;0 -->
        <g id="edge2" class="edge">
            <title>0&#45;&gt;0</title>
            <path fill="none" stroke="black"
                d="M55.28,-42.99C54.38,-53.09 56.82,-62 62.6,-62 66.57,-62 68.97,-57.79 69.78,-51.87" />
            <polygon fill="black" stroke="black" points="72.76,-51.53 69.92,-42.99 66.82,-51.45 72.76,-51.53" />
            <text text-anchor="middle" x="62.6" y="-65.8" font-family="Times,serif" font-size="14.00"> a </text>
        </g>
        <!-- 1 -->
        <g id="node3" class="node">
            <title>1</title>
            <ellipse fill="white" stroke="black" cx="157.6" cy="-22" rx="18" ry="18" />
            <text text-anchor="middle" x="157.6" y="-18.3" font-family="Times,serif" font-size="14.00">1</text>
        </g>
        <!-- 0&#45;&gt;1 -->
        <g id="edge3" class="edge">
            <title>0&#45;&gt;1</title>
            <path fill="none" stroke="black" d="M84.7,-22C98.37,-22 116.27,-22 130.78,-22" />
            <polygon fill="black" stroke="black" points="130.82,-24.98 139.32,-22 130.82,-19.03 130.82,-24.98" />
            <text text-anchor="middle" x="112.1" y="-25.8" font-family="Times,serif" font-size="14.00"> b </text>
        </g>
        <!-- 1&#45;&gt;0 -->
        <g id="edge5" class="edge">
            <title>1&#45;&gt;0</title>
            <path fill="none" stroke="black"
                d="M142.29,-12.13C136.2,-8.51 128.84,-4.84 121.6,-3 111.01,-0.31 99.54,-2.87 89.62,-6.89" />
            <polygon fill="black" stroke="black" points="88.18,-4.27 81.7,-10.52 90.67,-9.68 88.18,-4.27" />
            <text text-anchor="middle" x="112.1" y="-6.8" font-family="Times,serif" font-size="14.00"> b </text>
        </g>
        <!-- 1&#45;&gt;1 -->
        <g id="edge4" class="edge">
            <title>1&#45;&gt;1</title>
            <path fill="none" stroke="black"
                d="M149.93,-38.29C148.08,-48.39 150.64,-58 157.6,-58 162.49,-58 165.21,-53.25 165.75,-46.92" />
            <polygon fill="black" stroke="black" points="168.71,-46.61 165.27,-38.29 162.77,-46.94 168.71,-46.61" />
            <text text-anchor="middle" x="157.6" y="-61.8" font-family="Times,serif" font-size="14.00"> a </text>
        </g>
    </g>
</svg>