<?xml version="1.0" encoding="UTF-8" standalone="no"?>
<!DOCTYPE svg PUBLIC "-//W3C//DTD SVG 1.1//EN" "http://www.w3.org/Graphics/SVG/1.1/DTD/svg11.dtd">
<!-- Generated by graphviz version 2.43.0 (0)
 -->
<!-- Title: %3 Pages: 1 -->
<svg width="393pt" height="122pt" viewBox="0.00 0.00 392.78 122.30" xmlns="http://www.w3.org/2000/svg"
    xmlns:xlink="http://www.w3.org/1999/xlink">
    <g id="graph0" class="graph" transform="scale(1 1) rotate(0) translate(4 118.3)">
        <title>%3</title>
        <polygon fill="none" stroke="transparent" points="-4,4 -4,-118.3 388.78,-118.3 388.78,4 -4,4" />
        <!-- Initial -->
        <g id="node1" class="node">
            <title>Initial</title>
            <ellipse fill="black" stroke="black" cx="1.8" cy="-24.15" rx="1.8" ry="1.8" />
        </g>
        <!-- q0 -->
        <g id="node4" class="node">
            <title>q0</title>
            <ellipse fill="white" stroke="black" cx="63.35" cy="-24.15" rx="23" ry="23" />
            <text text-anchor="middle" x="63.35" y="-20.45" font-family="Times,serif" font-size="14.00">q0</text>
        </g>
        <!-- Initial&#45;&gt;q0 -->
        <g id="edge1" class="edge">
            <title>Initial&#45;&gt;q0</title>
            <path fill="none" stroke="black" d="M3.83,-24.15C7.36,-24.15 19.4,-24.15 31.65,-24.15" />
            <polygon fill="black" stroke="black" points="31.98,-27.12 40.48,-24.15 31.98,-21.17 31.98,-27.12" />
        </g>
        <!-- a1 -->
        <g id="node2" class="node">
            <title>a1</title>
            <ellipse fill="white" stroke="black" cx="162.19" cy="-24.15" rx="22.2" ry="22.2" />
            <text text-anchor="middle" x="162.19" y="-20.45" font-family="Times,serif" font-size="14.00">a1</text>
        </g>
        <!-- a2 -->
        <g id="node3" class="node">
            <title>a2</title>
            <ellipse fill="white" stroke="black" cx="260.39" cy="-24.15" rx="22.2" ry="22.2" />
            <text text-anchor="middle" x="260.39" y="-20.45" font-family="Times,serif" font-size="14.00">a2</text>
        </g>
        <!-- a1&#45;&gt;a2 -->
        <g id="edge5" class="edge">
            <title>a1&#45;&gt;a2</title>
            <path fill="none" stroke="black" d="M184.54,-24.15C197.74,-24.15 214.89,-24.15 229.44,-24.15" />
            <polygon fill="black" stroke="black" points="229.6,-27.12 238.1,-24.15 229.6,-21.17 229.6,-27.12" />
            <text text-anchor="middle" x="211.29" y="-27.95" font-family="Times,serif" font-size="14.00"> a </text>
        </g>
        <!-- qf -->
        <g id="node5" class="node">
            <title>qf</title>
            <ellipse fill="white" stroke="black" cx="360.64" cy="-24.15" rx="24.3" ry="24.3" />
            <ellipse fill="none" stroke="black" cx="360.64" cy="-24.15" rx="20.27" ry="20.27" />
            <text text-anchor="middle" x="360.64" y="-20.45" font-family="Times,serif" font-size="14.00">qf</text>
        </g>
        <!-- a2&#45;&gt;qf -->
        <g id="edge6" class="edge">
            <title>a2&#45;&gt;qf</title>
            <path fill="none" stroke="black" d="M282.71,-24.15C295.79,-24.15 312.81,-24.15 327.5,-24.15" />
            <polygon fill="black" stroke="black" points="327.8,-27.12 336.3,-24.15 327.8,-21.17 327.8,-27.12" />
            <text text-anchor="middle" x="309.49" y="-27.95" font-family="Times,serif" font-size="14.00"> a </text>
        </g>
        <!-- q0&#45;&gt;a1 -->
        <g id="edge3" class="edge">
            <title>q0&#45;&gt;a1</title>
            <path fill="none" stroke="black" d="M86.32,-24.15C99.63,-24.15 116.79,-24.15 131.32,-24.15" />
            <polygon fill="black" stroke="black" points="131.47,-27.12 139.97,-24.15 131.47,-21.17 131.47,-27.12" />
            <text text-anchor="middle" x="113.1" y="-27.95" font-family="Times,serif" font-size="14.00"> a </text>
        </g>
        <!-- q0&#45;&gt;q0 -->
        <g id="edge2" class="edge">
            <title>q0&#45;&gt;q0</title>
            <path fill="none" stroke="black"
                d="M59.64,-46.78C59.34,-56.54 60.57,-64.9 63.35,-64.9 65.25,-64.9 66.43,-60.95 66.89,-55.3" />
            <polygon fill="black" stroke="black" points="69.86,-55.33 67.05,-46.78 63.91,-55.22 69.86,-55.33" />
            <text text-anchor="middle" x="63.35" y="-68.7" font-family="Times,serif" font-size="14.00"> a </text>
        </g>
        <!-- q0&#45;&gt;q0 -->
        <g id="edge4" class="edge">
            <title>q0&#45;&gt;q0</title>
            <path fill="none" stroke="black"
                d="M56.95,-46.15C54.3,-64.17 56.43,-82.9 63.35,-82.9 69.13,-82.9 71.57,-69.81 70.67,-54.99" />
            <polygon fill="black" stroke="black" points="73.58,-54.29 69.75,-46.15 67.67,-54.91 73.58,-54.29" />
            <text text-anchor="middle" x="63.35" y="-86.7" font-family="Times,serif" font-size="14.00"> b </text>
        </g>
        <!-- qf&#45;&gt;qf -->
        <g id="edge7" class="edge">
            <title>qf&#45;&gt;qf</title>
            <path fill="none" stroke="black"
                d="M355.99,-47.98C355.67,-57.89 357.22,-66.3 360.64,-66.3 362.99,-66.3 364.45,-62.32 365.04,-56.62" />
            <polygon fill="black" stroke="black" points="368.01,-56.56 365.28,-47.98 362.07,-56.39 368.01,-56.56" />
            <text text-anchor="middle" x="360.64" y="-70.1" font-family="Times,serif" font-size="14.00"> a </text>
        </g>
        <!-- qf&#45;&gt;qf -->
        <g id="edge8" class="edge">
            <title>qf&#45;&gt;qf</title>
            <path fill="none" stroke="black"
                d="M352.58,-46.98C349.36,-65.34 352.04,-84.3 360.64,-84.3 367.89,-84.3 370.93,-70.8 369.77,-55.56" />
            <polygon fill="black" stroke="black" points="372.7,-55.05 368.69,-46.98 366.8,-55.79 372.7,-55.05" />
            <text text-anchor="middle" x="360.64" y="-88.1" font-family="Times,serif" font-size="14.00"> b </text>
        </g>
    </g>
</svg>