<?xml version="1.0" encoding="UTF-8" standalone="no"?>
<!DOCTYPE svg PUBLIC "-//W3C//DTD SVG 1.1//EN" "http://www.w3.org/Graphics/SVG/1.1/DTD/svg11.dtd">
<!-- Generated by graphviz version 2.43.0 (0)
 -->
<!-- Title: %3 Pages: 1 -->
<svg width="419pt" height="127pt" viewBox="0.00 0.00 418.58 127.50" xmlns="http://www.w3.org/2000/svg"
    xmlns:xlink="http://www.w3.org/1999/xlink">
    <g id="graph0" class="graph" transform="scale(1 1) rotate(0) translate(4 123.5)">
        <title>%3</title>
        <polygon fill="none" stroke="transparent" points="-4,4 -4,-123.5 414.58,-123.5 414.58,4 -4,4" />
        <!-- Initial -->
        <g id="node1" class="node">
            <title>Initial</title>
            <ellipse fill="black" stroke="black" cx="1.8" cy="-26.75" rx="1.8" ry="1.8" />
        </g>
        <!-- q0 -->
        <g id="node2" class="node">
            <title>q0</title>
            <ellipse fill="white" stroke="black" cx="67.35" cy="-26.75" rx="27" ry="27" />
            <ellipse fill="none" stroke="black" cx="67.35" cy="-26.75" rx="22.96" ry="22.96" />
            <text text-anchor="middle" x="67.35" y="-23.05" font-family="Times,serif" font-size="14.00">q0</text>
        </g>
        <!-- Initial&#45;&gt;q0 -->
        <g id="edge1" class="edge">
            <title>Initial&#45;&gt;q0</title>
            <path fill="none" stroke="black" d="M3.9,-26.75C7.49,-26.75 19.32,-26.75 31.74,-26.75" />
            <polygon fill="black" stroke="black" points="31.83,-29.72 40.33,-26.75 31.83,-23.77 31.83,-29.72" />
        </g>
        <!-- q0&#45;&gt;q0 -->
        <g id="edge3" class="edge">
            <title>q0&#45;&gt;q0</title>
            <path fill="none" stroke="black"
                d="M63.23,-53.39C63.1,-63.32 64.47,-71.5 67.35,-71.5 69.33,-71.5 70.59,-67.63 71.15,-61.99" />
            <polygon fill="black" stroke="black" points="74.13,-62 71.46,-53.39 68.18,-61.78 74.13,-62" />
            <text text-anchor="middle" x="67.35" y="-75.3" font-family="Times,serif" font-size="14.00"> a </text>
        </g>
        <!-- q0&#45;&gt;q0 -->
        <g id="edge4" class="edge">
            <title>q0&#45;&gt;q0</title>
            <path fill="none" stroke="black"
                d="M59.99,-52.53C57.59,-71.05 60.04,-89.5 67.35,-89.5 73.51,-89.5 76.22,-76.36 75.48,-61.14" />
            <polygon fill="black" stroke="black" points="78.43,-60.73 74.71,-52.53 72.5,-61.26 78.43,-60.73" />
            <text text-anchor="middle" x="67.35" y="-93.3" font-family="Times,serif" font-size="14.00"> b </text>
        </g>
        <!-- q1 -->
        <g id="node3" class="node">
            <title>q1</title>
            <ellipse fill="white" stroke="black" cx="174.84" cy="-26.75" rx="27" ry="27" />
            <ellipse fill="none" stroke="black" cx="174.84" cy="-26.75" rx="22.96" ry="22.96" />
            <text text-anchor="middle" x="174.84" y="-23.05" font-family="Times,serif" font-size="14.00">q1</text>
        </g>
        <!-- q0&#45;&gt;q1 -->
        <g id="edge2" class="edge">
            <title>q0&#45;&gt;q1</title>
            <path fill="none" stroke="black" d="M94.16,-26.75C107.69,-26.75 124.47,-26.75 139.13,-26.75" />
            <polygon fill="black" stroke="black" points="139.44,-29.72 147.94,-26.75 139.44,-23.77 139.44,-29.72" />
            <text text-anchor="middle" x="121.1" y="-30.55" font-family="Times,serif" font-size="14.00"> a </text>
        </g>
        <!-- q2 -->
        <g id="node4" class="node">
            <title>q2</title>
            <ellipse fill="white" stroke="black" cx="283.34" cy="-26.75" rx="27" ry="27" />
            <ellipse fill="none" stroke="black" cx="283.34" cy="-26.75" rx="22.96" ry="22.96" />
            <text text-anchor="middle" x="283.34" y="-23.05" font-family="Times,serif" font-size="14.00">q2</text>
        </g>
        <!-- q1&#45;&gt;q2 -->
        <g id="edge5" class="edge">
            <title>q1&#45;&gt;q2</title>
            <path fill="none" stroke="black" d="M201.62,-26.75C215.52,-26.75 232.85,-26.75 247.88,-26.75" />
            <polygon fill="black" stroke="black" points="247.93,-29.72 256.43,-26.75 247.93,-23.77 247.93,-29.72" />
            <text text-anchor="middle" x="229.09" y="-30.55" font-family="Times,serif" font-size="14.00"> a </text>
        </g>
        <!-- q1&#45;&gt;q2 -->
        <g id="edge6" class="edge">
            <title>q1&#45;&gt;q2</title>
            <path fill="none" stroke="black"
                d="M198.54,-14.13C210.35,-9.04 225.11,-4.95 238.59,-7.75 242.84,-8.63 247.18,-9.95 251.4,-11.49" />
            <polygon fill="black" stroke="black" points="250.31,-14.25 259.31,-14.66 252.53,-8.73 250.31,-14.25" />
            <text text-anchor="middle" x="229.09" y="-11.55" font-family="Times,serif" font-size="14.00"> b </text>
        </g>
        <!-- q3 -->
        <g id="node5" class="node">
            <title>q3</title>
            <ellipse fill="white" stroke="black" cx="387.84" cy="-26.75" rx="23" ry="23" />
            <text text-anchor="middle" x="387.84" y="-23.05" font-family="Times,serif" font-size="14.00">q3</text>
        </g>
        <!-- q2&#45;&gt;q3 -->
        <g id="edge7" class="edge">
            <title>q2&#45;&gt;q3</title>
            <path fill="none" stroke="black" d="M310.2,-26.75C324.15,-26.75 341.45,-26.75 356.09,-26.75" />
            <polygon fill="black" stroke="black" points="356.3,-29.72 364.8,-26.75 356.3,-23.77 356.3,-29.72" />
            <text text-anchor="middle" x="337.59" y="-30.55" font-family="Times,serif" font-size="14.00"> a </text>
        </g>
        <!-- q2&#45;&gt;q3 -->
        <g id="edge8" class="edge">
            <title>q2&#45;&gt;q3</title>
            <path fill="none" stroke="black"
                d="M307.08,-13.93C318.9,-8.78 333.66,-4.7 347.09,-7.75 351.36,-8.72 355.71,-10.2 359.89,-11.93" />
            <polygon fill="black" stroke="black" points="358.68,-14.65 367.65,-15.46 361.15,-9.23 358.68,-14.65" />
            <text text-anchor="middle" x="337.59" y="-11.55" font-family="Times,serif" font-size="14.00"> b </text>
        </g>
    </g>
</svg>