<?xml version="1.0" encoding="UTF-8" standalone="no"?>
<!DOCTYPE svg PUBLIC "-//W3C//DTD SVG 1.1//EN" "http://www.w3.org/Graphics/SVG/1.1/DTD/svg11.dtd">
<!-- Generated by graphviz version 2.43.0 (0)
 -->
<!-- Title: %3 Pages: 1 -->
<svg width="512pt" height="331pt" viewBox="0.00 0.00 512.08 330.75" xmlns="http://www.w3.org/2000/svg"
    xmlns:xlink="http://www.w3.org/1999/xlink">
    <g id="graph0" class="graph" transform="scale(1 1) rotate(0) translate(4 326.75)">
        <title>%3</title>
        <polygon fill="none" stroke="transparent" points="-4,4 -4,-326.75 508.08,-326.75 508.08,4 -4,4" />
        <!-- Initial -->
        <g id="node1" class="node">
            <title>Initial</title>
            <ellipse fill="black" stroke="black" cx="1.8" cy="-132" rx="1.8" ry="1.8" />
        </g>
        <!-- q0 -->
        <g id="node2" class="node">
            <title>q0</title>
            <ellipse fill="white" stroke="black" cx="67.35" cy="-132" rx="27" ry="27" />
            <ellipse fill="none" stroke="black" cx="67.35" cy="-132" rx="22.96" ry="22.96" />
            <text text-anchor="middle" x="67.35" y="-128.3" font-family="Times,serif" font-size="14.00">q0</text>
        </g>
        <!-- Initial&#45;&gt;q0 -->
        <g id="edge1" class="edge">
            <title>Initial&#45;&gt;q0</title>
            <path fill="none" stroke="black" d="M3.9,-132C7.49,-132 19.32,-132 31.74,-132" />
            <polygon fill="black" stroke="black" points="31.83,-134.98 40.33,-132 31.83,-129.03 31.83,-134.98" />
        </g>
        <!-- q1 -->
        <g id="node3" class="node">
            <title>q1</title>
            <ellipse fill="white" stroke="black" cx="171.84" cy="-234" rx="23" ry="23" />
            <text text-anchor="middle" x="171.84" y="-230.3" font-family="Times,serif" font-size="14.00">q1</text>
        </g>
        <!-- q0&#45;&gt;q1 -->
        <g id="edge2" class="edge">
            <title>q0&#45;&gt;q1</title>
            <path fill="none" stroke="black"
                d="M73.09,-158.26C78.54,-180.32 89.78,-210.76 112.1,-227 120.17,-232.88 130.59,-235.3 140.4,-236.04" />
            <polygon fill="black" stroke="black" points="140.58,-239.02 149.16,-236.3 140.75,-233.08 140.58,-239.02" />
            <text text-anchor="middle" x="121.6" y="-237.8" font-family="Times,serif" font-size="14.00"> a </text>
        </g>
        <!-- q0&#45;&gt;q1 -->
        <g id="edge6" class="edge">
            <title>q0&#45;&gt;q1</title>
            <path fill="none" stroke="black"
                d="M83.11,-153.94C91.06,-165.01 101.42,-178.33 112.1,-189 122.14,-199.03 134.46,-208.79 145.22,-216.64" />
            <polygon fill="black" stroke="black" points="143.72,-219.23 152.37,-221.75 147.18,-214.39 143.72,-219.23" />
            <text text-anchor="middle" x="121.6" y="-208.8" font-family="Times,serif" font-size="14.00"> b </text>
        </g>
        <!-- q2 -->
        <g id="node4" class="node">
            <title>q2</title>
            <ellipse fill="white" stroke="black" cx="272.34" cy="-193" rx="23" ry="23" />
            <text text-anchor="middle" x="272.34" y="-189.3" font-family="Times,serif" font-size="14.00">q2</text>
        </g>
        <!-- q0&#45;&gt;q2 -->
        <g id="edge5" class="edge">
            <title>q0&#45;&gt;q2</title>
            <path fill="none" stroke="black"
                d="M93.3,-140.09C99.44,-142.05 106,-144.12 112.1,-146 157.18,-159.86 209.68,-175.2 241.71,-184.47" />
            <polygon fill="black" stroke="black" points="241.18,-187.42 250.17,-186.92 242.83,-181.7 241.18,-187.42" />
            <text text-anchor="middle" x="171.84" y="-174.8" font-family="Times,serif" font-size="14.00"> b </text>
        </g>
        <!-- q3 -->
        <g id="node5" class="node">
            <title>q3</title>
            <ellipse fill="white" stroke="black" cx="372.84" cy="-131" rx="23" ry="23" />
            <text text-anchor="middle" x="372.84" y="-127.3" font-family="Times,serif" font-size="14.00">q3</text>
        </g>
        <!-- q0&#45;&gt;q3 -->
        <g id="edge3" class="edge">
            <title>q0&#45;&gt;q3</title>
            <path fill="none" stroke="black" d="M94.22,-131.91C149.99,-131.73 281.28,-131.3 341.14,-131.1" />
            <polygon fill="black" stroke="black" points="341.28,-134.08 349.77,-131.07 341.26,-128.13 341.28,-134.08" />
            <text text-anchor="middle" x="222.09" y="-135.8" font-family="Times,serif" font-size="14.00"> a </text>
        </g>
        <!-- q0&#45;&gt;q3 -->
        <g id="edge7" class="edge">
            <title>q0&#45;&gt;q3</title>
            <path fill="none" stroke="black"
                d="M93.72,-126.19C125.76,-119.52 182.62,-109.87 231.59,-113 269.61,-115.43 313.08,-121.53 341.41,-125.96" />
            <polygon fill="black" stroke="black" points="341.19,-128.93 350.06,-127.33 342.13,-123.06 341.19,-128.93" />
            <text text-anchor="middle" x="222.09" y="-116.8" font-family="Times,serif" font-size="14.00"> b </text>
        </g>
        <!-- q4 -->
        <g id="node6" class="node">
            <title>q4</title>
            <ellipse fill="white" stroke="black" cx="477.33" cy="-72" rx="27" ry="27" />
            <ellipse fill="none" stroke="black" cx="477.33" cy="-72" rx="22.96" ry="22.96" />
            <text text-anchor="middle" x="477.33" y="-68.3" font-family="Times,serif" font-size="14.00">q4</text>
        </g>
        <!-- q0&#45;&gt;q4 -->
        <g id="edge4" class="edge">
            <title>q0&#45;&gt;q4</title>
            <path fill="none" stroke="black"
                d="M82.85,-109.87C100.51,-85.88 132.74,-51 170.84,-51 170.84,-51 170.84,-51 373.84,-51 397.41,-51 423.43,-56.4 443.35,-61.72" />
            <polygon fill="black" stroke="black" points="442.78,-64.65 451.77,-64.06 444.37,-58.92 442.78,-64.65" />
            <text text-anchor="middle" x="272.34" y="-54.8" font-family="Times,serif" font-size="14.00"> a </text>
        </g>
        <!-- q0&#45;&gt;q4 -->
        <g id="edge8" class="edge">
            <title>q0&#45;&gt;q4</title>
            <path fill="none" stroke="black"
                d="M75.54,-106.24C88.03,-67.82 117.6,0 170.84,0 170.84,0 170.84,0 373.84,0 406.21,0 435.6,-24.35 454.52,-44.73" />
            <polygon fill="black" stroke="black" points="452.4,-46.83 460.29,-51.17 456.83,-42.86 452.4,-46.83" />
            <text text-anchor="middle" x="272.34" y="-3.8" font-family="Times,serif" font-size="14.00"> b </text>
        </g>
        <!-- q1&#45;&gt;q1 -->
        <g id="edge9" class="edge">
            <title>q1&#45;&gt;q1</title>
            <path fill="none" stroke="black"
                d="M167.21,-256.63C166.83,-266.39 168.38,-274.75 171.84,-274.75 174.23,-274.75 175.7,-270.8 176.27,-265.16" />
            <polygon fill="black" stroke="black" points="179.24,-265.2 176.48,-256.63 173.29,-265.05 179.24,-265.2" />
            <text text-anchor="middle" x="171.84" y="-278.55" font-family="Times,serif" font-size="14.00"> a </text>
        </g>
        <!-- q1&#45;&gt;q1 -->
        <g id="edge11" class="edge">
            <title>q1&#45;&gt;q1</title>
            <path fill="none" stroke="black"
                d="M163.96,-255.39C160.47,-273.6 163.1,-292.75 171.84,-292.75 179.22,-292.75 182.24,-279.12 180.92,-263.92" />
            <polygon fill="black" stroke="black" points="183.85,-263.4 179.73,-255.39 177.95,-264.22 183.85,-263.4" />
            <text text-anchor="middle" x="171.84" y="-296.55" font-family="Times,serif" font-size="14.00"> b </text>
        </g>
        <!-- q1&#45;&gt;q2 -->
        <g id="edge10" class="edge">
            <title>q1&#45;&gt;q2</title>
            <path fill="none" stroke="black" d="M193.25,-225.5C207.65,-219.51 227.12,-211.41 243.02,-204.79" />
            <polygon fill="black" stroke="black" points="244.25,-207.5 250.96,-201.48 241.97,-202 244.25,-207.5" />
            <text text-anchor="middle" x="222.09" y="-220.8" font-family="Times,serif" font-size="14.00"> b </text>
        </g>
        <!-- q2&#45;&gt;q3 -->
        <g id="edge12" class="edge">
            <title>q2&#45;&gt;q3</title>
            <path fill="none" stroke="black"
                d="M295.31,-192.1C306.96,-190.78 321.09,-187.75 332.09,-181 341.47,-175.25 349.55,-166.44 355.92,-157.82" />
            <polygon fill="black" stroke="black" points="358.47,-159.36 360.87,-150.68 353.58,-155.97 358.47,-159.36" />
            <text text-anchor="middle" x="322.59" y="-191.8" font-family="Times,serif" font-size="14.00"> a </text>
        </g>
        <!-- q2&#45;&gt;q3 -->
        <g id="edge13" class="edge">
            <title>q2&#45;&gt;q3</title>
            <path fill="none" stroke="black"
                d="M290.26,-178.73C297.14,-173.22 305.3,-167.04 313.09,-162 322.95,-155.63 334.25,-149.42 344.3,-144.26" />
            <polygon fill="black" stroke="black" points="345.78,-146.84 352.03,-140.35 343.1,-141.53 345.78,-146.84" />
            <text text-anchor="middle" x="322.59" y="-165.8" font-family="Times,serif" font-size="14.00"> b </text>
        </g>
        <!-- q3&#45;&gt;q4 -->
        <g id="edge14" class="edge">
            <title>q3&#45;&gt;q4</title>
            <path fill="none" stroke="black"
                d="M394.25,-123.32C405.82,-118.63 420.37,-112.18 432.58,-105 438.11,-101.75 443.76,-97.93 449.08,-94.06" />
            <polygon fill="black" stroke="black" points="451.08,-96.27 456.09,-88.8 447.51,-91.51 451.08,-96.27" />
            <text text-anchor="middle" x="423.08" y="-118.8" font-family="Times,serif" font-size="14.00"> a </text>
        </g>
        <!-- q3&#45;&gt;q4 -->
        <g id="edge15" class="edge">
            <title>q3&#45;&gt;q4</title>
            <path fill="none" stroke="black"
                d="M386.11,-112.23C393.09,-102.99 402.63,-92.47 413.58,-86 422.12,-80.96 432.29,-77.73 441.92,-75.66" />
            <polygon fill="black" stroke="black" points="442.74,-78.54 450.56,-74.07 441.66,-72.69 442.74,-78.54" />
            <text text-anchor="middle" x="423.08" y="-89.8" font-family="Times,serif" font-size="14.00"> b </text>
        </g>
    </g>
</svg>