<?xml version="1.0" encoding="UTF-8" standalone="no"?>
<!DOCTYPE svg PUBLIC "-//W3C//DTD SVG 1.1//EN" "http://www.w3.org/Graphics/SVG/1.1/DTD/svg11.dtd">
<!-- Generated by graphviz version 2.43.0 (0)
 -->
<!-- Title: %3 Pages: 1 -->
<svg width="192pt" height="85pt" viewBox="0.00 0.00 191.89 84.65" xmlns="http://www.w3.org/2000/svg"
    xmlns:xlink="http://www.w3.org/1999/xlink">
    <g id="graph0" class="graph" transform="scale(1 1) rotate(0) translate(4 80.65)">
        <title>%3</title>
        <polygon fill="none" stroke="transparent" points="-4,4 -4,-80.65 187.89,-80.65 187.89,4 -4,4" />
        <!-- Initial -->
        <g id="node1" class="node">
            <title>Initial</title>
            <ellipse fill="black" stroke="black" cx="1.8" cy="-24.15" rx="1.8" ry="1.8" />
        </g>
        <!-- X -->
        <g id="node3" class="node">
            <title>qi</title>
            <ellipse fill="white" stroke="black" cx="60.1" cy="-24.15" rx="19.5" ry="19.5" />
            <text text-anchor="middle" x="60.1" y="-20.45" font-family="Times,serif" font-size="14.00">X</text>
        </g>
        <!-- Initial&#45;&gt;qi -->
        <g id="edge1" class="edge">
            <title>Initial&#45;&gt;qi</title>
            <path fill="none" stroke="black" d="M3.78,-24.15C7.28,-24.15 19.64,-24.15 31.78,-24.15" />
            <polygon fill="black" stroke="black" points="31.96,-27.12 40.46,-24.15 31.96,-21.17 31.96,-27.12" />
        </g>
        <!-- Y -->
        <g id="node2" class="node">
            <title>qf</title>
            <ellipse fill="white" stroke="black" cx="159.74" cy="-24.15" rx="24.3" ry="24.3" />
            <ellipse fill="none" stroke="black" cx="159.74" cy="-24.15" rx="20.27" ry="20.27" />
            <text text-anchor="middle" x="159.74" y="-20.45" font-family="Times,serif" font-size="14.00">Y</text>
        </g>
        <!-- qi&#45;&gt;qf -->
        <g id="edge3" class="edge">
            <title>qi&#45;&gt;qf</title>
            <path fill="none" stroke="black" d="M79.93,-24.15C93.18,-24.15 111.24,-24.15 126.73,-24.15" />
            <polygon fill="black" stroke="black" points="127,-27.12 135.5,-24.15 127,-21.17 127,-27.12" />
            <text text-anchor="middle" x="107.6" y="-27.95" font-family="Times,serif" font-size="14.00"> B </text>
        </g>
        <!-- qi&#45;&gt;qi -->
        <g id="edge2" class="edge">
            <title>qi&#45;&gt;qi</title>
            <path fill="none" stroke="black"
                d="M53.63,-42.67C52.53,-52.6 54.68,-61.65 60.1,-61.65 63.82,-61.65 66,-57.37 66.65,-51.47" />
            <polygon fill="black" stroke="black" points="69.62,-51.14 66.57,-42.67 63.67,-51.2 69.62,-51.14" />
            <text text-anchor="middle" x="60.1" y="-65.45" font-family="Times,serif" font-size="14.00"> A </text>
        </g>
    </g>
</svg>