<?xml version="1.0" encoding="UTF-8" standalone="no"?>
<!DOCTYPE svg PUBLIC "-//W3C//DTD SVG 1.1//EN" "http://www.w3.org/Graphics/SVG/1.1/DTD/svg11.dtd">
<!-- Generated by graphviz version 2.43.0 (0)
 -->
<!-- Title: %3 Pages: 1 -->
<svg width="303pt" height="94pt" viewBox="0.00 0.00 303.09 94.50" xmlns="http://www.w3.org/2000/svg"
    xmlns:xlink="http://www.w3.org/1999/xlink">
    <g id="graph0" class="graph" transform="scale(1 1) rotate(0) translate(4 90.5)">
        <title>%3</title>
        <polygon fill="none" stroke="transparent" points="-4,4 -4,-90.5 299.09,-90.5 299.09,4 -4,4" />
        <!-- Initial -->
        <g id="node1" class="node">
            <title>Initial</title>
            <ellipse fill="black" stroke="black" cx="1.8" cy="-26.75" rx="1.8" ry="1.8" />
        </g>
        <!-- q0 -->
        <g id="node2" class="node">
            <title>q0</title>
            <ellipse fill="white" stroke="black" cx="63.35" cy="-26.75" rx="23" ry="23" />
            <text text-anchor="middle" x="63.35" y="-23.05" font-family="Times,serif" font-size="14.00">q0</text>
        </g>
        <!-- Initial&#45;&gt;q0 -->
        <g id="edge1" class="edge">
            <title>Initial&#45;&gt;q0</title>
            <path fill="none" stroke="black" d="M3.83,-26.75C7.36,-26.75 19.4,-26.75 31.65,-26.75" />
            <polygon fill="black" stroke="black" points="31.98,-29.72 40.48,-26.75 31.98,-23.77 31.98,-29.72" />
        </g>
        <!-- q0&#45;&gt;q0 -->
        <g id="edge3" class="edge">
            <title>q0&#45;&gt;q0</title>
            <path fill="none" stroke="black"
                d="M56,-48.55C55.19,-58.66 57.64,-67.5 63.35,-67.5 67.27,-67.5 69.65,-63.32 70.5,-57.42" />
            <polygon fill="black" stroke="black" points="73.48,-57.11 70.7,-48.55 67.53,-56.98 73.48,-57.11" />
            <text text-anchor="middle" x="63.35" y="-71.3" font-family="Times,serif" font-size="14.00"> b </text>
        </g>
        <!-- q1 -->
        <g id="node3" class="node">
            <title>q1</title>
            <ellipse fill="white" stroke="black" cx="163.84" cy="-26.75" rx="23" ry="23" />
            <text text-anchor="middle" x="163.84" y="-23.05" font-family="Times,serif" font-size="14.00">q1</text>
        </g>
        <!-- q0&#45;&gt;q1 -->
        <g id="edge2" class="edge">
            <title>q0&#45;&gt;q1</title>
            <path fill="none" stroke="black" d="M86.21,-26.75C99.72,-26.75 117.28,-26.75 132.17,-26.75" />
            <polygon fill="black" stroke="black" points="132.55,-29.72 141.05,-26.75 132.55,-23.77 132.55,-29.72" />
            <text text-anchor="middle" x="113.6" y="-30.55" font-family="Times,serif" font-size="14.00"> a </text>
        </g>
        <!-- q1&#45;&gt;q0 -->
        <g id="edge5" class="edge">
            <title>q1&#45;&gt;q0</title>
            <path fill="none" stroke="black"
                d="M143.66,-15.46C137.33,-12.32 130.11,-9.34 123.1,-7.75 114.86,-5.88 112.33,-5.88 104.1,-7.75 99.82,-8.72 95.47,-10.2 91.29,-11.93" />
            <polygon fill="black" stroke="black" points="90.03,-9.23 83.53,-15.46 92.5,-14.65 90.03,-9.23" />
            <text text-anchor="middle" x="113.6" y="-11.55" font-family="Times,serif" font-size="14.00"> b </text>
        </g>
        <!-- q2 -->
        <g id="node4" class="node">
            <title>q2</title>
            <ellipse fill="white" stroke="black" cx="268.34" cy="-26.75" rx="27" ry="27" />
            <ellipse fill="none" stroke="black" cx="268.34" cy="-26.75" rx="22.96" ry="22.96" />
            <text text-anchor="middle" x="268.34" y="-23.05" font-family="Times,serif" font-size="14.00">q2</text>
        </g>
        <!-- q1&#45;&gt;q2 -->
        <g id="edge4" class="edge">
            <title>q1&#45;&gt;q2</title>
            <path fill="none" stroke="black" d="M186.83,-26.75C200.21,-26.75 217.58,-26.75 232.76,-26.75" />
            <polygon fill="black" stroke="black" points="232.9,-29.72 241.4,-26.75 232.9,-23.77 232.9,-29.72" />
            <text text-anchor="middle" x="214.09" y="-30.55" font-family="Times,serif" font-size="14.00"> a </text>
        </g>
        <!-- q2&#45;&gt;q1 -->
        <g id="edge7" class="edge">
            <title>q2&#45;&gt;q1</title>
            <path fill="none" stroke="black"
                d="M244.6,-13.93C232.78,-8.78 218.02,-4.7 204.59,-7.75 200.32,-8.72 195.97,-10.2 191.79,-11.93" />
            <polygon fill="black" stroke="black" points="190.53,-9.23 184.03,-15.46 193,-14.65 190.53,-9.23" />
            <text text-anchor="middle" x="214.09" y="-11.55" font-family="Times,serif" font-size="14.00"> b </text>
        </g>
        <!-- q2&#45;&gt;q2 -->
        <g id="edge6" class="edge">
            <title>q2&#45;&gt;q2</title>
            <path fill="none" stroke="black"
                d="M258.34,-51.6C257.52,-62.32 260.85,-71.5 268.34,-71.5 273.72,-71.5 276.96,-66.75 278.05,-60.11" />
            <polygon fill="black" stroke="black" points="281.02,-60.19 278.34,-51.6 275.08,-59.99 281.02,-60.19" />
            <text text-anchor="middle" x="268.34" y="-75.3" font-family="Times,serif" font-size="14.00"> a </text>
        </g>
    </g>
</svg>