<?xml version="1.0" encoding="UTF-8" standalone="no"?>
<!DOCTYPE svg PUBLIC "-//W3C//DTD SVG 1.1//EN" "http://www.w3.org/Graphics/SVG/1.1/DTD/svg11.dtd">
<!-- Generated by graphviz version 2.43.0 (0)
 -->
<!-- Title: %3 Pages: 1 -->
<svg width="419pt" height="108pt" viewBox="0.00 0.00 418.58 108.50" xmlns="http://www.w3.org/2000/svg"
    xmlns:xlink="http://www.w3.org/1999/xlink">
    <g id="graph0" class="graph" transform="scale(1 1) rotate(0) translate(4 104.5)">
        <title>%3</title>
        <polygon fill="none" stroke="transparent" points="-4,4 -4,-104.5 414.58,-104.5 414.58,4 -4,4" />
        <!-- Initial -->
        <g id="node1" class="node">
            <title>Initial</title>
            <ellipse fill="black" stroke="black" cx="1.8" cy="-26.75" rx="1.8" ry="1.8" />
        </g>
        <!-- 00 -->
        <g id="node2" class="node">
            <title>00</title>
            <ellipse fill="white" stroke="black" cx="67.35" cy="-26.75" rx="27" ry="27" />
            <ellipse fill="none" stroke="black" cx="67.35" cy="-26.75" rx="22.96" ry="22.96" />
            <text text-anchor="middle" x="67.35" y="-23.05" font-family="Times,serif" font-size="14.00">00</text>
        </g>
        <!-- Initial&#45;&gt;00 -->
        <g id="edge1" class="edge">
            <title>Initial&#45;&gt;00</title>
            <path fill="none" stroke="black" d="M3.9,-26.75C7.49,-26.75 19.32,-26.75 31.74,-26.75" />
            <polygon fill="black" stroke="black" points="31.83,-29.72 40.33,-26.75 31.83,-23.77 31.83,-29.72" />
        </g>
        <!-- 01 -->
        <g id="node3" class="node">
            <title>01</title>
            <ellipse fill="white" stroke="black" cx="175.84" cy="-73.75" rx="27" ry="27" />
            <ellipse fill="none" stroke="black" cx="175.84" cy="-73.75" rx="22.96" ry="22.96" />
            <text text-anchor="middle" x="175.84" y="-70.05" font-family="Times,serif" font-size="14.00">01</text>
        </g>
        <!-- 00&#45;&gt;01 -->
        <g id="edge3" class="edge">
            <title>00&#45;&gt;01</title>
            <path fill="none" stroke="black"
                d="M88.1,-44.47C95.24,-50.08 103.63,-55.84 112.1,-59.75 120.94,-63.83 131.05,-66.76 140.53,-68.85" />
            <polygon fill="black" stroke="black" points="140.09,-71.79 149,-70.53 141.25,-65.96 140.09,-71.79" />
            <text text-anchor="middle" x="121.6" y="-69.55" font-family="Times,serif" font-size="14.00"> b </text>
        </g>
        <!-- 10 -->
        <g id="node4" class="node">
            <title>10</title>
            <ellipse fill="white" stroke="black" cx="383.84" cy="-26.75" rx="27" ry="27" />
            <ellipse fill="none" stroke="black" cx="383.84" cy="-26.75" rx="22.96" ry="22.96" />
            <text text-anchor="middle" x="383.84" y="-23.05" font-family="Times,serif" font-size="14.00">10</text>
        </g>
        <!-- 00&#45;&gt;10 -->
        <g id="edge2" class="edge">
            <title>00&#45;&gt;10</title>
            <path fill="none" stroke="black" d="M94.35,-26.75C150.74,-26.75 284.29,-26.75 347.94,-26.75" />
            <polygon fill="black" stroke="black" points="348.3,-29.72 356.8,-26.75 348.3,-23.77 348.3,-29.72" />
            <text text-anchor="middle" x="229.59" y="-30.55" font-family="Times,serif" font-size="14.00"> a </text>
        </g>
        <!-- 01&#45;&gt;00 -->
        <g id="edge5" class="edge">
            <title>01&#45;&gt;00</title>
            <path fill="none" stroke="black"
                d="M155.09,-56.02C147.95,-50.41 139.56,-44.66 131.1,-40.75 122.25,-36.66 112.15,-33.73 102.66,-31.65" />
            <polygon fill="black" stroke="black" points="103.1,-28.7 94.19,-29.96 101.94,-34.54 103.1,-28.7" />
            <text text-anchor="middle" x="121.6" y="-44.55" font-family="Times,serif" font-size="14.00"> b </text>
        </g>
        <!-- 11 -->
        <g id="node5" class="node">
            <title>11</title>
            <ellipse fill="white" stroke="black" cx="279.34" cy="-71.75" rx="23" ry="23" />
            <text text-anchor="middle" x="279.34" y="-68.05" font-family="Times,serif" font-size="14.00">11</text>
        </g>
        <!-- 01&#45;&gt;11 -->
        <g id="edge4" class="edge">
            <title>01&#45;&gt;11</title>
            <path fill="none" stroke="black" d="M202.72,-73.24C216.43,-72.97 233.37,-72.63 247.74,-72.35" />
            <polygon fill="black" stroke="black" points="247.86,-75.32 256.3,-72.18 247.74,-69.38 247.86,-75.32" />
            <text text-anchor="middle" x="229.59" y="-76.55" font-family="Times,serif" font-size="14.00"> a </text>
        </g>
        <!-- 10&#45;&gt;00 -->
        <g id="edge6" class="edge">
            <title>10&#45;&gt;00</title>
            <path fill="none" stroke="black"
                d="M357.4,-22.37C328.66,-17.67 280.43,-10.49 238.59,-7.75 191.19,-4.64 136.67,-12.81 102.36,-19.39" />
            <polygon fill="black" stroke="black" points="101.43,-16.54 93.67,-21.11 102.58,-22.38 101.43,-16.54" />
            <text text-anchor="middle" x="229.59" y="-11.55" font-family="Times,serif" font-size="14.00"> a </text>
        </g>
        <!-- 10&#45;&gt;11 -->
        <g id="edge7" class="edge">
            <title>10&#45;&gt;11</title>
            <path fill="none" stroke="black"
                d="M357.44,-32.08C345.75,-35.03 331.89,-39.22 320.09,-44.75 315.03,-47.12 309.9,-50.09 305.08,-53.2" />
            <polygon fill="black" stroke="black" points="303.19,-50.88 297.82,-58.11 306.53,-55.81 303.19,-50.88" />
            <text text-anchor="middle" x="329.59" y="-48.55" font-family="Times,serif" font-size="14.00"> b </text>
        </g>
        <!-- 11&#45;&gt;01 -->
        <g id="edge8" class="edge">
            <title>11&#45;&gt;01</title>
            <path fill="none" stroke="black"
                d="M259.61,-60.13C248.43,-54.57 233.87,-49.73 220.59,-52.75 216.19,-53.75 211.71,-55.25 207.38,-57.01" />
            <polygon fill="black" stroke="black" points="205.85,-54.43 199.3,-60.61 208.27,-59.86 205.85,-54.43" />
            <text text-anchor="middle" x="229.59" y="-56.55" font-family="Times,serif" font-size="14.00"> a </text>
        </g>
        <!-- 11&#45;&gt;10 -->
        <g id="edge9" class="edge">
            <title>11&#45;&gt;10</title>
            <path fill="none" stroke="black"
                d="M302.26,-69.62C313.63,-67.94 327.51,-64.97 339.09,-59.75 345.05,-57.06 350.96,-53.43 356.43,-49.57" />
            <polygon fill="black" stroke="black" points="358.55,-51.7 363.56,-44.22 354.98,-46.94 358.55,-51.7" />
            <text text-anchor="middle" x="329.59" y="-69.55" font-family="Times,serif" font-size="14.00"> b </text>
        </g>
    </g>
</svg>