<?xml version="1.0" encoding="UTF-8" standalone="no"?>
<!DOCTYPE svg PUBLIC "-//W3C//DTD SVG 1.1//EN" "http://www.w3.org/Graphics/SVG/1.1/DTD/svg11.dtd">
<!-- Generated by graphviz version 2.43.0 (0)
 -->
<!-- Title: %3 Pages: 1 -->
<svg width="203pt" height="197pt" viewBox="0.00 0.00 202.59 196.55" xmlns="http://www.w3.org/2000/svg"
    xmlns:xlink="http://www.w3.org/1999/xlink">
    <g id="graph0" class="graph" transform="scale(1 1) rotate(0) translate(4 192.55)">
        <title>%3</title>
        <polygon fill="none" stroke="transparent" points="-4,4 -4,-192.55 198.59,-192.55 198.59,4 -4,4" />
        <!-- Initial -->
        <g id="node1" class="node">
            <title>Initial</title>
            <ellipse fill="black" stroke="black" cx="1.8" cy="-72.8" rx="1.8" ry="1.8" />
        </g>
        <!-- q1 -->
        <g id="node4" class="node">
            <title>q1</title>
            <ellipse fill="white" stroke="black" cx="63.35" cy="-72.8" rx="23" ry="23" />
            <text text-anchor="middle" x="63.35" y="-69.1" font-family="Times,serif" font-size="14.00">q1</text>
        </g>
        <!-- Initial&#45;&gt;q1 -->
        <g id="edge1" class="edge">
            <title>Initial&#45;&gt;q1</title>
            <path fill="none" stroke="black" d="M3.83,-72.8C7.36,-72.8 19.4,-72.8 31.65,-72.8" />
            <polygon fill="black" stroke="black" points="31.98,-75.78 40.48,-72.8 31.98,-69.83 31.98,-75.78" />
        </g>
        <!-- Initial2 -->
        <g id="node2" class="node">
            <title>Initial2</title>
            <ellipse fill="black" stroke="black" cx="63.35" cy="-1.8" rx="1.8" ry="1.8" />
        </g>
        <!-- q2 -->
        <g id="node5" class="node">
            <title>q2</title>
            <ellipse fill="white" stroke="black" cx="167.84" cy="-28.8" rx="23" ry="23" />
            <text text-anchor="middle" x="167.84" y="-25.1" font-family="Times,serif" font-size="14.00">q2</text>
        </g>
        <!-- Initial2&#45;&gt;q2 -->
        <g id="edge2" class="edge">
            <title>Initial2&#45;&gt;q2</title>
            <path fill="none" stroke="black"
                d="M65.18,-1.98C70.44,-3.12 99.6,-9.51 123.1,-15.8 127.78,-17.05 132.73,-18.45 137.55,-19.85" />
            <polygon fill="black" stroke="black" points="137,-22.79 145.99,-22.35 138.68,-17.09 137,-22.79" />
        </g>
        <!-- q0 -->
        <g id="node3" class="node">
            <title>q0</title>
            <ellipse fill="white" stroke="black" cx="167.84" cy="-128.8" rx="27" ry="27" />
            <ellipse fill="none" stroke="black" cx="167.84" cy="-128.8" rx="22.96" ry="22.96" />
            <text text-anchor="middle" x="167.84" y="-125.1" font-family="Times,serif" font-size="14.00">q0</text>
        </g>
        <!-- q0&#45;&gt;q0 -->
        <g id="edge3" class="edge">
            <title>q0&#45;&gt;q0</title>
            <path fill="none" stroke="black"
                d="M157.84,-153.65C157.02,-164.37 160.36,-173.55 167.84,-173.55 173.23,-173.55 176.46,-168.81 177.55,-162.16" />
            <polygon fill="black" stroke="black" points="180.53,-162.25 177.85,-153.65 174.58,-162.04 180.53,-162.25" />
            <text text-anchor="middle" x="167.84" y="-177.35" font-family="Times,serif" font-size="14.00"> 1 </text>
        </g>
        <!-- q1&#45;&gt;q0 -->
        <g id="edge5" class="edge">
            <title>q1&#45;&gt;q0</title>
            <path fill="none" stroke="black" d="M83.63,-83.33C98.51,-91.47 119.39,-102.87 136.51,-112.22" />
            <polygon fill="black" stroke="black" points="135.19,-114.89 144.07,-116.36 138.04,-109.67 135.19,-114.89" />
            <text text-anchor="middle" x="113.6" y="-108.6" font-family="Times,serif" font-size="14.00"> 0 </text>
        </g>
        <!-- q1&#45;&gt;q1 -->
        <g id="edge4" class="edge">
            <title>q1&#45;&gt;q1</title>
            <path fill="none" stroke="black"
                d="M56,-94.6C55.19,-104.71 57.64,-113.55 63.35,-113.55 67.27,-113.55 69.65,-109.37 70.5,-103.48" />
            <polygon fill="black" stroke="black" points="73.48,-103.16 70.7,-94.6 67.53,-103.03 73.48,-103.16" />
            <text text-anchor="middle" x="63.35" y="-117.35" font-family="Times,serif" font-size="14.00"> 0 </text>
        </g>
        <!-- q1&#45;&gt;q2 -->
        <g id="edge6" class="edge">
            <title>q1&#45;&gt;q2</title>
            <path fill="none" stroke="black"
                d="M85.23,-65.6C96.55,-61.54 110.72,-56.21 123.1,-50.8 128.54,-48.42 134.27,-45.7 139.73,-43" />
            <polygon fill="black" stroke="black" points="141.2,-45.59 147.46,-39.11 138.53,-40.28 141.2,-45.59" />
            <text text-anchor="middle" x="113.6" y="-62.6" font-family="Times,serif" font-size="14.00"> 1 </text>
        </g>
        <!-- q2&#45;&gt;q1 -->
        <g id="edge8" class="edge">
            <title>q2&#45;&gt;q1</title>
            <path fill="none" stroke="black"
                d="M145.01,-25.99C132.5,-25.3 116.82,-26.05 104.1,-31.8 95.96,-35.47 88.64,-41.63 82.56,-48.07" />
            <polygon fill="black" stroke="black" points="80.26,-46.17 76.9,-54.53 84.74,-50.09 80.26,-46.17" />
            <text text-anchor="middle" x="113.6" y="-35.6" font-family="Times,serif" font-size="14.00"> 1 </text>
        </g>
        <!-- q2&#45;&gt;q2 -->
        <g id="edge7" class="edge">
            <title>q2&#45;&gt;q2</title>
            <path fill="none" stroke="black"
                d="M158.07,-49.35C156.57,-59.97 159.83,-69.55 167.84,-69.55 173.61,-69.55 176.91,-64.6 177.75,-57.87" />
            <polygon fill="black" stroke="black" points="180.73,-57.8 177.61,-49.35 174.78,-57.89 180.73,-57.8" />
            <text text-anchor="middle" x="167.84" y="-73.35" font-family="Times,serif" font-size="14.00"> 0 </text>
        </g>
    </g>
</svg>