<?xml version="1.0" encoding="UTF-8" standalone="no"?>
<!DOCTYPE svg PUBLIC "-//W3C//DTD SVG 1.1//EN" "http://www.w3.org/Graphics/SVG/1.1/DTD/svg11.dtd">
<!-- Generated by graphviz version 2.43.0 (0)
 -->
<!-- Title: %3 Pages: 1 -->
<svg width="336pt" height="209pt" viewBox="0.00 0.00 336.48 209.39" xmlns="http://www.w3.org/2000/svg"
    xmlns:xlink="http://www.w3.org/1999/xlink">
    <g id="graph0" class="graph" transform="scale(1 1) rotate(0) translate(4 205.39)">
        <title>%3</title>
        <polygon fill="none" stroke="transparent" points="-4,4 -4,-205.39 332.48,-205.39 332.48,4 -4,4" />
        <!-- Initial -->
        <g id="node1" class="node">
            <title>Initial</title>
            <ellipse fill="black" stroke="black" cx="1.8" cy="-67.69" rx="1.8" ry="1.8" />
        </g>
        <!-- {q1,q2} -->
        <g id="node3" class="node">
            <title>{q1,q2}</title>
            <ellipse fill="white" stroke="black" cx="89.35" cy="-67.69" rx="48.99" ry="48.99" />
            <text text-anchor="middle" x="89.35" y="-63.99" font-family="Times,serif" font-size="14.00">{q1,q2}</text>
        </g>
        <!-- Initial&#45;&gt;{q1,q2} -->
        <g id="edge1" class="edge">
            <title>Initial&#45;&gt;{q1,q2}</title>
            <path fill="none" stroke="black" d="M3.76,-67.69C7.04,-67.69 18.36,-67.69 31.69,-67.69" />
            <polygon fill="black" stroke="black" points="31.7,-70.67 40.2,-67.69 31.7,-64.72 31.7,-70.67" />
        </g>
        <!-- {q0,q1,q2} -->
        <g id="node2" class="node">
            <title>{q0,q1,q2}</title>
            <ellipse fill="white" stroke="black" cx="260.79" cy="-67.69" rx="67.89" ry="67.89" />
            <ellipse fill="none" stroke="black" cx="260.79" cy="-67.69" rx="63.88" ry="63.88" />
            <text text-anchor="middle" x="260.79" y="-63.99" font-family="Times,serif"
                font-size="14.00">{q0,q1,q2}</text>
        </g>
        <!-- {q0,q1,q2}&#45;&gt;{q0,q1,q2} -->
        <g id="edge4" class="edge">
            <title>{q0,q1,q2}&#45;&gt;{q0,q1,q2}</title>
            <path fill="none" stroke="black"
                d="M252.67,-135.23C253.86,-146.01 256.56,-153.39 260.79,-153.39 263.75,-153.39 265.97,-149.74 267.44,-143.83" />
            <polygon fill="black" stroke="black" points="270.41,-144.11 268.9,-135.23 264.55,-143.11 270.41,-144.11" />
            <text text-anchor="middle" x="260.79" y="-157.19" font-family="Times,serif" font-size="14.00"> 0 </text>
        </g>
        <!-- {q0,q1,q2}&#45;&gt;{q0,q1,q2} -->
        <g id="edge5" class="edge">
            <title>{q0,q1,q2}&#45;&gt;{q0,q1,q2}</title>
            <path fill="none" stroke="black"
                d="M243.16,-133.26C243.3,-154.51 249.17,-171.39 260.79,-171.39 270.77,-171.39 276.51,-158.92 278.01,-141.93" />
            <polygon fill="black" stroke="black" points="280.99,-141.89 278.41,-133.26 275.05,-141.62 280.99,-141.89" />
            <text text-anchor="middle" x="260.79" y="-175.19" font-family="Times,serif" font-size="14.00"> 1 </text>
        </g>
        <!-- {q1,q2}&#45;&gt;{q0,q1,q2} -->
        <g id="edge2" class="edge">
            <title>{q1,q2}&#45;&gt;{q0,q1,q2}</title>
            <path fill="none" stroke="black" d="M138.45,-67.69C152.73,-67.69 168.73,-67.69 184.31,-67.69" />
            <polygon fill="black" stroke="black" points="184.41,-70.67 192.91,-67.69 184.41,-64.72 184.41,-70.67" />
            <text text-anchor="middle" x="165.59" y="-71.49" font-family="Times,serif" font-size="14.00"> 0 </text>
        </g>
        <!-- {q1,q2}&#45;&gt;{q1,q2} -->
        <g id="edge3" class="edge">
            <title>{q1,q2}&#45;&gt;{q1,q2}</title>
            <path fill="none" stroke="black"
                d="M77.22,-115.09C78.21,-126.22 82.26,-134.44 89.35,-134.44 94.44,-134.44 97.96,-130.2 99.91,-123.67" />
            <polygon fill="black" stroke="black" points="102.88,-123.98 101.48,-115.09 97.03,-122.92 102.88,-123.98" />
            <text text-anchor="middle" x="89.35" y="-138.24" font-family="Times,serif" font-size="14.00"> 1 </text>
        </g>
    </g>
</svg>