<?xml version="1.0" encoding="UTF-8" standalone="no"?>
<!DOCTYPE svg PUBLIC "-//W3C//DTD SVG 1.1//EN" "http://www.w3.org/Graphics/SVG/1.1/DTD/svg11.dtd">
<!-- Generated by graphviz version 2.43.0 (0)
 -->
<!-- Title: %3 Pages: 1 -->
<svg width="203pt" height="127pt" viewBox="0.00 0.00 202.59 127.50" xmlns="http://www.w3.org/2000/svg"
    xmlns:xlink="http://www.w3.org/1999/xlink">
    <g id="graph0" class="graph" transform="scale(1 1) rotate(0) translate(4 123.5)">
        <title>%3</title>
        <polygon fill="none" stroke="transparent" points="-4,4 -4,-123.5 198.59,-123.5 198.59,4 -4,4" />
        <!-- Initial -->
        <g id="node1" class="node">
            <title>Initial</title>
            <ellipse fill="black" stroke="black" cx="1.8" cy="-26.75" rx="1.8" ry="1.8" />
        </g>
        <!-- q0 -->
        <g id="node2" class="node">
            <title>q0</title>
            <ellipse fill="white" stroke="black" cx="63.35" cy="-26.75" rx="23" ry="23" />
            <text text-anchor="middle" x="63.35" y="-23.05" font-family="Times,serif" font-size="14.00">q0</text>
        </g>
        <!-- Initial&#45;&gt;q0 -->
        <g id="edge1" class="edge">
            <title>Initial&#45;&gt;q0</title>
            <path fill="none" stroke="black" d="M3.83,-26.75C7.36,-26.75 19.4,-26.75 31.65,-26.75" />
            <polygon fill="black" stroke="black" points="31.98,-29.72 40.48,-26.75 31.98,-23.77 31.98,-29.72" />
        </g>
        <!-- q0&#45;&gt;q0 -->
        <g id="edge2" class="edge">
            <title>q0&#45;&gt;q0</title>
            <path fill="none" stroke="black"
                d="M56,-48.55C55.19,-58.66 57.64,-67.5 63.35,-67.5 67.27,-67.5 69.65,-63.32 70.5,-57.42" />
            <polygon fill="black" stroke="black" points="73.48,-57.11 70.7,-48.55 67.53,-56.98 73.48,-57.11" />
            <text text-anchor="middle" x="63.35" y="-71.3" font-family="Times,serif" font-size="14.00"> a </text>
        </g>
        <!-- q1 -->
        <g id="node3" class="node">
            <title>q1</title>
            <ellipse fill="white" stroke="black" cx="167.84" cy="-26.75" rx="27" ry="27" />
            <ellipse fill="none" stroke="black" cx="167.84" cy="-26.75" rx="22.96" ry="22.96" />
            <text text-anchor="middle" x="167.84" y="-23.05" font-family="Times,serif" font-size="14.00">q1</text>
        </g>
        <!-- q0&#45;&gt;q1 -->
        <g id="edge3" class="edge">
            <title>q0&#45;&gt;q1</title>
            <path fill="none" stroke="black" d="M86.34,-26.75C99.71,-26.75 117.08,-26.75 132.27,-26.75" />
            <polygon fill="black" stroke="black" points="132.41,-29.72 140.91,-26.75 132.41,-23.77 132.41,-29.72" />
            <text text-anchor="middle" x="113.6" y="-30.55" font-family="Times,serif" font-size="14.00"> a </text>
        </g>
        <!-- q1&#45;&gt;q0 -->
        <g id="edge5" class="edge">
            <title>q1&#45;&gt;q0</title>
            <path fill="none" stroke="black"
                d="M144.1,-13.93C132.28,-8.78 117.53,-4.7 104.1,-7.75 99.82,-8.72 95.47,-10.2 91.29,-11.93" />
            <polygon fill="black" stroke="black" points="90.03,-9.23 83.53,-15.46 92.5,-14.65 90.03,-9.23" />
            <text text-anchor="middle" x="113.6" y="-11.55" font-family="Times,serif" font-size="14.00"> b </text>
        </g>
        <!-- q1&#45;&gt;q1 -->
        <g id="edge4" class="edge">
            <title>q1&#45;&gt;q1</title>
            <path fill="none" stroke="black"
                d="M162.79,-53.39C162.63,-63.32 164.31,-71.5 167.84,-71.5 170.27,-71.5 171.83,-67.63 172.51,-61.99" />
            <polygon fill="black" stroke="black" points="175.49,-62.02 172.9,-53.39 169.54,-61.75 175.49,-62.02" />
            <text text-anchor="middle" x="167.84" y="-75.3" font-family="Times,serif" font-size="14.00"> a </text>
        </g>
        <!-- q1&#45;&gt;q1 -->
        <g id="edge6" class="edge">
            <title>q1&#45;&gt;q1</title>
            <path fill="none" stroke="black"
                d="M158.86,-52.2C155.83,-70.83 158.83,-89.5 167.84,-89.5 175.45,-89.5 178.77,-76.21 177.81,-60.87" />
            <polygon fill="black" stroke="black" points="180.74,-60.32 176.83,-52.2 174.82,-60.98 180.74,-60.32" />
            <text text-anchor="middle" x="167.84" y="-93.3" font-family="Times,serif" font-size="14.00"> b </text>
        </g>
    </g>
</svg>