<?xml version="1.0" encoding="UTF-8" standalone="no"?>
<!DOCTYPE svg PUBLIC "-//W3C//DTD SVG 1.1//EN"
 "http://www.w3.org/Graphics/SVG/1.1/DTD/svg11.dtd">
<!-- Generated by graphviz version 10.0.1 (0)
 -->
<!-- Pages: 1 -->
<svg width="340pt" height="99pt"
 viewBox="0.00 0.00 340.10 98.95" xmlns="http://www.w3.org/2000/svg" xmlns:xlink="http://www.w3.org/1999/xlink">
<g id="graph0" class="graph" transform="scale(1 1) rotate(0) translate(4 94.95)">
<polygon fill="white" stroke="none" points="-4,4 -4,-94.95 336.1,-94.95 336.1,4 -4,4"/>
<!-- Initial -->
<g id="node1" class="node">
<title>Initial</title>
<ellipse fill="black" stroke="black" cx="1.8" cy="-27.85" rx="1.8" ry="1.8"/>
</g>
<!-- q0 -->
<g id="node2" class="node">
<title>q0</title>
<ellipse fill="none" stroke="black" cx="64.45" cy="-27.85" rx="23.85" ry="23.85"/>
<text text-anchor="middle" x="64.45" y="-23.18" font-family="Times,serif" font-size="14.00">q0</text>
</g>
<!-- Initial&#45;&gt;q0 -->
<g id="edge1" class="edge">
<title>Initial&#45;&gt;q0</title>
<path fill="none" stroke="black" d="M3.85,-27.85C7.27,-27.85 18.51,-27.85 30.32,-27.85"/>
<polygon fill="black" stroke="black" points="30.21,-30.83 38.71,-27.85 30.21,-24.88 30.21,-30.83"/>
</g>
<!-- qs -->
<g id="node4" class="node">
<title>qs</title>
<ellipse fill="none" stroke="black" cx="168.1" cy="-27.85" rx="22.8" ry="22.8"/>
<text text-anchor="middle" x="168.1" y="-23.18" font-family="Times,serif" font-size="14.00">qs</text>
</g>
<!-- q0&#45;&gt;qs -->
<g id="edge2" class="edge">
<title>q0&#45;&gt;qs</title>
<path fill="none" stroke="black" d="M86.09,-38.93C92.4,-41.76 99.48,-44.41 106.3,-45.85 115.43,-47.77 118.18,-47.82 127.3,-45.85 131.11,-45.03 135,-43.81 138.77,-42.39"/>
<polygon fill="black" stroke="black" points="139.77,-45.2 146.44,-39.14 137.45,-39.72 139.77,-45.2"/>
<text text-anchor="middle" x="116.8" y="-50.8" font-family="Times,serif" font-size="14.00"> ε </text>
</g>
<!-- q0&#45;&gt;qs -->
<g id="edge3" class="edge">
<title>q0&#45;&gt;qs</title>
<path fill="none" stroke="black" d="M88.33,-25.71C94.19,-25.25 100.47,-24.83 106.3,-24.6 115.63,-24.23 117.98,-24.22 127.3,-24.6 129.94,-24.71 132.67,-24.86 135.41,-25.03"/>
<polygon fill="black" stroke="black" points="135.02,-27.98 143.71,-25.63 135.45,-22.05 135.02,-27.98"/>
<text text-anchor="middle" x="116.8" y="-27.8" font-family="Times,serif" font-size="14.00"> + </text>
</g>
<!-- q0&#45;&gt;qs -->
<g id="edge4" class="edge">
<title>q0&#45;&gt;qs</title>
<path fill="none" stroke="black" d="M83.94,-13.42C90.61,-9.06 98.44,-4.83 106.3,-2.6 115.28,-0.05 118.34,0 127.3,-2.6 132.18,-4.02 137.04,-6.24 141.6,-8.78"/>
<polygon fill="black" stroke="black" points="139.85,-11.2 148.64,-13.16 142.99,-6.14 139.85,-11.2"/>
<text text-anchor="middle" x="116.8" y="-5.8" font-family="Times,serif" font-size="14.00"> &#45; </text>
</g>
<!-- qn -->
<g id="node3" class="node">
<title>qn</title>
<ellipse fill="none" stroke="black" cx="304.25" cy="-27.85" rx="23.85" ry="23.85"/>
<ellipse fill="none" stroke="black" cx="304.25" cy="-27.85" rx="27.85" ry="27.85"/>
<text text-anchor="middle" x="304.25" y="-23.18" font-family="Times,serif" font-size="14.00">qn</text>
</g>
<!-- qn&#45;&gt;qn -->
<g id="edge6" class="edge">
<title>qn&#45;&gt;qn</title>
<path fill="none" stroke="black" d="M291.22,-52.85C289.98,-64.03 294.32,-73.7 304.25,-73.7 311.07,-73.7 315.26,-69.13 316.81,-62.64"/>
<polygon fill="black" stroke="black" points="319.77,-62.99 317.2,-54.36 313.82,-62.7 319.77,-62.99"/>
<text text-anchor="middle" x="304.25" y="-77.65" font-family="Times,serif" font-size="14.00"> 0,...,9 </text>
</g>
<!-- qs&#45;&gt;qn -->
<g id="edge5" class="edge">
<title>qs&#45;&gt;qn</title>
<path fill="none" stroke="black" d="M191.25,-27.85C211.57,-27.85 242.06,-27.85 266.1,-27.85"/>
<polygon fill="black" stroke="black" points="265.95,-30.83 274.45,-27.85 265.95,-24.88 265.95,-30.83"/>
<text text-anchor="middle" x="233.65" y="-31.8" font-family="Times,serif" font-size="14.00"> 0,...,9 </text>
</g>
</g>
</svg>
