<?xml version="1.0" encoding="UTF-8" standalone="no"?>
<!DOCTYPE svg PUBLIC "-//W3C//DTD SVG 1.1//EN"
 "http://www.w3.org/Graphics/SVG/1.1/DTD/svg11.dtd">
<!-- Generated by graphviz version 10.0.1 (0)
 -->
<!-- Pages: 1 -->
<svg width="495pt" height="223pt"
 viewBox="0.00 0.00 495.32 222.52" xmlns="http://www.w3.org/2000/svg" xmlns:xlink="http://www.w3.org/1999/xlink">
<g id="graph0" class="graph" transform="scale(1 1) rotate(0) translate(4 218.52)">
<polygon fill="white" stroke="none" points="-4,4 -4,-218.52 491.32,-218.52 491.32,4 -4,4"/>
<!-- Initial -->
<g id="node1" class="node">
<title>Initial</title>
<ellipse fill="black" stroke="black" cx="1.8" cy="-112.27" rx="1.8" ry="1.8"/>
</g>
<!-- r0 -->
<g id="node2" class="node">
<title>r0</title>
<ellipse fill="none" stroke="black" cx="66.87" cy="-112.27" rx="22.27" ry="22.27"/>
<ellipse fill="none" stroke="black" cx="66.87" cy="-112.27" rx="26.27" ry="26.27"/>
<text text-anchor="middle" x="66.87" y="-107.6" font-family="Times,serif" font-size="14.00">r0</text>
</g>
<!-- Initial&#45;&gt;r0 -->
<g id="edge1" class="edge">
<title>Initial&#45;&gt;r0</title>
<path fill="none" stroke="black" d="M3.89,-112.27C7.38,-112.27 18.7,-112.27 30.72,-112.27"/>
<polygon fill="black" stroke="black" points="30.37,-115.25 38.87,-112.27 30.37,-109.3 30.37,-115.25"/>
</g>
<!-- r0&#45;&gt;r0 -->
<g id="edge2" class="edge">
<title>r0&#45;&gt;r0</title>
<path fill="none" stroke="black" d="M58.55,-137.3C57.98,-147.72 60.75,-156.54 66.87,-156.54 70.89,-156.54 73.46,-152.74 74.6,-147.19"/>
<polygon fill="black" stroke="black" points="77.56,-147.48 75.1,-138.81 71.62,-147.12 77.56,-147.48"/>
<text text-anchor="middle" x="66.87" y="-160.49" font-family="Times,serif" font-size="14.00"> 0 </text>
</g>
<!-- r1 -->
<g id="node3" class="node">
<title>r1</title>
<ellipse fill="none" stroke="black" cx="169.42" cy="-157.27" rx="22.27" ry="22.27"/>
<text text-anchor="middle" x="169.42" y="-152.6" font-family="Times,serif" font-size="14.00">r1</text>
</g>
<!-- r0&#45;&gt;r1 -->
<g id="edge3" class="edge">
<title>r0&#45;&gt;r1</title>
<path fill="none" stroke="black" d="M91.45,-122.82C105.87,-129.28 124.41,-137.58 139.69,-144.41"/>
<polygon fill="black" stroke="black" points="138.36,-147.08 147.33,-147.83 140.79,-141.65 138.36,-147.08"/>
<text text-anchor="middle" x="120.14" y="-142.22" font-family="Times,serif" font-size="14.00"> 1 </text>
</g>
<!-- r2 -->
<g id="node4" class="node">
<title>r2</title>
<ellipse fill="none" stroke="black" cx="267.96" cy="-103.27" rx="22.27" ry="22.27"/>
<text text-anchor="middle" x="267.96" y="-98.6" font-family="Times,serif" font-size="14.00">r2</text>
</g>
<!-- r1&#45;&gt;r2 -->
<g id="edge4" class="edge">
<title>r1&#45;&gt;r2</title>
<path fill="none" stroke="black" d="M187.99,-144.13C194.62,-139.42 202.35,-134.24 209.69,-130.02 218.68,-124.85 228.84,-119.86 238.07,-115.61"/>
<polygon fill="black" stroke="black" points="239.01,-118.45 245.55,-112.25 236.57,-113.02 239.01,-118.45"/>
<text text-anchor="middle" x="218.69" y="-133.22" font-family="Times,serif" font-size="14.00"> 0 </text>
</g>
<!-- r3 -->
<g id="node5" class="node">
<title>r3</title>
<ellipse fill="none" stroke="black" cx="465.05" cy="-138.27" rx="22.27" ry="22.27"/>
<text text-anchor="middle" x="465.05" y="-133.6" font-family="Times,serif" font-size="14.00">r3</text>
</g>
<!-- r1&#45;&gt;r3 -->
<g id="edge5" class="edge">
<title>r1&#45;&gt;r3</title>
<path fill="none" stroke="black" d="M189.46,-167.8C195.72,-170.77 202.83,-173.63 209.69,-175.27 302.65,-197.55 336.66,-212.33 424.78,-175.27 431.66,-172.38 438.07,-167.69 443.63,-162.62"/>
<polygon fill="black" stroke="black" points="445.68,-164.78 449.58,-156.66 441.47,-160.57 445.68,-164.78"/>
<text text-anchor="middle" x="317.23" y="-201.22" font-family="Times,serif" font-size="14.00"> 1 </text>
</g>
<!-- r2&#45;&gt;r0 -->
<g id="edge7" class="edge">
<title>r2&#45;&gt;r0</title>
<path fill="none" stroke="black" d="M245.4,-104.25C211.31,-105.79 144.62,-108.8 103.39,-110.67"/>
<polygon fill="black" stroke="black" points="103.36,-107.69 95,-111.05 103.63,-113.63 103.36,-107.69"/>
<text text-anchor="middle" x="169.42" y="-113.22" font-family="Times,serif" font-size="14.00"> 1 </text>
</g>
<!-- r4 -->
<g id="node6" class="node">
<title>r4</title>
<ellipse fill="none" stroke="black" cx="366.5" cy="-22.27" rx="22.27" ry="22.27"/>
<text text-anchor="middle" x="366.5" y="-17.6" font-family="Times,serif" font-size="14.00">r4</text>
</g>
<!-- r2&#45;&gt;r4 -->
<g id="edge6" class="edge">
<title>r2&#45;&gt;r4</title>
<path fill="none" stroke="black" d="M285.78,-89.16C301.14,-76.27 324.04,-57.06 341.36,-42.53"/>
<polygon fill="black" stroke="black" points="343.12,-44.93 347.72,-37.19 339.3,-40.38 343.12,-44.93"/>
<text text-anchor="middle" x="317.23" y="-74.22" font-family="Times,serif" font-size="14.00"> 0 </text>
</g>
<!-- r3&#45;&gt;r1 -->
<g id="edge8" class="edge">
<title>r3&#45;&gt;r1</title>
<path fill="none" stroke="black" d="M442.88,-141.25C437.03,-141.99 430.66,-142.73 424.78,-143.27 408.82,-144.73 404.78,-144.39 388.78,-145.27 322.24,-148.95 244.29,-153.22 201.86,-155.55"/>
<polygon fill="black" stroke="black" points="201.95,-152.57 193.62,-156 202.27,-158.51 201.95,-152.57"/>
<text text-anchor="middle" x="317.23" y="-153.22" font-family="Times,serif" font-size="14.00"> 0 </text>
</g>
<!-- r3&#45;&gt;r2 -->
<g id="edge9" class="edge">
<title>r3&#45;&gt;r2</title>
<path fill="none" stroke="black" d="M442.82,-134.46C408.32,-128.27 339.9,-116 299.95,-108.83"/>
<polygon fill="black" stroke="black" points="300.59,-105.92 291.7,-107.35 299.54,-111.78 300.59,-105.92"/>
<text text-anchor="middle" x="366.5" y="-128.22" font-family="Times,serif" font-size="14.00"> 1 </text>
</g>
<!-- r4&#45;&gt;r3 -->
<g id="edge10" class="edge">
<title>r4&#45;&gt;r3</title>
<path fill="none" stroke="black" d="M382.81,-38.11C394.63,-50.56 411.2,-68.5 424.78,-85.02 431.85,-93.63 439.2,-103.36 445.6,-112.13"/>
<polygon fill="black" stroke="black" points="443.14,-113.79 450.52,-118.94 447.96,-110.31 443.14,-113.79"/>
<text text-anchor="middle" x="415.78" y="-89.22" font-family="Times,serif" font-size="14.00"> 0 </text>
</g>
<!-- r4&#45;&gt;r4 -->
<g id="edge11" class="edge">
<title>r4&#45;&gt;r4</title>
<path fill="none" stroke="black" d="M357.54,-42.99C356.3,-53.33 359.29,-62.54 366.5,-62.54 371.24,-62.54 374.16,-58.57 375.25,-52.92"/>
<polygon fill="black" stroke="black" points="378.22,-53.07 375.44,-44.51 372.27,-52.94 378.22,-53.07"/>
<text text-anchor="middle" x="366.5" y="-66.49" font-family="Times,serif" font-size="14.00"> 1 </text>
</g>
</g>
</svg>
