<?xml version="1.0" encoding="UTF-8" standalone="no"?>
<!DOCTYPE svg PUBLIC "-//W3C//DTD SVG 1.1//EN"
 "http://www.w3.org/Graphics/SVG/1.1/DTD/svg11.dtd">
<!-- Generated by graphviz version 10.0.1 (0)
 -->
<!-- Pages: 1 -->
<svg width="212pt" height="98pt"
 viewBox="0.00 0.00 211.90 97.90" xmlns="http://www.w3.org/2000/svg" xmlns:xlink="http://www.w3.org/1999/xlink">
<g id="graph0" class="graph" transform="scale(1 1) rotate(0) translate(4 93.9)">
<polygon fill="white" stroke="none" points="-4,4 -4,-93.9 207.9,-93.9 207.9,4 -4,4"/>
<!-- Initial -->
<g id="node1" class="node">
<title>Initial</title>
<ellipse fill="black" stroke="black" cx="1.8" cy="-27.32" rx="1.8" ry="1.8"/>
</g>
<!-- x0 -->
<g id="node2" class="node">
<title>x0</title>
<ellipse fill="none" stroke="black" cx="67.92" cy="-27.32" rx="23.32" ry="23.32"/>
<ellipse fill="none" stroke="black" cx="67.92" cy="-27.32" rx="27.32" ry="27.32"/>
<text text-anchor="middle" x="67.92" y="-22.65" font-family="Times,serif" font-size="14.00">x0</text>
</g>
<!-- Initial&#45;&gt;x0 -->
<g id="edge1" class="edge">
<title>Initial&#45;&gt;x0</title>
<path fill="none" stroke="black" d="M3.91,-27.32C7.4,-27.32 18.62,-27.32 30.64,-27.32"/>
<polygon fill="black" stroke="black" points="30.31,-30.3 38.81,-27.32 30.31,-24.35 30.31,-30.3"/>
</g>
<!-- x0&#45;&gt;x0 -->
<g id="edge2" class="edge">
<title>x0&#45;&gt;x0</title>
<path fill="none" stroke="black" d="M59.38,-53.41C58.9,-63.87 61.75,-72.65 67.92,-72.65 71.98,-72.65 74.6,-68.87 75.78,-63.31"/>
<polygon fill="black" stroke="black" points="78.74,-63.6 76.36,-54.92 72.81,-63.19 78.74,-63.6"/>
<text text-anchor="middle" x="67.92" y="-76.6" font-family="Times,serif" font-size="14.00"> 0 </text>
</g>
<!-- x1 -->
<g id="node3" class="node">
<title>x1</title>
<ellipse fill="none" stroke="black" cx="176.57" cy="-27.32" rx="23.32" ry="23.32"/>
<ellipse fill="none" stroke="black" cx="176.57" cy="-27.32" rx="27.32" ry="27.32"/>
<text text-anchor="middle" x="176.57" y="-22.65" font-family="Times,serif" font-size="14.00">x1</text>
</g>
<!-- x0&#45;&gt;x1 -->
<g id="edge3" class="edge">
<title>x0&#45;&gt;x1</title>
<path fill="none" stroke="black" d="M95.56,-27.32C108.67,-27.32 124.67,-27.32 138.91,-27.32"/>
<polygon fill="black" stroke="black" points="138.89,-30.3 147.39,-27.32 138.89,-24.35 138.89,-30.3"/>
<text text-anchor="middle" x="122.25" y="-31.27" font-family="Times,serif" font-size="14.00"> 1 </text>
</g>
<!-- x1&#45;&gt;x1 -->
<g id="edge4" class="edge">
<title>x1&#45;&gt;x1</title>
<path fill="none" stroke="black" d="M166.48,-52.95C165.78,-63.61 169.15,-72.65 176.57,-72.65 181.56,-72.65 184.72,-68.57 186.04,-62.66"/>
<polygon fill="black" stroke="black" points="188.99,-63.14 186.57,-54.46 183.06,-62.75 188.99,-63.14"/>
<text text-anchor="middle" x="176.57" y="-76.6" font-family="Times,serif" font-size="14.00"> 0 </text>
</g>
</g>
</svg>
