<?xml version="1.0" encoding="UTF-8" standalone="no"?>
<!DOCTYPE svg PUBLIC "-//W3C//DTD SVG 1.1//EN"
 "http://www.w3.org/Graphics/SVG/1.1/DTD/svg11.dtd">
<!-- Generated by graphviz version 10.0.1 (0)
 -->
<!-- Pages: 1 -->
<svg width="576pt" height="196pt"
 viewBox="0.00 0.00 576.00 196.18" xmlns="http://www.w3.org/2000/svg" xmlns:xlink="http://www.w3.org/1999/xlink">
<g id="graph0" class="graph" transform="scale(0.601312 0.601312) rotate(0) translate(4 322.25)">
<polygon fill="white" stroke="none" points="-4,4 -4,-322.25 953.91,-322.25 953.91,4 -4,4"/>
<!-- Initial -->
<g id="node1" class="node">
<title>Initial</title>
<ellipse fill="black" stroke="black" cx="1.8" cy="-111" rx="1.8" ry="1.8"/>
</g>
<!-- 00 -->
<g id="node2" class="node">
<title>00</title>
<ellipse fill="none" stroke="black" cx="64.45" cy="-111" rx="23.85" ry="23.85"/>
<text text-anchor="middle" x="64.45" y="-106.33" font-family="Times,serif" font-size="14.00">00</text>
</g>
<!-- Initial&#45;&gt;00 -->
<g id="edge1" class="edge">
<title>Initial&#45;&gt;00</title>
<path fill="none" stroke="black" d="M3.85,-111C7.27,-111 18.51,-111 30.32,-111"/>
<polygon fill="black" stroke="black" points="30.21,-113.98 38.71,-111 30.21,-108.03 30.21,-113.98"/>
</g>
<!-- 01 -->
<g id="node3" class="node">
<title>01</title>
<ellipse fill="none" stroke="black" cx="170.15" cy="-148" rx="23.85" ry="23.85"/>
<ellipse fill="none" stroke="black" cx="170.15" cy="-148" rx="27.85" ry="27.85"/>
<text text-anchor="middle" x="170.15" y="-143.32" font-family="Times,serif" font-size="14.00">01</text>
</g>
<!-- 00&#45;&gt;01 -->
<g id="edge3" class="edge">
<title>00&#45;&gt;01</title>
<path fill="none" stroke="black" d="M87.44,-118.85C101.03,-123.7 118.77,-130.02 134.25,-135.55"/>
<polygon fill="black" stroke="black" points="133.1,-138.3 142.11,-138.35 135.1,-132.69 133.1,-138.3"/>
<text text-anchor="middle" x="115.3" y="-135.95" font-family="Times,serif" font-size="14.00"> 5 </text>
</g>
<!-- 10 -->
<g id="node5" class="node">
<title>10</title>
<ellipse fill="none" stroke="black" cx="499.25" cy="-63" rx="23.85" ry="23.85"/>
<ellipse fill="none" stroke="black" cx="499.25" cy="-63" rx="27.85" ry="27.85"/>
<text text-anchor="middle" x="499.25" y="-58.33" font-family="Times,serif" font-size="14.00">10</text>
</g>
<!-- 00&#45;&gt;10 -->
<g id="edge2" class="edge">
<title>00&#45;&gt;10</title>
<path fill="none" stroke="black" d="M84.27,-97.25C104.28,-84.02 137.36,-66 169.15,-66 169.15,-66 169.15,-66 390.55,-66 414.18,-66 440.72,-65.27 461.54,-64.53"/>
<polygon fill="black" stroke="black" points="461.36,-67.51 469.75,-64.22 461.14,-61.57 461.36,-67.51"/>
<text text-anchor="middle" x="279.85" y="-69.95" font-family="Times,serif" font-size="14.00"> 4 </text>
</g>
<!-- 02 -->
<g id="node4" class="node">
<title>02</title>
<ellipse fill="none" stroke="black" cx="279.85" cy="-230" rx="23.85" ry="23.85"/>
<ellipse fill="none" stroke="black" cx="279.85" cy="-230" rx="27.85" ry="27.85"/>
<text text-anchor="middle" x="279.85" y="-225.32" font-family="Times,serif" font-size="14.00">02</text>
</g>
<!-- 01&#45;&gt;02 -->
<g id="edge5" class="edge">
<title>01&#45;&gt;02</title>
<path fill="none" stroke="black" d="M192.95,-164.59C209.15,-176.93 231.44,-193.9 249.26,-207.47"/>
<polygon fill="black" stroke="black" points="247.32,-209.73 255.88,-212.51 250.92,-205 247.32,-209.73"/>
<text text-anchor="middle" x="225" y="-197.95" font-family="Times,serif" font-size="14.00"> 5 </text>
</g>
<!-- 11 -->
<g id="node6" class="node">
<title>11</title>
<ellipse fill="none" stroke="black" cx="604.95" cy="-139" rx="23.85" ry="23.85"/>
<text text-anchor="middle" x="604.95" y="-134.32" font-family="Times,serif" font-size="14.00">11</text>
</g>
<!-- 01&#45;&gt;11 -->
<g id="edge4" class="edge">
<title>01&#45;&gt;11</title>
<path fill="none" stroke="black" d="M198.22,-144.21C235.09,-139.26 303.23,-130.85 361.7,-127.75 386.42,-126.44 392.66,-127 417.4,-127.75 471.21,-129.37 533.62,-133.62 570.89,-136.4"/>
<polygon fill="black" stroke="black" points="570.5,-139.36 579.2,-137.03 570.95,-133.42 570.5,-139.36"/>
<text text-anchor="middle" x="389.55" y="-131.95" font-family="Times,serif" font-size="14.00"> 4 </text>
</g>
<!-- 02&#45;&gt;00 -->
<g id="edge7" class="edge">
<title>02&#45;&gt;00</title>
<path fill="none" stroke="black" d="M252.09,-225.12C223.32,-219.01 177.06,-206.63 142.3,-185 121.22,-171.88 101.14,-152.21 86.8,-136.44"/>
<polygon fill="black" stroke="black" points="89.11,-134.57 81.24,-130.2 84.67,-138.53 89.11,-134.57"/>
<text text-anchor="middle" x="170.15" y="-214.95" font-family="Times,serif" font-size="14.00"> 5 </text>
</g>
<!-- 12 -->
<g id="node7" class="node">
<title>12</title>
<ellipse fill="none" stroke="black" cx="389.55" cy="-231" rx="23.85" ry="23.85"/>
<ellipse fill="none" stroke="black" cx="389.55" cy="-231" rx="27.85" ry="27.85"/>
<text text-anchor="middle" x="389.55" y="-226.32" font-family="Times,serif" font-size="14.00">12</text>
</g>
<!-- 02&#45;&gt;12 -->
<g id="edge6" class="edge">
<title>02&#45;&gt;12</title>
<path fill="none" stroke="black" d="M308.03,-230.25C321.17,-230.37 337.14,-230.52 351.38,-230.65"/>
<polygon fill="black" stroke="black" points="351.34,-233.63 359.87,-230.73 351.4,-227.68 351.34,-233.63"/>
<text text-anchor="middle" x="334.7" y="-234.95" font-family="Times,serif" font-size="14.00"> 4 </text>
</g>
<!-- 10&#45;&gt;11 -->
<g id="edge9" class="edge">
<title>10&#45;&gt;11</title>
<path fill="none" stroke="black" d="M526.58,-69.96C538.47,-73.93 552.26,-79.73 563.1,-87.75 571.7,-94.11 579.49,-102.7 585.91,-111.03"/>
<polygon fill="black" stroke="black" points="583.32,-112.53 590.73,-117.64 588.12,-109.02 583.32,-112.53"/>
<text text-anchor="middle" x="554.1" y="-91.95" font-family="Times,serif" font-size="14.00"> 5 </text>
</g>
<!-- 20 -->
<g id="node8" class="node">
<title>20</title>
<ellipse fill="none" stroke="black" cx="922.06" cy="-77" rx="23.85" ry="23.85"/>
<ellipse fill="none" stroke="black" cx="922.06" cy="-77" rx="27.85" ry="27.85"/>
<text text-anchor="middle" x="922.06" y="-72.33" font-family="Times,serif" font-size="14.00">20</text>
</g>
<!-- 10&#45;&gt;20 -->
<g id="edge8" class="edge">
<title>10&#45;&gt;20</title>
<path fill="none" stroke="black" d="M527.06,-59.39C547.96,-56.89 577.75,-54 603.95,-54 603.95,-54 603.95,-54 817.35,-54 840.55,-54 865.98,-59.55 885.85,-65.2"/>
<polygon fill="black" stroke="black" points="884.96,-68.04 893.96,-67.61 886.66,-62.33 884.96,-68.04"/>
<text text-anchor="middle" x="710.65" y="-57.95" font-family="Times,serif" font-size="14.00"> 4 </text>
</g>
<!-- 11&#45;&gt;12 -->
<g id="edge11" class="edge">
<title>11&#45;&gt;12</title>
<path fill="none" stroke="black" d="M584.26,-151.33C556.2,-168.38 502.65,-199.1 453.4,-217 445.01,-220.05 435.73,-222.56 426.93,-224.57"/>
<polygon fill="black" stroke="black" points="426.46,-221.63 418.77,-226.32 427.7,-227.45 426.46,-221.63"/>
<text text-anchor="middle" x="499.25" y="-213.95" font-family="Times,serif" font-size="14.00"> 5 </text>
</g>
<!-- 21 -->
<g id="node9" class="node">
<title>21</title>
<ellipse fill="none" stroke="black" cx="710.65" cy="-180" rx="23.85" ry="23.85"/>
<ellipse fill="none" stroke="black" cx="710.65" cy="-180" rx="27.85" ry="27.85"/>
<text text-anchor="middle" x="710.65" y="-175.32" font-family="Times,serif" font-size="14.00">21</text>
</g>
<!-- 11&#45;&gt;21 -->
<g id="edge10" class="edge">
<title>11&#45;&gt;21</title>
<path fill="none" stroke="black" d="M627.69,-147.59C641.49,-153.05 659.65,-160.23 675.37,-166.44"/>
<polygon fill="black" stroke="black" points="673.88,-169.06 682.88,-169.42 676.07,-163.52 673.88,-169.06"/>
<text text-anchor="middle" x="655.8" y="-165.95" font-family="Times,serif" font-size="14.00"> 4 </text>
</g>
<!-- 12&#45;&gt;10 -->
<g id="edge13" class="edge">
<title>12&#45;&gt;10</title>
<path fill="none" stroke="black" d="M413.37,-215.71C426.53,-205.93 442.57,-192.24 453.4,-177 462.65,-163.99 476.46,-127.07 486.31,-98.74"/>
<polygon fill="black" stroke="black" points="489.05,-99.94 489,-90.94 483.42,-98.01 489.05,-99.94"/>
<text text-anchor="middle" x="444.4" y="-201.95" font-family="Times,serif" font-size="14.00"> 5 </text>
</g>
<!-- 22 -->
<g id="node10" class="node">
<title>22</title>
<ellipse fill="none" stroke="black" cx="816.35" cy="-234" rx="23.85" ry="23.85"/>
<text text-anchor="middle" x="816.35" y="-229.32" font-family="Times,serif" font-size="14.00">22</text>
</g>
<!-- 12&#45;&gt;22 -->
<g id="edge12" class="edge">
<title>12&#45;&gt;22</title>
<path fill="none" stroke="black" d="M416.28,-240.45C437.86,-247.53 469.65,-256 498.25,-256 498.25,-256 498.25,-256 711.65,-256 736.33,-256 763.6,-249.97 783.98,-244.22"/>
<polygon fill="black" stroke="black" points="784.62,-247.13 791.94,-241.88 782.94,-241.42 784.62,-247.13"/>
<text text-anchor="middle" x="604.95" y="-259.95" font-family="Times,serif" font-size="14.00"> 4 </text>
</g>
<!-- 20&#45;&gt;00 -->
<g id="edge14" class="edge">
<title>20&#45;&gt;00</title>
<path fill="none" stroke="black" d="M905.09,-54.73C886.74,-31.99 854.35,0 817.35,0 169.15,0 169.15,0 169.15,0 125.16,0 94.47,-47.13 78.42,-79.97"/>
<polygon fill="black" stroke="black" points="75.84,-78.47 74.93,-87.43 81.23,-81 75.84,-78.47"/>
<text text-anchor="middle" x="499.25" y="-3.95" font-family="Times,serif" font-size="14.00"> 4 </text>
</g>
<!-- 20&#45;&gt;21 -->
<g id="edge15" class="edge">
<title>20&#45;&gt;21</title>
<path fill="none" stroke="black" d="M896.46,-89.1C858.86,-107.59 787.05,-142.91 744.87,-163.66"/>
<polygon fill="black" stroke="black" points="743.76,-160.89 737.44,-167.31 746.38,-166.23 743.76,-160.89"/>
<text text-anchor="middle" x="816.35" y="-142.95" font-family="Times,serif" font-size="14.00"> 5 </text>
</g>
<!-- 21&#45;&gt;01 -->
<g id="edge16" class="edge">
<title>21&#45;&gt;01</title>
<path fill="none" stroke="black" d="M682.49,-183.13C646.87,-187.06 582.41,-193.58 527.1,-196 502.37,-197.08 492.18,-209.47 471.4,-196 454.96,-185.34 469.7,-166.63 453.4,-155.75 433.54,-142.48 280.3,-144.93 208.3,-146.85"/>
<polygon fill="black" stroke="black" points="208.22,-143.87 199.81,-147.08 208.39,-149.82 208.22,-143.87"/>
<text text-anchor="middle" x="444.4" y="-159.95" font-family="Times,serif" font-size="14.00"> 4 </text>
</g>
<!-- 21&#45;&gt;22 -->
<g id="edge17" class="edge">
<title>21&#45;&gt;22</title>
<path fill="none" stroke="black" d="M735.97,-192.66C750.88,-200.43 770.07,-210.42 785.85,-218.64"/>
<polygon fill="black" stroke="black" points="784.44,-221.25 793.35,-222.54 787.18,-215.98 784.44,-221.25"/>
<text text-anchor="middle" x="765.5" y="-215.95" font-family="Times,serif" font-size="14.00"> 5 </text>
</g>
<!-- 22&#45;&gt;02 -->
<g id="edge18" class="edge">
<title>22&#45;&gt;02</title>
<path fill="none" stroke="black" d="M800.12,-251.95C781.47,-271.8 747.88,-301 711.65,-301 388.55,-301 388.55,-301 388.55,-301 355.84,-301 325.4,-277.89 305.28,-258.04"/>
<polygon fill="black" stroke="black" points="307.47,-256.02 299.41,-252 303.21,-260.17 307.47,-256.02"/>
<text text-anchor="middle" x="554.1" y="-304.95" font-family="Times,serif" font-size="14.00"> 4 </text>
</g>
<!-- 22&#45;&gt;20 -->
<g id="edge19" class="edge">
<title>22&#45;&gt;20</title>
<path fill="none" stroke="black" d="M830.88,-214.67C842.94,-197.33 860.99,-171.13 876.21,-148 884.6,-135.23 893.64,-121.02 901.39,-108.68"/>
<polygon fill="black" stroke="black" points="903.73,-110.55 905.72,-101.76 898.69,-107.39 903.73,-110.55"/>
<text text-anchor="middle" x="867.21" y="-178.95" font-family="Times,serif" font-size="14.00"> 5 </text>
</g>
</g>
</svg>
