<?xml version="1.0" encoding="UTF-8" standalone="no"?>
<!DOCTYPE svg PUBLIC "-//W3C//DTD SVG 1.1//EN"
 "http://www.w3.org/Graphics/SVG/1.1/DTD/svg11.dtd">
<!-- Generated by graphviz version 10.0.1 (0)
 -->
<!-- Pages: 1 -->
<svg width="409pt" height="266pt"
 viewBox="0.00 0.00 409.40 265.95" xmlns="http://www.w3.org/2000/svg" xmlns:xlink="http://www.w3.org/1999/xlink">
<g id="graph0" class="graph" transform="scale(1 1) rotate(0) translate(4 261.95)">
<polygon fill="white" stroke="none" points="-4,4 -4,-261.95 405.4,-261.95 405.4,4 -4,4"/>
<!-- Initial -->
<g id="node1" class="node">
<title>Initial</title>
<ellipse fill="black" stroke="black" cx="1.8" cy="-198.85" rx="1.8" ry="1.8"/>
</g>
<!-- 11 -->
<g id="node5" class="node">
<title>11</title>
<ellipse fill="none" stroke="black" cx="64.45" cy="-198.85" rx="23.85" ry="23.85"/>
<text text-anchor="middle" x="64.45" y="-194.18" font-family="Times,serif" font-size="14.00">11</text>
</g>
<!-- Initial&#45;&gt;11 -->
<g id="edge1" class="edge">
<title>Initial&#45;&gt;11</title>
<path fill="none" stroke="black" d="M3.85,-198.85C7.27,-198.85 18.51,-198.85 30.32,-198.85"/>
<polygon fill="black" stroke="black" points="30.21,-201.83 38.71,-198.85 30.21,-195.88 30.21,-201.83"/>
</g>
<!-- 00 -->
<g id="node2" class="node">
<title>00</title>
<ellipse fill="none" stroke="black" cx="271.85" cy="-27.85" rx="23.85" ry="23.85"/>
<ellipse fill="none" stroke="black" cx="271.85" cy="-27.85" rx="27.85" ry="27.85"/>
<text text-anchor="middle" x="271.85" y="-23.18" font-family="Times,serif" font-size="14.00">00</text>
</g>
<!-- 00&#45;&gt;00 -->
<g id="edge2" class="edge">
<title>00&#45;&gt;00</title>
<path fill="none" stroke="black" d="M261.63,-54.24C261.05,-64.82 264.46,-73.7 271.85,-73.7 276.82,-73.7 279.99,-69.69 281.35,-63.85"/>
<polygon fill="black" stroke="black" points="284.29,-64.44 281.96,-55.75 278.36,-64 284.29,-64.44"/>
<text text-anchor="middle" x="271.85" y="-77.65" font-family="Times,serif" font-size="14.00"> 0 </text>
</g>
<!-- 01 -->
<g id="node3" class="node">
<title>01</title>
<ellipse fill="none" stroke="black" cx="377.55" cy="-152.85" rx="23.85" ry="23.85"/>
<text text-anchor="middle" x="377.55" y="-148.18" font-family="Times,serif" font-size="14.00">01</text>
</g>
<!-- 00&#45;&gt;01 -->
<g id="edge3" class="edge">
<title>00&#45;&gt;01</title>
<path fill="none" stroke="black" d="M292.25,-47.4C305.04,-60.62 321.92,-78.69 335.7,-95.6 343.34,-104.97 351.18,-115.66 357.92,-125.24"/>
<polygon fill="black" stroke="black" points="355.38,-126.79 362.67,-132.07 360.26,-123.39 355.38,-126.79"/>
<text text-anchor="middle" x="326.7" y="-99.8" font-family="Times,serif" font-size="14.00"> 1 </text>
</g>
<!-- 10 -->
<g id="node4" class="node">
<title>10</title>
<ellipse fill="none" stroke="black" cx="166.15" cy="-149.85" rx="23.85" ry="23.85"/>
<text text-anchor="middle" x="166.15" y="-145.18" font-family="Times,serif" font-size="14.00">10</text>
</g>
<!-- 01&#45;&gt;10 -->
<g id="edge4" class="edge">
<title>01&#45;&gt;10</title>
<path fill="none" stroke="black" d="M353.8,-148.26C338.56,-145.42 318.02,-142.05 299.7,-140.6 275.02,-138.65 268.71,-139.12 244,-140.6 229.46,-141.47 213.46,-143.26 199.84,-145.04"/>
<polygon fill="black" stroke="black" points="199.48,-142.09 191.45,-146.18 200.28,-147.98 199.48,-142.09"/>
<text text-anchor="middle" x="271.85" y="-144.8" font-family="Times,serif" font-size="14.00"> 0 </text>
</g>
<!-- 01&#45;&gt;11 -->
<g id="edge5" class="edge">
<title>01&#45;&gt;11</title>
<path fill="none" stroke="black" d="M356.1,-163.78C349.68,-166.96 342.49,-170.27 335.7,-172.85 320.18,-178.75 316.03,-179.82 299.7,-182.85 222.7,-197.16 202.53,-196.07 124.3,-199.85 115.96,-200.25 106.94,-200.3 98.53,-200.17"/>
<polygon fill="black" stroke="black" points="98.74,-197.2 90.17,-199.98 98.6,-203.15 98.74,-197.2"/>
<text text-anchor="middle" x="217" y="-198.8" font-family="Times,serif" font-size="14.00"> 1 </text>
</g>
<!-- 10&#45;&gt;00 -->
<g id="edge6" class="edge">
<title>10&#45;&gt;00</title>
<path fill="none" stroke="black" d="M180.87,-130.65C188.58,-120.1 198.54,-106.9 208,-95.6 219.6,-81.74 233.15,-66.96 244.7,-54.76"/>
<polygon fill="black" stroke="black" points="246.84,-56.82 250.55,-48.62 242.54,-52.72 246.84,-56.82"/>
<text text-anchor="middle" x="217" y="-99.8" font-family="Times,serif" font-size="14.00"> 0 </text>
</g>
<!-- 10&#45;&gt;01 -->
<g id="edge7" class="edge">
<title>10&#45;&gt;01</title>
<path fill="none" stroke="black" d="M189.51,-155.04C195.48,-156.2 201.96,-157.26 208,-157.85 264.49,-163.33 279.05,-161.3 335.7,-157.85 338.35,-157.69 341.09,-157.47 343.84,-157.21"/>
<polygon fill="black" stroke="black" points="344.06,-160.18 352.19,-156.31 343.42,-154.26 344.06,-160.18"/>
<text text-anchor="middle" x="271.85" y="-165.8" font-family="Times,serif" font-size="14.00"> 1 </text>
</g>
<!-- 11&#45;&gt;10 -->
<g id="edge8" class="edge">
<title>11&#45;&gt;10</title>
<path fill="none" stroke="black" d="M86.11,-188.7C100.32,-181.71 119.41,-172.33 135.27,-164.53"/>
<polygon fill="black" stroke="black" points="136.5,-167.25 142.82,-160.83 133.88,-161.91 136.5,-167.25"/>
<text text-anchor="middle" x="115.3" y="-182.8" font-family="Times,serif" font-size="14.00"> 0 </text>
</g>
<!-- 11&#45;&gt;11 -->
<g id="edge9" class="edge">
<title>11&#45;&gt;11</title>
<path fill="none" stroke="black" d="M56.63,-221.67C55.89,-231.87 58.49,-240.7 64.45,-240.7 68.36,-240.7 70.82,-236.9 71.85,-231.4"/>
<polygon fill="black" stroke="black" points="74.81,-231.8 72.2,-223.18 68.86,-231.54 74.81,-231.8"/>
<text text-anchor="middle" x="64.45" y="-244.65" font-family="Times,serif" font-size="14.00"> 1 </text>
</g>
</g>
</svg>
