<?xml version="1.0" encoding="UTF-8" standalone="no"?>
<!DOCTYPE svg PUBLIC "-//W3C//DTD SVG 1.1//EN"
 "http://www.w3.org/Graphics/SVG/1.1/DTD/svg11.dtd">
<!-- Generated by graphviz version 10.0.1 (0)
 -->
<!-- Pages: 1 -->
<svg width="314pt" height="231pt"
 viewBox="0.00 0.00 313.90 230.85" xmlns="http://www.w3.org/2000/svg" xmlns:xlink="http://www.w3.org/1999/xlink">
<g id="graph0" class="graph" transform="scale(1 1) rotate(0) translate(4 226.85)">
<polygon fill="white" stroke="none" points="-4,4 -4,-226.85 309.9,-226.85 309.9,4 -4,4"/>
<!-- Initial -->
<g id="node1" class="node">
<title>Initial</title>
<ellipse fill="black" stroke="black" cx="1.8" cy="-119.75" rx="1.8" ry="1.8"/>
</g>
<!-- q0 -->
<g id="node2" class="node">
<title>q0</title>
<ellipse fill="none" stroke="black" cx="68.45" cy="-119.75" rx="23.85" ry="23.85"/>
<ellipse fill="none" stroke="black" cx="68.45" cy="-119.75" rx="27.85" ry="27.85"/>
<text text-anchor="middle" x="68.45" y="-115.07" font-family="Times,serif" font-size="14.00">q0</text>
</g>
<!-- Initial&#45;&gt;q0 -->
<g id="edge1" class="edge">
<title>Initial&#45;&gt;q0</title>
<path fill="none" stroke="black" d="M3.92,-119.75C7.41,-119.75 18.58,-119.75 30.6,-119.75"/>
<polygon fill="black" stroke="black" points="30.28,-122.72 38.78,-119.75 30.28,-116.77 30.28,-122.72"/>
</g>
<!-- q0&#45;&gt;q0 -->
<g id="edge3" class="edge">
<title>q0&#45;&gt;q0</title>
<path fill="none" stroke="black" d="M59.79,-146.59C59.41,-156.97 62.29,-165.6 68.45,-165.6 72.49,-165.6 75.12,-161.88 76.34,-156.39"/>
<polygon fill="black" stroke="black" points="79.3,-156.8 76.99,-148.1 73.36,-156.34 79.3,-156.8"/>
<text text-anchor="middle" x="68.45" y="-169.55" font-family="Times,serif" font-size="14.00"> b </text>
</g>
<!-- qa -->
<g id="node3" class="node">
<title>qa</title>
<ellipse fill="none" stroke="black" cx="172.87" cy="-119.75" rx="23.32" ry="23.32"/>
<text text-anchor="middle" x="172.87" y="-115.07" font-family="Times,serif" font-size="14.00">qa</text>
</g>
<!-- q0&#45;&gt;qa -->
<g id="edge2" class="edge">
<title>q0&#45;&gt;qa</title>
<path fill="none" stroke="black" d="M96.63,-119.75C109.66,-119.75 125.38,-119.75 139.08,-119.75"/>
<polygon fill="black" stroke="black" points="139.06,-122.72 147.56,-119.75 139.06,-116.77 139.06,-122.72"/>
<text text-anchor="middle" x="122.93" y="-123.7" font-family="Times,serif" font-size="14.00"> a </text>
</g>
<!-- qb -->
<g id="node4" class="node">
<title>qb</title>
<ellipse fill="none" stroke="black" cx="278.05" cy="-159.75" rx="23.85" ry="23.85"/>
<ellipse fill="none" stroke="black" cx="278.05" cy="-159.75" rx="27.85" ry="27.85"/>
<text text-anchor="middle" x="278.05" y="-155.07" font-family="Times,serif" font-size="14.00">qb</text>
</g>
<!-- qa&#45;&gt;qb -->
<g id="edge5" class="edge">
<title>qa&#45;&gt;qb</title>
<path fill="none" stroke="black" d="M194.25,-129.24C200.59,-132.08 207.64,-135.14 214.2,-137.75 223.13,-141.29 232.89,-144.86 241.99,-148.05"/>
<polygon fill="black" stroke="black" points="240.75,-150.77 249.75,-150.74 242.69,-145.15 240.75,-150.77"/>
<text text-anchor="middle" x="223.2" y="-147.7" font-family="Times,serif" font-size="14.00"> b </text>
</g>
<!-- qt -->
<g id="node5" class="node">
<title>qt</title>
<ellipse fill="none" stroke="black" cx="278.05" cy="-21.75" rx="21.75" ry="21.75"/>
<text text-anchor="middle" x="278.05" y="-17.07" font-family="Times,serif" font-size="14.00">qt</text>
</g>
<!-- qa&#45;&gt;qt -->
<g id="edge4" class="edge">
<title>qa&#45;&gt;qt</title>
<path fill="none" stroke="black" d="M190.45,-104C207.75,-87.57 234.99,-61.69 254.3,-43.35"/>
<polygon fill="black" stroke="black" points="256.31,-45.54 260.43,-37.53 252.22,-41.23 256.31,-45.54"/>
<text text-anchor="middle" x="223.2" y="-82.7" font-family="Times,serif" font-size="14.00"> a </text>
</g>
<!-- qb&#45;&gt;qa -->
<g id="edge6" class="edge">
<title>qb&#45;&gt;qa</title>
<path fill="none" stroke="black" d="M260.69,-137.93C253.07,-129.56 243.23,-120.95 232.2,-116.5 224.02,-113.19 214.67,-112.51 205.88,-113.05"/>
<polygon fill="black" stroke="black" points="205.56,-110.09 197.44,-113.99 206.21,-116.01 205.56,-110.09"/>
<text text-anchor="middle" x="223.2" y="-119.7" font-family="Times,serif" font-size="14.00"> a </text>
</g>
<!-- qb&#45;&gt;qb -->
<g id="edge7" class="edge">
<title>qb&#45;&gt;qb</title>
<path fill="none" stroke="black" d="M267.83,-186.13C267.25,-196.71 270.66,-205.6 278.05,-205.6 283.02,-205.6 286.18,-201.59 287.55,-195.75"/>
<polygon fill="black" stroke="black" points="290.49,-196.34 288.16,-187.64 284.56,-195.9 290.49,-196.34"/>
<text text-anchor="middle" x="278.05" y="-209.55" font-family="Times,serif" font-size="14.00"> b </text>
</g>
<!-- qt&#45;&gt;qt -->
<g id="edge8" class="edge">
<title>qt&#45;&gt;qt</title>
<path fill="none" stroke="black" d="M273.01,-43.01C272.46,-52.87 274.14,-61.49 278.05,-61.49 280.55,-61.49 282.14,-57.95 282.82,-52.82"/>
<polygon fill="black" stroke="black" points="285.79,-53.1 283.05,-44.52 279.84,-52.94 285.79,-53.1"/>
<text text-anchor="middle" x="278.05" y="-65.44" font-family="Times,serif" font-size="14.00"> a </text>
</g>
<!-- qt&#45;&gt;qt -->
<g id="edge9" class="edge">
<title>qt&#45;&gt;qt</title>
<path fill="none" stroke="black" d="M269.53,-42.17C265.51,-60.25 268.35,-79.49 278.05,-79.49 286,-79.49 289.34,-66.54 288.07,-51.91"/>
<polygon fill="black" stroke="black" points="291.04,-51.61 286.8,-43.66 285.15,-52.52 291.04,-51.61"/>
<text text-anchor="middle" x="278.05" y="-83.44" font-family="Times,serif" font-size="14.00"> b </text>
</g>
</g>
</svg>
