<?xml version="1.0" encoding="UTF-8" standalone="no"?>
<!DOCTYPE svg PUBLIC "-//W3C//DTD SVG 1.1//EN"
 "http://www.w3.org/Graphics/SVG/1.1/DTD/svg11.dtd">
<!-- Generated by graphviz version 10.0.1 (0)
 -->
<!-- Pages: 1 -->
<svg width="423pt" height="156pt"
 viewBox="0.00 0.00 422.96 155.83" xmlns="http://www.w3.org/2000/svg" xmlns:xlink="http://www.w3.org/1999/xlink">
<g id="graph0" class="graph" transform="scale(1 1) rotate(0) translate(4 151.83)">
<polygon fill="white" stroke="none" points="-4,4 -4,-151.83 418.96,-151.83 418.96,4 -4,4"/>
<!-- Initial -->
<g id="node1" class="node">
<title>Initial</title>
<ellipse fill="black" stroke="black" cx="1.8" cy="-28.06" rx="1.8" ry="1.8"/>
</g>
<!-- pre -->
<g id="node4" class="node">
<title>pre</title>
<ellipse fill="none" stroke="black" cx="68.66" cy="-28.06" rx="28.06" ry="28.06"/>
<text text-anchor="middle" x="68.66" y="-23.38" font-family="Times,serif" font-size="14.00">pre</text>
</g>
<!-- Initial&#45;&gt;pre -->
<g id="edge1" class="edge">
<title>Initial&#45;&gt;pre</title>
<path fill="none" stroke="black" d="M3.93,-28.06C7.43,-28.06 18.63,-28.06 30.69,-28.06"/>
<polygon fill="black" stroke="black" points="30.4,-31.03 38.9,-28.06 30.4,-25.08 30.4,-31.03"/>
</g>
<!-- 0 -->
<g id="node2" class="node">
<title>0</title>
<ellipse fill="none" stroke="black" cx="168.72" cy="-28.06" rx="18" ry="18"/>
<text text-anchor="middle" x="168.72" y="-23.38" font-family="Times,serif" font-size="14.00">0</text>
</g>
<!-- 00 -->
<g id="node3" class="node">
<title>00</title>
<ellipse fill="none" stroke="black" cx="268.57" cy="-75.06" rx="23.85" ry="23.85"/>
<ellipse fill="none" stroke="black" cx="268.57" cy="-75.06" rx="27.85" ry="27.85"/>
<text text-anchor="middle" x="268.57" y="-70.38" font-family="Times,serif" font-size="14.00">00</text>
</g>
<!-- 0&#45;&gt;00 -->
<g id="edge5" class="edge">
<title>0&#45;&gt;00</title>
<path fill="none" stroke="black" d="M185.44,-35.61C198.57,-41.92 217.73,-51.12 234.25,-59.06"/>
<polygon fill="black" stroke="black" points="232.78,-61.65 241.73,-62.65 235.36,-56.29 232.78,-61.65"/>
<text text-anchor="middle" x="213.72" y="-56.01" font-family="Times,serif" font-size="14.00"> 0 </text>
</g>
<!-- trap -->
<g id="node5" class="node">
<title>trap</title>
<ellipse fill="none" stroke="black" cx="382.69" cy="-45.06" rx="32.27" ry="32.27"/>
<text text-anchor="middle" x="382.69" y="-40.38" font-family="Times,serif" font-size="14.00">trap</text>
</g>
<!-- 0&#45;&gt;trap -->
<g id="edge6" class="edge">
<title>0&#45;&gt;trap</title>
<path fill="none" stroke="black" d="M186.9,-25.81C201.25,-24.05 222.28,-21.75 240.72,-20.81 265.44,-19.55 271.9,-17.39 296.42,-20.81 311.65,-22.93 327.99,-27.09 342.24,-31.38"/>
<polygon fill="black" stroke="black" points="341.29,-34.2 350.29,-33.89 343.06,-28.52 341.29,-34.2"/>
<text text-anchor="middle" x="268.57" y="-25.01" font-family="Times,serif" font-size="14.00"> 1 </text>
</g>
<!-- 00&#45;&gt;trap -->
<g id="edge7" class="edge">
<title>00&#45;&gt;trap</title>
<path fill="none" stroke="black" d="M296.39,-70.92C307.62,-68.94 320.75,-66.28 332.42,-63.06 335.87,-62.11 339.42,-61.02 342.96,-59.87"/>
<polygon fill="black" stroke="black" points="343.73,-62.75 350.81,-57.19 341.8,-57.12 343.73,-62.75"/>
<text text-anchor="middle" x="323.42" y="-71.01" font-family="Times,serif" font-size="14.00"> 0 </text>
</g>
<!-- 00&#45;&gt;trap -->
<g id="edge8" class="edge">
<title>00&#45;&gt;trap</title>
<path fill="none" stroke="black" d="M289.43,-56.1C296.71,-50.36 305.4,-44.79 314.42,-41.81 322.73,-39.07 331.93,-38.2 340.79,-38.36"/>
<polygon fill="black" stroke="black" points="340.41,-41.32 349.07,-38.83 340.75,-35.38 340.41,-41.32"/>
<text text-anchor="middle" x="323.42" y="-46.01" font-family="Times,serif" font-size="14.00"> 1 </text>
</g>
<!-- pre&#45;&gt;0 -->
<g id="edge2" class="edge">
<title>pre&#45;&gt;0</title>
<path fill="none" stroke="black" d="M96.97,-28.06C110.61,-28.06 127.06,-28.06 140.66,-28.06"/>
<polygon fill="black" stroke="black" points="140.4,-31.03 148.9,-28.06 140.4,-25.08 140.4,-31.03"/>
<text text-anchor="middle" x="123.72" y="-32.01" font-family="Times,serif" font-size="14.00"> 0 </text>
</g>
<!-- pre&#45;&gt;pre -->
<g id="edge3" class="edge">
<title>pre&#45;&gt;pre</title>
<path fill="none" stroke="black" d="M64.3,-55.94C64.2,-65.95 65.66,-74.12 68.66,-74.12 70.58,-74.12 71.87,-70.77 72.52,-65.73"/>
<polygon fill="black" stroke="black" points="75.48,-66.09 72.94,-57.45 69.54,-65.79 75.48,-66.09"/>
<text text-anchor="middle" x="68.66" y="-78.07" font-family="Times,serif" font-size="14.00"> 0 </text>
</g>
<!-- pre&#45;&gt;pre -->
<g id="edge4" class="edge">
<title>pre&#45;&gt;pre</title>
<path fill="none" stroke="black" d="M60.74,-55.38C58.43,-73.94 61.07,-92.12 68.66,-92.12 74.89,-92.12 77.78,-79.89 77.35,-65.25"/>
<polygon fill="black" stroke="black" points="80.32,-65.13 76.7,-56.89 74.39,-65.59 80.32,-65.13"/>
<text text-anchor="middle" x="68.66" y="-96.07" font-family="Times,serif" font-size="14.00"> 1 </text>
</g>
<!-- trap&#45;&gt;trap -->
<g id="edge9" class="edge">
<title>trap&#45;&gt;trap</title>
<path fill="none" stroke="black" d="M377.13,-76.97C377.19,-87.21 379.04,-95.33 382.69,-95.33 385.02,-95.33 386.62,-92 387.49,-86.91"/>
<polygon fill="black" stroke="black" points="390.45,-87.18 388.13,-78.48 384.52,-86.72 390.45,-87.18"/>
<text text-anchor="middle" x="382.69" y="-99.28" font-family="Times,serif" font-size="14.00"> 0 </text>
</g>
<!-- trap&#45;&gt;trap -->
<g id="edge10" class="edge">
<title>trap&#45;&gt;trap</title>
<path fill="none" stroke="black" d="M372.36,-75.95C369.87,-95.1 373.31,-113.33 382.69,-113.33 390.45,-113.33 394.15,-100.83 393.77,-85.66"/>
<polygon fill="black" stroke="black" points="396.76,-85.7 393.13,-77.46 390.83,-86.17 396.76,-85.7"/>
<text text-anchor="middle" x="382.69" y="-117.28" font-family="Times,serif" font-size="14.00"> 1 </text>
</g>
</g>
</svg>
