<?xml version="1.0" encoding="UTF-8" standalone="no"?>
<!DOCTYPE svg PUBLIC "-//W3C//DTD SVG 1.1//EN"
 "http://www.w3.org/Graphics/SVG/1.1/DTD/svg11.dtd">
<!-- Generated by graphviz version 10.0.1 (0)
 -->
<!-- Pages: 1 -->
<svg width="555pt" height="159pt"
 viewBox="0.00 0.00 555.17 159.39" xmlns="http://www.w3.org/2000/svg" xmlns:xlink="http://www.w3.org/1999/xlink">
<g id="graph0" class="graph" transform="scale(1 1) rotate(0) translate(4 155.39)">
<polygon fill="white" stroke="none" points="-4,4 -4,-155.39 551.17,-155.39 551.17,4 -4,4"/>
<!-- Initial -->
<g id="node1" class="node">
<title>Initial</title>
<ellipse fill="black" stroke="black" cx="1.8" cy="-51.62" rx="1.8" ry="1.8"/>
</g>
<!-- q0 -->
<g id="node5" class="node">
<title>q0</title>
<ellipse fill="none" stroke="black" cx="64.45" cy="-51.62" rx="23.85" ry="23.85"/>
<text text-anchor="middle" x="64.45" y="-46.95" font-family="Times,serif" font-size="14.00">q0</text>
</g>
<!-- Initial&#45;&gt;q0 -->
<g id="edge1" class="edge">
<title>Initial&#45;&gt;q0</title>
<path fill="none" stroke="black" d="M3.85,-51.62C7.27,-51.62 18.51,-51.62 30.32,-51.62"/>
<polygon fill="black" stroke="black" points="30.21,-54.6 38.71,-51.62 30.21,-48.65 30.21,-54.6"/>
</g>
<!-- a -->
<g id="node2" class="node">
<title>a</title>
<ellipse fill="none" stroke="black" cx="160.3" cy="-78.62" rx="18" ry="18"/>
<text text-anchor="middle" x="160.3" y="-73.95" font-family="Times,serif" font-size="14.00">a</text>
</g>
<!-- same -->
<g id="node6" class="node">
<title>same</title>
<ellipse fill="none" stroke="black" cx="269.83" cy="-48.62" rx="37.53" ry="37.53"/>
<text text-anchor="middle" x="269.83" y="-43.95" font-family="Times,serif" font-size="14.00">same</text>
</g>
<!-- a&#45;&gt;same -->
<g id="edge6" class="edge">
<title>a&#45;&gt;same</title>
<path fill="none" stroke="black" d="M178.1,-73.93C190.45,-70.49 207.83,-65.64 224.08,-61.11"/>
<polygon fill="black" stroke="black" points="224.63,-64.04 232.01,-58.89 223.03,-58.31 224.63,-64.04"/>
<text text-anchor="middle" x="205.3" y="-71.57" font-family="Times,serif" font-size="14.00"> a </text>
</g>
<!-- trap -->
<g id="node7" class="node">
<title>trap</title>
<ellipse fill="none" stroke="black" cx="514.9" cy="-48.62" rx="32.27" ry="32.27"/>
<text text-anchor="middle" x="514.9" y="-43.95" font-family="Times,serif" font-size="14.00">trap</text>
</g>
<!-- a&#45;&gt;trap -->
<g id="edge7" class="edge">
<title>a&#45;&gt;trap</title>
<path fill="none" stroke="black" d="M177.72,-83.93C191.97,-88.2 213.25,-93.79 232.3,-95.62 319.18,-103.99 344.07,-113.22 428.63,-91.62 446.09,-87.16 464.09,-78.74 479.03,-70.52"/>
<polygon fill="black" stroke="black" points="480.21,-73.28 486.13,-66.49 477.27,-68.1 480.21,-73.28"/>
<text text-anchor="middle" x="334.36" y="-108.57" font-family="Times,serif" font-size="14.00"> b </text>
</g>
<!-- b -->
<g id="node3" class="node">
<title>b</title>
<ellipse fill="none" stroke="black" cx="160.3" cy="-24.62" rx="18" ry="18"/>
<text text-anchor="middle" x="160.3" y="-19.95" font-family="Times,serif" font-size="14.00">b</text>
</g>
<!-- b&#45;&gt;same -->
<g id="edge9" class="edge">
<title>b&#45;&gt;same</title>
<path fill="none" stroke="black" d="M178.01,-28.31C188.45,-30.62 202.16,-33.66 214.3,-36.37 217.19,-37.02 220.17,-37.68 223.17,-38.35"/>
<polygon fill="black" stroke="black" points="222.33,-41.21 231.28,-40.17 223.63,-35.41 222.33,-41.21"/>
<text text-anchor="middle" x="205.3" y="-39.57" font-family="Times,serif" font-size="14.00"> b </text>
</g>
<!-- b&#45;&gt;trap -->
<g id="edge8" class="edge">
<title>b&#45;&gt;trap</title>
<path fill="none" stroke="black" d="M177.3,-17.84C191.46,-12.23 212.85,-4.69 232.3,-1.62 262.53,3.15 423.57,-4.34 428.63,-5.62 446.1,-10.05 464.1,-18.47 479.04,-26.69"/>
<polygon fill="black" stroke="black" points="477.28,-29.11 486.13,-30.73 480.22,-23.94 477.28,-29.11"/>
<text text-anchor="middle" x="334.36" y="-4.57" font-family="Times,serif" font-size="14.00"> a </text>
</g>
<!-- end -->
<g id="node4" class="node">
<title>end</title>
<ellipse fill="none" stroke="black" cx="395" cy="-48.62" rx="29.64" ry="29.64"/>
<ellipse fill="none" stroke="black" cx="395" cy="-48.62" rx="33.64" ry="33.64"/>
<text text-anchor="middle" x="395" y="-43.95" font-family="Times,serif" font-size="14.00">end</text>
</g>
<!-- end&#45;&gt;trap -->
<g id="edge12" class="edge">
<title>end&#45;&gt;trap</title>
<path fill="none" stroke="black" d="M425.8,-34.04C437.76,-29.82 451.74,-26.94 464.63,-29.37 468.23,-30.05 471.9,-30.98 475.53,-32.07"/>
<polygon fill="black" stroke="black" points="474.55,-34.88 483.56,-34.79 476.46,-29.25 474.55,-34.88"/>
<text text-anchor="middle" x="455.63" y="-32.57" font-family="Times,serif" font-size="14.00"> a </text>
</g>
<!-- end&#45;&gt;trap -->
<g id="edge13" class="edge">
<title>end&#45;&gt;trap</title>
<path fill="none" stroke="black" d="M428.84,-48.62C442.46,-48.62 458.41,-48.62 472.79,-48.62"/>
<polygon fill="black" stroke="black" points="472.44,-51.6 480.94,-48.62 472.44,-45.65 472.44,-51.6"/>
<text text-anchor="middle" x="455.63" y="-52.57" font-family="Times,serif" font-size="14.00"> b </text>
</g>
<!-- q0&#45;&gt;a -->
<g id="edge3" class="edge">
<title>q0&#45;&gt;a</title>
<path fill="none" stroke="black" d="M87.69,-58.02C101.34,-61.95 118.89,-67 133.2,-71.11"/>
<polygon fill="black" stroke="black" points="132.06,-73.88 141.05,-73.37 133.7,-68.16 132.06,-73.88"/>
<text text-anchor="middle" x="115.3" y="-71.57" font-family="Times,serif" font-size="14.00"> a </text>
</g>
<!-- q0&#45;&gt;b -->
<g id="edge5" class="edge">
<title>q0&#45;&gt;b</title>
<path fill="none" stroke="black" d="M87.69,-45.22C101.34,-41.29 118.89,-36.24 133.2,-32.13"/>
<polygon fill="black" stroke="black" points="133.7,-35.08 141.05,-29.87 132.06,-29.36 133.7,-35.08"/>
<text text-anchor="middle" x="115.3" y="-43.57" font-family="Times,serif" font-size="14.00"> b </text>
</g>
<!-- q0&#45;&gt;q0 -->
<g id="edge2" class="edge">
<title>q0&#45;&gt;q0</title>
<path fill="none" stroke="black" d="M60.51,-75.28C60.24,-85.13 61.56,-93.47 64.45,-93.47 66.3,-93.47 67.51,-90.05 68.06,-85"/>
<polygon fill="black" stroke="black" points="71.03,-85.39 68.34,-76.8 65.08,-85.19 71.03,-85.39"/>
<text text-anchor="middle" x="64.45" y="-97.42" font-family="Times,serif" font-size="14.00"> a </text>
</g>
<!-- q0&#45;&gt;q0 -->
<g id="edge4" class="edge">
<title>q0&#45;&gt;q0</title>
<path fill="none" stroke="black" d="M57.54,-74.96C54.95,-93.04 57.25,-111.47 64.45,-111.47 70.35,-111.47 72.97,-99.07 72.29,-84.63"/>
<polygon fill="black" stroke="black" points="75.28,-84.65 71.51,-76.47 69.35,-85.22 75.28,-84.65"/>
<text text-anchor="middle" x="64.45" y="-115.42" font-family="Times,serif" font-size="14.00"> b </text>
</g>
<!-- same&#45;&gt;end -->
<g id="edge10" class="edge">
<title>same&#45;&gt;end</title>
<path fill="none" stroke="black" d="M304.53,-33.27C316.68,-29.44 330.55,-27.02 343.36,-29.37 346.95,-30.03 350.61,-30.93 354.24,-31.98"/>
<polygon fill="black" stroke="black" points="353.27,-34.8 362.28,-34.61 355.12,-29.14 353.27,-34.8"/>
<text text-anchor="middle" x="334.36" y="-32.57" font-family="Times,serif" font-size="14.00"> a </text>
</g>
<!-- same&#45;&gt;end -->
<g id="edge11" class="edge">
<title>same&#45;&gt;end</title>
<path fill="none" stroke="black" d="M307.78,-48.62C321.47,-48.62 337.1,-48.62 351.25,-48.62"/>
<polygon fill="black" stroke="black" points="351.24,-51.6 359.74,-48.62 351.24,-45.65 351.24,-51.6"/>
<text text-anchor="middle" x="334.36" y="-52.57" font-family="Times,serif" font-size="14.00"> b </text>
</g>
<!-- trap&#45;&gt;trap -->
<g id="edge14" class="edge">
<title>trap&#45;&gt;trap</title>
<path fill="none" stroke="black" d="M509.35,-80.53C509.4,-90.77 511.26,-98.89 514.9,-98.89 517.24,-98.89 518.84,-95.56 519.7,-90.47"/>
<polygon fill="black" stroke="black" points="522.66,-90.74 520.34,-82.04 516.73,-90.29 522.66,-90.74"/>
<text text-anchor="middle" x="514.9" y="-102.84" font-family="Times,serif" font-size="14.00"> a </text>
</g>
<!-- trap&#45;&gt;trap -->
<g id="edge15" class="edge">
<title>trap&#45;&gt;trap</title>
<path fill="none" stroke="black" d="M504.57,-79.51C502.08,-98.66 505.53,-116.89 514.9,-116.89 522.67,-116.89 526.36,-104.39 525.99,-89.22"/>
<polygon fill="black" stroke="black" points="528.98,-89.26 525.35,-81.02 523.05,-89.73 528.98,-89.26"/>
<text text-anchor="middle" x="514.9" y="-120.84" font-family="Times,serif" font-size="14.00"> b </text>
</g>
</g>
</svg>
