<?xml version="1.0" encoding="UTF-8" standalone="no"?>
<!DOCTYPE svg PUBLIC "-//W3C//DTD SVG 1.1//EN"
 "http://www.w3.org/Graphics/SVG/1.1/DTD/svg11.dtd">
<!-- Generated by graphviz version 10.0.1 (0)
 -->
<!-- Pages: 1 -->
<svg width="305pt" height="133pt"
 viewBox="0.00 0.00 304.55 133.15" xmlns="http://www.w3.org/2000/svg" xmlns:xlink="http://www.w3.org/1999/xlink">
<g id="graph0" class="graph" transform="scale(1 1) rotate(0) translate(4 129.15)">
<polygon fill="white" stroke="none" points="-4,4 -4,-129.15 300.55,-129.15 300.55,4 -4,4"/>
<!-- Initial -->
<g id="node1" class="node">
<title>Initial</title>
<ellipse fill="black" stroke="black" cx="1.8" cy="-27.32" rx="1.8" ry="1.8"/>
</g>
<!-- x0 -->
<g id="node2" class="node">
<title>x0</title>
<ellipse fill="none" stroke="black" cx="63.92" cy="-27.32" rx="23.32" ry="23.32"/>
<text text-anchor="middle" x="63.92" y="-22.65" font-family="Times,serif" font-size="14.00">x0</text>
</g>
<!-- Initial&#45;&gt;x0 -->
<g id="edge1" class="edge">
<title>Initial&#45;&gt;x0</title>
<path fill="none" stroke="black" d="M3.84,-27.32C7.25,-27.32 18.54,-27.32 30.34,-27.32"/>
<polygon fill="black" stroke="black" points="30.2,-30.3 38.7,-27.32 30.2,-24.35 30.2,-30.3"/>
</g>
<!-- x0&#45;&gt;x0 -->
<g id="edge2" class="edge">
<title>x0&#45;&gt;x0</title>
<path fill="none" stroke="black" d="M56.2,-49.85C55.47,-59.93 58.04,-68.65 63.92,-68.65 67.69,-68.65 70.1,-65.07 71.15,-59.85"/>
<polygon fill="black" stroke="black" points="74.13,-60 71.57,-51.36 68.18,-59.71 74.13,-60"/>
<text text-anchor="middle" x="63.92" y="-72.6" font-family="Times,serif" font-size="14.00"> 0 </text>
</g>
<!-- x1 -->
<g id="node3" class="node">
<title>x1</title>
<ellipse fill="none" stroke="black" cx="164.57" cy="-27.32" rx="23.32" ry="23.32"/>
<text text-anchor="middle" x="164.57" y="-22.65" font-family="Times,serif" font-size="14.00">x1</text>
</g>
<!-- x0&#45;&gt;x1 -->
<g id="edge3" class="edge">
<title>x0&#45;&gt;x1</title>
<path fill="none" stroke="black" d="M87.31,-27.32C100.21,-27.32 116.65,-27.32 130.97,-27.32"/>
<polygon fill="black" stroke="black" points="130.92,-30.3 139.42,-27.32 130.92,-24.35 130.92,-30.3"/>
<text text-anchor="middle" x="114.25" y="-31.27" font-family="Times,serif" font-size="14.00"> 1 </text>
</g>
<!-- x1&#45;&gt;x1 -->
<g id="edge4" class="edge">
<title>x1&#45;&gt;x1</title>
<path fill="none" stroke="black" d="M155.37,-49.01C154.23,-59.44 157.3,-68.65 164.57,-68.65 169.35,-68.65 172.31,-64.68 173.46,-59.01"/>
<polygon fill="black" stroke="black" points="176.43,-59.11 173.73,-50.52 170.49,-58.92 176.43,-59.11"/>
<text text-anchor="middle" x="164.57" y="-72.6" font-family="Times,serif" font-size="14.00"> 0 </text>
</g>
<!-- x2 -->
<g id="node4" class="node">
<title>x2</title>
<ellipse fill="none" stroke="black" cx="269.22" cy="-27.32" rx="23.32" ry="23.32"/>
<ellipse fill="none" stroke="black" cx="269.22" cy="-27.32" rx="27.32" ry="27.32"/>
<text text-anchor="middle" x="269.22" y="-22.65" font-family="Times,serif" font-size="14.00">x2</text>
</g>
<!-- x1&#45;&gt;x2 -->
<g id="edge5" class="edge">
<title>x1&#45;&gt;x2</title>
<path fill="none" stroke="black" d="M188.35,-27.32C201.12,-27.32 217.34,-27.32 231.82,-27.32"/>
<polygon fill="black" stroke="black" points="231.49,-30.3 239.99,-27.32 231.49,-24.35 231.49,-30.3"/>
<text text-anchor="middle" x="214.9" y="-31.27" font-family="Times,serif" font-size="14.00"> 1 </text>
</g>
<!-- x2&#45;&gt;x2 -->
<g id="edge6" class="edge">
<title>x2&#45;&gt;x2</title>
<path fill="none" stroke="black" d="M264.14,-54.31C263.97,-64.37 265.67,-72.65 269.22,-72.65 271.5,-72.65 273.01,-69.25 273.76,-64.16"/>
<polygon fill="black" stroke="black" points="276.72,-64.47 274.22,-55.82 270.78,-64.15 276.72,-64.47"/>
<text text-anchor="middle" x="269.22" y="-76.6" font-family="Times,serif" font-size="14.00"> 0 </text>
</g>
<!-- x2&#45;&gt;x2 -->
<g id="edge7" class="edge">
<title>x2&#45;&gt;x2</title>
<path fill="none" stroke="black" d="M260.13,-53.34C257.17,-72.03 260.2,-90.65 269.22,-90.65 276.62,-90.65 279.99,-78.12 279.33,-63.3"/>
<polygon fill="black" stroke="black" points="282.29,-63 278.46,-54.85 276.37,-63.61 282.29,-63"/>
<text text-anchor="middle" x="269.22" y="-94.6" font-family="Times,serif" font-size="14.00"> 1 </text>
</g>
</g>
</svg>
