<?xml version="1.0" encoding="UTF-8" standalone="no"?>
<!DOCTYPE svg PUBLIC "-//W3C//DTD SVG 1.1//EN"
 "http://www.w3.org/Graphics/SVG/1.1/DTD/svg11.dtd">
<!-- Generated by graphviz version 10.0.1 (0)
 -->
<!-- Pages: 1 -->
<svg width="404pt" height="105pt"
 viewBox="0.00 0.00 404.44 104.65" xmlns="http://www.w3.org/2000/svg" xmlns:xlink="http://www.w3.org/1999/xlink">
<g id="graph0" class="graph" transform="scale(1 1) rotate(0) translate(4 100.65)">
<polygon fill="white" stroke="none" points="-4,4 -4,-100.65 400.44,-100.65 400.44,4 -4,4"/>
<!-- Initial -->
<g id="node1" class="node">
<title>Initial</title>
<ellipse fill="black" stroke="black" cx="1.8" cy="-27.32" rx="1.8" ry="1.8"/>
</g>
<!-- x0 -->
<g id="node2" class="node">
<title>x0</title>
<ellipse fill="none" stroke="black" cx="67.92" cy="-27.32" rx="23.32" ry="23.32"/>
<ellipse fill="none" stroke="black" cx="67.92" cy="-27.32" rx="27.32" ry="27.32"/>
<text text-anchor="middle" x="67.92" y="-22.65" font-family="Times,serif" font-size="14.00">x0</text>
</g>
<!-- Initial&#45;&gt;x0 -->
<g id="edge1" class="edge">
<title>Initial&#45;&gt;x0</title>
<path fill="none" stroke="black" d="M3.91,-27.32C7.4,-27.32 18.62,-27.32 30.64,-27.32"/>
<polygon fill="black" stroke="black" points="30.31,-30.3 38.81,-27.32 30.31,-24.35 30.31,-30.3"/>
</g>
<!-- x1 -->
<g id="node3" class="node">
<title>x1</title>
<ellipse fill="none" stroke="black" cx="171.82" cy="-73.32" rx="23.32" ry="23.32"/>
<text text-anchor="middle" x="171.82" y="-68.65" font-family="Times,serif" font-size="14.00">x1</text>
</g>
<!-- x0&#45;&gt;x1 -->
<g id="edge2" class="edge">
<title>x0&#45;&gt;x1</title>
<path fill="none" stroke="black" d="M88.31,-45.94C95.62,-52.02 104.33,-58.25 113.25,-62.32 121.1,-65.91 130.07,-68.33 138.55,-69.96"/>
<polygon fill="black" stroke="black" points="137.83,-72.85 146.7,-71.29 138.79,-66.98 137.83,-72.85"/>
<text text-anchor="middle" x="121.87" y="-71.27" font-family="Times,serif" font-size="14.00"> a </text>
</g>
<!-- x2 -->
<g id="node4" class="node">
<title>x2</title>
<ellipse fill="none" stroke="black" cx="373.12" cy="-27.32" rx="23.32" ry="23.32"/>
<text text-anchor="middle" x="373.12" y="-22.65" font-family="Times,serif" font-size="14.00">x2</text>
</g>
<!-- x0&#45;&gt;x2 -->
<g id="edge3" class="edge">
<title>x0&#45;&gt;x2</title>
<path fill="none" stroke="black" d="M95.57,-27.32C151.16,-27.32 279.37,-27.32 339.66,-27.32"/>
<polygon fill="black" stroke="black" points="339.4,-30.3 347.9,-27.32 339.4,-24.35 339.4,-30.3"/>
<text text-anchor="middle" x="222.15" y="-31.27" font-family="Times,serif" font-size="14.00"> b </text>
</g>
<!-- x1&#45;&gt;x0 -->
<g id="edge4" class="edge">
<title>x1&#45;&gt;x0</title>
<path fill="none" stroke="black" d="M154.34,-57.31C147.45,-51.42 139.07,-45.18 130.5,-41.07 122.53,-37.25 113.48,-34.48 104.8,-32.46"/>
<polygon fill="black" stroke="black" points="105.67,-29.6 96.74,-30.81 104.47,-35.43 105.67,-29.6"/>
<text text-anchor="middle" x="121.87" y="-44.27" font-family="Times,serif" font-size="14.00"> a </text>
</g>
<!-- x3 -->
<g id="node5" class="node">
<title>x3</title>
<ellipse fill="none" stroke="black" cx="272.47" cy="-73.32" rx="23.32" ry="23.32"/>
<text text-anchor="middle" x="272.47" y="-68.65" font-family="Times,serif" font-size="14.00">x3</text>
</g>
<!-- x1&#45;&gt;x3 -->
<g id="edge5" class="edge">
<title>x1&#45;&gt;x3</title>
<path fill="none" stroke="black" d="M195.53,-74.02C206.32,-74.28 219.4,-74.47 231.15,-74.32 233.66,-74.29 236.26,-74.25 238.87,-74.2"/>
<polygon fill="black" stroke="black" points="238.92,-77.18 247.35,-74.02 238.79,-71.23 238.92,-77.18"/>
<text text-anchor="middle" x="222.15" y="-78.27" font-family="Times,serif" font-size="14.00"> b </text>
</g>
<!-- x2&#45;&gt;x0 -->
<g id="edge7" class="edge">
<title>x2&#45;&gt;x0</title>
<path fill="none" stroke="black" d="M349.77,-22.9C322.07,-17.66 273.35,-9.24 231.15,-6.07 187.25,-2.78 137.05,-11.26 104.27,-18.47"/>
<polygon fill="black" stroke="black" points="103.79,-15.53 96.16,-20.32 105.11,-21.33 103.79,-15.53"/>
<text text-anchor="middle" x="222.15" y="-9.27" font-family="Times,serif" font-size="14.00"> b </text>
</g>
<!-- x2&#45;&gt;x3 -->
<g id="edge6" class="edge">
<title>x2&#45;&gt;x3</title>
<path fill="none" stroke="black" d="M349.89,-32.32C338.74,-35.26 325.21,-39.51 313.8,-45.07 308.9,-47.46 303.94,-50.41 299.25,-53.49"/>
<polygon fill="black" stroke="black" points="297.71,-50.94 292.43,-58.24 301.1,-55.83 297.71,-50.94"/>
<text text-anchor="middle" x="322.8" y="-48.27" font-family="Times,serif" font-size="14.00"> a </text>
</g>
<!-- x3&#45;&gt;x1 -->
<g id="edge8" class="edge">
<title>x3&#45;&gt;x1</title>
<path fill="none" stroke="black" d="M252.07,-61.3C245.65,-57.95 238.31,-54.77 231.15,-53.07 221.13,-50.7 210.43,-52.96 200.96,-56.7"/>
<polygon fill="black" stroke="black" points="199.83,-53.94 193.35,-60.19 202.31,-59.35 199.83,-53.94"/>
<text text-anchor="middle" x="222.15" y="-56.27" font-family="Times,serif" font-size="14.00"> a </text>
</g>
<!-- x3&#45;&gt;x2 -->
<g id="edge9" class="edge">
<title>x3&#45;&gt;x2</title>
<path fill="none" stroke="black" d="M296.22,-71.83C307.38,-70.42 320.76,-67.66 331.8,-62.32 337.96,-59.34 343.93,-55.16 349.3,-50.73"/>
<polygon fill="black" stroke="black" points="351.18,-53.03 355.56,-45.16 347.23,-48.59 351.18,-53.03"/>
<text text-anchor="middle" x="322.8" y="-71.27" font-family="Times,serif" font-size="14.00"> b </text>
</g>
</g>
</svg>
