<?xml version="1.0" encoding="UTF-8" standalone="no"?>
<!DOCTYPE svg PUBLIC "-//W3C//DTD SVG 1.1//EN"
 "http://www.w3.org/Graphics/SVG/1.1/DTD/svg11.dtd">
<!-- Generated by graphviz version 10.0.1 (0)
 -->
<!-- Pages: 1 -->
<svg width="320pt" height="110pt"
 viewBox="0.00 0.00 319.80 109.65" xmlns="http://www.w3.org/2000/svg" xmlns:xlink="http://www.w3.org/1999/xlink">
<g id="graph0" class="graph" transform="scale(1 1) rotate(0) translate(4 105.65)">
<polygon fill="white" stroke="none" points="-4,4 -4,-105.65 315.8,-105.65 315.8,4 -4,4"/>
<!-- Initial -->
<g id="node1" class="node">
<title>Initial</title>
<ellipse fill="black" stroke="black" cx="1.8" cy="-27.32" rx="1.8" ry="1.8"/>
</g>
<!-- x0 -->
<g id="node2" class="node">
<title>x0</title>
<ellipse fill="none" stroke="black" cx="67.92" cy="-27.32" rx="23.32" ry="23.32"/>
<ellipse fill="none" stroke="black" cx="67.92" cy="-27.32" rx="27.32" ry="27.32"/>
<text text-anchor="middle" x="67.92" y="-22.65" font-family="Times,serif" font-size="14.00">x0</text>
</g>
<!-- Initial&#45;&gt;x0 -->
<g id="edge1" class="edge">
<title>Initial&#45;&gt;x0</title>
<path fill="none" stroke="black" d="M3.91,-27.32C7.4,-27.32 18.62,-27.32 30.64,-27.32"/>
<polygon fill="black" stroke="black" points="30.31,-30.3 38.81,-27.32 30.31,-24.35 30.31,-30.3"/>
</g>
<!-- x1 -->
<g id="node3" class="node">
<title>x1</title>
<ellipse fill="none" stroke="black" cx="175.82" cy="-74.32" rx="23.32" ry="23.32"/>
<ellipse fill="none" stroke="black" cx="175.82" cy="-74.32" rx="27.32" ry="27.32"/>
<text text-anchor="middle" x="175.82" y="-69.65" font-family="Times,serif" font-size="14.00">x1</text>
</g>
<!-- x0&#45;&gt;x1 -->
<g id="edge2" class="edge">
<title>x0&#45;&gt;x1</title>
<path fill="none" stroke="black" d="M93.49,-38.23C107.79,-44.57 126.01,-52.66 141.58,-59.57"/>
<polygon fill="black" stroke="black" points="140.03,-62.14 149.01,-62.87 142.45,-56.7 140.03,-62.14"/>
<text text-anchor="middle" x="121.87" y="-58.27" font-family="Times,serif" font-size="14.00"> a </text>
</g>
<!-- x2 -->
<g id="node4" class="node">
<title>x2</title>
<ellipse fill="none" stroke="black" cx="284.47" cy="-44.32" rx="23.32" ry="23.32"/>
<ellipse fill="none" stroke="black" cx="284.47" cy="-44.32" rx="27.32" ry="27.32"/>
<text text-anchor="middle" x="284.47" y="-39.65" font-family="Times,serif" font-size="14.00">x2</text>
</g>
<!-- x0&#45;&gt;x2 -->
<g id="edge3" class="edge">
<title>x0&#45;&gt;x2</title>
<path fill="none" stroke="black" d="M95.29,-23.2C122.46,-19.63 165.96,-15.8 203.15,-21.07 218.56,-23.26 235.16,-27.7 249.24,-32.11"/>
<polygon fill="black" stroke="black" points="248.1,-34.87 257.11,-34.67 249.94,-29.21 248.1,-34.87"/>
<text text-anchor="middle" x="175.82" y="-25.27" font-family="Times,serif" font-size="14.00"> b </text>
</g>
<!-- x1&#45;&gt;x2 -->
<g id="edge4" class="edge">
<title>x1&#45;&gt;x2</title>
<path fill="none" stroke="black" d="M203.17,-70.43C214.38,-68.47 227.53,-65.77 239.15,-62.32 242.62,-61.3 246.19,-60.1 249.73,-58.82"/>
<polygon fill="black" stroke="black" points="250.64,-61.65 257.51,-55.83 248.51,-56.09 250.64,-61.65"/>
<text text-anchor="middle" x="230.15" y="-71.27" font-family="Times,serif" font-size="14.00"> b </text>
</g>
<!-- x2&#45;&gt;x1 -->
<g id="edge5" class="edge">
<title>x2&#45;&gt;x1</title>
<path fill="none" stroke="black" d="M257.42,-38.75C246.03,-37.38 232.66,-37.24 221.15,-41.07 215.16,-43.07 209.33,-46.23 203.97,-49.82"/>
<polygon fill="black" stroke="black" points="202.26,-47.38 197.19,-54.82 205.8,-52.17 202.26,-47.38"/>
<text text-anchor="middle" x="230.15" y="-45.27" font-family="Times,serif" font-size="14.00"> a </text>
</g>
</g>
</svg>
