<?xml version="1.0" encoding="UTF-8" standalone="no"?>
<!DOCTYPE svg PUBLIC "-//W3C//DTD SVG 1.1//EN"
 "http://www.w3.org/Graphics/SVG/1.1/DTD/svg11.dtd">
<!-- Generated by graphviz version 10.0.1 (0)
 -->
<!-- Pages: 1 -->
<svg width="305pt" height="98pt"
 viewBox="0.00 0.00 304.55 97.90" xmlns="http://www.w3.org/2000/svg" xmlns:xlink="http://www.w3.org/1999/xlink">
<g id="graph0" class="graph" transform="scale(1 1) rotate(0) translate(4 93.9)">
<polygon fill="white" stroke="none" points="-4,4 -4,-93.9 300.55,-93.9 300.55,4 -4,4"/>
<!-- Initial -->
<g id="node1" class="node">
<title>Initial</title>
<ellipse fill="black" stroke="black" cx="1.8" cy="-27.32" rx="1.8" ry="1.8"/>
</g>
<!-- x0 -->
<g id="node2" class="node">
<title>x0</title>
<ellipse fill="none" stroke="black" cx="67.92" cy="-27.32" rx="23.32" ry="23.32"/>
<ellipse fill="none" stroke="black" cx="67.92" cy="-27.32" rx="27.32" ry="27.32"/>
<text text-anchor="middle" x="67.92" y="-22.65" font-family="Times,serif" font-size="14.00">x0</text>
</g>
<!-- Initial&#45;&gt;x0 -->
<g id="edge1" class="edge">
<title>Initial&#45;&gt;x0</title>
<path fill="none" stroke="black" d="M3.91,-27.32C7.4,-27.32 18.62,-27.32 30.64,-27.32"/>
<polygon fill="black" stroke="black" points="30.31,-30.3 38.81,-27.32 30.31,-24.35 30.31,-30.3"/>
</g>
<!-- x0&#45;&gt;x0 -->
<g id="edge2" class="edge">
<title>x0&#45;&gt;x0</title>
<path fill="none" stroke="black" d="M59.38,-53.41C58.9,-63.87 61.75,-72.65 67.92,-72.65 71.98,-72.65 74.6,-68.87 75.78,-63.31"/>
<polygon fill="black" stroke="black" points="78.74,-63.6 76.36,-54.92 72.81,-63.19 78.74,-63.6"/>
<text text-anchor="middle" x="67.92" y="-76.6" font-family="Times,serif" font-size="14.00"> 0 </text>
</g>
<!-- x1 -->
<g id="node3" class="node">
<title>x1</title>
<ellipse fill="none" stroke="black" cx="172.57" cy="-27.32" rx="23.32" ry="23.32"/>
<text text-anchor="middle" x="172.57" y="-22.65" font-family="Times,serif" font-size="14.00">x1</text>
</g>
<!-- x0&#45;&gt;x1 -->
<g id="edge3" class="edge">
<title>x0&#45;&gt;x1</title>
<path fill="none" stroke="black" d="M95.63,-27.32C108.91,-27.32 125.09,-27.32 139.09,-27.32"/>
<polygon fill="black" stroke="black" points="138.82,-30.3 147.32,-27.32 138.82,-24.35 138.82,-30.3"/>
<text text-anchor="middle" x="122.25" y="-31.27" font-family="Times,serif" font-size="14.00"> 1 </text>
</g>
<!-- x1&#45;&gt;x0 -->
<g id="edge5" class="edge">
<title>x1&#45;&gt;x0</title>
<path fill="none" stroke="black" d="M152.65,-14.94C146.14,-11.34 138.62,-7.9 131.25,-6.07 121.07,-3.56 110.19,-5.57 100.41,-9.19"/>
<polygon fill="black" stroke="black" points="99.46,-6.36 92.83,-12.46 101.81,-11.83 99.46,-6.36"/>
<text text-anchor="middle" x="122.25" y="-10.27" font-family="Times,serif" font-size="14.00"> 1 </text>
</g>
<!-- x2 -->
<g id="node4" class="node">
<title>x2</title>
<ellipse fill="none" stroke="black" cx="273.22" cy="-27.32" rx="23.32" ry="23.32"/>
<text text-anchor="middle" x="273.22" y="-22.65" font-family="Times,serif" font-size="14.00">x2</text>
</g>
<!-- x1&#45;&gt;x2 -->
<g id="edge4" class="edge">
<title>x1&#45;&gt;x2</title>
<path fill="none" stroke="black" d="M195.96,-27.32C208.86,-27.32 225.3,-27.32 239.62,-27.32"/>
<polygon fill="black" stroke="black" points="239.57,-30.3 248.07,-27.32 239.57,-24.35 239.57,-30.3"/>
<text text-anchor="middle" x="222.9" y="-31.27" font-family="Times,serif" font-size="14.00"> 0 </text>
</g>
<!-- x2&#45;&gt;x1 -->
<g id="edge6" class="edge">
<title>x2&#45;&gt;x1</title>
<path fill="none" stroke="black" d="M253.36,-14.36C242.1,-8.16 227.39,-2.74 213.9,-6.07 209.63,-7.13 205.32,-8.72 201.19,-10.58"/>
<polygon fill="black" stroke="black" points="200.11,-7.79 193.85,-14.26 202.78,-13.11 200.11,-7.79"/>
<text text-anchor="middle" x="222.9" y="-10.27" font-family="Times,serif" font-size="14.00"> 0 </text>
</g>
<!-- x2&#45;&gt;x2 -->
<g id="edge7" class="edge">
<title>x2&#45;&gt;x2</title>
<path fill="none" stroke="black" d="M264.02,-49.01C262.88,-59.44 265.95,-68.65 273.22,-68.65 277.99,-68.65 280.96,-64.68 282.11,-59.01"/>
<polygon fill="black" stroke="black" points="285.08,-59.11 282.38,-50.52 279.13,-58.92 285.08,-59.11"/>
<text text-anchor="middle" x="273.22" y="-72.6" font-family="Times,serif" font-size="14.00"> 1 </text>
</g>
</g>
</svg>
