<?xml version="1.0" encoding="UTF-8" standalone="no"?>
<!DOCTYPE svg PUBLIC "-//W3C//DTD SVG 1.1//EN"
 "http://www.w3.org/Graphics/SVG/1.1/DTD/svg11.dtd">
<!-- Generated by graphviz version 10.0.1 (0)
 -->
<!-- Pages: 1 -->
<svg width="576pt" height="230pt"
 viewBox="0.00 0.00 576.00 230.00" xmlns="http://www.w3.org/2000/svg" xmlns:xlink="http://www.w3.org/1999/xlink">
<g id="graph0" class="graph" transform="scale(0.47363 0.47363) rotate(0) translate(4 481.61)">
<polygon fill="white" stroke="none" points="-4,4 -4,-481.61 1212.14,-481.61 1212.14,4 -4,4"/>
<!-- Initial -->
<g id="node1" class="node">
<title>Initial</title>
<ellipse fill="black" stroke="black" cx="1.8" cy="-173.77" rx="1.8" ry="1.8"/>
</g>
<!-- q0 -->
<g id="node16" class="node">
<title>q0</title>
<ellipse fill="none" stroke="black" cx="64.45" cy="-173.77" rx="23.85" ry="23.85"/>
<text text-anchor="middle" x="64.45" y="-169.1" font-family="Times,serif" font-size="14.00">q0</text>
</g>
<!-- Initial&#45;&gt;q0 -->
<g id="edge1" class="edge">
<title>Initial&#45;&gt;q0</title>
<path fill="none" stroke="black" d="M3.85,-173.77C7.27,-173.77 18.51,-173.77 30.32,-173.77"/>
<polygon fill="black" stroke="black" points="30.21,-176.75 38.71,-173.77 30.21,-170.8 30.21,-176.75"/>
</g>
<!-- a -->
<g id="node2" class="node">
<title>a</title>
<ellipse fill="none" stroke="black" cx="159.55" cy="-259.77" rx="18" ry="18"/>
<text text-anchor="middle" x="159.55" y="-255.1" font-family="Times,serif" font-size="14.00">a</text>
</g>
<!-- aa -->
<g id="node3" class="node">
<title>aa</title>
<ellipse fill="none" stroke="black" cx="253.6" cy="-341.77" rx="22.8" ry="22.8"/>
<text text-anchor="middle" x="253.6" y="-337.1" font-family="Times,serif" font-size="14.00">aa</text>
</g>
<!-- a&#45;&gt;aa -->
<g id="edge4" class="edge">
<title>a&#45;&gt;aa</title>
<path fill="none" stroke="black" d="M173.74,-271.52C188.09,-284.31 211.34,-305.02 228.88,-320.65"/>
<polygon fill="black" stroke="black" points="226.55,-322.56 234.88,-325.99 230.51,-318.11 226.55,-322.56"/>
<text text-anchor="middle" x="204.18" y="-309.72" font-family="Times,serif" font-size="14.00"> a </text>
</g>
<!-- ab -->
<g id="node6" class="node">
<title>ab</title>
<ellipse fill="none" stroke="black" cx="482.68" cy="-259.77" rx="23.32" ry="23.32"/>
<text text-anchor="middle" x="482.68" y="-255.1" font-family="Times,serif" font-size="14.00">ab</text>
</g>
<!-- a&#45;&gt;ab -->
<g id="edge5" class="edge">
<title>a&#45;&gt;ab</title>
<path fill="none" stroke="black" d="M177.82,-259.77C229.24,-259.77 381.99,-259.77 449.26,-259.77"/>
<polygon fill="black" stroke="black" points="448.9,-262.75 457.4,-259.77 448.9,-256.8 448.9,-262.75"/>
<text text-anchor="middle" x="303.4" y="-263.72" font-family="Times,serif" font-size="14.00"> b </text>
</g>
<!-- aaa -->
<g id="node4" class="node">
<title>aaa</title>
<ellipse fill="none" stroke="black" cx="362.98" cy="-409.77" rx="28.59" ry="28.59"/>
<ellipse fill="none" stroke="black" cx="362.98" cy="-409.77" rx="32.59" ry="32.59"/>
<text text-anchor="middle" x="362.98" y="-405.1" font-family="Times,serif" font-size="14.00">aaa</text>
</g>
<!-- aa&#45;&gt;aaa -->
<g id="edge8" class="edge">
<title>aa&#45;&gt;aaa</title>
<path fill="none" stroke="black" d="M273.3,-353.62C287.97,-362.91 308.8,-376.1 326.59,-387.36"/>
<polygon fill="black" stroke="black" points="324.99,-389.87 333.76,-391.9 328.17,-384.84 324.99,-389.87"/>
<text text-anchor="middle" x="303.4" y="-381.72" font-family="Times,serif" font-size="14.00"> a </text>
</g>
<!-- aab -->
<g id="node5" class="node">
<title>aab</title>
<ellipse fill="none" stroke="black" cx="482.68" cy="-357.77" rx="29.11" ry="29.11"/>
<ellipse fill="none" stroke="black" cx="482.68" cy="-357.77" rx="33.11" ry="33.11"/>
<text text-anchor="middle" x="482.68" y="-353.1" font-family="Times,serif" font-size="14.00">aab</text>
</g>
<!-- aa&#45;&gt;aab -->
<g id="edge9" class="edge">
<title>aa&#45;&gt;aab</title>
<path fill="none" stroke="black" d="M276.58,-342.99C304.33,-344.56 353.5,-347.45 395.57,-350.52 409.9,-351.57 425.55,-352.85 439.54,-354.04"/>
<polygon fill="black" stroke="black" points="439.16,-356.99 447.88,-354.76 439.67,-351.07 439.16,-356.99"/>
<text text-anchor="middle" x="362.98" y="-353.72" font-family="Times,serif" font-size="14.00"> b </text>
</g>
<!-- aaa&#45;&gt;aaa -->
<g id="edge16" class="edge">
<title>aaa&#45;&gt;aaa</title>
<path fill="none" stroke="black" d="M351.81,-440.9C351.69,-451.66 355.42,-460.36 362.98,-460.36 368.06,-460.36 371.41,-456.43 373.03,-450.59"/>
<polygon fill="black" stroke="black" points="375.95,-451.18 373.98,-442.4 370.04,-450.5 375.95,-451.18"/>
<text text-anchor="middle" x="362.98" y="-464.31" font-family="Times,serif" font-size="14.00"> a </text>
</g>
<!-- aaa&#45;&gt;aab -->
<g id="edge17" class="edge">
<title>aaa&#45;&gt;aab</title>
<path fill="none" stroke="black" d="M393.38,-396.79C408.43,-390.14 426.95,-381.96 443.13,-374.81"/>
<polygon fill="black" stroke="black" points="443.88,-377.73 450.46,-371.57 441.48,-372.28 443.88,-377.73"/>
<text text-anchor="middle" x="422.57" y="-390.72" font-family="Times,serif" font-size="14.00"> b </text>
</g>
<!-- aba -->
<g id="node7" class="node">
<title>aba</title>
<ellipse fill="none" stroke="black" cx="598.15" cy="-287.77" rx="29.11" ry="29.11"/>
<text text-anchor="middle" x="598.15" y="-283.1" font-family="Times,serif" font-size="14.00">aba</text>
</g>
<!-- aab&#45;&gt;aba -->
<g id="edge18" class="edge">
<title>aab&#45;&gt;aba</title>
<path fill="none" stroke="black" d="M511.22,-340.54C518.55,-335.97 526.46,-331.05 533.79,-326.52 543.72,-320.39 554.54,-313.76 564.39,-307.73"/>
<polygon fill="black" stroke="black" points="565.75,-310.39 571.46,-303.42 562.65,-305.31 565.75,-310.39"/>
<text text-anchor="middle" x="542.42" y="-329.72" font-family="Times,serif" font-size="14.00"> a </text>
</g>
<!-- abb -->
<g id="node8" class="node">
<title>abb</title>
<ellipse fill="none" stroke="black" cx="824.18" cy="-240.77" rx="29.64" ry="29.64"/>
<text text-anchor="middle" x="824.18" y="-236.1" font-family="Times,serif" font-size="14.00">abb</text>
</g>
<!-- aab&#45;&gt;abb -->
<g id="edge19" class="edge">
<title>aab&#45;&gt;abb</title>
<path fill="none" stroke="black" d="M515.99,-356.09C552.35,-353.6 612.91,-347.61 663.26,-333.77 699.27,-323.88 708.05,-319.19 740.54,-300.77 758.79,-290.42 777.83,-276.82 793.03,-265.18"/>
<polygon fill="black" stroke="black" points="794.52,-267.79 799.41,-260.23 790.87,-263.09 794.52,-267.79"/>
<text text-anchor="middle" x="654.26" y="-341.72" font-family="Times,serif" font-size="14.00"> b </text>
</g>
<!-- ab&#45;&gt;aba -->
<g id="edge10" class="edge">
<title>ab&#45;&gt;aba</title>
<path fill="none" stroke="black" d="M505.83,-265.24C521.17,-269.03 541.98,-274.16 559.86,-278.57"/>
<polygon fill="black" stroke="black" points="559,-281.42 567.96,-280.57 560.42,-275.65 559,-281.42"/>
<text text-anchor="middle" x="542.42" y="-280.72" font-family="Times,serif" font-size="14.00"> a </text>
</g>
<!-- ab&#45;&gt;abb -->
<g id="edge11" class="edge">
<title>ab&#45;&gt;abb</title>
<path fill="none" stroke="black" d="M505.26,-252.97C549.35,-239.9 652.96,-213.35 740.54,-222.77 755.48,-224.38 771.69,-227.58 785.76,-230.85"/>
<polygon fill="black" stroke="black" points="784.69,-233.65 793.65,-232.74 786.08,-227.86 784.69,-233.65"/>
<text text-anchor="middle" x="654.26" y="-227.72" font-family="Times,serif" font-size="14.00"> b </text>
</g>
<!-- baa -->
<g id="node11" class="node">
<title>baa</title>
<ellipse fill="none" stroke="black" cx="1179.03" cy="-338.77" rx="29.11" ry="29.11"/>
<text text-anchor="middle" x="1179.03" y="-334.1" font-family="Times,serif" font-size="14.00">baa</text>
</g>
<!-- aba&#45;&gt;baa -->
<g id="edge20" class="edge">
<title>aba&#45;&gt;baa</title>
<path fill="none" stroke="black" d="M626.84,-294.39C632.89,-295.67 639.27,-296.88 645.26,-297.77 661.14,-300.15 665.26,-299.5 681.26,-300.77 852.39,-314.45 1056.76,-329.76 1139.97,-335.95"/>
<polygon fill="black" stroke="black" points="1139.53,-338.9 1148.23,-336.57 1139.97,-332.97 1139.53,-338.9"/>
<text text-anchor="middle" x="880.81" y="-321.72" font-family="Times,serif" font-size="14.00"> a </text>
</g>
<!-- bab -->
<g id="node12" class="node">
<title>bab</title>
<ellipse fill="none" stroke="black" cx="710.9" cy="-261.77" rx="29.64" ry="29.64"/>
<text text-anchor="middle" x="710.9" y="-257.1" font-family="Times,serif" font-size="14.00">bab</text>
</g>
<!-- aba&#45;&gt;bab -->
<g id="edge21" class="edge">
<title>aba&#45;&gt;bab</title>
<path fill="none" stroke="black" d="M626.81,-281.28C640.58,-278.05 657.43,-274.09 672.35,-270.59"/>
<polygon fill="black" stroke="black" points="672.75,-273.55 680.35,-268.71 671.39,-267.76 672.75,-273.55"/>
<text text-anchor="middle" x="654.26" y="-280.72" font-family="Times,serif" font-size="14.00"> b </text>
</g>
<!-- bba -->
<g id="node14" class="node">
<title>bba</title>
<ellipse fill="none" stroke="black" cx="1063.03" cy="-254.77" rx="29.64" ry="29.64"/>
<ellipse fill="none" stroke="black" cx="1063.03" cy="-254.77" rx="33.64" ry="33.64"/>
<text text-anchor="middle" x="1063.03" y="-250.1" font-family="Times,serif" font-size="14.00">bba</text>
</g>
<!-- abb&#45;&gt;bba -->
<g id="edge22" class="edge">
<title>abb&#45;&gt;bba</title>
<path fill="none" stroke="black" d="M854.22,-242.49C895.62,-244.94 971.87,-249.45 1019.6,-252.27"/>
<polygon fill="black" stroke="black" points="1019.16,-255.22 1027.82,-252.75 1019.51,-249.28 1019.16,-255.22"/>
<text text-anchor="middle" x="941.98" y="-253.72" font-family="Times,serif" font-size="14.00"> a </text>
</g>
<!-- bbb -->
<g id="node15" class="node">
<title>bbb</title>
<ellipse fill="none" stroke="black" cx="941.98" cy="-149.77" rx="30.16" ry="30.16"/>
<ellipse fill="none" stroke="black" cx="941.98" cy="-149.77" rx="34.16" ry="34.16"/>
<text text-anchor="middle" x="941.98" y="-145.1" font-family="Times,serif" font-size="14.00">bbb</text>
</g>
<!-- abb&#45;&gt;bbb -->
<g id="edge23" class="edge">
<title>abb&#45;&gt;bbb</title>
<path fill="none" stroke="black" d="M848.05,-222.8C864.78,-209.65 887.75,-191.6 906.67,-176.74"/>
<polygon fill="black" stroke="black" points="908.46,-179.11 913.31,-171.52 904.79,-174.43 908.46,-179.11"/>
<text text-anchor="middle" x="880.81" y="-207.72" font-family="Times,serif" font-size="14.00"> b </text>
</g>
<!-- b -->
<g id="node9" class="node">
<title>b</title>
<ellipse fill="none" stroke="black" cx="482.68" cy="-100.77" rx="18" ry="18"/>
<text text-anchor="middle" x="482.68" y="-96.1" font-family="Times,serif" font-size="14.00">b</text>
</g>
<!-- ba -->
<g id="node10" class="node">
<title>ba</title>
<ellipse fill="none" stroke="black" cx="598.15" cy="-100.77" rx="23.32" ry="23.32"/>
<text text-anchor="middle" x="598.15" y="-96.1" font-family="Times,serif" font-size="14.00">ba</text>
</g>
<!-- b&#45;&gt;ba -->
<g id="edge6" class="edge">
<title>b&#45;&gt;ba</title>
<path fill="none" stroke="black" d="M500.91,-100.77C517.78,-100.77 543.89,-100.77 564.66,-100.77"/>
<polygon fill="black" stroke="black" points="564.65,-103.75 573.15,-100.77 564.65,-97.8 564.65,-103.75"/>
<text text-anchor="middle" x="542.42" y="-104.72" font-family="Times,serif" font-size="14.00"> a </text>
</g>
<!-- bb -->
<g id="node13" class="node">
<title>bb</title>
<ellipse fill="none" stroke="black" cx="824.18" cy="-86.77" rx="23.85" ry="23.85"/>
<text text-anchor="middle" x="824.18" y="-82.1" font-family="Times,serif" font-size="14.00">bb</text>
</g>
<!-- b&#45;&gt;bb -->
<g id="edge7" class="edge">
<title>b&#45;&gt;bb</title>
<path fill="none" stroke="black" d="M496.75,-89.42C522.82,-67.61 584.06,-20.52 645.26,-3.52 703.61,12.68 766.61,-33.65 799.74,-63.56"/>
<polygon fill="black" stroke="black" points="797.36,-65.41 805.62,-69 801.4,-61.04 797.36,-65.41"/>
<text text-anchor="middle" x="654.26" y="-7.72" font-family="Times,serif" font-size="14.00"> b </text>
</g>
<!-- ba&#45;&gt;baa -->
<g id="edge12" class="edge">
<title>ba&#45;&gt;baa</title>
<path fill="none" stroke="black" d="M614.66,-84.12C634.64,-64.57 671.4,-34.77 709.9,-34.77 709.9,-34.77 709.9,-34.77 1064.03,-34.77 1120.1,-34.77 1157.87,-218.38 1171.92,-300.21"/>
<polygon fill="black" stroke="black" points="1168.95,-300.52 1173.3,-308.41 1174.82,-299.53 1168.95,-300.52"/>
<text text-anchor="middle" x="880.81" y="-38.72" font-family="Times,serif" font-size="14.00"> a </text>
</g>
<!-- ba&#45;&gt;bab -->
<g id="edge13" class="edge">
<title>ba&#45;&gt;bab</title>
<path fill="none" stroke="black" d="M616.85,-115.37C630.74,-127.49 649.9,-145.71 663.26,-164.52 676.44,-183.07 687.61,-205.91 695.71,-224.8"/>
<polygon fill="black" stroke="black" points="692.95,-225.9 698.97,-232.59 698.44,-223.6 692.95,-225.9"/>
<text text-anchor="middle" x="654.26" y="-168.72" font-family="Times,serif" font-size="14.00"> b </text>
</g>
<!-- baa&#45;&gt;aaa -->
<g id="edge24" class="edge">
<title>baa&#45;&gt;aaa</title>
<path fill="none" stroke="black" d="M1164.18,-364.25C1145.67,-394.46 1109.84,-440.77 1064.03,-440.77 481.68,-440.77 481.68,-440.77 481.68,-440.77 454.68,-440.77 425.32,-433.06 402.68,-425.32"/>
<polygon fill="black" stroke="black" points="403.84,-422.58 394.84,-422.53 401.85,-428.18 403.84,-422.58"/>
<text text-anchor="middle" x="767.54" y="-444.72" font-family="Times,serif" font-size="14.00"> a </text>
</g>
<!-- baa&#45;&gt;aab -->
<g id="edge25" class="edge">
<title>baa&#45;&gt;aab</title>
<path fill="none" stroke="black" d="M1156.07,-357.44C1134.22,-374.06 1098.99,-395.77 1064.03,-395.77 597.15,-395.77 597.15,-395.77 597.15,-395.77 570.79,-395.77 542.69,-386.44 521.05,-377.03"/>
<polygon fill="black" stroke="black" points="522.54,-374.44 513.57,-373.64 520.08,-379.85 522.54,-374.44"/>
<text text-anchor="middle" x="824.18" y="-399.72" font-family="Times,serif" font-size="14.00"> b </text>
</g>
<!-- bab&#45;&gt;aba -->
<g id="edge26" class="edge">
<title>bab&#45;&gt;aba</title>
<path fill="none" stroke="black" d="M682.33,-252.28C670.67,-249.67 657.07,-248.53 645.26,-252.52 638.98,-254.65 632.88,-258.02 627.28,-261.84"/>
<polygon fill="black" stroke="black" points="625.71,-259.3 620.69,-266.78 629.27,-264.06 625.71,-259.3"/>
<text text-anchor="middle" x="654.26" y="-256.72" font-family="Times,serif" font-size="14.00"> a </text>
</g>
<!-- bab&#45;&gt;abb -->
<g id="edge27" class="edge">
<title>bab&#45;&gt;abb</title>
<path fill="none" stroke="black" d="M740.27,-256.42C753.87,-253.85 770.36,-250.74 785.04,-247.97"/>
<polygon fill="black" stroke="black" points="785.57,-250.9 793.37,-246.4 784.47,-245.05 785.57,-250.9"/>
<text text-anchor="middle" x="767.54" y="-256.72" font-family="Times,serif" font-size="14.00"> b </text>
</g>
<!-- bb&#45;&gt;bba -->
<g id="edge14" class="edge">
<title>bb&#45;&gt;bba</title>
<path fill="none" stroke="black" d="M847.63,-80.54C878.99,-73.22 936.48,-64.94 976.14,-89.52 1019.46,-116.38 1042,-172.82 1052.92,-212.23"/>
<polygon fill="black" stroke="black" points="1050.03,-212.93 1055.07,-220.39 1055.78,-211.41 1050.03,-212.93"/>
<text text-anchor="middle" x="941.98" y="-93.72" font-family="Times,serif" font-size="14.00"> a </text>
</g>
<!-- bb&#45;&gt;bbb -->
<g id="edge15" class="edge">
<title>bb&#45;&gt;bbb</title>
<path fill="none" stroke="black" d="M845.61,-97.89C861.42,-106.49 883.75,-118.64 902.84,-129.03"/>
<polygon fill="black" stroke="black" points="901.4,-131.63 910.29,-133.08 904.24,-126.4 901.4,-131.63"/>
<text text-anchor="middle" x="880.81" y="-124.72" font-family="Times,serif" font-size="14.00"> b </text>
</g>
<!-- bba&#45;&gt;baa -->
<g id="edge28" class="edge">
<title>bba&#45;&gt;baa</title>
<path fill="none" stroke="black" d="M1090.76,-274.47C1107.65,-286.92 1129.54,-303.05 1147.17,-316.04"/>
<polygon fill="black" stroke="black" points="1145.11,-318.22 1153.72,-320.86 1148.64,-313.43 1145.11,-318.22"/>
<text text-anchor="middle" x="1123.29" y="-308.72" font-family="Times,serif" font-size="14.00"> a </text>
</g>
<!-- bba&#45;&gt;bab -->
<g id="edge29" class="edge">
<title>bba&#45;&gt;bab</title>
<path fill="none" stroke="black" d="M1029.95,-262.11C1023.81,-263.41 1017.41,-264.7 1011.39,-265.77 916.33,-282.82 890.79,-287.74 794.54,-279.77 779.56,-278.54 763.34,-275.41 749.28,-272.1"/>
<polygon fill="black" stroke="black" points="750.36,-269.3 741.39,-270.17 748.94,-275.08 750.36,-269.3"/>
<text text-anchor="middle" x="880.81" y="-287.72" font-family="Times,serif" font-size="14.00"> b </text>
</g>
<!-- bbb&#45;&gt;bba -->
<g id="edge30" class="edge">
<title>bbb&#45;&gt;bba</title>
<path fill="none" stroke="black" d="M968.22,-172.04C986.18,-187.88 1010.45,-209.28 1029.8,-226.35"/>
<polygon fill="black" stroke="black" points="1027.75,-228.51 1036.09,-231.9 1031.68,-224.04 1027.75,-228.51"/>
<text text-anchor="middle" x="1002.77" y="-212.72" font-family="Times,serif" font-size="14.00"> a </text>
</g>
<!-- bbb&#45;&gt;bbb -->
<g id="edge31" class="edge">
<title>bbb&#45;&gt;bbb</title>
<path fill="none" stroke="black" d="M930.58,-182.38C930.58,-193.24 934.38,-201.94 941.98,-201.94 947.08,-201.94 950.47,-198.01 952.15,-192.14"/>
<polygon fill="black" stroke="black" points="955.08,-192.68 953.19,-183.88 949.17,-191.94 955.08,-192.68"/>
<text text-anchor="middle" x="941.98" y="-205.89" font-family="Times,serif" font-size="14.00"> b </text>
</g>
<!-- q0&#45;&gt;a -->
<g id="edge2" class="edge">
<title>q0&#45;&gt;a</title>
<path fill="none" stroke="black" d="M82.53,-189.55C98.37,-204.18 121.95,-225.96 138.64,-241.38"/>
<polygon fill="black" stroke="black" points="136.4,-243.36 144.66,-246.94 140.43,-238.99 136.4,-243.36"/>
<text text-anchor="middle" x="114.93" y="-231.72" font-family="Times,serif" font-size="14.00"> a </text>
</g>
<!-- q0&#45;&gt;b -->
<g id="edge3" class="edge">
<title>q0&#45;&gt;b</title>
<path fill="none" stroke="black" d="M87.84,-167.73C106.58,-163.2 134.11,-157.77 158.55,-157.77 158.55,-157.77 158.55,-157.77 363.98,-157.77 400.62,-157.77 437.84,-135.12 460.35,-118.38"/>
<polygon fill="black" stroke="black" points="462.1,-120.78 467.02,-113.23 458.47,-116.07 462.1,-120.78"/>
<text text-anchor="middle" x="253.6" y="-161.72" font-family="Times,serif" font-size="14.00"> b </text>
</g>
</g>
</svg>
