<?xml version="1.0" encoding="UTF-8" standalone="no"?>
<!DOCTYPE svg PUBLIC "-//W3C//DTD SVG 1.1//EN" "http://www.w3.org/Graphics/SVG/1.1/DTD/svg11.dtd">
<!-- Generated by graphviz version 2.43.0 (0)
 -->
<!-- Title: %3 Pages: 1 -->
<svg width="404pt" height="256pt" viewBox="0.00 0.00 403.58 256.50" xmlns="http://www.w3.org/2000/svg"
    xmlns:xlink="http://www.w3.org/1999/xlink">
    <g id="graph0" class="graph" transform="scale(1 1) rotate(0) translate(4 252.5)">
        <title>%3</title>
        <polygon fill="none" stroke="transparent" points="-4,4 -4,-252.5 399.58,-252.5 399.58,4 -4,4" />
        <!-- Initial -->
        <g id="node1" class="node">
            <title>Initial</title>
            <ellipse fill="black" stroke="black" cx="1.8" cy="-88.75" rx="1.8" ry="1.8" />
        </g>
        <!-- q0 -->
        <g id="node2" class="node">
            <title>q0</title>
            <ellipse fill="white" stroke="black" cx="63.35" cy="-88.75" rx="23" ry="23" />
            <text text-anchor="middle" x="63.35" y="-85.05" font-family="Times,serif" font-size="14.00">q0</text>
        </g>
        <!-- Initial&#45;&gt;q0 -->
        <g id="edge1" class="edge">
            <title>Initial&#45;&gt;q0</title>
            <path fill="none" stroke="black" d="M3.83,-88.75C7.36,-88.75 19.4,-88.75 31.65,-88.75" />
            <polygon fill="black" stroke="black" points="31.98,-91.72 40.48,-88.75 31.98,-85.77 31.98,-91.72" />
        </g>
        <!-- q1 -->
        <g id="node3" class="node">
            <title>q1</title>
            <ellipse fill="white" stroke="black" cx="163.84" cy="-88.75" rx="23" ry="23" />
            <text text-anchor="middle" x="163.84" y="-85.05" font-family="Times,serif" font-size="14.00">q1</text>
        </g>
        <!-- q0&#45;&gt;q1 -->
        <g id="edge2" class="edge">
            <title>q0&#45;&gt;q1</title>
            <path fill="none" stroke="black" d="M86.21,-88.75C99.72,-88.75 117.28,-88.75 132.17,-88.75" />
            <polygon fill="black" stroke="black" points="132.55,-91.72 141.05,-88.75 132.55,-85.77 132.55,-91.72" />
            <text text-anchor="middle" x="113.6" y="-92.55" font-family="Times,serif" font-size="14.00"> a </text>
        </g>
        <!-- q0&#45;&gt;q1 -->
        <g id="edge3" class="edge">
            <title>q0&#45;&gt;q1</title>
            <path fill="none" stroke="black"
                d="M83.53,-77.46C89.86,-74.32 97.08,-71.34 104.1,-69.75 112.33,-67.88 114.86,-67.88 123.1,-69.75 127.37,-70.72 131.72,-72.2 135.9,-73.93" />
            <polygon fill="black" stroke="black" points="134.69,-76.65 143.66,-77.46 137.16,-71.23 134.69,-76.65" />
            <text text-anchor="middle" x="113.6" y="-73.55" font-family="Times,serif" font-size="14.00"> b </text>
        </g>
        <!-- q2 -->
        <g id="node4" class="node">
            <title>q2</title>
            <ellipse fill="white" stroke="black" cx="264.34" cy="-88.75" rx="23" ry="23" />
            <text text-anchor="middle" x="264.34" y="-85.05" font-family="Times,serif" font-size="14.00">q2</text>
        </g>
        <!-- q1&#45;&gt;q2 -->
        <g id="edge4" class="edge">
            <title>q1&#45;&gt;q2</title>
            <path fill="none" stroke="black" d="M186.7,-88.75C200.22,-88.75 217.77,-88.75 232.67,-88.75" />
            <polygon fill="black" stroke="black" points="233.04,-91.72 241.54,-88.75 233.04,-85.77 233.04,-91.72" />
            <text text-anchor="middle" x="214.09" y="-92.55" font-family="Times,serif" font-size="14.00"> a </text>
        </g>
        <!-- q1&#45;&gt;q2 -->
        <g id="edge5" class="edge">
            <title>q1&#45;&gt;q2</title>
            <path fill="none" stroke="black"
                d="M184.03,-77.46C190.36,-74.32 197.58,-71.34 204.59,-69.75 212.83,-67.88 215.36,-67.88 223.59,-69.75 227.86,-70.72 232.22,-72.2 236.4,-73.93" />
            <polygon fill="black" stroke="black" points="235.19,-76.65 244.16,-77.46 237.65,-71.23 235.19,-76.65" />
            <text text-anchor="middle" x="214.09" y="-73.55" font-family="Times,serif" font-size="14.00"> b </text>
        </g>
        <!-- qF -->
        <g id="node5" class="node">
            <title>qF</title>
            <ellipse fill="white" stroke="black" cx="368.84" cy="-155.75" rx="27" ry="27" />
            <ellipse fill="none" stroke="black" cx="368.84" cy="-155.75" rx="22.96" ry="22.96" />
            <text text-anchor="middle" x="368.84" y="-152.05" font-family="Times,serif" font-size="14.00">qF</text>
        </g>
        <!-- q2&#45;&gt;qF -->
        <g id="edge6" class="edge">
            <title>q2&#45;&gt;qF</title>
            <path fill="none" stroke="black" d="M284.14,-101.04C299.41,-111.02 321.21,-125.27 338.74,-136.73" />
            <polygon fill="black" stroke="black" points="337.21,-139.28 345.95,-141.44 340.47,-134.3 337.21,-139.28" />
            <text text-anchor="middle" x="314.59" y="-129.55" font-family="Times,serif" font-size="14.00"> a </text>
        </g>
        <!-- qT -->
        <g id="node6" class="node">
            <title>qT</title>
            <ellipse fill="white" stroke="black" cx="368.84" cy="-22.75" rx="23" ry="23" />
            <text text-anchor="middle" x="368.84" y="-19.05" font-family="Times,serif" font-size="14.00">qT</text>
        </g>
        <!-- q2&#45;&gt;qT -->
        <g id="edge7" class="edge">
            <title>q2&#45;&gt;qT</title>
            <path fill="none" stroke="black" d="M284.14,-76.64C300.32,-66.22 323.84,-51.08 341.82,-39.5" />
            <polygon fill="black" stroke="black" points="343.62,-41.88 349.16,-34.78 340.4,-36.88 343.62,-41.88" />
            <text text-anchor="middle" x="314.59" y="-65.55" font-family="Times,serif" font-size="14.00"> b </text>
        </g>
        <!-- qF&#45;&gt;qF -->
        <g id="edge8" class="edge">
            <title>qF&#45;&gt;qF</title>
            <path fill="none" stroke="black"
                d="M363.78,-182.39C363.62,-192.32 365.3,-200.5 368.84,-200.5 371.26,-200.5 372.82,-196.63 373.5,-190.99" />
            <polygon fill="black" stroke="black" points="376.48,-191.02 373.89,-182.39 370.53,-190.75 376.48,-191.02" />
            <text text-anchor="middle" x="368.84" y="-204.3" font-family="Times,serif" font-size="14.00"> a </text>
        </g>
        <!-- qF&#45;&gt;qF -->
        <g id="edge9" class="edge">
            <title>qF&#45;&gt;qF</title>
            <path fill="none" stroke="black"
                d="M359.85,-181.2C356.82,-199.83 359.82,-218.5 368.84,-218.5 376.44,-218.5 379.76,-205.21 378.8,-189.87" />
            <polygon fill="black" stroke="black" points="381.73,-189.32 377.82,-181.2 375.82,-189.98 381.73,-189.32" />
            <text text-anchor="middle" x="368.84" y="-222.3" font-family="Times,serif" font-size="14.00"> b </text>
        </g>
        <!-- qT&#45;&gt;qT -->
        <g id="edge10" class="edge">
            <title>qT&#45;&gt;qT</title>
            <path fill="none" stroke="black"
                d="M363.85,-44.96C363.38,-54.9 365.04,-63.5 368.84,-63.5 371.45,-63.5 373.05,-59.43 373.64,-53.66" />
            <polygon fill="black" stroke="black" points="376.62,-53.52 373.82,-44.96 370.67,-53.4 376.62,-53.52" />
            <text text-anchor="middle" x="368.84" y="-67.3" font-family="Times,serif" font-size="14.00"> a </text>
        </g>
        <!-- qT&#45;&gt;qT -->
        <g id="edge11" class="edge">
            <title>qT&#45;&gt;qT</title>
            <path fill="none" stroke="black"
                d="M360.32,-44.13C356.56,-62.35 359.4,-81.5 368.84,-81.5 376.8,-81.5 380.07,-67.86 378.63,-52.66" />
            <polygon fill="black" stroke="black" points="381.56,-52.1 377.35,-44.13 375.67,-52.98 381.56,-52.1" />
            <text text-anchor="middle" x="368.84" y="-85.3" font-family="Times,serif" font-size="14.00"> b </text>
        </g>
    </g>
</svg>